G04 #@! TF.FileFunction,Soldermask,Top*
%FSLAX46Y46*%
G04 Gerber Fmt 4.6, Leading zero omitted, Abs format (unit mm)*
G04 Created by KiCad (PCBNEW 4.0.6) date 2020 March 20, Friday 17:13:11*
%MOMM*%
%LPD*%
G01*
G04 APERTURE LIST*
%ADD10C,0.100000*%
%ADD11R,2.200000X2.200000*%
%ADD12C,2.200000*%
%ADD13C,2.000000*%
%ADD14O,2.000000X2.000000*%
%ADD15C,1.901140*%
%ADD16C,4.210000*%
%ADD17R,1.924000X1.924000*%
%ADD18C,1.924000*%
%ADD19O,2.200000X2.200000*%
%ADD20R,2.000000X2.000000*%
%ADD21O,1.619200X1.619100*%
%ADD22O,1.619200X1.619200*%
%ADD23R,3.295600X3.295600*%
%ADD24R,1.900000X1.900000*%
%ADD25C,2.584400*%
%ADD26R,2.800000X2.800000*%
%ADD27O,2.800000X2.800000*%
G04 APERTURE END LIST*
D10*
D11*
X30480000Y-43180000D03*
D12*
X30480000Y-45720000D03*
D11*
X35560000Y-43180000D03*
D12*
X35560000Y-45720000D03*
D11*
X40640000Y-43180000D03*
D12*
X40640000Y-45720000D03*
D11*
X45720000Y-43180000D03*
D12*
X45720000Y-45720000D03*
D13*
X182880000Y-48260000D03*
X180380000Y-48260000D03*
X182880000Y-43180000D03*
X180380000Y-43180000D03*
X220980000Y-38100000D03*
X223480000Y-38100000D03*
X202565000Y-48260000D03*
D14*
X192405000Y-48260000D03*
D13*
X192405000Y-43180000D03*
D14*
X202565000Y-43180000D03*
D15*
X187960000Y-48160940D03*
X187960000Y-43279060D03*
X46990000Y-35560000D03*
X41910000Y-35549840D03*
D16*
X243586000Y-27940000D03*
X218567000Y-27940000D03*
D17*
X236601000Y-29337000D03*
D18*
X233807000Y-29337000D03*
X231140000Y-29337000D03*
X228346000Y-29337000D03*
X225679000Y-29337000D03*
X235204000Y-26543000D03*
X232410000Y-26543000D03*
X229743000Y-26543000D03*
X226949000Y-26543000D03*
D11*
X172720000Y-43180000D03*
D12*
X172720000Y-45720000D03*
D11*
X158750000Y-129540000D03*
D19*
X166370000Y-129540000D03*
D11*
X158750000Y-121920000D03*
D19*
X166370000Y-121920000D03*
D18*
X182880000Y-55880000D03*
X182880000Y-53340000D03*
X182880000Y-58420000D03*
D13*
X168910000Y-41910000D03*
D14*
X168910000Y-31750000D03*
D20*
X208280000Y-153035000D03*
D14*
X208280000Y-150495000D03*
X208280000Y-147955000D03*
X208280000Y-145415000D03*
X208280000Y-142875000D03*
D20*
X163830000Y-153670000D03*
D14*
X163830000Y-151130000D03*
X163830000Y-148590000D03*
X163830000Y-146050000D03*
X163830000Y-143510000D03*
D13*
X163830000Y-156845000D03*
D14*
X163830000Y-167005000D03*
D13*
X168910000Y-125730000D03*
D14*
X158750000Y-125730000D03*
D20*
X25400000Y-53340000D03*
D14*
X25400000Y-50800000D03*
X25400000Y-48260000D03*
X25400000Y-45720000D03*
X25400000Y-43180000D03*
D20*
X63500000Y-40640000D03*
D14*
X66040000Y-40640000D03*
X68580000Y-40640000D03*
X71120000Y-40640000D03*
X73660000Y-40640000D03*
X76200000Y-40640000D03*
D13*
X162560000Y-31750000D03*
D14*
X162560000Y-41910000D03*
D13*
X74930000Y-27940000D03*
D14*
X64770000Y-27940000D03*
D13*
X132080000Y-31750000D03*
D14*
X132080000Y-41910000D03*
D13*
X135890000Y-31750000D03*
D14*
X135890000Y-41910000D03*
D13*
X140970000Y-31750000D03*
D14*
X140970000Y-41910000D03*
D13*
X144780000Y-31750000D03*
D14*
X144780000Y-41910000D03*
D13*
X149860000Y-31750000D03*
D14*
X149860000Y-41910000D03*
D13*
X153670000Y-31750000D03*
D14*
X153670000Y-41910000D03*
D13*
X158750000Y-31750000D03*
D14*
X158750000Y-41910000D03*
D13*
X248920000Y-38100000D03*
D14*
X238760000Y-38100000D03*
D21*
X31420000Y-33020000D03*
D22*
X34620000Y-33020000D03*
D23*
X29570000Y-27970000D03*
X36470000Y-27970000D03*
D18*
X182110000Y-29845000D03*
X184400000Y-29845000D03*
X186690000Y-29845000D03*
X188980000Y-29845000D03*
X191270000Y-29845000D03*
X183255000Y-32385000D03*
X185545000Y-32385000D03*
X187835000Y-32385000D03*
X190125000Y-32385000D03*
X192415000Y-32385000D03*
X183255000Y-27305000D03*
X185545000Y-27305000D03*
X187835000Y-27305000D03*
X190125000Y-27305000D03*
X192415000Y-27305000D03*
D16*
X175070000Y-29845000D03*
X200060000Y-29845000D03*
D24*
X107950000Y-29210000D03*
X113030000Y-29210000D03*
X102870000Y-29210000D03*
X127635000Y-130810000D03*
X122555000Y-125730000D03*
D13*
X147320000Y-84455000D03*
X233680000Y-53975000D03*
X228680000Y-53975000D03*
X220980000Y-53975000D03*
X215980000Y-53975000D03*
X208280000Y-53975000D03*
X203280000Y-53975000D03*
X195580000Y-53975000D03*
X190580000Y-53975000D03*
X181610000Y-78740000D03*
X181610000Y-73740000D03*
X193040000Y-102870000D03*
X198040000Y-102870000D03*
X223520000Y-102870000D03*
X228520000Y-102870000D03*
X212090000Y-121920000D03*
X212090000Y-116920000D03*
X180340000Y-116840000D03*
X180340000Y-121840000D03*
X212090000Y-139700000D03*
X212090000Y-134700000D03*
X171450000Y-160020000D03*
X171450000Y-165020000D03*
X130810000Y-121920000D03*
X130810000Y-126920000D03*
X113030000Y-160020000D03*
X113030000Y-165020000D03*
X108585000Y-133350000D03*
X103585000Y-133350000D03*
X78740000Y-146050000D03*
X73740000Y-146050000D03*
X63500000Y-140970000D03*
X63500000Y-135970000D03*
X48260000Y-146050000D03*
X43260000Y-146050000D03*
X48260000Y-120650000D03*
X43260000Y-120650000D03*
X73660000Y-120650000D03*
X78660000Y-120650000D03*
X73660000Y-106680000D03*
X78660000Y-106680000D03*
X63500000Y-97790000D03*
X63500000Y-92790000D03*
X43180000Y-106680000D03*
X48180000Y-106680000D03*
X48260000Y-80010000D03*
X43260000Y-80010000D03*
X78740000Y-80010000D03*
X73740000Y-80010000D03*
X48260000Y-54610000D03*
X43260000Y-54610000D03*
X63500000Y-54610000D03*
X58500000Y-54610000D03*
X78740000Y-54610000D03*
X73740000Y-54610000D03*
X103505000Y-58420000D03*
X103505000Y-63420000D03*
X103505000Y-81280000D03*
X103505000Y-86280000D03*
X118110000Y-81280000D03*
X118110000Y-86280000D03*
X118110000Y-58420000D03*
X118110000Y-63420000D03*
X133350000Y-58420000D03*
X133350000Y-63420000D03*
X137160000Y-84455000D03*
X142160000Y-84455000D03*
X148590000Y-58420000D03*
X148590000Y-63420000D03*
X177800000Y-55880000D03*
X177800000Y-50880000D03*
X97790000Y-34290000D03*
X97790000Y-29290000D03*
X71120000Y-34290000D03*
X76120000Y-34290000D03*
X68580000Y-34290000D03*
X63580000Y-34290000D03*
X231140000Y-38100000D03*
X236140000Y-38100000D03*
D20*
X55880000Y-35560000D03*
D13*
X52380000Y-35560000D03*
X203835000Y-38100000D03*
X208835000Y-38100000D03*
D25*
X90170000Y-34290000D03*
X87630000Y-34290000D03*
X82550000Y-34290000D03*
X80010000Y-34290000D03*
X85090000Y-29210000D03*
D14*
X71120000Y-149860000D03*
X71120000Y-152400000D03*
X71120000Y-154940000D03*
X71120000Y-157480000D03*
X71120000Y-160020000D03*
X71120000Y-162560000D03*
X71120000Y-165100000D03*
X71120000Y-167640000D03*
X78740000Y-167640000D03*
X78740000Y-165100000D03*
X78740000Y-162560000D03*
X78740000Y-160020000D03*
X78740000Y-157480000D03*
X78740000Y-154940000D03*
X78740000Y-152400000D03*
X78740000Y-149860000D03*
X71120000Y-124460000D03*
X71120000Y-127000000D03*
X71120000Y-129540000D03*
X71120000Y-132080000D03*
X71120000Y-134620000D03*
X71120000Y-137160000D03*
X71120000Y-139700000D03*
X71120000Y-142240000D03*
X78740000Y-142240000D03*
X78740000Y-139700000D03*
X78740000Y-137160000D03*
X78740000Y-134620000D03*
X78740000Y-132080000D03*
X78740000Y-129540000D03*
X78740000Y-127000000D03*
X78740000Y-124460000D03*
X71120000Y-83820000D03*
X71120000Y-86360000D03*
X71120000Y-88900000D03*
X71120000Y-91440000D03*
X71120000Y-93980000D03*
X71120000Y-96520000D03*
X71120000Y-99060000D03*
X71120000Y-101600000D03*
X78740000Y-101600000D03*
X78740000Y-99060000D03*
X78740000Y-96520000D03*
X78740000Y-93980000D03*
X78740000Y-91440000D03*
X78740000Y-88900000D03*
X78740000Y-86360000D03*
X78740000Y-83820000D03*
X71120000Y-58420000D03*
X71120000Y-60960000D03*
X71120000Y-63500000D03*
X71120000Y-66040000D03*
X71120000Y-68580000D03*
X71120000Y-71120000D03*
X71120000Y-73660000D03*
X71120000Y-76200000D03*
X78740000Y-76200000D03*
X78740000Y-73660000D03*
X78740000Y-71120000D03*
X78740000Y-68580000D03*
X78740000Y-66040000D03*
X78740000Y-63500000D03*
X78740000Y-60960000D03*
X78740000Y-58420000D03*
X40640000Y-149860000D03*
X40640000Y-152400000D03*
X40640000Y-154940000D03*
X40640000Y-157480000D03*
X40640000Y-160020000D03*
X40640000Y-162560000D03*
X40640000Y-165100000D03*
X40640000Y-167640000D03*
X48260000Y-167640000D03*
X48260000Y-165100000D03*
X48260000Y-162560000D03*
X48260000Y-160020000D03*
X48260000Y-157480000D03*
X48260000Y-154940000D03*
X48260000Y-152400000D03*
X48260000Y-149860000D03*
X40640000Y-124460000D03*
X40640000Y-127000000D03*
X40640000Y-129540000D03*
X40640000Y-132080000D03*
X40640000Y-134620000D03*
X40640000Y-137160000D03*
X40640000Y-139700000D03*
X40640000Y-142240000D03*
X48260000Y-142240000D03*
X48260000Y-139700000D03*
X48260000Y-137160000D03*
X48260000Y-134620000D03*
X48260000Y-132080000D03*
X48260000Y-129540000D03*
X48260000Y-127000000D03*
X48260000Y-124460000D03*
X40640000Y-83820000D03*
X40640000Y-86360000D03*
X40640000Y-88900000D03*
X40640000Y-91440000D03*
X40640000Y-93980000D03*
X40640000Y-96520000D03*
X40640000Y-99060000D03*
X40640000Y-101600000D03*
X48260000Y-101600000D03*
X48260000Y-99060000D03*
X48260000Y-96520000D03*
X48260000Y-93980000D03*
X48260000Y-91440000D03*
X48260000Y-88900000D03*
X48260000Y-86360000D03*
X48260000Y-83820000D03*
X40640000Y-58420000D03*
X40640000Y-60960000D03*
X40640000Y-63500000D03*
X40640000Y-66040000D03*
X40640000Y-68580000D03*
X40640000Y-71120000D03*
X40640000Y-73660000D03*
X40640000Y-76200000D03*
X48260000Y-76200000D03*
X48260000Y-73660000D03*
X48260000Y-71120000D03*
X48260000Y-68580000D03*
X48260000Y-66040000D03*
X48260000Y-63500000D03*
X48260000Y-60960000D03*
X48260000Y-58420000D03*
X68580000Y-116840000D03*
X71120000Y-116840000D03*
X73660000Y-116840000D03*
X76200000Y-116840000D03*
X78740000Y-116840000D03*
X81280000Y-116840000D03*
X83820000Y-116840000D03*
X86360000Y-116840000D03*
X86360000Y-109220000D03*
X83820000Y-109220000D03*
X81280000Y-109220000D03*
X78740000Y-109220000D03*
X76200000Y-109220000D03*
X73660000Y-109220000D03*
X71120000Y-109220000D03*
X68580000Y-109220000D03*
X33020000Y-116840000D03*
X35560000Y-116840000D03*
X38100000Y-116840000D03*
X40640000Y-116840000D03*
X43180000Y-116840000D03*
X45720000Y-116840000D03*
X48260000Y-116840000D03*
X50800000Y-116840000D03*
X50800000Y-109220000D03*
X48260000Y-109220000D03*
X45720000Y-109220000D03*
X43180000Y-109220000D03*
X40640000Y-109220000D03*
X38100000Y-109220000D03*
X35560000Y-109220000D03*
X33020000Y-109220000D03*
X215900000Y-129540000D03*
X218440000Y-129540000D03*
X220980000Y-129540000D03*
X223520000Y-129540000D03*
X226060000Y-129540000D03*
X228600000Y-129540000D03*
X231140000Y-129540000D03*
X233680000Y-129540000D03*
X233680000Y-121920000D03*
X231140000Y-121920000D03*
X228600000Y-121920000D03*
X226060000Y-121920000D03*
X223520000Y-121920000D03*
X220980000Y-121920000D03*
X218440000Y-121920000D03*
X215900000Y-121920000D03*
X215900000Y-144780000D03*
X218440000Y-144780000D03*
X220980000Y-144780000D03*
X223520000Y-144780000D03*
X226060000Y-144780000D03*
X228600000Y-144780000D03*
X231140000Y-144780000D03*
X233680000Y-144780000D03*
X233680000Y-137160000D03*
X231140000Y-137160000D03*
X228600000Y-137160000D03*
X226060000Y-137160000D03*
X223520000Y-137160000D03*
X220980000Y-137160000D03*
X218440000Y-137160000D03*
X215900000Y-137160000D03*
X175260000Y-167640000D03*
X177800000Y-167640000D03*
X180340000Y-167640000D03*
X182880000Y-167640000D03*
X185420000Y-167640000D03*
X187960000Y-167640000D03*
X190500000Y-167640000D03*
X193040000Y-167640000D03*
X193040000Y-160020000D03*
X190500000Y-160020000D03*
X187960000Y-160020000D03*
X185420000Y-160020000D03*
X182880000Y-160020000D03*
X180340000Y-160020000D03*
X177800000Y-160020000D03*
X175260000Y-160020000D03*
X116840000Y-167640000D03*
X119380000Y-167640000D03*
X121920000Y-167640000D03*
X124460000Y-167640000D03*
X127000000Y-167640000D03*
X129540000Y-167640000D03*
X132080000Y-167640000D03*
X134620000Y-167640000D03*
X134620000Y-160020000D03*
X132080000Y-160020000D03*
X129540000Y-160020000D03*
X127000000Y-160020000D03*
X124460000Y-160020000D03*
X121920000Y-160020000D03*
X119380000Y-160020000D03*
X116840000Y-160020000D03*
X121920000Y-58420000D03*
X121920000Y-60960000D03*
X121920000Y-63500000D03*
X121920000Y-66040000D03*
X121920000Y-68580000D03*
X121920000Y-71120000D03*
X121920000Y-73660000D03*
X121920000Y-76200000D03*
X129540000Y-76200000D03*
X129540000Y-73660000D03*
X129540000Y-71120000D03*
X129540000Y-68580000D03*
X129540000Y-66040000D03*
X129540000Y-63500000D03*
X129540000Y-60960000D03*
X129540000Y-58420000D03*
X106680000Y-58420000D03*
X106680000Y-60960000D03*
X106680000Y-63500000D03*
X106680000Y-66040000D03*
X106680000Y-68580000D03*
X106680000Y-71120000D03*
X106680000Y-73660000D03*
X106680000Y-76200000D03*
X114300000Y-76200000D03*
X114300000Y-73660000D03*
X114300000Y-71120000D03*
X114300000Y-68580000D03*
X114300000Y-66040000D03*
X114300000Y-63500000D03*
X114300000Y-60960000D03*
X114300000Y-58420000D03*
X121920000Y-81280000D03*
X121920000Y-83820000D03*
X121920000Y-86360000D03*
X121920000Y-88900000D03*
X121920000Y-91440000D03*
X121920000Y-93980000D03*
X121920000Y-96520000D03*
X121920000Y-99060000D03*
X129540000Y-99060000D03*
X129540000Y-96520000D03*
X129540000Y-93980000D03*
X129540000Y-91440000D03*
X129540000Y-88900000D03*
X129540000Y-86360000D03*
X129540000Y-83820000D03*
X129540000Y-81280000D03*
X106680000Y-81280000D03*
X106680000Y-83820000D03*
X106680000Y-86360000D03*
X106680000Y-88900000D03*
X106680000Y-91440000D03*
X106680000Y-93980000D03*
X106680000Y-96520000D03*
X106680000Y-99060000D03*
X114300000Y-99060000D03*
X114300000Y-96520000D03*
X114300000Y-93980000D03*
X114300000Y-91440000D03*
X114300000Y-88900000D03*
X114300000Y-86360000D03*
X114300000Y-83820000D03*
X114300000Y-81280000D03*
X152400000Y-58420000D03*
X152400000Y-60960000D03*
X152400000Y-63500000D03*
X152400000Y-66040000D03*
X152400000Y-68580000D03*
X152400000Y-71120000D03*
X152400000Y-73660000D03*
X152400000Y-76200000D03*
X160020000Y-76200000D03*
X160020000Y-73660000D03*
X160020000Y-71120000D03*
X160020000Y-68580000D03*
X160020000Y-66040000D03*
X160020000Y-63500000D03*
X160020000Y-60960000D03*
X160020000Y-58420000D03*
X137160000Y-58420000D03*
X137160000Y-60960000D03*
X137160000Y-63500000D03*
X137160000Y-66040000D03*
X137160000Y-68580000D03*
X137160000Y-71120000D03*
X137160000Y-73660000D03*
X137160000Y-76200000D03*
X144780000Y-76200000D03*
X144780000Y-73660000D03*
X144780000Y-71120000D03*
X144780000Y-68580000D03*
X144780000Y-66040000D03*
X144780000Y-63500000D03*
X144780000Y-60960000D03*
X144780000Y-58420000D03*
X228600000Y-58420000D03*
X228600000Y-60960000D03*
X228600000Y-63500000D03*
X228600000Y-66040000D03*
X228600000Y-68580000D03*
X228600000Y-71120000D03*
X228600000Y-73660000D03*
X228600000Y-76200000D03*
X236220000Y-76200000D03*
X236220000Y-73660000D03*
X236220000Y-71120000D03*
X236220000Y-68580000D03*
X236220000Y-66040000D03*
X236220000Y-63500000D03*
X236220000Y-60960000D03*
X236220000Y-58420000D03*
X215900000Y-58420000D03*
X215900000Y-60960000D03*
X215900000Y-63500000D03*
X215900000Y-66040000D03*
X215900000Y-68580000D03*
X215900000Y-71120000D03*
X215900000Y-73660000D03*
X215900000Y-76200000D03*
X223520000Y-76200000D03*
X223520000Y-73660000D03*
X223520000Y-71120000D03*
X223520000Y-68580000D03*
X223520000Y-66040000D03*
X223520000Y-63500000D03*
X223520000Y-60960000D03*
X223520000Y-58420000D03*
X200660000Y-58420000D03*
X200660000Y-60960000D03*
X200660000Y-63500000D03*
X200660000Y-66040000D03*
X200660000Y-68580000D03*
X200660000Y-71120000D03*
X200660000Y-73660000D03*
X200660000Y-76200000D03*
X208280000Y-76200000D03*
X208280000Y-73660000D03*
X208280000Y-71120000D03*
X208280000Y-68580000D03*
X208280000Y-66040000D03*
X208280000Y-63500000D03*
X208280000Y-60960000D03*
X208280000Y-58420000D03*
X187960000Y-58420000D03*
X187960000Y-60960000D03*
X187960000Y-63500000D03*
X187960000Y-66040000D03*
X187960000Y-68580000D03*
X187960000Y-71120000D03*
X187960000Y-73660000D03*
X187960000Y-76200000D03*
X195580000Y-76200000D03*
X195580000Y-73660000D03*
X195580000Y-71120000D03*
X195580000Y-68580000D03*
X195580000Y-66040000D03*
X195580000Y-63500000D03*
X195580000Y-60960000D03*
X195580000Y-58420000D03*
X231140000Y-49530000D03*
X233680000Y-49530000D03*
X236220000Y-49530000D03*
X238760000Y-49530000D03*
X241300000Y-49530000D03*
X243840000Y-49530000D03*
X246380000Y-49530000D03*
X248920000Y-49530000D03*
X248920000Y-41910000D03*
X246380000Y-41910000D03*
X243840000Y-41910000D03*
X241300000Y-41910000D03*
X238760000Y-41910000D03*
X236220000Y-41910000D03*
X233680000Y-41910000D03*
X231140000Y-41910000D03*
X137160000Y-104140000D03*
X139700000Y-104140000D03*
X142240000Y-104140000D03*
X144780000Y-104140000D03*
X147320000Y-104140000D03*
X149860000Y-104140000D03*
X152400000Y-104140000D03*
X154940000Y-104140000D03*
X157480000Y-104140000D03*
X160020000Y-104140000D03*
X162560000Y-104140000D03*
X165100000Y-104140000D03*
X167640000Y-104140000D03*
X170180000Y-104140000D03*
X170180000Y-88900000D03*
X167640000Y-88900000D03*
X165100000Y-88900000D03*
X162560000Y-88900000D03*
X160020000Y-88900000D03*
X157480000Y-88900000D03*
X154940000Y-88900000D03*
X152400000Y-88900000D03*
X149860000Y-88900000D03*
X147320000Y-88900000D03*
X144780000Y-88900000D03*
X142240000Y-88900000D03*
X139700000Y-88900000D03*
X137160000Y-88900000D03*
X187960000Y-99060000D03*
X190500000Y-99060000D03*
X193040000Y-99060000D03*
X195580000Y-99060000D03*
X198120000Y-99060000D03*
X200660000Y-99060000D03*
X203200000Y-99060000D03*
X205740000Y-99060000D03*
X208280000Y-99060000D03*
X210820000Y-99060000D03*
X213360000Y-99060000D03*
X215900000Y-99060000D03*
X218440000Y-99060000D03*
X220980000Y-99060000D03*
X223520000Y-99060000D03*
X226060000Y-99060000D03*
X228600000Y-99060000D03*
X231140000Y-99060000D03*
X233680000Y-99060000D03*
X236220000Y-99060000D03*
X236220000Y-83820000D03*
X233680000Y-83820000D03*
X231140000Y-83820000D03*
X228600000Y-83820000D03*
X226060000Y-83820000D03*
X223520000Y-83820000D03*
X220980000Y-83820000D03*
X218440000Y-83820000D03*
X215900000Y-83820000D03*
X213360000Y-83820000D03*
X210820000Y-83820000D03*
X208280000Y-83820000D03*
X205740000Y-83820000D03*
X203200000Y-83820000D03*
X200660000Y-83820000D03*
X198120000Y-83820000D03*
X195580000Y-83820000D03*
X193040000Y-83820000D03*
X190500000Y-83820000D03*
X187960000Y-83820000D03*
X208280000Y-49530000D03*
X210820000Y-49530000D03*
X213360000Y-49530000D03*
X215900000Y-49530000D03*
X218440000Y-49530000D03*
X220980000Y-49530000D03*
X223520000Y-49530000D03*
X223520000Y-41910000D03*
X220980000Y-41910000D03*
X218440000Y-41910000D03*
X215900000Y-41910000D03*
X213360000Y-41910000D03*
X210820000Y-41910000D03*
X208280000Y-41910000D03*
X134620000Y-129540000D03*
X137160000Y-129540000D03*
X139700000Y-129540000D03*
X142240000Y-129540000D03*
X144780000Y-129540000D03*
X147320000Y-129540000D03*
X149860000Y-129540000D03*
X149860000Y-121920000D03*
X147320000Y-121920000D03*
X144780000Y-121920000D03*
X142240000Y-121920000D03*
X139700000Y-121920000D03*
X137160000Y-121920000D03*
X134620000Y-121920000D03*
X215900000Y-114300000D03*
X218440000Y-114300000D03*
X220980000Y-114300000D03*
X223520000Y-114300000D03*
X226060000Y-114300000D03*
X228600000Y-114300000D03*
X231140000Y-114300000D03*
X233680000Y-114300000D03*
X236220000Y-114300000D03*
X238760000Y-114300000D03*
X238760000Y-106680000D03*
X236220000Y-106680000D03*
X233680000Y-106680000D03*
X231140000Y-106680000D03*
X228600000Y-106680000D03*
X226060000Y-106680000D03*
X223520000Y-106680000D03*
X220980000Y-106680000D03*
X218440000Y-106680000D03*
X215900000Y-106680000D03*
X185420000Y-114300000D03*
X187960000Y-114300000D03*
X190500000Y-114300000D03*
X193040000Y-114300000D03*
X195580000Y-114300000D03*
X198120000Y-114300000D03*
X200660000Y-114300000D03*
X203200000Y-114300000D03*
X205740000Y-114300000D03*
X208280000Y-114300000D03*
X208280000Y-106680000D03*
X205740000Y-106680000D03*
X203200000Y-106680000D03*
X200660000Y-106680000D03*
X198120000Y-106680000D03*
X195580000Y-106680000D03*
X193040000Y-106680000D03*
X190500000Y-106680000D03*
X187960000Y-106680000D03*
X185420000Y-106680000D03*
X185420000Y-129540000D03*
X187960000Y-129540000D03*
X190500000Y-129540000D03*
X193040000Y-129540000D03*
X195580000Y-129540000D03*
X198120000Y-129540000D03*
X200660000Y-129540000D03*
X203200000Y-129540000D03*
X205740000Y-129540000D03*
X208280000Y-129540000D03*
X208280000Y-121920000D03*
X205740000Y-121920000D03*
X203200000Y-121920000D03*
X200660000Y-121920000D03*
X198120000Y-121920000D03*
X195580000Y-121920000D03*
X193040000Y-121920000D03*
X190500000Y-121920000D03*
X187960000Y-121920000D03*
X185420000Y-121920000D03*
X99060000Y-139700000D03*
X99060000Y-142240000D03*
X99060000Y-144780000D03*
X99060000Y-147320000D03*
X99060000Y-149860000D03*
X99060000Y-152400000D03*
X99060000Y-154940000D03*
X99060000Y-157480000D03*
X99060000Y-160020000D03*
X99060000Y-162560000D03*
X106680000Y-162560000D03*
X106680000Y-160020000D03*
X106680000Y-157480000D03*
X106680000Y-154940000D03*
X106680000Y-152400000D03*
X106680000Y-149860000D03*
X106680000Y-147320000D03*
X106680000Y-144780000D03*
X106680000Y-142240000D03*
X106680000Y-139700000D03*
X55880000Y-144780000D03*
X55880000Y-147320000D03*
X55880000Y-149860000D03*
X55880000Y-152400000D03*
X55880000Y-154940000D03*
X55880000Y-157480000D03*
X55880000Y-160020000D03*
X55880000Y-162560000D03*
X55880000Y-165100000D03*
X55880000Y-167640000D03*
X63500000Y-167640000D03*
X63500000Y-165100000D03*
X63500000Y-162560000D03*
X63500000Y-160020000D03*
X63500000Y-157480000D03*
X63500000Y-154940000D03*
X63500000Y-152400000D03*
X63500000Y-149860000D03*
X63500000Y-147320000D03*
X63500000Y-144780000D03*
X55880000Y-101600000D03*
X55880000Y-104140000D03*
X55880000Y-106680000D03*
X55880000Y-109220000D03*
X55880000Y-111760000D03*
X55880000Y-114300000D03*
X55880000Y-116840000D03*
X55880000Y-119380000D03*
X55880000Y-121920000D03*
X55880000Y-124460000D03*
X63500000Y-124460000D03*
X63500000Y-121920000D03*
X63500000Y-119380000D03*
X63500000Y-116840000D03*
X63500000Y-114300000D03*
X63500000Y-111760000D03*
X63500000Y-109220000D03*
X63500000Y-106680000D03*
X63500000Y-104140000D03*
X63500000Y-101600000D03*
X55880000Y-58420000D03*
X55880000Y-60960000D03*
X55880000Y-63500000D03*
X55880000Y-66040000D03*
X55880000Y-68580000D03*
X55880000Y-71120000D03*
X55880000Y-73660000D03*
X55880000Y-76200000D03*
X55880000Y-78740000D03*
X55880000Y-81280000D03*
X63500000Y-81280000D03*
X63500000Y-78740000D03*
X63500000Y-76200000D03*
X63500000Y-73660000D03*
X63500000Y-71120000D03*
X63500000Y-68580000D03*
X63500000Y-66040000D03*
X63500000Y-63500000D03*
X63500000Y-60960000D03*
X63500000Y-58420000D03*
X167640000Y-58420000D03*
X167640000Y-60960000D03*
X167640000Y-63500000D03*
X167640000Y-66040000D03*
X167640000Y-68580000D03*
X167640000Y-71120000D03*
X167640000Y-73660000D03*
X167640000Y-76200000D03*
X167640000Y-78740000D03*
X167640000Y-81280000D03*
X175260000Y-81280000D03*
X175260000Y-78740000D03*
X175260000Y-76200000D03*
X175260000Y-73660000D03*
X175260000Y-71120000D03*
X175260000Y-68580000D03*
X175260000Y-66040000D03*
X175260000Y-63500000D03*
X175260000Y-60960000D03*
X175260000Y-58420000D03*
X101600000Y-40640000D03*
X104140000Y-40640000D03*
X106680000Y-40640000D03*
X109220000Y-40640000D03*
X111760000Y-40640000D03*
X114300000Y-40640000D03*
X116840000Y-40640000D03*
X119380000Y-40640000D03*
X121920000Y-40640000D03*
X124460000Y-40640000D03*
X124460000Y-33020000D03*
X121920000Y-33020000D03*
X119380000Y-33020000D03*
X116840000Y-33020000D03*
X114300000Y-33020000D03*
X111760000Y-33020000D03*
X109220000Y-33020000D03*
X106680000Y-33020000D03*
X104140000Y-33020000D03*
X101600000Y-33020000D03*
D26*
X53975000Y-27940000D03*
D27*
X41275000Y-27940000D03*
D11*
X114300000Y-147320000D03*
D19*
X111760000Y-147320000D03*
D11*
X114300000Y-151130000D03*
D19*
X111760000Y-151130000D03*
D11*
X120650000Y-147320000D03*
D19*
X118110000Y-147320000D03*
D11*
X127000000Y-154940000D03*
D19*
X124460000Y-154940000D03*
D11*
X127000000Y-151130000D03*
D19*
X124460000Y-151130000D03*
D11*
X127000000Y-147320000D03*
D19*
X124460000Y-147320000D03*
D11*
X133350000Y-154940000D03*
D19*
X130810000Y-154940000D03*
D11*
X133350000Y-151130000D03*
D19*
X130810000Y-151130000D03*
D11*
X139700000Y-151130000D03*
D19*
X137160000Y-151130000D03*
D11*
X139700000Y-147320000D03*
D19*
X137160000Y-147320000D03*
D11*
X146050000Y-163830000D03*
D19*
X143510000Y-163830000D03*
D11*
X146050000Y-158750000D03*
D19*
X143510000Y-158750000D03*
D11*
X146050000Y-154940000D03*
D19*
X143510000Y-154940000D03*
D11*
X158750000Y-163830000D03*
D19*
X156210000Y-163830000D03*
D11*
X158750000Y-158750000D03*
D19*
X156210000Y-158750000D03*
D11*
X158750000Y-151130000D03*
D19*
X156210000Y-151130000D03*
D11*
X171450000Y-154940000D03*
D19*
X168910000Y-154940000D03*
D11*
X177800000Y-154940000D03*
D19*
X175260000Y-154940000D03*
D11*
X177800000Y-147320000D03*
D19*
X175260000Y-147320000D03*
D11*
X184150000Y-154940000D03*
D19*
X181610000Y-154940000D03*
D11*
X184150000Y-143510000D03*
D19*
X181610000Y-143510000D03*
D11*
X190500000Y-147320000D03*
D19*
X187960000Y-147320000D03*
D11*
X190500000Y-143510000D03*
D19*
X187960000Y-143510000D03*
D11*
X196850000Y-151130000D03*
D19*
X194310000Y-151130000D03*
D11*
X203200000Y-151130000D03*
D19*
X200660000Y-151130000D03*
D11*
X203200000Y-147320000D03*
D19*
X200660000Y-147320000D03*
D11*
X203200000Y-143510000D03*
D19*
X200660000Y-143510000D03*
D11*
X190500000Y-154940000D03*
D19*
X187960000Y-154940000D03*
M02*
