%TF.GenerationSoftware,KiCad,Pcbnew,(5.1.6)-1*%
%TF.CreationDate,2020-07-17T12:20:37+01:00*%
%TF.ProjectId,Gigatron,47696761-7472-46f6-9e2e-6b696361645f,rev?*%
%TF.SameCoordinates,Original*%
%TF.FileFunction,Copper,L2,Bot*%
%TF.FilePolarity,Positive*%
%FSLAX46Y46*%
G04 Gerber Fmt 4.6, Leading zero omitted, Abs format (unit mm)*
G04 Created by KiCad (PCBNEW (5.1.6)-1) date 2020-07-17 12:20:37*
%MOMM*%
%LPD*%
G01*
G04 APERTURE LIST*
%TA.AperFunction,ComponentPad*%
%ADD10O,1.150000X1.800000*%
%TD*%
%TA.AperFunction,ComponentPad*%
%ADD11O,1.450000X2.000000*%
%TD*%
%TA.AperFunction,ComponentPad*%
%ADD12C,4.000000*%
%TD*%
%TA.AperFunction,ComponentPad*%
%ADD13C,1.600000*%
%TD*%
%TA.AperFunction,ComponentPad*%
%ADD14R,1.600000X1.600000*%
%TD*%
%TA.AperFunction,ComponentPad*%
%ADD15O,1.600000X1.600000*%
%TD*%
%TA.AperFunction,ComponentPad*%
%ADD16C,1.500000*%
%TD*%
%TA.AperFunction,ComponentPad*%
%ADD17R,1.500000X1.500000*%
%TD*%
%TA.AperFunction,ComponentPad*%
%ADD18C,2.000000*%
%TD*%
%TA.AperFunction,ComponentPad*%
%ADD19O,1.800000X1.800000*%
%TD*%
%TA.AperFunction,ComponentPad*%
%ADD20R,1.800000X1.800000*%
%TD*%
%TA.AperFunction,ComponentPad*%
%ADD21O,2.400000X2.400000*%
%TD*%
%TA.AperFunction,ComponentPad*%
%ADD22R,2.400000X2.400000*%
%TD*%
%TA.AperFunction,ComponentPad*%
%ADD23O,1.400000X1.400000*%
%TD*%
%TA.AperFunction,ComponentPad*%
%ADD24C,1.400000*%
%TD*%
%TA.AperFunction,ComponentPad*%
%ADD25C,2.550000*%
%TD*%
%TA.AperFunction,ComponentPad*%
%ADD26C,2.400000*%
%TD*%
%TA.AperFunction,ComponentPad*%
%ADD27C,0.600000*%
%TD*%
%TA.AperFunction,ComponentPad*%
%ADD28C,1.800000*%
%TD*%
%TA.AperFunction,ViaPad*%
%ADD29C,0.600000*%
%TD*%
%TA.AperFunction,Conductor*%
%ADD30C,0.250000*%
%TD*%
%TA.AperFunction,Conductor*%
%ADD31C,0.400000*%
%TD*%
G04 APERTURE END LIST*
D10*
%TO.P,J1,6*%
%TO.N,N/C*%
X29145000Y-25355000D03*
X36895000Y-25355000D03*
D11*
X29295000Y-29155000D03*
X36745000Y-29155000D03*
%TD*%
D12*
%TO.P,J3,0*%
%TO.N,GND*%
X175330000Y-29065000D03*
X200330000Y-29065000D03*
D13*
%TO.P,J3,15*%
%TO.N,N/C*%
X192675000Y-27155000D03*
%TO.P,J3,14*%
%TO.N,SER_LATCH*%
X190385000Y-27155000D03*
%TO.P,J3,13*%
%TO.N,SER_PULSE*%
X188095000Y-27155000D03*
%TO.P,J3,12*%
%TO.N,N/C*%
X185805000Y-27155000D03*
%TO.P,J3,11*%
X183515000Y-27155000D03*
%TO.P,J3,10*%
%TO.N,GND*%
X191530000Y-29135000D03*
%TO.P,J3,9*%
%TO.N,N/C*%
X189240000Y-29135000D03*
%TO.P,J3,8*%
%TO.N,GND*%
X186950000Y-29135000D03*
%TO.P,J3,7*%
X184660000Y-29135000D03*
%TO.P,J3,6*%
X182370000Y-29135000D03*
%TO.P,J3,5*%
X192675000Y-31115000D03*
%TO.P,J3,4*%
%TO.N,N/C*%
X190385000Y-31115000D03*
%TO.P,J3,3*%
%TO.N,/PER/BLUE*%
X188095000Y-31115000D03*
%TO.P,J3,2*%
%TO.N,/PER/GREEN*%
X185805000Y-31115000D03*
D14*
%TO.P,J3,1*%
%TO.N,/PER/RED*%
X183515000Y-31115000D03*
%TD*%
D12*
%TO.P,J4,0*%
%TO.N,GND*%
X219100000Y-31450000D03*
X244100000Y-31450000D03*
D13*
%TO.P,J4,9*%
%TO.N,N/C*%
X235755000Y-28910000D03*
%TO.P,J4,8*%
%TO.N,GND*%
X232985000Y-28910000D03*
%TO.P,J4,7*%
%TO.N,N/C*%
X230215000Y-28910000D03*
%TO.P,J4,6*%
%TO.N,VCC*%
X227445000Y-28910000D03*
%TO.P,J4,5*%
%TO.N,N/C*%
X237140000Y-31750000D03*
%TO.P,J4,4*%
%TO.N,SER_PULSE*%
X234370000Y-31750000D03*
%TO.P,J4,3*%
%TO.N,SER_LATCH*%
X231600000Y-31750000D03*
%TO.P,J4,2*%
%TO.N,SER_DATA*%
X228830000Y-31750000D03*
D14*
%TO.P,J4,1*%
%TO.N,N/C*%
X226060000Y-31750000D03*
%TD*%
D15*
%TO.P,R19,2*%
%TO.N,SER_DATA*%
X238760000Y-38100000D03*
D13*
%TO.P,R19,1*%
%TO.N,VCC*%
X248920000Y-38100000D03*
%TD*%
D15*
%TO.P,R10,2*%
%TO.N,GND*%
X64770000Y-27940000D03*
D13*
%TO.P,R10,1*%
%TO.N,Net-(C44-Pad1)*%
X74930000Y-27940000D03*
%TD*%
D15*
%TO.P,R7,2*%
%TO.N,VCC*%
X158750000Y-125730000D03*
D13*
%TO.P,R7,1*%
%TO.N,~PL*%
X168910000Y-125730000D03*
%TD*%
D15*
%TO.P,R6,2*%
%TO.N,Net-(D21-Pad2)*%
X163830000Y-167005000D03*
D13*
%TO.P,R6,1*%
%TO.N,VCC*%
X163830000Y-156845000D03*
%TD*%
D15*
%TO.P,R3,2*%
%TO.N,GND*%
X168910000Y-31750000D03*
D13*
%TO.P,R3,1*%
%TO.N,Net-(D2-Pad1)*%
X168910000Y-41910000D03*
%TD*%
%TO.P,C3,2*%
%TO.N,GND*%
X223480000Y-38100000D03*
%TO.P,C3,1*%
%TO.N,Net-(C3-Pad1)*%
X220980000Y-38100000D03*
%TD*%
%TO.P,C2,2*%
%TO.N,GND*%
X180380000Y-43180000D03*
%TO.P,C2,1*%
%TO.N,Net-(C2-Pad1)*%
X182880000Y-43180000D03*
%TD*%
%TO.P,C1,2*%
%TO.N,GND*%
X180380000Y-48260000D03*
%TO.P,C1,1*%
%TO.N,Net-(C1-Pad1)*%
X182880000Y-48260000D03*
%TD*%
D16*
%TO.P,Y1,2*%
%TO.N,Net-(C2-Pad1)*%
X187630000Y-43300000D03*
%TO.P,Y1,1*%
%TO.N,Net-(C1-Pad1)*%
X187630000Y-48180000D03*
%TD*%
D17*
%TO.P,U2,1*%
%TO.N,~RST*%
X182880000Y-58420000D03*
D16*
%TO.P,U2,3*%
%TO.N,GND*%
X182880000Y-53340000D03*
%TO.P,U2,2*%
%TO.N,VCC*%
X182880000Y-55880000D03*
%TD*%
D15*
%TO.P,R18,2*%
%TO.N,OUT7*%
X162560000Y-41910000D03*
D13*
%TO.P,R18,1*%
%TO.N,SER_LATCH*%
X162560000Y-31750000D03*
%TD*%
D15*
%TO.P,R17,2*%
%TO.N,OUT6*%
X158750000Y-41910000D03*
D13*
%TO.P,R17,1*%
%TO.N,SER_PULSE*%
X158750000Y-31750000D03*
%TD*%
D15*
%TO.P,R16,2*%
%TO.N,OUT5*%
X153670000Y-41910000D03*
D13*
%TO.P,R16,1*%
%TO.N,/PER/BLUE*%
X153670000Y-31750000D03*
%TD*%
D15*
%TO.P,R15,2*%
%TO.N,OUT4*%
X149860000Y-41910000D03*
D13*
%TO.P,R15,1*%
%TO.N,/PER/BLUE*%
X149860000Y-31750000D03*
%TD*%
D15*
%TO.P,R14,2*%
%TO.N,OUT3*%
X144780000Y-41910000D03*
D13*
%TO.P,R14,1*%
%TO.N,/PER/GREEN*%
X144780000Y-31750000D03*
%TD*%
D15*
%TO.P,R13,2*%
%TO.N,OUT2*%
X140970000Y-41910000D03*
D13*
%TO.P,R13,1*%
%TO.N,/PER/GREEN*%
X140970000Y-31750000D03*
%TD*%
D15*
%TO.P,R12,2*%
%TO.N,OUT1*%
X135890000Y-41910000D03*
D13*
%TO.P,R12,1*%
%TO.N,/PER/RED*%
X135890000Y-31750000D03*
%TD*%
D15*
%TO.P,R11,2*%
%TO.N,OUT0*%
X132080000Y-41910000D03*
D13*
%TO.P,R11,1*%
%TO.N,/PER/RED*%
X132080000Y-31750000D03*
%TD*%
D15*
%TO.P,R9,6*%
%TO.N,GND*%
X76200000Y-40640000D03*
%TO.P,R9,5*%
%TO.N,Net-(R9-Pad5)*%
X73660000Y-40640000D03*
%TO.P,R9,4*%
%TO.N,Net-(R9-Pad4)*%
X71120000Y-40640000D03*
%TO.P,R9,3*%
%TO.N,Net-(R9-Pad3)*%
X68580000Y-40640000D03*
%TO.P,R9,2*%
%TO.N,Net-(R9-Pad2)*%
X66040000Y-40640000D03*
D14*
%TO.P,R9,1*%
%TO.N,Net-(C43-Pad1)*%
X63500000Y-40640000D03*
%TD*%
D15*
%TO.P,R8,5*%
%TO.N,Net-(D8-Pad1)*%
X25400000Y-43180000D03*
%TO.P,R8,4*%
%TO.N,Net-(D5-Pad1)*%
X25400000Y-45720000D03*
%TO.P,R8,3*%
%TO.N,Net-(D6-Pad1)*%
X25400000Y-48260000D03*
%TO.P,R8,2*%
%TO.N,Net-(D7-Pad1)*%
X25400000Y-50800000D03*
D14*
%TO.P,R8,1*%
%TO.N,GND*%
X25400000Y-53340000D03*
%TD*%
D15*
%TO.P,R5,5*%
%TO.N,Net-(D23-Pad2)*%
X163830000Y-143510000D03*
%TO.P,R5,4*%
%TO.N,Net-(D22-Pad2)*%
X163830000Y-146050000D03*
%TO.P,R5,3*%
%TO.N,Net-(D25-Pad2)*%
X163830000Y-148590000D03*
%TO.P,R5,2*%
%TO.N,Net-(D32-Pad2)*%
X163830000Y-151130000D03*
D14*
%TO.P,R5,1*%
%TO.N,VCC*%
X163830000Y-153670000D03*
%TD*%
D15*
%TO.P,R4,5*%
%TO.N,EH*%
X208280000Y-142875000D03*
%TO.P,R4,4*%
%TO.N,EL*%
X208280000Y-145415000D03*
%TO.P,R4,3*%
%TO.N,Net-(D17-Pad2)*%
X208280000Y-147955000D03*
%TO.P,R4,2*%
%TO.N,Net-(D10-Pad2)*%
X208280000Y-150495000D03*
D14*
%TO.P,R4,1*%
%TO.N,VCC*%
X208280000Y-153035000D03*
%TD*%
D15*
%TO.P,R2,2*%
%TO.N,Net-(R1-Pad1)*%
X202565000Y-43180000D03*
D13*
%TO.P,R2,1*%
%TO.N,Net-(C2-Pad1)*%
X192405000Y-43180000D03*
%TD*%
D15*
%TO.P,R1,2*%
%TO.N,Net-(C1-Pad1)*%
X192405000Y-48260000D03*
D13*
%TO.P,R1,1*%
%TO.N,Net-(R1-Pad1)*%
X202565000Y-48260000D03*
%TD*%
D18*
%TO.P,F1,2*%
%TO.N,/PCR/+5V*%
X41960000Y-35630000D03*
%TO.P,F1,1*%
%TO.N,VCC*%
X47040000Y-35640000D03*
%TD*%
D19*
%TO.P,D36,2*%
%TO.N,Net-(D22-Pad2)*%
X156210000Y-151130000D03*
D20*
%TO.P,D36,1*%
%TO.N,/CU/~J*%
X158750000Y-151130000D03*
%TD*%
D19*
%TO.P,D35,2*%
%TO.N,Net-(D32-Pad2)*%
X156210000Y-158750000D03*
D20*
%TO.P,D35,1*%
%TO.N,/CU/~J*%
X158750000Y-158750000D03*
%TD*%
D19*
%TO.P,D34,2*%
%TO.N,Net-(D21-Pad2)*%
X156210000Y-163830000D03*
D20*
%TO.P,D34,1*%
%TO.N,/CU/~J*%
X158750000Y-163830000D03*
%TD*%
D19*
%TO.P,D33,2*%
%TO.N,Net-(D25-Pad2)*%
X143510000Y-154940000D03*
D20*
%TO.P,D33,1*%
%TO.N,Net-(D32-Pad1)*%
X146050000Y-154940000D03*
%TD*%
D19*
%TO.P,D32,2*%
%TO.N,Net-(D32-Pad2)*%
X143510000Y-158750000D03*
D20*
%TO.P,D32,1*%
%TO.N,Net-(D32-Pad1)*%
X146050000Y-158750000D03*
%TD*%
D19*
%TO.P,D31,2*%
%TO.N,Net-(D23-Pad2)*%
X137160000Y-147320000D03*
D20*
%TO.P,D31,1*%
%TO.N,Net-(D30-Pad1)*%
X139700000Y-147320000D03*
%TD*%
D19*
%TO.P,D30,2*%
%TO.N,Net-(D22-Pad2)*%
X137160000Y-151130000D03*
D20*
%TO.P,D30,1*%
%TO.N,Net-(D30-Pad1)*%
X139700000Y-151130000D03*
%TD*%
D19*
%TO.P,D29,2*%
%TO.N,Net-(D22-Pad2)*%
X130810000Y-151130000D03*
D20*
%TO.P,D29,1*%
%TO.N,Net-(D28-Pad1)*%
X133350000Y-151130000D03*
%TD*%
D19*
%TO.P,D28,2*%
%TO.N,Net-(D25-Pad2)*%
X130810000Y-154940000D03*
D20*
%TO.P,D28,1*%
%TO.N,Net-(D28-Pad1)*%
X133350000Y-154940000D03*
%TD*%
D19*
%TO.P,D27,2*%
%TO.N,Net-(D23-Pad2)*%
X124460000Y-147320000D03*
D20*
%TO.P,D27,1*%
%TO.N,Net-(D25-Pad1)*%
X127000000Y-147320000D03*
%TD*%
D19*
%TO.P,D26,2*%
%TO.N,Net-(D22-Pad2)*%
X124460000Y-151130000D03*
D20*
%TO.P,D26,1*%
%TO.N,Net-(D25-Pad1)*%
X127000000Y-151130000D03*
%TD*%
D19*
%TO.P,D25,2*%
%TO.N,Net-(D25-Pad2)*%
X124460000Y-154940000D03*
D20*
%TO.P,D25,1*%
%TO.N,Net-(D25-Pad1)*%
X127000000Y-154940000D03*
%TD*%
D19*
%TO.P,D24,2*%
%TO.N,Net-(D23-Pad2)*%
X118110000Y-147320000D03*
D20*
%TO.P,D24,1*%
%TO.N,Net-(D24-Pad1)*%
X120650000Y-147320000D03*
%TD*%
D19*
%TO.P,D23,2*%
%TO.N,Net-(D23-Pad2)*%
X111760000Y-147320000D03*
D20*
%TO.P,D23,1*%
%TO.N,Net-(D22-Pad1)*%
X114300000Y-147320000D03*
%TD*%
D19*
%TO.P,D22,2*%
%TO.N,Net-(D22-Pad2)*%
X111760000Y-151130000D03*
D20*
%TO.P,D22,1*%
%TO.N,Net-(D22-Pad1)*%
X114300000Y-151130000D03*
%TD*%
D19*
%TO.P,D21,2*%
%TO.N,Net-(D21-Pad2)*%
X143510000Y-163830000D03*
D20*
%TO.P,D21,1*%
%TO.N,IR7*%
X146050000Y-163830000D03*
%TD*%
D19*
%TO.P,D20,2*%
%TO.N,EH*%
X200660000Y-143510000D03*
D20*
%TO.P,D20,1*%
%TO.N,/CU/INV_A_IN*%
X203200000Y-143510000D03*
%TD*%
D19*
%TO.P,D19,2*%
%TO.N,EL*%
X200660000Y-147320000D03*
D20*
%TO.P,D19,1*%
%TO.N,/CU/INV_A_IN*%
X203200000Y-147320000D03*
%TD*%
D19*
%TO.P,D18,2*%
%TO.N,Net-(D17-Pad2)*%
X200660000Y-151130000D03*
D20*
%TO.P,D18,1*%
%TO.N,/CU/INV_A_IN*%
X203200000Y-151130000D03*
%TD*%
D19*
%TO.P,D17,2*%
%TO.N,Net-(D17-Pad2)*%
X194310000Y-151130000D03*
D20*
%TO.P,D17,1*%
%TO.N,Net-(D17-Pad1)*%
X196850000Y-151130000D03*
%TD*%
D19*
%TO.P,D16,2*%
%TO.N,EH*%
X187960000Y-143510000D03*
D20*
%TO.P,D16,1*%
%TO.N,Net-(D14-Pad1)*%
X190500000Y-143510000D03*
%TD*%
D19*
%TO.P,D15,2*%
%TO.N,EL*%
X187960000Y-147320000D03*
D20*
%TO.P,D15,1*%
%TO.N,Net-(D14-Pad1)*%
X190500000Y-147320000D03*
%TD*%
D19*
%TO.P,D14,2*%
%TO.N,Net-(D10-Pad2)*%
X187960000Y-154940000D03*
D20*
%TO.P,D14,1*%
%TO.N,Net-(D14-Pad1)*%
X190500000Y-154940000D03*
%TD*%
D19*
%TO.P,D13,2*%
%TO.N,EH*%
X181610000Y-143510000D03*
D20*
%TO.P,D13,1*%
%TO.N,Net-(D12-Pad1)*%
X184150000Y-143510000D03*
%TD*%
D19*
%TO.P,D12,2*%
%TO.N,Net-(D10-Pad2)*%
X181610000Y-154940000D03*
D20*
%TO.P,D12,1*%
%TO.N,Net-(D12-Pad1)*%
X184150000Y-154940000D03*
%TD*%
D19*
%TO.P,D11,2*%
%TO.N,EL*%
X175260000Y-147320000D03*
D20*
%TO.P,D11,1*%
%TO.N,Net-(D10-Pad1)*%
X177800000Y-147320000D03*
%TD*%
D19*
%TO.P,D10,2*%
%TO.N,Net-(D10-Pad2)*%
X175260000Y-154940000D03*
D20*
%TO.P,D10,1*%
%TO.N,Net-(D10-Pad1)*%
X177800000Y-154940000D03*
%TD*%
D19*
%TO.P,D9,2*%
%TO.N,Net-(D10-Pad2)*%
X168910000Y-154940000D03*
D20*
%TO.P,D9,1*%
%TO.N,Net-(D9-Pad1)*%
X171450000Y-154940000D03*
%TD*%
D19*
%TO.P,D4,2*%
%TO.N,~PL*%
X166370000Y-121920000D03*
D20*
%TO.P,D4,1*%
%TO.N,~PH*%
X158750000Y-121920000D03*
%TD*%
D19*
%TO.P,D3,2*%
%TO.N,~PL*%
X166370000Y-129540000D03*
D20*
%TO.P,D3,1*%
%TO.N,/CU/INV_C_OUT*%
X158750000Y-129540000D03*
%TD*%
D21*
%TO.P,D1,2*%
%TO.N,GND*%
X41275000Y-27940000D03*
D22*
%TO.P,D1,1*%
%TO.N,VCC*%
X53975000Y-27940000D03*
%TD*%
D13*
%TO.P,C44,2*%
%TO.N,Net-(C43-Pad1)*%
X63580000Y-34290000D03*
%TO.P,C44,1*%
%TO.N,Net-(C44-Pad1)*%
X68580000Y-34290000D03*
%TD*%
%TO.P,C43,2*%
%TO.N,GND*%
X76120000Y-34290000D03*
%TO.P,C43,1*%
%TO.N,Net-(C43-Pad1)*%
X71120000Y-34290000D03*
%TD*%
%TO.P,C42,2*%
%TO.N,GND*%
X97790000Y-29290000D03*
%TO.P,C42,1*%
%TO.N,VCC*%
X97790000Y-34290000D03*
%TD*%
%TO.P,C41,2*%
%TO.N,GND*%
X177800000Y-50880000D03*
%TO.P,C41,1*%
%TO.N,VCC*%
X177800000Y-55880000D03*
%TD*%
%TO.P,C40,2*%
%TO.N,GND*%
X148590000Y-63420000D03*
%TO.P,C40,1*%
%TO.N,VCC*%
X148590000Y-58420000D03*
%TD*%
%TO.P,C39,2*%
%TO.N,GND*%
X142160000Y-84455000D03*
%TO.P,C39,1*%
%TO.N,VCC*%
X137160000Y-84455000D03*
%TD*%
%TO.P,C38,2*%
%TO.N,GND*%
X133350000Y-63420000D03*
%TO.P,C38,1*%
%TO.N,VCC*%
X133350000Y-58420000D03*
%TD*%
%TO.P,C37,2*%
%TO.N,GND*%
X118110000Y-63420000D03*
%TO.P,C37,1*%
%TO.N,VCC*%
X118110000Y-58420000D03*
%TD*%
%TO.P,C36,2*%
%TO.N,GND*%
X118110000Y-86280000D03*
%TO.P,C36,1*%
%TO.N,VCC*%
X118110000Y-81280000D03*
%TD*%
%TO.P,C35,2*%
%TO.N,GND*%
X103505000Y-86280000D03*
%TO.P,C35,1*%
%TO.N,VCC*%
X103505000Y-81280000D03*
%TD*%
%TO.P,C34,2*%
%TO.N,GND*%
X103505000Y-63420000D03*
%TO.P,C34,1*%
%TO.N,VCC*%
X103505000Y-58420000D03*
%TD*%
%TO.P,C33,2*%
%TO.N,GND*%
X73740000Y-54610000D03*
%TO.P,C33,1*%
%TO.N,VCC*%
X78740000Y-54610000D03*
%TD*%
%TO.P,C32,2*%
%TO.N,GND*%
X58500000Y-54610000D03*
%TO.P,C32,1*%
%TO.N,VCC*%
X63500000Y-54610000D03*
%TD*%
%TO.P,C31,2*%
%TO.N,GND*%
X43260000Y-54610000D03*
%TO.P,C31,1*%
%TO.N,VCC*%
X48260000Y-54610000D03*
%TD*%
%TO.P,C30,2*%
%TO.N,GND*%
X73740000Y-80010000D03*
%TO.P,C30,1*%
%TO.N,VCC*%
X78740000Y-80010000D03*
%TD*%
%TO.P,C29,2*%
%TO.N,GND*%
X43260000Y-80010000D03*
%TO.P,C29,1*%
%TO.N,VCC*%
X48260000Y-80010000D03*
%TD*%
%TO.P,C28,2*%
%TO.N,GND*%
X48180000Y-106680000D03*
%TO.P,C28,1*%
%TO.N,VCC*%
X43180000Y-106680000D03*
%TD*%
%TO.P,C27,2*%
%TO.N,GND*%
X63500000Y-92790000D03*
%TO.P,C27,1*%
%TO.N,VCC*%
X63500000Y-97790000D03*
%TD*%
%TO.P,C26,2*%
%TO.N,GND*%
X78660000Y-106680000D03*
%TO.P,C26,1*%
%TO.N,VCC*%
X73660000Y-106680000D03*
%TD*%
%TO.P,C25,2*%
%TO.N,GND*%
X78660000Y-120650000D03*
%TO.P,C25,1*%
%TO.N,VCC*%
X73660000Y-120650000D03*
%TD*%
%TO.P,C24,2*%
%TO.N,GND*%
X43260000Y-120650000D03*
%TO.P,C24,1*%
%TO.N,VCC*%
X48260000Y-120650000D03*
%TD*%
%TO.P,C23,2*%
%TO.N,GND*%
X43260000Y-146050000D03*
%TO.P,C23,1*%
%TO.N,VCC*%
X48260000Y-146050000D03*
%TD*%
%TO.P,C22,2*%
%TO.N,GND*%
X63500000Y-135970000D03*
%TO.P,C22,1*%
%TO.N,VCC*%
X63500000Y-140970000D03*
%TD*%
%TO.P,C21,2*%
%TO.N,GND*%
X73740000Y-146050000D03*
%TO.P,C21,1*%
%TO.N,VCC*%
X78740000Y-146050000D03*
%TD*%
%TO.P,C20,2*%
%TO.N,GND*%
X103585000Y-133350000D03*
%TO.P,C20,1*%
%TO.N,VCC*%
X108585000Y-133350000D03*
%TD*%
%TO.P,C19,2*%
%TO.N,GND*%
X113030000Y-165020000D03*
%TO.P,C19,1*%
%TO.N,VCC*%
X113030000Y-160020000D03*
%TD*%
%TO.P,C18,2*%
%TO.N,GND*%
X130810000Y-126920000D03*
%TO.P,C18,1*%
%TO.N,VCC*%
X130810000Y-121920000D03*
%TD*%
%TO.P,C17,2*%
%TO.N,GND*%
X171450000Y-165020000D03*
%TO.P,C17,1*%
%TO.N,VCC*%
X171450000Y-160020000D03*
%TD*%
%TO.P,C16,2*%
%TO.N,GND*%
X212090000Y-134700000D03*
%TO.P,C16,1*%
%TO.N,VCC*%
X212090000Y-139700000D03*
%TD*%
%TO.P,C15,2*%
%TO.N,GND*%
X180340000Y-121840000D03*
%TO.P,C15,1*%
%TO.N,VCC*%
X180340000Y-116840000D03*
%TD*%
%TO.P,C14,2*%
%TO.N,GND*%
X212090000Y-116920000D03*
%TO.P,C14,1*%
%TO.N,VCC*%
X212090000Y-121920000D03*
%TD*%
%TO.P,C13,2*%
%TO.N,GND*%
X228520000Y-102870000D03*
%TO.P,C13,1*%
%TO.N,VCC*%
X223520000Y-102870000D03*
%TD*%
%TO.P,C12,2*%
%TO.N,GND*%
X198040000Y-102870000D03*
%TO.P,C12,1*%
%TO.N,VCC*%
X193040000Y-102870000D03*
%TD*%
%TO.P,C11,2*%
%TO.N,GND*%
X181610000Y-73740000D03*
%TO.P,C11,1*%
%TO.N,VCC*%
X181610000Y-78740000D03*
%TD*%
%TO.P,C10,2*%
%TO.N,GND*%
X190580000Y-53975000D03*
%TO.P,C10,1*%
%TO.N,VCC*%
X195580000Y-53975000D03*
%TD*%
%TO.P,C9,2*%
%TO.N,GND*%
X203280000Y-53975000D03*
%TO.P,C9,1*%
%TO.N,VCC*%
X208280000Y-53975000D03*
%TD*%
%TO.P,C8,2*%
%TO.N,GND*%
X215980000Y-53975000D03*
%TO.P,C8,1*%
%TO.N,VCC*%
X220980000Y-53975000D03*
%TD*%
%TO.P,C7,2*%
%TO.N,GND*%
X228680000Y-53975000D03*
%TO.P,C7,1*%
%TO.N,VCC*%
X233680000Y-53975000D03*
%TD*%
%TO.P,C6,2*%
%TO.N,GND*%
X236140000Y-38100000D03*
%TO.P,C6,1*%
%TO.N,VCC*%
X231140000Y-38100000D03*
%TD*%
%TO.P,C5,2*%
%TO.N,GND*%
X209470000Y-38735000D03*
%TO.P,C5,1*%
%TO.N,VCC*%
X204470000Y-38735000D03*
%TD*%
%TO.P,C4,2*%
%TO.N,GND*%
X52380000Y-35560000D03*
D14*
%TO.P,C4,1*%
%TO.N,VCC*%
X55880000Y-35560000D03*
%TD*%
D23*
%TO.P,R101,2*%
%TO.N,L*%
X59565000Y-44450000D03*
D24*
%TO.P,R101,1*%
%TO.N,GND*%
X57665000Y-44450000D03*
%TD*%
D23*
%TO.P,R100,2*%
%TO.N,VCC*%
X54605000Y-44450000D03*
D24*
%TO.P,R100,1*%
%TO.N,H*%
X52705000Y-44450000D03*
%TD*%
D14*
%TO.P,U16,1*%
%TO.N,CLK1*%
X134620000Y-129540000D03*
D15*
%TO.P,U16,8*%
%TO.N,~LD*%
X149860000Y-121920000D03*
%TO.P,U16,2*%
%TO.N,/CU/INV_B_IN*%
X137160000Y-129540000D03*
%TO.P,U16,9*%
%TO.N,Net-(D10-Pad2)*%
X147320000Y-121920000D03*
%TO.P,U16,3*%
%TO.N,~WE*%
X139700000Y-129540000D03*
%TO.P,U16,10*%
%TO.N,/CU/INV_B_OUT*%
X144780000Y-121920000D03*
%TO.P,U16,4*%
%TO.N,Net-(D17-Pad2)*%
X142240000Y-129540000D03*
%TO.P,U16,11*%
%TO.N,~PH*%
X142240000Y-121920000D03*
%TO.P,U16,5*%
%TO.N,/CU/INV_B_OUT*%
X144780000Y-129540000D03*
%TO.P,U16,12*%
%TO.N,/CU/~BF*%
X139700000Y-121920000D03*
%TO.P,U16,6*%
%TO.N,~OL*%
X147320000Y-129540000D03*
%TO.P,U16,13*%
%TO.N,/CU/~J*%
X137160000Y-121920000D03*
%TO.P,U16,7*%
%TO.N,VCC*%
X149860000Y-129540000D03*
%TO.P,U16,14*%
%TO.N,GND*%
X134620000Y-121920000D03*
%TD*%
D14*
%TO.P,U11,1*%
%TO.N,L*%
X215900000Y-129540000D03*
D15*
%TO.P,U11,9*%
%TO.N,N/C*%
X233680000Y-121920000D03*
%TO.P,U11,2*%
%TO.N,IR0*%
X218440000Y-129540000D03*
%TO.P,U11,10*%
%TO.N,N/C*%
X231140000Y-121920000D03*
%TO.P,U11,3*%
%TO.N,IR1*%
X220980000Y-129540000D03*
%TO.P,U11,11*%
%TO.N,N/C*%
X228600000Y-121920000D03*
%TO.P,U11,4*%
%TO.N,~DE*%
X223520000Y-129540000D03*
%TO.P,U11,12*%
%TO.N,/CU/~BF*%
X226060000Y-121920000D03*
%TO.P,U11,5*%
%TO.N,~OE*%
X226060000Y-129540000D03*
%TO.P,U11,13*%
%TO.N,IR2*%
X223520000Y-121920000D03*
%TO.P,U11,6*%
%TO.N,~AE*%
X228600000Y-129540000D03*
%TO.P,U11,14*%
%TO.N,IR3*%
X220980000Y-121920000D03*
%TO.P,U11,7*%
%TO.N,~IE*%
X231140000Y-129540000D03*
%TO.P,U11,15*%
%TO.N,IR4*%
X218440000Y-121920000D03*
%TO.P,U11,8*%
%TO.N,VCC*%
X233680000Y-129540000D03*
%TO.P,U11,16*%
%TO.N,GND*%
X215900000Y-121920000D03*
%TD*%
%TO.P,U7,40*%
%TO.N,VCC*%
X187960000Y-83820000D03*
%TO.P,U7,20*%
%TO.N,L*%
X236220000Y-99060000D03*
%TO.P,U7,39*%
%TO.N,H*%
X190500000Y-83820000D03*
%TO.P,U7,19*%
%TO.N,Net-(U7-Pad19)*%
X233680000Y-99060000D03*
%TO.P,U7,38*%
%TO.N,N/C*%
X193040000Y-83820000D03*
%TO.P,U7,18*%
%TO.N,Net-(U7-Pad18)*%
X231140000Y-99060000D03*
%TO.P,U7,37*%
%TO.N,/PRG/PC15*%
X195580000Y-83820000D03*
%TO.P,U7,17*%
%TO.N,Net-(U7-Pad17)*%
X228600000Y-99060000D03*
%TO.P,U7,36*%
%TO.N,/PRG/PC14*%
X198120000Y-83820000D03*
%TO.P,U7,16*%
%TO.N,Net-(U7-Pad16)*%
X226060000Y-99060000D03*
%TO.P,U7,35*%
%TO.N,/PRG/PC13*%
X200660000Y-83820000D03*
%TO.P,U7,15*%
%TO.N,Net-(U7-Pad15)*%
X223520000Y-99060000D03*
%TO.P,U7,34*%
%TO.N,/PRG/PC12*%
X203200000Y-83820000D03*
%TO.P,U7,14*%
%TO.N,Net-(U7-Pad14)*%
X220980000Y-99060000D03*
%TO.P,U7,33*%
%TO.N,/PRG/PC11*%
X205740000Y-83820000D03*
%TO.P,U7,13*%
%TO.N,Net-(U7-Pad13)*%
X218440000Y-99060000D03*
%TO.P,U7,32*%
%TO.N,/PRG/PC10*%
X208280000Y-83820000D03*
%TO.P,U7,12*%
%TO.N,Net-(U7-Pad12)*%
X215900000Y-99060000D03*
%TO.P,U7,31*%
%TO.N,/PRG/PC9*%
X210820000Y-83820000D03*
%TO.P,U7,11*%
%TO.N,GND*%
X213360000Y-99060000D03*
%TO.P,U7,30*%
X213360000Y-83820000D03*
%TO.P,U7,10*%
%TO.N,Net-(U7-Pad10)*%
X210820000Y-99060000D03*
%TO.P,U7,29*%
%TO.N,/PRG/PC8*%
X215900000Y-83820000D03*
%TO.P,U7,9*%
%TO.N,Net-(U7-Pad9)*%
X208280000Y-99060000D03*
%TO.P,U7,28*%
%TO.N,/PRG/PC7*%
X218440000Y-83820000D03*
%TO.P,U7,8*%
%TO.N,Net-(U7-Pad8)*%
X205740000Y-99060000D03*
%TO.P,U7,27*%
%TO.N,/PRG/PC6*%
X220980000Y-83820000D03*
%TO.P,U7,7*%
%TO.N,Net-(U7-Pad7)*%
X203200000Y-99060000D03*
%TO.P,U7,26*%
%TO.N,/PRG/PC5*%
X223520000Y-83820000D03*
%TO.P,U7,6*%
%TO.N,Net-(U7-Pad6)*%
X200660000Y-99060000D03*
%TO.P,U7,25*%
%TO.N,/PRG/PC4*%
X226060000Y-83820000D03*
%TO.P,U7,5*%
%TO.N,Net-(U7-Pad5)*%
X198120000Y-99060000D03*
%TO.P,U7,24*%
%TO.N,/PRG/PC3*%
X228600000Y-83820000D03*
%TO.P,U7,4*%
%TO.N,Net-(U7-Pad4)*%
X195580000Y-99060000D03*
%TO.P,U7,23*%
%TO.N,/PRG/PC2*%
X231140000Y-83820000D03*
%TO.P,U7,3*%
%TO.N,Net-(U7-Pad3)*%
X193040000Y-99060000D03*
%TO.P,U7,22*%
%TO.N,/PRG/PC1*%
X233680000Y-83820000D03*
%TO.P,U7,2*%
%TO.N,L*%
X190500000Y-99060000D03*
%TO.P,U7,21*%
%TO.N,/PRG/PC0*%
X236220000Y-83820000D03*
D14*
%TO.P,U7,1*%
%TO.N,GND*%
X187960000Y-99060000D03*
%TD*%
D15*
%TO.P,U39,16*%
%TO.N,VCC*%
X231140000Y-41910000D03*
%TO.P,U39,8*%
%TO.N,GND*%
X248920000Y-49530000D03*
%TO.P,U39,15*%
%TO.N,BUS0*%
X233680000Y-41910000D03*
%TO.P,U39,7*%
%TO.N,BUS7*%
X246380000Y-49530000D03*
%TO.P,U39,14*%
%TO.N,SER_DATA*%
X236220000Y-41910000D03*
%TO.P,U39,6*%
%TO.N,BUS6*%
X243840000Y-49530000D03*
%TO.P,U39,13*%
%TO.N,~IE*%
X238760000Y-41910000D03*
%TO.P,U39,5*%
%TO.N,BUS5*%
X241300000Y-49530000D03*
%TO.P,U39,12*%
%TO.N,OUT6*%
X241300000Y-41910000D03*
%TO.P,U39,4*%
%TO.N,BUS4*%
X238760000Y-49530000D03*
%TO.P,U39,11*%
%TO.N,OUT6*%
X243840000Y-41910000D03*
%TO.P,U39,3*%
%TO.N,BUS3*%
X236220000Y-49530000D03*
%TO.P,U39,10*%
%TO.N,H*%
X246380000Y-41910000D03*
%TO.P,U39,2*%
%TO.N,BUS2*%
X233680000Y-49530000D03*
%TO.P,U39,9*%
%TO.N,N/C*%
X248920000Y-41910000D03*
D14*
%TO.P,U39,1*%
%TO.N,BUS1*%
X231140000Y-49530000D03*
%TD*%
D15*
%TO.P,U38,20*%
%TO.N,VCC*%
X63500000Y-58420000D03*
%TO.P,U38,10*%
%TO.N,GND*%
X55880000Y-81280000D03*
%TO.P,U38,19*%
%TO.N,Net-(R9-Pad2)*%
X63500000Y-60960000D03*
%TO.P,U38,9*%
%TO.N,Net-(D5-Pad2)*%
X55880000Y-78740000D03*
%TO.P,U38,18*%
%TO.N,AC7*%
X63500000Y-63500000D03*
%TO.P,U38,8*%
%TO.N,AC0*%
X55880000Y-76200000D03*
%TO.P,U38,17*%
%TO.N,AC6*%
X63500000Y-66040000D03*
%TO.P,U38,7*%
%TO.N,AC1*%
X55880000Y-73660000D03*
%TO.P,U38,16*%
%TO.N,Net-(R9-Pad3)*%
X63500000Y-68580000D03*
%TO.P,U38,6*%
%TO.N,Net-(D6-Pad2)*%
X55880000Y-71120000D03*
%TO.P,U38,15*%
%TO.N,Net-(R9-Pad4)*%
X63500000Y-71120000D03*
%TO.P,U38,5*%
%TO.N,Net-(D7-Pad2)*%
X55880000Y-68580000D03*
%TO.P,U38,14*%
%TO.N,AC5*%
X63500000Y-73660000D03*
%TO.P,U38,4*%
%TO.N,AC2*%
X55880000Y-66040000D03*
%TO.P,U38,13*%
%TO.N,AC4*%
X63500000Y-76200000D03*
%TO.P,U38,3*%
%TO.N,AC3*%
X55880000Y-63500000D03*
%TO.P,U38,12*%
%TO.N,Net-(R9-Pad5)*%
X63500000Y-78740000D03*
%TO.P,U38,2*%
%TO.N,Net-(D8-Pad2)*%
X55880000Y-60960000D03*
%TO.P,U38,11*%
%TO.N,OUT6*%
X63500000Y-81280000D03*
D14*
%TO.P,U38,1*%
%TO.N,H*%
X55880000Y-58420000D03*
%TD*%
D15*
%TO.P,U37,20*%
%TO.N,VCC*%
X101600000Y-33020000D03*
%TO.P,U37,10*%
%TO.N,GND*%
X124460000Y-40640000D03*
%TO.P,U37,19*%
%TO.N,OUT7*%
X104140000Y-33020000D03*
%TO.P,U37,9*%
%TO.N,OUT0*%
X121920000Y-40640000D03*
%TO.P,U37,18*%
%TO.N,ALU7*%
X106680000Y-33020000D03*
%TO.P,U37,8*%
%TO.N,ALU0*%
X119380000Y-40640000D03*
%TO.P,U37,17*%
%TO.N,ALU6*%
X109220000Y-33020000D03*
%TO.P,U37,7*%
%TO.N,ALU1*%
X116840000Y-40640000D03*
%TO.P,U37,16*%
%TO.N,OUT6*%
X111760000Y-33020000D03*
%TO.P,U37,6*%
%TO.N,OUT1*%
X114300000Y-40640000D03*
%TO.P,U37,15*%
%TO.N,OUT5*%
X114300000Y-33020000D03*
%TO.P,U37,5*%
%TO.N,OUT2*%
X111760000Y-40640000D03*
%TO.P,U37,14*%
%TO.N,ALU5*%
X116840000Y-33020000D03*
%TO.P,U37,4*%
%TO.N,ALU2*%
X109220000Y-40640000D03*
%TO.P,U37,13*%
%TO.N,ALU4*%
X119380000Y-33020000D03*
%TO.P,U37,3*%
%TO.N,ALU3*%
X106680000Y-40640000D03*
%TO.P,U37,12*%
%TO.N,OUT4*%
X121920000Y-33020000D03*
%TO.P,U37,2*%
%TO.N,OUT3*%
X104140000Y-40640000D03*
%TO.P,U37,11*%
%TO.N,CLK2*%
X124460000Y-33020000D03*
D14*
%TO.P,U37,1*%
%TO.N,~OL*%
X101600000Y-40640000D03*
%TD*%
D15*
%TO.P,U36,28*%
%TO.N,VCC*%
X137160000Y-88900000D03*
%TO.P,U36,14*%
%TO.N,GND*%
X170180000Y-104140000D03*
%TO.P,U36,27*%
%TO.N,~WE*%
X139700000Y-88900000D03*
%TO.P,U36,13*%
%TO.N,BUS2*%
X167640000Y-104140000D03*
%TO.P,U36,26*%
%TO.N,/RAM/A13*%
X142240000Y-88900000D03*
%TO.P,U36,12*%
%TO.N,BUS1*%
X165100000Y-104140000D03*
%TO.P,U36,25*%
%TO.N,/RAM/A8*%
X144780000Y-88900000D03*
%TO.P,U36,11*%
%TO.N,BUS0*%
X162560000Y-104140000D03*
%TO.P,U36,24*%
%TO.N,/RAM/A9*%
X147320000Y-88900000D03*
%TO.P,U36,10*%
%TO.N,/RAM/A0*%
X160020000Y-104140000D03*
%TO.P,U36,23*%
%TO.N,/RAM/A11*%
X149860000Y-88900000D03*
%TO.P,U36,9*%
%TO.N,/RAM/A1*%
X157480000Y-104140000D03*
%TO.P,U36,22*%
%TO.N,~OE*%
X152400000Y-88900000D03*
%TO.P,U36,8*%
%TO.N,/RAM/A2*%
X154940000Y-104140000D03*
%TO.P,U36,21*%
%TO.N,/RAM/A10*%
X154940000Y-88900000D03*
%TO.P,U36,7*%
%TO.N,/RAM/A3*%
X152400000Y-104140000D03*
%TO.P,U36,20*%
%TO.N,L*%
X157480000Y-88900000D03*
%TO.P,U36,6*%
%TO.N,/RAM/A4*%
X149860000Y-104140000D03*
%TO.P,U36,19*%
%TO.N,BUS7*%
X160020000Y-88900000D03*
%TO.P,U36,5*%
%TO.N,/RAM/A5*%
X147320000Y-104140000D03*
%TO.P,U36,18*%
%TO.N,BUS6*%
X162560000Y-88900000D03*
%TO.P,U36,4*%
%TO.N,/RAM/A6*%
X144780000Y-104140000D03*
%TO.P,U36,17*%
%TO.N,BUS5*%
X165100000Y-88900000D03*
%TO.P,U36,3*%
%TO.N,/RAM/A7*%
X142240000Y-104140000D03*
%TO.P,U36,16*%
%TO.N,BUS4*%
X167640000Y-88900000D03*
%TO.P,U36,2*%
%TO.N,/RAM/A12*%
X139700000Y-104140000D03*
%TO.P,U36,15*%
%TO.N,BUS3*%
X170180000Y-88900000D03*
D14*
%TO.P,U36,1*%
%TO.N,/RAM/A14*%
X137160000Y-104140000D03*
%TD*%
D15*
%TO.P,U35,16*%
%TO.N,VCC*%
X114300000Y-81280000D03*
%TO.P,U35,8*%
%TO.N,GND*%
X106680000Y-99060000D03*
%TO.P,U35,15*%
%TO.N,L*%
X114300000Y-83820000D03*
%TO.P,U35,7*%
%TO.N,/RAM/A5*%
X106680000Y-96520000D03*
%TO.P,U35,14*%
%TO.N,X7*%
X114300000Y-86360000D03*
%TO.P,U35,6*%
%TO.N,D5*%
X106680000Y-93980000D03*
%TO.P,U35,13*%
%TO.N,D7*%
X114300000Y-88900000D03*
%TO.P,U35,5*%
%TO.N,X5*%
X106680000Y-91440000D03*
%TO.P,U35,12*%
%TO.N,/RAM/A7*%
X114300000Y-91440000D03*
%TO.P,U35,4*%
%TO.N,/RAM/A4*%
X106680000Y-88900000D03*
%TO.P,U35,11*%
%TO.N,X6*%
X114300000Y-93980000D03*
%TO.P,U35,3*%
%TO.N,D4*%
X106680000Y-86360000D03*
%TO.P,U35,10*%
%TO.N,D6*%
X114300000Y-96520000D03*
%TO.P,U35,2*%
%TO.N,X4*%
X106680000Y-83820000D03*
%TO.P,U35,9*%
%TO.N,/RAM/A6*%
X114300000Y-99060000D03*
D14*
%TO.P,U35,1*%
%TO.N,EL*%
X106680000Y-81280000D03*
%TD*%
D15*
%TO.P,U34,16*%
%TO.N,VCC*%
X129540000Y-81280000D03*
%TO.P,U34,8*%
%TO.N,GND*%
X121920000Y-99060000D03*
%TO.P,U34,15*%
%TO.N,L*%
X129540000Y-83820000D03*
%TO.P,U34,7*%
%TO.N,/RAM/A2*%
X121920000Y-96520000D03*
%TO.P,U34,14*%
%TO.N,X0*%
X129540000Y-86360000D03*
%TO.P,U34,6*%
%TO.N,D2*%
X121920000Y-93980000D03*
%TO.P,U34,13*%
%TO.N,D0*%
X129540000Y-88900000D03*
%TO.P,U34,5*%
%TO.N,X2*%
X121920000Y-91440000D03*
%TO.P,U34,12*%
%TO.N,/RAM/A0*%
X129540000Y-91440000D03*
%TO.P,U34,4*%
%TO.N,/RAM/A1*%
X121920000Y-88900000D03*
%TO.P,U34,11*%
%TO.N,X3*%
X129540000Y-93980000D03*
%TO.P,U34,3*%
%TO.N,D1*%
X121920000Y-86360000D03*
%TO.P,U34,10*%
%TO.N,D3*%
X129540000Y-96520000D03*
%TO.P,U34,2*%
%TO.N,X1*%
X121920000Y-83820000D03*
%TO.P,U34,9*%
%TO.N,/RAM/A3*%
X129540000Y-99060000D03*
D14*
%TO.P,U34,1*%
%TO.N,EL*%
X121920000Y-81280000D03*
%TD*%
D15*
%TO.P,U33,16*%
%TO.N,VCC*%
X144780000Y-58420000D03*
%TO.P,U33,8*%
%TO.N,GND*%
X137160000Y-76200000D03*
%TO.P,U33,15*%
%TO.N,EH*%
X144780000Y-60960000D03*
%TO.P,U33,7*%
%TO.N,/RAM/A14*%
X137160000Y-73660000D03*
%TO.P,U33,14*%
%TO.N,Y1*%
X144780000Y-63500000D03*
%TO.P,U33,6*%
%TO.N,H*%
X137160000Y-71120000D03*
%TO.P,U33,13*%
X144780000Y-66040000D03*
%TO.P,U33,5*%
%TO.N,Y6*%
X137160000Y-68580000D03*
%TO.P,U33,12*%
%TO.N,/RAM/A9*%
X144780000Y-68580000D03*
%TO.P,U33,4*%
%TO.N,/RAM/A13*%
X137160000Y-66040000D03*
%TO.P,U33,11*%
%TO.N,Y3*%
X144780000Y-71120000D03*
%TO.P,U33,3*%
%TO.N,H*%
X137160000Y-63500000D03*
%TO.P,U33,10*%
X144780000Y-73660000D03*
%TO.P,U33,2*%
%TO.N,Y5*%
X137160000Y-60960000D03*
%TO.P,U33,9*%
%TO.N,/RAM/A11*%
X144780000Y-76200000D03*
D14*
%TO.P,U33,1*%
%TO.N,L*%
X137160000Y-58420000D03*
%TD*%
D15*
%TO.P,U32,16*%
%TO.N,VCC*%
X160020000Y-58420000D03*
%TO.P,U32,8*%
%TO.N,GND*%
X152400000Y-76200000D03*
%TO.P,U32,15*%
%TO.N,EH*%
X160020000Y-60960000D03*
%TO.P,U32,7*%
%TO.N,Net-(A15-Pad1)*%
X152400000Y-73660000D03*
%TO.P,U32,14*%
%TO.N,Y4*%
X160020000Y-63500000D03*
%TO.P,U32,6*%
%TO.N,H*%
X152400000Y-71120000D03*
%TO.P,U32,13*%
X160020000Y-66040000D03*
%TO.P,U32,5*%
%TO.N,Y7*%
X152400000Y-68580000D03*
%TO.P,U32,12*%
%TO.N,/RAM/A12*%
X160020000Y-68580000D03*
%TO.P,U32,4*%
%TO.N,/RAM/A8*%
X152400000Y-66040000D03*
%TO.P,U32,11*%
%TO.N,Y2*%
X160020000Y-71120000D03*
%TO.P,U32,3*%
%TO.N,H*%
X152400000Y-63500000D03*
%TO.P,U32,10*%
X160020000Y-73660000D03*
%TO.P,U32,2*%
%TO.N,Y0*%
X152400000Y-60960000D03*
%TO.P,U32,9*%
%TO.N,/RAM/A10*%
X160020000Y-76200000D03*
D14*
%TO.P,U32,1*%
%TO.N,L*%
X152400000Y-58420000D03*
%TD*%
D15*
%TO.P,U31,20*%
%TO.N,VCC*%
X175260000Y-58420000D03*
%TO.P,U31,10*%
%TO.N,GND*%
X167640000Y-81280000D03*
%TO.P,U31,19*%
%TO.N,Y4*%
X175260000Y-60960000D03*
%TO.P,U31,9*%
%TO.N,Y3*%
X167640000Y-78740000D03*
%TO.P,U31,18*%
%TO.N,ALU4*%
X175260000Y-63500000D03*
%TO.P,U31,8*%
%TO.N,ALU3*%
X167640000Y-76200000D03*
%TO.P,U31,17*%
%TO.N,ALU5*%
X175260000Y-66040000D03*
%TO.P,U31,7*%
%TO.N,ALU2*%
X167640000Y-73660000D03*
%TO.P,U31,16*%
%TO.N,Y5*%
X175260000Y-68580000D03*
%TO.P,U31,6*%
%TO.N,Y2*%
X167640000Y-71120000D03*
%TO.P,U31,15*%
%TO.N,Y6*%
X175260000Y-71120000D03*
%TO.P,U31,5*%
%TO.N,Y1*%
X167640000Y-68580000D03*
%TO.P,U31,14*%
%TO.N,ALU6*%
X175260000Y-73660000D03*
%TO.P,U31,4*%
%TO.N,ALU1*%
X167640000Y-66040000D03*
%TO.P,U31,13*%
%TO.N,ALU7*%
X175260000Y-76200000D03*
%TO.P,U31,3*%
%TO.N,ALU0*%
X167640000Y-63500000D03*
%TO.P,U31,12*%
%TO.N,Y7*%
X175260000Y-78740000D03*
%TO.P,U31,2*%
%TO.N,Y0*%
X167640000Y-60960000D03*
%TO.P,U31,11*%
%TO.N,CLK2*%
X175260000Y-81280000D03*
D14*
%TO.P,U31,1*%
%TO.N,~YL*%
X167640000Y-58420000D03*
%TD*%
D15*
%TO.P,U30,16*%
%TO.N,VCC*%
X114300000Y-58420000D03*
%TO.P,U30,8*%
%TO.N,GND*%
X106680000Y-76200000D03*
%TO.P,U30,15*%
%TO.N,N/C*%
X114300000Y-60960000D03*
%TO.P,U30,7*%
%TO.N,IX*%
X106680000Y-73660000D03*
%TO.P,U30,14*%
%TO.N,X4*%
X114300000Y-63500000D03*
%TO.P,U30,6*%
%TO.N,ALU7*%
X106680000Y-71120000D03*
%TO.P,U30,13*%
%TO.N,X5*%
X114300000Y-66040000D03*
%TO.P,U30,5*%
%TO.N,ALU6*%
X106680000Y-68580000D03*
%TO.P,U30,12*%
%TO.N,X6*%
X114300000Y-68580000D03*
%TO.P,U30,4*%
%TO.N,ALU5*%
X106680000Y-66040000D03*
%TO.P,U30,11*%
%TO.N,X7*%
X114300000Y-71120000D03*
%TO.P,U30,3*%
%TO.N,ALU4*%
X106680000Y-63500000D03*
%TO.P,U30,10*%
%TO.N,Net-(U29-Pad15)*%
X114300000Y-73660000D03*
%TO.P,U30,2*%
%TO.N,CLK2*%
X106680000Y-60960000D03*
%TO.P,U30,9*%
%TO.N,~XL*%
X114300000Y-76200000D03*
D14*
%TO.P,U30,1*%
%TO.N,H*%
X106680000Y-58420000D03*
%TD*%
D15*
%TO.P,U29,16*%
%TO.N,VCC*%
X129540000Y-58420000D03*
%TO.P,U29,8*%
%TO.N,GND*%
X121920000Y-76200000D03*
%TO.P,U29,15*%
%TO.N,Net-(U29-Pad15)*%
X129540000Y-60960000D03*
%TO.P,U29,7*%
%TO.N,IX*%
X121920000Y-73660000D03*
%TO.P,U29,14*%
%TO.N,X0*%
X129540000Y-63500000D03*
%TO.P,U29,6*%
%TO.N,ALU3*%
X121920000Y-71120000D03*
%TO.P,U29,13*%
%TO.N,X1*%
X129540000Y-66040000D03*
%TO.P,U29,5*%
%TO.N,ALU2*%
X121920000Y-68580000D03*
%TO.P,U29,12*%
%TO.N,X2*%
X129540000Y-68580000D03*
%TO.P,U29,4*%
%TO.N,ALU1*%
X121920000Y-66040000D03*
%TO.P,U29,11*%
%TO.N,X3*%
X129540000Y-71120000D03*
%TO.P,U29,3*%
%TO.N,ALU0*%
X121920000Y-63500000D03*
%TO.P,U29,10*%
%TO.N,H*%
X129540000Y-73660000D03*
%TO.P,U29,2*%
%TO.N,CLK2*%
X121920000Y-60960000D03*
%TO.P,U29,9*%
%TO.N,~XL*%
X129540000Y-76200000D03*
D14*
%TO.P,U29,1*%
%TO.N,H*%
X121920000Y-58420000D03*
%TD*%
D15*
%TO.P,U28,20*%
%TO.N,VCC*%
X63500000Y-144780000D03*
%TO.P,U28,10*%
%TO.N,GND*%
X55880000Y-167640000D03*
%TO.P,U28,19*%
%TO.N,~AE*%
X63500000Y-147320000D03*
%TO.P,U28,9*%
%TO.N,BUS7*%
X55880000Y-165100000D03*
%TO.P,U28,18*%
%TO.N,BUS0*%
X63500000Y-149860000D03*
%TO.P,U28,8*%
%TO.N,AC3*%
X55880000Y-162560000D03*
%TO.P,U28,17*%
%TO.N,AC4*%
X63500000Y-152400000D03*
%TO.P,U28,7*%
%TO.N,BUS6*%
X55880000Y-160020000D03*
%TO.P,U28,16*%
%TO.N,BUS1*%
X63500000Y-154940000D03*
%TO.P,U28,6*%
%TO.N,AC2*%
X55880000Y-157480000D03*
%TO.P,U28,15*%
%TO.N,AC5*%
X63500000Y-157480000D03*
%TO.P,U28,5*%
%TO.N,BUS5*%
X55880000Y-154940000D03*
%TO.P,U28,14*%
%TO.N,BUS2*%
X63500000Y-160020000D03*
%TO.P,U28,4*%
%TO.N,AC1*%
X55880000Y-152400000D03*
%TO.P,U28,13*%
%TO.N,AC6*%
X63500000Y-162560000D03*
%TO.P,U28,3*%
%TO.N,BUS4*%
X55880000Y-149860000D03*
%TO.P,U28,12*%
%TO.N,BUS3*%
X63500000Y-165100000D03*
%TO.P,U28,2*%
%TO.N,AC0*%
X55880000Y-147320000D03*
%TO.P,U28,11*%
%TO.N,AC7*%
X63500000Y-167640000D03*
D14*
%TO.P,U28,1*%
%TO.N,~AE*%
X55880000Y-144780000D03*
%TD*%
D15*
%TO.P,U27,20*%
%TO.N,VCC*%
X63500000Y-101600000D03*
%TO.P,U27,10*%
%TO.N,GND*%
X55880000Y-124460000D03*
%TO.P,U27,19*%
%TO.N,AC6*%
X63500000Y-104140000D03*
%TO.P,U27,9*%
%TO.N,AC0*%
X55880000Y-121920000D03*
%TO.P,U27,18*%
%TO.N,ALU6*%
X63500000Y-106680000D03*
%TO.P,U27,8*%
%TO.N,ALU0*%
X55880000Y-119380000D03*
%TO.P,U27,17*%
%TO.N,ALU7*%
X63500000Y-109220000D03*
%TO.P,U27,7*%
%TO.N,ALU1*%
X55880000Y-116840000D03*
%TO.P,U27,16*%
%TO.N,AC7*%
X63500000Y-111760000D03*
%TO.P,U27,6*%
%TO.N,AC1*%
X55880000Y-114300000D03*
%TO.P,U27,15*%
%TO.N,AC4*%
X63500000Y-114300000D03*
%TO.P,U27,5*%
%TO.N,AC2*%
X55880000Y-111760000D03*
%TO.P,U27,14*%
%TO.N,ALU4*%
X63500000Y-116840000D03*
%TO.P,U27,4*%
%TO.N,ALU2*%
X55880000Y-109220000D03*
%TO.P,U27,13*%
%TO.N,ALU5*%
X63500000Y-119380000D03*
%TO.P,U27,3*%
%TO.N,ALU3*%
X55880000Y-106680000D03*
%TO.P,U27,12*%
%TO.N,AC5*%
X63500000Y-121920000D03*
%TO.P,U27,2*%
%TO.N,AC3*%
X55880000Y-104140000D03*
%TO.P,U27,11*%
%TO.N,CLK2*%
X63500000Y-124460000D03*
D14*
%TO.P,U27,1*%
%TO.N,~LD*%
X55880000Y-101600000D03*
%TD*%
D15*
%TO.P,U26,16*%
%TO.N,VCC*%
X33020000Y-109220000D03*
%TO.P,U26,8*%
%TO.N,GND*%
X50800000Y-116840000D03*
%TO.P,U26,15*%
%TO.N,Net-(U23-Pad9)*%
X35560000Y-109220000D03*
%TO.P,U26,7*%
%TO.N,AR0*%
X48260000Y-116840000D03*
%TO.P,U26,14*%
%TO.N,Net-(U23-Pad7)*%
X38100000Y-109220000D03*
%TO.P,U26,6*%
%TO.N,Net-(U21-Pad9)*%
X45720000Y-116840000D03*
%TO.P,U26,13*%
%TO.N,ALU2*%
X40640000Y-109220000D03*
%TO.P,U26,5*%
%TO.N,Net-(U21-Pad7)*%
X43180000Y-116840000D03*
%TO.P,U26,12*%
%TO.N,Net-(U24-Pad7)*%
X43180000Y-109220000D03*
%TO.P,U26,4*%
%TO.N,ALU0*%
X40640000Y-116840000D03*
%TO.P,U26,11*%
%TO.N,Net-(U24-Pad9)*%
X45720000Y-109220000D03*
%TO.P,U26,3*%
%TO.N,Net-(U22-Pad7)*%
X38100000Y-116840000D03*
%TO.P,U26,10*%
%TO.N,ALU3*%
X48260000Y-109220000D03*
%TO.P,U26,2*%
%TO.N,Net-(U22-Pad9)*%
X35560000Y-116840000D03*
%TO.P,U26,9*%
%TO.N,Net-(U25-Pad7)*%
X50800000Y-109220000D03*
D14*
%TO.P,U26,1*%
%TO.N,ALU1*%
X33020000Y-116840000D03*
%TD*%
D15*
%TO.P,U25,16*%
%TO.N,VCC*%
X68580000Y-109220000D03*
%TO.P,U25,8*%
%TO.N,GND*%
X86360000Y-116840000D03*
%TO.P,U25,15*%
%TO.N,Net-(U19-Pad7)*%
X71120000Y-109220000D03*
%TO.P,U25,7*%
%TO.N,Net-(U25-Pad7)*%
X83820000Y-116840000D03*
%TO.P,U25,14*%
%TO.N,Net-(U19-Pad9)*%
X73660000Y-109220000D03*
%TO.P,U25,6*%
%TO.N,Net-(U17-Pad9)*%
X81280000Y-116840000D03*
%TO.P,U25,13*%
%TO.N,ALU6*%
X76200000Y-109220000D03*
%TO.P,U25,5*%
%TO.N,Net-(U17-Pad7)*%
X78740000Y-116840000D03*
%TO.P,U25,12*%
%TO.N,Net-(U20-Pad7)*%
X78740000Y-109220000D03*
%TO.P,U25,4*%
%TO.N,ALU4*%
X76200000Y-116840000D03*
%TO.P,U25,11*%
%TO.N,Net-(U20-Pad9)*%
X81280000Y-109220000D03*
%TO.P,U25,3*%
%TO.N,Net-(U18-Pad9)*%
X73660000Y-116840000D03*
%TO.P,U25,10*%
%TO.N,ALU7*%
X83820000Y-109220000D03*
%TO.P,U25,2*%
%TO.N,Net-(U18-Pad7)*%
X71120000Y-116840000D03*
%TO.P,U25,9*%
%TO.N,CO*%
X86360000Y-109220000D03*
D14*
%TO.P,U25,1*%
%TO.N,ALU5*%
X68580000Y-116840000D03*
%TD*%
D15*
%TO.P,U24,16*%
%TO.N,VCC*%
X48260000Y-58420000D03*
%TO.P,U24,8*%
%TO.N,GND*%
X40640000Y-76200000D03*
%TO.P,U24,15*%
%TO.N,AL*%
X48260000Y-60960000D03*
%TO.P,U24,7*%
%TO.N,Net-(U24-Pad7)*%
X40640000Y-73660000D03*
%TO.P,U24,14*%
%TO.N,AC3*%
X48260000Y-63500000D03*
%TO.P,U24,6*%
%TO.N,AR0*%
X40640000Y-71120000D03*
%TO.P,U24,13*%
%TO.N,H*%
X48260000Y-66040000D03*
%TO.P,U24,5*%
%TO.N,AR1*%
X40640000Y-68580000D03*
%TO.P,U24,12*%
%TO.N,L*%
X48260000Y-68580000D03*
%TO.P,U24,4*%
%TO.N,AR2*%
X40640000Y-66040000D03*
%TO.P,U24,11*%
%TO.N,H*%
X48260000Y-71120000D03*
%TO.P,U24,3*%
%TO.N,AR3*%
X40640000Y-63500000D03*
%TO.P,U24,10*%
%TO.N,L*%
X48260000Y-73660000D03*
%TO.P,U24,2*%
%TO.N,BUS3*%
X40640000Y-60960000D03*
%TO.P,U24,9*%
%TO.N,Net-(U24-Pad9)*%
X48260000Y-76200000D03*
D14*
%TO.P,U24,1*%
%TO.N,L*%
X40640000Y-58420000D03*
%TD*%
D15*
%TO.P,U23,16*%
%TO.N,VCC*%
X48260000Y-83820000D03*
%TO.P,U23,8*%
%TO.N,GND*%
X40640000Y-101600000D03*
%TO.P,U23,15*%
%TO.N,AL*%
X48260000Y-86360000D03*
%TO.P,U23,7*%
%TO.N,Net-(U23-Pad7)*%
X40640000Y-99060000D03*
%TO.P,U23,14*%
%TO.N,AC2*%
X48260000Y-88900000D03*
%TO.P,U23,6*%
%TO.N,AR0*%
X40640000Y-96520000D03*
%TO.P,U23,13*%
%TO.N,H*%
X48260000Y-91440000D03*
%TO.P,U23,5*%
%TO.N,AR1*%
X40640000Y-93980000D03*
%TO.P,U23,12*%
%TO.N,L*%
X48260000Y-93980000D03*
%TO.P,U23,4*%
%TO.N,AR2*%
X40640000Y-91440000D03*
%TO.P,U23,11*%
%TO.N,H*%
X48260000Y-96520000D03*
%TO.P,U23,3*%
%TO.N,AR3*%
X40640000Y-88900000D03*
%TO.P,U23,10*%
%TO.N,L*%
X48260000Y-99060000D03*
%TO.P,U23,2*%
%TO.N,BUS2*%
X40640000Y-86360000D03*
%TO.P,U23,9*%
%TO.N,Net-(U23-Pad9)*%
X48260000Y-101600000D03*
D14*
%TO.P,U23,1*%
%TO.N,L*%
X40640000Y-83820000D03*
%TD*%
D15*
%TO.P,U22,16*%
%TO.N,VCC*%
X48260000Y-124460000D03*
%TO.P,U22,8*%
%TO.N,GND*%
X40640000Y-142240000D03*
%TO.P,U22,15*%
%TO.N,AL*%
X48260000Y-127000000D03*
%TO.P,U22,7*%
%TO.N,Net-(U22-Pad7)*%
X40640000Y-139700000D03*
%TO.P,U22,14*%
%TO.N,AC1*%
X48260000Y-129540000D03*
%TO.P,U22,6*%
%TO.N,AR0*%
X40640000Y-137160000D03*
%TO.P,U22,13*%
%TO.N,H*%
X48260000Y-132080000D03*
%TO.P,U22,5*%
%TO.N,AR1*%
X40640000Y-134620000D03*
%TO.P,U22,12*%
%TO.N,L*%
X48260000Y-134620000D03*
%TO.P,U22,4*%
%TO.N,AR2*%
X40640000Y-132080000D03*
%TO.P,U22,11*%
%TO.N,H*%
X48260000Y-137160000D03*
%TO.P,U22,3*%
%TO.N,AR3*%
X40640000Y-129540000D03*
%TO.P,U22,10*%
%TO.N,L*%
X48260000Y-139700000D03*
%TO.P,U22,2*%
%TO.N,BUS1*%
X40640000Y-127000000D03*
%TO.P,U22,9*%
%TO.N,Net-(U22-Pad9)*%
X48260000Y-142240000D03*
D14*
%TO.P,U22,1*%
%TO.N,L*%
X40640000Y-124460000D03*
%TD*%
D15*
%TO.P,U21,16*%
%TO.N,VCC*%
X48260000Y-149860000D03*
%TO.P,U21,8*%
%TO.N,GND*%
X40640000Y-167640000D03*
%TO.P,U21,15*%
%TO.N,AL*%
X48260000Y-152400000D03*
%TO.P,U21,7*%
%TO.N,Net-(U21-Pad7)*%
X40640000Y-165100000D03*
%TO.P,U21,14*%
%TO.N,AC0*%
X48260000Y-154940000D03*
%TO.P,U21,6*%
%TO.N,AR0*%
X40640000Y-162560000D03*
%TO.P,U21,13*%
%TO.N,H*%
X48260000Y-157480000D03*
%TO.P,U21,5*%
%TO.N,AR1*%
X40640000Y-160020000D03*
%TO.P,U21,12*%
%TO.N,L*%
X48260000Y-160020000D03*
%TO.P,U21,4*%
%TO.N,AR2*%
X40640000Y-157480000D03*
%TO.P,U21,11*%
%TO.N,H*%
X48260000Y-162560000D03*
%TO.P,U21,3*%
%TO.N,AR3*%
X40640000Y-154940000D03*
%TO.P,U21,10*%
%TO.N,L*%
X48260000Y-165100000D03*
%TO.P,U21,2*%
%TO.N,BUS0*%
X40640000Y-152400000D03*
%TO.P,U21,9*%
%TO.N,Net-(U21-Pad9)*%
X48260000Y-167640000D03*
D14*
%TO.P,U21,1*%
%TO.N,L*%
X40640000Y-149860000D03*
%TD*%
D15*
%TO.P,U20,16*%
%TO.N,VCC*%
X78740000Y-58420000D03*
%TO.P,U20,8*%
%TO.N,GND*%
X71120000Y-76200000D03*
%TO.P,U20,15*%
%TO.N,L*%
X78740000Y-60960000D03*
%TO.P,U20,7*%
%TO.N,Net-(U20-Pad7)*%
X71120000Y-73660000D03*
%TO.P,U20,14*%
%TO.N,BUS7*%
X78740000Y-63500000D03*
%TO.P,U20,6*%
%TO.N,L*%
X71120000Y-71120000D03*
%TO.P,U20,13*%
%TO.N,AR3*%
X78740000Y-66040000D03*
%TO.P,U20,5*%
%TO.N,L*%
X71120000Y-68580000D03*
%TO.P,U20,12*%
%TO.N,AR1*%
X78740000Y-68580000D03*
%TO.P,U20,4*%
%TO.N,H*%
X71120000Y-66040000D03*
%TO.P,U20,11*%
%TO.N,AR2*%
X78740000Y-71120000D03*
%TO.P,U20,3*%
%TO.N,H*%
X71120000Y-63500000D03*
%TO.P,U20,10*%
%TO.N,AR0*%
X78740000Y-73660000D03*
%TO.P,U20,2*%
%TO.N,AC7*%
X71120000Y-60960000D03*
%TO.P,U20,9*%
%TO.N,Net-(U20-Pad9)*%
X78740000Y-76200000D03*
D14*
%TO.P,U20,1*%
%TO.N,AL*%
X71120000Y-58420000D03*
%TD*%
D15*
%TO.P,U19,16*%
%TO.N,VCC*%
X78740000Y-83820000D03*
%TO.P,U19,8*%
%TO.N,GND*%
X71120000Y-101600000D03*
%TO.P,U19,15*%
%TO.N,L*%
X78740000Y-86360000D03*
%TO.P,U19,7*%
%TO.N,Net-(U19-Pad7)*%
X71120000Y-99060000D03*
%TO.P,U19,14*%
%TO.N,BUS6*%
X78740000Y-88900000D03*
%TO.P,U19,6*%
%TO.N,L*%
X71120000Y-96520000D03*
%TO.P,U19,13*%
%TO.N,AR3*%
X78740000Y-91440000D03*
%TO.P,U19,5*%
%TO.N,L*%
X71120000Y-93980000D03*
%TO.P,U19,12*%
%TO.N,AR1*%
X78740000Y-93980000D03*
%TO.P,U19,4*%
%TO.N,H*%
X71120000Y-91440000D03*
%TO.P,U19,11*%
%TO.N,AR2*%
X78740000Y-96520000D03*
%TO.P,U19,3*%
%TO.N,H*%
X71120000Y-88900000D03*
%TO.P,U19,10*%
%TO.N,AR0*%
X78740000Y-99060000D03*
%TO.P,U19,2*%
%TO.N,AC6*%
X71120000Y-86360000D03*
%TO.P,U19,9*%
%TO.N,Net-(U19-Pad9)*%
X78740000Y-101600000D03*
D14*
%TO.P,U19,1*%
%TO.N,AL*%
X71120000Y-83820000D03*
%TD*%
D15*
%TO.P,U18,16*%
%TO.N,VCC*%
X78740000Y-124460000D03*
%TO.P,U18,8*%
%TO.N,GND*%
X71120000Y-142240000D03*
%TO.P,U18,15*%
%TO.N,L*%
X78740000Y-127000000D03*
%TO.P,U18,7*%
%TO.N,Net-(U18-Pad7)*%
X71120000Y-139700000D03*
%TO.P,U18,14*%
%TO.N,BUS5*%
X78740000Y-129540000D03*
%TO.P,U18,6*%
%TO.N,L*%
X71120000Y-137160000D03*
%TO.P,U18,13*%
%TO.N,AR3*%
X78740000Y-132080000D03*
%TO.P,U18,5*%
%TO.N,L*%
X71120000Y-134620000D03*
%TO.P,U18,12*%
%TO.N,AR1*%
X78740000Y-134620000D03*
%TO.P,U18,4*%
%TO.N,H*%
X71120000Y-132080000D03*
%TO.P,U18,11*%
%TO.N,AR2*%
X78740000Y-137160000D03*
%TO.P,U18,3*%
%TO.N,H*%
X71120000Y-129540000D03*
%TO.P,U18,10*%
%TO.N,AR0*%
X78740000Y-139700000D03*
%TO.P,U18,2*%
%TO.N,AC5*%
X71120000Y-127000000D03*
%TO.P,U18,9*%
%TO.N,Net-(U18-Pad9)*%
X78740000Y-142240000D03*
D14*
%TO.P,U18,1*%
%TO.N,AL*%
X71120000Y-124460000D03*
%TD*%
D15*
%TO.P,U17,16*%
%TO.N,VCC*%
X78740000Y-149860000D03*
%TO.P,U17,8*%
%TO.N,GND*%
X71120000Y-167640000D03*
%TO.P,U17,15*%
%TO.N,L*%
X78740000Y-152400000D03*
%TO.P,U17,7*%
%TO.N,Net-(U17-Pad7)*%
X71120000Y-165100000D03*
%TO.P,U17,14*%
%TO.N,BUS4*%
X78740000Y-154940000D03*
%TO.P,U17,6*%
%TO.N,L*%
X71120000Y-162560000D03*
%TO.P,U17,13*%
%TO.N,AR3*%
X78740000Y-157480000D03*
%TO.P,U17,5*%
%TO.N,L*%
X71120000Y-160020000D03*
%TO.P,U17,12*%
%TO.N,AR1*%
X78740000Y-160020000D03*
%TO.P,U17,4*%
%TO.N,H*%
X71120000Y-157480000D03*
%TO.P,U17,11*%
%TO.N,AR2*%
X78740000Y-162560000D03*
%TO.P,U17,3*%
%TO.N,H*%
X71120000Y-154940000D03*
%TO.P,U17,10*%
%TO.N,AR0*%
X78740000Y-165100000D03*
%TO.P,U17,2*%
%TO.N,AC4*%
X71120000Y-152400000D03*
%TO.P,U17,9*%
%TO.N,Net-(U17-Pad9)*%
X78740000Y-167640000D03*
D14*
%TO.P,U17,1*%
%TO.N,AL*%
X71120000Y-149860000D03*
%TD*%
D15*
%TO.P,U15,20*%
%TO.N,VCC*%
X106680000Y-139700000D03*
%TO.P,U15,10*%
%TO.N,GND*%
X99060000Y-162560000D03*
%TO.P,U15,19*%
%TO.N,L*%
X106680000Y-142240000D03*
%TO.P,U15,9*%
%TO.N,AL*%
X99060000Y-160020000D03*
%TO.P,U15,18*%
%TO.N,/CU/INV_C_OUT*%
X106680000Y-144780000D03*
%TO.P,U15,8*%
%TO.N,Net-(D32-Pad2)*%
X99060000Y-157480000D03*
%TO.P,U15,17*%
%TO.N,Net-(D23-Pad2)*%
X106680000Y-147320000D03*
%TO.P,U15,7*%
%TO.N,AR1*%
X99060000Y-154940000D03*
%TO.P,U15,16*%
%TO.N,/CU/INV_B_OUT*%
X106680000Y-149860000D03*
%TO.P,U15,6*%
%TO.N,Net-(D22-Pad2)*%
X99060000Y-152400000D03*
%TO.P,U15,15*%
%TO.N,/CU/INV_A_IN*%
X106680000Y-152400000D03*
%TO.P,U15,5*%
%TO.N,IX*%
X99060000Y-149860000D03*
%TO.P,U15,14*%
%TO.N,AR2*%
X106680000Y-154940000D03*
%TO.P,U15,4*%
%TO.N,/CU/INV_B_IN*%
X99060000Y-147320000D03*
%TO.P,U15,13*%
%TO.N,Net-(D25-Pad2)*%
X106680000Y-157480000D03*
%TO.P,U15,3*%
%TO.N,AR3*%
X99060000Y-144780000D03*
%TO.P,U15,12*%
%TO.N,AR0*%
X106680000Y-160020000D03*
%TO.P,U15,2*%
%TO.N,/CU/INV_C_IN*%
X99060000Y-142240000D03*
%TO.P,U15,11*%
%TO.N,Net-(D21-Pad2)*%
X106680000Y-162560000D03*
D14*
%TO.P,U15,1*%
%TO.N,L*%
X99060000Y-139700000D03*
%TD*%
D15*
%TO.P,U14,16*%
%TO.N,VCC*%
X116840000Y-160020000D03*
%TO.P,U14,8*%
%TO.N,GND*%
X134620000Y-167640000D03*
%TO.P,U14,15*%
%TO.N,Net-(D22-Pad1)*%
X119380000Y-160020000D03*
%TO.P,U14,7*%
%TO.N,/CU/~J*%
X132080000Y-167640000D03*
%TO.P,U14,14*%
%TO.N,Net-(D24-Pad1)*%
X121920000Y-160020000D03*
%TO.P,U14,6*%
%TO.N,H*%
X129540000Y-167640000D03*
%TO.P,U14,13*%
%TO.N,Net-(D25-Pad1)*%
X124460000Y-160020000D03*
%TO.P,U14,5*%
%TO.N,L*%
X127000000Y-167640000D03*
%TO.P,U14,12*%
%TO.N,Net-(D28-Pad1)*%
X127000000Y-160020000D03*
%TO.P,U14,4*%
%TO.N,L*%
X124460000Y-167640000D03*
%TO.P,U14,11*%
%TO.N,Net-(D30-Pad1)*%
X129540000Y-160020000D03*
%TO.P,U14,3*%
%TO.N,IR7*%
X121920000Y-167640000D03*
%TO.P,U14,10*%
%TO.N,Net-(D32-Pad1)*%
X132080000Y-160020000D03*
%TO.P,U14,2*%
%TO.N,IR6*%
X119380000Y-167640000D03*
%TO.P,U14,9*%
%TO.N,/CU/INV_B_IN*%
X134620000Y-160020000D03*
D14*
%TO.P,U14,1*%
%TO.N,IR5*%
X116840000Y-167640000D03*
%TD*%
D15*
%TO.P,U13,16*%
%TO.N,VCC*%
X175260000Y-160020000D03*
%TO.P,U13,8*%
%TO.N,GND*%
X193040000Y-167640000D03*
%TO.P,U13,15*%
%TO.N,Net-(D9-Pad1)*%
X177800000Y-160020000D03*
%TO.P,U13,7*%
%TO.N,/CU/INV_A_IN*%
X190500000Y-167640000D03*
%TO.P,U13,14*%
%TO.N,Net-(D10-Pad1)*%
X180340000Y-160020000D03*
%TO.P,U13,6*%
%TO.N,/CU/~J*%
X187960000Y-167640000D03*
%TO.P,U13,13*%
%TO.N,Net-(D12-Pad1)*%
X182880000Y-160020000D03*
%TO.P,U13,5*%
%TO.N,L*%
X185420000Y-167640000D03*
%TO.P,U13,12*%
%TO.N,Net-(D14-Pad1)*%
X185420000Y-160020000D03*
%TO.P,U13,4*%
%TO.N,L*%
X182880000Y-167640000D03*
%TO.P,U13,11*%
%TO.N,~XL*%
X187960000Y-160020000D03*
%TO.P,U13,3*%
%TO.N,IR4*%
X180340000Y-167640000D03*
%TO.P,U13,10*%
%TO.N,~YL*%
X190500000Y-160020000D03*
%TO.P,U13,2*%
%TO.N,IR3*%
X177800000Y-167640000D03*
%TO.P,U13,9*%
%TO.N,Net-(D17-Pad1)*%
X193040000Y-160020000D03*
D14*
%TO.P,U13,1*%
%TO.N,IR2*%
X175260000Y-167640000D03*
%TD*%
D15*
%TO.P,U12,16*%
%TO.N,VCC*%
X215900000Y-137160000D03*
%TO.P,U12,8*%
%TO.N,GND*%
X233680000Y-144780000D03*
%TO.P,U12,15*%
%TO.N,H*%
X218440000Y-137160000D03*
%TO.P,U12,7*%
%TO.N,/CU/INV_C_IN*%
X231140000Y-144780000D03*
%TO.P,U12,14*%
%TO.N,AC7*%
X220980000Y-137160000D03*
%TO.P,U12,6*%
%TO.N,IR2*%
X228600000Y-144780000D03*
%TO.P,U12,13*%
%TO.N,H*%
X223520000Y-137160000D03*
%TO.P,U12,5*%
%TO.N,IR3*%
X226060000Y-144780000D03*
%TO.P,U12,12*%
%TO.N,H*%
X226060000Y-137160000D03*
%TO.P,U12,4*%
%TO.N,IR4*%
X223520000Y-144780000D03*
%TO.P,U12,11*%
%TO.N,H*%
X228600000Y-137160000D03*
%TO.P,U12,3*%
%TO.N,L*%
X220980000Y-144780000D03*
%TO.P,U12,10*%
%TO.N,H*%
X231140000Y-137160000D03*
%TO.P,U12,2*%
%TO.N,CO*%
X218440000Y-144780000D03*
%TO.P,U12,9*%
%TO.N,N/C*%
X233680000Y-137160000D03*
D14*
%TO.P,U12,1*%
%TO.N,/CU/~J*%
X215900000Y-144780000D03*
%TD*%
D15*
%TO.P,U10,20*%
%TO.N,VCC*%
X185420000Y-121920000D03*
%TO.P,U10,10*%
%TO.N,GND*%
X208280000Y-129540000D03*
%TO.P,U10,19*%
%TO.N,~DE*%
X187960000Y-121920000D03*
%TO.P,U10,9*%
%TO.N,BUS1*%
X205740000Y-129540000D03*
%TO.P,U10,18*%
%TO.N,BUS6*%
X190500000Y-121920000D03*
%TO.P,U10,8*%
%TO.N,D3*%
X203200000Y-129540000D03*
%TO.P,U10,17*%
%TO.N,D4*%
X193040000Y-121920000D03*
%TO.P,U10,7*%
%TO.N,BUS0*%
X200660000Y-129540000D03*
%TO.P,U10,16*%
%TO.N,BUS7*%
X195580000Y-121920000D03*
%TO.P,U10,6*%
%TO.N,D5*%
X198120000Y-129540000D03*
%TO.P,U10,15*%
%TO.N,D2*%
X198120000Y-121920000D03*
%TO.P,U10,5*%
%TO.N,BUS2*%
X195580000Y-129540000D03*
%TO.P,U10,14*%
%TO.N,BUS5*%
X200660000Y-121920000D03*
%TO.P,U10,4*%
%TO.N,D7*%
X193040000Y-129540000D03*
%TO.P,U10,13*%
%TO.N,D0*%
X203200000Y-121920000D03*
%TO.P,U10,3*%
%TO.N,BUS4*%
X190500000Y-129540000D03*
%TO.P,U10,12*%
%TO.N,BUS3*%
X205740000Y-121920000D03*
%TO.P,U10,2*%
%TO.N,D6*%
X187960000Y-129540000D03*
%TO.P,U10,11*%
%TO.N,D1*%
X208280000Y-121920000D03*
D14*
%TO.P,U10,1*%
%TO.N,~DE*%
X185420000Y-129540000D03*
%TD*%
%TO.P,U9,1*%
%TO.N,H*%
X185420000Y-114300000D03*
D15*
%TO.P,U9,11*%
%TO.N,CLK1*%
X208280000Y-106680000D03*
%TO.P,U9,2*%
%TO.N,D7*%
X187960000Y-114300000D03*
%TO.P,U9,12*%
%TO.N,D0*%
X205740000Y-106680000D03*
%TO.P,U9,3*%
%TO.N,Net-(U7-Pad3)*%
X190500000Y-114300000D03*
%TO.P,U9,13*%
%TO.N,Net-(U7-Pad10)*%
X203200000Y-106680000D03*
%TO.P,U9,4*%
%TO.N,Net-(U7-Pad5)*%
X193040000Y-114300000D03*
%TO.P,U9,14*%
%TO.N,Net-(U7-Pad8)*%
X200660000Y-106680000D03*
%TO.P,U9,5*%
%TO.N,D5*%
X195580000Y-114300000D03*
%TO.P,U9,15*%
%TO.N,D2*%
X198120000Y-106680000D03*
%TO.P,U9,6*%
%TO.N,D3*%
X198120000Y-114300000D03*
%TO.P,U9,16*%
%TO.N,D4*%
X195580000Y-106680000D03*
%TO.P,U9,7*%
%TO.N,Net-(U7-Pad7)*%
X200660000Y-114300000D03*
%TO.P,U9,17*%
%TO.N,Net-(U7-Pad6)*%
X193040000Y-106680000D03*
%TO.P,U9,8*%
%TO.N,Net-(U7-Pad9)*%
X203200000Y-114300000D03*
%TO.P,U9,18*%
%TO.N,Net-(U7-Pad4)*%
X190500000Y-106680000D03*
%TO.P,U9,9*%
%TO.N,D1*%
X205740000Y-114300000D03*
%TO.P,U9,19*%
%TO.N,D6*%
X187960000Y-106680000D03*
%TO.P,U9,10*%
%TO.N,GND*%
X208280000Y-114300000D03*
%TO.P,U9,20*%
%TO.N,VCC*%
X185420000Y-106680000D03*
%TD*%
D14*
%TO.P,U8,1*%
%TO.N,H*%
X215900000Y-114300000D03*
D15*
%TO.P,U8,11*%
%TO.N,CLK1*%
X238760000Y-106680000D03*
%TO.P,U8,2*%
%TO.N,IR7*%
X218440000Y-114300000D03*
%TO.P,U8,12*%
%TO.N,IR1*%
X236220000Y-106680000D03*
%TO.P,U8,3*%
%TO.N,Net-(U7-Pad12)*%
X220980000Y-114300000D03*
%TO.P,U8,13*%
%TO.N,Net-(U7-Pad18)*%
X233680000Y-106680000D03*
%TO.P,U8,4*%
%TO.N,Net-(U7-Pad15)*%
X223520000Y-114300000D03*
%TO.P,U8,14*%
%TO.N,Net-(U7-Pad17)*%
X231140000Y-106680000D03*
%TO.P,U8,5*%
%TO.N,IR4*%
X226060000Y-114300000D03*
%TO.P,U8,15*%
%TO.N,IR2*%
X228600000Y-106680000D03*
%TO.P,U8,6*%
%TO.N,IR3*%
X228600000Y-114300000D03*
%TO.P,U8,16*%
%TO.N,IR5*%
X226060000Y-106680000D03*
%TO.P,U8,7*%
%TO.N,Net-(U7-Pad16)*%
X231140000Y-114300000D03*
%TO.P,U8,17*%
%TO.N,Net-(U7-Pad14)*%
X223520000Y-106680000D03*
%TO.P,U8,8*%
%TO.N,Net-(U7-Pad19)*%
X233680000Y-114300000D03*
%TO.P,U8,18*%
%TO.N,Net-(U7-Pad13)*%
X220980000Y-106680000D03*
%TO.P,U8,9*%
%TO.N,IR0*%
X236220000Y-114300000D03*
%TO.P,U8,19*%
%TO.N,IR6*%
X218440000Y-106680000D03*
%TO.P,U8,10*%
%TO.N,GND*%
X238760000Y-114300000D03*
%TO.P,U8,20*%
%TO.N,VCC*%
X215900000Y-106680000D03*
%TD*%
%TO.P,U6,16*%
%TO.N,VCC*%
X195580000Y-58420000D03*
%TO.P,U6,8*%
%TO.N,GND*%
X187960000Y-76200000D03*
%TO.P,U6,15*%
%TO.N,N/C*%
X195580000Y-60960000D03*
%TO.P,U6,7*%
%TO.N,~PL*%
X187960000Y-73660000D03*
%TO.P,U6,14*%
%TO.N,/PRG/PC12*%
X195580000Y-63500000D03*
%TO.P,U6,6*%
%TO.N,Y7*%
X187960000Y-71120000D03*
%TO.P,U6,13*%
%TO.N,/PRG/PC13*%
X195580000Y-66040000D03*
%TO.P,U6,5*%
%TO.N,Y6*%
X187960000Y-68580000D03*
%TO.P,U6,12*%
%TO.N,/PRG/PC14*%
X195580000Y-68580000D03*
%TO.P,U6,4*%
%TO.N,Y5*%
X187960000Y-66040000D03*
%TO.P,U6,11*%
%TO.N,/PRG/PC15*%
X195580000Y-71120000D03*
%TO.P,U6,3*%
%TO.N,Y4*%
X187960000Y-63500000D03*
%TO.P,U6,10*%
%TO.N,Net-(U5-Pad15)*%
X195580000Y-73660000D03*
%TO.P,U6,2*%
%TO.N,CLK1*%
X187960000Y-60960000D03*
%TO.P,U6,9*%
%TO.N,~PH*%
X195580000Y-76200000D03*
D14*
%TO.P,U6,1*%
%TO.N,~RST*%
X187960000Y-58420000D03*
%TD*%
D15*
%TO.P,U5,16*%
%TO.N,VCC*%
X208280000Y-58420000D03*
%TO.P,U5,8*%
%TO.N,GND*%
X200660000Y-76200000D03*
%TO.P,U5,15*%
%TO.N,Net-(U5-Pad15)*%
X208280000Y-60960000D03*
%TO.P,U5,7*%
%TO.N,~PL*%
X200660000Y-73660000D03*
%TO.P,U5,14*%
%TO.N,/PRG/PC8*%
X208280000Y-63500000D03*
%TO.P,U5,6*%
%TO.N,Y3*%
X200660000Y-71120000D03*
%TO.P,U5,13*%
%TO.N,/PRG/PC9*%
X208280000Y-66040000D03*
%TO.P,U5,5*%
%TO.N,Y2*%
X200660000Y-68580000D03*
%TO.P,U5,12*%
%TO.N,/PRG/PC10*%
X208280000Y-68580000D03*
%TO.P,U5,4*%
%TO.N,Y1*%
X200660000Y-66040000D03*
%TO.P,U5,11*%
%TO.N,/PRG/PC11*%
X208280000Y-71120000D03*
%TO.P,U5,3*%
%TO.N,Y0*%
X200660000Y-63500000D03*
%TO.P,U5,10*%
%TO.N,Net-(U4-Pad15)*%
X208280000Y-73660000D03*
%TO.P,U5,2*%
%TO.N,CLK1*%
X200660000Y-60960000D03*
%TO.P,U5,9*%
%TO.N,~PH*%
X208280000Y-76200000D03*
D14*
%TO.P,U5,1*%
%TO.N,~RST*%
X200660000Y-58420000D03*
%TD*%
D15*
%TO.P,U4,16*%
%TO.N,VCC*%
X223520000Y-58420000D03*
%TO.P,U4,8*%
%TO.N,GND*%
X215900000Y-76200000D03*
%TO.P,U4,15*%
%TO.N,Net-(U4-Pad15)*%
X223520000Y-60960000D03*
%TO.P,U4,7*%
%TO.N,H*%
X215900000Y-73660000D03*
%TO.P,U4,14*%
%TO.N,/PRG/PC4*%
X223520000Y-63500000D03*
%TO.P,U4,6*%
%TO.N,BUS7*%
X215900000Y-71120000D03*
%TO.P,U4,13*%
%TO.N,/PRG/PC5*%
X223520000Y-66040000D03*
%TO.P,U4,5*%
%TO.N,BUS6*%
X215900000Y-68580000D03*
%TO.P,U4,12*%
%TO.N,/PRG/PC6*%
X223520000Y-68580000D03*
%TO.P,U4,4*%
%TO.N,BUS5*%
X215900000Y-66040000D03*
%TO.P,U4,11*%
%TO.N,/PRG/PC7*%
X223520000Y-71120000D03*
%TO.P,U4,3*%
%TO.N,BUS4*%
X215900000Y-63500000D03*
%TO.P,U4,10*%
%TO.N,Net-(U3-Pad15)*%
X223520000Y-73660000D03*
%TO.P,U4,2*%
%TO.N,CLK1*%
X215900000Y-60960000D03*
%TO.P,U4,9*%
%TO.N,~PL*%
X223520000Y-76200000D03*
D14*
%TO.P,U4,1*%
%TO.N,~RST*%
X215900000Y-58420000D03*
%TD*%
D15*
%TO.P,U3,16*%
%TO.N,VCC*%
X236220000Y-58420000D03*
%TO.P,U3,8*%
%TO.N,GND*%
X228600000Y-76200000D03*
%TO.P,U3,15*%
%TO.N,Net-(U3-Pad15)*%
X236220000Y-60960000D03*
%TO.P,U3,7*%
%TO.N,H*%
X228600000Y-73660000D03*
%TO.P,U3,14*%
%TO.N,/PRG/PC0*%
X236220000Y-63500000D03*
%TO.P,U3,6*%
%TO.N,BUS3*%
X228600000Y-71120000D03*
%TO.P,U3,13*%
%TO.N,/PRG/PC1*%
X236220000Y-66040000D03*
%TO.P,U3,5*%
%TO.N,BUS2*%
X228600000Y-68580000D03*
%TO.P,U3,12*%
%TO.N,/PRG/PC2*%
X236220000Y-68580000D03*
%TO.P,U3,4*%
%TO.N,BUS1*%
X228600000Y-66040000D03*
%TO.P,U3,11*%
%TO.N,/PRG/PC3*%
X236220000Y-71120000D03*
%TO.P,U3,3*%
%TO.N,BUS0*%
X228600000Y-63500000D03*
%TO.P,U3,10*%
%TO.N,H*%
X236220000Y-73660000D03*
%TO.P,U3,2*%
%TO.N,CLK1*%
X228600000Y-60960000D03*
%TO.P,U3,9*%
%TO.N,~PL*%
X236220000Y-76200000D03*
D14*
%TO.P,U3,1*%
%TO.N,~RST*%
X228600000Y-58420000D03*
%TD*%
%TO.P,U1,1*%
%TO.N,Net-(C1-Pad1)*%
X208280000Y-49530000D03*
D15*
%TO.P,U1,8*%
%TO.N,CLK2*%
X223520000Y-41910000D03*
%TO.P,U1,2*%
%TO.N,Net-(R1-Pad1)*%
X210820000Y-49530000D03*
%TO.P,U1,9*%
%TO.N,Net-(C3-Pad1)*%
X220980000Y-41910000D03*
%TO.P,U1,3*%
%TO.N,Net-(U1-Pad11)*%
X213360000Y-49530000D03*
%TO.P,U1,10*%
%TO.N,N/C*%
X218440000Y-41910000D03*
%TO.P,U1,4*%
%TO.N,CLK1*%
X215900000Y-49530000D03*
%TO.P,U1,11*%
%TO.N,Net-(U1-Pad11)*%
X215900000Y-41910000D03*
%TO.P,U1,5*%
%TO.N,CLK1*%
X218440000Y-49530000D03*
%TO.P,U1,12*%
%TO.N,Net-(U1-Pad11)*%
X213360000Y-41910000D03*
%TO.P,U1,6*%
%TO.N,Net-(C3-Pad1)*%
X220980000Y-49530000D03*
%TO.P,U1,13*%
%TO.N,Net-(R1-Pad1)*%
X210820000Y-41910000D03*
%TO.P,U1,7*%
%TO.N,GND*%
X223520000Y-49530000D03*
%TO.P,U1,14*%
%TO.N,VCC*%
X208280000Y-41910000D03*
%TD*%
D25*
%TO.P,J2,1*%
%TO.N,GND*%
X86360000Y-28630000D03*
%TO.P,J2,2*%
%TO.N,Net-(C44-Pad1)*%
X81360000Y-33630000D03*
%TO.P,J2,3*%
X91360000Y-33630000D03*
D26*
%TO.P,J2,10*%
%TO.N,N/C*%
X84360000Y-33630000D03*
%TO.P,J2,11*%
X88360000Y-33630000D03*
D27*
%TO.P,J2,MH1*%
X91360000Y-26130000D03*
%TO.P,J2,MH2*%
X91360000Y-28630000D03*
%TO.P,J2,MH3*%
X86360000Y-33630000D03*
%TO.P,J2,MH4*%
X81360000Y-26130000D03*
%TO.P,J2,MH5*%
X81360000Y-28630000D03*
%TD*%
D28*
%TO.P,D8,2*%
%TO.N,Net-(D8-Pad2)*%
X45720000Y-45720000D03*
D20*
%TO.P,D8,1*%
%TO.N,Net-(D8-Pad1)*%
X45720000Y-43180000D03*
%TD*%
D28*
%TO.P,D7,2*%
%TO.N,Net-(D7-Pad2)*%
X40640000Y-45720000D03*
D20*
%TO.P,D7,1*%
%TO.N,Net-(D7-Pad1)*%
X40640000Y-43180000D03*
%TD*%
D28*
%TO.P,D6,2*%
%TO.N,Net-(D6-Pad2)*%
X35560000Y-45720000D03*
D20*
%TO.P,D6,1*%
%TO.N,Net-(D6-Pad1)*%
X35560000Y-43180000D03*
%TD*%
D28*
%TO.P,D5,2*%
%TO.N,Net-(D5-Pad2)*%
X30480000Y-45720000D03*
D20*
%TO.P,D5,1*%
%TO.N,Net-(D5-Pad1)*%
X30480000Y-43180000D03*
%TD*%
D28*
%TO.P,D2,2*%
%TO.N,~RST*%
X173355000Y-45720000D03*
D20*
%TO.P,D2,1*%
%TO.N,Net-(D2-Pad1)*%
X173355000Y-43180000D03*
%TD*%
D18*
%TO.P,A15,1*%
%TO.N,Net-(A15-Pad1)*%
X147320000Y-84455000D03*
%TD*%
D29*
%TO.N,CLK1*%
X213646300Y-106541400D03*
X140286000Y-109574300D03*
%TO.N,CLK2*%
X193716100Y-40899900D03*
%TO.N,BUS0*%
X65556100Y-120663500D03*
X166878300Y-115855700D03*
X193071600Y-57150300D03*
%TO.N,BUS1*%
X59902600Y-132244500D03*
X139988200Y-126343400D03*
X156312800Y-106197300D03*
%TO.N,BUS2*%
X227076500Y-79760200D03*
X166491000Y-91169100D03*
X63772800Y-87114400D03*
%TO.N,BUS3*%
X227505000Y-76996300D03*
X180861900Y-119638900D03*
%TO.N,BUS4*%
X93215700Y-112580400D03*
X168792700Y-112920800D03*
X201931600Y-81336900D03*
%TO.N,BUS5*%
X83907500Y-129535200D03*
X211779900Y-82002600D03*
X57315100Y-131772100D03*
X228841200Y-52457700D03*
X199390000Y-99688900D03*
%TO.N,BUS6*%
X72373000Y-158769400D03*
X77618700Y-105206100D03*
X229106000Y-55286600D03*
X209952200Y-74547000D03*
X193445000Y-96224200D03*
X184292400Y-96224200D03*
%TO.N,BUS7*%
X163136600Y-84331500D03*
X212333600Y-78507500D03*
X189296000Y-120931600D03*
X181743700Y-84808300D03*
%TO.N,AC1*%
X55081100Y-129540000D03*
%TO.N,AC2*%
X54621400Y-89781300D03*
%TO.N,AC4*%
X60735800Y-112650100D03*
%TO.N,AC5*%
X66006400Y-126815500D03*
%TO.N,AC6*%
X58747200Y-88335400D03*
%TO.N,AC7*%
X59326000Y-108642000D03*
%TO.N,ALU3*%
X66803500Y-62825000D03*
X58688100Y-103734400D03*
X108990700Y-67789100D03*
%TO.N,ALU2*%
X79860600Y-112878400D03*
X149413700Y-57130300D03*
X116465100Y-56645600D03*
%TO.N,ALU0*%
X80660300Y-114302700D03*
X104202500Y-75800500D03*
%TO.N,Y0*%
X179732000Y-66613700D03*
%TO.N,Y1*%
X161403900Y-66128400D03*
%TO.N,/RAM/A4*%
X120058200Y-106436700D03*
%TO.N,D1*%
X139115800Y-110507300D03*
%TO.N,D2*%
X136707100Y-109015100D03*
%TO.N,D3*%
X139855600Y-111164500D03*
%TO.N,D4*%
X120937000Y-108343600D03*
%TO.N,D7*%
X127694600Y-113035500D03*
X192044000Y-117118400D03*
%TO.N,ALU4*%
X120570900Y-49334500D03*
X107620000Y-55072700D03*
%TO.N,ALU5*%
X120327700Y-62832700D03*
X102547600Y-76853100D03*
X76365000Y-118302500D03*
%TO.N,ALU6*%
X169256700Y-58524600D03*
X108256700Y-55608100D03*
X85980600Y-91005400D03*
X79264600Y-104281300D03*
%TO.N,ALU7*%
X168948200Y-81729800D03*
%TO.N,Net-(U18-Pad9)*%
X74800700Y-142240000D03*
%TO.N,~OE*%
X186552100Y-126384600D03*
X170885800Y-106453900D03*
%TO.N,L*%
X219885700Y-100008100D03*
X157596600Y-87108600D03*
X74248300Y-152400000D03*
%TO.N,H*%
X107641700Y-153526800D03*
X190500000Y-79226800D03*
%TO.N,~PL*%
X181374300Y-120264300D03*
%TO.N,~PH*%
X158259200Y-107334700D03*
X187174300Y-101916500D03*
%TO.N,IR6*%
X210548000Y-117642200D03*
%TO.N,Net-(D5-Pad2)*%
X50064700Y-76153500D03*
%TO.N,/CU/INV_C_OUT*%
X143480200Y-128040400D03*
%TO.N,EL*%
X155520100Y-86599100D03*
%TO.N,AR0*%
X50881300Y-102410200D03*
%TO.N,CO*%
X144939500Y-118731600D03*
X163950100Y-132210400D03*
%TO.N,IX*%
X101912300Y-147927300D03*
%TO.N,~XL*%
X134658100Y-133689800D03*
%TO.N,~OL*%
X129975100Y-125901900D03*
X112865600Y-54335300D03*
%TO.N,Net-(U4-Pad15)*%
X217857700Y-66388600D03*
%TO.N,Net-(U29-Pad15)*%
X119046500Y-73246900D03*
%TO.N,Net-(D25-Pad2)*%
X156961800Y-148901700D03*
%TO.N,GND*%
X60318100Y-127230000D03*
%TO.N,VCC*%
X185420000Y-100213000D03*
%TD*%
D30*
%TO.N,Net-(C3-Pad1)*%
X220980000Y-41910000D02*
X220980000Y-38100000D01*
X220980000Y-49530000D02*
X220980000Y-41910000D01*
%TO.N,CLK1*%
X227189800Y-89083800D02*
X224219500Y-89083800D01*
X224219500Y-89083800D02*
X214720500Y-98582800D01*
X214720500Y-98582800D02*
X214720500Y-105467200D01*
X214720500Y-105467200D02*
X213646300Y-106541400D01*
X238760000Y-106680000D02*
X238760000Y-99976000D01*
X238760000Y-99976000D02*
X227867800Y-89083800D01*
X227867800Y-89083800D02*
X227189800Y-89083800D01*
X227189800Y-89083800D02*
X227189800Y-83145300D01*
X227189800Y-83145300D02*
X226429400Y-82384900D01*
X226429400Y-82384900D02*
X226429400Y-63130600D01*
X226429400Y-63130600D02*
X228600000Y-60960000D01*
X134620000Y-128414700D02*
X135758400Y-127276300D01*
X135758400Y-127276300D02*
X135758400Y-116707300D01*
X135758400Y-116707300D02*
X140480900Y-111984800D01*
X140480900Y-111984800D02*
X140480900Y-109769200D01*
X140480900Y-109769200D02*
X140286000Y-109574300D01*
X134620000Y-129540000D02*
X134620000Y-128414700D01*
X215900000Y-60960000D02*
X215900000Y-59834700D01*
X215900000Y-59834700D02*
X216603300Y-59834700D01*
X216603300Y-59834700D02*
X218440000Y-57998000D01*
X218440000Y-57998000D02*
X218440000Y-49530000D01*
%TO.N,CLK2*%
X63500000Y-123334700D02*
X63781400Y-123334700D01*
X63781400Y-123334700D02*
X64625300Y-122490800D01*
X64625300Y-122490800D02*
X64625300Y-121443800D01*
X64625300Y-121443800D02*
X63712400Y-120530900D01*
X63712400Y-120530900D02*
X62974500Y-120530900D01*
X62974500Y-120530900D02*
X61362200Y-118918600D01*
X61362200Y-118918600D02*
X61362200Y-109089300D01*
X61362200Y-109089300D02*
X60969600Y-108696700D01*
X60969600Y-108696700D02*
X60969600Y-85804300D01*
X60969600Y-85804300D02*
X68922100Y-77851800D01*
X68922100Y-77851800D02*
X68922100Y-69112300D01*
X68922100Y-69112300D02*
X70724400Y-67310000D01*
X70724400Y-67310000D02*
X71454300Y-67310000D01*
X71454300Y-67310000D02*
X72389300Y-66375000D01*
X72389300Y-66375000D02*
X72389300Y-65638700D01*
X72389300Y-65638700D02*
X78193400Y-59834600D01*
X78193400Y-59834600D02*
X104429300Y-59834600D01*
X104429300Y-59834600D02*
X105554700Y-60960000D01*
X63500000Y-124460000D02*
X63500000Y-123334700D01*
X106680000Y-60960000D02*
X105554700Y-60960000D01*
X193716100Y-40899900D02*
X193716100Y-67026600D01*
X193716100Y-67026600D02*
X188352700Y-72390000D01*
X188352700Y-72390000D02*
X185731600Y-72390000D01*
X185731600Y-72390000D02*
X176841600Y-81280000D01*
X176841600Y-81280000D02*
X176385300Y-81280000D01*
X175260000Y-81280000D02*
X176385300Y-81280000D01*
X124460000Y-33020000D02*
X124460000Y-34145300D01*
X121920000Y-60960000D02*
X121920000Y-59834700D01*
X121920000Y-59834700D02*
X122623400Y-59834700D01*
X122623400Y-59834700D02*
X123334700Y-59123400D01*
X123334700Y-59123400D02*
X123334700Y-35270600D01*
X123334700Y-35270600D02*
X124460000Y-34145300D01*
%TO.N,BUS0*%
X63500000Y-148734700D02*
X63781400Y-148734700D01*
X63781400Y-148734700D02*
X64625300Y-147890800D01*
X64625300Y-147890800D02*
X64625300Y-125629900D01*
X64625300Y-125629900D02*
X65556100Y-124699100D01*
X65556100Y-124699100D02*
X65556100Y-120663500D01*
X167130200Y-115603800D02*
X166370000Y-114843600D01*
X166370000Y-114843600D02*
X166370000Y-103744100D01*
X166370000Y-103744100D02*
X165609300Y-102983400D01*
X199534700Y-129540000D02*
X199534700Y-129821300D01*
X199534700Y-129821300D02*
X197727600Y-131628400D01*
X197727600Y-131628400D02*
X183154800Y-131628400D01*
X183154800Y-131628400D02*
X167130200Y-115603800D01*
X167130200Y-115603800D02*
X166878300Y-115855700D01*
X63500000Y-149860000D02*
X63500000Y-148734700D01*
X193071600Y-57150300D02*
X193071600Y-62561300D01*
X193071600Y-62561300D02*
X188322900Y-67310000D01*
X188322900Y-67310000D02*
X185599800Y-67310000D01*
X185599800Y-67310000D02*
X177979800Y-74930000D01*
X177979800Y-74930000D02*
X173200500Y-74930000D01*
X173200500Y-74930000D02*
X168120500Y-80010000D01*
X168120500Y-80010000D02*
X167307600Y-80010000D01*
X167307600Y-80010000D02*
X166289600Y-81028000D01*
X166289600Y-81028000D02*
X166289600Y-89997400D01*
X166289600Y-89997400D02*
X165609300Y-90677700D01*
X165609300Y-90677700D02*
X165609300Y-102983400D01*
X233680000Y-41910000D02*
X233680000Y-43035300D01*
X233680000Y-43035300D02*
X232398400Y-44316900D01*
X232398400Y-44316900D02*
X232398400Y-51618600D01*
X232398400Y-51618600D02*
X230820000Y-53197000D01*
X230820000Y-53197000D02*
X230820000Y-61280000D01*
X230820000Y-61280000D02*
X228600000Y-63500000D01*
X163685300Y-104140000D02*
X163685300Y-103858700D01*
X163685300Y-103858700D02*
X164560600Y-102983400D01*
X164560600Y-102983400D02*
X165609300Y-102983400D01*
X200660000Y-129540000D02*
X199534700Y-129540000D01*
X162560000Y-104140000D02*
X163685300Y-104140000D01*
%TO.N,BUS1*%
X156312800Y-106197300D02*
X141114600Y-121395500D01*
X141114600Y-121395500D02*
X141114600Y-125217000D01*
X141114600Y-125217000D02*
X139988200Y-126343400D01*
X204614700Y-129540000D02*
X204614700Y-113674800D01*
X204614700Y-113674800D02*
X212090000Y-106199500D01*
X212090000Y-106199500D02*
X212090000Y-91161800D01*
X212090000Y-91161800D02*
X217170000Y-86081800D01*
X217170000Y-86081800D02*
X217170000Y-68204400D01*
X217170000Y-68204400D02*
X223144400Y-62230000D01*
X223144400Y-62230000D02*
X224043600Y-62230000D01*
X224043600Y-62230000D02*
X226464200Y-59809400D01*
X226464200Y-59809400D02*
X229754500Y-59809400D01*
X165100000Y-105265300D02*
X165100000Y-114961700D01*
X165100000Y-114961700D02*
X182281300Y-132143000D01*
X182281300Y-132143000D02*
X202293000Y-132143000D01*
X202293000Y-132143000D02*
X204614700Y-129821300D01*
X204614700Y-129821300D02*
X204614700Y-129540000D01*
X63500000Y-154940000D02*
X63500000Y-153814700D01*
X63500000Y-153814700D02*
X63218700Y-153814700D01*
X63218700Y-153814700D02*
X59902600Y-150498600D01*
X59902600Y-150498600D02*
X59902600Y-132244500D01*
X229754500Y-59809400D02*
X230014700Y-59549200D01*
X230014700Y-59549200D02*
X230014700Y-51780600D01*
X230014700Y-51780600D02*
X231140000Y-50655300D01*
X228600000Y-64914700D02*
X228318700Y-64914700D01*
X228318700Y-64914700D02*
X227464600Y-64060600D01*
X227464600Y-64060600D02*
X227464600Y-63033500D01*
X227464600Y-63033500D02*
X228268100Y-62230000D01*
X228268100Y-62230000D02*
X228991800Y-62230000D01*
X228991800Y-62230000D02*
X229754500Y-61467300D01*
X229754500Y-61467300D02*
X229754500Y-59809400D01*
X231140000Y-49530000D02*
X231140000Y-50655300D01*
X228600000Y-66040000D02*
X228600000Y-64914700D01*
X165100000Y-104140000D02*
X165100000Y-105265300D01*
X205740000Y-129540000D02*
X204614700Y-129540000D01*
%TO.N,BUS2*%
X63500000Y-160020000D02*
X67114200Y-156405800D01*
X67114200Y-156405800D02*
X67114200Y-119711500D01*
X67114200Y-119711500D02*
X66913700Y-119511000D01*
X66913700Y-119511000D02*
X66913700Y-110964900D01*
X66913700Y-110964900D02*
X63898800Y-107950000D01*
X63898800Y-107950000D02*
X63172200Y-107950000D01*
X63172200Y-107950000D02*
X61924200Y-106702000D01*
X61924200Y-106702000D02*
X61924200Y-88963000D01*
X61924200Y-88963000D02*
X63772800Y-87114400D01*
X194567300Y-129540000D02*
X194567200Y-129540000D01*
X194567200Y-129540000D02*
X194567200Y-129624400D01*
X194567200Y-129624400D02*
X193016100Y-131175500D01*
X193016100Y-131175500D02*
X184354600Y-131175500D01*
X184354600Y-131175500D02*
X167640000Y-114460900D01*
X167640000Y-114460900D02*
X167640000Y-105265300D01*
X228600000Y-69705300D02*
X228318700Y-69705300D01*
X228318700Y-69705300D02*
X226879700Y-71144300D01*
X226879700Y-71144300D02*
X226879700Y-79563400D01*
X226879700Y-79563400D02*
X227076500Y-79760200D01*
X228600000Y-67454700D02*
X228881300Y-67454700D01*
X228881300Y-67454700D02*
X231566800Y-64769200D01*
X231566800Y-64769200D02*
X231566800Y-53405400D01*
X231566800Y-53405400D02*
X233680000Y-51292200D01*
X233680000Y-51292200D02*
X233680000Y-50655300D01*
X228600000Y-68580000D02*
X228600000Y-69705300D01*
X167640000Y-104140000D02*
X167640000Y-103014700D01*
X167640000Y-103014700D02*
X166491000Y-101865700D01*
X166491000Y-101865700D02*
X166491000Y-91169100D01*
X167640000Y-104417900D02*
X167640000Y-104140000D01*
X167640000Y-104417900D02*
X167640000Y-105265300D01*
X228600000Y-68580000D02*
X228600000Y-67454700D01*
X233680000Y-49530000D02*
X233680000Y-50655300D01*
X195580000Y-129540000D02*
X194567300Y-129540000D01*
%TO.N,BUS3*%
X170180000Y-90025300D02*
X177151200Y-96996500D01*
X177151200Y-96996500D02*
X177151200Y-115928200D01*
X177151200Y-115928200D02*
X180861900Y-119638900D01*
X228600000Y-71120000D02*
X228600000Y-72245300D01*
X227505000Y-76996300D02*
X227474700Y-76966000D01*
X227474700Y-76966000D02*
X227474700Y-73089200D01*
X227474700Y-73089200D02*
X228318600Y-72245300D01*
X228318600Y-72245300D02*
X228600000Y-72245300D01*
X170180000Y-88900000D02*
X170180000Y-90025300D01*
X40640000Y-60960000D02*
X40640000Y-62085300D01*
X63500000Y-165100000D02*
X62374700Y-165100000D01*
X62374700Y-165100000D02*
X58709300Y-168765400D01*
X58709300Y-168765400D02*
X40156500Y-168765400D01*
X40156500Y-168765400D02*
X34382300Y-162991200D01*
X34382300Y-162991200D02*
X34382300Y-68061700D01*
X34382300Y-68061700D02*
X40358700Y-62085300D01*
X40358700Y-62085300D02*
X40640000Y-62085300D01*
X236220000Y-49530000D02*
X236220000Y-50655300D01*
X228600000Y-71120000D02*
X235094700Y-64625300D01*
X235094700Y-64625300D02*
X235094700Y-51780600D01*
X235094700Y-51780600D02*
X236220000Y-50655300D01*
%TO.N,BUS4*%
X78740000Y-154940000D02*
X80837300Y-152842700D01*
X80837300Y-152842700D02*
X80837300Y-135125700D01*
X80837300Y-135125700D02*
X78917000Y-133205400D01*
X78917000Y-133205400D02*
X78226800Y-133205400D01*
X78226800Y-133205400D02*
X77600600Y-132579200D01*
X77600600Y-132579200D02*
X77600600Y-126485800D01*
X77600600Y-126485800D02*
X78356400Y-125730000D01*
X78356400Y-125730000D02*
X79098300Y-125730000D01*
X79098300Y-125730000D02*
X85223400Y-119604900D01*
X85223400Y-119604900D02*
X85223400Y-116371000D01*
X85223400Y-116371000D02*
X89014000Y-112580400D01*
X89014000Y-112580400D02*
X93215700Y-112580400D01*
X189374700Y-129540000D02*
X189374700Y-129821400D01*
X189374700Y-129821400D02*
X188530800Y-130665300D01*
X188530800Y-130665300D02*
X184481300Y-130665300D01*
X184481300Y-130665300D02*
X168792700Y-114976700D01*
X168792700Y-114976700D02*
X168792700Y-112920800D01*
X167640000Y-88900000D02*
X167640000Y-101620200D01*
X167640000Y-101620200D02*
X168792700Y-102772900D01*
X168792700Y-102772900D02*
X168792700Y-112920800D01*
X190500000Y-129540000D02*
X189374700Y-129540000D01*
X214774700Y-63500000D02*
X213649400Y-62374700D01*
X213649400Y-62374700D02*
X207786900Y-62374700D01*
X207786900Y-62374700D02*
X206045500Y-64116100D01*
X206045500Y-64116100D02*
X206045500Y-73638500D01*
X206045500Y-73638500D02*
X201931600Y-77752400D01*
X201931600Y-77752400D02*
X201931600Y-81336900D01*
X215900000Y-63500000D02*
X214774700Y-63500000D01*
X238760000Y-49530000D02*
X238760000Y-48404700D01*
X215900000Y-63500000D02*
X215900000Y-62374700D01*
X215900000Y-62374700D02*
X216181300Y-62374700D01*
X216181300Y-62374700D02*
X226500800Y-52055200D01*
X226500800Y-52055200D02*
X226500800Y-49577600D01*
X226500800Y-49577600D02*
X232410000Y-43668400D01*
X232410000Y-43668400D02*
X232410000Y-41541100D01*
X232410000Y-41541100D02*
X233197700Y-40753400D01*
X233197700Y-40753400D02*
X234189300Y-40753400D01*
X234189300Y-40753400D02*
X234876100Y-41440200D01*
X234876100Y-41440200D02*
X234876100Y-44520800D01*
X234876100Y-44520800D02*
X238760000Y-48404700D01*
%TO.N,BUS5*%
X78740000Y-129540000D02*
X79865300Y-129540000D01*
X83907500Y-129535200D02*
X79870100Y-129535200D01*
X79870100Y-129535200D02*
X79865300Y-129540000D01*
X215900000Y-66040000D02*
X211695000Y-70245000D01*
X211695000Y-70245000D02*
X211695000Y-81917700D01*
X211695000Y-81917700D02*
X211779900Y-82002600D01*
X55880000Y-153814700D02*
X56161300Y-153814700D01*
X56161300Y-153814700D02*
X57505100Y-152470900D01*
X57505100Y-152470900D02*
X57505100Y-131962100D01*
X57505100Y-131962100D02*
X57315100Y-131772100D01*
X55880000Y-154940000D02*
X55880000Y-153814700D01*
X215900000Y-64914700D02*
X216167000Y-64914700D01*
X216167000Y-64914700D02*
X217662200Y-63419500D01*
X217662200Y-63419500D02*
X217662200Y-62676200D01*
X217662200Y-62676200D02*
X227880700Y-52457700D01*
X227880700Y-52457700D02*
X228841200Y-52457700D01*
X215900000Y-66040000D02*
X215900000Y-64914700D01*
X199390000Y-99688900D02*
X199390000Y-117621600D01*
X199390000Y-117621600D02*
X200660000Y-118891600D01*
X200660000Y-118891600D02*
X200660000Y-121920000D01*
%TO.N,BUS6*%
X209952200Y-74547000D02*
X209952200Y-82925600D01*
X209952200Y-82925600D02*
X209405400Y-83472400D01*
X209405400Y-83472400D02*
X209405400Y-84329900D01*
X209405400Y-84329900D02*
X197511100Y-96224200D01*
X197511100Y-96224200D02*
X193445000Y-96224200D01*
X190500000Y-120794700D02*
X189786300Y-120081000D01*
X189786300Y-120081000D02*
X189082300Y-120081000D01*
X189082300Y-120081000D02*
X184292400Y-115291100D01*
X184292400Y-115291100D02*
X184292400Y-96224200D01*
X77618700Y-105206100D02*
X75027100Y-107797700D01*
X75027100Y-107797700D02*
X75027100Y-118528900D01*
X75027100Y-118528900D02*
X75439100Y-118940900D01*
X75439100Y-118940900D02*
X75439100Y-142737500D01*
X75439100Y-142737500D02*
X74902300Y-143274300D01*
X74902300Y-143274300D02*
X74902300Y-156240100D01*
X74902300Y-156240100D02*
X72373000Y-158769400D01*
X215900000Y-67454700D02*
X216093400Y-67454700D01*
X216093400Y-67454700D02*
X217211800Y-66336300D01*
X217211800Y-66336300D02*
X217211800Y-65611500D01*
X217211800Y-65611500D02*
X223133300Y-59690000D01*
X223133300Y-59690000D02*
X224702600Y-59690000D01*
X224702600Y-59690000D02*
X229106000Y-55286600D01*
X215900000Y-68580000D02*
X215900000Y-67454700D01*
X190500000Y-121920000D02*
X190500000Y-120794700D01*
%TO.N,BUS7*%
X160020000Y-88900000D02*
X160020000Y-87774700D01*
X160020000Y-87774700D02*
X163136600Y-84658100D01*
X163136600Y-84658100D02*
X163136600Y-84331500D01*
X55880000Y-163974700D02*
X56161300Y-163974700D01*
X56161300Y-163974700D02*
X59253800Y-160882200D01*
X59253800Y-160882200D02*
X59253800Y-127397100D01*
X59253800Y-127397100D02*
X60242900Y-126408000D01*
X60242900Y-126408000D02*
X63210300Y-126408000D01*
X63210300Y-126408000D02*
X65094100Y-124524200D01*
X65094100Y-124524200D02*
X65094100Y-121085800D01*
X65094100Y-121085800D02*
X64930800Y-120922500D01*
X64930800Y-120922500D02*
X64930800Y-119159100D01*
X64930800Y-119159100D02*
X63881700Y-118110000D01*
X63881700Y-118110000D02*
X63139900Y-118110000D01*
X63139900Y-118110000D02*
X61812500Y-116782600D01*
X61812500Y-116782600D02*
X61812500Y-108902700D01*
X61812500Y-108902700D02*
X61439500Y-108529700D01*
X61439500Y-108529700D02*
X61439500Y-86608200D01*
X61439500Y-86608200D02*
X69372500Y-78675200D01*
X69372500Y-78675200D02*
X69372500Y-73763800D01*
X69372500Y-73763800D02*
X70746300Y-72390000D01*
X70746300Y-72390000D02*
X71498100Y-72390000D01*
X71498100Y-72390000D02*
X77614700Y-66273400D01*
X77614700Y-66273400D02*
X77614700Y-65469200D01*
X77614700Y-65469200D02*
X78458600Y-64625300D01*
X78458600Y-64625300D02*
X78740000Y-64625300D01*
X212333600Y-78507500D02*
X212333600Y-75607400D01*
X212333600Y-75607400D02*
X215695700Y-72245300D01*
X215695700Y-72245300D02*
X215900000Y-72245300D01*
X55880000Y-165100000D02*
X55880000Y-163974700D01*
X78740000Y-63500000D02*
X78740000Y-64625300D01*
X181743700Y-84808300D02*
X181743700Y-113379300D01*
X181743700Y-113379300D02*
X189296000Y-120931600D01*
X215900000Y-71120000D02*
X215900000Y-72245300D01*
%TO.N,AC0*%
X55880000Y-77325300D02*
X55598700Y-77325300D01*
X55598700Y-77325300D02*
X53540000Y-79384000D01*
X53540000Y-79384000D02*
X53540000Y-118736000D01*
X53540000Y-118736000D02*
X55598700Y-120794700D01*
X55598700Y-120794700D02*
X55880000Y-120794700D01*
X55880000Y-121920000D02*
X55880000Y-120794700D01*
X55880000Y-122482600D02*
X55880000Y-121920000D01*
X55880000Y-76200000D02*
X55880000Y-77325300D01*
X55880000Y-123045300D02*
X55598700Y-123045300D01*
X55598700Y-123045300D02*
X54455800Y-124188200D01*
X54455800Y-124188200D02*
X54455800Y-145473900D01*
X54455800Y-145473900D02*
X55176600Y-146194700D01*
X55880000Y-122482600D02*
X55880000Y-123045300D01*
X48260000Y-153814700D02*
X48541400Y-153814700D01*
X48541400Y-153814700D02*
X49571900Y-152784200D01*
X49571900Y-152784200D02*
X49571900Y-151799400D01*
X49571900Y-151799400D02*
X55176600Y-146194700D01*
X55176600Y-146194700D02*
X55880000Y-146194700D01*
X48260000Y-154940000D02*
X48260000Y-153814700D01*
X55880000Y-147320000D02*
X55880000Y-146194700D01*
%TO.N,AC1*%
X55880000Y-73660000D02*
X55880000Y-74785300D01*
X55880000Y-114758200D02*
X53990300Y-112868500D01*
X53990300Y-112868500D02*
X53990300Y-85560600D01*
X53990300Y-85560600D02*
X57030900Y-82520000D01*
X57030900Y-82520000D02*
X57030900Y-75730600D01*
X57030900Y-75730600D02*
X56085600Y-74785300D01*
X56085600Y-74785300D02*
X55880000Y-74785300D01*
X55880000Y-114300000D02*
X55880000Y-114758200D01*
X55880000Y-114862600D02*
X55880000Y-115425300D01*
X55880000Y-114862600D02*
X55880000Y-114758200D01*
X55880000Y-115425300D02*
X56161300Y-115425300D01*
X56161300Y-115425300D02*
X57056300Y-116320300D01*
X57056300Y-116320300D02*
X57056300Y-127564800D01*
X57056300Y-127564800D02*
X55081100Y-129540000D01*
X55081100Y-129540000D02*
X55081100Y-130494000D01*
X55081100Y-130494000D02*
X57005300Y-132418200D01*
X57005300Y-132418200D02*
X57005300Y-150430800D01*
X57005300Y-150430800D02*
X56161400Y-151274700D01*
X56161400Y-151274700D02*
X55880000Y-151274700D01*
X55880000Y-152400000D02*
X55880000Y-151274700D01*
%TO.N,AC2*%
X54621400Y-89781300D02*
X54621400Y-85791400D01*
X54621400Y-85791400D02*
X57481200Y-82931600D01*
X57481200Y-82931600D02*
X57481200Y-67641200D01*
X57481200Y-67641200D02*
X55880000Y-66040000D01*
X55880000Y-111760000D02*
X55880000Y-112885300D01*
X55880000Y-157480000D02*
X55880000Y-156354700D01*
X55880000Y-156354700D02*
X56161400Y-156354700D01*
X56161400Y-156354700D02*
X57972400Y-154543700D01*
X57972400Y-154543700D02*
X57972400Y-114696400D01*
X57972400Y-114696400D02*
X56161300Y-112885300D01*
X56161300Y-112885300D02*
X55880000Y-112885300D01*
X55880000Y-111760000D02*
X55880000Y-110634700D01*
X55880000Y-110634700D02*
X55598700Y-110634700D01*
X55598700Y-110634700D02*
X54621400Y-109657400D01*
X54621400Y-109657400D02*
X54621400Y-89781300D01*
%TO.N,AC3*%
X55880000Y-103014700D02*
X56583400Y-103014700D01*
X56583400Y-103014700D02*
X57483800Y-102114300D01*
X57483800Y-102114300D02*
X57483800Y-83565900D01*
X57483800Y-83565900D02*
X57931500Y-83118200D01*
X57931500Y-83118200D02*
X57931500Y-66395500D01*
X57931500Y-66395500D02*
X56161300Y-64625300D01*
X56161300Y-64625300D02*
X55880000Y-64625300D01*
X55880000Y-105265300D02*
X56161300Y-105265300D01*
X56161300Y-105265300D02*
X58422800Y-107526800D01*
X58422800Y-107526800D02*
X58422800Y-159096200D01*
X58422800Y-159096200D02*
X56084300Y-161434700D01*
X56084300Y-161434700D02*
X55880000Y-161434700D01*
X55880000Y-104140000D02*
X55880000Y-105265300D01*
X55880000Y-162560000D02*
X55880000Y-161434700D01*
X55880000Y-63500000D02*
X55880000Y-64625300D01*
X55880000Y-104140000D02*
X55880000Y-103014700D01*
%TO.N,AC4*%
X60735800Y-112650100D02*
X60477000Y-112391300D01*
X60477000Y-112391300D02*
X60477000Y-79223000D01*
X60477000Y-79223000D02*
X63500000Y-76200000D01*
X63500000Y-115425300D02*
X63781400Y-115425300D01*
X63781400Y-115425300D02*
X65562800Y-117206700D01*
X65562800Y-117206700D02*
X65562800Y-119433900D01*
X65562800Y-119433900D02*
X66181500Y-120052600D01*
X66181500Y-120052600D02*
X66181500Y-125756100D01*
X66181500Y-125756100D02*
X65381100Y-126556500D01*
X65381100Y-126556500D02*
X65381100Y-149674900D01*
X65381100Y-149674900D02*
X63781300Y-151274700D01*
X63781300Y-151274700D02*
X63500000Y-151274700D01*
X63500000Y-152400000D02*
X63500000Y-151274700D01*
X63500000Y-114300000D02*
X63500000Y-115425300D01*
%TO.N,AC5*%
X63500000Y-73660000D02*
X63500000Y-74785300D01*
X63500000Y-121920000D02*
X60026600Y-118446600D01*
X60026600Y-118446600D02*
X60026600Y-77977400D01*
X60026600Y-77977400D02*
X63218700Y-74785300D01*
X63218700Y-74785300D02*
X63500000Y-74785300D01*
X66006400Y-126815500D02*
X66006400Y-154052600D01*
X66006400Y-154052600D02*
X63704300Y-156354700D01*
X63704300Y-156354700D02*
X63500000Y-156354700D01*
X63500000Y-157480000D02*
X63500000Y-156354700D01*
%TO.N,AC6*%
X58747200Y-88335400D02*
X58832100Y-88250500D01*
X58832100Y-88250500D02*
X58832100Y-70707900D01*
X58832100Y-70707900D02*
X63500000Y-66040000D01*
X63500000Y-104421300D02*
X62374600Y-103295900D01*
X62374600Y-103295900D02*
X62374600Y-92285300D01*
X62374600Y-92285300D02*
X68299900Y-86360000D01*
X68299900Y-86360000D02*
X71120000Y-86360000D01*
X63500000Y-104421300D02*
X63500000Y-105265300D01*
X63500000Y-104140000D02*
X63500000Y-104421300D01*
X63500000Y-162560000D02*
X63500000Y-161434700D01*
X63500000Y-105265300D02*
X63781300Y-105265300D01*
X63781300Y-105265300D02*
X67364100Y-108848100D01*
X67364100Y-108848100D02*
X67364100Y-118269600D01*
X67364100Y-118269600D02*
X67585300Y-118490800D01*
X67585300Y-118490800D02*
X67585300Y-157630700D01*
X67585300Y-157630700D02*
X63781300Y-161434700D01*
X63781300Y-161434700D02*
X63500000Y-161434700D01*
%TO.N,AC7*%
X63500000Y-64625300D02*
X63218700Y-64625300D01*
X63218700Y-64625300D02*
X58381800Y-69462200D01*
X58381800Y-69462200D02*
X58381800Y-83304800D01*
X58381800Y-83304800D02*
X58062700Y-83623900D01*
X58062700Y-83623900D02*
X58062700Y-104812400D01*
X58062700Y-104812400D02*
X59326000Y-106075700D01*
X59326000Y-106075700D02*
X59326000Y-108642000D01*
X63500000Y-63500000D02*
X63500000Y-64625300D01*
X64625300Y-165670800D02*
X69114800Y-170160300D01*
X69114800Y-170160300D02*
X170080800Y-170160300D01*
X170080800Y-170160300D02*
X177374300Y-162866800D01*
X177374300Y-162866800D02*
X192329800Y-162866800D01*
X192329800Y-162866800D02*
X192620800Y-162575800D01*
X192620800Y-162575800D02*
X202085700Y-162575800D01*
X202085700Y-162575800D02*
X214437800Y-150223700D01*
X214437800Y-150223700D02*
X214437800Y-144179000D01*
X214437800Y-144179000D02*
X220331500Y-138285300D01*
X220331500Y-138285300D02*
X220980000Y-138285300D01*
X63500000Y-112885300D02*
X63781300Y-112885300D01*
X63781300Y-112885300D02*
X66463400Y-115567400D01*
X66463400Y-115567400D02*
X66463400Y-119697600D01*
X66463400Y-119697600D02*
X66643100Y-119877300D01*
X66643100Y-119877300D02*
X66643100Y-156011600D01*
X66643100Y-156011600D02*
X63904700Y-158750000D01*
X63904700Y-158750000D02*
X63139600Y-158750000D01*
X63139600Y-158750000D02*
X62374600Y-159515000D01*
X62374600Y-159515000D02*
X62374600Y-163032100D01*
X62374600Y-163032100D02*
X63172500Y-163830000D01*
X63172500Y-163830000D02*
X63821800Y-163830000D01*
X63821800Y-163830000D02*
X64625300Y-164633500D01*
X64625300Y-164633500D02*
X64625300Y-165670800D01*
X64625300Y-165670800D02*
X63781400Y-166514700D01*
X63781400Y-166514700D02*
X63500000Y-166514700D01*
X220980000Y-137160000D02*
X220980000Y-138285300D01*
X63500000Y-167640000D02*
X63500000Y-166514700D01*
X63500000Y-111760000D02*
X63500000Y-112885300D01*
%TO.N,ALU3*%
X66803500Y-62825000D02*
X66803500Y-69434300D01*
X66803500Y-69434300D02*
X63847800Y-72390000D01*
X63847800Y-72390000D02*
X63167300Y-72390000D01*
X63167300Y-72390000D02*
X59385400Y-76171900D01*
X59385400Y-76171900D02*
X59385400Y-103037100D01*
X59385400Y-103037100D02*
X58688100Y-103734400D01*
X106680000Y-41765300D02*
X108990700Y-44076000D01*
X108990700Y-44076000D02*
X108990700Y-67789100D01*
X106680000Y-40640000D02*
X106680000Y-41765300D01*
%TO.N,ALU2*%
X116465100Y-56645600D02*
X116465100Y-59918800D01*
X116465100Y-59918800D02*
X119252100Y-62705800D01*
X119252100Y-62705800D02*
X119252100Y-65068100D01*
X119252100Y-65068100D02*
X121638700Y-67454700D01*
X121638700Y-67454700D02*
X121920000Y-67454700D01*
X112527200Y-53690900D02*
X112527200Y-45072500D01*
X112527200Y-45072500D02*
X109220000Y-41765300D01*
X79860600Y-112878400D02*
X82161100Y-110577900D01*
X82161100Y-110577900D02*
X84066200Y-110577900D01*
X84066200Y-110577900D02*
X85090000Y-109554100D01*
X85090000Y-109554100D02*
X85090000Y-93417300D01*
X85090000Y-93417300D02*
X106117300Y-72390000D01*
X106117300Y-72390000D02*
X107070300Y-72390000D01*
X107070300Y-72390000D02*
X110512500Y-68947800D01*
X110512500Y-68947800D02*
X110512500Y-55705600D01*
X110512500Y-55705600D02*
X112527200Y-53690900D01*
X112527200Y-53690900D02*
X113510400Y-53690900D01*
X113510400Y-53690900D02*
X116465100Y-56645600D01*
X109220000Y-40640000D02*
X109220000Y-41765300D01*
X167640000Y-73660000D02*
X167640000Y-72534700D01*
X149413700Y-57130300D02*
X160389600Y-57130300D01*
X160389600Y-57130300D02*
X166514700Y-63255400D01*
X166514700Y-63255400D02*
X166514700Y-71690800D01*
X166514700Y-71690800D02*
X167358600Y-72534700D01*
X167358600Y-72534700D02*
X167640000Y-72534700D01*
X121920000Y-68580000D02*
X121920000Y-67454700D01*
%TO.N,ALU1*%
X116840000Y-41765300D02*
X117090400Y-42015700D01*
X117090400Y-42015700D02*
X117090400Y-56904700D01*
X117090400Y-56904700D02*
X116980100Y-57015000D01*
X116980100Y-57015000D02*
X116980100Y-59796900D01*
X116980100Y-59796900D02*
X119702400Y-62519200D01*
X119702400Y-62519200D02*
X119702400Y-63091700D01*
X119702400Y-63091700D02*
X121525400Y-64914700D01*
X121525400Y-64914700D02*
X121920000Y-64914700D01*
X121920000Y-66040000D02*
X121920000Y-64914700D01*
X116840000Y-40640000D02*
X116840000Y-41765300D01*
%TO.N,ALU0*%
X121920000Y-62374700D02*
X121700000Y-62374700D01*
X121700000Y-62374700D02*
X119872000Y-60546700D01*
X119872000Y-60546700D02*
X119872000Y-42257300D01*
X119872000Y-42257300D02*
X119380000Y-41765300D01*
X104202500Y-75800500D02*
X104202500Y-76344500D01*
X104202500Y-76344500D02*
X101918000Y-78629000D01*
X101918000Y-78629000D02*
X101918000Y-95962300D01*
X101918000Y-95962300D02*
X84488100Y-113392200D01*
X84488100Y-113392200D02*
X81570700Y-113392200D01*
X81570700Y-113392200D02*
X81570700Y-113392300D01*
X81570700Y-113392300D02*
X80660300Y-114302700D01*
X119380000Y-40640000D02*
X119380000Y-41765300D01*
X121920000Y-63500000D02*
X121920000Y-62374700D01*
%TO.N,Y0*%
X167640000Y-60960000D02*
X166514600Y-59834600D01*
X166514600Y-59834600D02*
X166514600Y-57477200D01*
X166514600Y-57477200D02*
X166710300Y-57281500D01*
X166710300Y-57281500D02*
X168927400Y-57281500D01*
X168927400Y-57281500D02*
X173537000Y-61891100D01*
X173537000Y-61891100D02*
X173537000Y-68479500D01*
X173537000Y-68479500D02*
X174833600Y-69776100D01*
X174833600Y-69776100D02*
X176569600Y-69776100D01*
X176569600Y-69776100D02*
X179732000Y-66613700D01*
%TO.N,Y1*%
X144780000Y-63500000D02*
X145905300Y-63500000D01*
X161403900Y-66128400D02*
X161403900Y-65782600D01*
X161403900Y-65782600D02*
X160391300Y-64770000D01*
X160391300Y-64770000D02*
X156999500Y-64770000D01*
X156999500Y-64770000D02*
X154592200Y-62362700D01*
X154592200Y-62362700D02*
X151447500Y-62362700D01*
X151447500Y-62362700D02*
X149252100Y-64558100D01*
X149252100Y-64558100D02*
X146963400Y-64558100D01*
X146963400Y-64558100D02*
X145905300Y-63500000D01*
%TO.N,Y5*%
X175260000Y-67454700D02*
X174978600Y-67454700D01*
X174978600Y-67454700D02*
X174134700Y-66610800D01*
X174134700Y-66610800D02*
X174134700Y-61822600D01*
X174134700Y-61822600D02*
X168817100Y-56505000D01*
X168817100Y-56505000D02*
X142740300Y-56505000D01*
X142740300Y-56505000D02*
X138285300Y-60960000D01*
X175260000Y-68580000D02*
X175260000Y-67454700D01*
X175822700Y-68580000D02*
X175260000Y-68580000D01*
X137160000Y-60960000D02*
X138285300Y-60960000D01*
X187960000Y-66040000D02*
X186834700Y-66040000D01*
X186834700Y-66040000D02*
X186772000Y-65977300D01*
X186772000Y-65977300D02*
X178988000Y-65977300D01*
X178988000Y-65977300D02*
X176385300Y-68580000D01*
X175822700Y-68580000D02*
X176385300Y-68580000D01*
%TO.N,/RAM/A14*%
X137160000Y-104140000D02*
X137160000Y-90700200D01*
X137160000Y-90700200D02*
X138285400Y-89574800D01*
X138285400Y-89574800D02*
X138285400Y-88700000D01*
X138285400Y-88700000D02*
X139214800Y-87770600D01*
X139214800Y-87770600D02*
X140199600Y-87770600D01*
X140199600Y-87770600D02*
X140896100Y-88467100D01*
X140896100Y-88467100D02*
X140896100Y-89188400D01*
X140896100Y-89188400D02*
X141758300Y-90050600D01*
X141758300Y-90050600D02*
X142719500Y-90050600D01*
X142719500Y-90050600D02*
X143420800Y-89349300D01*
X143420800Y-89349300D02*
X143420800Y-87418500D01*
X143420800Y-87418500D02*
X136034700Y-80032400D01*
X136034700Y-80032400D02*
X136034700Y-74785300D01*
X136034700Y-74785300D02*
X137160000Y-73660000D01*
%TO.N,/RAM/A12*%
X160020000Y-68580000D02*
X160020000Y-69705300D01*
X139700000Y-104140000D02*
X139700000Y-103014700D01*
X139700000Y-103014700D02*
X139981300Y-103014700D01*
X139981300Y-103014700D02*
X153670000Y-89326000D01*
X153670000Y-89326000D02*
X153670000Y-83038400D01*
X153670000Y-83038400D02*
X158894700Y-77813700D01*
X158894700Y-77813700D02*
X158894700Y-70549200D01*
X158894700Y-70549200D02*
X159738600Y-69705300D01*
X159738600Y-69705300D02*
X160020000Y-69705300D01*
%TO.N,/RAM/A4*%
X106680000Y-88900000D02*
X106680000Y-90025300D01*
X106680000Y-90025300D02*
X106398600Y-90025300D01*
X106398600Y-90025300D02*
X105554700Y-90869200D01*
X105554700Y-90869200D02*
X105554700Y-91912300D01*
X105554700Y-91912300D02*
X106352400Y-92710000D01*
X106352400Y-92710000D02*
X107079000Y-92710000D01*
X107079000Y-92710000D02*
X107805400Y-93436400D01*
X107805400Y-93436400D02*
X107805400Y-94183900D01*
X107805400Y-94183900D02*
X120058200Y-106436700D01*
%TO.N,/RAM/A10*%
X160020000Y-77325300D02*
X154894800Y-82450500D01*
X154894800Y-82450500D02*
X154894800Y-87729500D01*
X154894800Y-87729500D02*
X154940000Y-87774700D01*
X160020000Y-76200000D02*
X160020000Y-77325300D01*
X154940000Y-88900000D02*
X154940000Y-87774700D01*
%TO.N,/RAM/A11*%
X149860000Y-88900000D02*
X149860000Y-87774700D01*
X149860000Y-87774700D02*
X148734700Y-87774700D01*
X148734700Y-87774700D02*
X144780000Y-83820000D01*
X144780000Y-83820000D02*
X144780000Y-76200000D01*
%TO.N,/RAM/A9*%
X144780000Y-68580000D02*
X144780000Y-69705300D01*
X147320000Y-88900000D02*
X147320000Y-87774700D01*
X147320000Y-87774700D02*
X143654700Y-84109400D01*
X143654700Y-84109400D02*
X143654700Y-70549200D01*
X143654700Y-70549200D02*
X144498600Y-69705300D01*
X144498600Y-69705300D02*
X144780000Y-69705300D01*
%TO.N,/RAM/A8*%
X152400000Y-66040000D02*
X152400000Y-67165300D01*
X144780000Y-88900000D02*
X145905300Y-88900000D01*
X145905300Y-88900000D02*
X145905300Y-89181300D01*
X145905300Y-89181300D02*
X146750500Y-90026500D01*
X146750500Y-90026500D02*
X150389000Y-90026500D01*
X150389000Y-90026500D02*
X151056100Y-89359400D01*
X151056100Y-89359400D02*
X151056100Y-84751900D01*
X151056100Y-84751900D02*
X153525300Y-82282700D01*
X153525300Y-82282700D02*
X153525300Y-68009200D01*
X153525300Y-68009200D02*
X152681400Y-67165300D01*
X152681400Y-67165300D02*
X152400000Y-67165300D01*
%TO.N,/RAM/A13*%
X137160000Y-66040000D02*
X137160000Y-67165300D01*
X142240000Y-88900000D02*
X142240000Y-87774700D01*
X142240000Y-87774700D02*
X135584400Y-81119100D01*
X135584400Y-81119100D02*
X135584400Y-73604100D01*
X135584400Y-73604100D02*
X136798500Y-72390000D01*
X136798500Y-72390000D02*
X137542000Y-72390000D01*
X137542000Y-72390000D02*
X138285300Y-71646700D01*
X138285300Y-71646700D02*
X138285300Y-68009200D01*
X138285300Y-68009200D02*
X137441400Y-67165300D01*
X137441400Y-67165300D02*
X137160000Y-67165300D01*
%TO.N,D0*%
X203200000Y-121920000D02*
X203200000Y-120794700D01*
X205740000Y-106680000D02*
X205740000Y-108731600D01*
X205740000Y-108731600D02*
X202074700Y-112396900D01*
X202074700Y-112396900D02*
X202074700Y-119669400D01*
X202074700Y-119669400D02*
X203200000Y-120794700D01*
%TO.N,D1*%
X121920000Y-87485300D02*
X122201400Y-87485300D01*
X122201400Y-87485300D02*
X123045300Y-88329200D01*
X123045300Y-88329200D02*
X123045300Y-94436800D01*
X123045300Y-94436800D02*
X139115800Y-110507300D01*
X205740000Y-114300000D02*
X205740000Y-115425300D01*
X205740000Y-115425300D02*
X208280000Y-117965300D01*
X208280000Y-117965300D02*
X208280000Y-121920000D01*
X121920000Y-86360000D02*
X121920000Y-87485300D01*
%TO.N,D2*%
X121920000Y-93980000D02*
X121920000Y-95105300D01*
X136707100Y-109015100D02*
X122797300Y-95105300D01*
X122797300Y-95105300D02*
X121920000Y-95105300D01*
X198120000Y-121920000D02*
X198120000Y-120794700D01*
X198120000Y-106680000D02*
X198120000Y-107805300D01*
X198120000Y-107805300D02*
X196994700Y-108930600D01*
X196994700Y-108930600D02*
X196994700Y-119669400D01*
X196994700Y-119669400D02*
X198120000Y-120794700D01*
%TO.N,D3*%
X129540000Y-97645300D02*
X129821400Y-97645300D01*
X129821400Y-97645300D02*
X130665300Y-98489200D01*
X130665300Y-98489200D02*
X130665300Y-101010500D01*
X130665300Y-101010500D02*
X139855600Y-110200800D01*
X139855600Y-110200800D02*
X139855600Y-111164500D01*
X129540000Y-96520000D02*
X129540000Y-97645300D01*
X198120000Y-115425300D02*
X198120000Y-119118600D01*
X198120000Y-119118600D02*
X199245300Y-120243900D01*
X199245300Y-120243900D02*
X199245300Y-124460000D01*
X199245300Y-124460000D02*
X203200000Y-128414700D01*
X203200000Y-129540000D02*
X203200000Y-128414700D01*
X198120000Y-114300000D02*
X198120000Y-115425300D01*
%TO.N,X3*%
X129540000Y-92854700D02*
X129258700Y-92854700D01*
X129258700Y-92854700D02*
X127964300Y-91560300D01*
X127964300Y-91560300D02*
X127964300Y-73539700D01*
X127964300Y-73539700D02*
X129258700Y-72245300D01*
X129258700Y-72245300D02*
X129540000Y-72245300D01*
X129540000Y-93980000D02*
X129540000Y-92854700D01*
X129540000Y-71120000D02*
X129540000Y-72245300D01*
%TO.N,X2*%
X121920000Y-90314700D02*
X121638600Y-90314700D01*
X121638600Y-90314700D02*
X120794700Y-89470800D01*
X120794700Y-89470800D02*
X120794700Y-85876000D01*
X120794700Y-85876000D02*
X121483700Y-85187000D01*
X121483700Y-85187000D02*
X122152000Y-85187000D01*
X122152000Y-85187000D02*
X125941300Y-81397700D01*
X125941300Y-81397700D02*
X125941300Y-73022700D01*
X125941300Y-73022700D02*
X129258700Y-69705300D01*
X129258700Y-69705300D02*
X129540000Y-69705300D01*
X121920000Y-91440000D02*
X121920000Y-90314700D01*
X129540000Y-68580000D02*
X129540000Y-69705300D01*
%TO.N,X1*%
X121920000Y-83820000D02*
X121920000Y-82694700D01*
X129540000Y-66040000D02*
X129540000Y-67165300D01*
X129540000Y-67165300D02*
X129258700Y-67165300D01*
X129258700Y-67165300D02*
X123045300Y-73378700D01*
X123045300Y-73378700D02*
X123045300Y-82272800D01*
X123045300Y-82272800D02*
X122623400Y-82694700D01*
X122623400Y-82694700D02*
X121920000Y-82694700D01*
%TO.N,X0*%
X129540000Y-86360000D02*
X129540000Y-85234700D01*
X129540000Y-63500000D02*
X129540000Y-64625300D01*
X129540000Y-64625300D02*
X129821300Y-64625300D01*
X129821300Y-64625300D02*
X130665400Y-65469400D01*
X130665400Y-65469400D02*
X130665400Y-76714500D01*
X130665400Y-76714500D02*
X128414700Y-78965200D01*
X128414700Y-78965200D02*
X128414700Y-84390800D01*
X128414700Y-84390800D02*
X129258600Y-85234700D01*
X129258600Y-85234700D02*
X129540000Y-85234700D01*
%TO.N,D4*%
X106680000Y-87485300D02*
X106398700Y-87485300D01*
X106398700Y-87485300D02*
X105087500Y-88796500D01*
X105087500Y-88796500D02*
X105087500Y-94047200D01*
X105087500Y-94047200D02*
X106260500Y-95220200D01*
X106260500Y-95220200D02*
X107813600Y-95220200D01*
X107813600Y-95220200D02*
X120937000Y-108343600D01*
X106680000Y-86360000D02*
X106680000Y-87485300D01*
X195580000Y-106680000D02*
X195580000Y-112499800D01*
X195580000Y-112499800D02*
X194310000Y-113769800D01*
X194310000Y-113769800D02*
X194310000Y-114714000D01*
X194310000Y-114714000D02*
X192788400Y-116235600D01*
X192788400Y-116235600D02*
X192042400Y-116235600D01*
X192042400Y-116235600D02*
X191361000Y-116917000D01*
X191361000Y-116917000D02*
X191361000Y-117351100D01*
X191361000Y-117351100D02*
X193040000Y-119030100D01*
X193040000Y-119030100D02*
X193040000Y-121920000D01*
%TO.N,D5*%
X198120000Y-129540000D02*
X198120000Y-128414700D01*
X195580000Y-114300000D02*
X195580000Y-119384700D01*
X195580000Y-119384700D02*
X196994700Y-120799400D01*
X196994700Y-120799400D02*
X196994700Y-127289400D01*
X196994700Y-127289400D02*
X198120000Y-128414700D01*
%TO.N,D6*%
X187960000Y-129540000D02*
X187960000Y-128414700D01*
X187960000Y-106680000D02*
X187960000Y-111764700D01*
X187960000Y-111764700D02*
X189230000Y-113034700D01*
X189230000Y-113034700D02*
X189230000Y-118399500D01*
X189230000Y-118399500D02*
X191659500Y-120829000D01*
X191659500Y-120829000D02*
X191659500Y-124715200D01*
X191659500Y-124715200D02*
X187960000Y-128414700D01*
%TO.N,D7*%
X114300000Y-88900000D02*
X114300000Y-90025300D01*
X127694600Y-113035500D02*
X115425300Y-100766200D01*
X115425300Y-100766200D02*
X115425300Y-90869200D01*
X115425300Y-90869200D02*
X114581400Y-90025300D01*
X114581400Y-90025300D02*
X114300000Y-90025300D01*
X193040000Y-129540000D02*
X193040000Y-128414700D01*
X192044000Y-117118400D02*
X194165300Y-119239700D01*
X194165300Y-119239700D02*
X194165300Y-127289400D01*
X194165300Y-127289400D02*
X193040000Y-128414700D01*
%TO.N,X7*%
X114300000Y-85234700D02*
X114018700Y-85234700D01*
X114018700Y-85234700D02*
X112711700Y-83927700D01*
X112711700Y-83927700D02*
X112711700Y-73552300D01*
X112711700Y-73552300D02*
X114018700Y-72245300D01*
X114018700Y-72245300D02*
X114300000Y-72245300D01*
X114300000Y-86360000D02*
X114300000Y-85234700D01*
X114300000Y-71120000D02*
X114300000Y-72245300D01*
%TO.N,X6*%
X114300000Y-93980000D02*
X114300000Y-92854700D01*
X114300000Y-68580000D02*
X114300000Y-69705300D01*
X114300000Y-69705300D02*
X114018700Y-69705300D01*
X114018700Y-69705300D02*
X112261200Y-71462800D01*
X112261200Y-71462800D02*
X112261200Y-91097200D01*
X112261200Y-91097200D02*
X114018700Y-92854700D01*
X114018700Y-92854700D02*
X114300000Y-92854700D01*
%TO.N,X5*%
X114300000Y-66040000D02*
X114300000Y-67165300D01*
X114300000Y-67165300D02*
X114018700Y-67165300D01*
X114018700Y-67165300D02*
X111524900Y-69659100D01*
X111524900Y-69659100D02*
X111524900Y-86595100D01*
X111524900Y-86595100D02*
X106680000Y-91440000D01*
%TO.N,X4*%
X106680000Y-82694700D02*
X107383300Y-82694700D01*
X107383300Y-82694700D02*
X111061200Y-79016800D01*
X111061200Y-79016800D02*
X111061200Y-67614100D01*
X111061200Y-67614100D02*
X114050000Y-64625300D01*
X114050000Y-64625300D02*
X114300000Y-64625300D01*
X106680000Y-83820000D02*
X106680000Y-82694700D01*
X114300000Y-63500000D02*
X114300000Y-64625300D01*
%TO.N,/PRG/PC3*%
X228600000Y-83820000D02*
X229725300Y-83820000D01*
X236220000Y-71120000D02*
X236220000Y-72245300D01*
X236220000Y-72245300D02*
X235938700Y-72245300D01*
X235938700Y-72245300D02*
X232410000Y-75774000D01*
X232410000Y-75774000D02*
X232410000Y-84141800D01*
X232410000Y-84141800D02*
X231606500Y-84945300D01*
X231606500Y-84945300D02*
X230569200Y-84945300D01*
X230569200Y-84945300D02*
X229725300Y-84101400D01*
X229725300Y-84101400D02*
X229725300Y-83820000D01*
%TO.N,/PRG/PC2*%
X236220000Y-68580000D02*
X236220000Y-69705300D01*
X236220000Y-69705300D02*
X235938700Y-69705300D01*
X235938700Y-69705300D02*
X231140000Y-74504000D01*
X231140000Y-74504000D02*
X231140000Y-83820000D01*
%TO.N,/PRG/PC1*%
X233680000Y-83820000D02*
X233680000Y-82694700D01*
X236220000Y-66040000D02*
X236220000Y-67165300D01*
X236220000Y-67165300D02*
X236501300Y-67165300D01*
X236501300Y-67165300D02*
X237360900Y-68024900D01*
X237360900Y-68024900D02*
X237360900Y-79013800D01*
X237360900Y-79013800D02*
X233680000Y-82694700D01*
%TO.N,/PRG/PC0*%
X236220000Y-83820000D02*
X236220000Y-82694700D01*
X236220000Y-63500000D02*
X236220000Y-64625300D01*
X236220000Y-64625300D02*
X236501300Y-64625300D01*
X236501300Y-64625300D02*
X237817700Y-65941700D01*
X237817700Y-65941700D02*
X237817700Y-81097000D01*
X237817700Y-81097000D02*
X236220000Y-82694700D01*
%TO.N,/PRG/PC7*%
X218440000Y-82694700D02*
X218440000Y-77121000D01*
X218440000Y-77121000D02*
X223315700Y-72245300D01*
X223315700Y-72245300D02*
X223520000Y-72245300D01*
X218440000Y-83820000D02*
X218440000Y-82694700D01*
X223520000Y-71120000D02*
X223520000Y-72245300D01*
%TO.N,/PRG/PC6*%
X220980000Y-83820000D02*
X220980000Y-82694700D01*
X223520000Y-68580000D02*
X223520000Y-69705300D01*
X223520000Y-69705300D02*
X223801300Y-69705300D01*
X223801300Y-69705300D02*
X224675200Y-70579200D01*
X224675200Y-70579200D02*
X224675200Y-78999500D01*
X224675200Y-78999500D02*
X220980000Y-82694700D01*
%TO.N,/PRG/PC5*%
X223520000Y-82694700D02*
X225125600Y-81089100D01*
X225125600Y-81089100D02*
X225125600Y-68489300D01*
X225125600Y-68489300D02*
X223801600Y-67165300D01*
X223801600Y-67165300D02*
X223520000Y-67165300D01*
X223520000Y-83820000D02*
X223520000Y-82694700D01*
X223520000Y-66040000D02*
X223520000Y-67165300D01*
%TO.N,/PRG/PC4*%
X223520000Y-64625300D02*
X223733500Y-64625300D01*
X223733500Y-64625300D02*
X225979100Y-66870900D01*
X225979100Y-66870900D02*
X225979100Y-82613800D01*
X225979100Y-82613800D02*
X226060000Y-82694700D01*
X226060000Y-83820000D02*
X226060000Y-82694700D01*
X223520000Y-63500000D02*
X223520000Y-64625300D01*
%TO.N,ALU4*%
X106680000Y-64625300D02*
X106398700Y-64625300D01*
X106398700Y-64625300D02*
X82418200Y-88605800D01*
X82418200Y-88605800D02*
X82418200Y-109679900D01*
X82418200Y-109679900D02*
X79845000Y-112253100D01*
X79845000Y-112253100D02*
X79601600Y-112253100D01*
X79601600Y-112253100D02*
X76200000Y-115654700D01*
X76200000Y-115654700D02*
X76200000Y-115714700D01*
X76200000Y-116840000D02*
X76200000Y-115714700D01*
X106680000Y-63500000D02*
X106680000Y-64625300D01*
X107620000Y-55072700D02*
X107620000Y-55887800D01*
X107620000Y-55887800D02*
X107805300Y-56073100D01*
X107805300Y-56073100D02*
X107805300Y-61530800D01*
X107805300Y-61530800D02*
X106961400Y-62374700D01*
X106961400Y-62374700D02*
X106680000Y-62374700D01*
X119380000Y-34145300D02*
X120570900Y-35336200D01*
X120570900Y-35336200D02*
X120570900Y-49334500D01*
X119380000Y-33020000D02*
X119380000Y-34145300D01*
X106680000Y-63500000D02*
X106680000Y-62374700D01*
%TO.N,ALU5*%
X120327700Y-62832700D02*
X120327700Y-62507500D01*
X120327700Y-62507500D02*
X119250300Y-61430100D01*
X119250300Y-61430100D02*
X119250300Y-46248000D01*
X119250300Y-46248000D02*
X117965300Y-44963000D01*
X117965300Y-44963000D02*
X117965300Y-33020000D01*
X76365000Y-118302500D02*
X77325400Y-117342100D01*
X77325400Y-117342100D02*
X77325400Y-116623100D01*
X77325400Y-116623100D02*
X82717000Y-111231500D01*
X82717000Y-111231500D02*
X86011900Y-111231500D01*
X86011900Y-111231500D02*
X94475600Y-102767800D01*
X94475600Y-102767800D02*
X94475600Y-84925100D01*
X94475600Y-84925100D02*
X102547600Y-76853100D01*
X116840000Y-33020000D02*
X117965300Y-33020000D01*
X175260000Y-64914700D02*
X175541400Y-64914700D01*
X175541400Y-64914700D02*
X176385300Y-64070800D01*
X176385300Y-64070800D02*
X176385300Y-60448000D01*
X176385300Y-60448000D02*
X175701200Y-59763900D01*
X175701200Y-59763900D02*
X173889100Y-59763900D01*
X173889100Y-59763900D02*
X170179900Y-56054700D01*
X170179900Y-56054700D02*
X148421800Y-56054700D01*
X148421800Y-56054700D02*
X134764600Y-42397500D01*
X134764600Y-42397500D02*
X134764600Y-41725700D01*
X134764600Y-41725700D02*
X124933600Y-31894700D01*
X124933600Y-31894700D02*
X118809200Y-31894700D01*
X118809200Y-31894700D02*
X117965300Y-32738600D01*
X117965300Y-32738600D02*
X117965300Y-33020000D01*
X175260000Y-66040000D02*
X175260000Y-64914700D01*
%TO.N,ALU6*%
X175260000Y-72534700D02*
X175055500Y-72534700D01*
X175055500Y-72534700D02*
X169256700Y-66735900D01*
X169256700Y-66735900D02*
X169256700Y-58524600D01*
X108256700Y-55608100D02*
X108256700Y-66055600D01*
X108256700Y-66055600D02*
X106857600Y-67454700D01*
X106857600Y-67454700D02*
X106680000Y-67454700D01*
X108094700Y-33020000D02*
X108094700Y-32738600D01*
X108094700Y-32738600D02*
X107250800Y-31894700D01*
X107250800Y-31894700D02*
X106181300Y-31894700D01*
X106181300Y-31894700D02*
X105506400Y-32569600D01*
X105506400Y-32569600D02*
X105506400Y-52074600D01*
X105506400Y-52074600D02*
X108256700Y-54824900D01*
X108256700Y-54824900D02*
X108256700Y-55608100D01*
X175260000Y-73660000D02*
X175260000Y-72534700D01*
X76200000Y-109220000D02*
X76200000Y-107548500D01*
X76200000Y-107548500D02*
X79264600Y-104483900D01*
X79264600Y-104483900D02*
X79264600Y-104281300D01*
X106680000Y-68580000D02*
X106680000Y-69705300D01*
X85980600Y-91005400D02*
X85980600Y-90123400D01*
X85980600Y-90123400D02*
X106398700Y-69705300D01*
X106398700Y-69705300D02*
X106680000Y-69705300D01*
X109220000Y-33020000D02*
X108094700Y-33020000D01*
X106680000Y-68580000D02*
X106680000Y-67454700D01*
%TO.N,ALU7*%
X106680000Y-34145300D02*
X107805300Y-35270600D01*
X107805300Y-35270600D02*
X107805300Y-41760600D01*
X107805300Y-41760600D02*
X109618000Y-43573300D01*
X109618000Y-43573300D02*
X109618000Y-68182000D01*
X109618000Y-68182000D02*
X106680000Y-71120000D01*
X83820000Y-108094700D02*
X83820000Y-94050400D01*
X83820000Y-94050400D02*
X106680000Y-71190400D01*
X106680000Y-71190400D02*
X106680000Y-71120000D01*
X106680000Y-33020000D02*
X106680000Y-34145300D01*
X175260000Y-76200000D02*
X174134700Y-76200000D01*
X168948200Y-81729800D02*
X174134700Y-76543300D01*
X174134700Y-76543300D02*
X174134700Y-76200000D01*
X83820000Y-109220000D02*
X83820000Y-108094700D01*
%TO.N,Net-(U17-Pad7)*%
X78740000Y-116840000D02*
X78740000Y-117965300D01*
X71120000Y-165100000D02*
X71120000Y-163974700D01*
X71120000Y-163974700D02*
X71401300Y-163974700D01*
X71401300Y-163974700D02*
X75753200Y-159622800D01*
X75753200Y-159622800D02*
X75753200Y-148050200D01*
X75753200Y-148050200D02*
X75889500Y-147913900D01*
X75889500Y-147913900D02*
X75889500Y-120815800D01*
X75889500Y-120815800D02*
X78740000Y-117965300D01*
%TO.N,Net-(U17-Pad9)*%
X78740000Y-166514700D02*
X78458700Y-166514700D01*
X78458700Y-166514700D02*
X76245600Y-164301600D01*
X76245600Y-164301600D02*
X76245600Y-148194700D01*
X76245600Y-148194700D02*
X76478500Y-147961800D01*
X76478500Y-147961800D02*
X76478500Y-125043300D01*
X76478500Y-125043300D02*
X81280000Y-120241800D01*
X81280000Y-120241800D02*
X81280000Y-116840000D01*
X78740000Y-167640000D02*
X78740000Y-166514700D01*
%TO.N,Net-(U18-Pad9)*%
X73660000Y-117965300D02*
X74800700Y-119106000D01*
X74800700Y-119106000D02*
X74800700Y-142240000D01*
X73660000Y-116840000D02*
X73660000Y-117965300D01*
%TO.N,~OE*%
X170885800Y-106453900D02*
X170885800Y-110718300D01*
X170885800Y-110718300D02*
X186552100Y-126384600D01*
%TO.N,IR1*%
X220980000Y-129540000D02*
X220980000Y-128414700D01*
X236220000Y-106680000D02*
X236220000Y-112499800D01*
X236220000Y-112499800D02*
X234950000Y-113769800D01*
X234950000Y-113769800D02*
X234950000Y-114701100D01*
X234950000Y-114701100D02*
X229652200Y-119998900D01*
X229652200Y-119998900D02*
X221300300Y-119998900D01*
X221300300Y-119998900D02*
X219798800Y-121500400D01*
X219798800Y-121500400D02*
X219798800Y-122330400D01*
X219798800Y-122330400D02*
X220513600Y-123045200D01*
X220513600Y-123045200D02*
X220513600Y-127948300D01*
X220513600Y-127948300D02*
X220980000Y-128414700D01*
%TO.N,~DE*%
X187960000Y-121920000D02*
X187960000Y-123045300D01*
X185420000Y-128414700D02*
X187960000Y-125874700D01*
X187960000Y-125874700D02*
X187960000Y-123045300D01*
X185420000Y-129540000D02*
X185420000Y-128414700D01*
%TO.N,~IE*%
X231140000Y-129540000D02*
X231140000Y-128414700D01*
X238760000Y-41910000D02*
X238760000Y-43035300D01*
X238760000Y-43035300D02*
X239885400Y-44160700D01*
X239885400Y-44160700D02*
X239885400Y-119669300D01*
X239885400Y-119669300D02*
X231140000Y-128414700D01*
%TO.N,L*%
X124460000Y-167640000D02*
X123334700Y-167640000D01*
X106680000Y-142240000D02*
X108453700Y-142240000D01*
X108453700Y-142240000D02*
X113074600Y-146860900D01*
X113074600Y-146860900D02*
X113074600Y-155695700D01*
X113074600Y-155695700D02*
X115222800Y-157843900D01*
X115222800Y-157843900D02*
X115222800Y-168093600D01*
X115222800Y-168093600D02*
X116388900Y-169259700D01*
X116388900Y-169259700D02*
X121891900Y-169259700D01*
X121891900Y-169259700D02*
X123334700Y-167816900D01*
X123334700Y-167816900D02*
X123334700Y-167640000D01*
X185420000Y-167640000D02*
X186545300Y-167640000D01*
X220980000Y-144780000D02*
X220980000Y-144982500D01*
X220980000Y-144982500D02*
X197197200Y-168765300D01*
X197197200Y-168765300D02*
X187389200Y-168765300D01*
X187389200Y-168765300D02*
X186545300Y-167921400D01*
X186545300Y-167921400D02*
X186545300Y-167640000D01*
X215900000Y-129540000D02*
X215900000Y-128414700D01*
X215900000Y-128414700D02*
X214774700Y-127289400D01*
X214774700Y-127289400D02*
X214774700Y-121429600D01*
X214774700Y-121429600D02*
X217563400Y-118640900D01*
X217563400Y-118640900D02*
X218234700Y-118640900D01*
X218234700Y-118640900D02*
X222124600Y-114751000D01*
X222124600Y-114751000D02*
X222124600Y-105654600D01*
X222124600Y-105654600D02*
X219885700Y-103415700D01*
X219885700Y-103415700D02*
X219885700Y-100008100D01*
X78740000Y-127000000D02*
X79865300Y-127000000D01*
X97934700Y-139700000D02*
X85196000Y-126961300D01*
X85196000Y-126961300D02*
X79904000Y-126961300D01*
X79904000Y-126961300D02*
X79865300Y-127000000D01*
X157480000Y-87774700D02*
X157596600Y-87658100D01*
X157596600Y-87658100D02*
X157596600Y-87108600D01*
X157480000Y-88900000D02*
X157480000Y-87774700D01*
X99060000Y-139700000D02*
X97934700Y-139700000D01*
X74248300Y-152400000D02*
X74248300Y-156009900D01*
X74248300Y-156009900D02*
X74248200Y-156009900D01*
X74248200Y-156009900D02*
X71363500Y-158894600D01*
X71363500Y-158894600D02*
X71363500Y-158894700D01*
X71363500Y-158894700D02*
X71120000Y-158894700D01*
X137160000Y-58420000D02*
X137160000Y-59545300D01*
X129540000Y-83820000D02*
X129540000Y-82694700D01*
X129540000Y-82694700D02*
X129821300Y-82694700D01*
X129821300Y-82694700D02*
X135116000Y-77400000D01*
X135116000Y-77400000D02*
X135116000Y-61308000D01*
X135116000Y-61308000D02*
X136878700Y-59545300D01*
X136878700Y-59545300D02*
X137160000Y-59545300D01*
X48260000Y-99060000D02*
X48260000Y-97934700D01*
X48260000Y-93980000D02*
X47134700Y-95105300D01*
X47134700Y-95105300D02*
X47134700Y-97090800D01*
X47134700Y-97090800D02*
X47978600Y-97934700D01*
X47978600Y-97934700D02*
X48260000Y-97934700D01*
X48260000Y-73660000D02*
X47134700Y-73660000D01*
X47134700Y-73660000D02*
X40640000Y-80154700D01*
X40640000Y-80154700D02*
X40640000Y-83820000D01*
X71120000Y-68580000D02*
X72245300Y-68580000D01*
X72245300Y-68580000D02*
X72245300Y-68298700D01*
X72245300Y-68298700D02*
X78458700Y-62085300D01*
X78458700Y-62085300D02*
X78740000Y-62085300D01*
X71120000Y-68580000D02*
X71120000Y-71120000D01*
X78740000Y-60960000D02*
X78740000Y-62085300D01*
X71120000Y-138285300D02*
X71401400Y-138285300D01*
X71401400Y-138285300D02*
X72245300Y-139129200D01*
X72245300Y-139129200D02*
X72245300Y-150397000D01*
X72245300Y-150397000D02*
X74248300Y-152400000D01*
X48260000Y-68580000D02*
X48260000Y-67454700D01*
X48260000Y-133494700D02*
X47978700Y-133494700D01*
X47978700Y-133494700D02*
X46669100Y-132185100D01*
X46669100Y-132185100D02*
X46669100Y-117653100D01*
X46669100Y-117653100D02*
X47134600Y-117187600D01*
X47134600Y-117187600D02*
X47134600Y-114635900D01*
X47134600Y-114635900D02*
X49530000Y-112240500D01*
X49530000Y-112240500D02*
X49530000Y-107750500D01*
X49530000Y-107750500D02*
X49811400Y-107469100D01*
X49811400Y-107469100D02*
X49811400Y-101455400D01*
X49811400Y-101455400D02*
X48541300Y-100185300D01*
X48541300Y-100185300D02*
X48260000Y-100185300D01*
X48260000Y-139700000D02*
X48260000Y-138574700D01*
X48260000Y-134057300D02*
X47134700Y-135182600D01*
X47134700Y-135182600D02*
X47134700Y-137730800D01*
X47134700Y-137730800D02*
X47978600Y-138574700D01*
X47978600Y-138574700D02*
X48260000Y-138574700D01*
X48260000Y-134057300D02*
X48260000Y-133494700D01*
X48260000Y-134620000D02*
X48260000Y-134057300D01*
X48260000Y-99060000D02*
X48260000Y-100185300D01*
X40640000Y-58420000D02*
X40640000Y-59545300D01*
X48260000Y-67454700D02*
X47978600Y-67454700D01*
X47978600Y-67454700D02*
X47134700Y-66610800D01*
X47134700Y-66610800D02*
X47134700Y-65758600D01*
X47134700Y-65758600D02*
X40921400Y-59545300D01*
X40921400Y-59545300D02*
X40640000Y-59545300D01*
X48260000Y-160020000D02*
X48260000Y-161145300D01*
X48260000Y-165100000D02*
X48260000Y-163974700D01*
X48260000Y-163974700D02*
X48022900Y-163974700D01*
X48022900Y-163974700D02*
X47134700Y-163086500D01*
X47134700Y-163086500D02*
X47134700Y-161989200D01*
X47134700Y-161989200D02*
X47978600Y-161145300D01*
X47978600Y-161145300D02*
X48260000Y-161145300D01*
X71120000Y-93980000D02*
X71120000Y-96520000D01*
X71120000Y-137160000D02*
X71120000Y-138285300D01*
X71120000Y-134620000D02*
X71120000Y-137160000D01*
X71120000Y-160020000D02*
X71120000Y-158894700D01*
X71120000Y-160020000D02*
X71120000Y-162560000D01*
%TO.N,H*%
X107641700Y-153526800D02*
X111229600Y-157114700D01*
X111229600Y-157114700D02*
X111229600Y-160456200D01*
X111229600Y-160456200D02*
X114613500Y-163840100D01*
X114613500Y-163840100D02*
X114613500Y-168121200D01*
X114613500Y-168121200D02*
X116202300Y-169710000D01*
X116202300Y-169710000D02*
X126626000Y-169710000D01*
X126626000Y-169710000D02*
X128414700Y-167921300D01*
X128414700Y-167921300D02*
X128414700Y-167640000D01*
X129540000Y-167640000D02*
X128414700Y-167640000D01*
X217025300Y-114300000D02*
X217025300Y-114018700D01*
X217025300Y-114018700D02*
X217877700Y-113166300D01*
X217877700Y-113166300D02*
X218903700Y-113166300D01*
X218903700Y-113166300D02*
X219636100Y-113898700D01*
X219636100Y-113898700D02*
X219636100Y-115564200D01*
X219636100Y-115564200D02*
X214324300Y-120876000D01*
X214324300Y-120876000D02*
X214324300Y-130355100D01*
X214324300Y-130355100D02*
X218440000Y-134470800D01*
X218440000Y-134470800D02*
X218440000Y-137160000D01*
X215900000Y-114300000D02*
X217025300Y-114300000D01*
X151274700Y-68844700D02*
X151274700Y-69150800D01*
X151274700Y-69150800D02*
X152118600Y-69994700D01*
X152118600Y-69994700D02*
X152400000Y-69994700D01*
X152400000Y-64448200D02*
X151274700Y-65573500D01*
X151274700Y-65573500D02*
X151274700Y-68844700D01*
X151274700Y-68844700D02*
X145905300Y-68844700D01*
X145905300Y-68844700D02*
X145905300Y-68009200D01*
X145905300Y-68009200D02*
X145061400Y-67165300D01*
X145061400Y-67165300D02*
X144780000Y-67165300D01*
X144780000Y-72534700D02*
X145061300Y-72534700D01*
X145061300Y-72534700D02*
X145905300Y-71690700D01*
X145905300Y-71690700D02*
X145905300Y-68844700D01*
X144780000Y-66040000D02*
X144780000Y-67165300D01*
X144780000Y-73660000D02*
X144780000Y-72534700D01*
X48260000Y-71120000D02*
X48260000Y-69994700D01*
X48260000Y-66040000D02*
X49385300Y-67165300D01*
X49385300Y-67165300D02*
X49385300Y-69150800D01*
X49385300Y-69150800D02*
X48541400Y-69994700D01*
X48541400Y-69994700D02*
X48260000Y-69994700D01*
X152400000Y-71120000D02*
X152400000Y-69994700D01*
X160020000Y-66040000D02*
X153991800Y-66040000D01*
X153991800Y-66040000D02*
X152400000Y-64448200D01*
X190500000Y-83820000D02*
X190500000Y-84945300D01*
X48260000Y-91440000D02*
X48260000Y-90314700D01*
X48260000Y-91440000D02*
X48260000Y-92565300D01*
X48260000Y-71120000D02*
X48260000Y-72245300D01*
X48260000Y-72245300D02*
X48541300Y-72245300D01*
X48541300Y-72245300D02*
X49412200Y-73116200D01*
X49412200Y-73116200D02*
X49412200Y-77218400D01*
X49412200Y-77218400D02*
X47134700Y-79495900D01*
X47134700Y-79495900D02*
X47134700Y-89470800D01*
X47134700Y-89470800D02*
X47978600Y-90314700D01*
X47978600Y-90314700D02*
X48260000Y-90314700D01*
X49390900Y-95394700D02*
X48260000Y-95394700D01*
X48260000Y-130954700D02*
X47978600Y-130954700D01*
X47978600Y-130954700D02*
X47134700Y-130110800D01*
X47134700Y-130110800D02*
X47134700Y-126499400D01*
X47134700Y-126499400D02*
X47904100Y-125730000D01*
X47904100Y-125730000D02*
X48601000Y-125730000D01*
X48601000Y-125730000D02*
X52400100Y-121930900D01*
X52400100Y-121930900D02*
X52400100Y-98403900D01*
X52400100Y-98403900D02*
X49390900Y-95394700D01*
X49390900Y-95394700D02*
X49390900Y-93414900D01*
X49390900Y-93414900D02*
X48541300Y-92565300D01*
X48541300Y-92565300D02*
X48260000Y-92565300D01*
X48260000Y-157021800D02*
X49418300Y-158180100D01*
X49418300Y-158180100D02*
X49418300Y-161401700D01*
X49418300Y-161401700D02*
X48260000Y-162560000D01*
X48260000Y-156917300D02*
X48260000Y-156354700D01*
X48260000Y-157480000D02*
X48260000Y-157021800D01*
X48260000Y-156917300D02*
X48260000Y-157021800D01*
X49385300Y-137160000D02*
X49385300Y-142726300D01*
X49385300Y-142726300D02*
X47134700Y-144976900D01*
X47134700Y-144976900D02*
X47134700Y-155510800D01*
X47134700Y-155510800D02*
X47978600Y-156354700D01*
X47978600Y-156354700D02*
X48260000Y-156354700D01*
X48260000Y-132080000D02*
X49385300Y-133205300D01*
X49385300Y-133205300D02*
X49385300Y-137160000D01*
X48260000Y-132080000D02*
X48260000Y-130954700D01*
X48260000Y-96520000D02*
X48260000Y-95394700D01*
X48260000Y-137160000D02*
X49385300Y-137160000D01*
X190500000Y-84945300D02*
X186545300Y-88900000D01*
X186545300Y-88900000D02*
X186545300Y-112049400D01*
X186545300Y-112049400D02*
X185420000Y-113174700D01*
X71120000Y-157480000D02*
X71120000Y-154940000D01*
X190500000Y-83820000D02*
X190500000Y-79226800D01*
X160020000Y-66040000D02*
X160020000Y-67165300D01*
X160020000Y-73660000D02*
X160020000Y-72534700D01*
X160020000Y-72534700D02*
X160301300Y-72534700D01*
X160301300Y-72534700D02*
X161145300Y-71690700D01*
X161145300Y-71690700D02*
X161145300Y-68009200D01*
X161145300Y-68009200D02*
X160301400Y-67165300D01*
X160301400Y-67165300D02*
X160020000Y-67165300D01*
X152400000Y-63500000D02*
X152400000Y-64448200D01*
X137160000Y-63500000D02*
X137160000Y-64625300D01*
X137160000Y-71120000D02*
X137160000Y-69994700D01*
X137160000Y-69994700D02*
X136878700Y-69994700D01*
X136878700Y-69994700D02*
X136034700Y-69150700D01*
X136034700Y-69150700D02*
X136034700Y-65469200D01*
X136034700Y-65469200D02*
X136878600Y-64625300D01*
X136878600Y-64625300D02*
X137160000Y-64625300D01*
X71120000Y-66040000D02*
X71120000Y-63500000D01*
X185420000Y-114300000D02*
X185420000Y-113174700D01*
X71120000Y-88900000D02*
X71120000Y-91440000D01*
X71120000Y-129540000D02*
X71120000Y-132080000D01*
X55880000Y-58420000D02*
X55880000Y-47625000D01*
X55880000Y-47625000D02*
X52705000Y-44450000D01*
%TO.N,IR2*%
X228600000Y-144780000D02*
X228600000Y-143654700D01*
X223520000Y-121920000D02*
X223520000Y-123045300D01*
X223520000Y-123045300D02*
X227474700Y-127000000D01*
X227474700Y-127000000D02*
X227474700Y-142529400D01*
X227474700Y-142529400D02*
X228600000Y-143654700D01*
%TO.N,IR3*%
X220980000Y-121920000D02*
X220980000Y-123045300D01*
X220980000Y-123045300D02*
X224934700Y-127000000D01*
X224934700Y-127000000D02*
X224934700Y-144780000D01*
X177800000Y-167640000D02*
X178925300Y-167640000D01*
X226060000Y-144780000D02*
X224934700Y-144780000D01*
X224934700Y-144780000D02*
X224934700Y-145061300D01*
X224934700Y-145061300D02*
X200246800Y-169749200D01*
X200246800Y-169749200D02*
X180753200Y-169749200D01*
X180753200Y-169749200D02*
X178925300Y-167921300D01*
X178925300Y-167921300D02*
X178925300Y-167640000D01*
%TO.N,IR4*%
X218440000Y-121920000D02*
X218440000Y-123045300D01*
X218440000Y-123045300D02*
X219798300Y-124403600D01*
X219798300Y-124403600D02*
X219798300Y-132648800D01*
X219798300Y-132648800D02*
X222394700Y-135245200D01*
X222394700Y-135245200D02*
X222394700Y-144780000D01*
X222394700Y-144780000D02*
X222394700Y-144996400D01*
X222394700Y-144996400D02*
X198122300Y-169268800D01*
X198122300Y-169268800D02*
X182812800Y-169268800D01*
X182812800Y-169268800D02*
X181465300Y-167921300D01*
X181465300Y-167921300D02*
X181465300Y-167640000D01*
X223520000Y-144780000D02*
X222394700Y-144780000D01*
X180340000Y-167640000D02*
X181465300Y-167640000D01*
%TO.N,~PL*%
X166370000Y-121920000D02*
X166370000Y-123145300D01*
X166370000Y-123145300D02*
X168910000Y-125685300D01*
X168910000Y-125685300D02*
X168910000Y-125730000D01*
X186834700Y-73660000D02*
X185098500Y-73660000D01*
X185098500Y-73660000D02*
X179164400Y-79594100D01*
X179164400Y-79594100D02*
X179164400Y-117255900D01*
X179164400Y-117255900D02*
X180922100Y-119013600D01*
X180922100Y-119013600D02*
X181121000Y-119013600D01*
X181121000Y-119013600D02*
X181532700Y-119425300D01*
X181532700Y-119425300D02*
X181532700Y-120105900D01*
X181532700Y-120105900D02*
X181374300Y-120264300D01*
X187960000Y-73660000D02*
X186834700Y-73660000D01*
%TO.N,~PH*%
X158750000Y-120694700D02*
X158259200Y-120203900D01*
X158259200Y-120203900D02*
X158259200Y-107334700D01*
X195580000Y-77325300D02*
X194454700Y-78450600D01*
X194454700Y-78450600D02*
X194454700Y-93305100D01*
X194454700Y-93305100D02*
X189130700Y-98629100D01*
X189130700Y-98629100D02*
X189130700Y-99960100D01*
X189130700Y-99960100D02*
X187174300Y-101916500D01*
X195580000Y-76200000D02*
X195580000Y-77325300D01*
X158750000Y-121920000D02*
X158750000Y-120694700D01*
%TO.N,/PRG/PC11*%
X205740000Y-82694700D02*
X205740000Y-74580900D01*
X205740000Y-74580900D02*
X208075600Y-72245300D01*
X208075600Y-72245300D02*
X208280000Y-72245300D01*
X205740000Y-83820000D02*
X205740000Y-82694700D01*
X208280000Y-71120000D02*
X208280000Y-72245300D01*
%TO.N,/PRG/PC10*%
X208280000Y-69705300D02*
X208561300Y-69705300D01*
X208561300Y-69705300D02*
X209405300Y-70549300D01*
X209405300Y-70549300D02*
X209405300Y-74209600D01*
X209405300Y-74209600D02*
X209326900Y-74288000D01*
X209326900Y-74288000D02*
X209326900Y-74806000D01*
X209326900Y-74806000D02*
X209405300Y-74884400D01*
X209405300Y-74884400D02*
X209405300Y-81569400D01*
X209405300Y-81569400D02*
X208280000Y-82694700D01*
X208280000Y-83820000D02*
X208280000Y-82694700D01*
X208280000Y-68580000D02*
X208280000Y-69705300D01*
%TO.N,/PRG/PC9*%
X208280000Y-67165300D02*
X208480100Y-67165300D01*
X208480100Y-67165300D02*
X210577600Y-69262800D01*
X210577600Y-69262800D02*
X210577600Y-82452300D01*
X210577600Y-82452300D02*
X210820000Y-82694700D01*
X210820000Y-83820000D02*
X210820000Y-82694700D01*
X208280000Y-66040000D02*
X208280000Y-67165300D01*
%TO.N,/PRG/PC8*%
X215900000Y-83820000D02*
X214774700Y-83820000D01*
X208280000Y-63500000D02*
X208280000Y-64625300D01*
X208280000Y-64625300D02*
X208561300Y-64625300D01*
X208561300Y-64625300D02*
X211028000Y-67092000D01*
X211028000Y-67092000D02*
X211028000Y-82177600D01*
X211028000Y-82177600D02*
X212090000Y-83239600D01*
X212090000Y-83239600D02*
X212090000Y-84141800D01*
X212090000Y-84141800D02*
X212893500Y-84945300D01*
X212893500Y-84945300D02*
X213930800Y-84945300D01*
X213930800Y-84945300D02*
X214774700Y-84101400D01*
X214774700Y-84101400D02*
X214774700Y-83820000D01*
%TO.N,Y7*%
X186834700Y-71120000D02*
X186364700Y-71120000D01*
X186364700Y-71120000D02*
X178744700Y-78740000D01*
X178744700Y-78740000D02*
X175260000Y-78740000D01*
X187960000Y-71120000D02*
X186834700Y-71120000D01*
%TO.N,/PRG/PC15*%
X195580000Y-83820000D02*
X195580000Y-82694700D01*
X195580000Y-71120000D02*
X195580000Y-72245300D01*
X195580000Y-72245300D02*
X195861300Y-72245300D01*
X195861300Y-72245300D02*
X196705300Y-73089300D01*
X196705300Y-73089300D02*
X196705300Y-81569400D01*
X196705300Y-81569400D02*
X195580000Y-82694700D01*
%TO.N,/PRG/PC14*%
X195580000Y-69705300D02*
X195784500Y-69705300D01*
X195784500Y-69705300D02*
X198120000Y-72040800D01*
X198120000Y-72040800D02*
X198120000Y-83820000D01*
X195580000Y-68580000D02*
X195580000Y-69705300D01*
%TO.N,/PRG/PC13*%
X200660000Y-83820000D02*
X200660000Y-82694700D01*
X195580000Y-66040000D02*
X195580000Y-67165300D01*
X195580000Y-67165300D02*
X195861300Y-67165300D01*
X195861300Y-67165300D02*
X198570400Y-69874400D01*
X198570400Y-69874400D02*
X198570400Y-80605100D01*
X198570400Y-80605100D02*
X200660000Y-82694700D01*
%TO.N,/PRG/PC12*%
X195580000Y-64625300D02*
X195861300Y-64625300D01*
X195861300Y-64625300D02*
X199534700Y-68298700D01*
X199534700Y-68298700D02*
X199534700Y-79824300D01*
X199534700Y-79824300D02*
X202405100Y-82694700D01*
X202405100Y-82694700D02*
X203200000Y-82694700D01*
X203200000Y-83820000D02*
X203200000Y-82694700D01*
X195580000Y-63500000D02*
X195580000Y-64625300D01*
%TO.N,~WE*%
X139700000Y-90025300D02*
X138574700Y-91150600D01*
X138574700Y-91150600D02*
X138574700Y-106978600D01*
X138574700Y-106978600D02*
X140931200Y-109335100D01*
X140931200Y-109335100D02*
X140931200Y-112171400D01*
X140931200Y-112171400D02*
X138555500Y-114547100D01*
X138555500Y-114547100D02*
X138555500Y-123310800D01*
X138555500Y-123310800D02*
X139362900Y-124118200D01*
X139362900Y-124118200D02*
X139362900Y-128077600D01*
X139362900Y-128077600D02*
X139700000Y-128414700D01*
X139700000Y-129540000D02*
X139700000Y-128414700D01*
X139700000Y-88900000D02*
X139700000Y-90025300D01*
%TO.N,IR6*%
X210548000Y-117642200D02*
X209781400Y-118408800D01*
X209781400Y-118408800D02*
X209781400Y-124709100D01*
X209781400Y-124709100D02*
X207046400Y-127444100D01*
X207046400Y-127444100D02*
X207046400Y-135223000D01*
X207046400Y-135223000D02*
X191770000Y-150499400D01*
X191770000Y-150499400D02*
X191770000Y-160397100D01*
X191770000Y-160397100D02*
X190989000Y-161178100D01*
X190989000Y-161178100D02*
X172011500Y-161178100D01*
X172011500Y-161178100D02*
X165059200Y-168130400D01*
X165059200Y-168130400D02*
X154875000Y-168130400D01*
X154875000Y-168130400D02*
X149309400Y-162564800D01*
X149309400Y-162564800D02*
X124455200Y-162564800D01*
X124455200Y-162564800D02*
X119380000Y-167640000D01*
%TO.N,IR7*%
X147275300Y-163830000D02*
X152026000Y-168580700D01*
X152026000Y-168580700D02*
X165470700Y-168580700D01*
X165470700Y-168580700D02*
X172349000Y-161702400D01*
X172349000Y-161702400D02*
X192220300Y-161702400D01*
X192220300Y-161702400D02*
X192406800Y-161515900D01*
X192406800Y-161515900D02*
X201871800Y-161515900D01*
X201871800Y-161515900D02*
X212972200Y-150415500D01*
X212972200Y-150415500D02*
X212972200Y-141727700D01*
X212972200Y-141727700D02*
X217031600Y-137668300D01*
X217031600Y-137668300D02*
X217031600Y-133924600D01*
X217031600Y-133924600D02*
X213874000Y-130767000D01*
X213874000Y-130767000D02*
X213874000Y-119991300D01*
X213874000Y-119991300D02*
X218440000Y-115425300D01*
X146050000Y-163830000D02*
X147275300Y-163830000D01*
X218440000Y-114300000D02*
X218440000Y-115425300D01*
%TO.N,IR5*%
X117965300Y-167640000D02*
X117965300Y-167852800D01*
X117965300Y-167852800D02*
X118917700Y-168805200D01*
X118917700Y-168805200D02*
X119810400Y-168805200D01*
X119810400Y-168805200D02*
X120650000Y-167965600D01*
X120650000Y-167965600D02*
X120650000Y-167312500D01*
X120650000Y-167312500D02*
X121495400Y-166467100D01*
X121495400Y-166467100D02*
X136194200Y-166467100D01*
X136194200Y-166467100D02*
X138758100Y-169031000D01*
X138758100Y-169031000D02*
X169936400Y-169031000D01*
X169936400Y-169031000D02*
X176550900Y-162416500D01*
X176550900Y-162416500D02*
X192143200Y-162416500D01*
X192143200Y-162416500D02*
X192434200Y-162125500D01*
X192434200Y-162125500D02*
X201899100Y-162125500D01*
X201899100Y-162125500D02*
X213515100Y-150509500D01*
X213515100Y-150509500D02*
X213515100Y-144125000D01*
X213515100Y-144125000D02*
X219567100Y-138073000D01*
X219567100Y-138073000D02*
X219567100Y-134649700D01*
X219567100Y-134649700D02*
X217314700Y-132397300D01*
X217314700Y-132397300D02*
X217314700Y-121405000D01*
X217314700Y-121405000D02*
X219628400Y-119091300D01*
X219628400Y-119091300D02*
X220399800Y-119091300D01*
X220399800Y-119091300D02*
X224790000Y-114701100D01*
X224790000Y-114701100D02*
X224790000Y-113769800D01*
X224790000Y-113769800D02*
X226060000Y-112499800D01*
X226060000Y-112499800D02*
X226060000Y-106680000D01*
X116840000Y-167640000D02*
X117965300Y-167640000D01*
%TO.N,OUT5*%
X153670000Y-41910000D02*
X152544700Y-41910000D01*
X114300000Y-33020000D02*
X115425300Y-33020000D01*
X115425300Y-33020000D02*
X115425300Y-32738700D01*
X115425300Y-32738700D02*
X116728000Y-31436000D01*
X116728000Y-31436000D02*
X126543000Y-31436000D01*
X126543000Y-31436000D02*
X135891700Y-40784700D01*
X135891700Y-40784700D02*
X151419400Y-40784700D01*
X151419400Y-40784700D02*
X152544700Y-41910000D01*
%TO.N,/CU/~J*%
X189085300Y-167640000D02*
X189085300Y-167405300D01*
X189085300Y-167405300D02*
X193464500Y-163026100D01*
X193464500Y-163026100D02*
X202272300Y-163026100D01*
X202272300Y-163026100D02*
X215900000Y-149398400D01*
X215900000Y-149398400D02*
X215900000Y-144780000D01*
X187960000Y-167640000D02*
X189085300Y-167640000D01*
X158750000Y-163830000D02*
X158750000Y-158750000D01*
X158750000Y-149904700D02*
X158750000Y-149805500D01*
X158750000Y-149805500D02*
X157220900Y-148276400D01*
X157220900Y-148276400D02*
X156815400Y-148276400D01*
X156815400Y-148276400D02*
X138285300Y-129746300D01*
X138285300Y-129746300D02*
X138285300Y-124170600D01*
X138285300Y-124170600D02*
X137160000Y-123045300D01*
X158750000Y-151130000D02*
X158750000Y-152355300D01*
X158750000Y-158750000D02*
X158750000Y-152355300D01*
X158750000Y-151130000D02*
X158750000Y-149904700D01*
X137160000Y-121920000D02*
X137160000Y-123045300D01*
%TO.N,Net-(D7-Pad2)*%
X55880000Y-68580000D02*
X55880000Y-67454700D01*
X40640000Y-45720000D02*
X40640000Y-48601600D01*
X40640000Y-48601600D02*
X54754700Y-62716300D01*
X54754700Y-62716300D02*
X54754700Y-66610800D01*
X54754700Y-66610800D02*
X55598600Y-67454700D01*
X55598600Y-67454700D02*
X55880000Y-67454700D01*
%TO.N,Net-(D6-Pad2)*%
X55880000Y-71120000D02*
X55880000Y-69994700D01*
X35560000Y-45720000D02*
X35560000Y-48504600D01*
X35560000Y-48504600D02*
X46745400Y-59690000D01*
X46745400Y-59690000D02*
X48607500Y-59690000D01*
X48607500Y-59690000D02*
X53910400Y-64992900D01*
X53910400Y-64992900D02*
X53910400Y-68306400D01*
X53910400Y-68306400D02*
X55598700Y-69994700D01*
X55598700Y-69994700D02*
X55880000Y-69994700D01*
%TO.N,Net-(D5-Pad2)*%
X30480000Y-45720000D02*
X46990800Y-62230800D01*
X46990800Y-62230800D02*
X46990800Y-63835100D01*
X46990800Y-63835100D02*
X47925700Y-64770000D01*
X47925700Y-64770000D02*
X48635500Y-64770000D01*
X48635500Y-64770000D02*
X50064700Y-66199200D01*
X50064700Y-66199200D02*
X50064700Y-76153500D01*
%TO.N,/CU/INV_C_OUT*%
X158750000Y-129540000D02*
X155871500Y-129540000D01*
X155871500Y-129540000D02*
X148590000Y-122258500D01*
X148590000Y-122258500D02*
X148590000Y-121569800D01*
X148590000Y-121569800D02*
X147797800Y-120777600D01*
X147797800Y-120777600D02*
X144308800Y-120777600D01*
X144308800Y-120777600D02*
X143480200Y-121606200D01*
X143480200Y-121606200D02*
X143480200Y-128040400D01*
%TO.N,EL*%
X175260000Y-146094700D02*
X175260000Y-140596300D01*
X175260000Y-140596300D02*
X158802300Y-124138600D01*
X158802300Y-124138600D02*
X158657900Y-124138600D01*
X158657900Y-124138600D02*
X156949400Y-122430100D01*
X156949400Y-122430100D02*
X156949400Y-105730900D01*
X156949400Y-105730900D02*
X156210000Y-104991500D01*
X156210000Y-104991500D02*
X156210000Y-87289000D01*
X156210000Y-87289000D02*
X155520100Y-86599100D01*
X175260000Y-147320000D02*
X175260000Y-146094700D01*
%TO.N,EH*%
X181610000Y-142219500D02*
X181610000Y-143510000D01*
X160020000Y-62085300D02*
X160301300Y-62085300D01*
X160301300Y-62085300D02*
X162049100Y-63833100D01*
X162049100Y-63833100D02*
X162049100Y-80428300D01*
X162049100Y-80428300D02*
X158892300Y-83585100D01*
X158892300Y-83585100D02*
X158892300Y-119501800D01*
X158892300Y-119501800D02*
X181610000Y-142219500D01*
X181610000Y-142219500D02*
X185444200Y-142219500D01*
X185444200Y-142219500D02*
X186734700Y-143510000D01*
X187960000Y-143510000D02*
X186734700Y-143510000D01*
X160020000Y-60960000D02*
X160020000Y-62085300D01*
X159457400Y-60960000D02*
X160020000Y-60960000D01*
X159457400Y-60960000D02*
X158894700Y-60960000D01*
X208280000Y-142875000D02*
X207154700Y-142875000D01*
X200660000Y-143510000D02*
X201885300Y-143510000D01*
X201885300Y-143510000D02*
X201885300Y-142514400D01*
X201885300Y-142514400D02*
X202115000Y-142284700D01*
X202115000Y-142284700D02*
X206564400Y-142284700D01*
X206564400Y-142284700D02*
X207154700Y-142875000D01*
X144780000Y-60960000D02*
X145905300Y-60960000D01*
X158894700Y-60960000D02*
X157769400Y-59834700D01*
X157769400Y-59834700D02*
X147030600Y-59834700D01*
X147030600Y-59834700D02*
X145905300Y-60960000D01*
%TO.N,/CU/INV_A_IN*%
X203200000Y-147320000D02*
X203200000Y-143510000D01*
X203200000Y-151130000D02*
X203200000Y-147320000D01*
%TO.N,AR3*%
X78740000Y-67165300D02*
X78458700Y-67165300D01*
X78458700Y-67165300D02*
X76202100Y-69421900D01*
X76202100Y-69421900D02*
X76202100Y-88058100D01*
X76202100Y-88058100D02*
X78458700Y-90314700D01*
X78458700Y-90314700D02*
X78740000Y-90314700D01*
X39514700Y-129540000D02*
X38600000Y-130454700D01*
X38600000Y-130454700D02*
X38600000Y-152056100D01*
X38600000Y-152056100D02*
X40358600Y-153814700D01*
X40358600Y-153814700D02*
X40640000Y-153814700D01*
X78740000Y-91440000D02*
X78740000Y-90314700D01*
X78740000Y-66040000D02*
X78740000Y-67165300D01*
X90736700Y-144639300D02*
X90736700Y-144364300D01*
X90736700Y-144364300D02*
X79015000Y-132642600D01*
X79015000Y-132642600D02*
X78740000Y-132642600D01*
X39514700Y-129540000D02*
X36972100Y-126997400D01*
X36972100Y-126997400D02*
X36972100Y-68116300D01*
X36972100Y-68116300D02*
X40640000Y-64448400D01*
X40640000Y-64448400D02*
X40640000Y-64625300D01*
X40640000Y-63500000D02*
X40640000Y-64448400D01*
X40640000Y-88900000D02*
X38609200Y-86869200D01*
X38609200Y-86869200D02*
X38609200Y-71517700D01*
X38609200Y-71517700D02*
X40155400Y-69971500D01*
X40155400Y-69971500D02*
X40874300Y-69971500D01*
X40874300Y-69971500D02*
X41765300Y-69080500D01*
X41765300Y-69080500D02*
X41765300Y-65469200D01*
X41765300Y-65469200D02*
X40921400Y-64625300D01*
X40921400Y-64625300D02*
X40640000Y-64625300D01*
X40640000Y-129540000D02*
X39514700Y-129540000D01*
X40640000Y-154940000D02*
X40640000Y-153814700D01*
X78740000Y-132080000D02*
X78740000Y-132642600D01*
X99060000Y-144780000D02*
X90877400Y-144780000D01*
X90877400Y-144780000D02*
X90736700Y-144639300D01*
X78740000Y-156354700D02*
X79021300Y-156354700D01*
X79021300Y-156354700D02*
X90736700Y-144639300D01*
X78740000Y-157480000D02*
X78740000Y-156354700D01*
%TO.N,AR2*%
X78740000Y-95394700D02*
X78918500Y-95394700D01*
X78918500Y-95394700D02*
X80340100Y-93973100D01*
X80340100Y-93973100D02*
X80340100Y-79344400D01*
X80340100Y-79344400D02*
X79294700Y-78299000D01*
X79294700Y-78299000D02*
X78398800Y-78299000D01*
X78398800Y-78299000D02*
X77135100Y-77035300D01*
X77135100Y-77035300D02*
X77135100Y-73568900D01*
X77135100Y-73568900D02*
X78458700Y-72245300D01*
X78458700Y-72245300D02*
X78740000Y-72245300D01*
X78740000Y-71120000D02*
X78740000Y-72245300D01*
X78740000Y-96520000D02*
X78740000Y-95394700D01*
X40640000Y-132080000D02*
X40640000Y-133205300D01*
X40640000Y-157480000D02*
X40640000Y-156354700D01*
X40640000Y-156354700D02*
X40921400Y-156354700D01*
X40921400Y-156354700D02*
X41765300Y-155510800D01*
X41765300Y-155510800D02*
X41765300Y-148588600D01*
X41765300Y-148588600D02*
X39050400Y-145873700D01*
X39050400Y-145873700D02*
X39050400Y-134513600D01*
X39050400Y-134513600D02*
X40358700Y-133205300D01*
X40358700Y-133205300D02*
X40640000Y-133205300D01*
X40640000Y-92565300D02*
X40358700Y-92565300D01*
X40358700Y-92565300D02*
X38590100Y-94333900D01*
X38590100Y-94333900D02*
X38590100Y-105672000D01*
X38590100Y-105672000D02*
X39288500Y-106370400D01*
X39288500Y-106370400D02*
X39288500Y-120255500D01*
X39288500Y-120255500D02*
X41767200Y-122734200D01*
X41767200Y-122734200D02*
X41767200Y-130108800D01*
X41767200Y-130108800D02*
X40921300Y-130954700D01*
X40921300Y-130954700D02*
X40640000Y-130954700D01*
X40640000Y-91440000D02*
X40640000Y-92565300D01*
X40640000Y-132080000D02*
X40640000Y-130954700D01*
X78740000Y-137160000D02*
X78740000Y-138285300D01*
X78740000Y-162560000D02*
X78740000Y-161434700D01*
X78740000Y-161434700D02*
X78458700Y-161434700D01*
X78458700Y-161434700D02*
X77153800Y-160129800D01*
X77153800Y-160129800D02*
X77153800Y-149801500D01*
X77153800Y-149801500D02*
X79865300Y-147090000D01*
X79865300Y-147090000D02*
X79865300Y-139129200D01*
X79865300Y-139129200D02*
X79021400Y-138285300D01*
X79021400Y-138285300D02*
X78740000Y-138285300D01*
X40640000Y-91440000D02*
X40640000Y-90314700D01*
X40640000Y-90314700D02*
X40358700Y-90314700D01*
X40358700Y-90314700D02*
X38155300Y-88111300D01*
X38155300Y-88111300D02*
X38155300Y-69436400D01*
X38155300Y-69436400D02*
X40426400Y-67165300D01*
X40426400Y-67165300D02*
X40640000Y-67165300D01*
X40640000Y-66040000D02*
X40640000Y-67165300D01*
%TO.N,AR1*%
X78740000Y-93980000D02*
X78740000Y-92854700D01*
X78740000Y-68580000D02*
X78740000Y-69705300D01*
X78740000Y-69705300D02*
X78458700Y-69705300D01*
X78458700Y-69705300D02*
X76684800Y-71479200D01*
X76684800Y-71479200D02*
X76684800Y-77237600D01*
X76684800Y-77237600D02*
X78331800Y-78884600D01*
X78331800Y-78884600D02*
X79243400Y-78884600D01*
X79243400Y-78884600D02*
X79865300Y-79506500D01*
X79865300Y-79506500D02*
X79865300Y-92010800D01*
X79865300Y-92010800D02*
X79021400Y-92854700D01*
X79021400Y-92854700D02*
X78740000Y-92854700D01*
X78740000Y-135745300D02*
X79021300Y-135745300D01*
X79021300Y-135745300D02*
X80336500Y-137060500D01*
X80336500Y-137060500D02*
X80336500Y-152459500D01*
X80336500Y-152459500D02*
X79126000Y-153670000D01*
X79126000Y-153670000D02*
X78384600Y-153670000D01*
X78384600Y-153670000D02*
X77604200Y-154450400D01*
X77604200Y-154450400D02*
X77604200Y-158040200D01*
X77604200Y-158040200D02*
X78458700Y-158894700D01*
X78458700Y-158894700D02*
X78740000Y-158894700D01*
X40640000Y-134620000D02*
X40640000Y-135745300D01*
X40640000Y-93980000D02*
X39040400Y-95579600D01*
X39040400Y-95579600D02*
X39040400Y-105447000D01*
X39040400Y-105447000D02*
X41773200Y-108179800D01*
X41773200Y-108179800D02*
X41773200Y-119394200D01*
X41773200Y-119394200D02*
X41604300Y-119563100D01*
X41604300Y-119563100D02*
X41604300Y-121934300D01*
X41604300Y-121934300D02*
X42234500Y-122564500D01*
X42234500Y-122564500D02*
X42234500Y-133025500D01*
X42234500Y-133025500D02*
X40640000Y-134620000D01*
X40640000Y-135745300D02*
X40358600Y-135745300D01*
X40358600Y-135745300D02*
X39514700Y-136589200D01*
X39514700Y-136589200D02*
X39514700Y-145382900D01*
X39514700Y-145382900D02*
X42215600Y-148083800D01*
X42215600Y-148083800D02*
X42215600Y-157600500D01*
X42215600Y-157600500D02*
X40921400Y-158894700D01*
X40921400Y-158894700D02*
X40640000Y-158894700D01*
X40640000Y-160020000D02*
X40640000Y-158894700D01*
X99060000Y-154940000D02*
X97934700Y-154940000D01*
X97934700Y-154940000D02*
X93980000Y-158894700D01*
X93980000Y-158894700D02*
X78740000Y-158894700D01*
X78740000Y-134620000D02*
X78740000Y-135745300D01*
X78740000Y-160020000D02*
X78740000Y-158894700D01*
%TO.N,AR0*%
X78740000Y-97934700D02*
X78918500Y-97934700D01*
X78918500Y-97934700D02*
X80790400Y-96062800D01*
X80790400Y-96062800D02*
X80790400Y-79157800D01*
X80790400Y-79157800D02*
X79481300Y-77848700D01*
X79481300Y-77848700D02*
X78605600Y-77848700D01*
X78605600Y-77848700D02*
X77614700Y-76857800D01*
X77614700Y-76857800D02*
X77614700Y-75629200D01*
X77614700Y-75629200D02*
X78458600Y-74785300D01*
X78458600Y-74785300D02*
X78740000Y-74785300D01*
X78740000Y-73660000D02*
X78740000Y-74785300D01*
X78740000Y-99060000D02*
X78740000Y-97934700D01*
X40640000Y-161434700D02*
X40921300Y-161434700D01*
X40921300Y-161434700D02*
X42665900Y-159690100D01*
X42665900Y-159690100D02*
X42665900Y-147897100D01*
X42665900Y-147897100D02*
X41652700Y-146883900D01*
X41652700Y-146883900D02*
X41652700Y-144612200D01*
X41652700Y-144612200D02*
X41765300Y-144499600D01*
X41765300Y-144499600D02*
X41765300Y-139129200D01*
X41765300Y-139129200D02*
X40921400Y-138285300D01*
X40921400Y-138285300D02*
X40640000Y-138285300D01*
X78740000Y-140825300D02*
X78458600Y-140825300D01*
X78458600Y-140825300D02*
X77614700Y-141669200D01*
X77614700Y-141669200D02*
X77614700Y-147857800D01*
X77614700Y-147857800D02*
X76696000Y-148776500D01*
X76696000Y-148776500D02*
X76696000Y-162131600D01*
X76696000Y-162131600D02*
X78539100Y-163974700D01*
X78539100Y-163974700D02*
X78740000Y-163974700D01*
X78740000Y-165100000D02*
X78740000Y-163974700D01*
X78740000Y-139700000D02*
X78740000Y-140825300D01*
X40640000Y-162560000D02*
X40640000Y-161434700D01*
X40640000Y-137160000D02*
X40640000Y-138285300D01*
X48260000Y-116840000D02*
X48260000Y-115714700D01*
X48260000Y-115714700D02*
X51949700Y-112025000D01*
X51949700Y-112025000D02*
X51949700Y-103478600D01*
X51949700Y-103478600D02*
X50881300Y-102410200D01*
X40640000Y-95394700D02*
X40921300Y-95394700D01*
X40921300Y-95394700D02*
X41787700Y-94528300D01*
X41787700Y-94528300D02*
X41787700Y-88435300D01*
X41787700Y-88435300D02*
X40982400Y-87630000D01*
X40982400Y-87630000D02*
X40237400Y-87630000D01*
X40237400Y-87630000D02*
X39059600Y-86452200D01*
X39059600Y-86452200D02*
X39059600Y-73544400D01*
X39059600Y-73544400D02*
X40358700Y-72245300D01*
X40358700Y-72245300D02*
X40640000Y-72245300D01*
X40640000Y-71120000D02*
X40640000Y-72245300D01*
X40640000Y-96520000D02*
X40640000Y-95394700D01*
%TO.N,AL*%
X49839900Y-127000000D02*
X48260000Y-127000000D01*
X48260000Y-87485300D02*
X48541300Y-87485300D01*
X48541300Y-87485300D02*
X52891700Y-91835700D01*
X52891700Y-91835700D02*
X52891700Y-123948200D01*
X52891700Y-123948200D02*
X49839900Y-127000000D01*
X49839900Y-127000000D02*
X49839900Y-149976100D01*
X49839900Y-149976100D02*
X48541300Y-151274700D01*
X48541300Y-151274700D02*
X48260000Y-151274700D01*
X48260000Y-152400000D02*
X48260000Y-151274700D01*
X71120000Y-149860000D02*
X71120000Y-150985300D01*
X99060000Y-160020000D02*
X97934700Y-160020000D01*
X97934700Y-160020000D02*
X89181000Y-168773700D01*
X89181000Y-168773700D02*
X75696900Y-168773700D01*
X75696900Y-168773700D02*
X73293200Y-166370000D01*
X73293200Y-166370000D02*
X70796600Y-166370000D01*
X70796600Y-166370000D02*
X69994700Y-165568100D01*
X69994700Y-165568100D02*
X69994700Y-151829200D01*
X69994700Y-151829200D02*
X70838600Y-150985300D01*
X70838600Y-150985300D02*
X71120000Y-150985300D01*
X48260000Y-85234700D02*
X48541300Y-85234700D01*
X48541300Y-85234700D02*
X50717100Y-83058900D01*
X50717100Y-83058900D02*
X50717100Y-64261100D01*
X50717100Y-64261100D02*
X48541300Y-62085300D01*
X48541300Y-62085300D02*
X48260000Y-62085300D01*
X48260000Y-86360000D02*
X48260000Y-85234700D01*
X48260000Y-60960000D02*
X48260000Y-62085300D01*
X48260000Y-86360000D02*
X48260000Y-87485300D01*
X71120000Y-124460000D02*
X71120000Y-125585300D01*
X71120000Y-149860000D02*
X71120000Y-148734700D01*
X71120000Y-148734700D02*
X69517900Y-147132600D01*
X69517900Y-147132600D02*
X69517900Y-126906100D01*
X69517900Y-126906100D02*
X70838700Y-125585300D01*
X70838700Y-125585300D02*
X71120000Y-125585300D01*
%TO.N,CO*%
X163950100Y-132210400D02*
X159484000Y-127744300D01*
X159484000Y-127744300D02*
X159170400Y-127744300D01*
X159170400Y-127744300D02*
X150157700Y-118731600D01*
X150157700Y-118731600D02*
X144939500Y-118731600D01*
%TO.N,IX*%
X106680000Y-73660000D02*
X106680000Y-74785300D01*
X101912300Y-147927300D02*
X104730900Y-145108700D01*
X104730900Y-145108700D02*
X104730900Y-103658800D01*
X104730900Y-103658800D02*
X102368400Y-101296300D01*
X102368400Y-101296300D02*
X102368400Y-78920000D01*
X102368400Y-78920000D02*
X106503100Y-74785300D01*
X106503100Y-74785300D02*
X106680000Y-74785300D01*
%TO.N,~XL*%
X134658100Y-133689800D02*
X128771600Y-127803300D01*
X128771600Y-127803300D02*
X128771600Y-110556300D01*
X128771600Y-110556300D02*
X115983300Y-97768000D01*
X115983300Y-97768000D02*
X115983300Y-83899900D01*
X115983300Y-83899900D02*
X114633400Y-82550000D01*
X114633400Y-82550000D02*
X113912700Y-82550000D01*
X113912700Y-82550000D02*
X113174700Y-81812000D01*
X113174700Y-81812000D02*
X113174700Y-78450600D01*
X113174700Y-78450600D02*
X114300000Y-77325300D01*
X114300000Y-76200000D02*
X114300000Y-77325300D01*
%TO.N,~YL*%
X190500000Y-160020000D02*
X190500000Y-158894700D01*
X167640000Y-58420000D02*
X167640000Y-59545300D01*
X167640000Y-59545300D02*
X167921300Y-59545300D01*
X167921300Y-59545300D02*
X168765400Y-60389400D01*
X168765400Y-60389400D02*
X168765400Y-74139400D01*
X168765400Y-74139400D02*
X167974800Y-74930000D01*
X167974800Y-74930000D02*
X167318500Y-74930000D01*
X167318500Y-74930000D02*
X163936300Y-78312200D01*
X163936300Y-78312200D02*
X163936300Y-97027600D01*
X163936300Y-97027600D02*
X161372700Y-99591200D01*
X161372700Y-99591200D02*
X161372700Y-113002300D01*
X161372700Y-113002300D02*
X189274600Y-140904200D01*
X189274600Y-140904200D02*
X189274600Y-157669300D01*
X189274600Y-157669300D02*
X190500000Y-158894700D01*
%TO.N,~OL*%
X129975100Y-125901900D02*
X129307900Y-125234700D01*
X129307900Y-125234700D02*
X129307900Y-108391200D01*
X129307900Y-108391200D02*
X116849900Y-95933200D01*
X116849900Y-95933200D02*
X116849900Y-62041900D01*
X116849900Y-62041900D02*
X115425400Y-60617400D01*
X115425400Y-60617400D02*
X115425400Y-56895100D01*
X115425400Y-56895100D02*
X112865600Y-54335300D01*
%TO.N,/CU/INV_B_IN*%
X134620000Y-160020000D02*
X134620000Y-134655900D01*
X134620000Y-134655900D02*
X137160000Y-132115900D01*
X137160000Y-132115900D02*
X137160000Y-130665300D01*
X137160000Y-129540000D02*
X137160000Y-130665300D01*
%TO.N,/CU/INV_B_OUT*%
X144780000Y-123045300D02*
X144780000Y-128414700D01*
X144780000Y-129540000D02*
X144780000Y-128414700D01*
X144780000Y-121920000D02*
X144780000Y-123045300D01*
%TO.N,~RST*%
X215900000Y-58420000D02*
X214774700Y-58420000D01*
X200660000Y-58420000D02*
X200660000Y-54966000D01*
X200660000Y-54966000D02*
X202800700Y-52825300D01*
X202800700Y-52825300D02*
X203762800Y-52825300D01*
X203762800Y-52825300D02*
X205900900Y-54963400D01*
X205900900Y-54963400D02*
X205900900Y-57633100D01*
X205900900Y-57633100D02*
X207813100Y-59545300D01*
X207813100Y-59545300D02*
X213649400Y-59545300D01*
X213649400Y-59545300D02*
X214774700Y-58420000D01*
X187960000Y-58420000D02*
X186834700Y-58420000D01*
X182880000Y-57882300D02*
X186297000Y-57882300D01*
X186297000Y-57882300D02*
X186834700Y-58420000D01*
X182880000Y-57882300D02*
X182880000Y-57344700D01*
X182880000Y-58420000D02*
X182880000Y-57882300D01*
X173355000Y-45720000D02*
X173355000Y-48088500D01*
X173355000Y-48088500D02*
X182611200Y-57344700D01*
X182611200Y-57344700D02*
X182880000Y-57344700D01*
%TO.N,Net-(D6-Pad1)*%
X25400000Y-48260000D02*
X26525300Y-48260000D01*
X35560000Y-43180000D02*
X34334700Y-43180000D01*
X34334700Y-43180000D02*
X33109400Y-44405300D01*
X33109400Y-44405300D02*
X29958000Y-44405300D01*
X29958000Y-44405300D02*
X26525300Y-47838000D01*
X26525300Y-47838000D02*
X26525300Y-48260000D01*
%TO.N,Net-(U1-Pad11)*%
X213360000Y-41910000D02*
X213360000Y-49530000D01*
%TO.N,Net-(U24-Pad7)*%
X43180000Y-108094700D02*
X42898600Y-108094700D01*
X42898600Y-108094700D02*
X39514700Y-104710800D01*
X39514700Y-104710800D02*
X39514700Y-98524000D01*
X39514700Y-98524000D02*
X40248700Y-97790000D01*
X40248700Y-97790000D02*
X40984800Y-97790000D01*
X40984800Y-97790000D02*
X42257800Y-96517000D01*
X42257800Y-96517000D02*
X42257800Y-86338500D01*
X42257800Y-86338500D02*
X40967000Y-85047700D01*
X40967000Y-85047700D02*
X39778700Y-85047700D01*
X39778700Y-85047700D02*
X39511000Y-84780000D01*
X39511000Y-84780000D02*
X39511000Y-75632900D01*
X39511000Y-75632900D02*
X40358600Y-74785300D01*
X40358600Y-74785300D02*
X40640000Y-74785300D01*
X43180000Y-109220000D02*
X43180000Y-108094700D01*
X40640000Y-73660000D02*
X40640000Y-74785300D01*
%TO.N,Net-(D8-Pad2)*%
X55880000Y-60960000D02*
X55880000Y-59834700D01*
X45720000Y-45720000D02*
X45720000Y-50378100D01*
X45720000Y-50378100D02*
X55176600Y-59834700D01*
X55176600Y-59834700D02*
X55880000Y-59834700D01*
%TO.N,Net-(U4-Pad15)*%
X223520000Y-60960000D02*
X223286300Y-60960000D01*
X223286300Y-60960000D02*
X217857700Y-66388600D01*
%TO.N,Net-(U7-Pad3)*%
X193040000Y-99060000D02*
X193040000Y-100185300D01*
X190500000Y-114300000D02*
X190500000Y-113174700D01*
X190500000Y-113174700D02*
X189355800Y-112030500D01*
X189355800Y-112030500D02*
X189355800Y-103869500D01*
X189355800Y-103869500D02*
X193040000Y-100185300D01*
%TO.N,Net-(U7-Pad4)*%
X190500000Y-106680000D02*
X191625300Y-106680000D01*
X191625300Y-106680000D02*
X191625300Y-105884800D01*
X191625300Y-105884800D02*
X195580000Y-101930100D01*
X195580000Y-101930100D02*
X195580000Y-99060000D01*
%TO.N,Net-(U7-Pad5)*%
X193040000Y-114300000D02*
X193040000Y-113174700D01*
X193040000Y-113174700D02*
X194165300Y-112049400D01*
X194165300Y-112049400D02*
X194165300Y-104897700D01*
X194165300Y-104897700D02*
X198120000Y-100943000D01*
X198120000Y-100943000D02*
X198120000Y-99060000D01*
%TO.N,Net-(U7-Pad6)*%
X200660000Y-99060000D02*
X199534700Y-99060000D01*
X193040000Y-106680000D02*
X193040000Y-105265300D01*
X193040000Y-105265300D02*
X196850000Y-101455300D01*
X196850000Y-101455300D02*
X196850000Y-98738200D01*
X196850000Y-98738200D02*
X197653500Y-97934700D01*
X197653500Y-97934700D02*
X198690800Y-97934700D01*
X198690800Y-97934700D02*
X199534700Y-98778600D01*
X199534700Y-98778600D02*
X199534700Y-99060000D01*
%TO.N,Net-(U7-Pad7)*%
X203200000Y-99060000D02*
X203200000Y-100185300D01*
X200660000Y-114300000D02*
X200660000Y-113174700D01*
X200660000Y-113174700D02*
X202074700Y-111760000D01*
X202074700Y-111760000D02*
X202074700Y-101310600D01*
X202074700Y-101310600D02*
X203200000Y-100185300D01*
%TO.N,Net-(U7-Pad8)*%
X205740000Y-99060000D02*
X204614700Y-99060000D01*
X200660000Y-106680000D02*
X200660000Y-100860200D01*
X200660000Y-100860200D02*
X201930000Y-99590200D01*
X201930000Y-99590200D02*
X201930000Y-98738200D01*
X201930000Y-98738200D02*
X202733500Y-97934700D01*
X202733500Y-97934700D02*
X203770800Y-97934700D01*
X203770800Y-97934700D02*
X204614700Y-98778600D01*
X204614700Y-98778600D02*
X204614700Y-99060000D01*
%TO.N,Net-(U7-Pad9)*%
X208280000Y-100185300D02*
X206929500Y-101535800D01*
X206929500Y-101535800D02*
X206929500Y-109445200D01*
X206929500Y-109445200D02*
X203200000Y-113174700D01*
X208280000Y-99060000D02*
X208280000Y-100185300D01*
X203200000Y-114300000D02*
X203200000Y-113174700D01*
%TO.N,Net-(U7-Pad10)*%
X210820000Y-99060000D02*
X209694700Y-99060000D01*
X203200000Y-106680000D02*
X203200000Y-103400200D01*
X203200000Y-103400200D02*
X207010000Y-99590200D01*
X207010000Y-99590200D02*
X207010000Y-98738200D01*
X207010000Y-98738200D02*
X207813500Y-97934700D01*
X207813500Y-97934700D02*
X208850800Y-97934700D01*
X208850800Y-97934700D02*
X209694700Y-98778600D01*
X209694700Y-98778600D02*
X209694700Y-99060000D01*
%TO.N,Net-(U7-Pad12)*%
X215900000Y-99060000D02*
X215900000Y-100185300D01*
X220980000Y-114300000D02*
X220980000Y-113174700D01*
X220980000Y-113174700D02*
X217025300Y-109220000D01*
X217025300Y-109220000D02*
X217025300Y-101310600D01*
X217025300Y-101310600D02*
X215900000Y-100185300D01*
%TO.N,Net-(U7-Pad13)*%
X220980000Y-106680000D02*
X220980000Y-105554700D01*
X220980000Y-105554700D02*
X218440000Y-103014700D01*
X218440000Y-103014700D02*
X218440000Y-99060000D01*
%TO.N,Net-(U7-Pad14)*%
X223520000Y-105554700D02*
X220980000Y-103014700D01*
X220980000Y-103014700D02*
X220980000Y-99060000D01*
X223520000Y-106680000D02*
X223520000Y-105554700D01*
%TO.N,Net-(U7-Pad15)*%
X223520000Y-99060000D02*
X223520000Y-100185300D01*
X223520000Y-114300000D02*
X223520000Y-113174700D01*
X223520000Y-113174700D02*
X224645300Y-112049400D01*
X224645300Y-112049400D02*
X224645300Y-101310600D01*
X224645300Y-101310600D02*
X223520000Y-100185300D01*
%TO.N,Net-(U7-Pad16)*%
X226060000Y-99060000D02*
X226060000Y-100185300D01*
X231140000Y-114300000D02*
X231140000Y-113174700D01*
X231140000Y-113174700D02*
X227185300Y-109220000D01*
X227185300Y-109220000D02*
X227185300Y-101310600D01*
X227185300Y-101310600D02*
X226060000Y-100185300D01*
%TO.N,Net-(U7-Pad18)*%
X231140000Y-99060000D02*
X231140000Y-100185300D01*
X233680000Y-106680000D02*
X233680000Y-102725300D01*
X233680000Y-102725300D02*
X231140000Y-100185300D01*
%TO.N,Net-(U7-Pad19)*%
X233680000Y-99060000D02*
X233680000Y-100185300D01*
X233680000Y-114300000D02*
X233680000Y-113174700D01*
X233680000Y-113174700D02*
X234805300Y-112049400D01*
X234805300Y-112049400D02*
X234805300Y-101310600D01*
X234805300Y-101310600D02*
X233680000Y-100185300D01*
%TO.N,Net-(U18-Pad7)*%
X71120000Y-116840000D02*
X71120000Y-117965300D01*
X71120000Y-139700000D02*
X69994700Y-138574700D01*
X69994700Y-138574700D02*
X69994700Y-129067700D01*
X69994700Y-129067700D02*
X70792400Y-128270000D01*
X70792400Y-128270000D02*
X71519000Y-128270000D01*
X71519000Y-128270000D02*
X72245300Y-127543700D01*
X72245300Y-127543700D02*
X72245300Y-119090600D01*
X72245300Y-119090600D02*
X71120000Y-117965300D01*
%TO.N,Net-(U19-Pad7)*%
X71120000Y-100185300D02*
X71401300Y-100185300D01*
X71401300Y-100185300D02*
X72245300Y-101029300D01*
X72245300Y-101029300D02*
X72245300Y-106969400D01*
X72245300Y-106969400D02*
X71120000Y-108094700D01*
X71120000Y-109220000D02*
X71120000Y-108094700D01*
X71120000Y-99060000D02*
X71120000Y-100185300D01*
%TO.N,Net-(U19-Pad9)*%
X78740000Y-102725300D02*
X78740000Y-103200500D01*
X78740000Y-103200500D02*
X73845900Y-108094600D01*
X73845900Y-108094600D02*
X73845900Y-108094700D01*
X73845900Y-108094700D02*
X73660000Y-108094700D01*
X73660000Y-109220000D02*
X73660000Y-108094700D01*
X78740000Y-101600000D02*
X78740000Y-102725300D01*
%TO.N,Net-(U20-Pad7)*%
X78740000Y-109220000D02*
X78740000Y-108094700D01*
X71120000Y-73660000D02*
X71120000Y-74785300D01*
X71120000Y-74785300D02*
X71401300Y-74785300D01*
X71401300Y-74785300D02*
X75074600Y-78458600D01*
X75074600Y-78458600D02*
X75074600Y-97000900D01*
X75074600Y-97000900D02*
X78403700Y-100330000D01*
X78403700Y-100330000D02*
X79146900Y-100330000D01*
X79146900Y-100330000D02*
X79902700Y-101085800D01*
X79902700Y-101085800D02*
X79902700Y-107072700D01*
X79902700Y-107072700D02*
X78880700Y-108094700D01*
X78880700Y-108094700D02*
X78740000Y-108094700D01*
%TO.N,Net-(U20-Pad9)*%
X81280000Y-108094700D02*
X81280000Y-79010500D01*
X81280000Y-79010500D02*
X79594800Y-77325300D01*
X79594800Y-77325300D02*
X78740000Y-77325300D01*
X81280000Y-109220000D02*
X81280000Y-108094700D01*
X78740000Y-76200000D02*
X78740000Y-77325300D01*
%TO.N,Net-(U21-Pad7)*%
X40640000Y-163974700D02*
X40921300Y-163974700D01*
X40921300Y-163974700D02*
X43132000Y-161764000D01*
X43132000Y-161764000D02*
X43132000Y-147726300D01*
X43132000Y-147726300D02*
X42103000Y-146697300D01*
X42103000Y-146697300D02*
X42103000Y-145024100D01*
X42103000Y-145024100D02*
X42684900Y-144442200D01*
X42684900Y-144442200D02*
X42684900Y-122153100D01*
X42684900Y-122153100D02*
X42110900Y-121579100D01*
X42110900Y-121579100D02*
X42110900Y-119918700D01*
X42110900Y-119918700D02*
X43180000Y-118849600D01*
X43180000Y-118849600D02*
X43180000Y-116840000D01*
X40640000Y-165100000D02*
X40640000Y-163974700D01*
%TO.N,Net-(U21-Pad9)*%
X45720000Y-117965300D02*
X45720000Y-164200600D01*
X45720000Y-164200600D02*
X48034100Y-166514700D01*
X48034100Y-166514700D02*
X48260000Y-166514700D01*
X45720000Y-116840000D02*
X45720000Y-117965300D01*
X48260000Y-167640000D02*
X48260000Y-166514700D01*
%TO.N,Net-(U24-Pad9)*%
X45720000Y-109220000D02*
X46845300Y-109220000D01*
X48260000Y-76200000D02*
X48260000Y-77325300D01*
X48260000Y-77325300D02*
X46677600Y-78907700D01*
X46677600Y-78907700D02*
X46677600Y-102531500D01*
X46677600Y-102531500D02*
X49308200Y-105162100D01*
X49308200Y-105162100D02*
X49308200Y-107155900D01*
X49308200Y-107155900D02*
X48369400Y-108094700D01*
X48369400Y-108094700D02*
X47689200Y-108094700D01*
X47689200Y-108094700D02*
X46845300Y-108938600D01*
X46845300Y-108938600D02*
X46845300Y-109220000D01*
%TO.N,Net-(U29-Pad15)*%
X129540000Y-60960000D02*
X129540000Y-62085300D01*
X129540000Y-62085300D02*
X129258600Y-62085300D01*
X129258600Y-62085300D02*
X128414700Y-62929200D01*
X128414700Y-62929200D02*
X128414700Y-63743800D01*
X128414700Y-63743800D02*
X122308500Y-69850000D01*
X122308500Y-69850000D02*
X121573300Y-69850000D01*
X121573300Y-69850000D02*
X119046500Y-72376800D01*
X119046500Y-72376800D02*
X119046500Y-73246900D01*
%TO.N,Net-(D9-Pad1)*%
X171450000Y-154940000D02*
X172675300Y-154940000D01*
X177800000Y-160020000D02*
X176674700Y-160020000D01*
X176674700Y-160020000D02*
X176674700Y-158939400D01*
X176674700Y-158939400D02*
X172675300Y-154940000D01*
%TO.N,Net-(D10-Pad2)*%
X168910000Y-153698900D02*
X168910000Y-154940000D01*
X147320000Y-123045300D02*
X168910000Y-144635300D01*
X168910000Y-144635300D02*
X168910000Y-153698900D01*
X168910000Y-153698900D02*
X172793600Y-153698900D01*
X172793600Y-153698900D02*
X174034700Y-154940000D01*
X175260000Y-154940000D02*
X174034700Y-154940000D01*
X147320000Y-121920000D02*
X147320000Y-123045300D01*
%TO.N,Net-(D10-Pad1)*%
X177800000Y-154940000D02*
X177800000Y-156165300D01*
X180340000Y-160020000D02*
X180340000Y-158705300D01*
X180340000Y-158705300D02*
X177800000Y-156165300D01*
X177800000Y-154940000D02*
X177800000Y-147320000D01*
%TO.N,Net-(D12-Pad1)*%
X184150000Y-154940000D02*
X184150000Y-156165300D01*
X182880000Y-160020000D02*
X182880000Y-157435300D01*
X182880000Y-157435300D02*
X184150000Y-156165300D01*
X184150000Y-154940000D02*
X184150000Y-143510000D01*
%TO.N,Net-(D14-Pad1)*%
X190500000Y-154940000D02*
X190500000Y-153714700D01*
X190500000Y-147320000D02*
X190500000Y-148545300D01*
X190500000Y-148545300D02*
X190500000Y-153714700D01*
X190500000Y-147320000D02*
X190500000Y-143510000D01*
%TO.N,Net-(D17-Pad1)*%
X196850000Y-151130000D02*
X196850000Y-152355300D01*
X193040000Y-160020000D02*
X193040000Y-156165300D01*
X193040000Y-156165300D02*
X196850000Y-152355300D01*
%TO.N,Net-(D17-Pad2)*%
X208280000Y-147955000D02*
X208280000Y-149080300D01*
X200047400Y-151130000D02*
X201272800Y-152355400D01*
X201272800Y-152355400D02*
X204317300Y-152355400D01*
X204317300Y-152355400D02*
X207592400Y-149080300D01*
X207592400Y-149080300D02*
X208280000Y-149080300D01*
X200047400Y-151130000D02*
X199434700Y-151130000D01*
X200660000Y-151130000D02*
X200047400Y-151130000D01*
X194310000Y-151130000D02*
X195535300Y-151130000D01*
X195535300Y-151130000D02*
X195535300Y-150134400D01*
X195535300Y-150134400D02*
X195765000Y-149904700D01*
X195765000Y-149904700D02*
X198209400Y-149904700D01*
X198209400Y-149904700D02*
X199434700Y-151130000D01*
%TO.N,Net-(D21-Pad2)*%
X163830000Y-167005000D02*
X159614700Y-167005000D01*
X159614700Y-167005000D02*
X157435300Y-164825600D01*
X157435300Y-164825600D02*
X157435300Y-163830000D01*
X156210000Y-163830000D02*
X157435300Y-163830000D01*
%TO.N,Net-(D22-Pad1)*%
X114300000Y-151130000D02*
X114300000Y-152355300D01*
X119380000Y-160020000D02*
X119380000Y-157435300D01*
X119380000Y-157435300D02*
X114300000Y-152355300D01*
X114300000Y-151130000D02*
X114300000Y-147320000D01*
%TO.N,Net-(D23-Pad2)*%
X106680000Y-147320000D02*
X111760000Y-147320000D01*
%TO.N,Net-(D24-Pad1)*%
X120650000Y-147320000D02*
X120650000Y-148545300D01*
X121920000Y-160020000D02*
X121920000Y-149815300D01*
X121920000Y-149815300D02*
X120650000Y-148545300D01*
%TO.N,Net-(D25-Pad1)*%
X124460000Y-160020000D02*
X124460000Y-158894700D01*
X124460000Y-158894700D02*
X127000000Y-156354700D01*
X127000000Y-156354700D02*
X127000000Y-154940000D01*
X127000000Y-151130000D02*
X127000000Y-147320000D01*
X127000000Y-154940000D02*
X127000000Y-151130000D01*
%TO.N,Net-(D25-Pad2)*%
X143510000Y-154940000D02*
X144735300Y-154940000D01*
X144735300Y-154940000D02*
X144735300Y-153944400D01*
X144735300Y-153944400D02*
X149778000Y-148901700D01*
X149778000Y-148901700D02*
X156961800Y-148901700D01*
%TO.N,Net-(D28-Pad1)*%
X133350000Y-151130000D02*
X133350000Y-152355300D01*
X133193200Y-154940000D02*
X133193200Y-152512100D01*
X133193200Y-152512100D02*
X133350000Y-152355300D01*
X133350000Y-154940000D02*
X133193200Y-154940000D01*
X133159000Y-154940000D02*
X133193200Y-154940000D01*
X133159000Y-154940000D02*
X132124700Y-154940000D01*
X127000000Y-160020000D02*
X128125300Y-160020000D01*
X128125300Y-160020000D02*
X128125300Y-159738600D01*
X128125300Y-159738600D02*
X132124700Y-155739200D01*
X132124700Y-155739200D02*
X132124700Y-154940000D01*
%TO.N,Net-(D30-Pad1)*%
X139700000Y-151130000D02*
X139700000Y-147320000D01*
X130665300Y-160020000D02*
X130665300Y-160301300D01*
X130665300Y-160301300D02*
X131511800Y-161147800D01*
X131511800Y-161147800D02*
X135109700Y-161147800D01*
X135109700Y-161147800D02*
X139700000Y-156557500D01*
X139700000Y-156557500D02*
X139700000Y-151130000D01*
X129540000Y-160020000D02*
X130665300Y-160020000D01*
%TO.N,Net-(D32-Pad1)*%
X146050000Y-158750000D02*
X146050000Y-154940000D01*
%TO.N,Net-(D32-Pad2)*%
X156210000Y-158750000D02*
X154984700Y-158750000D01*
X143510000Y-158750000D02*
X144735300Y-158750000D01*
X144735300Y-158750000D02*
X144735300Y-159745600D01*
X144735300Y-159745600D02*
X144965000Y-159975300D01*
X144965000Y-159975300D02*
X153759400Y-159975300D01*
X153759400Y-159975300D02*
X154984700Y-158750000D01*
%TO.N,Net-(R9-Pad2)*%
X66040000Y-40640000D02*
X66040000Y-41765300D01*
X63500000Y-60960000D02*
X63500000Y-59834700D01*
X63500000Y-59834700D02*
X63763700Y-59834700D01*
X63763700Y-59834700D02*
X64625300Y-58973100D01*
X64625300Y-58973100D02*
X64625300Y-43180000D01*
X64625300Y-43180000D02*
X66040000Y-41765300D01*
%TO.N,Net-(R9-Pad3)*%
X63500000Y-68580000D02*
X63500000Y-67454700D01*
X68580000Y-41765300D02*
X65075700Y-45269600D01*
X65075700Y-45269600D02*
X65075700Y-66160300D01*
X65075700Y-66160300D02*
X63781300Y-67454700D01*
X63781300Y-67454700D02*
X63500000Y-67454700D01*
X68580000Y-40640000D02*
X68580000Y-41765300D01*
%TO.N,Net-(R9-Pad4)*%
X71120000Y-40640000D02*
X71120000Y-41765300D01*
X63500000Y-71120000D02*
X63500000Y-69994700D01*
X63500000Y-69994700D02*
X63781300Y-69994700D01*
X63781300Y-69994700D02*
X65692800Y-68083200D01*
X65692800Y-68083200D02*
X65692800Y-47192500D01*
X65692800Y-47192500D02*
X71120000Y-41765300D01*
%TO.N,Net-(R9-Pad5)*%
X73660000Y-41765300D02*
X67443100Y-47982200D01*
X67443100Y-47982200D02*
X67443100Y-73875900D01*
X67443100Y-73875900D02*
X63704300Y-77614700D01*
X63704300Y-77614700D02*
X63500000Y-77614700D01*
X63500000Y-78740000D02*
X63500000Y-77614700D01*
X73660000Y-40640000D02*
X73660000Y-41765300D01*
%TO.N,SER_DATA*%
X236220000Y-40784700D02*
X228830000Y-33394700D01*
X228830000Y-33394700D02*
X228830000Y-31750000D01*
X236220000Y-40784700D02*
X237200600Y-40784700D01*
X237200600Y-40784700D02*
X238760000Y-39225300D01*
X236220000Y-41910000D02*
X236220000Y-40784700D01*
X238760000Y-38100000D02*
X238760000Y-39225300D01*
%TO.N,OUT6*%
X63500000Y-81280000D02*
X63500000Y-80154700D01*
X111760000Y-33020000D02*
X110634700Y-33020000D01*
X110634700Y-33020000D02*
X110634700Y-32738700D01*
X110634700Y-32738700D02*
X109332900Y-31436900D01*
X109332900Y-31436900D02*
X101555500Y-31436900D01*
X101555500Y-31436900D02*
X100474600Y-32517800D01*
X100474600Y-32517800D02*
X100474600Y-34518300D01*
X100474600Y-34518300D02*
X72762900Y-62230000D01*
X72762900Y-62230000D02*
X70773100Y-62230000D01*
X70773100Y-62230000D02*
X68471700Y-64531400D01*
X68471700Y-64531400D02*
X68471700Y-75464300D01*
X68471700Y-75464300D02*
X63781300Y-80154700D01*
X63781300Y-80154700D02*
X63500000Y-80154700D01*
%TO.N,SER_LATCH*%
X190385000Y-27155000D02*
X189253900Y-26023900D01*
X189253900Y-26023900D02*
X168286100Y-26023900D01*
X168286100Y-26023900D02*
X162560000Y-31750000D01*
%TO.N,Net-(A15-Pad1)*%
X152400000Y-73660000D02*
X152400000Y-74785300D01*
X147320000Y-84455000D02*
X147320000Y-79584000D01*
X147320000Y-79584000D02*
X152118700Y-74785300D01*
X152118700Y-74785300D02*
X152400000Y-74785300D01*
%TO.N,Net-(C44-Pad1)*%
X81360000Y-33630000D02*
X75670000Y-27940000D01*
X75670000Y-27940000D02*
X74930000Y-27940000D01*
X68580000Y-34290000D02*
X74930000Y-27940000D01*
D31*
%TO.N,GND*%
X65960400Y-92790000D02*
X65960400Y-96440400D01*
X65960400Y-96440400D02*
X71120000Y-101600000D01*
X73740000Y-80010000D02*
X73740000Y-85438900D01*
X73740000Y-85438900D02*
X71548900Y-87630000D01*
X71548900Y-87630000D02*
X70632400Y-87630000D01*
X70632400Y-87630000D02*
X65960400Y-92302000D01*
X65960400Y-92302000D02*
X65960400Y-92790000D01*
X65960400Y-92790000D02*
X63500000Y-92790000D01*
X208280000Y-128339700D02*
X210667500Y-125952200D01*
X210667500Y-125952200D02*
X210667500Y-118513100D01*
X210667500Y-118513100D02*
X212090000Y-117090600D01*
X212090000Y-117090600D02*
X212090000Y-116920000D01*
X121319900Y-76200000D02*
X120227400Y-77292500D01*
X120227400Y-77292500D02*
X120227400Y-84162600D01*
X120227400Y-84162600D02*
X118110000Y-86280000D01*
X121319900Y-76200000D02*
X120719700Y-76200000D01*
X121920000Y-76200000D02*
X121319900Y-76200000D01*
X118110000Y-63420000D02*
X118110000Y-73590300D01*
X118110000Y-73590300D02*
X120719700Y-76200000D01*
X60318100Y-127230000D02*
X63500000Y-130411900D01*
X63500000Y-130411900D02*
X63500000Y-135970000D01*
X213360000Y-100260300D02*
X212810000Y-100810300D01*
X212810000Y-100810300D02*
X212810000Y-113580000D01*
X212810000Y-113580000D02*
X212090000Y-114300000D01*
X219100000Y-31450000D02*
X216755000Y-31450000D01*
X216755000Y-31450000D02*
X209470000Y-38735000D01*
X209470000Y-38735000D02*
X200330000Y-29595000D01*
X200330000Y-29595000D02*
X200330000Y-29065000D01*
X215900000Y-76200000D02*
X215900000Y-77400300D01*
X215900000Y-77400300D02*
X213360000Y-79940300D01*
X213360000Y-79940300D02*
X213360000Y-83820000D01*
X182314600Y-29190400D02*
X182370000Y-29135000D01*
X182314800Y-32340400D02*
X182314600Y-32340200D01*
X182314600Y-32340200D02*
X182314600Y-29190400D01*
X175330000Y-29065000D02*
X182189200Y-29065000D01*
X182189200Y-29065000D02*
X182314600Y-29190400D01*
X182314800Y-32340400D02*
X180380000Y-34275200D01*
X180380000Y-34275200D02*
X180380000Y-43180000D01*
X192675000Y-31115000D02*
X191449600Y-32340400D01*
X191449600Y-32340400D02*
X182314800Y-32340400D01*
X212090000Y-114300000D02*
X212090000Y-116920000D01*
X209480300Y-114300000D02*
X212090000Y-114300000D01*
X208280000Y-114300000D02*
X209480300Y-114300000D01*
X213360000Y-99060000D02*
X213360000Y-100260300D01*
X40640000Y-166439700D02*
X41013000Y-166439700D01*
X41013000Y-166439700D02*
X43675900Y-163776800D01*
X43675900Y-163776800D02*
X43675900Y-146465900D01*
X43675900Y-146465900D02*
X43260000Y-146050000D01*
X52380000Y-35560000D02*
X44760000Y-27940000D01*
X44760000Y-27940000D02*
X41275000Y-27940000D01*
X134620000Y-121920000D02*
X134620000Y-123120300D01*
X134620000Y-123120300D02*
X134609700Y-123120300D01*
X134609700Y-123120300D02*
X130810000Y-126920000D01*
X121920000Y-100260300D02*
X134620000Y-112960300D01*
X134620000Y-112960300D02*
X134620000Y-121920000D01*
X121920000Y-99060000D02*
X121920000Y-97859700D01*
X118110000Y-86280000D02*
X118110000Y-94422800D01*
X118110000Y-94422800D02*
X121546900Y-97859700D01*
X121546900Y-97859700D02*
X121920000Y-97859700D01*
X137160000Y-76200000D02*
X137160000Y-77400300D01*
X142160000Y-84455000D02*
X142160000Y-82400300D01*
X142160000Y-82400300D02*
X137160000Y-77400300D01*
X180380000Y-48260000D02*
X180380000Y-43180000D01*
X43260000Y-120650000D02*
X43260000Y-146050000D01*
X46409600Y-106680000D02*
X44422200Y-108667400D01*
X44422200Y-108667400D02*
X44422200Y-119487800D01*
X44422200Y-119487800D02*
X43260000Y-120650000D01*
X124460000Y-40640000D02*
X124460000Y-41840300D01*
X124460000Y-41840300D02*
X131300400Y-48680700D01*
X131300400Y-48680700D02*
X131300400Y-61370400D01*
X131300400Y-61370400D02*
X133350000Y-63420000D01*
X148590000Y-63420000D02*
X147400000Y-62230000D01*
X147400000Y-62230000D02*
X144303500Y-62230000D01*
X144303500Y-62230000D02*
X139412100Y-67121400D01*
X139412100Y-67121400D02*
X139412100Y-73120600D01*
X139412100Y-73120600D02*
X137533000Y-74999700D01*
X137533000Y-74999700D02*
X137160000Y-74999700D01*
X208280000Y-129540000D02*
X208280000Y-128339700D01*
X248920000Y-49530000D02*
X248920000Y-48329700D01*
X244100000Y-31450000D02*
X247650000Y-35000000D01*
X247650000Y-35000000D02*
X247650000Y-47059700D01*
X247650000Y-47059700D02*
X248920000Y-48329700D01*
X180380000Y-49059900D02*
X179620100Y-49059900D01*
X179620100Y-49059900D02*
X177800000Y-50880000D01*
X182880000Y-53340000D02*
X182880000Y-51559900D01*
X182880000Y-51559900D02*
X180380000Y-49059900D01*
X180380000Y-49059900D02*
X180380000Y-48260000D01*
X121920000Y-99060000D02*
X121920000Y-100260300D01*
X100313200Y-162560000D02*
X100110200Y-162560000D01*
X113030000Y-165020000D02*
X102773200Y-165020000D01*
X102773200Y-165020000D02*
X100313200Y-162560000D01*
X102627400Y-134307600D02*
X100551000Y-136384000D01*
X100551000Y-136384000D02*
X100551000Y-148507100D01*
X100551000Y-148507100D02*
X100313200Y-148744900D01*
X100313200Y-148744900D02*
X100313200Y-162560000D01*
X99585100Y-162560000D02*
X99060000Y-162560000D01*
X99585100Y-162560000D02*
X100110200Y-162560000D01*
X223520000Y-49530000D02*
X223520000Y-48329700D01*
X223520000Y-48329700D02*
X222250000Y-47059700D01*
X222250000Y-47059700D02*
X222250000Y-39330000D01*
X222250000Y-39330000D02*
X223480000Y-38100000D01*
X208280000Y-130140100D02*
X208280000Y-129540000D01*
X208280000Y-130140100D02*
X208280000Y-130740300D01*
X170180000Y-104140000D02*
X170180000Y-102939700D01*
X168840300Y-83445100D02*
X174815400Y-77470000D01*
X174815400Y-77470000D02*
X177880000Y-77470000D01*
X177880000Y-77470000D02*
X181610000Y-73740000D01*
X170180000Y-102939700D02*
X168840300Y-101600000D01*
X168840300Y-101600000D02*
X168840300Y-83445100D01*
X167640000Y-82480300D02*
X168604800Y-83445100D01*
X168604800Y-83445100D02*
X168840300Y-83445100D01*
X167640000Y-81280000D02*
X167640000Y-82480300D01*
X58500000Y-54610000D02*
X58500000Y-45285000D01*
X58500000Y-45285000D02*
X57665000Y-44450000D01*
X40640000Y-167640000D02*
X40640000Y-166439700D01*
X203280000Y-53975000D02*
X203280000Y-72754800D01*
X203280000Y-72754800D02*
X201035100Y-74999700D01*
X201035100Y-74999700D02*
X200660000Y-74999700D01*
X137160000Y-76200000D02*
X137160000Y-74999700D01*
X200660000Y-76200000D02*
X200660000Y-74999700D01*
X73740000Y-54610000D02*
X76200000Y-52150000D01*
X76200000Y-52150000D02*
X76200000Y-41840300D01*
X76200000Y-40640000D02*
X76200000Y-41840300D01*
X41840300Y-101600000D02*
X43260000Y-100180300D01*
X43260000Y-100180300D02*
X43260000Y-80010000D01*
X41840300Y-101600000D02*
X41840300Y-102110700D01*
X41840300Y-102110700D02*
X46409600Y-106680000D01*
X46409600Y-106680000D02*
X48180000Y-106680000D01*
X40640000Y-101600000D02*
X41840300Y-101600000D01*
X102627400Y-134307600D02*
X103585000Y-133350000D01*
X102627400Y-134307600D02*
X86360000Y-118040300D01*
X86360000Y-116840000D02*
X86360000Y-118040300D01*
X170180000Y-104140000D02*
X170180000Y-105340300D01*
X170180000Y-105340300D02*
X170180000Y-111680000D01*
X170180000Y-111680000D02*
X180340000Y-121840000D01*
X106680000Y-99060000D02*
X106680000Y-97859700D01*
X106680000Y-97859700D02*
X106304900Y-97859700D01*
X106304900Y-97859700D02*
X103505000Y-95059800D01*
X103505000Y-95059800D02*
X103505000Y-86280000D01*
X106680000Y-76200000D02*
X106680000Y-77400300D01*
X106680000Y-77400300D02*
X105479700Y-78600600D01*
X105479700Y-78600600D02*
X105479700Y-84305300D01*
X105479700Y-84305300D02*
X103505000Y-86280000D01*
X208280000Y-130740300D02*
X212090000Y-134550300D01*
X212090000Y-134550300D02*
X212090000Y-134700000D01*
%TO.N,VCC*%
X68580000Y-109220000D02*
X68580000Y-110420300D01*
X73660000Y-120650000D02*
X73660000Y-119450300D01*
X73660000Y-119450300D02*
X72390000Y-118180300D01*
X72390000Y-118180300D02*
X72390000Y-114230300D01*
X72390000Y-114230300D02*
X68580000Y-110420300D01*
X214420400Y-137160000D02*
X212090000Y-139490400D01*
X212090000Y-139490400D02*
X212090000Y-139700000D01*
X215900000Y-137160000D02*
X214420400Y-137160000D01*
X212090000Y-121920000D02*
X212090000Y-131736900D01*
X212090000Y-131736900D02*
X214420400Y-134067300D01*
X214420400Y-134067300D02*
X214420400Y-137160000D01*
X215900000Y-107880300D02*
X214699700Y-109080600D01*
X214699700Y-109080600D02*
X214699700Y-116769300D01*
X214699700Y-116769300D02*
X212090000Y-119379000D01*
X212090000Y-119379000D02*
X212090000Y-121920000D01*
X215900000Y-106680000D02*
X215900000Y-107880300D01*
X220980000Y-53975000D02*
X231140000Y-43815000D01*
X231140000Y-43815000D02*
X231140000Y-41910000D01*
X208280000Y-153035000D02*
X208280000Y-151834700D01*
X212090000Y-139700000D02*
X212090000Y-148399800D01*
X212090000Y-148399800D02*
X208655100Y-151834700D01*
X208655100Y-151834700D02*
X208280000Y-151834700D01*
X129540000Y-81280000D02*
X129540000Y-80079700D01*
X133350000Y-58420000D02*
X134590600Y-59660600D01*
X134590600Y-59660600D02*
X134590600Y-75029100D01*
X134590600Y-75029100D02*
X129540000Y-80079700D01*
X185420000Y-100213000D02*
X185420000Y-105479700D01*
X187960000Y-85020300D02*
X185420000Y-87560300D01*
X185420000Y-87560300D02*
X185420000Y-100213000D01*
X114300000Y-59620300D02*
X113942200Y-59620300D01*
X113942200Y-59620300D02*
X113099700Y-60462800D01*
X113099700Y-60462800D02*
X113099700Y-61457200D01*
X113099700Y-61457200D02*
X113802800Y-62160300D01*
X113802800Y-62160300D02*
X114673200Y-62160300D01*
X114673200Y-62160300D02*
X115500400Y-62987500D01*
X115500400Y-62987500D02*
X115500400Y-78879300D01*
X115500400Y-78879300D02*
X114300000Y-80079700D01*
X78740000Y-80010000D02*
X78740000Y-83820000D01*
X185420000Y-106680000D02*
X185420000Y-105479700D01*
X113030000Y-160020000D02*
X113030000Y-156983100D01*
X113030000Y-156983100D02*
X107176900Y-151130000D01*
X107176900Y-151130000D02*
X106215300Y-151130000D01*
X106215300Y-151130000D02*
X105449800Y-150364500D01*
X105449800Y-150364500D02*
X105449800Y-141757400D01*
X105449800Y-141757400D02*
X106306900Y-140900300D01*
X106306900Y-140900300D02*
X106680000Y-140900300D01*
X208280000Y-53975000D02*
X209480400Y-52774600D01*
X209480400Y-52774600D02*
X209480400Y-44310700D01*
X209480400Y-44310700D02*
X208280000Y-43110300D01*
X208280000Y-58420000D02*
X208280000Y-53975000D01*
X208280000Y-41910000D02*
X208280000Y-43110300D01*
X185420000Y-121920000D02*
X185420000Y-120719700D01*
X185420000Y-120719700D02*
X184219700Y-120719700D01*
X184219700Y-120719700D02*
X180340000Y-116840000D01*
X102800300Y-57715300D02*
X103505000Y-58420000D01*
X101600000Y-34220300D02*
X102800300Y-35420600D01*
X102800300Y-35420600D02*
X102800300Y-57715300D01*
X102800300Y-57715300D02*
X80645000Y-57715300D01*
X80645000Y-57715300D02*
X79940300Y-58420000D01*
X78740000Y-58420000D02*
X79940300Y-58420000D01*
X207679900Y-41910000D02*
X207645000Y-41910000D01*
X207645000Y-41910000D02*
X204470000Y-38735000D01*
X208280000Y-41910000D02*
X207679900Y-41910000D01*
X195580000Y-58420000D02*
X195580000Y-53975000D01*
X108585000Y-133350000D02*
X106680000Y-135255000D01*
X106680000Y-135255000D02*
X106680000Y-138499700D01*
X187960000Y-82619700D02*
X187960000Y-79940400D01*
X187960000Y-79940400D02*
X186759600Y-78740000D01*
X195580000Y-59620300D02*
X195204800Y-59620300D01*
X195204800Y-59620300D02*
X194379700Y-60445400D01*
X194379700Y-60445400D02*
X194379700Y-68970200D01*
X194379700Y-68970200D02*
X188419900Y-74930000D01*
X188419900Y-74930000D02*
X187485900Y-74930000D01*
X187485900Y-74930000D02*
X186759600Y-75656300D01*
X186759600Y-75656300D02*
X186759600Y-78740000D01*
X186759600Y-78740000D02*
X181610000Y-78740000D01*
X195580000Y-58420000D02*
X195580000Y-59620300D01*
X187960000Y-83820000D02*
X187960000Y-82619700D01*
X187960000Y-83820000D02*
X187960000Y-85020300D01*
X55880000Y-35560000D02*
X55880000Y-36760300D01*
X56805700Y-43349600D02*
X55705300Y-44450000D01*
X63500000Y-54610000D02*
X63500000Y-46757800D01*
X63500000Y-46757800D02*
X60091800Y-43349600D01*
X60091800Y-43349600D02*
X56805700Y-43349600D01*
X56805700Y-43349600D02*
X56805700Y-37686000D01*
X56805700Y-37686000D02*
X55880000Y-36760300D01*
X54605000Y-44450000D02*
X55705300Y-44450000D01*
X63500000Y-58420000D02*
X63500000Y-54610000D01*
X163830000Y-153670000D02*
X163830000Y-152469700D01*
X163830000Y-152469700D02*
X163454900Y-152469700D01*
X163454900Y-152469700D02*
X149860000Y-138874800D01*
X149860000Y-138874800D02*
X149860000Y-129540000D01*
X163830000Y-153670000D02*
X163830000Y-156845000D01*
X101600000Y-33020000D02*
X101600000Y-34220300D01*
X114300000Y-58420000D02*
X114300000Y-59620300D01*
X114300000Y-81280000D02*
X114300000Y-80079700D01*
X106680000Y-139700000D02*
X106680000Y-140900300D01*
X231140000Y-38100000D02*
X227445000Y-34405000D01*
X227445000Y-34405000D02*
X227445000Y-28910000D01*
X231140000Y-41910000D02*
X231140000Y-38100000D01*
X63500000Y-101600000D02*
X63500000Y-102800300D01*
X68580000Y-109220000D02*
X68580000Y-107507300D01*
X68580000Y-107507300D02*
X63873000Y-102800300D01*
X63873000Y-102800300D02*
X63500000Y-102800300D01*
X48260000Y-83820000D02*
X48260000Y-80010000D01*
X48260000Y-124460000D02*
X48260000Y-120650000D01*
X48260000Y-149860000D02*
X48260000Y-146050000D01*
X175260000Y-58420000D02*
X176460300Y-58420000D01*
X176460300Y-58420000D02*
X176460300Y-57219700D01*
X176460300Y-57219700D02*
X177800000Y-55880000D01*
X63500000Y-101600000D02*
X63500000Y-97790000D01*
X106680000Y-139700000D02*
X106680000Y-138499700D01*
X137160000Y-88900000D02*
X137160000Y-84455000D01*
%TD*%
M02*
