M48
;DRILL file {KiCad 4.0.6} date 2020 March 20, Friday 17:13:15
;FORMAT={-:-/ absolute / inch / decimal}
FMAT,2
INCH,TZ
T1C0.016
T2C0.028
T3C0.031
T4C0.032
T5C0.035
T6C0.039
T7C0.040
T8C0.047
T9C0.051
T10C0.076
T11C0.120
T12C0.126
T13C0.051
%
G90
G05
M72
T1
X0.875Y-3.225
X0.875Y-4.1
X0.875Y-4.825
X0.875Y-5.825
X0.925Y-2.275
X0.925Y-2.75
X0.925Y-2.8
X0.925Y-3.8
X0.925Y-5.4
X0.925Y-6.4
X0.95Y-6.475
X0.95Y-6.8
X0.975Y-2.7
X0.975Y-3.7
X0.975Y-5.3
X0.975Y-6.3
X1.025Y-2.6
X1.025Y-3.6
X1.025Y-5.2
X1.025Y-6.2
X1.075Y-2.5
X1.075Y-3.5
X1.075Y-5.1
X1.075Y-6.1
X1.125Y-2.45
X1.125Y-3.45
X1.125Y-4.95
X1.125Y-6.05
X1.125Y-6.15
X1.15Y-7.025
X1.175Y-2.325
X1.175Y-2.4
X1.2Y-2.25
X1.225Y-3.2
X1.225Y-3.4
X1.275Y-4.525
X1.275Y-4.7
X1.275Y-5.
X1.325Y-6.
X1.375Y-5.05
X1.375Y-5.15
X1.375Y-5.25
X1.375Y-5.35
X1.375Y-5.45
X1.375Y-5.6
X1.375Y-5.75
X1.375Y-5.95
X1.4Y-6.6
X1.425Y-4.475
X1.45Y-4.15
X1.45Y-4.7
X1.525Y-1.85
X1.725Y-1.85
X1.725Y-4.425
X1.825Y-4.05
X1.975Y-5.45
X2.Y-3.55
X2.Y-3.65
X2.Y-6.9
X2.025Y-2.05
X2.025Y-5.9
X2.075Y-2.
X2.075Y-2.975
X2.075Y-4.45
X2.075Y-5.1
X2.075Y-6.025
X2.075Y-6.6
X2.075Y-6.875
X2.125Y-6.625
X2.125Y-6.925
X2.15Y-7.
X2.175Y-2.
X2.2Y-3.75
X2.2Y-5.55
X2.275Y-2.
X2.275Y-2.6
X2.275Y-3.425
X2.275Y-6.625
X2.275Y-7.025
X2.325Y-2.375
X2.325Y-2.525
X2.325Y-4.1
X2.325Y-6.275
X2.325Y-6.6
X2.325Y-6.975
X2.375Y-2.
X2.375Y-2.4
X2.375Y-2.5
X2.375Y-4.4
X2.375Y-5.275
X2.375Y-6.475
X2.375Y-6.625
X2.375Y-6.775
X2.425Y-2.6
X2.425Y-3.425
X2.425Y-6.325
X2.425Y-6.6
X2.425Y-6.825
X2.475Y-2.
X2.5Y-3.775
X2.5Y-5.05
X2.5Y-5.475
X2.55Y-1.675
X2.575Y-2.
X2.575Y-5.875
X2.575Y-6.625
X2.575Y-6.725
X2.625Y-2.975
X2.625Y-4.8
X2.625Y-5.
X2.625Y-5.975
X2.65Y-1.675
X2.675Y-2.
X2.675Y-3.025
X2.675Y-3.825
X2.675Y-5.8
X2.7Y-3.55
X2.7Y-5.3
X2.725Y-2.25
X2.725Y-3.25
X2.725Y-5.775
X2.75Y-1.675
X2.775Y-2.
X2.775Y-4.825
X2.85Y-1.675
X2.875Y-3.45
X2.875Y-6.05
X2.925Y-5.15
X2.95Y-1.675
X2.95Y-4.475
X3.025Y-1.75
X3.025Y-3.025
X3.025Y-3.925
X3.025Y-4.05
X3.025Y-5.575
X3.15Y-1.7
X3.175Y-4.425
X3.2Y-2.3
X3.225Y-2.05
X3.225Y-3.05
X3.3Y-4.525
X3.3Y-4.775
X3.3Y-6.55
X3.325Y-4.125
X3.325Y-5.675
X3.375Y-4.075
X3.375Y-4.85
X3.375Y-5.825
X3.375Y-6.1
X3.375Y-6.6
X3.375Y-6.875
X3.4Y-4.4
X3.425Y-5.1
X3.425Y-6.625
X3.425Y-6.925
X3.475Y-3.125
X3.475Y-3.5
X3.475Y-6.6
X3.475Y-6.975
X3.525Y-2.45
X3.525Y-2.5
X3.525Y-6.625
X3.525Y-7.025
X3.575Y-2.4
X3.575Y-3.35
X3.575Y-4.95
X3.575Y-5.95
X3.575Y-6.1
X3.6Y-6.2
X3.625Y-2.6
X3.625Y-3.6
X3.625Y-5.2
X3.625Y-5.7
X3.65Y-1.325
X3.65Y-2.225
X3.675Y-2.7
X3.675Y-3.75
X3.675Y-5.3
X3.675Y-6.1
X3.675Y-6.3
X3.725Y-2.8
X3.725Y-3.8
X3.725Y-5.45
X3.725Y-6.15
X3.725Y-6.4
X3.75Y-1.375
X3.75Y-1.575
X3.75Y-2.25
X3.775Y-1.75
X3.775Y-2.9
X3.775Y-3.85
X3.775Y-5.5
X3.775Y-6.35
X3.775Y-6.5
X3.825Y-2.3
X3.825Y-4.875
X3.825Y-6.55
X3.875Y-3.05
X3.875Y-3.95
X3.875Y-4.775
X3.875Y-5.375
X3.925Y-5.05
X3.95Y-2.25
X3.975Y-1.375
X3.975Y-1.75
X3.975Y-3.05
X3.975Y-3.95
X3.975Y-4.775
X3.975Y-5.225
X4.Y-1.5
X4.Y-5.325
X4.025Y-5.65
X4.05Y-1.75
X4.05Y-2.15
X4.075Y-3.025
X4.075Y-4.025
X4.075Y-4.775
X4.075Y-5.825
X4.125Y-1.75
X4.125Y-2.1
X4.125Y-4.075
X4.15Y-2.35
X4.175Y-4.45
X4.225Y-1.75
X4.225Y-1.95
X4.25Y-1.4
X4.25Y-1.55
X4.275Y-2.
X4.275Y-3.3
X4.275Y-4.475
X4.275Y-4.8
X4.275Y-4.95
X4.275Y-5.425
X4.275Y-5.775
X4.275Y-6.05
X4.275Y-6.35
X4.3Y-1.75
X4.3Y-1.9
X4.325Y-2.05
X4.325Y-3.475
X4.325Y-4.275
X4.35Y-1.55
X4.375Y-2.1
X4.375Y-3.575
X4.375Y-4.525
X4.375Y-4.75
X4.375Y-5.175
X4.375Y-5.525
X4.375Y-6.625
X4.375Y-7.075
X4.4Y-6.225
X4.425Y-1.7
X4.425Y-2.15
X4.425Y-4.325
X4.45Y-4.4
X4.475Y-1.425
X4.475Y-5.175
X4.5Y-4.175
X4.525Y-1.75
X4.525Y-2.05
X4.525Y-5.05
X4.55Y-6.35
X4.575Y-2.35
X4.575Y-4.125
X4.575Y-4.4
X4.6Y-1.75
X4.6Y-1.85
X4.625Y-2.75
X4.625Y-5.5
X4.65Y-3.05
X4.65Y-5.325
X4.675Y-1.75
X4.675Y-2.
X4.675Y-5.45
X4.7Y-5.95
X4.7Y-6.1
X4.725Y-2.9
X4.725Y-5.5
X4.75Y-1.525
X4.875Y-1.8
X4.875Y-3.175
X4.875Y-4.375
X4.9Y-3.375
X4.9Y-4.75
X4.925Y-1.85
X4.925Y-3.55
X4.925Y-4.625
X4.975Y-1.9
X4.975Y-3.5
X4.975Y-4.425
X5.025Y-1.95
X5.025Y-4.575
X5.05Y-1.04
X5.05Y-1.6
X5.075Y-3.975
X5.075Y-4.225
X5.1Y-1.675
X5.1Y-2.2
X5.15Y-3.45
X5.15Y-5.175
X5.15Y-5.35
X5.175Y-3.05
X5.2Y-5.8
X5.225Y-3.325
X5.225Y-3.425
X5.225Y-4.7
X5.225Y-5.325
X5.325Y-4.2
X5.325Y-5.025
X5.35Y-4.725
X5.375Y-3.6
X5.375Y-3.875
X5.4Y-6.475
X5.4Y-6.575
X5.45Y-1.675
X5.45Y-2.55
X5.45Y-6.1
X5.45Y-6.25
X5.525Y-2.475
X5.525Y-4.725
X5.55Y-2.2
X5.55Y-3.85
X5.55Y-5.075
X5.55Y-6.1
X5.55Y-6.425
X5.6Y-4.975
X5.65Y-2.45
X5.7Y-4.2
X5.75Y-4.875
X5.75Y-5.075
X5.775Y-2.6
X5.775Y-2.7
X5.825Y-2.85
X5.825Y-3.05
X5.875Y-2.775
X5.875Y-2.9
X5.875Y-3.125
X5.9Y-4.025
X5.9Y-4.975
X5.925Y-2.7
X5.95Y-3.625
X5.95Y-5.025
X5.95Y-5.4
X5.95Y-5.8
X5.95Y-5.95
X5.95Y-6.1
X5.95Y-6.25
X5.95Y-6.45
X5.95Y-6.575
X6.025Y-3.3
X6.025Y-5.175
X6.05Y-5.4
X6.05Y-6.475
X6.075Y-2.6
X6.075Y-2.9
X6.1Y-3.025
X6.125Y-2.425
X6.15Y-2.2
X6.15Y-2.35
X6.15Y-3.575
X6.175Y-2.4
X6.175Y-3.
X6.2Y-3.25
X6.25Y-3.175
X6.3Y-3.725
X6.3Y-3.85
X6.3Y-3.975
X6.3Y-4.2
X6.3Y-5.6
X6.3Y-5.65
X6.325Y-1.675
X6.35Y-3.175
X6.35Y-4.675
X6.35Y-5.175
X6.35Y-6.525
X6.375Y-1.95
X6.375Y-2.3
X6.4Y-2.9
X6.4Y-3.1
X6.4Y-3.725
X6.4Y-3.975
X6.425Y-1.925
X6.425Y-2.275
X6.45Y-4.8
X6.475Y-1.9
X6.475Y-2.3
X6.475Y-4.95
X6.5Y-3.
X6.5Y-3.2
X6.5Y-3.725
X6.52Y-1.04
X6.52Y-1.17
X6.525Y-1.675
X6.525Y-1.775
X6.525Y-1.875
X6.525Y-2.275
X6.525Y-5.175
X6.525Y-6.525
X6.575Y-1.04
X6.575Y-4.2
X6.575Y-5.7
X6.575Y-6.225
X6.575Y-6.3
X6.575Y-6.425
X6.575Y-6.55
X6.6Y-1.525
X6.6Y-1.95
X6.625Y-1.775
X6.625Y-5.8
X6.625Y-6.575
X6.65Y-4.775
X6.65Y-5.95
X6.675Y-1.125
X6.675Y-2.15
X6.675Y-2.3
X6.675Y-5.45
X6.7Y-1.95
X6.725Y-2.125
X6.725Y-2.275
X6.725Y-2.8
X6.725Y-2.9
X6.725Y-3.725
X6.725Y-3.85
X6.725Y-5.
X6.725Y-5.65
X6.725Y-5.8
X6.75Y-3.1
X6.75Y-3.2
X6.75Y-4.2
X6.775Y-1.225
X6.775Y-2.1
X6.775Y-2.3
X6.775Y-4.825
X6.775Y-5.275
X6.775Y-5.425
X6.775Y-7.075
X6.8Y-2.925
X6.825Y-2.075
X6.825Y-2.275
X6.825Y-3.675
X6.825Y-4.975
X6.85Y-1.875
X6.875Y-4.975
X6.925Y-1.95
X6.925Y-3.625
X6.95Y-5.375
X6.975Y-5.075
X7.Y-2.1
X7.Y-3.625
X7.Y-5.65
X7.025Y-3.225
X7.025Y-5.025
X7.05Y-5.45
X7.075Y-1.175
X7.075Y-4.025
X7.075Y-5.125
X7.1Y-2.375
X7.125Y-3.575
X7.125Y-3.65
X7.125Y-3.975
X7.125Y-5.225
X7.125Y-5.425
X7.15Y-5.8
X7.15Y-5.95
X7.175Y-3.925
X7.175Y-5.225
X7.225Y-3.175
X7.225Y-3.325
X7.225Y-3.9
X7.25Y-1.575
X7.275Y-2.95
X7.275Y-3.125
X7.3Y-3.9
X7.3Y-4.025
X7.3Y-4.675
X7.325Y-5.525
X7.325Y-6.15
X7.4Y-5.95
X7.45Y-3.375
X7.45Y-6.225
X7.475Y-2.5
X7.475Y-2.65
X7.475Y-2.8
X7.55Y-2.3
X7.55Y-2.4
X7.625Y-2.65
X7.625Y-6.2
X7.65Y-5.525
X7.65Y-5.65
X7.65Y-5.8
X7.675Y-1.275
X7.675Y-1.525
X7.7Y-6.075
X7.7Y-6.325
X7.75Y-6.25
X7.775Y-1.275
X7.775Y-6.575
X7.825Y-1.575
X7.825Y-6.2
X7.825Y-6.525
X7.85Y-1.475
X7.85Y-1.8
X7.875Y-6.075
X7.875Y-6.225
X7.9Y-2.
X7.9Y-2.1
X7.9Y-5.525
X7.925Y-6.25
X7.95Y-1.8
X7.975Y-3.125
X7.975Y-6.275
X8.05Y-2.3
X8.05Y-2.425
X8.05Y-2.925
X8.05Y-3.
X8.05Y-3.175
X8.075Y-1.65
X8.075Y-6.325
X8.075Y-6.575
X8.1Y-3.175
X8.1Y-5.425
X8.125Y-1.375
X8.125Y-1.875
X8.125Y-5.375
X8.2Y-4.4
X8.2Y-4.6
X8.25Y-1.8
X8.25Y-3.825
X8.275Y-4.875
X8.35Y-1.5
X8.35Y-1.725
X8.35Y-1.875
X8.35Y-2.3
X8.35Y-2.45
X8.35Y-5.5
X8.375Y-6.6
X8.425Y-5.4
X8.425Y-5.8
X8.45Y-3.25
X8.45Y-3.475
X8.475Y-4.65
X8.5Y-3.2
X8.5Y-3.375
X8.55Y-1.5
X8.55Y-1.725
X8.55Y-1.875
X8.55Y-4.25
X8.55Y-4.45
X8.55Y-4.675
X8.575Y-2.75
X8.65Y-2.45
X8.65Y-2.65
X8.7Y-4.375
X8.7Y-6.6
X8.75Y-4.25
X8.75Y-4.975
X8.775Y-2.15
X8.775Y-3.125
X8.8Y-5.6
X8.85Y-2.25
X8.9Y-2.125
X8.9Y-2.425
X8.9Y-3.375
X8.925Y-1.725
X8.95Y-5.475
X8.975Y-5.2
X9.Y-1.325
X9.Y-4.725
X9.Y-5.55
X9.025Y-3.225
X9.1Y-2.8
X9.1Y-4.725
X9.15Y-1.225
X9.15Y-1.875
X9.15Y-2.4
X9.15Y-2.5
X9.15Y-2.6
X9.15Y-2.7
X9.15Y-4.075
X9.15Y-4.975
X9.15Y-5.275
X9.15Y-5.6
X9.2Y-1.325
X9.2Y-4.725
X9.2Y-5.
X9.225Y-3.125
X9.275Y-5.
X9.275Y-5.475
X9.3Y-1.375
X9.3Y-3.375
X9.3Y-3.475
X9.3Y-3.575
X9.3Y-3.675
X9.3Y-3.775
X9.325Y-3.425
X9.325Y-3.525
X9.325Y-3.625
X9.325Y-3.725
X9.325Y-4.975
X9.325Y-5.55
X9.35Y-4.35
X9.35Y-4.425
X9.375Y-1.3
X9.375Y-2.45
X9.425Y-1.35
X9.425Y-4.275
X9.45Y-5.85
X9.45Y-6.6
X9.475Y-4.075
X9.525Y-3.775
X9.55Y-1.725
X9.575Y-2.55
X9.575Y-3.725
X9.625Y-2.65
X9.625Y-3.675
X9.65Y-1.35
X9.65Y-1.575
X9.675Y-2.75
X9.675Y-3.625
X9.725Y-2.85
X9.725Y-3.575
X9.775Y-2.35
X9.775Y-3.525
X9.825Y-2.95
X9.825Y-3.475
X9.875Y-3.425
X9.925Y-1.35
X9.925Y-2.1
X9.925Y-3.375
X9.925Y-4.025
X9.925Y-4.625
X9.925Y-5.325
T2
X1.237Y-1.3
X1.2685Y-1.2528
X1.3Y-1.3
X1.3315Y-1.2528
X1.363Y-1.3
T3
X1.Y-1.7
X1.Y-1.8
X1.Y-1.9
X1.Y-2.
X1.Y-2.1
X1.3Y-4.3
X1.3Y-4.6
X1.4Y-4.3
X1.4Y-4.6
X1.5Y-4.3
X1.5Y-4.6
X1.6Y-2.3
X1.6Y-2.4
X1.6Y-2.5
X1.6Y-2.6
X1.6Y-2.7
X1.6Y-2.8
X1.6Y-2.9
X1.6Y-3.
X1.6Y-3.3
X1.6Y-3.4
X1.6Y-3.5
X1.6Y-3.6
X1.6Y-3.7
X1.6Y-3.8
X1.6Y-3.9
X1.6Y-4.
X1.6Y-4.3
X1.6Y-4.6
X1.6Y-4.9
X1.6Y-5.
X1.6Y-5.1
X1.6Y-5.2
X1.6Y-5.3
X1.6Y-5.4
X1.6Y-5.5
X1.6Y-5.6
X1.6Y-5.9
X1.6Y-6.
X1.6Y-6.1
X1.6Y-6.2
X1.6Y-6.3
X1.6Y-6.4
X1.6Y-6.5
X1.6Y-6.6
X1.7Y-4.2
X1.7Y-4.3
X1.7Y-4.6
X1.7031Y-2.15
X1.7031Y-3.15
X1.7031Y-4.75
X1.7031Y-5.75
X1.8Y-4.3
X1.8Y-4.6
X1.8969Y-4.2
X1.9Y-2.15
X1.9Y-2.3
X1.9Y-2.4
X1.9Y-2.5
X1.9Y-2.6
X1.9Y-2.7
X1.9Y-2.8
X1.9Y-2.9
X1.9Y-3.
X1.9Y-3.15
X1.9Y-3.3
X1.9Y-3.4
X1.9Y-3.5
X1.9Y-3.6
X1.9Y-3.7
X1.9Y-3.8
X1.9Y-3.9
X1.9Y-4.
X1.9Y-4.3
X1.9Y-4.6
X1.9Y-4.75
X1.9Y-4.9
X1.9Y-5.
X1.9Y-5.1
X1.9Y-5.2
X1.9Y-5.3
X1.9Y-5.4
X1.9Y-5.5
X1.9Y-5.6
X1.9Y-5.75
X1.9Y-5.9
X1.9Y-6.
X1.9Y-6.1
X1.9Y-6.2
X1.9Y-6.3
X1.9Y-6.4
X1.9Y-6.5
X1.9Y-6.6
X2.Y-4.3
X2.Y-4.6
X2.0622Y-1.4
X2.2Y-1.4
X2.2Y-2.3
X2.2Y-2.4
X2.2Y-2.5
X2.2Y-2.6
X2.2Y-2.7
X2.2Y-2.8
X2.2Y-2.9
X2.2Y-3.
X2.2Y-3.1
X2.2Y-3.2
X2.2Y-4.
X2.2Y-4.1
X2.2Y-4.2
X2.2Y-4.3
X2.2Y-4.4
X2.2Y-4.5
X2.2Y-4.6
X2.2Y-4.7
X2.2Y-4.8
X2.2Y-4.9
X2.2Y-5.7
X2.2Y-5.8
X2.2Y-5.9
X2.2Y-6.
X2.2Y-6.1
X2.2Y-6.2
X2.2Y-6.3
X2.2Y-6.4
X2.2Y-6.5
X2.2Y-6.6
X2.3031Y-2.15
X2.5Y-1.6
X2.5Y-2.15
X2.5Y-2.3
X2.5Y-2.4
X2.5Y-2.5
X2.5Y-2.6
X2.5Y-2.7
X2.5Y-2.8
X2.5Y-2.9
X2.5Y-3.
X2.5Y-3.1
X2.5Y-3.2
X2.5Y-3.6531
X2.5Y-3.85
X2.5Y-4.
X2.5Y-4.1
X2.5Y-4.2
X2.5Y-4.3
X2.5Y-4.4
X2.5Y-4.5
X2.5Y-4.6
X2.5Y-4.7
X2.5Y-4.8
X2.5Y-4.9
X2.5Y-5.3531
X2.5Y-5.55
X2.5Y-5.7
X2.5Y-5.8
X2.5Y-5.9
X2.5Y-6.
X2.5Y-6.1
X2.5Y-6.2
X2.5Y-6.3
X2.5Y-6.4
X2.5Y-6.5
X2.5Y-6.6
X2.5031Y-1.35
X2.55Y-1.1
X2.6Y-1.6
X2.7Y-1.35
X2.7Y-1.6
X2.7Y-4.3
X2.7Y-4.6
X2.8Y-1.35
X2.8Y-1.6
X2.8Y-2.3
X2.8Y-2.4
X2.8Y-2.5
X2.8Y-2.6
X2.8Y-2.7
X2.8Y-2.8
X2.8Y-2.9
X2.8Y-3.
X2.8Y-3.3
X2.8Y-3.4
X2.8Y-3.5
X2.8Y-3.6
X2.8Y-3.7
X2.8Y-3.8
X2.8Y-3.9
X2.8Y-4.
X2.8Y-4.3
X2.8Y-4.6
X2.8Y-4.9
X2.8Y-5.
X2.8Y-5.1
X2.8Y-5.2
X2.8Y-5.3
X2.8Y-5.4
X2.8Y-5.5
X2.8Y-5.6
X2.8Y-5.9
X2.8Y-6.
X2.8Y-6.1
X2.8Y-6.2
X2.8Y-6.3
X2.8Y-6.4
X2.8Y-6.5
X2.8Y-6.6
X2.9Y-1.6
X2.9Y-4.2
X2.9Y-4.3
X2.9Y-4.6
X2.9Y-4.75
X2.9031Y-2.15
X2.9031Y-3.15
X2.9031Y-5.75
X2.95Y-1.1
X2.9969Y-1.35
X3.Y-1.6
X3.Y-4.3
X3.Y-4.6
X3.0969Y-4.2
X3.0969Y-4.75
X3.1Y-2.15
X3.1Y-2.3
X3.1Y-2.4
X3.1Y-2.5
X3.1Y-2.6
X3.1Y-2.7
X3.1Y-2.8
X3.1Y-2.9
X3.1Y-3.
X3.1Y-3.15
X3.1Y-3.3
X3.1Y-3.4
X3.1Y-3.5
X3.1Y-3.6
X3.1Y-3.7
X3.1Y-3.8
X3.1Y-3.9
X3.1Y-4.
X3.1Y-4.3
X3.1Y-4.6
X3.1Y-4.9
X3.1Y-5.
X3.1Y-5.1
X3.1Y-5.2
X3.1Y-5.3
X3.1Y-5.4
X3.1Y-5.5
X3.1Y-5.6
X3.1Y-5.75
X3.1Y-5.9
X3.1Y-6.
X3.1Y-6.1
X3.1Y-6.2
X3.1Y-6.3
X3.1Y-6.4
X3.1Y-6.5
X3.1Y-6.6
X3.2Y-4.3
X3.2Y-4.6
X3.3Y-4.3
X3.3Y-4.6
X3.4Y-4.3
X3.4Y-4.6
X3.85Y-1.1531
X3.85Y-1.35
X3.9Y-5.5
X3.9Y-5.6
X3.9Y-5.7
X3.9Y-5.8
X3.9Y-5.9
X3.9Y-6.
X3.9Y-6.1
X3.9Y-6.2
X3.9Y-6.3
X3.9Y-6.4
X4.Y-1.3
X4.Y-1.6
X4.05Y-1.15
X4.075Y-2.3
X4.075Y-2.4969
X4.075Y-3.2
X4.075Y-3.3969
X4.0781Y-5.25
X4.1Y-1.3
X4.1Y-1.6
X4.2Y-1.3
X4.2Y-1.6
X4.2Y-2.3
X4.2Y-2.4
X4.2Y-2.5
X4.2Y-2.6
X4.2Y-2.7
X4.2Y-2.8
X4.2Y-2.9
X4.2Y-3.
X4.2Y-3.2
X4.2Y-3.3
X4.2Y-3.4
X4.2Y-3.5
X4.2Y-3.6
X4.2Y-3.7
X4.2Y-3.8
X4.2Y-3.9
X4.2Y-5.5
X4.2Y-5.6
X4.2Y-5.7
X4.2Y-5.8
X4.2Y-5.9
X4.2Y-6.
X4.2Y-6.1
X4.2Y-6.2
X4.2Y-6.3
X4.2Y-6.4
X4.25Y-1.15
X4.275Y-5.25
X4.3Y-1.3
X4.3Y-1.6
X4.4Y-1.3
X4.4Y-1.6
X4.45Y-1.15
X4.45Y-6.3
X4.45Y-6.4969
X4.5Y-1.3
X4.5Y-1.6
X4.5Y-2.3
X4.5Y-2.4
X4.5Y-2.5
X4.5Y-2.6
X4.5Y-2.7
X4.5Y-2.8
X4.5Y-2.9
X4.5Y-3.
X4.5Y-3.2
X4.5Y-3.3
X4.5Y-3.4
X4.5Y-3.5
X4.5Y-3.6
X4.5Y-3.7
X4.5Y-3.8
X4.5Y-3.9
X4.6Y-1.3
X4.6Y-1.6
X4.6Y-6.3
X4.6Y-6.6
X4.65Y-2.3
X4.65Y-2.4969
X4.65Y-3.2
X4.65Y-3.3969
X4.7Y-1.3
X4.7Y-1.6
X4.7Y-6.3
X4.7Y-6.6
X4.8Y-1.3
X4.8Y-1.6
X4.8Y-2.3
X4.8Y-2.4
X4.8Y-2.5
X4.8Y-2.6
X4.8Y-2.7
X4.8Y-2.8
X4.8Y-2.9
X4.8Y-3.
X4.8Y-3.2
X4.8Y-3.3
X4.8Y-3.4
X4.8Y-3.5
X4.8Y-3.6
X4.8Y-3.7
X4.8Y-3.8
X4.8Y-3.9
X4.8Y-6.3
X4.8Y-6.6
X4.825Y-4.95
X4.9Y-1.3
X4.9Y-1.6
X4.9Y-6.3
X4.9Y-6.6
X5.Y-6.3
X5.Y-6.6
X5.025Y-5.15
X5.1Y-2.3
X5.1Y-2.4
X5.1Y-2.5
X5.1Y-2.6
X5.1Y-2.7
X5.1Y-2.8
X5.1Y-2.9
X5.1Y-3.
X5.1Y-3.2
X5.1Y-3.3
X5.1Y-3.4
X5.1Y-3.5
X5.1Y-3.6
X5.1Y-3.7
X5.1Y-3.8
X5.1Y-3.9
X5.1Y-6.3
X5.1Y-6.6
X5.15Y-4.8
X5.15Y-4.9969
X5.2Y-1.25
X5.2Y-1.65
X5.2Y-6.3
X5.2Y-6.6
X5.25Y-2.3
X5.25Y-2.4969
X5.3Y-4.8
X5.3Y-5.1
X5.3Y-6.3
X5.3Y-6.6
X5.35Y-1.25
X5.35Y-1.65
X5.4Y-2.3
X5.4Y-2.4
X5.4Y-2.5
X5.4Y-2.6
X5.4Y-2.7
X5.4Y-2.8
X5.4Y-2.9
X5.4Y-3.
X5.4Y-3.325
X5.4Y-3.5
X5.4Y-4.1
X5.4Y-4.8
X5.4Y-5.1
X5.5Y-3.5
X5.5Y-4.1
X5.5Y-4.8
X5.5Y-5.1
X5.55Y-1.25
X5.55Y-1.65
X5.5969Y-3.325
X5.6Y-3.5
X5.6Y-4.1
X5.6Y-4.8
X5.6Y-5.1
X5.7Y-1.25
X5.7Y-1.65
X5.7Y-2.3
X5.7Y-2.4
X5.7Y-2.5
X5.7Y-2.6
X5.7Y-2.7
X5.7Y-2.8
X5.7Y-2.9
X5.7Y-3.
X5.7Y-3.5
X5.7Y-4.1
X5.7Y-4.8
X5.7Y-5.1
X5.8Y-3.325
X5.8Y-3.5
X5.8Y-4.1
X5.8Y-4.8
X5.8Y-5.1
X5.85Y-2.3
X5.85Y-2.4969
X5.9Y-1.25
X5.9Y-1.65
X5.9Y-3.5
X5.9Y-4.1
X5.9Y-4.8
X5.9Y-5.1
X6.Y-2.3
X6.Y-2.4
X6.Y-2.5
X6.Y-2.6
X6.Y-2.7
X6.Y-2.8
X6.Y-2.9
X6.Y-3.
X6.Y-3.5
X6.Y-4.1
X6.05Y-1.25
X6.05Y-1.65
X6.1Y-3.5
X6.1Y-4.1
X6.2Y-3.5
X6.2Y-4.1
X6.25Y-1.25
X6.25Y-1.65
X6.25Y-4.95
X6.3Y-2.3
X6.3Y-2.4
X6.3Y-2.5
X6.3Y-2.6
X6.3Y-2.7
X6.3Y-2.8
X6.3Y-2.9
X6.3Y-3.
X6.3Y-3.5
X6.3Y-4.1
X6.4Y-1.25
X6.4Y-1.65
X6.4Y-3.5
X6.4Y-4.1
X6.45Y-5.65
X6.45Y-5.75
X6.45Y-5.85
X6.45Y-5.95
X6.45Y-6.05
X6.45Y-6.175
X6.45Y-6.575
X6.5Y-3.5
X6.5Y-4.1
X6.6Y-2.3
X6.6Y-2.4
X6.6Y-2.5
X6.6Y-2.6
X6.6Y-2.7
X6.6Y-2.8
X6.6Y-2.9
X6.6Y-3.
X6.6Y-3.1
X6.6Y-3.2
X6.6Y-3.5
X6.6Y-4.1
X6.65Y-1.25
X6.65Y-1.65
X6.65Y-4.95
X6.7Y-3.5
X6.7Y-4.1
X6.75Y-6.3
X6.75Y-6.4969
X6.9Y-2.3
X6.9Y-2.4
X6.9Y-2.5
X6.9Y-2.6
X6.9Y-2.7
X6.9Y-2.8
X6.9Y-2.9
X6.9Y-3.
X6.9Y-3.1
X6.9Y-3.2
X6.9Y-6.3
X6.9Y-6.6
X7.Y-2.0031
X7.Y-2.2
X7.Y-6.3
X7.Y-6.6
X7.1Y-4.6
X7.1Y-4.7969
X7.1Y-6.3
X7.1Y-6.6
X7.1016Y-1.7
X7.1016Y-1.9
X7.15Y-2.9031
X7.15Y-3.1
X7.2Y-1.7
X7.2Y-1.9
X7.2Y-2.1
X7.2Y-2.2
X7.2Y-2.3
X7.2Y-6.3
X7.2Y-6.6
X7.3Y-4.2
X7.3Y-4.5
X7.3Y-4.8
X7.3Y-5.1
X7.3Y-6.3
X7.3Y-6.6
X7.4Y-2.3
X7.4Y-2.4
X7.4Y-2.5
X7.4Y-2.6
X7.4Y-2.7
X7.4Y-2.8
X7.4Y-2.9
X7.4Y-3.
X7.4Y-3.3
X7.4Y-3.9
X7.4Y-4.2
X7.4Y-4.5
X7.4Y-4.8
X7.4Y-5.1
X7.4Y-6.3
X7.4Y-6.6
X7.5Y-3.3
X7.5Y-3.9
X7.5Y-4.2
X7.5Y-4.5
X7.5Y-4.8
X7.5Y-5.1
X7.5Y-6.3
X7.5Y-6.6
X7.5031Y-2.125
X7.575Y-1.7
X7.575Y-1.9
X7.6Y-3.3
X7.6Y-3.9
X7.6Y-4.05
X7.6Y-4.2
X7.6Y-4.5
X7.6Y-4.8
X7.6Y-5.1
X7.6Y-6.3
X7.6Y-6.6
X7.7Y-2.125
X7.7Y-2.3
X7.7Y-2.4
X7.7Y-2.5
X7.7Y-2.6
X7.7Y-2.7
X7.7Y-2.8
X7.7Y-2.9
X7.7Y-3.
X7.7Y-3.3
X7.7Y-3.9
X7.7Y-4.2
X7.7Y-4.5
X7.7Y-4.8
X7.7Y-5.1
X7.7969Y-4.05
X7.8Y-3.3
X7.8Y-3.9
X7.8Y-4.2
X7.8Y-4.5
X7.8Y-4.8
X7.8Y-5.1
X7.9Y-2.3
X7.9Y-2.4
X7.9Y-2.5
X7.9Y-2.6
X7.9Y-2.7
X7.9Y-2.8
X7.9Y-2.9
X7.9Y-3.
X7.9Y-3.3
X7.9Y-3.9
X7.9Y-4.2
X7.9Y-4.5
X7.9Y-4.8
X7.9Y-5.1
X7.975Y-1.7
X7.975Y-1.9
X8.Y-3.3
X8.Y-3.9
X8.Y-4.2
X8.Y-4.5
X8.Y-4.8
X8.Y-5.1
X8.0031Y-2.125
X8.025Y-1.5
X8.1Y-3.3
X8.1Y-3.9
X8.1Y-4.2
X8.1Y-4.5
X8.1Y-4.8
X8.1Y-5.1
X8.2Y-1.65
X8.2Y-1.95
X8.2Y-2.125
X8.2Y-2.3
X8.2Y-2.4
X8.2Y-2.5
X8.2Y-2.6
X8.2Y-2.7
X8.2Y-2.8
X8.2Y-2.9
X8.2Y-3.
X8.2Y-3.3
X8.2Y-3.9
X8.2Y-4.2
X8.2Y-4.5
X8.2Y-4.8
X8.2Y-5.1
X8.2Y-5.625
X8.2Y-5.725
X8.2Y-5.825
X8.2Y-5.925
X8.2Y-6.025
X8.2219Y-1.5
X8.3Y-1.65
X8.3Y-1.95
X8.3Y-3.3
X8.3Y-3.9
X8.35Y-4.6031
X8.35Y-4.8
X8.35Y-5.3031
X8.35Y-5.5
X8.4Y-1.65
X8.4Y-1.95
X8.4Y-3.3
X8.4Y-3.9
X8.5Y-1.65
X8.5Y-1.95
X8.5Y-2.3
X8.5Y-2.4
X8.5Y-2.5
X8.5Y-2.6
X8.5Y-2.7
X8.5Y-2.8
X8.5Y-2.9
X8.5Y-3.
X8.5Y-3.3
X8.5Y-3.9
X8.5Y-4.2
X8.5Y-4.5
X8.5Y-4.8
X8.5Y-5.1
X8.5Y-5.4
X8.5Y-5.7
X8.5031Y-2.125
X8.6Y-1.65
X8.6Y-1.95
X8.6Y-3.3
X8.6Y-3.9
X8.6Y-4.2
X8.6Y-4.5
X8.6Y-4.8
X8.6Y-5.1
X8.6Y-5.4
X8.6Y-5.7
X8.7Y-1.5
X8.7Y-1.65
X8.7Y-1.95
X8.7Y-2.125
X8.7Y-3.3
X8.7Y-3.9
X8.7Y-4.2
X8.7Y-4.5
X8.7Y-4.8
X8.7Y-5.1
X8.7Y-5.4
X8.7Y-5.7
X8.7984Y-1.5
X8.8Y-1.65
X8.8Y-1.95
X8.8Y-2.3
X8.8Y-2.4
X8.8Y-2.5
X8.8Y-2.6
X8.8Y-2.7
X8.8Y-2.8
X8.8Y-2.9
X8.8Y-3.
X8.8Y-3.3
X8.8Y-3.9
X8.8Y-4.05
X8.8Y-4.2
X8.8Y-4.5
X8.8Y-4.8
X8.8Y-5.1
X8.8Y-5.4
X8.8Y-5.7
X8.9Y-3.3
X8.9Y-3.9
X8.9Y-4.2
X8.9Y-4.5
X8.9Y-4.8
X8.9Y-5.1
X8.9Y-5.4
X8.9Y-5.7
X8.9969Y-4.05
X9.Y-2.3
X9.Y-2.4
X9.Y-2.5
X9.Y-2.6
X9.Y-2.7
X9.Y-2.8
X9.Y-2.9
X9.Y-3.
X9.Y-3.3
X9.Y-3.9
X9.Y-4.2
X9.Y-4.5
X9.Y-4.8
X9.Y-5.1
X9.Y-5.4
X9.Y-5.7
X9.0031Y-2.125
X9.1Y-1.5
X9.1Y-1.65
X9.1Y-1.95
X9.1Y-3.3
X9.1Y-3.9
X9.1Y-4.2
X9.1Y-4.5
X9.1Y-4.8
X9.1Y-5.1
X9.1Y-5.4
X9.1Y-5.7
X9.2Y-1.65
X9.2Y-1.95
X9.2Y-2.125
X9.2Y-3.3
X9.2Y-3.9
X9.2Y-4.2
X9.2Y-4.5
X9.2Y-4.8
X9.2Y-5.1
X9.2Y-5.4
X9.2Y-5.7
X9.2969Y-1.5
X9.3Y-1.65
X9.3Y-1.95
X9.3Y-2.3
X9.3Y-2.4
X9.3Y-2.5
X9.3Y-2.6
X9.3Y-2.7
X9.3Y-2.8
X9.3Y-2.9
X9.3Y-3.
X9.3Y-3.3
X9.3Y-3.9
X9.3Y-4.2
X9.3Y-4.5
X9.4Y-1.5
X9.4Y-1.65
X9.4Y-1.95
X9.4Y-4.2
X9.4Y-4.5
X9.5Y-1.65
X9.5Y-1.95
X9.6Y-1.65
X9.6Y-1.95
X9.7Y-1.65
X9.7Y-1.95
X9.8Y-1.5
X9.8Y-1.65
X9.8Y-1.95
T4
X7.4Y-1.7039
X7.4Y-1.8961
T5
X1.2Y-1.7
X1.2Y-1.8
X1.4Y-1.7
X1.4Y-1.8
X1.6Y-1.7
X1.6Y-1.8
X1.8Y-1.7
X1.8Y-1.8
X4.4Y-5.8
X4.4Y-5.95
X4.5Y-5.8
X4.5Y-5.95
X4.65Y-5.8
X4.75Y-5.8
X4.9Y-5.8
X4.9Y-5.95
X4.9Y-6.1
X5.Y-5.8
X5.Y-5.95
X5.Y-6.1
X5.15Y-5.95
X5.15Y-6.1
X5.25Y-5.95
X5.25Y-6.1
X5.4Y-5.8
X5.4Y-5.95
X5.5Y-5.8
X5.5Y-5.95
X5.65Y-6.1
X5.65Y-6.25
X5.65Y-6.45
X5.75Y-6.1
X5.75Y-6.25
X5.75Y-6.45
X6.15Y-5.95
X6.15Y-6.25
X6.15Y-6.45
X6.25Y-4.8
X6.25Y-5.1
X6.25Y-5.95
X6.25Y-6.25
X6.25Y-6.45
X6.55Y-4.8
X6.55Y-5.1
X6.65Y-6.1
X6.75Y-6.1
X6.8Y-1.7
X6.8Y-1.8
X6.9Y-5.8
X6.9Y-6.1
X7.Y-5.8
X7.Y-6.1
X7.15Y-5.65
X7.15Y-6.1
X7.25Y-5.65
X7.25Y-6.1
X7.4Y-5.65
X7.4Y-5.8
X7.4Y-6.1
X7.5Y-5.65
X7.5Y-5.8
X7.5Y-6.1
X7.65Y-5.95
X7.75Y-5.95
X7.9Y-5.65
X7.9Y-5.8
X7.9Y-5.95
X8.Y-5.65
X8.Y-5.8
X8.Y-5.95
T6
X1.65Y-1.3996
X1.85Y-1.4
T7
X7.1697Y-1.175
X7.2148Y-1.075
X7.2148Y-1.275
X7.2598Y-1.175
X7.3049Y-1.075
X7.3049Y-1.275
X7.35Y-1.175
X7.3951Y-1.075
X7.3951Y-1.275
X7.4402Y-1.175
X7.4852Y-1.075
X7.4852Y-1.275
X7.5303Y-1.175
X7.5754Y-1.075
X7.5754Y-1.275
X8.885Y-1.155
X8.935Y-1.045
X8.99Y-1.155
X9.045Y-1.045
X9.1Y-1.155
X9.15Y-1.045
X9.205Y-1.155
X9.26Y-1.045
X9.315Y-1.155
T8
X1.625Y-1.1
X2.125Y-1.1
T9
X3.15Y-1.35
X3.25Y-1.35
X3.35Y-1.15
X3.45Y-1.35
X3.55Y-1.35
T10
X1.1642Y-1.1012
X1.4358Y-1.1012
T11
X6.8925Y-1.175
X7.8764Y-1.175
X8.605Y-1.1
X9.59Y-1.1
T12
X0.9Y-1.05
X0.9Y-7.05
X9.9Y-1.05
X9.9Y-7.05
T13
X3.15Y-1.05
X3.15Y-1.15
X3.35Y-1.35
X3.55Y-1.05
X3.55Y-1.15
T0
M30
