M48
; DRILL file {KiCad (5.1.6)-1} date 07/16/20 21:58:56
; FORMAT={-:-/ absolute / inch / decimal}
; #@! TF.CreationDate,2020-07-16T21:58:56+01:00
; #@! TF.GenerationSoftware,Kicad,Pcbnew,(5.1.6)-1
; #@! TF.FileFunction,Plated,1,2,PTH
FMAT,2
INCH
T1C0.0157
T2C0.0217
T3C0.0276
T4C0.0315
T5C0.0335
T6C0.0354
T7C0.0394
T8C0.0472
T9C0.0669
T10C0.1260
%
G90
G05
T1
X1.4875Y-5.3864
X1.5038Y-5.2307
X1.576Y-3.2164
X1.7738Y-5.4
X1.7765Y-4.6713
X1.8353Y-4.8981
X1.9Y-4.5098
X1.9928Y-2.7598
X2.0682Y-3.9358
X2.1327Y-3.5347
X2.2084Y-5.5849
X2.2265Y-5.0926
X2.263Y-2.3557
X2.2719Y-2.8252
X2.2849Y-5.0146
X2.3192Y-3.3974
X2.3233Y-3.0697
X2.3424Y-4.3
X2.3522Y-4.7877
X2.3697Y-4.4
X2.376Y-3.4609
X2.3768Y-2.0382
X2.4026Y-4.9446
X2.446Y-5.1928
X2.4507Y-3.3331
X2.4811Y-3.4354
X2.5088Y-3.3181
X2.5808Y-5.201
X2.5867Y-4.9969
X2.6155Y-2.3823
X2.831Y-4.0824
X2.8487Y-6.2514
X2.874Y-3.726
X2.9218Y-5.4877
X2.9255Y-6.0
X3.0065Y-2.7302
X3.0465Y-3.4502
X3.0503Y-5.8615
X3.0965Y-4.0938
X3.248Y-5.8036
X3.2737Y-3.8177
X3.2906Y-5.2307
X3.3391Y-3.8138
X3.4466Y-4.654
X3.6373Y-4.5478
X3.7965Y-6.4859
X3.8688Y-2.9796
X3.9769Y-5.8675
X4.0466Y-2.7132
X4.1081Y-2.9285
X4.1202Y-2.1379
X4.138Y-2.6557
X4.1411Y-2.941
X4.1494Y-5.1397
X4.1562Y-2.4295
X4.2707Y-2.6221
X4.4356Y-5.6756
X4.4625Y-2.0427
X4.5428Y-2.1074
X4.5907Y-4.1822
X4.5927Y-6.0539
X4.6663Y-2.7451
X4.6665Y-2.8157
X4.7053Y-2.6448
X4.7072Y-1.9594
X4.7117Y-2.2312
X4.7129Y-4.2414
X4.7638Y-1.9246
X4.8Y-2.1799
X4.8388Y-2.5443
X4.8443Y-2.0107
X4.9361Y-3.2
X4.9382Y-4.6089
X5.0162Y-4.6104
X5.0717Y-4.5575
X5.0949Y-4.5807
X5.144Y-4.2718
X5.152Y-4.6869
X5.1889Y-5.0341
X5.2597Y-5.8666
X5.2779Y-3.0307
X5.3071Y-4.3764
X5.3945Y-4.3433
X5.4795Y-4.4359
X5.4947Y-4.2968
X5.4956Y-4.4019
X5.5355Y-4.7071
X5.5507Y-4.7619
X5.6527Y-5.044
X5.7488Y-5.2024
X5.8184Y-3.9184
X5.8263Y-6.3737
X5.8622Y-5.0403
X5.9Y-5.85
X6.0609Y-5.1344
X6.1431Y-3.4321
X6.2578Y-4.2338
X6.3148Y-3.3313
X6.3256Y-4.4359
X6.3773Y-3.2175
X6.3881Y-4.6389
X6.4557Y-2.4
X6.4924Y-4.563
X6.4931Y-3.5733
X6.5292Y-2.3158
X6.6474Y-4.5926
X6.6514Y-3.2124
X6.6704Y-2.2893
X6.6748Y-6.6716
X6.702Y-2.2846
X6.7033Y-3.8579
X6.7623Y-2.3257
X6.9923Y-3.7789
X7.193Y-4.7557
X7.2407Y-4.2525
X7.2696Y-4.7285
X7.2827Y-6.4181
X7.3256Y-4.9929
X7.3539Y-4.1376
X7.3668Y-3.1545
X7.3756Y-6.216
X7.4946Y-3.1008
X7.5912Y-2.0427
X7.6037Y-4.2539
X7.6258Y-4.6375
X7.6455Y-4.0057
X7.6953Y-6.6211
X7.7438Y-3.775
X7.8205Y-1.6117
X7.8519Y-3.9248
X7.8844Y-4.6352
X7.8965Y-3.1222
X7.9815Y-3.2043
X8.0047Y-2.8526
X8.083Y-2.5184
X8.1073Y-2.75
X8.2126Y-4.4042
X8.3205Y-2.6843
X8.4235Y-4.2019
X8.4279Y-4.6324
X8.4289Y-2.8208
X8.5584Y-3.0958
X8.6379Y-4.908
X8.6443Y-5.6365
X8.687Y-2.4
X8.7187Y-5.5892
X8.8314Y-2.1693
X8.8716Y-5.7443
X8.9587Y-3.0314
X9.0708Y-2.4859
X9.1572Y-1.8065
X9.4722Y-2.9443
T3
X2.2703Y-1.75
X2.3451Y-1.75
X2.075Y-1.75
X2.1498Y-1.75
T4
X8.35Y-4.6031
X8.35Y-4.8
X1.6Y-2.3
X1.6Y-2.4
X1.6Y-2.5
X1.6Y-2.6
X1.6Y-2.7
X1.6Y-2.8
X1.6Y-2.9
X1.6Y-3.0
X1.9Y-2.3
X1.9Y-2.4
X1.9Y-2.5
X1.9Y-2.6
X1.9Y-2.7
X1.9Y-2.8
X1.9Y-2.9
X1.9Y-3.0
X1.7Y-4.2
X1.8969Y-4.2
X5.4Y-2.3
X5.4Y-2.4
X5.4Y-2.5
X5.4Y-2.6
X5.4Y-2.7
X5.4Y-2.8
X5.4Y-2.9
X5.4Y-3.0
X5.7Y-2.3
X5.7Y-2.4
X5.7Y-2.5
X5.7Y-2.6
X5.7Y-2.7
X5.7Y-2.8
X5.7Y-2.9
X5.7Y-3.0
X8.05Y-1.525
X8.2469Y-1.525
X2.5Y-1.6
X2.6Y-1.6
X2.7Y-1.6
X2.8Y-1.6
X2.9Y-1.6
X3.0Y-1.6
X6.4Y-1.25
X6.4Y-1.65
X9.0Y-2.3
X9.0Y-2.4
X9.0Y-2.5
X9.0Y-2.6
X9.0Y-2.7
X9.0Y-2.8
X9.0Y-2.9
X9.0Y-3.0
X9.3Y-2.3
X9.3Y-2.4
X9.3Y-2.5
X9.3Y-2.6
X9.3Y-2.7
X9.3Y-2.8
X9.3Y-2.9
X9.3Y-3.0
X8.5Y-5.4
X8.5Y-5.7
X8.6Y-5.4
X8.6Y-5.7
X8.7Y-5.4
X8.7Y-5.7
X8.8Y-5.4
X8.8Y-5.7
X8.9Y-5.4
X8.9Y-5.7
X9.0Y-5.4
X9.0Y-5.7
X9.1Y-5.4
X9.1Y-5.7
X9.2Y-5.4
X9.2Y-5.7
X4.45Y-6.3
X4.45Y-6.4969
X2.9Y-4.2
X3.0969Y-4.2
X3.85Y-1.1531
X3.85Y-1.35
X5.25Y-2.3
X5.25Y-2.4969
X5.4Y-3.325
X5.5969Y-3.325
X2.7Y-4.3
X2.7Y-4.6
X2.8Y-4.3
X2.8Y-4.6
X2.9Y-4.3
X2.9Y-4.6
X3.0Y-4.3
X3.0Y-4.6
X3.1Y-4.3
X3.1Y-4.6
X3.2Y-4.3
X3.2Y-4.6
X3.3Y-4.3
X3.3Y-4.6
X3.4Y-4.3
X3.4Y-4.6
X2.5Y-5.3531
X2.5Y-5.55
X4.8Y-3.2
X4.8Y-3.3
X4.8Y-3.4
X4.8Y-3.5
X4.8Y-3.6
X4.8Y-3.7
X4.8Y-3.8
X4.8Y-3.9
X5.1Y-3.2
X5.1Y-3.3
X5.1Y-3.4
X5.1Y-3.5
X5.1Y-3.6
X5.1Y-3.7
X5.1Y-3.8
X5.1Y-3.9
X2.0622Y-1.4
X2.2Y-1.4
X9.1Y-1.65
X9.1Y-1.95
X9.2Y-1.65
X9.2Y-1.95
X9.3Y-1.65
X9.3Y-1.95
X9.4Y-1.65
X9.4Y-1.95
X9.5Y-1.65
X9.5Y-1.95
X9.6Y-1.65
X9.6Y-1.95
X9.7Y-1.65
X9.7Y-1.95
X9.8Y-1.65
X9.8Y-1.95
X7.387Y-1.7047
X7.387Y-1.8969
X5.7Y-1.25
X5.7Y-1.65
X8.5Y-4.2
X8.5Y-4.5
X8.6Y-4.2
X8.6Y-4.5
X8.7Y-4.2
X8.7Y-4.5
X8.8Y-4.2
X8.8Y-4.5
X8.9Y-4.2
X8.9Y-4.5
X9.0Y-4.2
X9.0Y-4.5
X9.1Y-4.2
X9.1Y-4.5
X9.2Y-4.2
X9.2Y-4.5
X9.3Y-4.2
X9.3Y-4.5
X9.4Y-4.2
X9.4Y-4.5
X5.35Y-1.25
X5.35Y-1.65
X2.8Y-4.9
X2.8Y-5.0
X2.8Y-5.1
X2.8Y-5.2
X2.8Y-5.3
X2.8Y-5.4
X2.8Y-5.5
X2.8Y-5.6
X3.1Y-4.9
X3.1Y-5.0
X3.1Y-5.1
X3.1Y-5.2
X3.1Y-5.3
X3.1Y-5.4
X3.1Y-5.5
X3.1Y-5.6
X8.5Y-2.3
X8.5Y-2.4
X8.5Y-2.5
X8.5Y-2.6
X8.5Y-2.7
X8.5Y-2.8
X8.5Y-2.9
X8.5Y-3.0
X8.8Y-2.3
X8.8Y-2.4
X8.8Y-2.5
X8.8Y-2.6
X8.8Y-2.7
X8.8Y-2.8
X8.8Y-2.9
X8.8Y-3.0
X2.8Y-3.3
X2.8Y-3.4
X2.8Y-3.5
X2.8Y-3.6
X2.8Y-3.7
X2.8Y-3.8
X2.8Y-3.9
X2.8Y-4.0
X3.1Y-3.3
X3.1Y-3.4
X3.1Y-3.5
X3.1Y-3.6
X3.1Y-3.7
X3.1Y-3.8
X3.1Y-3.9
X3.1Y-4.0
X8.2Y-1.65
X8.2Y-1.95
X8.3Y-1.65
X8.3Y-1.95
X8.4Y-1.65
X8.4Y-1.95
X8.5Y-1.65
X8.5Y-1.95
X8.6Y-1.65
X8.6Y-1.95
X8.7Y-1.65
X8.7Y-1.95
X8.8Y-1.65
X8.8Y-1.95
X7.15Y-2.9031
X7.15Y-3.1
X7.6Y-4.05
X7.7969Y-4.05
X4.075Y-3.2
X4.075Y-3.3969
X4.075Y-2.3
X4.075Y-2.4969
X4.65Y-3.2
X4.65Y-3.3969
X2.2Y-4.0
X2.2Y-4.1
X2.2Y-4.2
X2.2Y-4.3
X2.2Y-4.4
X2.2Y-4.5
X2.2Y-4.6
X2.2Y-4.7
X2.2Y-4.8
X2.2Y-4.9
X2.5Y-4.0
X2.5Y-4.1
X2.5Y-4.2
X2.5Y-4.3
X2.5Y-4.4
X2.5Y-4.5
X2.5Y-4.6
X2.5Y-4.7
X2.5Y-4.8
X2.5Y-4.9
X7.5031Y-2.125
X7.7Y-2.125
X4.2Y-3.2
X4.2Y-3.3
X4.2Y-3.4
X4.2Y-3.5
X4.2Y-3.6
X4.2Y-3.7
X4.2Y-3.8
X4.2Y-3.9
X4.5Y-3.2
X4.5Y-3.3
X4.5Y-3.4
X4.5Y-3.5
X4.5Y-3.6
X4.5Y-3.7
X4.5Y-3.8
X4.5Y-3.9
X8.7Y-1.5
X8.7984Y-1.5
X6.25Y-1.25
X6.25Y-1.65
X1.0Y-1.7
X1.0Y-1.8
X1.0Y-1.9
X1.0Y-2.0
X1.0Y-2.1
X7.3Y-4.8
X7.3Y-5.1
X7.4Y-4.8
X7.4Y-5.1
X7.5Y-4.8
X7.5Y-5.1
X7.6Y-4.8
X7.6Y-5.1
X7.7Y-4.8
X7.7Y-5.1
X7.8Y-4.8
X7.8Y-5.1
X7.9Y-4.8
X7.9Y-5.1
X8.0Y-4.8
X8.0Y-5.1
X8.1Y-4.8
X8.1Y-5.1
X8.2Y-4.8
X8.2Y-5.1
X7.3Y-4.2
X7.3Y-4.5
X7.4Y-4.2
X7.4Y-4.5
X7.5Y-4.2
X7.5Y-4.5
X7.6Y-4.2
X7.6Y-4.5
X7.7Y-4.2
X7.7Y-4.5
X7.8Y-4.2
X7.8Y-4.5
X7.9Y-4.2
X7.9Y-4.5
X8.0Y-4.2
X8.0Y-4.5
X8.1Y-4.2
X8.1Y-4.5
X8.2Y-4.2
X8.2Y-4.5
X7.0Y-2.0031
X7.0Y-2.2
X6.75Y-6.3
X6.75Y-6.4969
X8.35Y-5.3031
X8.35Y-5.5
X2.3031Y-2.15
X2.5Y-2.15
X2.9031Y-2.15
X3.1Y-2.15
X6.0Y-2.3
X6.0Y-2.4
X6.0Y-2.5
X6.0Y-2.6
X6.0Y-2.7
X6.0Y-2.8
X6.0Y-2.9
X6.0Y-3.0
X6.3Y-2.3
X6.3Y-2.4
X6.3Y-2.5
X6.3Y-2.6
X6.3Y-2.7
X6.3Y-2.8
X6.3Y-2.9
X6.3Y-3.0
X8.0031Y-2.125
X8.2Y-2.125
X2.55Y-1.1
X2.95Y-1.1
X4.0Y-1.3
X4.0Y-1.6
X4.1Y-1.3
X4.1Y-1.6
X4.2Y-1.3
X4.2Y-1.6
X4.3Y-1.3
X4.3Y-1.6
X4.4Y-1.3
X4.4Y-1.6
X4.5Y-1.3
X4.5Y-1.6
X4.6Y-1.3
X4.6Y-1.6
X4.7Y-1.3
X4.7Y-1.6
X4.8Y-1.3
X4.8Y-1.6
X4.9Y-1.3
X4.9Y-1.6
X8.5Y-4.8
X8.5Y-5.1
X8.6Y-4.8
X8.6Y-5.1
X8.7Y-4.8
X8.7Y-5.1
X8.8Y-4.8
X8.8Y-5.1
X8.9Y-4.8
X8.9Y-5.1
X9.0Y-4.8
X9.0Y-5.1
X9.1Y-4.8
X9.1Y-5.1
X9.2Y-4.8
X9.2Y-5.1
X7.575Y-1.7
X7.975Y-1.7
X8.2Y-5.625
X8.2Y-5.725
X8.2Y-5.825
X8.2Y-5.925
X8.2Y-6.025
X1.6Y-3.3
X1.6Y-3.4
X1.6Y-3.5
X1.6Y-3.6
X1.6Y-3.7
X1.6Y-3.8
X1.6Y-3.9
X1.6Y-4.0
X1.9Y-3.3
X1.9Y-3.4
X1.9Y-3.5
X1.9Y-3.6
X1.9Y-3.7
X1.9Y-3.8
X1.9Y-3.9
X1.9Y-4.0
X5.4Y-3.5
X5.4Y-4.1
X5.5Y-3.5
X5.5Y-4.1
X5.6Y-3.5
X5.6Y-4.1
X5.7Y-3.5
X5.7Y-4.1
X5.8Y-3.5
X5.8Y-4.1
X5.9Y-3.5
X5.9Y-4.1
X6.0Y-3.5
X6.0Y-4.1
X6.1Y-3.5
X6.1Y-4.1
X6.2Y-3.5
X6.2Y-4.1
X6.3Y-3.5
X6.3Y-4.1
X6.4Y-3.5
X6.4Y-4.1
X6.5Y-3.5
X6.5Y-4.1
X6.6Y-3.5
X6.6Y-4.1
X6.7Y-3.5
X6.7Y-4.1
X5.2Y-1.25
X5.2Y-1.65
X4.6Y-6.3
X4.6Y-6.6
X4.7Y-6.3
X4.7Y-6.6
X4.8Y-6.3
X4.8Y-6.6
X4.9Y-6.3
X4.9Y-6.6
X5.0Y-6.3
X5.0Y-6.6
X5.1Y-6.3
X5.1Y-6.6
X5.2Y-6.3
X5.2Y-6.6
X5.3Y-6.3
X5.3Y-6.6
X1.7031Y-3.15
X1.9Y-3.15
X8.8Y-4.05
X8.9969Y-4.05
X2.5Y-3.6531
X2.5Y-3.85
X4.65Y-2.3
X4.65Y-2.4969
X1.7031Y-4.75
X1.9Y-4.75
X1.3Y-4.3
X1.3Y-4.6
X1.4Y-4.3
X1.4Y-4.6
X1.5Y-4.3
X1.5Y-4.6
X1.6Y-4.3
X1.6Y-4.6
X1.7Y-4.3
X1.7Y-4.6
X1.8Y-4.3
X1.8Y-4.6
X1.9Y-4.3
X1.9Y-4.6
X2.0Y-4.3
X2.0Y-4.6
X8.5031Y-2.125
X8.7Y-2.125
X7.4Y-3.3
X7.4Y-3.9
X7.5Y-3.3
X7.5Y-3.9
X7.6Y-3.3
X7.6Y-3.9
X7.7Y-3.3
X7.7Y-3.9
X7.8Y-3.3
X7.8Y-3.9
X7.9Y-3.3
X7.9Y-3.9
X8.0Y-3.3
X8.0Y-3.9
X8.1Y-3.3
X8.1Y-3.9
X8.2Y-3.3
X8.2Y-3.9
X8.3Y-3.3
X8.3Y-3.9
X8.4Y-3.3
X8.4Y-3.9
X8.5Y-3.3
X8.5Y-3.9
X8.6Y-3.3
X8.6Y-3.9
X8.7Y-3.3
X8.7Y-3.9
X8.8Y-3.3
X8.8Y-3.9
X8.9Y-3.3
X8.9Y-3.9
X9.0Y-3.3
X9.0Y-3.9
X9.1Y-3.3
X9.1Y-3.9
X9.2Y-3.3
X9.2Y-3.9
X9.3Y-3.3
X9.3Y-3.9
X5.3Y-4.8
X5.3Y-5.1
X5.4Y-4.8
X5.4Y-5.1
X5.5Y-4.8
X5.5Y-5.1
X5.6Y-4.8
X5.6Y-5.1
X5.7Y-4.8
X5.7Y-5.1
X5.8Y-4.8
X5.8Y-5.1
X5.9Y-4.8
X5.9Y-5.1
X7.1016Y-1.7
X7.2Y-1.7
X9.4Y-1.5
X9.8Y-1.5
X6.9Y-6.3
X6.9Y-6.6
X7.0Y-6.3
X7.0Y-6.6
X7.1Y-6.3
X7.1Y-6.6
X7.2Y-6.3
X7.2Y-6.6
X7.3Y-6.3
X7.3Y-6.6
X7.4Y-6.3
X7.4Y-6.6
X7.5Y-6.3
X7.5Y-6.6
X7.6Y-6.3
X7.6Y-6.6
X7.9Y-2.3
X7.9Y-2.4
X7.9Y-2.5
X7.9Y-2.6
X7.9Y-2.7
X7.9Y-2.8
X7.9Y-2.9
X7.9Y-3.0
X8.2Y-2.3
X8.2Y-2.4
X8.2Y-2.5
X8.2Y-2.6
X8.2Y-2.7
X8.2Y-2.8
X8.2Y-2.9
X8.2Y-3.0
X6.45Y-6.175
X6.45Y-6.575
X3.9Y-5.5
X3.9Y-5.6
X3.9Y-5.7
X3.9Y-5.8
X3.9Y-5.9
X3.9Y-6.0
X3.9Y-6.1
X3.9Y-6.2
X3.9Y-6.3
X3.9Y-6.4
X4.2Y-5.5
X4.2Y-5.6
X4.2Y-5.7
X4.2Y-5.8
X4.2Y-5.9
X4.2Y-6.0
X4.2Y-6.1
X4.2Y-6.2
X4.2Y-6.3
X4.2Y-6.4
X1.7031Y-2.15
X1.9Y-2.15
X2.8Y-1.35
X2.9969Y-1.35
X2.9Y-4.75
X3.0969Y-4.75
X1.7031Y-5.75
X1.9Y-5.75
X6.6Y-2.3
X6.6Y-2.4
X6.6Y-2.5
X6.6Y-2.6
X6.6Y-2.7
X6.6Y-2.8
X6.6Y-2.9
X6.6Y-3.0
X6.6Y-3.1
X6.6Y-3.2
X6.9Y-2.3
X6.9Y-2.4
X6.9Y-2.5
X6.9Y-2.6
X6.9Y-2.7
X6.9Y-2.8
X6.9Y-2.9
X6.9Y-3.0
X6.9Y-3.1
X6.9Y-3.2
X7.1Y-4.6
X7.1Y-4.7969
X2.2Y-5.7
X2.2Y-5.8
X2.2Y-5.9
X2.2Y-6.0
X2.2Y-6.1
X2.2Y-6.2
X2.2Y-6.3
X2.2Y-6.4
X2.2Y-6.5
X2.2Y-6.6
X2.5Y-5.7
X2.5Y-5.8
X2.5Y-5.9
X2.5Y-6.0
X2.5Y-6.1
X2.5Y-6.2
X2.5Y-6.3
X2.5Y-6.4
X2.5Y-6.5
X2.5Y-6.6
X9.0031Y-2.125
X9.2Y-2.125
X2.2Y-2.3
X2.2Y-2.4
X2.2Y-2.5
X2.2Y-2.6
X2.2Y-2.7
X2.2Y-2.8
X2.2Y-2.9
X2.2Y-3.0
X2.2Y-3.1
X2.2Y-3.2
X2.5Y-2.3
X2.5Y-2.4
X2.5Y-2.5
X2.5Y-2.6
X2.5Y-2.7
X2.5Y-2.8
X2.5Y-2.9
X2.5Y-3.0
X2.5Y-3.1
X2.5Y-3.2
X7.1016Y-1.9
X7.2Y-1.9
X2.8Y-2.3
X2.8Y-2.4
X2.8Y-2.5
X2.8Y-2.6
X2.8Y-2.7
X2.8Y-2.8
X2.8Y-2.9
X2.8Y-3.0
X3.1Y-2.3
X3.1Y-2.4
X3.1Y-2.5
X3.1Y-2.6
X3.1Y-2.7
X3.1Y-2.8
X3.1Y-2.9
X3.1Y-3.0
X5.9Y-1.25
X5.9Y-1.65
X6.65Y-1.25
X6.65Y-1.65
X7.4Y-2.3
X7.4Y-2.4
X7.4Y-2.5
X7.4Y-2.6
X7.4Y-2.7
X7.4Y-2.8
X7.4Y-2.9
X7.4Y-3.0
X7.7Y-2.3
X7.7Y-2.4
X7.7Y-2.5
X7.7Y-2.6
X7.7Y-2.7
X7.7Y-2.8
X7.7Y-2.9
X7.7Y-3.0
X6.45Y-5.65
X6.45Y-5.75
X6.45Y-5.85
X6.45Y-5.95
X6.45Y-6.05
X2.8Y-5.9
X2.8Y-6.0
X2.8Y-6.1
X2.8Y-6.2
X2.8Y-6.3
X2.8Y-6.4
X2.8Y-6.5
X2.8Y-6.6
X3.1Y-5.9
X3.1Y-6.0
X3.1Y-6.1
X3.1Y-6.2
X3.1Y-6.3
X3.1Y-6.4
X3.1Y-6.5
X3.1Y-6.6
X4.0781Y-5.25
X4.275Y-5.25
X5.15Y-4.8
X5.15Y-4.9969
X2.9031Y-5.75
X3.1Y-5.75
X4.2Y-2.3
X4.2Y-2.4
X4.2Y-2.5
X4.2Y-2.6
X4.2Y-2.7
X4.2Y-2.8
X4.2Y-2.9
X4.2Y-3.0
X4.5Y-2.3
X4.5Y-2.4
X4.5Y-2.5
X4.5Y-2.6
X4.5Y-2.7
X4.5Y-2.8
X4.5Y-2.9
X4.5Y-3.0
X4.8Y-2.3
X4.8Y-2.4
X4.8Y-2.5
X4.8Y-2.6
X4.8Y-2.7
X4.8Y-2.8
X4.8Y-2.9
X4.8Y-3.0
X5.1Y-2.3
X5.1Y-2.4
X5.1Y-2.5
X5.1Y-2.6
X5.1Y-2.7
X5.1Y-2.8
X5.1Y-2.9
X5.1Y-3.0
X9.1Y-1.5
X9.2969Y-1.5
X7.575Y-1.9
X7.975Y-1.9
X6.25Y-4.95
X6.65Y-4.95
X7.2Y-2.1
X7.2Y-2.2
X7.2Y-2.3
X6.05Y-1.25
X6.05Y-1.65
X1.6Y-4.9
X1.6Y-5.0
X1.6Y-5.1
X1.6Y-5.2
X1.6Y-5.3
X1.6Y-5.4
X1.6Y-5.5
X1.6Y-5.6
X1.9Y-4.9
X1.9Y-5.0
X1.9Y-5.1
X1.9Y-5.2
X1.9Y-5.3
X1.9Y-5.4
X1.9Y-5.5
X1.9Y-5.6
X5.55Y-1.25
X5.55Y-1.65
X1.6Y-5.9
X1.6Y-6.0
X1.6Y-6.1
X1.6Y-6.2
X1.6Y-6.3
X1.6Y-6.4
X1.6Y-6.5
X1.6Y-6.6
X1.9Y-5.9
X1.9Y-6.0
X1.9Y-6.1
X1.9Y-6.2
X1.9Y-6.3
X1.9Y-6.4
X1.9Y-6.5
X1.9Y-6.6
X5.85Y-2.3
X5.85Y-2.4969
X2.9031Y-3.15
X3.1Y-3.15
X2.5031Y-1.35
X2.7Y-1.35
T6
X5.65Y-6.1
X5.75Y-6.1
X6.15Y-6.45
X6.25Y-6.45
X7.65Y-5.95
X7.75Y-5.95
X7.4Y-6.1
X7.5Y-6.1
X1.6Y-1.7
X1.6Y-1.8
X5.65Y-6.25
X5.75Y-6.25
X5.4Y-5.8
X5.5Y-5.8
X7.15Y-6.1
X7.25Y-6.1
X7.9Y-5.65
X8.0Y-5.65
X6.825Y-1.7
X6.825Y-1.8
X6.15Y-5.95
X6.25Y-5.95
X6.9Y-6.1
X7.0Y-6.1
X5.4Y-5.95
X5.5Y-5.95
X5.15Y-5.95
X5.25Y-5.95
X7.9Y-5.8
X8.0Y-5.8
X6.9Y-5.8
X7.0Y-5.8
X1.8Y-1.7
X1.8Y-1.8
X4.9Y-5.8
X5.0Y-5.8
X4.65Y-5.8
X4.75Y-5.8
X7.4Y-5.65
X7.5Y-5.65
X4.4Y-5.95
X4.5Y-5.95
X7.9Y-5.95
X8.0Y-5.95
X4.4Y-5.8
X4.5Y-5.8
X6.25Y-4.8
X6.55Y-4.8
X6.65Y-6.1
X6.75Y-6.1
X1.2Y-1.7
X1.2Y-1.8
X7.15Y-5.65
X7.25Y-5.65
X4.9Y-5.95
X5.0Y-5.95
X7.4Y-5.8
X7.5Y-5.8
X6.25Y-5.1
X6.55Y-5.1
X1.4Y-1.7
X1.4Y-1.8
X5.15Y-6.1
X5.25Y-6.1
X6.15Y-6.25
X6.25Y-6.25
X4.9Y-6.1
X5.0Y-6.1
X5.65Y-6.45
X5.75Y-6.45
T7
X5.8Y-3.325
X1.652Y-1.4028
X1.852Y-1.4031
X7.1799Y-1.147
X7.225Y-1.0691
X7.225Y-1.225
X7.2701Y-1.147
X7.3152Y-1.0691
X7.3152Y-1.225
X7.3602Y-1.147
X7.4053Y-1.0691
X7.4053Y-1.225
X7.4504Y-1.147
X7.4955Y-1.0691
X7.4955Y-1.225
X7.5406Y-1.147
X7.5856Y-1.0691
X7.5856Y-1.225
X8.9Y-1.25
X8.9545Y-1.1382
X9.0091Y-1.25
X9.0636Y-1.1382
X9.1181Y-1.25
X9.1726Y-1.1382
X9.2272Y-1.25
X9.2817Y-1.1382
X9.3362Y-1.25
T8
X3.2031Y-1.0287
X3.2031Y-1.1272
X3.4Y-1.324
X3.5969Y-1.0287
X3.5969Y-1.1272
X1.625Y-1.1
X2.125Y-1.1
T9
X3.2031Y-1.324
X3.3213Y-1.324
X3.4Y-1.1272
X3.4787Y-1.324
X3.5969Y-1.324
T10
X6.9028Y-1.1443
X7.887Y-1.1443
X8.626Y-1.2382
X9.6102Y-1.2382
T2
G00X1.1474Y-1.011
M15
G01X1.1474Y-0.9854
M16
G05
G00X1.4526Y-1.011
M15
G01X1.4526Y-0.9854
M16
G05
T5
G00X1.1533Y-1.1587
M15
G01X1.1533Y-1.137
M16
G05
G00X1.4467Y-1.1587
M15
G01X1.4467Y-1.137
M16
G05
T0
M30
