%TF.GenerationSoftware,KiCad,Pcbnew,(5.1.6)-1*%
%TF.CreationDate,2020-07-17T12:20:37+01:00*%
%TF.ProjectId,Gigatron,47696761-7472-46f6-9e2e-6b696361645f,rev?*%
%TF.SameCoordinates,Original*%
%TF.FileFunction,Copper,L1,Top*%
%TF.FilePolarity,Positive*%
%FSLAX46Y46*%
G04 Gerber Fmt 4.6, Leading zero omitted, Abs format (unit mm)*
G04 Created by KiCad (PCBNEW (5.1.6)-1) date 2020-07-17 12:20:37*
%MOMM*%
%LPD*%
G01*
G04 APERTURE LIST*
%TA.AperFunction,ComponentPad*%
%ADD10O,1.150000X1.800000*%
%TD*%
%TA.AperFunction,ComponentPad*%
%ADD11O,1.450000X2.000000*%
%TD*%
%TA.AperFunction,SMDPad,CuDef*%
%ADD12R,0.450000X1.300000*%
%TD*%
%TA.AperFunction,ComponentPad*%
%ADD13C,4.000000*%
%TD*%
%TA.AperFunction,ComponentPad*%
%ADD14C,1.600000*%
%TD*%
%TA.AperFunction,ComponentPad*%
%ADD15R,1.600000X1.600000*%
%TD*%
%TA.AperFunction,ComponentPad*%
%ADD16O,1.600000X1.600000*%
%TD*%
%TA.AperFunction,ComponentPad*%
%ADD17C,1.500000*%
%TD*%
%TA.AperFunction,ComponentPad*%
%ADD18R,1.500000X1.500000*%
%TD*%
%TA.AperFunction,ComponentPad*%
%ADD19C,2.000000*%
%TD*%
%TA.AperFunction,ComponentPad*%
%ADD20O,1.800000X1.800000*%
%TD*%
%TA.AperFunction,ComponentPad*%
%ADD21R,1.800000X1.800000*%
%TD*%
%TA.AperFunction,ComponentPad*%
%ADD22O,2.400000X2.400000*%
%TD*%
%TA.AperFunction,ComponentPad*%
%ADD23R,2.400000X2.400000*%
%TD*%
%TA.AperFunction,ComponentPad*%
%ADD24O,1.400000X1.400000*%
%TD*%
%TA.AperFunction,ComponentPad*%
%ADD25C,1.400000*%
%TD*%
%TA.AperFunction,ComponentPad*%
%ADD26C,2.550000*%
%TD*%
%TA.AperFunction,ComponentPad*%
%ADD27C,2.400000*%
%TD*%
%TA.AperFunction,ComponentPad*%
%ADD28C,0.600000*%
%TD*%
%TA.AperFunction,ComponentPad*%
%ADD29C,1.800000*%
%TD*%
%TA.AperFunction,ViaPad*%
%ADD30C,0.600000*%
%TD*%
%TA.AperFunction,Conductor*%
%ADD31C,0.250000*%
%TD*%
%TA.AperFunction,Conductor*%
%ADD32C,0.400000*%
%TD*%
G04 APERTURE END LIST*
D10*
%TO.P,J1,6*%
%TO.N,N/C*%
X29145000Y-25355000D03*
X36895000Y-25355000D03*
D11*
X29295000Y-29155000D03*
X36745000Y-29155000D03*
D12*
%TO.P,J1,5*%
%TO.N,GND*%
X31720000Y-29205000D03*
%TO.P,J1,4*%
X32370000Y-29205000D03*
%TO.P,J1,3*%
%TO.N,N/C*%
X33020000Y-29205000D03*
%TO.P,J1,2*%
X33670000Y-29205000D03*
%TO.P,J1,1*%
%TO.N,/PCR/+5V*%
X34320000Y-29205000D03*
%TD*%
D13*
%TO.P,J3,0*%
%TO.N,GND*%
X175330000Y-29065000D03*
X200330000Y-29065000D03*
D14*
%TO.P,J3,15*%
%TO.N,N/C*%
X192675000Y-27155000D03*
%TO.P,J3,14*%
%TO.N,SER_LATCH*%
X190385000Y-27155000D03*
%TO.P,J3,13*%
%TO.N,SER_PULSE*%
X188095000Y-27155000D03*
%TO.P,J3,12*%
%TO.N,N/C*%
X185805000Y-27155000D03*
%TO.P,J3,11*%
X183515000Y-27155000D03*
%TO.P,J3,10*%
%TO.N,GND*%
X191530000Y-29135000D03*
%TO.P,J3,9*%
%TO.N,N/C*%
X189240000Y-29135000D03*
%TO.P,J3,8*%
%TO.N,GND*%
X186950000Y-29135000D03*
%TO.P,J3,7*%
X184660000Y-29135000D03*
%TO.P,J3,6*%
X182370000Y-29135000D03*
%TO.P,J3,5*%
X192675000Y-31115000D03*
%TO.P,J3,4*%
%TO.N,N/C*%
X190385000Y-31115000D03*
%TO.P,J3,3*%
%TO.N,/PER/BLUE*%
X188095000Y-31115000D03*
%TO.P,J3,2*%
%TO.N,/PER/GREEN*%
X185805000Y-31115000D03*
D15*
%TO.P,J3,1*%
%TO.N,/PER/RED*%
X183515000Y-31115000D03*
%TD*%
D13*
%TO.P,J4,0*%
%TO.N,GND*%
X219100000Y-31450000D03*
X244100000Y-31450000D03*
D14*
%TO.P,J4,9*%
%TO.N,N/C*%
X235755000Y-28910000D03*
%TO.P,J4,8*%
%TO.N,GND*%
X232985000Y-28910000D03*
%TO.P,J4,7*%
%TO.N,N/C*%
X230215000Y-28910000D03*
%TO.P,J4,6*%
%TO.N,VCC*%
X227445000Y-28910000D03*
%TO.P,J4,5*%
%TO.N,N/C*%
X237140000Y-31750000D03*
%TO.P,J4,4*%
%TO.N,SER_PULSE*%
X234370000Y-31750000D03*
%TO.P,J4,3*%
%TO.N,SER_LATCH*%
X231600000Y-31750000D03*
%TO.P,J4,2*%
%TO.N,SER_DATA*%
X228830000Y-31750000D03*
D15*
%TO.P,J4,1*%
%TO.N,N/C*%
X226060000Y-31750000D03*
%TD*%
D16*
%TO.P,R19,2*%
%TO.N,SER_DATA*%
X238760000Y-38100000D03*
D14*
%TO.P,R19,1*%
%TO.N,VCC*%
X248920000Y-38100000D03*
%TD*%
D16*
%TO.P,R10,2*%
%TO.N,GND*%
X64770000Y-27940000D03*
D14*
%TO.P,R10,1*%
%TO.N,Net-(C44-Pad1)*%
X74930000Y-27940000D03*
%TD*%
D16*
%TO.P,R7,2*%
%TO.N,VCC*%
X158750000Y-125730000D03*
D14*
%TO.P,R7,1*%
%TO.N,~PL*%
X168910000Y-125730000D03*
%TD*%
D16*
%TO.P,R6,2*%
%TO.N,Net-(D21-Pad2)*%
X163830000Y-167005000D03*
D14*
%TO.P,R6,1*%
%TO.N,VCC*%
X163830000Y-156845000D03*
%TD*%
D16*
%TO.P,R3,2*%
%TO.N,GND*%
X168910000Y-31750000D03*
D14*
%TO.P,R3,1*%
%TO.N,Net-(D2-Pad1)*%
X168910000Y-41910000D03*
%TD*%
%TO.P,C3,2*%
%TO.N,GND*%
X223480000Y-38100000D03*
%TO.P,C3,1*%
%TO.N,Net-(C3-Pad1)*%
X220980000Y-38100000D03*
%TD*%
%TO.P,C2,2*%
%TO.N,GND*%
X180380000Y-43180000D03*
%TO.P,C2,1*%
%TO.N,Net-(C2-Pad1)*%
X182880000Y-43180000D03*
%TD*%
%TO.P,C1,2*%
%TO.N,GND*%
X180380000Y-48260000D03*
%TO.P,C1,1*%
%TO.N,Net-(C1-Pad1)*%
X182880000Y-48260000D03*
%TD*%
D17*
%TO.P,Y1,2*%
%TO.N,Net-(C2-Pad1)*%
X187630000Y-43300000D03*
%TO.P,Y1,1*%
%TO.N,Net-(C1-Pad1)*%
X187630000Y-48180000D03*
%TD*%
D18*
%TO.P,U2,1*%
%TO.N,~RST*%
X182880000Y-58420000D03*
D17*
%TO.P,U2,3*%
%TO.N,GND*%
X182880000Y-53340000D03*
%TO.P,U2,2*%
%TO.N,VCC*%
X182880000Y-55880000D03*
%TD*%
D16*
%TO.P,R18,2*%
%TO.N,OUT7*%
X162560000Y-41910000D03*
D14*
%TO.P,R18,1*%
%TO.N,SER_LATCH*%
X162560000Y-31750000D03*
%TD*%
D16*
%TO.P,R17,2*%
%TO.N,OUT6*%
X158750000Y-41910000D03*
D14*
%TO.P,R17,1*%
%TO.N,SER_PULSE*%
X158750000Y-31750000D03*
%TD*%
D16*
%TO.P,R16,2*%
%TO.N,OUT5*%
X153670000Y-41910000D03*
D14*
%TO.P,R16,1*%
%TO.N,/PER/BLUE*%
X153670000Y-31750000D03*
%TD*%
D16*
%TO.P,R15,2*%
%TO.N,OUT4*%
X149860000Y-41910000D03*
D14*
%TO.P,R15,1*%
%TO.N,/PER/BLUE*%
X149860000Y-31750000D03*
%TD*%
D16*
%TO.P,R14,2*%
%TO.N,OUT3*%
X144780000Y-41910000D03*
D14*
%TO.P,R14,1*%
%TO.N,/PER/GREEN*%
X144780000Y-31750000D03*
%TD*%
D16*
%TO.P,R13,2*%
%TO.N,OUT2*%
X140970000Y-41910000D03*
D14*
%TO.P,R13,1*%
%TO.N,/PER/GREEN*%
X140970000Y-31750000D03*
%TD*%
D16*
%TO.P,R12,2*%
%TO.N,OUT1*%
X135890000Y-41910000D03*
D14*
%TO.P,R12,1*%
%TO.N,/PER/RED*%
X135890000Y-31750000D03*
%TD*%
D16*
%TO.P,R11,2*%
%TO.N,OUT0*%
X132080000Y-41910000D03*
D14*
%TO.P,R11,1*%
%TO.N,/PER/RED*%
X132080000Y-31750000D03*
%TD*%
D16*
%TO.P,R9,6*%
%TO.N,GND*%
X76200000Y-40640000D03*
%TO.P,R9,5*%
%TO.N,Net-(R9-Pad5)*%
X73660000Y-40640000D03*
%TO.P,R9,4*%
%TO.N,Net-(R9-Pad4)*%
X71120000Y-40640000D03*
%TO.P,R9,3*%
%TO.N,Net-(R9-Pad3)*%
X68580000Y-40640000D03*
%TO.P,R9,2*%
%TO.N,Net-(R9-Pad2)*%
X66040000Y-40640000D03*
D15*
%TO.P,R9,1*%
%TO.N,Net-(C43-Pad1)*%
X63500000Y-40640000D03*
%TD*%
D16*
%TO.P,R8,5*%
%TO.N,Net-(D8-Pad1)*%
X25400000Y-43180000D03*
%TO.P,R8,4*%
%TO.N,Net-(D5-Pad1)*%
X25400000Y-45720000D03*
%TO.P,R8,3*%
%TO.N,Net-(D6-Pad1)*%
X25400000Y-48260000D03*
%TO.P,R8,2*%
%TO.N,Net-(D7-Pad1)*%
X25400000Y-50800000D03*
D15*
%TO.P,R8,1*%
%TO.N,GND*%
X25400000Y-53340000D03*
%TD*%
D16*
%TO.P,R5,5*%
%TO.N,Net-(D23-Pad2)*%
X163830000Y-143510000D03*
%TO.P,R5,4*%
%TO.N,Net-(D22-Pad2)*%
X163830000Y-146050000D03*
%TO.P,R5,3*%
%TO.N,Net-(D25-Pad2)*%
X163830000Y-148590000D03*
%TO.P,R5,2*%
%TO.N,Net-(D32-Pad2)*%
X163830000Y-151130000D03*
D15*
%TO.P,R5,1*%
%TO.N,VCC*%
X163830000Y-153670000D03*
%TD*%
D16*
%TO.P,R4,5*%
%TO.N,EH*%
X208280000Y-142875000D03*
%TO.P,R4,4*%
%TO.N,EL*%
X208280000Y-145415000D03*
%TO.P,R4,3*%
%TO.N,Net-(D17-Pad2)*%
X208280000Y-147955000D03*
%TO.P,R4,2*%
%TO.N,Net-(D10-Pad2)*%
X208280000Y-150495000D03*
D15*
%TO.P,R4,1*%
%TO.N,VCC*%
X208280000Y-153035000D03*
%TD*%
D16*
%TO.P,R2,2*%
%TO.N,Net-(R1-Pad1)*%
X202565000Y-43180000D03*
D14*
%TO.P,R2,1*%
%TO.N,Net-(C2-Pad1)*%
X192405000Y-43180000D03*
%TD*%
D16*
%TO.P,R1,2*%
%TO.N,Net-(C1-Pad1)*%
X192405000Y-48260000D03*
D14*
%TO.P,R1,1*%
%TO.N,Net-(R1-Pad1)*%
X202565000Y-48260000D03*
%TD*%
D19*
%TO.P,F1,2*%
%TO.N,/PCR/+5V*%
X41960000Y-35630000D03*
%TO.P,F1,1*%
%TO.N,VCC*%
X47040000Y-35640000D03*
%TD*%
D20*
%TO.P,D36,2*%
%TO.N,Net-(D22-Pad2)*%
X156210000Y-151130000D03*
D21*
%TO.P,D36,1*%
%TO.N,/CU/~J*%
X158750000Y-151130000D03*
%TD*%
D20*
%TO.P,D35,2*%
%TO.N,Net-(D32-Pad2)*%
X156210000Y-158750000D03*
D21*
%TO.P,D35,1*%
%TO.N,/CU/~J*%
X158750000Y-158750000D03*
%TD*%
D20*
%TO.P,D34,2*%
%TO.N,Net-(D21-Pad2)*%
X156210000Y-163830000D03*
D21*
%TO.P,D34,1*%
%TO.N,/CU/~J*%
X158750000Y-163830000D03*
%TD*%
D20*
%TO.P,D33,2*%
%TO.N,Net-(D25-Pad2)*%
X143510000Y-154940000D03*
D21*
%TO.P,D33,1*%
%TO.N,Net-(D32-Pad1)*%
X146050000Y-154940000D03*
%TD*%
D20*
%TO.P,D32,2*%
%TO.N,Net-(D32-Pad2)*%
X143510000Y-158750000D03*
D21*
%TO.P,D32,1*%
%TO.N,Net-(D32-Pad1)*%
X146050000Y-158750000D03*
%TD*%
D20*
%TO.P,D31,2*%
%TO.N,Net-(D23-Pad2)*%
X137160000Y-147320000D03*
D21*
%TO.P,D31,1*%
%TO.N,Net-(D30-Pad1)*%
X139700000Y-147320000D03*
%TD*%
D20*
%TO.P,D30,2*%
%TO.N,Net-(D22-Pad2)*%
X137160000Y-151130000D03*
D21*
%TO.P,D30,1*%
%TO.N,Net-(D30-Pad1)*%
X139700000Y-151130000D03*
%TD*%
D20*
%TO.P,D29,2*%
%TO.N,Net-(D22-Pad2)*%
X130810000Y-151130000D03*
D21*
%TO.P,D29,1*%
%TO.N,Net-(D28-Pad1)*%
X133350000Y-151130000D03*
%TD*%
D20*
%TO.P,D28,2*%
%TO.N,Net-(D25-Pad2)*%
X130810000Y-154940000D03*
D21*
%TO.P,D28,1*%
%TO.N,Net-(D28-Pad1)*%
X133350000Y-154940000D03*
%TD*%
D20*
%TO.P,D27,2*%
%TO.N,Net-(D23-Pad2)*%
X124460000Y-147320000D03*
D21*
%TO.P,D27,1*%
%TO.N,Net-(D25-Pad1)*%
X127000000Y-147320000D03*
%TD*%
D20*
%TO.P,D26,2*%
%TO.N,Net-(D22-Pad2)*%
X124460000Y-151130000D03*
D21*
%TO.P,D26,1*%
%TO.N,Net-(D25-Pad1)*%
X127000000Y-151130000D03*
%TD*%
D20*
%TO.P,D25,2*%
%TO.N,Net-(D25-Pad2)*%
X124460000Y-154940000D03*
D21*
%TO.P,D25,1*%
%TO.N,Net-(D25-Pad1)*%
X127000000Y-154940000D03*
%TD*%
D20*
%TO.P,D24,2*%
%TO.N,Net-(D23-Pad2)*%
X118110000Y-147320000D03*
D21*
%TO.P,D24,1*%
%TO.N,Net-(D24-Pad1)*%
X120650000Y-147320000D03*
%TD*%
D20*
%TO.P,D23,2*%
%TO.N,Net-(D23-Pad2)*%
X111760000Y-147320000D03*
D21*
%TO.P,D23,1*%
%TO.N,Net-(D22-Pad1)*%
X114300000Y-147320000D03*
%TD*%
D20*
%TO.P,D22,2*%
%TO.N,Net-(D22-Pad2)*%
X111760000Y-151130000D03*
D21*
%TO.P,D22,1*%
%TO.N,Net-(D22-Pad1)*%
X114300000Y-151130000D03*
%TD*%
D20*
%TO.P,D21,2*%
%TO.N,Net-(D21-Pad2)*%
X143510000Y-163830000D03*
D21*
%TO.P,D21,1*%
%TO.N,IR7*%
X146050000Y-163830000D03*
%TD*%
D20*
%TO.P,D20,2*%
%TO.N,EH*%
X200660000Y-143510000D03*
D21*
%TO.P,D20,1*%
%TO.N,/CU/INV_A_IN*%
X203200000Y-143510000D03*
%TD*%
D20*
%TO.P,D19,2*%
%TO.N,EL*%
X200660000Y-147320000D03*
D21*
%TO.P,D19,1*%
%TO.N,/CU/INV_A_IN*%
X203200000Y-147320000D03*
%TD*%
D20*
%TO.P,D18,2*%
%TO.N,Net-(D17-Pad2)*%
X200660000Y-151130000D03*
D21*
%TO.P,D18,1*%
%TO.N,/CU/INV_A_IN*%
X203200000Y-151130000D03*
%TD*%
D20*
%TO.P,D17,2*%
%TO.N,Net-(D17-Pad2)*%
X194310000Y-151130000D03*
D21*
%TO.P,D17,1*%
%TO.N,Net-(D17-Pad1)*%
X196850000Y-151130000D03*
%TD*%
D20*
%TO.P,D16,2*%
%TO.N,EH*%
X187960000Y-143510000D03*
D21*
%TO.P,D16,1*%
%TO.N,Net-(D14-Pad1)*%
X190500000Y-143510000D03*
%TD*%
D20*
%TO.P,D15,2*%
%TO.N,EL*%
X187960000Y-147320000D03*
D21*
%TO.P,D15,1*%
%TO.N,Net-(D14-Pad1)*%
X190500000Y-147320000D03*
%TD*%
D20*
%TO.P,D14,2*%
%TO.N,Net-(D10-Pad2)*%
X187960000Y-154940000D03*
D21*
%TO.P,D14,1*%
%TO.N,Net-(D14-Pad1)*%
X190500000Y-154940000D03*
%TD*%
D20*
%TO.P,D13,2*%
%TO.N,EH*%
X181610000Y-143510000D03*
D21*
%TO.P,D13,1*%
%TO.N,Net-(D12-Pad1)*%
X184150000Y-143510000D03*
%TD*%
D20*
%TO.P,D12,2*%
%TO.N,Net-(D10-Pad2)*%
X181610000Y-154940000D03*
D21*
%TO.P,D12,1*%
%TO.N,Net-(D12-Pad1)*%
X184150000Y-154940000D03*
%TD*%
D20*
%TO.P,D11,2*%
%TO.N,EL*%
X175260000Y-147320000D03*
D21*
%TO.P,D11,1*%
%TO.N,Net-(D10-Pad1)*%
X177800000Y-147320000D03*
%TD*%
D20*
%TO.P,D10,2*%
%TO.N,Net-(D10-Pad2)*%
X175260000Y-154940000D03*
D21*
%TO.P,D10,1*%
%TO.N,Net-(D10-Pad1)*%
X177800000Y-154940000D03*
%TD*%
D20*
%TO.P,D9,2*%
%TO.N,Net-(D10-Pad2)*%
X168910000Y-154940000D03*
D21*
%TO.P,D9,1*%
%TO.N,Net-(D9-Pad1)*%
X171450000Y-154940000D03*
%TD*%
D20*
%TO.P,D4,2*%
%TO.N,~PL*%
X166370000Y-121920000D03*
D21*
%TO.P,D4,1*%
%TO.N,~PH*%
X158750000Y-121920000D03*
%TD*%
D20*
%TO.P,D3,2*%
%TO.N,~PL*%
X166370000Y-129540000D03*
D21*
%TO.P,D3,1*%
%TO.N,/CU/INV_C_OUT*%
X158750000Y-129540000D03*
%TD*%
D22*
%TO.P,D1,2*%
%TO.N,GND*%
X41275000Y-27940000D03*
D23*
%TO.P,D1,1*%
%TO.N,VCC*%
X53975000Y-27940000D03*
%TD*%
D14*
%TO.P,C44,2*%
%TO.N,Net-(C43-Pad1)*%
X63580000Y-34290000D03*
%TO.P,C44,1*%
%TO.N,Net-(C44-Pad1)*%
X68580000Y-34290000D03*
%TD*%
%TO.P,C43,2*%
%TO.N,GND*%
X76120000Y-34290000D03*
%TO.P,C43,1*%
%TO.N,Net-(C43-Pad1)*%
X71120000Y-34290000D03*
%TD*%
%TO.P,C42,2*%
%TO.N,GND*%
X97790000Y-29290000D03*
%TO.P,C42,1*%
%TO.N,VCC*%
X97790000Y-34290000D03*
%TD*%
%TO.P,C41,2*%
%TO.N,GND*%
X177800000Y-50880000D03*
%TO.P,C41,1*%
%TO.N,VCC*%
X177800000Y-55880000D03*
%TD*%
%TO.P,C40,2*%
%TO.N,GND*%
X148590000Y-63420000D03*
%TO.P,C40,1*%
%TO.N,VCC*%
X148590000Y-58420000D03*
%TD*%
%TO.P,C39,2*%
%TO.N,GND*%
X142160000Y-84455000D03*
%TO.P,C39,1*%
%TO.N,VCC*%
X137160000Y-84455000D03*
%TD*%
%TO.P,C38,2*%
%TO.N,GND*%
X133350000Y-63420000D03*
%TO.P,C38,1*%
%TO.N,VCC*%
X133350000Y-58420000D03*
%TD*%
%TO.P,C37,2*%
%TO.N,GND*%
X118110000Y-63420000D03*
%TO.P,C37,1*%
%TO.N,VCC*%
X118110000Y-58420000D03*
%TD*%
%TO.P,C36,2*%
%TO.N,GND*%
X118110000Y-86280000D03*
%TO.P,C36,1*%
%TO.N,VCC*%
X118110000Y-81280000D03*
%TD*%
%TO.P,C35,2*%
%TO.N,GND*%
X103505000Y-86280000D03*
%TO.P,C35,1*%
%TO.N,VCC*%
X103505000Y-81280000D03*
%TD*%
%TO.P,C34,2*%
%TO.N,GND*%
X103505000Y-63420000D03*
%TO.P,C34,1*%
%TO.N,VCC*%
X103505000Y-58420000D03*
%TD*%
%TO.P,C33,2*%
%TO.N,GND*%
X73740000Y-54610000D03*
%TO.P,C33,1*%
%TO.N,VCC*%
X78740000Y-54610000D03*
%TD*%
%TO.P,C32,2*%
%TO.N,GND*%
X58500000Y-54610000D03*
%TO.P,C32,1*%
%TO.N,VCC*%
X63500000Y-54610000D03*
%TD*%
%TO.P,C31,2*%
%TO.N,GND*%
X43260000Y-54610000D03*
%TO.P,C31,1*%
%TO.N,VCC*%
X48260000Y-54610000D03*
%TD*%
%TO.P,C30,2*%
%TO.N,GND*%
X73740000Y-80010000D03*
%TO.P,C30,1*%
%TO.N,VCC*%
X78740000Y-80010000D03*
%TD*%
%TO.P,C29,2*%
%TO.N,GND*%
X43260000Y-80010000D03*
%TO.P,C29,1*%
%TO.N,VCC*%
X48260000Y-80010000D03*
%TD*%
%TO.P,C28,2*%
%TO.N,GND*%
X48180000Y-106680000D03*
%TO.P,C28,1*%
%TO.N,VCC*%
X43180000Y-106680000D03*
%TD*%
%TO.P,C27,2*%
%TO.N,GND*%
X63500000Y-92790000D03*
%TO.P,C27,1*%
%TO.N,VCC*%
X63500000Y-97790000D03*
%TD*%
%TO.P,C26,2*%
%TO.N,GND*%
X78660000Y-106680000D03*
%TO.P,C26,1*%
%TO.N,VCC*%
X73660000Y-106680000D03*
%TD*%
%TO.P,C25,2*%
%TO.N,GND*%
X78660000Y-120650000D03*
%TO.P,C25,1*%
%TO.N,VCC*%
X73660000Y-120650000D03*
%TD*%
%TO.P,C24,2*%
%TO.N,GND*%
X43260000Y-120650000D03*
%TO.P,C24,1*%
%TO.N,VCC*%
X48260000Y-120650000D03*
%TD*%
%TO.P,C23,2*%
%TO.N,GND*%
X43260000Y-146050000D03*
%TO.P,C23,1*%
%TO.N,VCC*%
X48260000Y-146050000D03*
%TD*%
%TO.P,C22,2*%
%TO.N,GND*%
X63500000Y-135970000D03*
%TO.P,C22,1*%
%TO.N,VCC*%
X63500000Y-140970000D03*
%TD*%
%TO.P,C21,2*%
%TO.N,GND*%
X73740000Y-146050000D03*
%TO.P,C21,1*%
%TO.N,VCC*%
X78740000Y-146050000D03*
%TD*%
%TO.P,C20,2*%
%TO.N,GND*%
X103585000Y-133350000D03*
%TO.P,C20,1*%
%TO.N,VCC*%
X108585000Y-133350000D03*
%TD*%
%TO.P,C19,2*%
%TO.N,GND*%
X113030000Y-165020000D03*
%TO.P,C19,1*%
%TO.N,VCC*%
X113030000Y-160020000D03*
%TD*%
%TO.P,C18,2*%
%TO.N,GND*%
X130810000Y-126920000D03*
%TO.P,C18,1*%
%TO.N,VCC*%
X130810000Y-121920000D03*
%TD*%
%TO.P,C17,2*%
%TO.N,GND*%
X171450000Y-165020000D03*
%TO.P,C17,1*%
%TO.N,VCC*%
X171450000Y-160020000D03*
%TD*%
%TO.P,C16,2*%
%TO.N,GND*%
X212090000Y-134700000D03*
%TO.P,C16,1*%
%TO.N,VCC*%
X212090000Y-139700000D03*
%TD*%
%TO.P,C15,2*%
%TO.N,GND*%
X180340000Y-121840000D03*
%TO.P,C15,1*%
%TO.N,VCC*%
X180340000Y-116840000D03*
%TD*%
%TO.P,C14,2*%
%TO.N,GND*%
X212090000Y-116920000D03*
%TO.P,C14,1*%
%TO.N,VCC*%
X212090000Y-121920000D03*
%TD*%
%TO.P,C13,2*%
%TO.N,GND*%
X228520000Y-102870000D03*
%TO.P,C13,1*%
%TO.N,VCC*%
X223520000Y-102870000D03*
%TD*%
%TO.P,C12,2*%
%TO.N,GND*%
X198040000Y-102870000D03*
%TO.P,C12,1*%
%TO.N,VCC*%
X193040000Y-102870000D03*
%TD*%
%TO.P,C11,2*%
%TO.N,GND*%
X181610000Y-73740000D03*
%TO.P,C11,1*%
%TO.N,VCC*%
X181610000Y-78740000D03*
%TD*%
%TO.P,C10,2*%
%TO.N,GND*%
X190580000Y-53975000D03*
%TO.P,C10,1*%
%TO.N,VCC*%
X195580000Y-53975000D03*
%TD*%
%TO.P,C9,2*%
%TO.N,GND*%
X203280000Y-53975000D03*
%TO.P,C9,1*%
%TO.N,VCC*%
X208280000Y-53975000D03*
%TD*%
%TO.P,C8,2*%
%TO.N,GND*%
X215980000Y-53975000D03*
%TO.P,C8,1*%
%TO.N,VCC*%
X220980000Y-53975000D03*
%TD*%
%TO.P,C7,2*%
%TO.N,GND*%
X228680000Y-53975000D03*
%TO.P,C7,1*%
%TO.N,VCC*%
X233680000Y-53975000D03*
%TD*%
%TO.P,C6,2*%
%TO.N,GND*%
X236140000Y-38100000D03*
%TO.P,C6,1*%
%TO.N,VCC*%
X231140000Y-38100000D03*
%TD*%
%TO.P,C5,2*%
%TO.N,GND*%
X209470000Y-38735000D03*
%TO.P,C5,1*%
%TO.N,VCC*%
X204470000Y-38735000D03*
%TD*%
%TO.P,C4,2*%
%TO.N,GND*%
X52380000Y-35560000D03*
D15*
%TO.P,C4,1*%
%TO.N,VCC*%
X55880000Y-35560000D03*
%TD*%
D24*
%TO.P,R101,2*%
%TO.N,L*%
X59565000Y-44450000D03*
D25*
%TO.P,R101,1*%
%TO.N,GND*%
X57665000Y-44450000D03*
%TD*%
D24*
%TO.P,R100,2*%
%TO.N,VCC*%
X54605000Y-44450000D03*
D25*
%TO.P,R100,1*%
%TO.N,H*%
X52705000Y-44450000D03*
%TD*%
D15*
%TO.P,U16,1*%
%TO.N,CLK1*%
X134620000Y-129540000D03*
D16*
%TO.P,U16,8*%
%TO.N,~LD*%
X149860000Y-121920000D03*
%TO.P,U16,2*%
%TO.N,/CU/INV_B_IN*%
X137160000Y-129540000D03*
%TO.P,U16,9*%
%TO.N,Net-(D10-Pad2)*%
X147320000Y-121920000D03*
%TO.P,U16,3*%
%TO.N,~WE*%
X139700000Y-129540000D03*
%TO.P,U16,10*%
%TO.N,/CU/INV_B_OUT*%
X144780000Y-121920000D03*
%TO.P,U16,4*%
%TO.N,Net-(D17-Pad2)*%
X142240000Y-129540000D03*
%TO.P,U16,11*%
%TO.N,~PH*%
X142240000Y-121920000D03*
%TO.P,U16,5*%
%TO.N,/CU/INV_B_OUT*%
X144780000Y-129540000D03*
%TO.P,U16,12*%
%TO.N,/CU/~BF*%
X139700000Y-121920000D03*
%TO.P,U16,6*%
%TO.N,~OL*%
X147320000Y-129540000D03*
%TO.P,U16,13*%
%TO.N,/CU/~J*%
X137160000Y-121920000D03*
%TO.P,U16,7*%
%TO.N,VCC*%
X149860000Y-129540000D03*
%TO.P,U16,14*%
%TO.N,GND*%
X134620000Y-121920000D03*
%TD*%
D15*
%TO.P,U11,1*%
%TO.N,L*%
X215900000Y-129540000D03*
D16*
%TO.P,U11,9*%
%TO.N,N/C*%
X233680000Y-121920000D03*
%TO.P,U11,2*%
%TO.N,IR0*%
X218440000Y-129540000D03*
%TO.P,U11,10*%
%TO.N,N/C*%
X231140000Y-121920000D03*
%TO.P,U11,3*%
%TO.N,IR1*%
X220980000Y-129540000D03*
%TO.P,U11,11*%
%TO.N,N/C*%
X228600000Y-121920000D03*
%TO.P,U11,4*%
%TO.N,~DE*%
X223520000Y-129540000D03*
%TO.P,U11,12*%
%TO.N,/CU/~BF*%
X226060000Y-121920000D03*
%TO.P,U11,5*%
%TO.N,~OE*%
X226060000Y-129540000D03*
%TO.P,U11,13*%
%TO.N,IR2*%
X223520000Y-121920000D03*
%TO.P,U11,6*%
%TO.N,~AE*%
X228600000Y-129540000D03*
%TO.P,U11,14*%
%TO.N,IR3*%
X220980000Y-121920000D03*
%TO.P,U11,7*%
%TO.N,~IE*%
X231140000Y-129540000D03*
%TO.P,U11,15*%
%TO.N,IR4*%
X218440000Y-121920000D03*
%TO.P,U11,8*%
%TO.N,VCC*%
X233680000Y-129540000D03*
%TO.P,U11,16*%
%TO.N,GND*%
X215900000Y-121920000D03*
%TD*%
%TO.P,U7,40*%
%TO.N,VCC*%
X187960000Y-83820000D03*
%TO.P,U7,20*%
%TO.N,L*%
X236220000Y-99060000D03*
%TO.P,U7,39*%
%TO.N,H*%
X190500000Y-83820000D03*
%TO.P,U7,19*%
%TO.N,Net-(U7-Pad19)*%
X233680000Y-99060000D03*
%TO.P,U7,38*%
%TO.N,N/C*%
X193040000Y-83820000D03*
%TO.P,U7,18*%
%TO.N,Net-(U7-Pad18)*%
X231140000Y-99060000D03*
%TO.P,U7,37*%
%TO.N,/PRG/PC15*%
X195580000Y-83820000D03*
%TO.P,U7,17*%
%TO.N,Net-(U7-Pad17)*%
X228600000Y-99060000D03*
%TO.P,U7,36*%
%TO.N,/PRG/PC14*%
X198120000Y-83820000D03*
%TO.P,U7,16*%
%TO.N,Net-(U7-Pad16)*%
X226060000Y-99060000D03*
%TO.P,U7,35*%
%TO.N,/PRG/PC13*%
X200660000Y-83820000D03*
%TO.P,U7,15*%
%TO.N,Net-(U7-Pad15)*%
X223520000Y-99060000D03*
%TO.P,U7,34*%
%TO.N,/PRG/PC12*%
X203200000Y-83820000D03*
%TO.P,U7,14*%
%TO.N,Net-(U7-Pad14)*%
X220980000Y-99060000D03*
%TO.P,U7,33*%
%TO.N,/PRG/PC11*%
X205740000Y-83820000D03*
%TO.P,U7,13*%
%TO.N,Net-(U7-Pad13)*%
X218440000Y-99060000D03*
%TO.P,U7,32*%
%TO.N,/PRG/PC10*%
X208280000Y-83820000D03*
%TO.P,U7,12*%
%TO.N,Net-(U7-Pad12)*%
X215900000Y-99060000D03*
%TO.P,U7,31*%
%TO.N,/PRG/PC9*%
X210820000Y-83820000D03*
%TO.P,U7,11*%
%TO.N,GND*%
X213360000Y-99060000D03*
%TO.P,U7,30*%
X213360000Y-83820000D03*
%TO.P,U7,10*%
%TO.N,Net-(U7-Pad10)*%
X210820000Y-99060000D03*
%TO.P,U7,29*%
%TO.N,/PRG/PC8*%
X215900000Y-83820000D03*
%TO.P,U7,9*%
%TO.N,Net-(U7-Pad9)*%
X208280000Y-99060000D03*
%TO.P,U7,28*%
%TO.N,/PRG/PC7*%
X218440000Y-83820000D03*
%TO.P,U7,8*%
%TO.N,Net-(U7-Pad8)*%
X205740000Y-99060000D03*
%TO.P,U7,27*%
%TO.N,/PRG/PC6*%
X220980000Y-83820000D03*
%TO.P,U7,7*%
%TO.N,Net-(U7-Pad7)*%
X203200000Y-99060000D03*
%TO.P,U7,26*%
%TO.N,/PRG/PC5*%
X223520000Y-83820000D03*
%TO.P,U7,6*%
%TO.N,Net-(U7-Pad6)*%
X200660000Y-99060000D03*
%TO.P,U7,25*%
%TO.N,/PRG/PC4*%
X226060000Y-83820000D03*
%TO.P,U7,5*%
%TO.N,Net-(U7-Pad5)*%
X198120000Y-99060000D03*
%TO.P,U7,24*%
%TO.N,/PRG/PC3*%
X228600000Y-83820000D03*
%TO.P,U7,4*%
%TO.N,Net-(U7-Pad4)*%
X195580000Y-99060000D03*
%TO.P,U7,23*%
%TO.N,/PRG/PC2*%
X231140000Y-83820000D03*
%TO.P,U7,3*%
%TO.N,Net-(U7-Pad3)*%
X193040000Y-99060000D03*
%TO.P,U7,22*%
%TO.N,/PRG/PC1*%
X233680000Y-83820000D03*
%TO.P,U7,2*%
%TO.N,L*%
X190500000Y-99060000D03*
%TO.P,U7,21*%
%TO.N,/PRG/PC0*%
X236220000Y-83820000D03*
D15*
%TO.P,U7,1*%
%TO.N,GND*%
X187960000Y-99060000D03*
%TD*%
D16*
%TO.P,U39,16*%
%TO.N,VCC*%
X231140000Y-41910000D03*
%TO.P,U39,8*%
%TO.N,GND*%
X248920000Y-49530000D03*
%TO.P,U39,15*%
%TO.N,BUS0*%
X233680000Y-41910000D03*
%TO.P,U39,7*%
%TO.N,BUS7*%
X246380000Y-49530000D03*
%TO.P,U39,14*%
%TO.N,SER_DATA*%
X236220000Y-41910000D03*
%TO.P,U39,6*%
%TO.N,BUS6*%
X243840000Y-49530000D03*
%TO.P,U39,13*%
%TO.N,~IE*%
X238760000Y-41910000D03*
%TO.P,U39,5*%
%TO.N,BUS5*%
X241300000Y-49530000D03*
%TO.P,U39,12*%
%TO.N,OUT6*%
X241300000Y-41910000D03*
%TO.P,U39,4*%
%TO.N,BUS4*%
X238760000Y-49530000D03*
%TO.P,U39,11*%
%TO.N,OUT6*%
X243840000Y-41910000D03*
%TO.P,U39,3*%
%TO.N,BUS3*%
X236220000Y-49530000D03*
%TO.P,U39,10*%
%TO.N,H*%
X246380000Y-41910000D03*
%TO.P,U39,2*%
%TO.N,BUS2*%
X233680000Y-49530000D03*
%TO.P,U39,9*%
%TO.N,N/C*%
X248920000Y-41910000D03*
D15*
%TO.P,U39,1*%
%TO.N,BUS1*%
X231140000Y-49530000D03*
%TD*%
D16*
%TO.P,U38,20*%
%TO.N,VCC*%
X63500000Y-58420000D03*
%TO.P,U38,10*%
%TO.N,GND*%
X55880000Y-81280000D03*
%TO.P,U38,19*%
%TO.N,Net-(R9-Pad2)*%
X63500000Y-60960000D03*
%TO.P,U38,9*%
%TO.N,Net-(D5-Pad2)*%
X55880000Y-78740000D03*
%TO.P,U38,18*%
%TO.N,AC7*%
X63500000Y-63500000D03*
%TO.P,U38,8*%
%TO.N,AC0*%
X55880000Y-76200000D03*
%TO.P,U38,17*%
%TO.N,AC6*%
X63500000Y-66040000D03*
%TO.P,U38,7*%
%TO.N,AC1*%
X55880000Y-73660000D03*
%TO.P,U38,16*%
%TO.N,Net-(R9-Pad3)*%
X63500000Y-68580000D03*
%TO.P,U38,6*%
%TO.N,Net-(D6-Pad2)*%
X55880000Y-71120000D03*
%TO.P,U38,15*%
%TO.N,Net-(R9-Pad4)*%
X63500000Y-71120000D03*
%TO.P,U38,5*%
%TO.N,Net-(D7-Pad2)*%
X55880000Y-68580000D03*
%TO.P,U38,14*%
%TO.N,AC5*%
X63500000Y-73660000D03*
%TO.P,U38,4*%
%TO.N,AC2*%
X55880000Y-66040000D03*
%TO.P,U38,13*%
%TO.N,AC4*%
X63500000Y-76200000D03*
%TO.P,U38,3*%
%TO.N,AC3*%
X55880000Y-63500000D03*
%TO.P,U38,12*%
%TO.N,Net-(R9-Pad5)*%
X63500000Y-78740000D03*
%TO.P,U38,2*%
%TO.N,Net-(D8-Pad2)*%
X55880000Y-60960000D03*
%TO.P,U38,11*%
%TO.N,OUT6*%
X63500000Y-81280000D03*
D15*
%TO.P,U38,1*%
%TO.N,H*%
X55880000Y-58420000D03*
%TD*%
D16*
%TO.P,U37,20*%
%TO.N,VCC*%
X101600000Y-33020000D03*
%TO.P,U37,10*%
%TO.N,GND*%
X124460000Y-40640000D03*
%TO.P,U37,19*%
%TO.N,OUT7*%
X104140000Y-33020000D03*
%TO.P,U37,9*%
%TO.N,OUT0*%
X121920000Y-40640000D03*
%TO.P,U37,18*%
%TO.N,ALU7*%
X106680000Y-33020000D03*
%TO.P,U37,8*%
%TO.N,ALU0*%
X119380000Y-40640000D03*
%TO.P,U37,17*%
%TO.N,ALU6*%
X109220000Y-33020000D03*
%TO.P,U37,7*%
%TO.N,ALU1*%
X116840000Y-40640000D03*
%TO.P,U37,16*%
%TO.N,OUT6*%
X111760000Y-33020000D03*
%TO.P,U37,6*%
%TO.N,OUT1*%
X114300000Y-40640000D03*
%TO.P,U37,15*%
%TO.N,OUT5*%
X114300000Y-33020000D03*
%TO.P,U37,5*%
%TO.N,OUT2*%
X111760000Y-40640000D03*
%TO.P,U37,14*%
%TO.N,ALU5*%
X116840000Y-33020000D03*
%TO.P,U37,4*%
%TO.N,ALU2*%
X109220000Y-40640000D03*
%TO.P,U37,13*%
%TO.N,ALU4*%
X119380000Y-33020000D03*
%TO.P,U37,3*%
%TO.N,ALU3*%
X106680000Y-40640000D03*
%TO.P,U37,12*%
%TO.N,OUT4*%
X121920000Y-33020000D03*
%TO.P,U37,2*%
%TO.N,OUT3*%
X104140000Y-40640000D03*
%TO.P,U37,11*%
%TO.N,CLK2*%
X124460000Y-33020000D03*
D15*
%TO.P,U37,1*%
%TO.N,~OL*%
X101600000Y-40640000D03*
%TD*%
D16*
%TO.P,U36,28*%
%TO.N,VCC*%
X137160000Y-88900000D03*
%TO.P,U36,14*%
%TO.N,GND*%
X170180000Y-104140000D03*
%TO.P,U36,27*%
%TO.N,~WE*%
X139700000Y-88900000D03*
%TO.P,U36,13*%
%TO.N,BUS2*%
X167640000Y-104140000D03*
%TO.P,U36,26*%
%TO.N,/RAM/A13*%
X142240000Y-88900000D03*
%TO.P,U36,12*%
%TO.N,BUS1*%
X165100000Y-104140000D03*
%TO.P,U36,25*%
%TO.N,/RAM/A8*%
X144780000Y-88900000D03*
%TO.P,U36,11*%
%TO.N,BUS0*%
X162560000Y-104140000D03*
%TO.P,U36,24*%
%TO.N,/RAM/A9*%
X147320000Y-88900000D03*
%TO.P,U36,10*%
%TO.N,/RAM/A0*%
X160020000Y-104140000D03*
%TO.P,U36,23*%
%TO.N,/RAM/A11*%
X149860000Y-88900000D03*
%TO.P,U36,9*%
%TO.N,/RAM/A1*%
X157480000Y-104140000D03*
%TO.P,U36,22*%
%TO.N,~OE*%
X152400000Y-88900000D03*
%TO.P,U36,8*%
%TO.N,/RAM/A2*%
X154940000Y-104140000D03*
%TO.P,U36,21*%
%TO.N,/RAM/A10*%
X154940000Y-88900000D03*
%TO.P,U36,7*%
%TO.N,/RAM/A3*%
X152400000Y-104140000D03*
%TO.P,U36,20*%
%TO.N,L*%
X157480000Y-88900000D03*
%TO.P,U36,6*%
%TO.N,/RAM/A4*%
X149860000Y-104140000D03*
%TO.P,U36,19*%
%TO.N,BUS7*%
X160020000Y-88900000D03*
%TO.P,U36,5*%
%TO.N,/RAM/A5*%
X147320000Y-104140000D03*
%TO.P,U36,18*%
%TO.N,BUS6*%
X162560000Y-88900000D03*
%TO.P,U36,4*%
%TO.N,/RAM/A6*%
X144780000Y-104140000D03*
%TO.P,U36,17*%
%TO.N,BUS5*%
X165100000Y-88900000D03*
%TO.P,U36,3*%
%TO.N,/RAM/A7*%
X142240000Y-104140000D03*
%TO.P,U36,16*%
%TO.N,BUS4*%
X167640000Y-88900000D03*
%TO.P,U36,2*%
%TO.N,/RAM/A12*%
X139700000Y-104140000D03*
%TO.P,U36,15*%
%TO.N,BUS3*%
X170180000Y-88900000D03*
D15*
%TO.P,U36,1*%
%TO.N,/RAM/A14*%
X137160000Y-104140000D03*
%TD*%
D16*
%TO.P,U35,16*%
%TO.N,VCC*%
X114300000Y-81280000D03*
%TO.P,U35,8*%
%TO.N,GND*%
X106680000Y-99060000D03*
%TO.P,U35,15*%
%TO.N,L*%
X114300000Y-83820000D03*
%TO.P,U35,7*%
%TO.N,/RAM/A5*%
X106680000Y-96520000D03*
%TO.P,U35,14*%
%TO.N,X7*%
X114300000Y-86360000D03*
%TO.P,U35,6*%
%TO.N,D5*%
X106680000Y-93980000D03*
%TO.P,U35,13*%
%TO.N,D7*%
X114300000Y-88900000D03*
%TO.P,U35,5*%
%TO.N,X5*%
X106680000Y-91440000D03*
%TO.P,U35,12*%
%TO.N,/RAM/A7*%
X114300000Y-91440000D03*
%TO.P,U35,4*%
%TO.N,/RAM/A4*%
X106680000Y-88900000D03*
%TO.P,U35,11*%
%TO.N,X6*%
X114300000Y-93980000D03*
%TO.P,U35,3*%
%TO.N,D4*%
X106680000Y-86360000D03*
%TO.P,U35,10*%
%TO.N,D6*%
X114300000Y-96520000D03*
%TO.P,U35,2*%
%TO.N,X4*%
X106680000Y-83820000D03*
%TO.P,U35,9*%
%TO.N,/RAM/A6*%
X114300000Y-99060000D03*
D15*
%TO.P,U35,1*%
%TO.N,EL*%
X106680000Y-81280000D03*
%TD*%
D16*
%TO.P,U34,16*%
%TO.N,VCC*%
X129540000Y-81280000D03*
%TO.P,U34,8*%
%TO.N,GND*%
X121920000Y-99060000D03*
%TO.P,U34,15*%
%TO.N,L*%
X129540000Y-83820000D03*
%TO.P,U34,7*%
%TO.N,/RAM/A2*%
X121920000Y-96520000D03*
%TO.P,U34,14*%
%TO.N,X0*%
X129540000Y-86360000D03*
%TO.P,U34,6*%
%TO.N,D2*%
X121920000Y-93980000D03*
%TO.P,U34,13*%
%TO.N,D0*%
X129540000Y-88900000D03*
%TO.P,U34,5*%
%TO.N,X2*%
X121920000Y-91440000D03*
%TO.P,U34,12*%
%TO.N,/RAM/A0*%
X129540000Y-91440000D03*
%TO.P,U34,4*%
%TO.N,/RAM/A1*%
X121920000Y-88900000D03*
%TO.P,U34,11*%
%TO.N,X3*%
X129540000Y-93980000D03*
%TO.P,U34,3*%
%TO.N,D1*%
X121920000Y-86360000D03*
%TO.P,U34,10*%
%TO.N,D3*%
X129540000Y-96520000D03*
%TO.P,U34,2*%
%TO.N,X1*%
X121920000Y-83820000D03*
%TO.P,U34,9*%
%TO.N,/RAM/A3*%
X129540000Y-99060000D03*
D15*
%TO.P,U34,1*%
%TO.N,EL*%
X121920000Y-81280000D03*
%TD*%
D16*
%TO.P,U33,16*%
%TO.N,VCC*%
X144780000Y-58420000D03*
%TO.P,U33,8*%
%TO.N,GND*%
X137160000Y-76200000D03*
%TO.P,U33,15*%
%TO.N,EH*%
X144780000Y-60960000D03*
%TO.P,U33,7*%
%TO.N,/RAM/A14*%
X137160000Y-73660000D03*
%TO.P,U33,14*%
%TO.N,Y1*%
X144780000Y-63500000D03*
%TO.P,U33,6*%
%TO.N,H*%
X137160000Y-71120000D03*
%TO.P,U33,13*%
X144780000Y-66040000D03*
%TO.P,U33,5*%
%TO.N,Y6*%
X137160000Y-68580000D03*
%TO.P,U33,12*%
%TO.N,/RAM/A9*%
X144780000Y-68580000D03*
%TO.P,U33,4*%
%TO.N,/RAM/A13*%
X137160000Y-66040000D03*
%TO.P,U33,11*%
%TO.N,Y3*%
X144780000Y-71120000D03*
%TO.P,U33,3*%
%TO.N,H*%
X137160000Y-63500000D03*
%TO.P,U33,10*%
X144780000Y-73660000D03*
%TO.P,U33,2*%
%TO.N,Y5*%
X137160000Y-60960000D03*
%TO.P,U33,9*%
%TO.N,/RAM/A11*%
X144780000Y-76200000D03*
D15*
%TO.P,U33,1*%
%TO.N,L*%
X137160000Y-58420000D03*
%TD*%
D16*
%TO.P,U32,16*%
%TO.N,VCC*%
X160020000Y-58420000D03*
%TO.P,U32,8*%
%TO.N,GND*%
X152400000Y-76200000D03*
%TO.P,U32,15*%
%TO.N,EH*%
X160020000Y-60960000D03*
%TO.P,U32,7*%
%TO.N,Net-(A15-Pad1)*%
X152400000Y-73660000D03*
%TO.P,U32,14*%
%TO.N,Y4*%
X160020000Y-63500000D03*
%TO.P,U32,6*%
%TO.N,H*%
X152400000Y-71120000D03*
%TO.P,U32,13*%
X160020000Y-66040000D03*
%TO.P,U32,5*%
%TO.N,Y7*%
X152400000Y-68580000D03*
%TO.P,U32,12*%
%TO.N,/RAM/A12*%
X160020000Y-68580000D03*
%TO.P,U32,4*%
%TO.N,/RAM/A8*%
X152400000Y-66040000D03*
%TO.P,U32,11*%
%TO.N,Y2*%
X160020000Y-71120000D03*
%TO.P,U32,3*%
%TO.N,H*%
X152400000Y-63500000D03*
%TO.P,U32,10*%
X160020000Y-73660000D03*
%TO.P,U32,2*%
%TO.N,Y0*%
X152400000Y-60960000D03*
%TO.P,U32,9*%
%TO.N,/RAM/A10*%
X160020000Y-76200000D03*
D15*
%TO.P,U32,1*%
%TO.N,L*%
X152400000Y-58420000D03*
%TD*%
D16*
%TO.P,U31,20*%
%TO.N,VCC*%
X175260000Y-58420000D03*
%TO.P,U31,10*%
%TO.N,GND*%
X167640000Y-81280000D03*
%TO.P,U31,19*%
%TO.N,Y4*%
X175260000Y-60960000D03*
%TO.P,U31,9*%
%TO.N,Y3*%
X167640000Y-78740000D03*
%TO.P,U31,18*%
%TO.N,ALU4*%
X175260000Y-63500000D03*
%TO.P,U31,8*%
%TO.N,ALU3*%
X167640000Y-76200000D03*
%TO.P,U31,17*%
%TO.N,ALU5*%
X175260000Y-66040000D03*
%TO.P,U31,7*%
%TO.N,ALU2*%
X167640000Y-73660000D03*
%TO.P,U31,16*%
%TO.N,Y5*%
X175260000Y-68580000D03*
%TO.P,U31,6*%
%TO.N,Y2*%
X167640000Y-71120000D03*
%TO.P,U31,15*%
%TO.N,Y6*%
X175260000Y-71120000D03*
%TO.P,U31,5*%
%TO.N,Y1*%
X167640000Y-68580000D03*
%TO.P,U31,14*%
%TO.N,ALU6*%
X175260000Y-73660000D03*
%TO.P,U31,4*%
%TO.N,ALU1*%
X167640000Y-66040000D03*
%TO.P,U31,13*%
%TO.N,ALU7*%
X175260000Y-76200000D03*
%TO.P,U31,3*%
%TO.N,ALU0*%
X167640000Y-63500000D03*
%TO.P,U31,12*%
%TO.N,Y7*%
X175260000Y-78740000D03*
%TO.P,U31,2*%
%TO.N,Y0*%
X167640000Y-60960000D03*
%TO.P,U31,11*%
%TO.N,CLK2*%
X175260000Y-81280000D03*
D15*
%TO.P,U31,1*%
%TO.N,~YL*%
X167640000Y-58420000D03*
%TD*%
D16*
%TO.P,U30,16*%
%TO.N,VCC*%
X114300000Y-58420000D03*
%TO.P,U30,8*%
%TO.N,GND*%
X106680000Y-76200000D03*
%TO.P,U30,15*%
%TO.N,N/C*%
X114300000Y-60960000D03*
%TO.P,U30,7*%
%TO.N,IX*%
X106680000Y-73660000D03*
%TO.P,U30,14*%
%TO.N,X4*%
X114300000Y-63500000D03*
%TO.P,U30,6*%
%TO.N,ALU7*%
X106680000Y-71120000D03*
%TO.P,U30,13*%
%TO.N,X5*%
X114300000Y-66040000D03*
%TO.P,U30,5*%
%TO.N,ALU6*%
X106680000Y-68580000D03*
%TO.P,U30,12*%
%TO.N,X6*%
X114300000Y-68580000D03*
%TO.P,U30,4*%
%TO.N,ALU5*%
X106680000Y-66040000D03*
%TO.P,U30,11*%
%TO.N,X7*%
X114300000Y-71120000D03*
%TO.P,U30,3*%
%TO.N,ALU4*%
X106680000Y-63500000D03*
%TO.P,U30,10*%
%TO.N,Net-(U29-Pad15)*%
X114300000Y-73660000D03*
%TO.P,U30,2*%
%TO.N,CLK2*%
X106680000Y-60960000D03*
%TO.P,U30,9*%
%TO.N,~XL*%
X114300000Y-76200000D03*
D15*
%TO.P,U30,1*%
%TO.N,H*%
X106680000Y-58420000D03*
%TD*%
D16*
%TO.P,U29,16*%
%TO.N,VCC*%
X129540000Y-58420000D03*
%TO.P,U29,8*%
%TO.N,GND*%
X121920000Y-76200000D03*
%TO.P,U29,15*%
%TO.N,Net-(U29-Pad15)*%
X129540000Y-60960000D03*
%TO.P,U29,7*%
%TO.N,IX*%
X121920000Y-73660000D03*
%TO.P,U29,14*%
%TO.N,X0*%
X129540000Y-63500000D03*
%TO.P,U29,6*%
%TO.N,ALU3*%
X121920000Y-71120000D03*
%TO.P,U29,13*%
%TO.N,X1*%
X129540000Y-66040000D03*
%TO.P,U29,5*%
%TO.N,ALU2*%
X121920000Y-68580000D03*
%TO.P,U29,12*%
%TO.N,X2*%
X129540000Y-68580000D03*
%TO.P,U29,4*%
%TO.N,ALU1*%
X121920000Y-66040000D03*
%TO.P,U29,11*%
%TO.N,X3*%
X129540000Y-71120000D03*
%TO.P,U29,3*%
%TO.N,ALU0*%
X121920000Y-63500000D03*
%TO.P,U29,10*%
%TO.N,H*%
X129540000Y-73660000D03*
%TO.P,U29,2*%
%TO.N,CLK2*%
X121920000Y-60960000D03*
%TO.P,U29,9*%
%TO.N,~XL*%
X129540000Y-76200000D03*
D15*
%TO.P,U29,1*%
%TO.N,H*%
X121920000Y-58420000D03*
%TD*%
D16*
%TO.P,U28,20*%
%TO.N,VCC*%
X63500000Y-144780000D03*
%TO.P,U28,10*%
%TO.N,GND*%
X55880000Y-167640000D03*
%TO.P,U28,19*%
%TO.N,~AE*%
X63500000Y-147320000D03*
%TO.P,U28,9*%
%TO.N,BUS7*%
X55880000Y-165100000D03*
%TO.P,U28,18*%
%TO.N,BUS0*%
X63500000Y-149860000D03*
%TO.P,U28,8*%
%TO.N,AC3*%
X55880000Y-162560000D03*
%TO.P,U28,17*%
%TO.N,AC4*%
X63500000Y-152400000D03*
%TO.P,U28,7*%
%TO.N,BUS6*%
X55880000Y-160020000D03*
%TO.P,U28,16*%
%TO.N,BUS1*%
X63500000Y-154940000D03*
%TO.P,U28,6*%
%TO.N,AC2*%
X55880000Y-157480000D03*
%TO.P,U28,15*%
%TO.N,AC5*%
X63500000Y-157480000D03*
%TO.P,U28,5*%
%TO.N,BUS5*%
X55880000Y-154940000D03*
%TO.P,U28,14*%
%TO.N,BUS2*%
X63500000Y-160020000D03*
%TO.P,U28,4*%
%TO.N,AC1*%
X55880000Y-152400000D03*
%TO.P,U28,13*%
%TO.N,AC6*%
X63500000Y-162560000D03*
%TO.P,U28,3*%
%TO.N,BUS4*%
X55880000Y-149860000D03*
%TO.P,U28,12*%
%TO.N,BUS3*%
X63500000Y-165100000D03*
%TO.P,U28,2*%
%TO.N,AC0*%
X55880000Y-147320000D03*
%TO.P,U28,11*%
%TO.N,AC7*%
X63500000Y-167640000D03*
D15*
%TO.P,U28,1*%
%TO.N,~AE*%
X55880000Y-144780000D03*
%TD*%
D16*
%TO.P,U27,20*%
%TO.N,VCC*%
X63500000Y-101600000D03*
%TO.P,U27,10*%
%TO.N,GND*%
X55880000Y-124460000D03*
%TO.P,U27,19*%
%TO.N,AC6*%
X63500000Y-104140000D03*
%TO.P,U27,9*%
%TO.N,AC0*%
X55880000Y-121920000D03*
%TO.P,U27,18*%
%TO.N,ALU6*%
X63500000Y-106680000D03*
%TO.P,U27,8*%
%TO.N,ALU0*%
X55880000Y-119380000D03*
%TO.P,U27,17*%
%TO.N,ALU7*%
X63500000Y-109220000D03*
%TO.P,U27,7*%
%TO.N,ALU1*%
X55880000Y-116840000D03*
%TO.P,U27,16*%
%TO.N,AC7*%
X63500000Y-111760000D03*
%TO.P,U27,6*%
%TO.N,AC1*%
X55880000Y-114300000D03*
%TO.P,U27,15*%
%TO.N,AC4*%
X63500000Y-114300000D03*
%TO.P,U27,5*%
%TO.N,AC2*%
X55880000Y-111760000D03*
%TO.P,U27,14*%
%TO.N,ALU4*%
X63500000Y-116840000D03*
%TO.P,U27,4*%
%TO.N,ALU2*%
X55880000Y-109220000D03*
%TO.P,U27,13*%
%TO.N,ALU5*%
X63500000Y-119380000D03*
%TO.P,U27,3*%
%TO.N,ALU3*%
X55880000Y-106680000D03*
%TO.P,U27,12*%
%TO.N,AC5*%
X63500000Y-121920000D03*
%TO.P,U27,2*%
%TO.N,AC3*%
X55880000Y-104140000D03*
%TO.P,U27,11*%
%TO.N,CLK2*%
X63500000Y-124460000D03*
D15*
%TO.P,U27,1*%
%TO.N,~LD*%
X55880000Y-101600000D03*
%TD*%
D16*
%TO.P,U26,16*%
%TO.N,VCC*%
X33020000Y-109220000D03*
%TO.P,U26,8*%
%TO.N,GND*%
X50800000Y-116840000D03*
%TO.P,U26,15*%
%TO.N,Net-(U23-Pad9)*%
X35560000Y-109220000D03*
%TO.P,U26,7*%
%TO.N,AR0*%
X48260000Y-116840000D03*
%TO.P,U26,14*%
%TO.N,Net-(U23-Pad7)*%
X38100000Y-109220000D03*
%TO.P,U26,6*%
%TO.N,Net-(U21-Pad9)*%
X45720000Y-116840000D03*
%TO.P,U26,13*%
%TO.N,ALU2*%
X40640000Y-109220000D03*
%TO.P,U26,5*%
%TO.N,Net-(U21-Pad7)*%
X43180000Y-116840000D03*
%TO.P,U26,12*%
%TO.N,Net-(U24-Pad7)*%
X43180000Y-109220000D03*
%TO.P,U26,4*%
%TO.N,ALU0*%
X40640000Y-116840000D03*
%TO.P,U26,11*%
%TO.N,Net-(U24-Pad9)*%
X45720000Y-109220000D03*
%TO.P,U26,3*%
%TO.N,Net-(U22-Pad7)*%
X38100000Y-116840000D03*
%TO.P,U26,10*%
%TO.N,ALU3*%
X48260000Y-109220000D03*
%TO.P,U26,2*%
%TO.N,Net-(U22-Pad9)*%
X35560000Y-116840000D03*
%TO.P,U26,9*%
%TO.N,Net-(U25-Pad7)*%
X50800000Y-109220000D03*
D15*
%TO.P,U26,1*%
%TO.N,ALU1*%
X33020000Y-116840000D03*
%TD*%
D16*
%TO.P,U25,16*%
%TO.N,VCC*%
X68580000Y-109220000D03*
%TO.P,U25,8*%
%TO.N,GND*%
X86360000Y-116840000D03*
%TO.P,U25,15*%
%TO.N,Net-(U19-Pad7)*%
X71120000Y-109220000D03*
%TO.P,U25,7*%
%TO.N,Net-(U25-Pad7)*%
X83820000Y-116840000D03*
%TO.P,U25,14*%
%TO.N,Net-(U19-Pad9)*%
X73660000Y-109220000D03*
%TO.P,U25,6*%
%TO.N,Net-(U17-Pad9)*%
X81280000Y-116840000D03*
%TO.P,U25,13*%
%TO.N,ALU6*%
X76200000Y-109220000D03*
%TO.P,U25,5*%
%TO.N,Net-(U17-Pad7)*%
X78740000Y-116840000D03*
%TO.P,U25,12*%
%TO.N,Net-(U20-Pad7)*%
X78740000Y-109220000D03*
%TO.P,U25,4*%
%TO.N,ALU4*%
X76200000Y-116840000D03*
%TO.P,U25,11*%
%TO.N,Net-(U20-Pad9)*%
X81280000Y-109220000D03*
%TO.P,U25,3*%
%TO.N,Net-(U18-Pad9)*%
X73660000Y-116840000D03*
%TO.P,U25,10*%
%TO.N,ALU7*%
X83820000Y-109220000D03*
%TO.P,U25,2*%
%TO.N,Net-(U18-Pad7)*%
X71120000Y-116840000D03*
%TO.P,U25,9*%
%TO.N,CO*%
X86360000Y-109220000D03*
D15*
%TO.P,U25,1*%
%TO.N,ALU5*%
X68580000Y-116840000D03*
%TD*%
D16*
%TO.P,U24,16*%
%TO.N,VCC*%
X48260000Y-58420000D03*
%TO.P,U24,8*%
%TO.N,GND*%
X40640000Y-76200000D03*
%TO.P,U24,15*%
%TO.N,AL*%
X48260000Y-60960000D03*
%TO.P,U24,7*%
%TO.N,Net-(U24-Pad7)*%
X40640000Y-73660000D03*
%TO.P,U24,14*%
%TO.N,AC3*%
X48260000Y-63500000D03*
%TO.P,U24,6*%
%TO.N,AR0*%
X40640000Y-71120000D03*
%TO.P,U24,13*%
%TO.N,H*%
X48260000Y-66040000D03*
%TO.P,U24,5*%
%TO.N,AR1*%
X40640000Y-68580000D03*
%TO.P,U24,12*%
%TO.N,L*%
X48260000Y-68580000D03*
%TO.P,U24,4*%
%TO.N,AR2*%
X40640000Y-66040000D03*
%TO.P,U24,11*%
%TO.N,H*%
X48260000Y-71120000D03*
%TO.P,U24,3*%
%TO.N,AR3*%
X40640000Y-63500000D03*
%TO.P,U24,10*%
%TO.N,L*%
X48260000Y-73660000D03*
%TO.P,U24,2*%
%TO.N,BUS3*%
X40640000Y-60960000D03*
%TO.P,U24,9*%
%TO.N,Net-(U24-Pad9)*%
X48260000Y-76200000D03*
D15*
%TO.P,U24,1*%
%TO.N,L*%
X40640000Y-58420000D03*
%TD*%
D16*
%TO.P,U23,16*%
%TO.N,VCC*%
X48260000Y-83820000D03*
%TO.P,U23,8*%
%TO.N,GND*%
X40640000Y-101600000D03*
%TO.P,U23,15*%
%TO.N,AL*%
X48260000Y-86360000D03*
%TO.P,U23,7*%
%TO.N,Net-(U23-Pad7)*%
X40640000Y-99060000D03*
%TO.P,U23,14*%
%TO.N,AC2*%
X48260000Y-88900000D03*
%TO.P,U23,6*%
%TO.N,AR0*%
X40640000Y-96520000D03*
%TO.P,U23,13*%
%TO.N,H*%
X48260000Y-91440000D03*
%TO.P,U23,5*%
%TO.N,AR1*%
X40640000Y-93980000D03*
%TO.P,U23,12*%
%TO.N,L*%
X48260000Y-93980000D03*
%TO.P,U23,4*%
%TO.N,AR2*%
X40640000Y-91440000D03*
%TO.P,U23,11*%
%TO.N,H*%
X48260000Y-96520000D03*
%TO.P,U23,3*%
%TO.N,AR3*%
X40640000Y-88900000D03*
%TO.P,U23,10*%
%TO.N,L*%
X48260000Y-99060000D03*
%TO.P,U23,2*%
%TO.N,BUS2*%
X40640000Y-86360000D03*
%TO.P,U23,9*%
%TO.N,Net-(U23-Pad9)*%
X48260000Y-101600000D03*
D15*
%TO.P,U23,1*%
%TO.N,L*%
X40640000Y-83820000D03*
%TD*%
D16*
%TO.P,U22,16*%
%TO.N,VCC*%
X48260000Y-124460000D03*
%TO.P,U22,8*%
%TO.N,GND*%
X40640000Y-142240000D03*
%TO.P,U22,15*%
%TO.N,AL*%
X48260000Y-127000000D03*
%TO.P,U22,7*%
%TO.N,Net-(U22-Pad7)*%
X40640000Y-139700000D03*
%TO.P,U22,14*%
%TO.N,AC1*%
X48260000Y-129540000D03*
%TO.P,U22,6*%
%TO.N,AR0*%
X40640000Y-137160000D03*
%TO.P,U22,13*%
%TO.N,H*%
X48260000Y-132080000D03*
%TO.P,U22,5*%
%TO.N,AR1*%
X40640000Y-134620000D03*
%TO.P,U22,12*%
%TO.N,L*%
X48260000Y-134620000D03*
%TO.P,U22,4*%
%TO.N,AR2*%
X40640000Y-132080000D03*
%TO.P,U22,11*%
%TO.N,H*%
X48260000Y-137160000D03*
%TO.P,U22,3*%
%TO.N,AR3*%
X40640000Y-129540000D03*
%TO.P,U22,10*%
%TO.N,L*%
X48260000Y-139700000D03*
%TO.P,U22,2*%
%TO.N,BUS1*%
X40640000Y-127000000D03*
%TO.P,U22,9*%
%TO.N,Net-(U22-Pad9)*%
X48260000Y-142240000D03*
D15*
%TO.P,U22,1*%
%TO.N,L*%
X40640000Y-124460000D03*
%TD*%
D16*
%TO.P,U21,16*%
%TO.N,VCC*%
X48260000Y-149860000D03*
%TO.P,U21,8*%
%TO.N,GND*%
X40640000Y-167640000D03*
%TO.P,U21,15*%
%TO.N,AL*%
X48260000Y-152400000D03*
%TO.P,U21,7*%
%TO.N,Net-(U21-Pad7)*%
X40640000Y-165100000D03*
%TO.P,U21,14*%
%TO.N,AC0*%
X48260000Y-154940000D03*
%TO.P,U21,6*%
%TO.N,AR0*%
X40640000Y-162560000D03*
%TO.P,U21,13*%
%TO.N,H*%
X48260000Y-157480000D03*
%TO.P,U21,5*%
%TO.N,AR1*%
X40640000Y-160020000D03*
%TO.P,U21,12*%
%TO.N,L*%
X48260000Y-160020000D03*
%TO.P,U21,4*%
%TO.N,AR2*%
X40640000Y-157480000D03*
%TO.P,U21,11*%
%TO.N,H*%
X48260000Y-162560000D03*
%TO.P,U21,3*%
%TO.N,AR3*%
X40640000Y-154940000D03*
%TO.P,U21,10*%
%TO.N,L*%
X48260000Y-165100000D03*
%TO.P,U21,2*%
%TO.N,BUS0*%
X40640000Y-152400000D03*
%TO.P,U21,9*%
%TO.N,Net-(U21-Pad9)*%
X48260000Y-167640000D03*
D15*
%TO.P,U21,1*%
%TO.N,L*%
X40640000Y-149860000D03*
%TD*%
D16*
%TO.P,U20,16*%
%TO.N,VCC*%
X78740000Y-58420000D03*
%TO.P,U20,8*%
%TO.N,GND*%
X71120000Y-76200000D03*
%TO.P,U20,15*%
%TO.N,L*%
X78740000Y-60960000D03*
%TO.P,U20,7*%
%TO.N,Net-(U20-Pad7)*%
X71120000Y-73660000D03*
%TO.P,U20,14*%
%TO.N,BUS7*%
X78740000Y-63500000D03*
%TO.P,U20,6*%
%TO.N,L*%
X71120000Y-71120000D03*
%TO.P,U20,13*%
%TO.N,AR3*%
X78740000Y-66040000D03*
%TO.P,U20,5*%
%TO.N,L*%
X71120000Y-68580000D03*
%TO.P,U20,12*%
%TO.N,AR1*%
X78740000Y-68580000D03*
%TO.P,U20,4*%
%TO.N,H*%
X71120000Y-66040000D03*
%TO.P,U20,11*%
%TO.N,AR2*%
X78740000Y-71120000D03*
%TO.P,U20,3*%
%TO.N,H*%
X71120000Y-63500000D03*
%TO.P,U20,10*%
%TO.N,AR0*%
X78740000Y-73660000D03*
%TO.P,U20,2*%
%TO.N,AC7*%
X71120000Y-60960000D03*
%TO.P,U20,9*%
%TO.N,Net-(U20-Pad9)*%
X78740000Y-76200000D03*
D15*
%TO.P,U20,1*%
%TO.N,AL*%
X71120000Y-58420000D03*
%TD*%
D16*
%TO.P,U19,16*%
%TO.N,VCC*%
X78740000Y-83820000D03*
%TO.P,U19,8*%
%TO.N,GND*%
X71120000Y-101600000D03*
%TO.P,U19,15*%
%TO.N,L*%
X78740000Y-86360000D03*
%TO.P,U19,7*%
%TO.N,Net-(U19-Pad7)*%
X71120000Y-99060000D03*
%TO.P,U19,14*%
%TO.N,BUS6*%
X78740000Y-88900000D03*
%TO.P,U19,6*%
%TO.N,L*%
X71120000Y-96520000D03*
%TO.P,U19,13*%
%TO.N,AR3*%
X78740000Y-91440000D03*
%TO.P,U19,5*%
%TO.N,L*%
X71120000Y-93980000D03*
%TO.P,U19,12*%
%TO.N,AR1*%
X78740000Y-93980000D03*
%TO.P,U19,4*%
%TO.N,H*%
X71120000Y-91440000D03*
%TO.P,U19,11*%
%TO.N,AR2*%
X78740000Y-96520000D03*
%TO.P,U19,3*%
%TO.N,H*%
X71120000Y-88900000D03*
%TO.P,U19,10*%
%TO.N,AR0*%
X78740000Y-99060000D03*
%TO.P,U19,2*%
%TO.N,AC6*%
X71120000Y-86360000D03*
%TO.P,U19,9*%
%TO.N,Net-(U19-Pad9)*%
X78740000Y-101600000D03*
D15*
%TO.P,U19,1*%
%TO.N,AL*%
X71120000Y-83820000D03*
%TD*%
D16*
%TO.P,U18,16*%
%TO.N,VCC*%
X78740000Y-124460000D03*
%TO.P,U18,8*%
%TO.N,GND*%
X71120000Y-142240000D03*
%TO.P,U18,15*%
%TO.N,L*%
X78740000Y-127000000D03*
%TO.P,U18,7*%
%TO.N,Net-(U18-Pad7)*%
X71120000Y-139700000D03*
%TO.P,U18,14*%
%TO.N,BUS5*%
X78740000Y-129540000D03*
%TO.P,U18,6*%
%TO.N,L*%
X71120000Y-137160000D03*
%TO.P,U18,13*%
%TO.N,AR3*%
X78740000Y-132080000D03*
%TO.P,U18,5*%
%TO.N,L*%
X71120000Y-134620000D03*
%TO.P,U18,12*%
%TO.N,AR1*%
X78740000Y-134620000D03*
%TO.P,U18,4*%
%TO.N,H*%
X71120000Y-132080000D03*
%TO.P,U18,11*%
%TO.N,AR2*%
X78740000Y-137160000D03*
%TO.P,U18,3*%
%TO.N,H*%
X71120000Y-129540000D03*
%TO.P,U18,10*%
%TO.N,AR0*%
X78740000Y-139700000D03*
%TO.P,U18,2*%
%TO.N,AC5*%
X71120000Y-127000000D03*
%TO.P,U18,9*%
%TO.N,Net-(U18-Pad9)*%
X78740000Y-142240000D03*
D15*
%TO.P,U18,1*%
%TO.N,AL*%
X71120000Y-124460000D03*
%TD*%
D16*
%TO.P,U17,16*%
%TO.N,VCC*%
X78740000Y-149860000D03*
%TO.P,U17,8*%
%TO.N,GND*%
X71120000Y-167640000D03*
%TO.P,U17,15*%
%TO.N,L*%
X78740000Y-152400000D03*
%TO.P,U17,7*%
%TO.N,Net-(U17-Pad7)*%
X71120000Y-165100000D03*
%TO.P,U17,14*%
%TO.N,BUS4*%
X78740000Y-154940000D03*
%TO.P,U17,6*%
%TO.N,L*%
X71120000Y-162560000D03*
%TO.P,U17,13*%
%TO.N,AR3*%
X78740000Y-157480000D03*
%TO.P,U17,5*%
%TO.N,L*%
X71120000Y-160020000D03*
%TO.P,U17,12*%
%TO.N,AR1*%
X78740000Y-160020000D03*
%TO.P,U17,4*%
%TO.N,H*%
X71120000Y-157480000D03*
%TO.P,U17,11*%
%TO.N,AR2*%
X78740000Y-162560000D03*
%TO.P,U17,3*%
%TO.N,H*%
X71120000Y-154940000D03*
%TO.P,U17,10*%
%TO.N,AR0*%
X78740000Y-165100000D03*
%TO.P,U17,2*%
%TO.N,AC4*%
X71120000Y-152400000D03*
%TO.P,U17,9*%
%TO.N,Net-(U17-Pad9)*%
X78740000Y-167640000D03*
D15*
%TO.P,U17,1*%
%TO.N,AL*%
X71120000Y-149860000D03*
%TD*%
D16*
%TO.P,U15,20*%
%TO.N,VCC*%
X106680000Y-139700000D03*
%TO.P,U15,10*%
%TO.N,GND*%
X99060000Y-162560000D03*
%TO.P,U15,19*%
%TO.N,L*%
X106680000Y-142240000D03*
%TO.P,U15,9*%
%TO.N,AL*%
X99060000Y-160020000D03*
%TO.P,U15,18*%
%TO.N,/CU/INV_C_OUT*%
X106680000Y-144780000D03*
%TO.P,U15,8*%
%TO.N,Net-(D32-Pad2)*%
X99060000Y-157480000D03*
%TO.P,U15,17*%
%TO.N,Net-(D23-Pad2)*%
X106680000Y-147320000D03*
%TO.P,U15,7*%
%TO.N,AR1*%
X99060000Y-154940000D03*
%TO.P,U15,16*%
%TO.N,/CU/INV_B_OUT*%
X106680000Y-149860000D03*
%TO.P,U15,6*%
%TO.N,Net-(D22-Pad2)*%
X99060000Y-152400000D03*
%TO.P,U15,15*%
%TO.N,/CU/INV_A_IN*%
X106680000Y-152400000D03*
%TO.P,U15,5*%
%TO.N,IX*%
X99060000Y-149860000D03*
%TO.P,U15,14*%
%TO.N,AR2*%
X106680000Y-154940000D03*
%TO.P,U15,4*%
%TO.N,/CU/INV_B_IN*%
X99060000Y-147320000D03*
%TO.P,U15,13*%
%TO.N,Net-(D25-Pad2)*%
X106680000Y-157480000D03*
%TO.P,U15,3*%
%TO.N,AR3*%
X99060000Y-144780000D03*
%TO.P,U15,12*%
%TO.N,AR0*%
X106680000Y-160020000D03*
%TO.P,U15,2*%
%TO.N,/CU/INV_C_IN*%
X99060000Y-142240000D03*
%TO.P,U15,11*%
%TO.N,Net-(D21-Pad2)*%
X106680000Y-162560000D03*
D15*
%TO.P,U15,1*%
%TO.N,L*%
X99060000Y-139700000D03*
%TD*%
D16*
%TO.P,U14,16*%
%TO.N,VCC*%
X116840000Y-160020000D03*
%TO.P,U14,8*%
%TO.N,GND*%
X134620000Y-167640000D03*
%TO.P,U14,15*%
%TO.N,Net-(D22-Pad1)*%
X119380000Y-160020000D03*
%TO.P,U14,7*%
%TO.N,/CU/~J*%
X132080000Y-167640000D03*
%TO.P,U14,14*%
%TO.N,Net-(D24-Pad1)*%
X121920000Y-160020000D03*
%TO.P,U14,6*%
%TO.N,H*%
X129540000Y-167640000D03*
%TO.P,U14,13*%
%TO.N,Net-(D25-Pad1)*%
X124460000Y-160020000D03*
%TO.P,U14,5*%
%TO.N,L*%
X127000000Y-167640000D03*
%TO.P,U14,12*%
%TO.N,Net-(D28-Pad1)*%
X127000000Y-160020000D03*
%TO.P,U14,4*%
%TO.N,L*%
X124460000Y-167640000D03*
%TO.P,U14,11*%
%TO.N,Net-(D30-Pad1)*%
X129540000Y-160020000D03*
%TO.P,U14,3*%
%TO.N,IR7*%
X121920000Y-167640000D03*
%TO.P,U14,10*%
%TO.N,Net-(D32-Pad1)*%
X132080000Y-160020000D03*
%TO.P,U14,2*%
%TO.N,IR6*%
X119380000Y-167640000D03*
%TO.P,U14,9*%
%TO.N,/CU/INV_B_IN*%
X134620000Y-160020000D03*
D15*
%TO.P,U14,1*%
%TO.N,IR5*%
X116840000Y-167640000D03*
%TD*%
D16*
%TO.P,U13,16*%
%TO.N,VCC*%
X175260000Y-160020000D03*
%TO.P,U13,8*%
%TO.N,GND*%
X193040000Y-167640000D03*
%TO.P,U13,15*%
%TO.N,Net-(D9-Pad1)*%
X177800000Y-160020000D03*
%TO.P,U13,7*%
%TO.N,/CU/INV_A_IN*%
X190500000Y-167640000D03*
%TO.P,U13,14*%
%TO.N,Net-(D10-Pad1)*%
X180340000Y-160020000D03*
%TO.P,U13,6*%
%TO.N,/CU/~J*%
X187960000Y-167640000D03*
%TO.P,U13,13*%
%TO.N,Net-(D12-Pad1)*%
X182880000Y-160020000D03*
%TO.P,U13,5*%
%TO.N,L*%
X185420000Y-167640000D03*
%TO.P,U13,12*%
%TO.N,Net-(D14-Pad1)*%
X185420000Y-160020000D03*
%TO.P,U13,4*%
%TO.N,L*%
X182880000Y-167640000D03*
%TO.P,U13,11*%
%TO.N,~XL*%
X187960000Y-160020000D03*
%TO.P,U13,3*%
%TO.N,IR4*%
X180340000Y-167640000D03*
%TO.P,U13,10*%
%TO.N,~YL*%
X190500000Y-160020000D03*
%TO.P,U13,2*%
%TO.N,IR3*%
X177800000Y-167640000D03*
%TO.P,U13,9*%
%TO.N,Net-(D17-Pad1)*%
X193040000Y-160020000D03*
D15*
%TO.P,U13,1*%
%TO.N,IR2*%
X175260000Y-167640000D03*
%TD*%
D16*
%TO.P,U12,16*%
%TO.N,VCC*%
X215900000Y-137160000D03*
%TO.P,U12,8*%
%TO.N,GND*%
X233680000Y-144780000D03*
%TO.P,U12,15*%
%TO.N,H*%
X218440000Y-137160000D03*
%TO.P,U12,7*%
%TO.N,/CU/INV_C_IN*%
X231140000Y-144780000D03*
%TO.P,U12,14*%
%TO.N,AC7*%
X220980000Y-137160000D03*
%TO.P,U12,6*%
%TO.N,IR2*%
X228600000Y-144780000D03*
%TO.P,U12,13*%
%TO.N,H*%
X223520000Y-137160000D03*
%TO.P,U12,5*%
%TO.N,IR3*%
X226060000Y-144780000D03*
%TO.P,U12,12*%
%TO.N,H*%
X226060000Y-137160000D03*
%TO.P,U12,4*%
%TO.N,IR4*%
X223520000Y-144780000D03*
%TO.P,U12,11*%
%TO.N,H*%
X228600000Y-137160000D03*
%TO.P,U12,3*%
%TO.N,L*%
X220980000Y-144780000D03*
%TO.P,U12,10*%
%TO.N,H*%
X231140000Y-137160000D03*
%TO.P,U12,2*%
%TO.N,CO*%
X218440000Y-144780000D03*
%TO.P,U12,9*%
%TO.N,N/C*%
X233680000Y-137160000D03*
D15*
%TO.P,U12,1*%
%TO.N,/CU/~J*%
X215900000Y-144780000D03*
%TD*%
D16*
%TO.P,U10,20*%
%TO.N,VCC*%
X185420000Y-121920000D03*
%TO.P,U10,10*%
%TO.N,GND*%
X208280000Y-129540000D03*
%TO.P,U10,19*%
%TO.N,~DE*%
X187960000Y-121920000D03*
%TO.P,U10,9*%
%TO.N,BUS1*%
X205740000Y-129540000D03*
%TO.P,U10,18*%
%TO.N,BUS6*%
X190500000Y-121920000D03*
%TO.P,U10,8*%
%TO.N,D3*%
X203200000Y-129540000D03*
%TO.P,U10,17*%
%TO.N,D4*%
X193040000Y-121920000D03*
%TO.P,U10,7*%
%TO.N,BUS0*%
X200660000Y-129540000D03*
%TO.P,U10,16*%
%TO.N,BUS7*%
X195580000Y-121920000D03*
%TO.P,U10,6*%
%TO.N,D5*%
X198120000Y-129540000D03*
%TO.P,U10,15*%
%TO.N,D2*%
X198120000Y-121920000D03*
%TO.P,U10,5*%
%TO.N,BUS2*%
X195580000Y-129540000D03*
%TO.P,U10,14*%
%TO.N,BUS5*%
X200660000Y-121920000D03*
%TO.P,U10,4*%
%TO.N,D7*%
X193040000Y-129540000D03*
%TO.P,U10,13*%
%TO.N,D0*%
X203200000Y-121920000D03*
%TO.P,U10,3*%
%TO.N,BUS4*%
X190500000Y-129540000D03*
%TO.P,U10,12*%
%TO.N,BUS3*%
X205740000Y-121920000D03*
%TO.P,U10,2*%
%TO.N,D6*%
X187960000Y-129540000D03*
%TO.P,U10,11*%
%TO.N,D1*%
X208280000Y-121920000D03*
D15*
%TO.P,U10,1*%
%TO.N,~DE*%
X185420000Y-129540000D03*
%TD*%
%TO.P,U9,1*%
%TO.N,H*%
X185420000Y-114300000D03*
D16*
%TO.P,U9,11*%
%TO.N,CLK1*%
X208280000Y-106680000D03*
%TO.P,U9,2*%
%TO.N,D7*%
X187960000Y-114300000D03*
%TO.P,U9,12*%
%TO.N,D0*%
X205740000Y-106680000D03*
%TO.P,U9,3*%
%TO.N,Net-(U7-Pad3)*%
X190500000Y-114300000D03*
%TO.P,U9,13*%
%TO.N,Net-(U7-Pad10)*%
X203200000Y-106680000D03*
%TO.P,U9,4*%
%TO.N,Net-(U7-Pad5)*%
X193040000Y-114300000D03*
%TO.P,U9,14*%
%TO.N,Net-(U7-Pad8)*%
X200660000Y-106680000D03*
%TO.P,U9,5*%
%TO.N,D5*%
X195580000Y-114300000D03*
%TO.P,U9,15*%
%TO.N,D2*%
X198120000Y-106680000D03*
%TO.P,U9,6*%
%TO.N,D3*%
X198120000Y-114300000D03*
%TO.P,U9,16*%
%TO.N,D4*%
X195580000Y-106680000D03*
%TO.P,U9,7*%
%TO.N,Net-(U7-Pad7)*%
X200660000Y-114300000D03*
%TO.P,U9,17*%
%TO.N,Net-(U7-Pad6)*%
X193040000Y-106680000D03*
%TO.P,U9,8*%
%TO.N,Net-(U7-Pad9)*%
X203200000Y-114300000D03*
%TO.P,U9,18*%
%TO.N,Net-(U7-Pad4)*%
X190500000Y-106680000D03*
%TO.P,U9,9*%
%TO.N,D1*%
X205740000Y-114300000D03*
%TO.P,U9,19*%
%TO.N,D6*%
X187960000Y-106680000D03*
%TO.P,U9,10*%
%TO.N,GND*%
X208280000Y-114300000D03*
%TO.P,U9,20*%
%TO.N,VCC*%
X185420000Y-106680000D03*
%TD*%
D15*
%TO.P,U8,1*%
%TO.N,H*%
X215900000Y-114300000D03*
D16*
%TO.P,U8,11*%
%TO.N,CLK1*%
X238760000Y-106680000D03*
%TO.P,U8,2*%
%TO.N,IR7*%
X218440000Y-114300000D03*
%TO.P,U8,12*%
%TO.N,IR1*%
X236220000Y-106680000D03*
%TO.P,U8,3*%
%TO.N,Net-(U7-Pad12)*%
X220980000Y-114300000D03*
%TO.P,U8,13*%
%TO.N,Net-(U7-Pad18)*%
X233680000Y-106680000D03*
%TO.P,U8,4*%
%TO.N,Net-(U7-Pad15)*%
X223520000Y-114300000D03*
%TO.P,U8,14*%
%TO.N,Net-(U7-Pad17)*%
X231140000Y-106680000D03*
%TO.P,U8,5*%
%TO.N,IR4*%
X226060000Y-114300000D03*
%TO.P,U8,15*%
%TO.N,IR2*%
X228600000Y-106680000D03*
%TO.P,U8,6*%
%TO.N,IR3*%
X228600000Y-114300000D03*
%TO.P,U8,16*%
%TO.N,IR5*%
X226060000Y-106680000D03*
%TO.P,U8,7*%
%TO.N,Net-(U7-Pad16)*%
X231140000Y-114300000D03*
%TO.P,U8,17*%
%TO.N,Net-(U7-Pad14)*%
X223520000Y-106680000D03*
%TO.P,U8,8*%
%TO.N,Net-(U7-Pad19)*%
X233680000Y-114300000D03*
%TO.P,U8,18*%
%TO.N,Net-(U7-Pad13)*%
X220980000Y-106680000D03*
%TO.P,U8,9*%
%TO.N,IR0*%
X236220000Y-114300000D03*
%TO.P,U8,19*%
%TO.N,IR6*%
X218440000Y-106680000D03*
%TO.P,U8,10*%
%TO.N,GND*%
X238760000Y-114300000D03*
%TO.P,U8,20*%
%TO.N,VCC*%
X215900000Y-106680000D03*
%TD*%
%TO.P,U6,16*%
%TO.N,VCC*%
X195580000Y-58420000D03*
%TO.P,U6,8*%
%TO.N,GND*%
X187960000Y-76200000D03*
%TO.P,U6,15*%
%TO.N,N/C*%
X195580000Y-60960000D03*
%TO.P,U6,7*%
%TO.N,~PL*%
X187960000Y-73660000D03*
%TO.P,U6,14*%
%TO.N,/PRG/PC12*%
X195580000Y-63500000D03*
%TO.P,U6,6*%
%TO.N,Y7*%
X187960000Y-71120000D03*
%TO.P,U6,13*%
%TO.N,/PRG/PC13*%
X195580000Y-66040000D03*
%TO.P,U6,5*%
%TO.N,Y6*%
X187960000Y-68580000D03*
%TO.P,U6,12*%
%TO.N,/PRG/PC14*%
X195580000Y-68580000D03*
%TO.P,U6,4*%
%TO.N,Y5*%
X187960000Y-66040000D03*
%TO.P,U6,11*%
%TO.N,/PRG/PC15*%
X195580000Y-71120000D03*
%TO.P,U6,3*%
%TO.N,Y4*%
X187960000Y-63500000D03*
%TO.P,U6,10*%
%TO.N,Net-(U5-Pad15)*%
X195580000Y-73660000D03*
%TO.P,U6,2*%
%TO.N,CLK1*%
X187960000Y-60960000D03*
%TO.P,U6,9*%
%TO.N,~PH*%
X195580000Y-76200000D03*
D15*
%TO.P,U6,1*%
%TO.N,~RST*%
X187960000Y-58420000D03*
%TD*%
D16*
%TO.P,U5,16*%
%TO.N,VCC*%
X208280000Y-58420000D03*
%TO.P,U5,8*%
%TO.N,GND*%
X200660000Y-76200000D03*
%TO.P,U5,15*%
%TO.N,Net-(U5-Pad15)*%
X208280000Y-60960000D03*
%TO.P,U5,7*%
%TO.N,~PL*%
X200660000Y-73660000D03*
%TO.P,U5,14*%
%TO.N,/PRG/PC8*%
X208280000Y-63500000D03*
%TO.P,U5,6*%
%TO.N,Y3*%
X200660000Y-71120000D03*
%TO.P,U5,13*%
%TO.N,/PRG/PC9*%
X208280000Y-66040000D03*
%TO.P,U5,5*%
%TO.N,Y2*%
X200660000Y-68580000D03*
%TO.P,U5,12*%
%TO.N,/PRG/PC10*%
X208280000Y-68580000D03*
%TO.P,U5,4*%
%TO.N,Y1*%
X200660000Y-66040000D03*
%TO.P,U5,11*%
%TO.N,/PRG/PC11*%
X208280000Y-71120000D03*
%TO.P,U5,3*%
%TO.N,Y0*%
X200660000Y-63500000D03*
%TO.P,U5,10*%
%TO.N,Net-(U4-Pad15)*%
X208280000Y-73660000D03*
%TO.P,U5,2*%
%TO.N,CLK1*%
X200660000Y-60960000D03*
%TO.P,U5,9*%
%TO.N,~PH*%
X208280000Y-76200000D03*
D15*
%TO.P,U5,1*%
%TO.N,~RST*%
X200660000Y-58420000D03*
%TD*%
D16*
%TO.P,U4,16*%
%TO.N,VCC*%
X223520000Y-58420000D03*
%TO.P,U4,8*%
%TO.N,GND*%
X215900000Y-76200000D03*
%TO.P,U4,15*%
%TO.N,Net-(U4-Pad15)*%
X223520000Y-60960000D03*
%TO.P,U4,7*%
%TO.N,H*%
X215900000Y-73660000D03*
%TO.P,U4,14*%
%TO.N,/PRG/PC4*%
X223520000Y-63500000D03*
%TO.P,U4,6*%
%TO.N,BUS7*%
X215900000Y-71120000D03*
%TO.P,U4,13*%
%TO.N,/PRG/PC5*%
X223520000Y-66040000D03*
%TO.P,U4,5*%
%TO.N,BUS6*%
X215900000Y-68580000D03*
%TO.P,U4,12*%
%TO.N,/PRG/PC6*%
X223520000Y-68580000D03*
%TO.P,U4,4*%
%TO.N,BUS5*%
X215900000Y-66040000D03*
%TO.P,U4,11*%
%TO.N,/PRG/PC7*%
X223520000Y-71120000D03*
%TO.P,U4,3*%
%TO.N,BUS4*%
X215900000Y-63500000D03*
%TO.P,U4,10*%
%TO.N,Net-(U3-Pad15)*%
X223520000Y-73660000D03*
%TO.P,U4,2*%
%TO.N,CLK1*%
X215900000Y-60960000D03*
%TO.P,U4,9*%
%TO.N,~PL*%
X223520000Y-76200000D03*
D15*
%TO.P,U4,1*%
%TO.N,~RST*%
X215900000Y-58420000D03*
%TD*%
D16*
%TO.P,U3,16*%
%TO.N,VCC*%
X236220000Y-58420000D03*
%TO.P,U3,8*%
%TO.N,GND*%
X228600000Y-76200000D03*
%TO.P,U3,15*%
%TO.N,Net-(U3-Pad15)*%
X236220000Y-60960000D03*
%TO.P,U3,7*%
%TO.N,H*%
X228600000Y-73660000D03*
%TO.P,U3,14*%
%TO.N,/PRG/PC0*%
X236220000Y-63500000D03*
%TO.P,U3,6*%
%TO.N,BUS3*%
X228600000Y-71120000D03*
%TO.P,U3,13*%
%TO.N,/PRG/PC1*%
X236220000Y-66040000D03*
%TO.P,U3,5*%
%TO.N,BUS2*%
X228600000Y-68580000D03*
%TO.P,U3,12*%
%TO.N,/PRG/PC2*%
X236220000Y-68580000D03*
%TO.P,U3,4*%
%TO.N,BUS1*%
X228600000Y-66040000D03*
%TO.P,U3,11*%
%TO.N,/PRG/PC3*%
X236220000Y-71120000D03*
%TO.P,U3,3*%
%TO.N,BUS0*%
X228600000Y-63500000D03*
%TO.P,U3,10*%
%TO.N,H*%
X236220000Y-73660000D03*
%TO.P,U3,2*%
%TO.N,CLK1*%
X228600000Y-60960000D03*
%TO.P,U3,9*%
%TO.N,~PL*%
X236220000Y-76200000D03*
D15*
%TO.P,U3,1*%
%TO.N,~RST*%
X228600000Y-58420000D03*
%TD*%
%TO.P,U1,1*%
%TO.N,Net-(C1-Pad1)*%
X208280000Y-49530000D03*
D16*
%TO.P,U1,8*%
%TO.N,CLK2*%
X223520000Y-41910000D03*
%TO.P,U1,2*%
%TO.N,Net-(R1-Pad1)*%
X210820000Y-49530000D03*
%TO.P,U1,9*%
%TO.N,Net-(C3-Pad1)*%
X220980000Y-41910000D03*
%TO.P,U1,3*%
%TO.N,Net-(U1-Pad11)*%
X213360000Y-49530000D03*
%TO.P,U1,10*%
%TO.N,N/C*%
X218440000Y-41910000D03*
%TO.P,U1,4*%
%TO.N,CLK1*%
X215900000Y-49530000D03*
%TO.P,U1,11*%
%TO.N,Net-(U1-Pad11)*%
X215900000Y-41910000D03*
%TO.P,U1,5*%
%TO.N,CLK1*%
X218440000Y-49530000D03*
%TO.P,U1,12*%
%TO.N,Net-(U1-Pad11)*%
X213360000Y-41910000D03*
%TO.P,U1,6*%
%TO.N,Net-(C3-Pad1)*%
X220980000Y-49530000D03*
%TO.P,U1,13*%
%TO.N,Net-(R1-Pad1)*%
X210820000Y-41910000D03*
%TO.P,U1,7*%
%TO.N,GND*%
X223520000Y-49530000D03*
%TO.P,U1,14*%
%TO.N,VCC*%
X208280000Y-41910000D03*
%TD*%
D26*
%TO.P,J2,1*%
%TO.N,GND*%
X86360000Y-28630000D03*
%TO.P,J2,2*%
%TO.N,Net-(C44-Pad1)*%
X81360000Y-33630000D03*
%TO.P,J2,3*%
X91360000Y-33630000D03*
D27*
%TO.P,J2,10*%
%TO.N,N/C*%
X84360000Y-33630000D03*
%TO.P,J2,11*%
X88360000Y-33630000D03*
D28*
%TO.P,J2,MH1*%
X91360000Y-26130000D03*
%TO.P,J2,MH2*%
X91360000Y-28630000D03*
%TO.P,J2,MH3*%
X86360000Y-33630000D03*
%TO.P,J2,MH4*%
X81360000Y-26130000D03*
%TO.P,J2,MH5*%
X81360000Y-28630000D03*
%TD*%
D29*
%TO.P,D8,2*%
%TO.N,Net-(D8-Pad2)*%
X45720000Y-45720000D03*
D21*
%TO.P,D8,1*%
%TO.N,Net-(D8-Pad1)*%
X45720000Y-43180000D03*
%TD*%
D29*
%TO.P,D7,2*%
%TO.N,Net-(D7-Pad2)*%
X40640000Y-45720000D03*
D21*
%TO.P,D7,1*%
%TO.N,Net-(D7-Pad1)*%
X40640000Y-43180000D03*
%TD*%
D29*
%TO.P,D6,2*%
%TO.N,Net-(D6-Pad2)*%
X35560000Y-45720000D03*
D21*
%TO.P,D6,1*%
%TO.N,Net-(D6-Pad1)*%
X35560000Y-43180000D03*
%TD*%
D29*
%TO.P,D5,2*%
%TO.N,Net-(D5-Pad2)*%
X30480000Y-45720000D03*
D21*
%TO.P,D5,1*%
%TO.N,Net-(D5-Pad1)*%
X30480000Y-43180000D03*
%TD*%
D29*
%TO.P,D2,2*%
%TO.N,~RST*%
X173355000Y-45720000D03*
D21*
%TO.P,D2,1*%
%TO.N,Net-(D2-Pad1)*%
X173355000Y-43180000D03*
%TD*%
D19*
%TO.P,A15,1*%
%TO.N,Net-(A15-Pad1)*%
X147320000Y-84455000D03*
%TD*%
D30*
%TO.N,CLK1*%
X213646300Y-106541400D03*
X140286000Y-109574300D03*
%TO.N,CLK2*%
X193716100Y-40899900D03*
%TO.N,BUS0*%
X65556100Y-120663500D03*
X166878300Y-115855700D03*
X193071600Y-57150300D03*
%TO.N,BUS1*%
X59902600Y-132244500D03*
X139988200Y-126343400D03*
X156312800Y-106197300D03*
%TO.N,BUS2*%
X227076500Y-79760200D03*
X166491000Y-91169100D03*
X63772800Y-87114400D03*
%TO.N,BUS3*%
X227505000Y-76996300D03*
X180861900Y-119638900D03*
%TO.N,BUS4*%
X93215700Y-112580400D03*
X168792700Y-112920800D03*
X201931600Y-81336900D03*
%TO.N,BUS5*%
X83907500Y-129535200D03*
X211779900Y-82002600D03*
X57315100Y-131772100D03*
X228841200Y-52457700D03*
X199390000Y-99688900D03*
%TO.N,BUS6*%
X72373000Y-158769400D03*
X77618700Y-105206100D03*
X229106000Y-55286600D03*
X209952200Y-74547000D03*
X193445000Y-96224200D03*
X184292400Y-96224200D03*
%TO.N,BUS7*%
X163136600Y-84331500D03*
X212333600Y-78507500D03*
X189296000Y-120931600D03*
X181743700Y-84808300D03*
%TO.N,AC1*%
X55081100Y-129540000D03*
%TO.N,AC2*%
X54621400Y-89781300D03*
%TO.N,AC4*%
X60735800Y-112650100D03*
%TO.N,AC5*%
X66006400Y-126815500D03*
%TO.N,AC6*%
X58747200Y-88335400D03*
%TO.N,AC7*%
X59326000Y-108642000D03*
%TO.N,ALU3*%
X66803500Y-62825000D03*
X58688100Y-103734400D03*
X108990700Y-67789100D03*
%TO.N,ALU2*%
X79860600Y-112878400D03*
X149413700Y-57130300D03*
X116465100Y-56645600D03*
%TO.N,ALU0*%
X80660300Y-114302700D03*
X104202500Y-75800500D03*
%TO.N,Y0*%
X179732000Y-66613700D03*
%TO.N,Y1*%
X161403900Y-66128400D03*
%TO.N,/RAM/A4*%
X120058200Y-106436700D03*
%TO.N,D1*%
X139115800Y-110507300D03*
%TO.N,D2*%
X136707100Y-109015100D03*
%TO.N,D3*%
X139855600Y-111164500D03*
%TO.N,D4*%
X120937000Y-108343600D03*
%TO.N,D7*%
X127694600Y-113035500D03*
X192044000Y-117118400D03*
%TO.N,ALU4*%
X120570900Y-49334500D03*
X107620000Y-55072700D03*
%TO.N,ALU5*%
X120327700Y-62832700D03*
X102547600Y-76853100D03*
X76365000Y-118302500D03*
%TO.N,ALU6*%
X169256700Y-58524600D03*
X108256700Y-55608100D03*
X85980600Y-91005400D03*
X79264600Y-104281300D03*
%TO.N,ALU7*%
X168948200Y-81729800D03*
%TO.N,Net-(U18-Pad9)*%
X74800700Y-142240000D03*
%TO.N,~OE*%
X186552100Y-126384600D03*
X170885800Y-106453900D03*
%TO.N,L*%
X219885700Y-100008100D03*
X157596600Y-87108600D03*
X74248300Y-152400000D03*
%TO.N,H*%
X107641700Y-153526800D03*
X190500000Y-79226800D03*
%TO.N,~PL*%
X181374300Y-120264300D03*
%TO.N,~PH*%
X158259200Y-107334700D03*
X187174300Y-101916500D03*
%TO.N,IR6*%
X210548000Y-117642200D03*
%TO.N,Net-(D5-Pad2)*%
X50064700Y-76153500D03*
%TO.N,/CU/INV_C_OUT*%
X143480200Y-128040400D03*
%TO.N,EL*%
X155520100Y-86599100D03*
%TO.N,AR0*%
X50881300Y-102410200D03*
%TO.N,CO*%
X144939500Y-118731600D03*
X163950100Y-132210400D03*
%TO.N,IX*%
X101912300Y-147927300D03*
%TO.N,~XL*%
X134658100Y-133689800D03*
%TO.N,~OL*%
X129975100Y-125901900D03*
X112865600Y-54335300D03*
%TO.N,Net-(U4-Pad15)*%
X217857700Y-66388600D03*
%TO.N,Net-(U29-Pad15)*%
X119046500Y-73246900D03*
%TO.N,Net-(D25-Pad2)*%
X156961800Y-148901700D03*
%TO.N,GND*%
X60318100Y-127230000D03*
%TO.N,VCC*%
X185420000Y-100213000D03*
%TD*%
D31*
%TO.N,Net-(C1-Pad1)*%
X187630000Y-48180000D02*
X182960000Y-48180000D01*
X182960000Y-48180000D02*
X182880000Y-48260000D01*
X191279700Y-48260000D02*
X191199700Y-48180000D01*
X191199700Y-48180000D02*
X187630000Y-48180000D01*
X192405000Y-48260000D02*
X191279700Y-48260000D01*
X192405000Y-48260000D02*
X193530300Y-48260000D01*
X208280000Y-49530000D02*
X194800300Y-49530000D01*
X194800300Y-49530000D02*
X193530300Y-48260000D01*
%TO.N,Net-(C2-Pad1)*%
X187630000Y-43300000D02*
X192285000Y-43300000D01*
X192285000Y-43300000D02*
X192405000Y-43180000D01*
X182880000Y-43180000D02*
X183000000Y-43300000D01*
X183000000Y-43300000D02*
X187630000Y-43300000D01*
%TO.N,CLK1*%
X208280000Y-106680000D02*
X209405300Y-106680000D01*
X213646300Y-106541400D02*
X209543900Y-106541400D01*
X209543900Y-106541400D02*
X209405300Y-106680000D01*
X207154700Y-106680000D02*
X207154700Y-106961300D01*
X207154700Y-106961300D02*
X204541700Y-109574300D01*
X204541700Y-109574300D02*
X140286000Y-109574300D01*
X208280000Y-106680000D02*
X207154700Y-106680000D01*
X215900000Y-60960000D02*
X214774700Y-60960000D01*
X200660000Y-60960000D02*
X201785300Y-60960000D01*
X201785300Y-60960000D02*
X202910600Y-59834700D01*
X202910600Y-59834700D02*
X213649400Y-59834700D01*
X213649400Y-59834700D02*
X214774700Y-60960000D01*
X200097400Y-60960000D02*
X200660000Y-60960000D01*
X215900000Y-60960000D02*
X217025300Y-60960000D01*
X228600000Y-60960000D02*
X227474700Y-60960000D01*
X227474700Y-60960000D02*
X226349400Y-62085300D01*
X226349400Y-62085300D02*
X218150600Y-62085300D01*
X218150600Y-62085300D02*
X217025300Y-60960000D01*
X218440000Y-49530000D02*
X215900000Y-49530000D01*
X200097400Y-60960000D02*
X199534700Y-60960000D01*
X187960000Y-60960000D02*
X189085300Y-60960000D01*
X199534700Y-60960000D02*
X198409400Y-62085300D01*
X198409400Y-62085300D02*
X190210600Y-62085300D01*
X190210600Y-62085300D02*
X189085300Y-60960000D01*
%TO.N,CLK2*%
X193716100Y-40784700D02*
X221550800Y-40784700D01*
X221550800Y-40784700D02*
X222394700Y-41628600D01*
X222394700Y-41628600D02*
X222394700Y-41910000D01*
X125585300Y-33020000D02*
X130964400Y-38399100D01*
X130964400Y-38399100D02*
X147960600Y-38399100D01*
X147960600Y-38399100D02*
X152642300Y-43080800D01*
X152642300Y-43080800D02*
X159344200Y-43080800D01*
X159344200Y-43080800D02*
X161640300Y-40784700D01*
X161640300Y-40784700D02*
X193716100Y-40784700D01*
X193716100Y-40784700D02*
X193716100Y-40899900D01*
X223520000Y-41910000D02*
X222394700Y-41910000D01*
X124460000Y-33020000D02*
X125585300Y-33020000D01*
X121357400Y-60960000D02*
X121920000Y-60960000D01*
X121357400Y-60960000D02*
X120794700Y-60960000D01*
X106680000Y-60960000D02*
X107805300Y-60960000D01*
X120794700Y-60960000D02*
X119669400Y-59834700D01*
X119669400Y-59834700D02*
X108930600Y-59834700D01*
X108930600Y-59834700D02*
X107805300Y-60960000D01*
%TO.N,BUS0*%
X166878300Y-115855700D02*
X161856300Y-115855700D01*
X161856300Y-115855700D02*
X154666700Y-123045300D01*
X154666700Y-123045300D02*
X146847700Y-123045300D01*
X146847700Y-123045300D02*
X146050000Y-122247600D01*
X146050000Y-122247600D02*
X146050000Y-121552000D01*
X146050000Y-121552000D02*
X144827000Y-120329000D01*
X144827000Y-120329000D02*
X83384200Y-120329000D01*
X83384200Y-120329000D02*
X81882600Y-121830600D01*
X81882600Y-121830600D02*
X77155800Y-121830600D01*
X77155800Y-121830600D02*
X74817600Y-119492400D01*
X74817600Y-119492400D02*
X66727200Y-119492400D01*
X66727200Y-119492400D02*
X65556100Y-120663500D01*
X40640000Y-152400000D02*
X41765300Y-152400000D01*
X63500000Y-149860000D02*
X62374700Y-149860000D01*
X62374700Y-149860000D02*
X61213200Y-148698500D01*
X61213200Y-148698500D02*
X45466800Y-148698500D01*
X45466800Y-148698500D02*
X41765300Y-152400000D01*
X233680000Y-41910000D02*
X232554700Y-41910000D01*
X193071600Y-57150300D02*
X209632700Y-57150300D01*
X209632700Y-57150300D02*
X215747100Y-51035900D01*
X215747100Y-51035900D02*
X218593700Y-51035900D01*
X218593700Y-51035900D02*
X219710000Y-49919600D01*
X219710000Y-49919600D02*
X219710000Y-49162100D01*
X219710000Y-49162100D02*
X225836800Y-43035300D01*
X225836800Y-43035300D02*
X231710800Y-43035300D01*
X231710800Y-43035300D02*
X232554700Y-42191400D01*
X232554700Y-42191400D02*
X232554700Y-41910000D01*
%TO.N,BUS1*%
X139988200Y-126343400D02*
X133203100Y-126343400D01*
X133203100Y-126343400D02*
X131148600Y-128397900D01*
X131148600Y-128397900D02*
X125175500Y-128397900D01*
X125175500Y-128397900D02*
X115482700Y-138090700D01*
X115482700Y-138090700D02*
X98524000Y-138090700D01*
X98524000Y-138090700D02*
X80538400Y-156076300D01*
X80538400Y-156076300D02*
X70166600Y-156076300D01*
X70166600Y-156076300D02*
X69030300Y-154940000D01*
X69030300Y-154940000D02*
X63500000Y-154940000D01*
X41765300Y-127000000D02*
X45575300Y-130810000D01*
X45575300Y-130810000D02*
X52966400Y-130810000D01*
X52966400Y-130810000D02*
X54570500Y-132414100D01*
X54570500Y-132414100D02*
X59733000Y-132414100D01*
X59733000Y-132414100D02*
X59902600Y-132244500D01*
X40640000Y-127000000D02*
X41765300Y-127000000D01*
X163974700Y-104140000D02*
X163974700Y-104421300D01*
X163974700Y-104421300D02*
X162198700Y-106197300D01*
X162198700Y-106197300D02*
X156312800Y-106197300D01*
X165100000Y-104140000D02*
X163974700Y-104140000D01*
%TO.N,BUS2*%
X63772800Y-87114400D02*
X63401900Y-87485300D01*
X63401900Y-87485300D02*
X42890600Y-87485300D01*
X42890600Y-87485300D02*
X41765300Y-86360000D01*
X166491000Y-91169100D02*
X189285000Y-91169100D01*
X189285000Y-91169100D02*
X196971500Y-98855600D01*
X196971500Y-98855600D02*
X196971500Y-99585000D01*
X196971500Y-99585000D02*
X197704200Y-100317700D01*
X197704200Y-100317700D02*
X201001600Y-100317700D01*
X201001600Y-100317700D02*
X201930000Y-99389300D01*
X201930000Y-99389300D02*
X201930000Y-98662000D01*
X201930000Y-98662000D02*
X214902600Y-85689400D01*
X214902600Y-85689400D02*
X220737600Y-85689400D01*
X220737600Y-85689400D02*
X222250000Y-84177000D01*
X222250000Y-84177000D02*
X222250000Y-83442800D01*
X222250000Y-83442800D02*
X222998100Y-82694700D01*
X222998100Y-82694700D02*
X224142000Y-82694700D01*
X224142000Y-82694700D02*
X227076500Y-79760200D01*
X63772800Y-87114400D02*
X65652600Y-85234600D01*
X65652600Y-85234600D02*
X78928800Y-85234600D01*
X78928800Y-85234600D02*
X79865400Y-84298000D01*
X79865400Y-84298000D02*
X79865400Y-83289400D01*
X79865400Y-83289400D02*
X77594000Y-81018000D01*
X77594000Y-81018000D02*
X77594000Y-79510000D01*
X77594000Y-79510000D02*
X78225500Y-78878500D01*
X78225500Y-78878500D02*
X100774300Y-78878500D01*
X100774300Y-78878500D02*
X101197200Y-79301400D01*
X101197200Y-79301400D02*
X148219400Y-79301400D01*
X148219400Y-79301400D02*
X154891800Y-85973800D01*
X154891800Y-85973800D02*
X161280400Y-85973800D01*
X161280400Y-85973800D02*
X163929900Y-88623300D01*
X163929900Y-88623300D02*
X163929900Y-89325900D01*
X163929900Y-89325900D02*
X165773100Y-91169100D01*
X165773100Y-91169100D02*
X166491000Y-91169100D01*
X40640000Y-86360000D02*
X41765300Y-86360000D01*
%TO.N,BUS3*%
X40640000Y-62085300D02*
X40358600Y-62085300D01*
X40358600Y-62085300D02*
X39514700Y-62929200D01*
X39514700Y-62929200D02*
X39514700Y-64022200D01*
X39514700Y-64022200D02*
X40262500Y-64770000D01*
X40262500Y-64770000D02*
X40967500Y-64770000D01*
X40967500Y-64770000D02*
X44996500Y-68799000D01*
X44996500Y-68799000D02*
X44996500Y-72005200D01*
X44996500Y-72005200D02*
X48053400Y-75062100D01*
X48053400Y-75062100D02*
X97649700Y-75062100D01*
X97649700Y-75062100D02*
X101430300Y-78842700D01*
X101430300Y-78842700D02*
X153129000Y-78842700D01*
X153129000Y-78842700D02*
X159699700Y-85413400D01*
X159699700Y-85413400D02*
X168897800Y-85413400D01*
X168897800Y-85413400D02*
X170180000Y-86695600D01*
X204614700Y-121920000D02*
X204614700Y-121638700D01*
X204614700Y-121638700D02*
X202614900Y-119638900D01*
X202614900Y-119638900D02*
X180861900Y-119638900D01*
X170180000Y-86695600D02*
X182625200Y-86695600D01*
X182625200Y-86695600D02*
X188613100Y-80707700D01*
X188613100Y-80707700D02*
X223793600Y-80707700D01*
X223793600Y-80707700D02*
X227505000Y-76996300D01*
X170180000Y-86695600D02*
X170180000Y-87774700D01*
X170180000Y-88900000D02*
X170180000Y-87774700D01*
X40640000Y-60960000D02*
X40640000Y-62085300D01*
X205740000Y-121920000D02*
X204614700Y-121920000D01*
%TO.N,BUS4*%
X168792700Y-112920800D02*
X168282100Y-112410200D01*
X168282100Y-112410200D02*
X93385900Y-112410200D01*
X93385900Y-112410200D02*
X93215700Y-112580400D01*
X168765300Y-88900000D02*
X168765300Y-89181300D01*
X168765300Y-89181300D02*
X169609400Y-90025400D01*
X169609400Y-90025400D02*
X180056000Y-90025400D01*
X180056000Y-90025400D02*
X188744400Y-81337000D01*
X188744400Y-81337000D02*
X201931600Y-81337000D01*
X201931600Y-81337000D02*
X201931600Y-81336900D01*
X167640000Y-88900000D02*
X168765300Y-88900000D01*
X78740000Y-154940000D02*
X77614700Y-154940000D01*
X55880000Y-149860000D02*
X57005300Y-149860000D01*
X57005300Y-149860000D02*
X60960000Y-153814700D01*
X60960000Y-153814700D02*
X76489400Y-153814700D01*
X76489400Y-153814700D02*
X77614700Y-154940000D01*
%TO.N,BUS5*%
X83907500Y-129535200D02*
X92663300Y-120779400D01*
X92663300Y-120779400D02*
X131867800Y-120779400D01*
X131867800Y-120779400D02*
X135054900Y-123966500D01*
X135054900Y-123966500D02*
X143237800Y-123966500D01*
X143237800Y-123966500D02*
X143688100Y-124416800D01*
X143688100Y-124416800D02*
X159351600Y-124416800D01*
X159351600Y-124416800D02*
X160623100Y-123145300D01*
X160623100Y-123145300D02*
X180986800Y-123145300D01*
X180986800Y-123145300D02*
X183827100Y-120305000D01*
X183827100Y-120305000D02*
X198201000Y-120305000D01*
X198201000Y-120305000D02*
X199534700Y-121638700D01*
X199534700Y-121638700D02*
X199534700Y-121920000D01*
X200660000Y-121920000D02*
X199534700Y-121920000D01*
X199390000Y-91906200D02*
X201843400Y-91906200D01*
X201843400Y-91906200D02*
X209550000Y-84199600D01*
X209550000Y-84199600D02*
X209550000Y-83418200D01*
X209550000Y-83418200D02*
X210965500Y-82002700D01*
X210965500Y-82002700D02*
X211779900Y-82002700D01*
X211779900Y-82002700D02*
X211779900Y-82002600D01*
X199390000Y-91906200D02*
X199390000Y-99688900D01*
X166225300Y-88900000D02*
X166225300Y-89181300D01*
X166225300Y-89181300D02*
X167569200Y-90525200D01*
X167569200Y-90525200D02*
X198009000Y-90525200D01*
X198009000Y-90525200D02*
X199390000Y-91906200D01*
X77614700Y-129540000D02*
X76489400Y-130665300D01*
X76489400Y-130665300D02*
X58421900Y-130665300D01*
X58421900Y-130665300D02*
X57315100Y-131772100D01*
X78740000Y-129540000D02*
X77614700Y-129540000D01*
X241300000Y-49530000D02*
X240174700Y-49530000D01*
X228841200Y-52457700D02*
X230643600Y-50655300D01*
X230643600Y-50655300D02*
X239330800Y-50655300D01*
X239330800Y-50655300D02*
X240174700Y-49811400D01*
X240174700Y-49811400D02*
X240174700Y-49530000D01*
X165100000Y-88900000D02*
X166225300Y-88900000D01*
%TO.N,BUS6*%
X215900000Y-69705300D02*
X214793900Y-69705300D01*
X214793900Y-69705300D02*
X209952200Y-74547000D01*
X80540500Y-90044600D02*
X80540500Y-102121100D01*
X80540500Y-102121100D02*
X77618700Y-105042900D01*
X77618700Y-105042900D02*
X77618700Y-105206100D01*
X79865300Y-88900000D02*
X80540500Y-89575200D01*
X80540500Y-89575200D02*
X80540500Y-90044600D01*
X161434700Y-88900000D02*
X161434700Y-88618700D01*
X161434700Y-88618700D02*
X160554500Y-87738500D01*
X160554500Y-87738500D02*
X118791000Y-87738500D01*
X118791000Y-87738500D02*
X116484900Y-90044600D01*
X116484900Y-90044600D02*
X80540500Y-90044600D01*
X162560000Y-88900000D02*
X161434700Y-88900000D01*
X184292400Y-96224200D02*
X169884200Y-96224200D01*
X169884200Y-96224200D02*
X162560000Y-88900000D01*
X55880000Y-160020000D02*
X57005300Y-160020000D01*
X72373000Y-158769400D02*
X58255900Y-158769400D01*
X58255900Y-158769400D02*
X57005300Y-160020000D01*
X229106000Y-55286600D02*
X232822100Y-51570500D01*
X232822100Y-51570500D02*
X240955600Y-51570500D01*
X240955600Y-51570500D02*
X242714700Y-49811400D01*
X242714700Y-49811400D02*
X242714700Y-49530000D01*
X184292400Y-96224200D02*
X193445000Y-96224200D01*
X243840000Y-49530000D02*
X242714700Y-49530000D01*
X215900000Y-68580000D02*
X215900000Y-69705300D01*
X78740000Y-88900000D02*
X79865300Y-88900000D01*
%TO.N,BUS7*%
X163136600Y-84331500D02*
X160337300Y-84331500D01*
X160337300Y-84331500D02*
X154398100Y-78392300D01*
X154398100Y-78392300D02*
X103179700Y-78392300D01*
X103179700Y-78392300D02*
X88287400Y-63500000D01*
X88287400Y-63500000D02*
X78740000Y-63500000D01*
X181743700Y-84808300D02*
X181266900Y-84331500D01*
X181266900Y-84331500D02*
X163136600Y-84331500D01*
X194454700Y-121920000D02*
X194454700Y-121638600D01*
X194454700Y-121638600D02*
X193572600Y-120756500D01*
X193572600Y-120756500D02*
X189471100Y-120756500D01*
X189471100Y-120756500D02*
X189296000Y-120931600D01*
X181743700Y-84808300D02*
X183666200Y-84808300D01*
X183666200Y-84808300D02*
X188217200Y-80257300D01*
X188217200Y-80257300D02*
X210583800Y-80257300D01*
X210583800Y-80257300D02*
X212333600Y-78507500D01*
X195580000Y-121920000D02*
X194454700Y-121920000D01*
X246380000Y-49530000D02*
X246380000Y-50655300D01*
X215900000Y-71120000D02*
X217025300Y-71120000D01*
X217025300Y-71120000D02*
X217025300Y-70838700D01*
X217025300Y-70838700D02*
X223094000Y-64770000D01*
X223094000Y-64770000D02*
X224794700Y-64770000D01*
X224794700Y-64770000D02*
X227190100Y-62374600D01*
X227190100Y-62374600D02*
X228829800Y-62374600D01*
X228829800Y-62374600D02*
X231514400Y-59690000D01*
X231514400Y-59690000D02*
X237345300Y-59690000D01*
X237345300Y-59690000D02*
X246380000Y-50655300D01*
%TO.N,AC1*%
X49385300Y-129540000D02*
X55081100Y-129540000D01*
X48260000Y-129540000D02*
X49385300Y-129540000D01*
%TO.N,AC2*%
X49385300Y-88900000D02*
X50266600Y-89781300D01*
X50266600Y-89781300D02*
X54621400Y-89781300D01*
X48260000Y-88900000D02*
X49385300Y-88900000D01*
%TO.N,AC3*%
X55880000Y-63500000D02*
X48260000Y-63500000D01*
%TO.N,AC4*%
X63500000Y-114300000D02*
X62374700Y-114300000D01*
X62374700Y-114300000D02*
X62374700Y-114289000D01*
X62374700Y-114289000D02*
X60735800Y-112650100D01*
X63500000Y-152400000D02*
X71120000Y-152400000D01*
%TO.N,AC5*%
X64625300Y-121920000D02*
X66006400Y-123301100D01*
X66006400Y-123301100D02*
X66006400Y-126815500D01*
X69994700Y-127000000D02*
X66190900Y-127000000D01*
X66190900Y-127000000D02*
X66006400Y-126815500D01*
X71120000Y-127000000D02*
X69994700Y-127000000D01*
X63500000Y-121920000D02*
X64625300Y-121920000D01*
%TO.N,AC6*%
X69994700Y-86360000D02*
X68019300Y-88335400D01*
X68019300Y-88335400D02*
X58747200Y-88335400D01*
X71120000Y-86360000D02*
X69994700Y-86360000D01*
%TO.N,AC7*%
X59326000Y-108642000D02*
X62374700Y-111690700D01*
X62374700Y-111690700D02*
X62374700Y-111760000D01*
X63500000Y-111760000D02*
X62374700Y-111760000D01*
X64625300Y-63500000D02*
X67454700Y-63500000D01*
X67454700Y-63500000D02*
X69994700Y-60960000D01*
X63500000Y-63500000D02*
X64625300Y-63500000D01*
X71120000Y-60960000D02*
X69994700Y-60960000D01*
%TO.N,ALU3*%
X57005300Y-106680000D02*
X57005300Y-105417200D01*
X57005300Y-105417200D02*
X58688100Y-103734400D01*
X66803500Y-62825000D02*
X69938500Y-59690000D01*
X69938500Y-59690000D02*
X79426400Y-59690000D01*
X79426400Y-59690000D02*
X99644800Y-39471600D01*
X99644800Y-39471600D02*
X105511600Y-39471600D01*
X105511600Y-39471600D02*
X106680000Y-40640000D01*
X55880000Y-106680000D02*
X57005300Y-106680000D01*
X49385300Y-109220000D02*
X49385300Y-108938700D01*
X49385300Y-108938700D02*
X51644000Y-106680000D01*
X51644000Y-106680000D02*
X55880000Y-106680000D01*
X120794700Y-71120000D02*
X119669400Y-69994700D01*
X119669400Y-69994700D02*
X111196300Y-69994700D01*
X111196300Y-69994700D02*
X108990700Y-67789100D01*
X121920000Y-71120000D02*
X120794700Y-71120000D01*
X167640000Y-76200000D02*
X166514700Y-76200000D01*
X121920000Y-71120000D02*
X123045300Y-71120000D01*
X123045300Y-71120000D02*
X124178500Y-69986800D01*
X124178500Y-69986800D02*
X152899900Y-69986800D01*
X152899900Y-69986800D02*
X157987800Y-75074700D01*
X157987800Y-75074700D02*
X165389400Y-75074700D01*
X165389400Y-75074700D02*
X166514700Y-76200000D01*
X48260000Y-109220000D02*
X49385300Y-109220000D01*
%TO.N,ALU2*%
X79860600Y-112878400D02*
X79784800Y-112954200D01*
X79784800Y-112954200D02*
X62041000Y-112954200D01*
X62041000Y-112954200D02*
X58306800Y-109220000D01*
X58306800Y-109220000D02*
X57005300Y-109220000D01*
X55880000Y-109220000D02*
X57005300Y-109220000D01*
X55317400Y-109220000D02*
X55880000Y-109220000D01*
X55317400Y-109220000D02*
X54754700Y-109220000D01*
X116465100Y-56645600D02*
X148929000Y-56645600D01*
X148929000Y-56645600D02*
X149413700Y-57130300D01*
X54754700Y-109220000D02*
X53629400Y-110345300D01*
X53629400Y-110345300D02*
X42609200Y-110345300D01*
X42609200Y-110345300D02*
X41765300Y-109501400D01*
X41765300Y-109501400D02*
X41765300Y-109220000D01*
X40640000Y-109220000D02*
X41765300Y-109220000D01*
%TO.N,ALU1*%
X167640000Y-66040000D02*
X166514700Y-66040000D01*
X121920000Y-66040000D02*
X123045300Y-66040000D01*
X123045300Y-66040000D02*
X124177900Y-67172600D01*
X124177900Y-67172600D02*
X138108900Y-67172600D01*
X138108900Y-67172600D02*
X138285400Y-66996100D01*
X138285400Y-66996100D02*
X140575900Y-66996100D01*
X140575900Y-66996100D02*
X142657300Y-64914700D01*
X142657300Y-64914700D02*
X165389400Y-64914700D01*
X165389400Y-64914700D02*
X166514700Y-66040000D01*
X35447900Y-115256100D02*
X34145300Y-116558700D01*
X34145300Y-116558700D02*
X34145300Y-116840000D01*
X54754700Y-116840000D02*
X53170800Y-115256100D01*
X53170800Y-115256100D02*
X35447900Y-115256100D01*
X35447900Y-115256100D02*
X30875200Y-110683400D01*
X30875200Y-110683400D02*
X30875200Y-69079500D01*
X30875200Y-69079500D02*
X40145300Y-59809400D01*
X40145300Y-59809400D02*
X41354900Y-59809400D01*
X41354900Y-59809400D02*
X49560500Y-51603800D01*
X49560500Y-51603800D02*
X86321500Y-51603800D01*
X86321500Y-51603800D02*
X98947100Y-38978200D01*
X98947100Y-38978200D02*
X115178200Y-38978200D01*
X115178200Y-38978200D02*
X116840000Y-40640000D01*
X33020000Y-116840000D02*
X34145300Y-116840000D01*
X55880000Y-116840000D02*
X54754700Y-116840000D01*
%TO.N,ALU0*%
X167640000Y-63500000D02*
X166514700Y-63500000D01*
X121920000Y-63500000D02*
X123045300Y-63500000D01*
X123045300Y-63500000D02*
X124206800Y-64661500D01*
X124206800Y-64661500D02*
X140289000Y-64661500D01*
X140289000Y-64661500D02*
X142667700Y-62282800D01*
X142667700Y-62282800D02*
X165297500Y-62282800D01*
X165297500Y-62282800D02*
X166514700Y-63500000D01*
X121357400Y-63500000D02*
X121920000Y-63500000D01*
X121357400Y-63500000D02*
X120794700Y-63500000D01*
X57005300Y-119380000D02*
X60801700Y-115583600D01*
X60801700Y-115583600D02*
X64751700Y-115583600D01*
X64751700Y-115583600D02*
X66032600Y-114302700D01*
X66032600Y-114302700D02*
X80660300Y-114302700D01*
X120794700Y-63500000D02*
X117127500Y-67167200D01*
X117127500Y-67167200D02*
X109257800Y-67167200D01*
X109257800Y-67167200D02*
X109254400Y-67163800D01*
X109254400Y-67163800D02*
X108731700Y-67163800D01*
X108731700Y-67163800D02*
X108365400Y-67530100D01*
X108365400Y-67530100D02*
X108365400Y-68562500D01*
X108365400Y-68562500D02*
X107077900Y-69850000D01*
X107077900Y-69850000D02*
X106327600Y-69850000D01*
X106327600Y-69850000D02*
X104202500Y-71975100D01*
X104202500Y-71975100D02*
X104202500Y-75800500D01*
X55880000Y-119380000D02*
X57005300Y-119380000D01*
X40640000Y-116840000D02*
X41765300Y-116840000D01*
X55880000Y-119380000D02*
X54754700Y-119380000D01*
X54754700Y-119380000D02*
X54754700Y-119098700D01*
X54754700Y-119098700D02*
X51370700Y-115714700D01*
X51370700Y-115714700D02*
X42609200Y-115714700D01*
X42609200Y-115714700D02*
X41765300Y-116558600D01*
X41765300Y-116558600D02*
X41765300Y-116840000D01*
%TO.N,~AE*%
X64625300Y-147320000D02*
X68316200Y-151010900D01*
X68316200Y-151010900D02*
X79291000Y-151010900D01*
X79291000Y-151010900D02*
X93535300Y-136766600D01*
X93535300Y-136766600D02*
X113948900Y-136766600D01*
X113948900Y-136766600D02*
X125453700Y-125261800D01*
X125453700Y-125261800D02*
X143047300Y-125261800D01*
X143047300Y-125261800D02*
X143252900Y-125467400D01*
X143252900Y-125467400D02*
X144842500Y-125467400D01*
X144842500Y-125467400D02*
X148590000Y-129214900D01*
X148590000Y-129214900D02*
X148590000Y-129904100D01*
X148590000Y-129904100D02*
X149452400Y-130766500D01*
X149452400Y-130766500D02*
X180067000Y-130766500D01*
X180067000Y-130766500D02*
X185103500Y-125730000D01*
X185103500Y-125730000D02*
X223946000Y-125730000D01*
X223946000Y-125730000D02*
X227474700Y-129258700D01*
X227474700Y-129258700D02*
X227474700Y-129540000D01*
X63500000Y-147320000D02*
X62374700Y-147320000D01*
X55880000Y-144780000D02*
X59834700Y-144780000D01*
X59834700Y-144780000D02*
X62374700Y-147320000D01*
X228600000Y-129540000D02*
X227474700Y-129540000D01*
X63500000Y-147320000D02*
X64625300Y-147320000D01*
%TO.N,Y0*%
X179732000Y-66613700D02*
X181720400Y-64625300D01*
X181720400Y-64625300D02*
X198409400Y-64625300D01*
X198409400Y-64625300D02*
X199534700Y-63500000D01*
X200660000Y-63500000D02*
X199534700Y-63500000D01*
X167077400Y-60960000D02*
X167640000Y-60960000D01*
X153525300Y-60960000D02*
X154650600Y-59834700D01*
X154650600Y-59834700D02*
X165389400Y-59834700D01*
X165389400Y-59834700D02*
X166514700Y-60960000D01*
X167077400Y-60960000D02*
X166514700Y-60960000D01*
X152400000Y-60960000D02*
X153525300Y-60960000D01*
%TO.N,Y1*%
X168765300Y-68580000D02*
X169992300Y-67353000D01*
X169992300Y-67353000D02*
X198221700Y-67353000D01*
X198221700Y-67353000D02*
X199534700Y-66040000D01*
X167640000Y-68580000D02*
X166514700Y-68580000D01*
X166514700Y-68580000D02*
X164063100Y-66128400D01*
X164063100Y-66128400D02*
X161403900Y-66128400D01*
X167914100Y-68580000D02*
X167640000Y-68580000D01*
X167914100Y-68580000D02*
X168765300Y-68580000D01*
X200660000Y-66040000D02*
X199534700Y-66040000D01*
%TO.N,Y2*%
X167640000Y-71120000D02*
X168765300Y-71120000D01*
X168765300Y-71120000D02*
X169902500Y-72257200D01*
X169902500Y-72257200D02*
X175885000Y-72257200D01*
X175885000Y-72257200D02*
X178436900Y-69705300D01*
X178436900Y-69705300D02*
X198409400Y-69705300D01*
X198409400Y-69705300D02*
X199534700Y-68580000D01*
X160020000Y-71120000D02*
X167640000Y-71120000D01*
X200660000Y-68580000D02*
X199534700Y-68580000D01*
%TO.N,Y3*%
X145905300Y-71120000D02*
X147030600Y-72245300D01*
X147030600Y-72245300D02*
X153116800Y-72245300D01*
X153116800Y-72245300D02*
X159611500Y-78740000D01*
X159611500Y-78740000D02*
X167640000Y-78740000D01*
X167640000Y-78740000D02*
X168765300Y-78740000D01*
X199534700Y-71120000D02*
X198409400Y-72245300D01*
X198409400Y-72245300D02*
X181457900Y-72245300D01*
X181457900Y-72245300D02*
X180249700Y-73453500D01*
X180249700Y-73453500D02*
X180249700Y-75382000D01*
X180249700Y-75382000D02*
X175730200Y-79901500D01*
X175730200Y-79901500D02*
X169926800Y-79901500D01*
X169926800Y-79901500D02*
X168765300Y-78740000D01*
X144780000Y-71120000D02*
X145905300Y-71120000D01*
X200660000Y-71120000D02*
X199534700Y-71120000D01*
%TO.N,Y4*%
X177893400Y-62468100D02*
X178925300Y-63500000D01*
X178925300Y-63500000D02*
X187960000Y-63500000D01*
X176385300Y-60960000D02*
X177893400Y-62468100D01*
X177893400Y-62468100D02*
X175728300Y-64633200D01*
X175728300Y-64633200D02*
X167011000Y-64633200D01*
X167011000Y-64633200D02*
X165877800Y-63500000D01*
X165877800Y-63500000D02*
X160020000Y-63500000D01*
X175260000Y-60960000D02*
X176385300Y-60960000D01*
%TO.N,Y6*%
X174134700Y-71120000D02*
X173009400Y-69994700D01*
X173009400Y-69994700D02*
X157699800Y-69994700D01*
X157699800Y-69994700D02*
X155151600Y-67446500D01*
X155151600Y-67446500D02*
X139418800Y-67446500D01*
X139418800Y-67446500D02*
X138285300Y-68580000D01*
X175260000Y-71120000D02*
X174134700Y-71120000D01*
X137160000Y-68580000D02*
X138285300Y-68580000D01*
X175260000Y-71120000D02*
X176385300Y-71120000D01*
X176385300Y-71120000D02*
X178925300Y-68580000D01*
X178925300Y-68580000D02*
X187960000Y-68580000D01*
%TO.N,/RAM/A7*%
X141114700Y-104140000D02*
X141114700Y-103858600D01*
X141114700Y-103858600D02*
X139820500Y-102564400D01*
X139820500Y-102564400D02*
X120832800Y-102564400D01*
X120832800Y-102564400D02*
X116058400Y-97790000D01*
X116058400Y-97790000D02*
X113949300Y-97790000D01*
X113949300Y-97790000D02*
X113174700Y-97015400D01*
X113174700Y-97015400D02*
X113174700Y-93409200D01*
X113174700Y-93409200D02*
X114018600Y-92565300D01*
X114018600Y-92565300D02*
X114300000Y-92565300D01*
X114300000Y-91440000D02*
X114300000Y-92565300D01*
X142240000Y-104140000D02*
X141114700Y-104140000D01*
%TO.N,/RAM/A6*%
X114300000Y-99060000D02*
X115425300Y-99060000D01*
X144780000Y-104140000D02*
X143654700Y-104140000D01*
X143654700Y-104140000D02*
X143654700Y-104421300D01*
X143654700Y-104421300D02*
X142810600Y-105265400D01*
X142810600Y-105265400D02*
X121630700Y-105265400D01*
X121630700Y-105265400D02*
X115425300Y-99060000D01*
%TO.N,/RAM/A5*%
X106680000Y-96520000D02*
X107805300Y-96520000D01*
X147320000Y-104140000D02*
X146194700Y-104140000D01*
X146194700Y-104140000D02*
X146194700Y-104421300D01*
X146194700Y-104421300D02*
X144893600Y-105722400D01*
X144893600Y-105722400D02*
X117007700Y-105722400D01*
X117007700Y-105722400D02*
X107805300Y-96520000D01*
%TO.N,/RAM/A4*%
X148734700Y-104140000D02*
X148734700Y-104421300D01*
X148734700Y-104421300D02*
X146719300Y-106436700D01*
X146719300Y-106436700D02*
X120058200Y-106436700D01*
X149860000Y-104140000D02*
X148734700Y-104140000D01*
%TO.N,/RAM/A3*%
X152400000Y-104140000D02*
X147320000Y-99060000D01*
X147320000Y-99060000D02*
X129540000Y-99060000D01*
%TO.N,/RAM/A2*%
X123045300Y-96520000D02*
X124170600Y-97645300D01*
X124170600Y-97645300D02*
X147601300Y-97645300D01*
X147601300Y-97645300D02*
X153814700Y-103858700D01*
X153814700Y-103858700D02*
X153814700Y-104140000D01*
X121920000Y-96520000D02*
X123045300Y-96520000D01*
X154940000Y-104140000D02*
X153814700Y-104140000D01*
%TO.N,/RAM/A1*%
X121920000Y-88900000D02*
X123045300Y-88900000D01*
X157480000Y-104140000D02*
X156354700Y-104140000D01*
X156354700Y-104140000D02*
X156354700Y-103858700D01*
X156354700Y-103858700D02*
X145206000Y-92710000D01*
X145206000Y-92710000D02*
X126855300Y-92710000D01*
X126855300Y-92710000D02*
X123045300Y-88900000D01*
%TO.N,/RAM/A0*%
X129540000Y-91440000D02*
X146399000Y-91440000D01*
X146399000Y-91440000D02*
X158894700Y-103935700D01*
X158894700Y-103935700D02*
X158894700Y-104140000D01*
X160020000Y-104140000D02*
X158894700Y-104140000D01*
%TO.N,D0*%
X204614700Y-106680000D02*
X204614700Y-106398600D01*
X204614700Y-106398600D02*
X203770800Y-105554700D01*
X203770800Y-105554700D02*
X192121000Y-105554700D01*
X192121000Y-105554700D02*
X187857400Y-101291100D01*
X187857400Y-101291100D02*
X179654500Y-101291100D01*
X179654500Y-101291100D02*
X173865800Y-107079800D01*
X173865800Y-107079800D02*
X168949700Y-107079800D01*
X168949700Y-107079800D02*
X166370000Y-104500100D01*
X166370000Y-104500100D02*
X166370000Y-103784800D01*
X166370000Y-103784800D02*
X152610500Y-90025300D01*
X152610500Y-90025300D02*
X131790600Y-90025300D01*
X131790600Y-90025300D02*
X130665300Y-88900000D01*
X129540000Y-88900000D02*
X130665300Y-88900000D01*
X205740000Y-106680000D02*
X204614700Y-106680000D01*
%TO.N,D1*%
X204614700Y-114300000D02*
X204614700Y-114018700D01*
X204614700Y-114018700D02*
X201103300Y-110507300D01*
X201103300Y-110507300D02*
X139115800Y-110507300D01*
X205740000Y-114300000D02*
X204614700Y-114300000D01*
%TO.N,D2*%
X196994700Y-106680000D02*
X196994700Y-106961300D01*
X196994700Y-106961300D02*
X195007000Y-108949000D01*
X195007000Y-108949000D02*
X136773200Y-108949000D01*
X136773200Y-108949000D02*
X136707100Y-109015100D01*
X198120000Y-106680000D02*
X196994700Y-106680000D01*
%TO.N,D3*%
X196994700Y-114300000D02*
X196994700Y-114018700D01*
X196994700Y-114018700D02*
X194140500Y-111164500D01*
X194140500Y-111164500D02*
X139855600Y-111164500D01*
X198120000Y-114300000D02*
X196994700Y-114300000D01*
%TO.N,D4*%
X194454700Y-106680000D02*
X194454700Y-106961300D01*
X194454700Y-106961300D02*
X192949200Y-108466800D01*
X192949200Y-108466800D02*
X154492800Y-108466800D01*
X154492800Y-108466800D02*
X154369600Y-108343600D01*
X154369600Y-108343600D02*
X120937000Y-108343600D01*
X195580000Y-106680000D02*
X194454700Y-106680000D01*
%TO.N,D5*%
X194454700Y-114300000D02*
X194454700Y-114018700D01*
X194454700Y-114018700D02*
X192395900Y-111959900D01*
X192395900Y-111959900D02*
X121380100Y-111959900D01*
X121380100Y-111959900D02*
X107210200Y-97790000D01*
X107210200Y-97790000D02*
X106358200Y-97790000D01*
X106358200Y-97790000D02*
X105554700Y-96986500D01*
X105554700Y-96986500D02*
X105554700Y-95949200D01*
X105554700Y-95949200D02*
X106398600Y-95105300D01*
X106398600Y-95105300D02*
X106680000Y-95105300D01*
X106680000Y-93980000D02*
X106680000Y-95105300D01*
X195580000Y-114300000D02*
X194454700Y-114300000D01*
%TO.N,D6*%
X186834700Y-106680000D02*
X186834700Y-106961300D01*
X186834700Y-106961300D02*
X185815600Y-107980400D01*
X185815600Y-107980400D02*
X154643300Y-107980400D01*
X154643300Y-107980400D02*
X151130000Y-104467100D01*
X151130000Y-104467100D02*
X151130000Y-103769200D01*
X151130000Y-103769200D02*
X148309600Y-100948800D01*
X148309600Y-100948800D02*
X119854100Y-100948800D01*
X119854100Y-100948800D02*
X115425300Y-96520000D01*
X187960000Y-106680000D02*
X186834700Y-106680000D01*
X114300000Y-96520000D02*
X115425300Y-96520000D01*
%TO.N,D7*%
X187960000Y-115425300D02*
X168762100Y-115425300D01*
X168762100Y-115425300D02*
X166372300Y-113035500D01*
X166372300Y-113035500D02*
X127694600Y-113035500D01*
X187960000Y-115312700D02*
X187960000Y-115425300D01*
X187960000Y-114300000D02*
X187960000Y-115312700D01*
X192044000Y-117118400D02*
X189653100Y-117118400D01*
X189653100Y-117118400D02*
X187960000Y-115425300D01*
%TO.N,ALU4*%
X107620000Y-55072700D02*
X107709900Y-54982800D01*
X107709900Y-54982800D02*
X114922600Y-54982800D01*
X114922600Y-54982800D02*
X120570900Y-49334500D01*
X64625300Y-116840000D02*
X65750600Y-115714700D01*
X65750600Y-115714700D02*
X74230800Y-115714700D01*
X74230800Y-115714700D02*
X75074700Y-116558600D01*
X75074700Y-116558600D02*
X75074700Y-116840000D01*
X120570900Y-49334500D02*
X167791400Y-49334500D01*
X167791400Y-49334500D02*
X176394800Y-57937900D01*
X176394800Y-57937900D02*
X176394800Y-58911500D01*
X176394800Y-58911500D02*
X175555500Y-59750800D01*
X175555500Y-59750800D02*
X174816600Y-59750800D01*
X174816600Y-59750800D02*
X174109300Y-60458100D01*
X174109300Y-60458100D02*
X174109300Y-61505300D01*
X174109300Y-61505300D02*
X174978700Y-62374700D01*
X174978700Y-62374700D02*
X175260000Y-62374700D01*
X76200000Y-116840000D02*
X75074700Y-116840000D01*
X63500000Y-116840000D02*
X64625300Y-116840000D01*
X175260000Y-63500000D02*
X175260000Y-62374700D01*
%TO.N,ALU5*%
X106680000Y-66040000D02*
X107805300Y-66040000D01*
X107805300Y-66040000D02*
X108930600Y-64914700D01*
X108930600Y-64914700D02*
X118245700Y-64914700D01*
X118245700Y-64914700D02*
X120327700Y-62832700D01*
X106680000Y-66121800D02*
X106680000Y-66040000D01*
X106680000Y-66121800D02*
X106680000Y-67094500D01*
X102547600Y-76853100D02*
X102547600Y-71114000D01*
X102547600Y-71114000D02*
X106567100Y-67094500D01*
X106567100Y-67094500D02*
X106680000Y-67094500D01*
X69705300Y-116840000D02*
X69705300Y-117121300D01*
X69705300Y-117121300D02*
X70886500Y-118302500D01*
X70886500Y-118302500D02*
X76365000Y-118302500D01*
X68580000Y-116840000D02*
X69705300Y-116840000D01*
X64625300Y-119380000D02*
X67165300Y-116840000D01*
X67165300Y-116840000D02*
X68580000Y-116840000D01*
X63500000Y-119380000D02*
X64625300Y-119380000D01*
%TO.N,ALU6*%
X169256700Y-58524600D02*
X169256700Y-57910200D01*
X169256700Y-57910200D02*
X166954600Y-55608100D01*
X166954600Y-55608100D02*
X108256700Y-55608100D01*
X79264600Y-104281300D02*
X85980600Y-97565300D01*
X85980600Y-97565300D02*
X85980600Y-91005400D01*
X76200000Y-109220000D02*
X75074700Y-109220000D01*
X63500000Y-106680000D02*
X64625300Y-106680000D01*
X64625300Y-106680000D02*
X64625300Y-106961300D01*
X64625300Y-106961300D02*
X68009300Y-110345300D01*
X68009300Y-110345300D02*
X74230800Y-110345300D01*
X74230800Y-110345300D02*
X75074700Y-109501400D01*
X75074700Y-109501400D02*
X75074700Y-109220000D01*
%TO.N,ALU7*%
X106680000Y-71120000D02*
X106680000Y-72245300D01*
X106680000Y-72245300D02*
X106398700Y-72245300D01*
X106398700Y-72245300D02*
X105553200Y-73090800D01*
X105553200Y-73090800D02*
X105553200Y-74125700D01*
X105553200Y-74125700D02*
X106357500Y-74930000D01*
X106357500Y-74930000D02*
X107499800Y-74930000D01*
X107499800Y-74930000D02*
X110389200Y-77819400D01*
X110389200Y-77819400D02*
X154462100Y-77819400D01*
X154462100Y-77819400D02*
X159091700Y-82449000D01*
X159091700Y-82449000D02*
X168229000Y-82449000D01*
X168229000Y-82449000D02*
X168948200Y-81729800D01*
X64625300Y-109220000D02*
X66215000Y-110809700D01*
X66215000Y-110809700D02*
X81386300Y-110809700D01*
X81386300Y-110809700D02*
X82694700Y-109501300D01*
X82694700Y-109501300D02*
X82694700Y-109220000D01*
X63500000Y-109220000D02*
X64625300Y-109220000D01*
X83820000Y-109220000D02*
X82694700Y-109220000D01*
%TO.N,Net-(U18-Pad9)*%
X77614700Y-142240000D02*
X74800700Y-142240000D01*
X78740000Y-142240000D02*
X77614700Y-142240000D01*
%TO.N,~OE*%
X186552100Y-126384600D02*
X221983600Y-126384600D01*
X221983600Y-126384600D02*
X224934700Y-129335700D01*
X224934700Y-129335700D02*
X224934700Y-129540000D01*
X152400000Y-88900000D02*
X153525300Y-88900000D01*
X226060000Y-129540000D02*
X224934700Y-129540000D01*
X153525300Y-88900000D02*
X153525300Y-89181400D01*
X153525300Y-89181400D02*
X154369200Y-90025300D01*
X154369200Y-90025300D02*
X155137900Y-90025300D01*
X155137900Y-90025300D02*
X168765400Y-103652800D01*
X168765400Y-103652800D02*
X168765400Y-104333500D01*
X168765400Y-104333500D02*
X170885800Y-106453900D01*
%TO.N,IR0*%
X218440000Y-129540000D02*
X219565300Y-129540000D01*
X236220000Y-114300000D02*
X236220000Y-115425300D01*
X236220000Y-115425300D02*
X235938700Y-115425300D01*
X235938700Y-115425300D02*
X229870000Y-121494000D01*
X229870000Y-121494000D02*
X229870000Y-129864500D01*
X229870000Y-129864500D02*
X229069200Y-130665300D01*
X229069200Y-130665300D02*
X220409200Y-130665300D01*
X220409200Y-130665300D02*
X219565300Y-129821400D01*
X219565300Y-129821400D02*
X219565300Y-129540000D01*
%TO.N,~DE*%
X186545300Y-129540000D02*
X186545300Y-129310500D01*
X186545300Y-129310500D02*
X187441100Y-128414700D01*
X187441100Y-128414700D02*
X221550700Y-128414700D01*
X221550700Y-128414700D02*
X222394700Y-129258700D01*
X222394700Y-129258700D02*
X222394700Y-129540000D01*
X185420000Y-129540000D02*
X186545300Y-129540000D01*
X223520000Y-129540000D02*
X222394700Y-129540000D01*
%TO.N,L*%
X220980000Y-144780000D02*
X219854700Y-144780000D01*
X215900000Y-129540000D02*
X214774700Y-129540000D01*
X214774700Y-129540000D02*
X210957700Y-133357000D01*
X210957700Y-133357000D02*
X210957700Y-135179200D01*
X210957700Y-135179200D02*
X219854700Y-144076200D01*
X219854700Y-144076200D02*
X219854700Y-144780000D01*
X219797800Y-97934700D02*
X234250800Y-97934700D01*
X234250800Y-97934700D02*
X235094700Y-98778600D01*
X235094700Y-98778600D02*
X235094700Y-99060000D01*
X191625300Y-99060000D02*
X191625300Y-99341300D01*
X191625300Y-99341300D02*
X193089600Y-100805600D01*
X193089600Y-100805600D02*
X203109900Y-100805600D01*
X203109900Y-100805600D02*
X204470000Y-99445500D01*
X204470000Y-99445500D02*
X204470000Y-98690000D01*
X204470000Y-98690000D02*
X205225300Y-97934700D01*
X205225300Y-97934700D02*
X219797800Y-97934700D01*
X219885700Y-100008100D02*
X219797800Y-99920200D01*
X219797800Y-99920200D02*
X219797800Y-97934700D01*
X236220000Y-99060000D02*
X235094700Y-99060000D01*
X190500000Y-99060000D02*
X191625300Y-99060000D01*
X158605300Y-88900000D02*
X158605300Y-89181300D01*
X158605300Y-89181300D02*
X167358600Y-97934600D01*
X167358600Y-97934600D02*
X189374600Y-97934600D01*
X189374600Y-97934600D02*
X190500000Y-99060000D01*
X157480000Y-88900000D02*
X158605300Y-88900000D01*
X130665300Y-83820000D02*
X134078100Y-87232800D01*
X134078100Y-87232800D02*
X157472400Y-87232800D01*
X157472400Y-87232800D02*
X157596600Y-87108600D01*
X129540000Y-83820000D02*
X130665300Y-83820000D01*
X115425300Y-83820000D02*
X116550600Y-84945300D01*
X116550600Y-84945300D02*
X127289400Y-84945300D01*
X127289400Y-84945300D02*
X128414700Y-83820000D01*
X69994700Y-134620000D02*
X69741200Y-134366500D01*
X69741200Y-134366500D02*
X49638800Y-134366500D01*
X49638800Y-134366500D02*
X49385300Y-134620000D01*
X99060000Y-139700000D02*
X100185300Y-139700000D01*
X100185300Y-139700000D02*
X102725300Y-142240000D01*
X102725300Y-142240000D02*
X106680000Y-142240000D01*
X48260000Y-160020000D02*
X47134700Y-160020000D01*
X40640000Y-149860000D02*
X40640000Y-150985300D01*
X40640000Y-150985300D02*
X40358700Y-150985300D01*
X40358700Y-150985300D02*
X39489100Y-151854900D01*
X39489100Y-151854900D02*
X39489100Y-152905800D01*
X39489100Y-152905800D02*
X40179400Y-153596100D01*
X40179400Y-153596100D02*
X40992100Y-153596100D01*
X40992100Y-153596100D02*
X47134700Y-159738700D01*
X47134700Y-159738700D02*
X47134700Y-160020000D01*
X48260000Y-140825300D02*
X48541300Y-140825300D01*
X48541300Y-140825300D02*
X49396800Y-141680800D01*
X49396800Y-141680800D02*
X49396800Y-142714800D01*
X49396800Y-142714800D02*
X42251600Y-149860000D01*
X42251600Y-149860000D02*
X40640000Y-149860000D01*
X48260000Y-139700000D02*
X48260000Y-140825300D01*
X48260000Y-68580000D02*
X48260000Y-69705300D01*
X48260000Y-93980000D02*
X47134700Y-93980000D01*
X47134700Y-93980000D02*
X47134700Y-93698700D01*
X47134700Y-93698700D02*
X41066000Y-87630000D01*
X41066000Y-87630000D02*
X40286200Y-87630000D01*
X40286200Y-87630000D02*
X39514700Y-86858500D01*
X39514700Y-86858500D02*
X39514700Y-85877800D01*
X39514700Y-85877800D02*
X40447200Y-84945300D01*
X40447200Y-84945300D02*
X40640000Y-84945300D01*
X71120000Y-93980000D02*
X48260000Y-93980000D01*
X40640000Y-83820000D02*
X40640000Y-84945300D01*
X78740000Y-152400000D02*
X74248300Y-152400000D01*
X40640000Y-58420000D02*
X41765300Y-58420000D01*
X41765300Y-58420000D02*
X51297900Y-48887400D01*
X51297900Y-48887400D02*
X55127600Y-48887400D01*
X55127600Y-48887400D02*
X59565000Y-44450000D01*
X49429600Y-71646400D02*
X50080800Y-72297600D01*
X50080800Y-72297600D02*
X68817100Y-72297600D01*
X68817100Y-72297600D02*
X69994700Y-71120000D01*
X71120000Y-71120000D02*
X69994700Y-71120000D01*
X49429600Y-71646400D02*
X49429600Y-70593600D01*
X49429600Y-70593600D02*
X48541300Y-69705300D01*
X48541300Y-69705300D02*
X48260000Y-69705300D01*
X48260000Y-72534700D02*
X48541300Y-72534700D01*
X48541300Y-72534700D02*
X49429600Y-71646400D01*
X48260000Y-73660000D02*
X48260000Y-72534700D01*
X71120000Y-134620000D02*
X69994700Y-134620000D01*
X48260000Y-134620000D02*
X49385300Y-134620000D01*
X40640000Y-125585300D02*
X40358600Y-125585300D01*
X40358600Y-125585300D02*
X39514700Y-126429200D01*
X39514700Y-126429200D02*
X39514700Y-130063100D01*
X39514700Y-130063100D02*
X40261600Y-130810000D01*
X40261600Y-130810000D02*
X41905300Y-130810000D01*
X41905300Y-130810000D02*
X45715300Y-134620000D01*
X45715300Y-134620000D02*
X48260000Y-134620000D01*
X40640000Y-124460000D02*
X40640000Y-125585300D01*
X78740000Y-127000000D02*
X78740000Y-128125300D01*
X71120000Y-134620000D02*
X76939800Y-134620000D01*
X76939800Y-134620000D02*
X78209800Y-133350000D01*
X78209800Y-133350000D02*
X79119400Y-133350000D01*
X79119400Y-133350000D02*
X79865300Y-132604100D01*
X79865300Y-132604100D02*
X79865300Y-128969200D01*
X79865300Y-128969200D02*
X79021400Y-128125300D01*
X79021400Y-128125300D02*
X78740000Y-128125300D01*
X71120000Y-93980000D02*
X72245300Y-93980000D01*
X79046700Y-86360000D02*
X72245300Y-93161400D01*
X72245300Y-93161400D02*
X72245300Y-93980000D01*
X79046700Y-86360000D02*
X79865300Y-86360000D01*
X78740000Y-86360000D02*
X79046700Y-86360000D01*
X114300000Y-83820000D02*
X115425300Y-83820000D01*
X129540000Y-83820000D02*
X128414700Y-83820000D01*
X79865300Y-86360000D02*
X81280000Y-84945300D01*
X81280000Y-84945300D02*
X112049400Y-84945300D01*
X112049400Y-84945300D02*
X113174700Y-83820000D01*
X114300000Y-83820000D02*
X113174700Y-83820000D01*
X137160000Y-58420000D02*
X138285300Y-58420000D01*
X152400000Y-58420000D02*
X151274700Y-58420000D01*
X151274700Y-58420000D02*
X150149400Y-59545300D01*
X150149400Y-59545300D02*
X139410600Y-59545300D01*
X139410600Y-59545300D02*
X138285300Y-58420000D01*
X124460000Y-167640000D02*
X127000000Y-167640000D01*
X185420000Y-167640000D02*
X182880000Y-167640000D01*
%TO.N,H*%
X71120000Y-157480000D02*
X74416700Y-157480000D01*
X74416700Y-157480000D02*
X75607300Y-158670600D01*
X75607300Y-158670600D02*
X79944800Y-158670600D01*
X79944800Y-158670600D02*
X85088600Y-153526800D01*
X85088600Y-153526800D02*
X107641700Y-153526800D01*
X70557400Y-157480000D02*
X71120000Y-157480000D01*
X236220000Y-74785300D02*
X236501400Y-74785300D01*
X236501400Y-74785300D02*
X237345300Y-75629200D01*
X237345300Y-75629200D02*
X237345300Y-76669100D01*
X237345300Y-76669100D02*
X236525900Y-77488500D01*
X236525900Y-77488500D02*
X228453800Y-77488500D01*
X228453800Y-77488500D02*
X224575600Y-81366700D01*
X224575600Y-81366700D02*
X210846100Y-81366700D01*
X210846100Y-81366700D02*
X209929200Y-82283600D01*
X209929200Y-82283600D02*
X192880300Y-82283600D01*
X192880300Y-82283600D02*
X191625300Y-83538600D01*
X191625300Y-83538600D02*
X191625300Y-83820000D01*
X185420000Y-114300000D02*
X186545300Y-114300000D01*
X71120000Y-132080000D02*
X69994700Y-132080000D01*
X48260000Y-132080000D02*
X49385300Y-132080000D01*
X49385300Y-132080000D02*
X50184000Y-132878700D01*
X50184000Y-132878700D02*
X69196000Y-132878700D01*
X69196000Y-132878700D02*
X69994700Y-132080000D01*
X121920000Y-58420000D02*
X123045300Y-58420000D01*
X137160000Y-63500000D02*
X136034700Y-63500000D01*
X136034700Y-63500000D02*
X132080000Y-59545300D01*
X132080000Y-59545300D02*
X124170600Y-59545300D01*
X124170600Y-59545300D02*
X123045300Y-58420000D01*
X106680000Y-58420000D02*
X107805300Y-58420000D01*
X121920000Y-58420000D02*
X120794700Y-58420000D01*
X120794700Y-58420000D02*
X119669400Y-57294700D01*
X119669400Y-57294700D02*
X108930600Y-57294700D01*
X108930600Y-57294700D02*
X107805300Y-58420000D01*
X48260000Y-91440000D02*
X71120000Y-91440000D01*
X215900000Y-114300000D02*
X214774700Y-114300000D01*
X214774700Y-114300000D02*
X210577900Y-114300000D01*
X210577900Y-114300000D02*
X209446700Y-115431200D01*
X209446700Y-115431200D02*
X192576300Y-115431200D01*
X192576300Y-115431200D02*
X191770000Y-114624900D01*
X191770000Y-114624900D02*
X191770000Y-113899700D01*
X191770000Y-113899700D02*
X191045000Y-113174700D01*
X191045000Y-113174700D02*
X187389200Y-113174700D01*
X187389200Y-113174700D02*
X186545300Y-114018600D01*
X186545300Y-114018600D02*
X186545300Y-114300000D01*
X144780000Y-73660000D02*
X150742300Y-73660000D01*
X150742300Y-73660000D02*
X152156900Y-75074600D01*
X152156900Y-75074600D02*
X154042900Y-75074600D01*
X154042900Y-75074600D02*
X159114500Y-80146200D01*
X159114500Y-80146200D02*
X168531700Y-80146200D01*
X168531700Y-80146200D02*
X170827100Y-82441600D01*
X170827100Y-82441600D02*
X185396000Y-82441600D01*
X185396000Y-82441600D02*
X188610800Y-79226800D01*
X188610800Y-79226800D02*
X190500000Y-79226800D01*
X48260000Y-66040000D02*
X48260000Y-64914700D01*
X106680000Y-58420000D02*
X105554700Y-58420000D01*
X105554700Y-58420000D02*
X104405800Y-57271100D01*
X104405800Y-57271100D02*
X86954200Y-57271100D01*
X86954200Y-57271100D02*
X81850600Y-62374700D01*
X81850600Y-62374700D02*
X73370600Y-62374700D01*
X73370600Y-62374700D02*
X72245300Y-63500000D01*
X71120000Y-63500000D02*
X72245300Y-63500000D01*
X49385300Y-66040000D02*
X50510600Y-64914700D01*
X50510600Y-64914700D02*
X68869400Y-64914700D01*
X68869400Y-64914700D02*
X69994700Y-66040000D01*
X137160000Y-71120000D02*
X136034700Y-71120000D01*
X136034700Y-71120000D02*
X133494700Y-73660000D01*
X133494700Y-73660000D02*
X129540000Y-73660000D01*
X143654700Y-73660000D02*
X141114700Y-71120000D01*
X141114700Y-71120000D02*
X137160000Y-71120000D01*
X236220000Y-73660000D02*
X236220000Y-74785300D01*
X190500000Y-83820000D02*
X191625300Y-83820000D01*
X229725300Y-73660000D02*
X236220000Y-73660000D01*
X48260000Y-64914700D02*
X47978700Y-64914700D01*
X47978700Y-64914700D02*
X47093900Y-64029900D01*
X47093900Y-64029900D02*
X47093900Y-60478300D01*
X47093900Y-60478300D02*
X47882200Y-59690000D01*
X47882200Y-59690000D02*
X49079700Y-59690000D01*
X49079700Y-59690000D02*
X50349700Y-58420000D01*
X50349700Y-58420000D02*
X55880000Y-58420000D01*
X236220000Y-73660000D02*
X236220000Y-72534700D01*
X236220000Y-72534700D02*
X236501300Y-72534700D01*
X236501300Y-72534700D02*
X247505300Y-61530700D01*
X247505300Y-61530700D02*
X247505300Y-44160600D01*
X247505300Y-44160600D02*
X246380000Y-43035300D01*
X246380000Y-41910000D02*
X246380000Y-43035300D01*
X70557400Y-157480000D02*
X69994700Y-157480000D01*
X228600000Y-73660000D02*
X229725300Y-73660000D01*
X223520000Y-137160000D02*
X222394700Y-137160000D01*
X218440000Y-137160000D02*
X219565300Y-137160000D01*
X219565300Y-137160000D02*
X219565300Y-136878700D01*
X219565300Y-136878700D02*
X220409300Y-136034700D01*
X220409300Y-136034700D02*
X221550800Y-136034700D01*
X221550800Y-136034700D02*
X222394700Y-136878600D01*
X222394700Y-136878600D02*
X222394700Y-137160000D01*
X144780000Y-73660000D02*
X143654700Y-73660000D01*
X228600000Y-73660000D02*
X227474700Y-73660000D01*
X227474700Y-73660000D02*
X226055300Y-73660000D01*
X226055300Y-73660000D02*
X224921300Y-74794000D01*
X224921300Y-74794000D02*
X223062400Y-74794000D01*
X223062400Y-74794000D02*
X221928400Y-73660000D01*
X221928400Y-73660000D02*
X215900000Y-73660000D01*
X48260000Y-66040000D02*
X49385300Y-66040000D01*
X71120000Y-66040000D02*
X69994700Y-66040000D01*
X48260000Y-157480000D02*
X49385300Y-157480000D01*
X69994700Y-157480000D02*
X68869400Y-156354700D01*
X68869400Y-156354700D02*
X50510600Y-156354700D01*
X50510600Y-156354700D02*
X49385300Y-157480000D01*
X226060000Y-137160000D02*
X223520000Y-137160000D01*
X228600000Y-137160000D02*
X226060000Y-137160000D01*
X231140000Y-137160000D02*
X228600000Y-137160000D01*
%TO.N,IR2*%
X175260000Y-167640000D02*
X176385300Y-167640000D01*
X228600000Y-144780000D02*
X227474700Y-144780000D01*
X227474700Y-144780000D02*
X227474700Y-145061300D01*
X227474700Y-145061300D02*
X206891000Y-165645000D01*
X206891000Y-165645000D02*
X193405300Y-165645000D01*
X193405300Y-165645000D02*
X191770000Y-167280300D01*
X191770000Y-167280300D02*
X191770000Y-168056200D01*
X191770000Y-168056200D02*
X191060900Y-168765300D01*
X191060900Y-168765300D02*
X177229200Y-168765300D01*
X177229200Y-168765300D02*
X176385300Y-167921400D01*
X176385300Y-167921400D02*
X176385300Y-167640000D01*
X228600000Y-106680000D02*
X228600000Y-107805300D01*
X228600000Y-107805300D02*
X229749400Y-108954700D01*
X229749400Y-108954700D02*
X229749400Y-115690600D01*
X229749400Y-115690600D02*
X223520000Y-121920000D01*
%TO.N,IR3*%
X220980000Y-121920000D02*
X222105300Y-121920000D01*
X228600000Y-114300000D02*
X228600000Y-115425300D01*
X228600000Y-115425300D02*
X228318700Y-115425300D01*
X228318700Y-115425300D02*
X222105300Y-121638700D01*
X222105300Y-121638700D02*
X222105300Y-121920000D01*
%TO.N,IR4*%
X218440000Y-121920000D02*
X219565300Y-121920000D01*
X226060000Y-114300000D02*
X226060000Y-115425300D01*
X226060000Y-115425300D02*
X225778700Y-115425300D01*
X225778700Y-115425300D02*
X219565300Y-121638700D01*
X219565300Y-121638700D02*
X219565300Y-121920000D01*
%TO.N,~PL*%
X167595300Y-121920000D02*
X169251000Y-120264300D01*
X169251000Y-120264300D02*
X181374300Y-120264300D01*
X201785300Y-73660000D02*
X204907700Y-73660000D01*
X204907700Y-73660000D02*
X206089400Y-74841700D01*
X206089400Y-74841700D02*
X209362600Y-74841700D01*
X209362600Y-74841700D02*
X209693200Y-75172300D01*
X209693200Y-75172300D02*
X210866900Y-75172300D01*
X210866900Y-75172300D02*
X211032200Y-75007000D01*
X211032200Y-75007000D02*
X221201700Y-75007000D01*
X221201700Y-75007000D02*
X222394700Y-76200000D01*
X166370000Y-121920000D02*
X167595300Y-121920000D01*
X166370000Y-129540000D02*
X166370000Y-128314700D01*
X168910000Y-125730000D02*
X168910000Y-125774700D01*
X168910000Y-125774700D02*
X166370000Y-128314700D01*
X200660000Y-73660000D02*
X201785300Y-73660000D01*
X223520000Y-76200000D02*
X222394700Y-76200000D01*
X224082700Y-76200000D02*
X223520000Y-76200000D01*
X200660000Y-73660000D02*
X199534700Y-73660000D01*
X189085300Y-73660000D02*
X190210600Y-74785300D01*
X190210600Y-74785300D02*
X198409400Y-74785300D01*
X198409400Y-74785300D02*
X199534700Y-73660000D01*
X187960000Y-73660000D02*
X189085300Y-73660000D01*
X224082700Y-76200000D02*
X224645300Y-76200000D01*
X236220000Y-76200000D02*
X235094700Y-76200000D01*
X235094700Y-76200000D02*
X233969400Y-75074700D01*
X233969400Y-75074700D02*
X225770600Y-75074700D01*
X225770600Y-75074700D02*
X224645300Y-76200000D01*
%TO.N,~PH*%
X142240000Y-121920000D02*
X143365300Y-121920000D01*
X158750000Y-121920000D02*
X157524700Y-121920000D01*
X157524700Y-121920000D02*
X155928600Y-123516100D01*
X155928600Y-123516100D02*
X144762300Y-123516100D01*
X144762300Y-123516100D02*
X143365300Y-122119100D01*
X143365300Y-122119100D02*
X143365300Y-121920000D01*
X187174300Y-101916500D02*
X181560700Y-107530100D01*
X181560700Y-107530100D02*
X158454600Y-107530100D01*
X158454600Y-107530100D02*
X158259200Y-107334700D01*
X195580000Y-76200000D02*
X198716700Y-76200000D01*
X198716700Y-76200000D02*
X199849900Y-75066800D01*
X199849900Y-75066800D02*
X205384600Y-75066800D01*
X205384600Y-75066800D02*
X206517800Y-76200000D01*
X206517800Y-76200000D02*
X207154700Y-76200000D01*
X208280000Y-76200000D02*
X207154700Y-76200000D01*
%TO.N,Y7*%
X152400000Y-68580000D02*
X153525300Y-68580000D01*
X175260000Y-78740000D02*
X174134700Y-78740000D01*
X174134700Y-78740000D02*
X174134700Y-78458700D01*
X174134700Y-78458700D02*
X168210600Y-72534600D01*
X168210600Y-72534600D02*
X157479900Y-72534600D01*
X157479900Y-72534600D02*
X153525300Y-68580000D01*
%TO.N,IR6*%
X218440000Y-106680000D02*
X218440000Y-107805300D01*
X218440000Y-107805300D02*
X217314700Y-108930600D01*
X217314700Y-108930600D02*
X217314700Y-114995400D01*
X217314700Y-114995400D02*
X216537200Y-115772900D01*
X216537200Y-115772900D02*
X211599400Y-115772900D01*
X211599400Y-115772900D02*
X210548000Y-116824300D01*
X210548000Y-116824300D02*
X210548000Y-117642200D01*
%TO.N,IR7*%
X121920000Y-167640000D02*
X123045300Y-167640000D01*
X146050000Y-163830000D02*
X144824700Y-163830000D01*
X144824700Y-163830000D02*
X144824700Y-164289600D01*
X144824700Y-164289600D02*
X144059000Y-165055300D01*
X144059000Y-165055300D02*
X125348700Y-165055300D01*
X125348700Y-165055300D02*
X123045300Y-167358700D01*
X123045300Y-167358700D02*
X123045300Y-167640000D01*
%TO.N,/PER/RED*%
X182389700Y-31115000D02*
X180583800Y-32920900D01*
X180583800Y-32920900D02*
X157615200Y-32920900D01*
X157615200Y-32920900D02*
X154864400Y-30170100D01*
X154864400Y-30170100D02*
X137469900Y-30170100D01*
X137469900Y-30170100D02*
X135890000Y-31750000D01*
X183515000Y-31115000D02*
X182389700Y-31115000D01*
X132080000Y-31750000D02*
X135890000Y-31750000D01*
%TO.N,OUT0*%
X121920000Y-40640000D02*
X123045300Y-40640000D01*
X123045300Y-40640000D02*
X123045300Y-40921300D01*
X123045300Y-40921300D02*
X124034000Y-41910000D01*
X124034000Y-41910000D02*
X132080000Y-41910000D01*
%TO.N,OUT1*%
X134764700Y-41910000D02*
X133639400Y-43035300D01*
X133639400Y-43035300D02*
X117539200Y-43035300D01*
X117539200Y-43035300D02*
X115425300Y-40921400D01*
X115425300Y-40921400D02*
X115425300Y-40640000D01*
X135890000Y-41910000D02*
X134764700Y-41910000D01*
X114300000Y-40640000D02*
X115425300Y-40640000D01*
%TO.N,/PER/GREEN*%
X185805000Y-31115000D02*
X183548800Y-33371200D01*
X183548800Y-33371200D02*
X157390100Y-33371200D01*
X157390100Y-33371200D02*
X154639300Y-30620400D01*
X154639300Y-30620400D02*
X145909600Y-30620400D01*
X145909600Y-30620400D02*
X144780000Y-31750000D01*
X140970000Y-31750000D02*
X144780000Y-31750000D01*
%TO.N,OUT2*%
X139844700Y-41910000D02*
X138269100Y-43485600D01*
X138269100Y-43485600D02*
X115449500Y-43485600D01*
X115449500Y-43485600D02*
X112885300Y-40921400D01*
X112885300Y-40921400D02*
X112885300Y-40640000D01*
X140970000Y-41910000D02*
X139844700Y-41910000D01*
X111760000Y-40640000D02*
X112885300Y-40640000D01*
%TO.N,OUT3*%
X144780000Y-41910000D02*
X143654700Y-41910000D01*
X104140000Y-40640000D02*
X105265300Y-40640000D01*
X105265300Y-40640000D02*
X105265300Y-40921300D01*
X105265300Y-40921300D02*
X108309200Y-43965200D01*
X108309200Y-43965200D02*
X141599500Y-43965200D01*
X141599500Y-43965200D02*
X143654700Y-41910000D01*
%TO.N,/PER/BLUE*%
X153670000Y-31750000D02*
X155741500Y-33821500D01*
X155741500Y-33821500D02*
X185388500Y-33821500D01*
X185388500Y-33821500D02*
X188095000Y-31115000D01*
X149860000Y-31750000D02*
X153670000Y-31750000D01*
%TO.N,OUT4*%
X148734700Y-41910000D02*
X146815000Y-39990300D01*
X146815000Y-39990300D02*
X129734300Y-39990300D01*
X129734300Y-39990300D02*
X123045300Y-33301300D01*
X123045300Y-33301300D02*
X123045300Y-33020000D01*
X149860000Y-41910000D02*
X148734700Y-41910000D01*
X121920000Y-33020000D02*
X123045300Y-33020000D01*
%TO.N,/CU/~J*%
X159975300Y-163830000D02*
X183226300Y-163830000D01*
X183226300Y-163830000D02*
X186834700Y-167438400D01*
X186834700Y-167438400D02*
X186834700Y-167640000D01*
X157524700Y-163830000D02*
X157524700Y-164289500D01*
X157524700Y-164289500D02*
X155963300Y-165850900D01*
X155963300Y-165850900D02*
X134712800Y-165850900D01*
X134712800Y-165850900D02*
X133205300Y-167358400D01*
X133205300Y-167358400D02*
X133205300Y-167640000D01*
X158750000Y-163830000D02*
X159975300Y-163830000D01*
X158750000Y-163830000D02*
X157524700Y-163830000D01*
X132080000Y-167640000D02*
X133205300Y-167640000D01*
X187960000Y-167640000D02*
X186834700Y-167640000D01*
%TO.N,Net-(D5-Pad2)*%
X50064700Y-76153500D02*
X52651200Y-78740000D01*
X52651200Y-78740000D02*
X55880000Y-78740000D01*
%TO.N,/CU/INV_C_OUT*%
X143480200Y-128040400D02*
X143394100Y-127954300D01*
X143394100Y-127954300D02*
X134028200Y-127954300D01*
X134028200Y-127954300D02*
X131325800Y-130656700D01*
X131325800Y-130656700D02*
X124827500Y-130656700D01*
X124827500Y-130656700D02*
X110704200Y-144780000D01*
X110704200Y-144780000D02*
X106680000Y-144780000D01*
%TO.N,EL*%
X187960000Y-147320000D02*
X186734700Y-147320000D01*
X175260000Y-147320000D02*
X176485300Y-147320000D01*
X176485300Y-147320000D02*
X176485300Y-146324400D01*
X176485300Y-146324400D02*
X176715000Y-146094700D01*
X176715000Y-146094700D02*
X185509400Y-146094700D01*
X185509400Y-146094700D02*
X186734700Y-147320000D01*
X155520100Y-86599100D02*
X135235900Y-86599100D01*
X135235900Y-86599100D02*
X131042100Y-82405300D01*
X131042100Y-82405300D02*
X124170600Y-82405300D01*
X124170600Y-82405300D02*
X123045300Y-81280000D01*
X121920000Y-81280000D02*
X123045300Y-81280000D01*
X121357400Y-81280000D02*
X121920000Y-81280000D01*
X121357400Y-81280000D02*
X120794700Y-81280000D01*
X106680000Y-81280000D02*
X107805300Y-81280000D01*
X120794700Y-81280000D02*
X119669400Y-82405300D01*
X119669400Y-82405300D02*
X108930600Y-82405300D01*
X108930600Y-82405300D02*
X107805300Y-81280000D01*
X200047400Y-147320000D02*
X201952400Y-145415000D01*
X201952400Y-145415000D02*
X208280000Y-145415000D01*
X200047400Y-147320000D02*
X199434700Y-147320000D01*
X200660000Y-147320000D02*
X200047400Y-147320000D01*
X187960000Y-147320000D02*
X189185300Y-147320000D01*
X189185300Y-147320000D02*
X189185300Y-148315600D01*
X189185300Y-148315600D02*
X189415000Y-148545300D01*
X189415000Y-148545300D02*
X198209400Y-148545300D01*
X198209400Y-148545300D02*
X199434700Y-147320000D01*
%TO.N,EH*%
X200660000Y-143510000D02*
X199434700Y-143510000D01*
X187960000Y-143510000D02*
X189185300Y-143510000D01*
X189185300Y-143510000D02*
X189185300Y-144505600D01*
X189185300Y-144505600D02*
X189415000Y-144735300D01*
X189415000Y-144735300D02*
X198209400Y-144735300D01*
X198209400Y-144735300D02*
X199434700Y-143510000D01*
%TO.N,/CU/INV_A_IN*%
X106680000Y-152400000D02*
X107805300Y-152400000D01*
X189937400Y-165617900D02*
X203200000Y-152355300D01*
X189937400Y-167640000D02*
X189937400Y-165617900D01*
X107805300Y-152400000D02*
X108271700Y-152866400D01*
X108271700Y-152866400D02*
X146288000Y-152866400D01*
X146288000Y-152866400D02*
X154567000Y-161145400D01*
X154567000Y-161145400D02*
X181178600Y-161145400D01*
X181178600Y-161145400D02*
X185651100Y-165617900D01*
X185651100Y-165617900D02*
X189937400Y-165617900D01*
X203200000Y-151130000D02*
X203200000Y-152355300D01*
X190500000Y-167640000D02*
X189937400Y-167640000D01*
%TO.N,~LD*%
X149860000Y-121920000D02*
X148734700Y-121920000D01*
X55880000Y-101600000D02*
X57005300Y-101600000D01*
X57005300Y-101600000D02*
X58168300Y-100437000D01*
X58168300Y-100437000D02*
X64051700Y-100437000D01*
X64051700Y-100437000D02*
X68900300Y-105285600D01*
X68900300Y-105285600D02*
X73865500Y-105285600D01*
X73865500Y-105285600D02*
X76419100Y-107839200D01*
X76419100Y-107839200D02*
X86940500Y-107839200D01*
X86940500Y-107839200D02*
X95823600Y-116722300D01*
X95823600Y-116722300D02*
X143818300Y-116722300D01*
X143818300Y-116722300D02*
X148734700Y-121638700D01*
X148734700Y-121638700D02*
X148734700Y-121920000D01*
%TO.N,AR3*%
X78740000Y-66040000D02*
X77614700Y-66040000D01*
X40640000Y-63500000D02*
X41765300Y-63500000D01*
X41765300Y-63500000D02*
X45430600Y-67165300D01*
X45430600Y-67165300D02*
X76489400Y-67165300D01*
X76489400Y-67165300D02*
X77614700Y-66040000D01*
X41765300Y-129540000D02*
X45563600Y-133338300D01*
X45563600Y-133338300D02*
X76356400Y-133338300D01*
X76356400Y-133338300D02*
X77614700Y-132080000D01*
X40640000Y-129540000D02*
X41765300Y-129540000D01*
X78740000Y-132080000D02*
X77614700Y-132080000D01*
%TO.N,AR2*%
X78740000Y-162560000D02*
X79865300Y-162560000D01*
X106680000Y-154940000D02*
X105554700Y-154940000D01*
X105554700Y-154940000D02*
X104429400Y-156065300D01*
X104429400Y-156065300D02*
X86360000Y-156065300D01*
X86360000Y-156065300D02*
X79865300Y-162560000D01*
X78740000Y-96520000D02*
X77614700Y-96520000D01*
X40640000Y-91440000D02*
X41765300Y-91440000D01*
X41765300Y-91440000D02*
X45720000Y-95394700D01*
X45720000Y-95394700D02*
X76489400Y-95394700D01*
X76489400Y-95394700D02*
X77614700Y-96520000D01*
X40640000Y-157480000D02*
X41765300Y-157480000D01*
X78740000Y-162560000D02*
X77614700Y-162560000D01*
X77614700Y-162560000D02*
X76489400Y-161434700D01*
X76489400Y-161434700D02*
X45720000Y-161434700D01*
X45720000Y-161434700D02*
X41765300Y-157480000D01*
%TO.N,AR1*%
X78740000Y-93980000D02*
X78740000Y-95105300D01*
X40640000Y-93417300D02*
X45012700Y-97790000D01*
X45012700Y-97790000D02*
X55983700Y-97790000D01*
X55983700Y-97790000D02*
X57109400Y-98915700D01*
X57109400Y-98915700D02*
X67575200Y-98915700D01*
X67575200Y-98915700D02*
X68700900Y-97790000D01*
X68700900Y-97790000D02*
X79119900Y-97790000D01*
X79119900Y-97790000D02*
X79865300Y-97044600D01*
X79865300Y-97044600D02*
X79865300Y-95949200D01*
X79865300Y-95949200D02*
X79021400Y-95105300D01*
X79021400Y-95105300D02*
X78740000Y-95105300D01*
X40640000Y-93417300D02*
X40640000Y-92854700D01*
X40640000Y-93980000D02*
X40640000Y-93417300D01*
X40640000Y-68580000D02*
X40640000Y-69705300D01*
X40640000Y-92854700D02*
X40358700Y-92854700D01*
X40358700Y-92854700D02*
X39051500Y-91547500D01*
X39051500Y-91547500D02*
X39051500Y-71012500D01*
X39051500Y-71012500D02*
X40358700Y-69705300D01*
X40358700Y-69705300D02*
X40640000Y-69705300D01*
X40640000Y-134620000D02*
X41765300Y-134620000D01*
X78740000Y-134620000D02*
X77614700Y-134620000D01*
X77614700Y-134620000D02*
X76487000Y-135747700D01*
X76487000Y-135747700D02*
X67137200Y-135747700D01*
X67137200Y-135747700D02*
X66234100Y-134844600D01*
X66234100Y-134844600D02*
X56526900Y-134844600D01*
X56526900Y-134844600D02*
X55626200Y-135745300D01*
X55626200Y-135745300D02*
X42890600Y-135745300D01*
X42890600Y-135745300D02*
X41765300Y-134620000D01*
%TO.N,AR0*%
X78740000Y-165100000D02*
X79865300Y-165100000D01*
X106680000Y-160020000D02*
X105554700Y-160020000D01*
X105554700Y-160020000D02*
X104429400Y-161145300D01*
X104429400Y-161145300D02*
X83820000Y-161145300D01*
X83820000Y-161145300D02*
X79865300Y-165100000D01*
X77614700Y-99060000D02*
X76462900Y-100211800D01*
X76462900Y-100211800D02*
X64586700Y-100211800D01*
X64586700Y-100211800D02*
X64361500Y-99986600D01*
X64361500Y-99986600D02*
X53304900Y-99986600D01*
X53304900Y-99986600D02*
X50881300Y-102410200D01*
X48260000Y-116840000D02*
X47134700Y-116840000D01*
X40640000Y-137160000D02*
X40640000Y-136034700D01*
X40640000Y-136034700D02*
X40358700Y-136034700D01*
X40358700Y-136034700D02*
X39032600Y-134708600D01*
X39032600Y-134708600D02*
X39032600Y-123276600D01*
X39032600Y-123276600D02*
X44343900Y-117965300D01*
X44343900Y-117965300D02*
X46290800Y-117965300D01*
X46290800Y-117965300D02*
X47134700Y-117121400D01*
X47134700Y-117121400D02*
X47134700Y-116840000D01*
X40640000Y-162560000D02*
X41765300Y-162560000D01*
X78740000Y-165100000D02*
X77614700Y-165100000D01*
X77614700Y-165100000D02*
X76200000Y-163685300D01*
X76200000Y-163685300D02*
X42890600Y-163685300D01*
X42890600Y-163685300D02*
X41765300Y-162560000D01*
X78740000Y-99060000D02*
X77614700Y-99060000D01*
X40640000Y-96520000D02*
X41765300Y-96520000D01*
X50881300Y-102410200D02*
X48801100Y-100330000D01*
X48801100Y-100330000D02*
X45575300Y-100330000D01*
X45575300Y-100330000D02*
X41765300Y-96520000D01*
%TO.N,AL*%
X48260000Y-127000000D02*
X49385300Y-127000000D01*
X71120000Y-124460000D02*
X71120000Y-125585300D01*
X71120000Y-125585300D02*
X71401300Y-125585300D01*
X71401300Y-125585300D02*
X72256400Y-126440400D01*
X72256400Y-126440400D02*
X72256400Y-127464700D01*
X72256400Y-127464700D02*
X71595800Y-128125300D01*
X71595800Y-128125300D02*
X50510600Y-128125300D01*
X50510600Y-128125300D02*
X49385300Y-127000000D01*
X48260000Y-86360000D02*
X49385300Y-86360000D01*
X71120000Y-83820000D02*
X51925300Y-83820000D01*
X51925300Y-83820000D02*
X49385300Y-86360000D01*
X69994700Y-58420000D02*
X68604100Y-59810600D01*
X68604100Y-59810600D02*
X55084400Y-59810600D01*
X55084400Y-59810600D02*
X53935000Y-60960000D01*
X53935000Y-60960000D02*
X48260000Y-60960000D01*
X71120000Y-58420000D02*
X69994700Y-58420000D01*
%TO.N,CO*%
X218440000Y-144780000D02*
X217314700Y-144780000D01*
X87485300Y-109220000D02*
X96996900Y-118731600D01*
X96996900Y-118731600D02*
X144939500Y-118731600D01*
X86360000Y-109220000D02*
X87485300Y-109220000D01*
X217314700Y-144780000D02*
X217314700Y-144076600D01*
X217314700Y-144076600D02*
X216892800Y-143654700D01*
X216892800Y-143654700D02*
X213501700Y-143654700D01*
X213501700Y-143654700D02*
X202057400Y-132210400D01*
X202057400Y-132210400D02*
X163950100Y-132210400D01*
%TO.N,IX*%
X99060000Y-149860000D02*
X100185300Y-149860000D01*
X100185300Y-149860000D02*
X100185300Y-149654300D01*
X100185300Y-149654300D02*
X101912300Y-147927300D01*
X121920000Y-73660000D02*
X120794700Y-73660000D01*
X106680000Y-73660000D02*
X107805300Y-73660000D01*
X107805300Y-73660000D02*
X108930600Y-72534700D01*
X108930600Y-72534700D02*
X119669400Y-72534700D01*
X119669400Y-72534700D02*
X120794700Y-73660000D01*
%TO.N,~XL*%
X186834700Y-160020000D02*
X186834700Y-160301300D01*
X186834700Y-160301300D02*
X185952800Y-161183200D01*
X185952800Y-161183200D02*
X184978900Y-161183200D01*
X184978900Y-161183200D02*
X184150000Y-160354300D01*
X184150000Y-160354300D02*
X184150000Y-159690100D01*
X184150000Y-159690100D02*
X180860100Y-156400200D01*
X180860100Y-156400200D02*
X174907100Y-156400200D01*
X174907100Y-156400200D02*
X174031300Y-155524400D01*
X174031300Y-155524400D02*
X174031300Y-152075900D01*
X174031300Y-152075900D02*
X164146500Y-142191100D01*
X164146500Y-142191100D02*
X143159400Y-142191100D01*
X143159400Y-142191100D02*
X134658100Y-133689800D01*
X187960000Y-160020000D02*
X186834700Y-160020000D01*
X129540000Y-76200000D02*
X128414700Y-76200000D01*
X114300000Y-76200000D02*
X115425300Y-76200000D01*
X115425300Y-76200000D02*
X116550600Y-77325300D01*
X116550600Y-77325300D02*
X127289400Y-77325300D01*
X127289400Y-77325300D02*
X128414700Y-76200000D01*
%TO.N,~OL*%
X129975100Y-125901900D02*
X130161900Y-125715100D01*
X130161900Y-125715100D02*
X142863700Y-125715100D01*
X142863700Y-125715100D02*
X143066300Y-125917700D01*
X143066300Y-125917700D02*
X143697700Y-125917700D01*
X143697700Y-125917700D02*
X147320000Y-129540000D01*
X101600000Y-41765300D02*
X112865600Y-53030900D01*
X112865600Y-53030900D02*
X112865600Y-54335300D01*
X101600000Y-40640000D02*
X101600000Y-41765300D01*
%TO.N,/CU/INV_B_IN*%
X100185300Y-147320000D02*
X101310600Y-146194700D01*
X101310600Y-146194700D02*
X109926400Y-146194700D01*
X109926400Y-146194700D02*
X124487800Y-131633300D01*
X124487800Y-131633300D02*
X134644700Y-131633300D01*
X134644700Y-131633300D02*
X136034700Y-130243300D01*
X136034700Y-130243300D02*
X136034700Y-129540000D01*
X137160000Y-129540000D02*
X136034700Y-129540000D01*
X99060000Y-147320000D02*
X100185300Y-147320000D01*
%TO.N,/CU/INV_C_IN*%
X231140000Y-144780000D02*
X230014700Y-144780000D01*
X99060000Y-142240000D02*
X100185300Y-142240000D01*
X100185300Y-142240000D02*
X101375900Y-143430600D01*
X101375900Y-143430600D02*
X110872900Y-143430600D01*
X110872900Y-143430600D02*
X124616900Y-129686600D01*
X124616900Y-129686600D02*
X130763700Y-129686600D01*
X130763700Y-129686600D02*
X133035700Y-127414600D01*
X133035700Y-127414600D02*
X144247700Y-127414600D01*
X144247700Y-127414600D02*
X146050000Y-129216900D01*
X146050000Y-129216900D02*
X146050000Y-129895600D01*
X146050000Y-129895600D02*
X156766400Y-140612000D01*
X156766400Y-140612000D02*
X209430400Y-140612000D01*
X209430400Y-140612000D02*
X214733100Y-145914700D01*
X214733100Y-145914700D02*
X221500900Y-145914700D01*
X221500900Y-145914700D02*
X222250000Y-145165600D01*
X222250000Y-145165600D02*
X222250000Y-144410000D01*
X222250000Y-144410000D02*
X223005300Y-143654700D01*
X223005300Y-143654700D02*
X229170800Y-143654700D01*
X229170800Y-143654700D02*
X230014700Y-144498600D01*
X230014700Y-144498600D02*
X230014700Y-144780000D01*
%TO.N,/CU/INV_B_OUT*%
X106680000Y-149860000D02*
X107805300Y-149860000D01*
X107805300Y-149860000D02*
X107805300Y-149509700D01*
X107805300Y-149509700D02*
X124783900Y-132531100D01*
X124783900Y-132531100D02*
X135815600Y-132531100D01*
X135815600Y-132531100D02*
X138430000Y-129916700D01*
X138430000Y-129916700D02*
X138430000Y-129183300D01*
X138430000Y-129183300D02*
X139208600Y-128404700D01*
X139208600Y-128404700D02*
X142866900Y-128404700D01*
X142866900Y-128404700D02*
X144002200Y-129540000D01*
X144002200Y-129540000D02*
X144780000Y-129540000D01*
%TO.N,~RST*%
X200660000Y-58420000D02*
X199534700Y-58420000D01*
X187960000Y-58420000D02*
X189085300Y-58420000D01*
X189085300Y-58420000D02*
X190210600Y-59545300D01*
X190210600Y-59545300D02*
X198409400Y-59545300D01*
X198409400Y-59545300D02*
X199534700Y-58420000D01*
X228600000Y-58420000D02*
X227474700Y-58420000D01*
X215900000Y-58420000D02*
X217025300Y-58420000D01*
X217025300Y-58420000D02*
X218150600Y-59545300D01*
X218150600Y-59545300D02*
X226349400Y-59545300D01*
X226349400Y-59545300D02*
X227474700Y-58420000D01*
%TO.N,Net-(D5-Pad1)*%
X30480000Y-43180000D02*
X29254700Y-43180000D01*
X29254700Y-43180000D02*
X26714700Y-45720000D01*
X26714700Y-45720000D02*
X25400000Y-45720000D01*
%TO.N,Net-(D7-Pad1)*%
X40640000Y-43180000D02*
X39414700Y-43180000D01*
X39414700Y-43180000D02*
X39414700Y-43639500D01*
X39414700Y-43639500D02*
X32254200Y-50800000D01*
X32254200Y-50800000D02*
X25400000Y-50800000D01*
%TO.N,Net-(R1-Pad1)*%
X208706000Y-43180000D02*
X202565000Y-43180000D01*
X209694700Y-41910000D02*
X209694700Y-42191300D01*
X209694700Y-42191300D02*
X208706000Y-43180000D01*
X208706000Y-43180000D02*
X210820000Y-45294000D01*
X210820000Y-45294000D02*
X210820000Y-49530000D01*
X210820000Y-41910000D02*
X209694700Y-41910000D01*
X202565000Y-48260000D02*
X202565000Y-43180000D01*
%TO.N,Net-(U1-Pad11)*%
X213360000Y-41910000D02*
X215900000Y-41910000D01*
%TO.N,/PCR/+5V*%
X34320000Y-29205000D02*
X34320000Y-30180300D01*
X41960000Y-35630000D02*
X39769700Y-35630000D01*
X39769700Y-35630000D02*
X34320000Y-30180300D01*
%TO.N,/CU/~BF*%
X139700000Y-121920000D02*
X140825300Y-121920000D01*
X226060000Y-121920000D02*
X224934700Y-121920000D01*
X224934700Y-121920000D02*
X224934700Y-122201300D01*
X224934700Y-122201300D02*
X224041200Y-123094800D01*
X224041200Y-123094800D02*
X215116200Y-123094800D01*
X215116200Y-123094800D02*
X211029000Y-119007600D01*
X211029000Y-119007600D02*
X164011400Y-119007600D01*
X164011400Y-119007600D02*
X159052500Y-123966500D01*
X159052500Y-123966500D02*
X144100000Y-123966500D01*
X144100000Y-123966500D02*
X143178800Y-123045300D01*
X143178800Y-123045300D02*
X141669200Y-123045300D01*
X141669200Y-123045300D02*
X140825300Y-122201400D01*
X140825300Y-122201400D02*
X140825300Y-121920000D01*
%TO.N,Net-(D2-Pad1)*%
X173355000Y-43180000D02*
X172129700Y-43180000D01*
X172129700Y-43180000D02*
X170859700Y-41910000D01*
X170859700Y-41910000D02*
X168910000Y-41910000D01*
%TO.N,Net-(D8-Pad1)*%
X25400000Y-43180000D02*
X26525300Y-43180000D01*
X45720000Y-43180000D02*
X44494700Y-43180000D01*
X44494700Y-43180000D02*
X43269300Y-41954600D01*
X43269300Y-41954600D02*
X27750700Y-41954600D01*
X27750700Y-41954600D02*
X26525300Y-43180000D01*
%TO.N,Net-(U3-Pad15)*%
X236220000Y-60960000D02*
X235094700Y-60960000D01*
X223520000Y-73660000D02*
X223520000Y-72534700D01*
X235094700Y-60960000D02*
X235094700Y-61241300D01*
X235094700Y-61241300D02*
X229026000Y-67310000D01*
X229026000Y-67310000D02*
X228198100Y-67310000D01*
X228198100Y-67310000D02*
X224645300Y-70862800D01*
X224645300Y-70862800D02*
X224645300Y-71690800D01*
X224645300Y-71690800D02*
X223801400Y-72534700D01*
X223801400Y-72534700D02*
X223520000Y-72534700D01*
%TO.N,Net-(U4-Pad15)*%
X217857700Y-66388600D02*
X216848900Y-67397400D01*
X216848900Y-67397400D02*
X215456900Y-67397400D01*
X215456900Y-67397400D02*
X209405300Y-73449000D01*
X209405300Y-73449000D02*
X209405300Y-73660000D01*
X208280000Y-73660000D02*
X209405300Y-73660000D01*
%TO.N,Net-(U5-Pad15)*%
X208280000Y-60960000D02*
X208280000Y-62085300D01*
X208280000Y-62085300D02*
X207998600Y-62085300D01*
X207998600Y-62085300D02*
X207154700Y-62929200D01*
X207154700Y-62929200D02*
X207154700Y-66223000D01*
X207154700Y-66223000D02*
X201132300Y-72245400D01*
X201132300Y-72245400D02*
X200312400Y-72245400D01*
X200312400Y-72245400D02*
X198897800Y-73660000D01*
X198897800Y-73660000D02*
X195580000Y-73660000D01*
%TO.N,Net-(U7-Pad17)*%
X228600000Y-99060000D02*
X228600000Y-100185300D01*
X231140000Y-106680000D02*
X231140000Y-102725300D01*
X231140000Y-102725300D02*
X228600000Y-100185300D01*
%TO.N,Net-(U22-Pad7)*%
X38100000Y-117965300D02*
X38100000Y-136307000D01*
X38100000Y-136307000D02*
X40367700Y-138574700D01*
X40367700Y-138574700D02*
X40640000Y-138574700D01*
X38100000Y-116840000D02*
X38100000Y-117965300D01*
X40640000Y-139700000D02*
X40640000Y-138574700D01*
%TO.N,Net-(U22-Pad9)*%
X48260000Y-142240000D02*
X47134700Y-142240000D01*
X47134700Y-142240000D02*
X46009400Y-141114700D01*
X46009400Y-141114700D02*
X40399000Y-141114700D01*
X40399000Y-141114700D02*
X35560000Y-136275700D01*
X35560000Y-136275700D02*
X35560000Y-116840000D01*
%TO.N,Net-(U23-Pad7)*%
X38100000Y-109220000D02*
X36974700Y-109220000D01*
X40640000Y-99060000D02*
X40640000Y-100185300D01*
X40640000Y-100185300D02*
X39655400Y-100185300D01*
X39655400Y-100185300D02*
X31390000Y-108450700D01*
X31390000Y-108450700D02*
X31390000Y-109847300D01*
X31390000Y-109847300D02*
X32366900Y-110824200D01*
X32366900Y-110824200D02*
X35584100Y-110824200D01*
X35584100Y-110824200D02*
X36974700Y-109433600D01*
X36974700Y-109433600D02*
X36974700Y-109220000D01*
%TO.N,Net-(U23-Pad9)*%
X35560000Y-109220000D02*
X34411000Y-110369000D01*
X34411000Y-110369000D02*
X32566500Y-110369000D01*
X32566500Y-110369000D02*
X31866100Y-109668600D01*
X31866100Y-109668600D02*
X31866100Y-108721600D01*
X31866100Y-108721600D02*
X37713000Y-102874700D01*
X37713000Y-102874700D02*
X45860000Y-102874700D01*
X45860000Y-102874700D02*
X47134700Y-101600000D01*
X48260000Y-101600000D02*
X47134700Y-101600000D01*
%TO.N,Net-(U29-Pad15)*%
X114300000Y-73660000D02*
X115425300Y-73660000D01*
X119046500Y-73246900D02*
X115838400Y-73246900D01*
X115838400Y-73246900D02*
X115425300Y-73660000D01*
%TO.N,Net-(D10-Pad2)*%
X181610000Y-154940000D02*
X180384700Y-154940000D01*
X175260000Y-154940000D02*
X176485300Y-154940000D01*
X176485300Y-154940000D02*
X176485300Y-153944400D01*
X176485300Y-153944400D02*
X176715000Y-153714700D01*
X176715000Y-153714700D02*
X179159400Y-153714700D01*
X179159400Y-153714700D02*
X180384700Y-154940000D01*
X181610000Y-154940000D02*
X182835300Y-154940000D01*
X182835300Y-154940000D02*
X182835300Y-155935600D01*
X182835300Y-155935600D02*
X183065000Y-156165300D01*
X183065000Y-156165300D02*
X185509400Y-156165300D01*
X185509400Y-156165300D02*
X186734700Y-154940000D01*
X208280000Y-150495000D02*
X207154700Y-150495000D01*
X187347400Y-154940000D02*
X188997900Y-153289500D01*
X188997900Y-153289500D02*
X196987200Y-153289500D01*
X196987200Y-153289500D02*
X199047900Y-151228800D01*
X199047900Y-151228800D02*
X199047900Y-150980400D01*
X199047900Y-150980400D02*
X200123600Y-149904700D01*
X200123600Y-149904700D02*
X206564400Y-149904700D01*
X206564400Y-149904700D02*
X207154700Y-150495000D01*
X187347400Y-154940000D02*
X186734700Y-154940000D01*
X187960000Y-154940000D02*
X187347400Y-154940000D01*
%TO.N,Net-(D14-Pad1)*%
X189274700Y-154940000D02*
X189274700Y-155365300D01*
X189274700Y-155365300D02*
X185745300Y-158894700D01*
X185745300Y-158894700D02*
X185420000Y-158894700D01*
X190500000Y-154940000D02*
X189274700Y-154940000D01*
X185420000Y-160020000D02*
X185420000Y-158894700D01*
%TO.N,Net-(D17-Pad2)*%
X194310000Y-151130000D02*
X177337100Y-151130000D01*
X177337100Y-151130000D02*
X167497500Y-141290400D01*
X167497500Y-141290400D02*
X154911400Y-141290400D01*
X154911400Y-141290400D02*
X143365300Y-129744300D01*
X143365300Y-129744300D02*
X143365300Y-129540000D01*
X142240000Y-129540000D02*
X143365300Y-129540000D01*
%TO.N,Net-(D21-Pad2)*%
X156210000Y-163830000D02*
X154984700Y-163830000D01*
X142897400Y-163830000D02*
X144122700Y-162604700D01*
X144122700Y-162604700D02*
X153759400Y-162604700D01*
X153759400Y-162604700D02*
X154984700Y-163830000D01*
X142897400Y-163830000D02*
X142284700Y-163830000D01*
X143510000Y-163830000D02*
X142897400Y-163830000D01*
X106680000Y-162560000D02*
X141014700Y-162560000D01*
X141014700Y-162560000D02*
X142284700Y-163830000D01*
%TO.N,Net-(D22-Pad2)*%
X154984700Y-151130000D02*
X154984700Y-149940100D01*
X154984700Y-149940100D02*
X158874800Y-146050000D01*
X158874800Y-146050000D02*
X163830000Y-146050000D01*
X156210000Y-151130000D02*
X154984700Y-151130000D01*
X137160000Y-151130000D02*
X135934700Y-151130000D01*
X130197400Y-151130000D02*
X131422700Y-149904700D01*
X131422700Y-149904700D02*
X134709400Y-149904700D01*
X134709400Y-149904700D02*
X135934700Y-151130000D01*
X130197400Y-151130000D02*
X129584700Y-151130000D01*
X130810000Y-151130000D02*
X130197400Y-151130000D01*
X123847400Y-151130000D02*
X125072700Y-149904700D01*
X125072700Y-149904700D02*
X128359400Y-149904700D01*
X128359400Y-149904700D02*
X129584700Y-151130000D01*
X123847400Y-151130000D02*
X123234700Y-151130000D01*
X124460000Y-151130000D02*
X123847400Y-151130000D01*
X111760000Y-151130000D02*
X112985300Y-151130000D01*
X112985300Y-151130000D02*
X112985300Y-150134400D01*
X112985300Y-150134400D02*
X113215000Y-149904700D01*
X113215000Y-149904700D02*
X122009400Y-149904700D01*
X122009400Y-149904700D02*
X123234700Y-151130000D01*
X100185300Y-152400000D02*
X101455300Y-151130000D01*
X101455300Y-151130000D02*
X111760000Y-151130000D01*
X137160000Y-151130000D02*
X138385300Y-151130000D01*
X138385300Y-151130000D02*
X138385300Y-152125600D01*
X138385300Y-152125600D02*
X138615000Y-152355300D01*
X138615000Y-152355300D02*
X153759400Y-152355300D01*
X153759400Y-152355300D02*
X154984700Y-151130000D01*
X99060000Y-152400000D02*
X100185300Y-152400000D01*
%TO.N,Net-(D23-Pad2)*%
X136547400Y-147320000D02*
X140357400Y-143510000D01*
X140357400Y-143510000D02*
X163830000Y-143510000D01*
X136547400Y-147320000D02*
X135934700Y-147320000D01*
X137160000Y-147320000D02*
X136547400Y-147320000D01*
X124339700Y-147320000D02*
X125565000Y-146094700D01*
X125565000Y-146094700D02*
X134709400Y-146094700D01*
X134709400Y-146094700D02*
X135934700Y-147320000D01*
X124339700Y-147320000D02*
X124219400Y-147320000D01*
X124460000Y-147320000D02*
X124339700Y-147320000D01*
X123847400Y-147320000D02*
X123234700Y-147320000D01*
X123847400Y-147320000D02*
X124219400Y-147320000D01*
X117497400Y-147320000D02*
X118722700Y-146094700D01*
X118722700Y-146094700D02*
X122009400Y-146094700D01*
X122009400Y-146094700D02*
X123234700Y-147320000D01*
X117497400Y-147320000D02*
X116884700Y-147320000D01*
X118110000Y-147320000D02*
X117497400Y-147320000D01*
X111760000Y-147320000D02*
X112985300Y-147320000D01*
X112985300Y-147320000D02*
X112985300Y-146324400D01*
X112985300Y-146324400D02*
X113215000Y-146094700D01*
X113215000Y-146094700D02*
X115659400Y-146094700D01*
X115659400Y-146094700D02*
X116884700Y-147320000D01*
%TO.N,Net-(D25-Pad2)*%
X106680000Y-157480000D02*
X107805300Y-157480000D01*
X123847400Y-154940000D02*
X125072700Y-153714700D01*
X125072700Y-153714700D02*
X128359400Y-153714700D01*
X128359400Y-153714700D02*
X129584700Y-154940000D01*
X130810000Y-154940000D02*
X129584700Y-154940000D01*
X123847400Y-154940000D02*
X110345300Y-154940000D01*
X110345300Y-154940000D02*
X107805300Y-157480000D01*
X124460000Y-154940000D02*
X123847400Y-154940000D01*
X130810000Y-154940000D02*
X132035300Y-154940000D01*
X132035300Y-154940000D02*
X132035300Y-155935600D01*
X132035300Y-155935600D02*
X132265000Y-156165300D01*
X132265000Y-156165300D02*
X141059400Y-156165300D01*
X141059400Y-156165300D02*
X142284700Y-154940000D01*
X143510000Y-154940000D02*
X142284700Y-154940000D01*
X163830000Y-148590000D02*
X162704700Y-148590000D01*
X156961800Y-148901700D02*
X162393000Y-148901700D01*
X162393000Y-148901700D02*
X162704700Y-148590000D01*
%TO.N,Net-(D32-Pad1)*%
X146050000Y-158750000D02*
X144824700Y-158750000D01*
X132080000Y-160020000D02*
X133205300Y-160020000D01*
X133205300Y-160020000D02*
X133205300Y-160301400D01*
X133205300Y-160301400D02*
X134049200Y-161145300D01*
X134049200Y-161145300D02*
X142888900Y-161145300D01*
X142888900Y-161145300D02*
X144824700Y-159209500D01*
X144824700Y-159209500D02*
X144824700Y-158750000D01*
%TO.N,Net-(D32-Pad2)*%
X163830000Y-151130000D02*
X163830000Y-152255300D01*
X156210000Y-158750000D02*
X157435300Y-158750000D01*
X157435300Y-158750000D02*
X157435300Y-157788500D01*
X157435300Y-157788500D02*
X162968500Y-152255300D01*
X162968500Y-152255300D02*
X163830000Y-152255300D01*
X99060000Y-157480000D02*
X100185300Y-157480000D01*
X100185300Y-157480000D02*
X101455300Y-158750000D01*
X101455300Y-158750000D02*
X143510000Y-158750000D01*
%TO.N,Net-(U25-Pad7)*%
X50800000Y-109220000D02*
X51925300Y-109220000D01*
X83820000Y-116840000D02*
X83820000Y-115714700D01*
X83820000Y-115714700D02*
X80146500Y-112041200D01*
X80146500Y-112041200D02*
X66316500Y-112041200D01*
X66316500Y-112041200D02*
X64765300Y-110490000D01*
X64765300Y-110490000D02*
X63152100Y-110490000D01*
X63152100Y-110490000D02*
X60678000Y-108015900D01*
X60678000Y-108015900D02*
X53129400Y-108015900D01*
X53129400Y-108015900D02*
X51925300Y-109220000D01*
%TO.N,OUT7*%
X105265300Y-33020000D02*
X105265300Y-33301400D01*
X105265300Y-33301400D02*
X106109200Y-34145300D01*
X106109200Y-34145300D02*
X119556900Y-34145300D01*
X119556900Y-34145300D02*
X125864900Y-40453300D01*
X125864900Y-40453300D02*
X145580700Y-40453300D01*
X145580700Y-40453300D02*
X148667900Y-43540500D01*
X148667900Y-43540500D02*
X159804200Y-43540500D01*
X159804200Y-43540500D02*
X161434700Y-41910000D01*
X162560000Y-41910000D02*
X161434700Y-41910000D01*
X104140000Y-33020000D02*
X105265300Y-33020000D01*
%TO.N,OUT6*%
X240174700Y-41910000D02*
X240174700Y-41628700D01*
X240174700Y-41628700D02*
X238820600Y-40274600D01*
X238820600Y-40274600D02*
X161510700Y-40274600D01*
X161510700Y-40274600D02*
X159875300Y-41910000D01*
X241300000Y-41910000D02*
X240174700Y-41910000D01*
X243840000Y-41910000D02*
X241300000Y-41910000D01*
X158750000Y-41910000D02*
X159875300Y-41910000D01*
X157624700Y-41910000D02*
X152841300Y-37126600D01*
X152841300Y-37126600D02*
X135335000Y-37126600D01*
X135335000Y-37126600D02*
X130089500Y-31881100D01*
X130089500Y-31881100D02*
X113742900Y-31881100D01*
X113742900Y-31881100D02*
X112885300Y-32738700D01*
X112885300Y-32738700D02*
X112885300Y-33020000D01*
X158750000Y-41910000D02*
X157624700Y-41910000D01*
X111760000Y-33020000D02*
X112885300Y-33020000D01*
%TO.N,SER_PULSE*%
X188095000Y-27155000D02*
X189670800Y-25579200D01*
X189670800Y-25579200D02*
X222449900Y-25579200D01*
X222449900Y-25579200D02*
X226906100Y-30035400D01*
X226906100Y-30035400D02*
X232655400Y-30035400D01*
X232655400Y-30035400D02*
X234370000Y-31750000D01*
X158750000Y-31750000D02*
X164470400Y-26029600D01*
X164470400Y-26029600D02*
X186969600Y-26029600D01*
X186969600Y-26029600D02*
X188095000Y-27155000D01*
%TO.N,SER_LATCH*%
X190385000Y-27155000D02*
X191510400Y-26029600D01*
X191510400Y-26029600D02*
X219510300Y-26029600D01*
X219510300Y-26029600D02*
X223966500Y-30485800D01*
X223966500Y-30485800D02*
X230335800Y-30485800D01*
X230335800Y-30485800D02*
X231600000Y-31750000D01*
%TO.N,Net-(C43-Pad1)*%
X63500000Y-40640000D02*
X63500000Y-39514700D01*
X64734400Y-35444400D02*
X63580000Y-34290000D01*
X71120000Y-34290000D02*
X69965600Y-35444400D01*
X69965600Y-35444400D02*
X64734400Y-35444400D01*
X64734400Y-35444400D02*
X64734400Y-38280300D01*
X64734400Y-38280300D02*
X63500000Y-39514700D01*
%TO.N,Net-(C44-Pad1)*%
X91360000Y-33630000D02*
X89834600Y-35155400D01*
X89834600Y-35155400D02*
X82885400Y-35155400D01*
X82885400Y-35155400D02*
X81360000Y-33630000D01*
D32*
%TO.N,GND*%
X55880000Y-124460000D02*
X57548100Y-124460000D01*
X57548100Y-124460000D02*
X60318100Y-127230000D01*
X46347300Y-120465400D02*
X50341900Y-124460000D01*
X50341900Y-124460000D02*
X55880000Y-124460000D01*
X71120000Y-142240000D02*
X69919700Y-142240000D01*
X63500000Y-135970000D02*
X63649700Y-135970000D01*
X63649700Y-135970000D02*
X69919700Y-142240000D01*
X214560300Y-99060000D02*
X214560300Y-99433100D01*
X214560300Y-99433100D02*
X215835600Y-100708400D01*
X215835600Y-100708400D02*
X226358400Y-100708400D01*
X226358400Y-100708400D02*
X228520000Y-102870000D01*
X215900000Y-121920000D02*
X215900000Y-120719700D01*
X212090000Y-116920000D02*
X215889700Y-120719700D01*
X215889700Y-120719700D02*
X215900000Y-120719700D01*
X118110000Y-86280000D02*
X116760000Y-87630000D01*
X116760000Y-87630000D02*
X104855000Y-87630000D01*
X104855000Y-87630000D02*
X103505000Y-86280000D01*
X133350000Y-63420000D02*
X132229600Y-62299600D01*
X132229600Y-62299600D02*
X121357500Y-62299600D01*
X121357500Y-62299600D02*
X121170400Y-62112500D01*
X121170400Y-62112500D02*
X119417500Y-62112500D01*
X119417500Y-62112500D02*
X118110000Y-63420000D01*
X46347300Y-120465400D02*
X49599700Y-117213000D01*
X49599700Y-117213000D02*
X49599700Y-116840000D01*
X43260000Y-120650000D02*
X46162700Y-120650000D01*
X46162700Y-120650000D02*
X46347300Y-120465400D01*
X50800000Y-116840000D02*
X49599700Y-116840000D01*
X76200000Y-34290000D02*
X79837300Y-30652700D01*
X79837300Y-30652700D02*
X84337300Y-30652700D01*
X84337300Y-30652700D02*
X86360000Y-28630000D01*
X76120000Y-34290000D02*
X76200000Y-34290000D01*
X76200000Y-34290000D02*
X76200000Y-39439700D01*
X76200000Y-40640000D02*
X76200000Y-39439700D01*
X105479700Y-99060000D02*
X86280000Y-99060000D01*
X86280000Y-99060000D02*
X78660000Y-106680000D01*
X86360000Y-28630000D02*
X87375600Y-27614400D01*
X87375600Y-27614400D02*
X96114400Y-27614400D01*
X96114400Y-27614400D02*
X97790000Y-29290000D01*
X97790000Y-29290000D02*
X99608200Y-29290000D01*
X99608200Y-29290000D02*
X102870000Y-32551800D01*
X102870000Y-32551800D02*
X102870000Y-33478800D01*
X102870000Y-33478800D02*
X107796900Y-38405700D01*
X107796900Y-38405700D02*
X122225700Y-38405700D01*
X122225700Y-38405700D02*
X124460000Y-40640000D01*
X227399700Y-76200000D02*
X227292400Y-76200000D01*
X227292400Y-76200000D02*
X226082800Y-77409600D01*
X226082800Y-77409600D02*
X218309900Y-77409600D01*
X218309900Y-77409600D02*
X217100300Y-76200000D01*
X55880000Y-167640000D02*
X54679700Y-167640000D01*
X40640000Y-167640000D02*
X41840300Y-167640000D01*
X41840300Y-167640000D02*
X43110300Y-166370000D01*
X43110300Y-166370000D02*
X53409700Y-166370000D01*
X53409700Y-166370000D02*
X54679700Y-167640000D01*
X170180000Y-104140000D02*
X171380300Y-104140000D01*
X171380300Y-104140000D02*
X176460300Y-99060000D01*
X176460300Y-99060000D02*
X187960000Y-99060000D01*
X181610000Y-73740000D02*
X184070000Y-76200000D01*
X184070000Y-76200000D02*
X187960000Y-76200000D01*
X106680000Y-99060000D02*
X105479700Y-99060000D01*
X72320300Y-101600000D02*
X77400300Y-106680000D01*
X77400300Y-106680000D02*
X78660000Y-106680000D01*
X71120000Y-167640000D02*
X69919700Y-167640000D01*
X55880000Y-167640000D02*
X57080300Y-167640000D01*
X57080300Y-167640000D02*
X58350300Y-166370000D01*
X58350300Y-166370000D02*
X68649700Y-166370000D01*
X68649700Y-166370000D02*
X69919700Y-167640000D01*
X113030000Y-165020000D02*
X118458900Y-165020000D01*
X118458900Y-165020000D02*
X120650000Y-167211100D01*
X120650000Y-167211100D02*
X120650000Y-168127600D01*
X120650000Y-168127600D02*
X121380400Y-168858000D01*
X121380400Y-168858000D02*
X133402000Y-168858000D01*
X133402000Y-168858000D02*
X134620000Y-167640000D01*
X99060000Y-162560000D02*
X97859700Y-162560000D01*
X71120000Y-167640000D02*
X72320300Y-167640000D01*
X72320300Y-167640000D02*
X73520600Y-166439700D01*
X73520600Y-166439700D02*
X93980000Y-166439700D01*
X93980000Y-166439700D02*
X97859700Y-162560000D01*
X213360000Y-99060000D02*
X214560300Y-99060000D01*
X237559700Y-114300000D02*
X237559700Y-113927000D01*
X237559700Y-113927000D02*
X235462300Y-111829600D01*
X235462300Y-111829600D02*
X234531500Y-111829600D01*
X234531500Y-111829600D02*
X229870000Y-107168100D01*
X229870000Y-107168100D02*
X229870000Y-104220000D01*
X229870000Y-104220000D02*
X228520000Y-102870000D01*
X213360000Y-99060000D02*
X212159700Y-99060000D01*
X198040000Y-102267100D02*
X209325600Y-102267100D01*
X209325600Y-102267100D02*
X212159700Y-99433000D01*
X212159700Y-99433000D02*
X212159700Y-99060000D01*
X198040000Y-102267100D02*
X197437100Y-101664200D01*
X197437100Y-101664200D02*
X191389400Y-101664200D01*
X191389400Y-101664200D02*
X189160300Y-99435100D01*
X189160300Y-99435100D02*
X189160300Y-99060000D01*
X198040000Y-102870000D02*
X198040000Y-102267100D01*
X137160000Y-76200000D02*
X135959700Y-76200000D01*
X121920000Y-76200000D02*
X123120300Y-76200000D01*
X123120300Y-76200000D02*
X124376200Y-74944100D01*
X124376200Y-74944100D02*
X134703800Y-74944100D01*
X134703800Y-74944100D02*
X135959700Y-76200000D01*
X187960000Y-99060000D02*
X189160300Y-99060000D01*
X170110300Y-31750000D02*
X172795300Y-29065000D01*
X172795300Y-29065000D02*
X175330000Y-29065000D01*
X224534000Y-36892100D02*
X224534000Y-36884000D01*
X224534000Y-36884000D02*
X219100000Y-31450000D01*
X118110000Y-63420000D02*
X116989600Y-62299600D01*
X116989600Y-62299600D02*
X104625400Y-62299600D01*
X104625400Y-62299600D02*
X103505000Y-63420000D01*
X64770000Y-29883600D02*
X71713600Y-29883600D01*
X71713600Y-29883600D02*
X76120000Y-34290000D01*
X168910000Y-31750000D02*
X170110300Y-31750000D01*
X64770000Y-29883600D02*
X64770000Y-27940000D01*
X56022500Y-38631100D02*
X64770000Y-29883600D01*
X56675200Y-43942300D02*
X57182900Y-44450000D01*
X57182900Y-44450000D02*
X57665000Y-44450000D01*
X56022500Y-38631100D02*
X56022500Y-43289600D01*
X56022500Y-43289600D02*
X56675200Y-43942300D01*
X43260000Y-54610000D02*
X51099200Y-46770800D01*
X51099200Y-46770800D02*
X53846700Y-46770800D01*
X53846700Y-46770800D02*
X56675200Y-43942300D01*
X235601400Y-30540200D02*
X234615200Y-30540200D01*
X234615200Y-30540200D02*
X232985000Y-28910000D01*
X244100000Y-31450000D02*
X243190200Y-30540200D01*
X243190200Y-30540200D02*
X235601400Y-30540200D01*
X234932100Y-36892100D02*
X234932100Y-34615500D01*
X234932100Y-34615500D02*
X235601400Y-33946200D01*
X235601400Y-33946200D02*
X235601400Y-30540200D01*
X234932100Y-36892100D02*
X236140000Y-38100000D01*
X224534000Y-36892100D02*
X234932100Y-36892100D01*
X134620000Y-167640000D02*
X135820300Y-167640000D01*
X135820300Y-167640000D02*
X160618000Y-167640000D01*
X160618000Y-167640000D02*
X162710000Y-165548000D01*
X162710000Y-165548000D02*
X170922000Y-165548000D01*
X223480000Y-38100000D02*
X224534000Y-37046000D01*
X224534000Y-37046000D02*
X224534000Y-36892100D01*
X200660000Y-76200000D02*
X199459700Y-76200000D01*
X187960000Y-76200000D02*
X189160300Y-76200000D01*
X189160300Y-76200000D02*
X190360700Y-77400400D01*
X190360700Y-77400400D02*
X198259300Y-77400400D01*
X198259300Y-77400400D02*
X199459700Y-76200000D01*
X192675000Y-29639900D02*
X192034900Y-29639900D01*
X192034900Y-29639900D02*
X191530000Y-29135000D01*
X200330000Y-29065000D02*
X193249900Y-29065000D01*
X193249900Y-29065000D02*
X192675000Y-29639900D01*
X192675000Y-29639900D02*
X192675000Y-31115000D01*
X86360000Y-116840000D02*
X85159700Y-116840000D01*
X85159700Y-116840000D02*
X85159700Y-117213600D01*
X85159700Y-117213600D02*
X81723300Y-120650000D01*
X81723300Y-120650000D02*
X78660000Y-120650000D01*
X52380000Y-35560000D02*
X55451100Y-38631100D01*
X55451100Y-38631100D02*
X56022500Y-38631100D01*
X55880000Y-81280000D02*
X57080300Y-81280000D01*
X57080300Y-81280000D02*
X60960000Y-77400300D01*
X60960000Y-77400300D02*
X71120000Y-77400300D01*
X43260000Y-80010000D02*
X44530000Y-81280000D01*
X44530000Y-81280000D02*
X55880000Y-81280000D01*
X71120000Y-76200000D02*
X71120000Y-77400300D01*
X71120000Y-77400300D02*
X71130300Y-77400300D01*
X71130300Y-77400300D02*
X73740000Y-80010000D01*
X193040000Y-167640000D02*
X191372200Y-169307800D01*
X191372200Y-169307800D02*
X174681800Y-169307800D01*
X174681800Y-169307800D02*
X170922000Y-165548000D01*
X171450000Y-165020000D02*
X170922000Y-165548000D01*
X166439700Y-81280000D02*
X158680300Y-81280000D01*
X158680300Y-81280000D02*
X153600300Y-76200000D01*
X152400000Y-76200000D02*
X151199700Y-76200000D01*
X137160000Y-76200000D02*
X138360300Y-76200000D01*
X138360300Y-76200000D02*
X139630300Y-74930000D01*
X139630300Y-74930000D02*
X149929700Y-74930000D01*
X149929700Y-74930000D02*
X151199700Y-76200000D01*
X71120000Y-142240000D02*
X71120000Y-143440300D01*
X71120000Y-143440300D02*
X71130300Y-143440300D01*
X71130300Y-143440300D02*
X73740000Y-146050000D01*
X32370000Y-28384400D02*
X32140300Y-28154700D01*
X32140300Y-28154700D02*
X31720000Y-28154700D01*
X32370000Y-28679800D02*
X32370000Y-28384400D01*
X39674700Y-27940000D02*
X39034400Y-27299700D01*
X39034400Y-27299700D02*
X33454700Y-27299700D01*
X33454700Y-27299700D02*
X32370000Y-28384400D01*
X41275000Y-27940000D02*
X39674700Y-27940000D01*
X31720000Y-29205000D02*
X31720000Y-28154700D01*
X32370000Y-29205000D02*
X32370000Y-28679800D01*
X167640000Y-81280000D02*
X166439700Y-81280000D01*
X184660000Y-29135000D02*
X182370000Y-29135000D01*
X184660000Y-29135000D02*
X186950000Y-29135000D01*
X203280000Y-53975000D02*
X202044200Y-55210800D01*
X202044200Y-55210800D02*
X191815800Y-55210800D01*
X191815800Y-55210800D02*
X190580000Y-53975000D01*
X26600300Y-53340000D02*
X27870300Y-54610000D01*
X27870300Y-54610000D02*
X43260000Y-54610000D01*
X25400000Y-53340000D02*
X26600300Y-53340000D01*
X238760000Y-114300000D02*
X237559700Y-114300000D01*
X190580000Y-53975000D02*
X183515000Y-53975000D01*
X183515000Y-53975000D02*
X182880000Y-53340000D01*
X223520000Y-49530000D02*
X222319700Y-49530000D01*
X215980000Y-53975000D02*
X218247700Y-53975000D01*
X218247700Y-53975000D02*
X222319700Y-49903000D01*
X222319700Y-49903000D02*
X222319700Y-49530000D01*
X223520000Y-49530000D02*
X224720300Y-49530000D01*
X228680000Y-53975000D02*
X224720300Y-50015300D01*
X224720300Y-50015300D02*
X224720300Y-49530000D01*
X152400000Y-76200000D02*
X153600300Y-76200000D01*
X40640000Y-76200000D02*
X40640000Y-77400300D01*
X40640000Y-77400300D02*
X40650300Y-77400300D01*
X40650300Y-77400300D02*
X43260000Y-80010000D01*
X40640000Y-142240000D02*
X40640000Y-143440300D01*
X40640000Y-143440300D02*
X40650300Y-143440300D01*
X40650300Y-143440300D02*
X43260000Y-146050000D01*
X71120000Y-101600000D02*
X72320300Y-101600000D01*
X233680000Y-144780000D02*
X232479700Y-144780000D01*
X232479700Y-144780000D02*
X232479700Y-144404900D01*
X232479700Y-144404900D02*
X226574400Y-138499600D01*
X226574400Y-138499600D02*
X215517700Y-138499600D01*
X215517700Y-138499600D02*
X212090000Y-135071900D01*
X212090000Y-135071900D02*
X212090000Y-134700000D01*
X215900000Y-76200000D02*
X214699700Y-76200000D01*
X200660000Y-76200000D02*
X201860300Y-76200000D01*
X201860300Y-76200000D02*
X203110500Y-77450200D01*
X203110500Y-77450200D02*
X213449500Y-77450200D01*
X213449500Y-77450200D02*
X214699700Y-76200000D01*
X215900000Y-76200000D02*
X217100300Y-76200000D01*
X228600000Y-76200000D02*
X227399700Y-76200000D01*
%TO.N,VCC*%
X130810000Y-121920000D02*
X133626500Y-124736500D01*
X133626500Y-124736500D02*
X143264900Y-124736500D01*
X143264900Y-124736500D02*
X143470500Y-124942100D01*
X143470500Y-124942100D02*
X145262100Y-124942100D01*
X145262100Y-124942100D02*
X149860000Y-129540000D01*
X158750000Y-125730000D02*
X159950300Y-125730000D01*
X62299700Y-101600000D02*
X61099400Y-102800300D01*
X61099400Y-102800300D02*
X52880500Y-102800300D01*
X52880500Y-102800300D02*
X51580700Y-104100100D01*
X51580700Y-104100100D02*
X45759900Y-104100100D01*
X45759900Y-104100100D02*
X43180000Y-106680000D01*
X48260000Y-120650000D02*
X64552300Y-120650000D01*
X64552300Y-120650000D02*
X65266100Y-121363800D01*
X65266100Y-121363800D02*
X72946200Y-121363800D01*
X72946200Y-121363800D02*
X73660000Y-120650000D01*
X214699700Y-106680000D02*
X214699700Y-106604400D01*
X214699700Y-106604400D02*
X212559000Y-104463700D01*
X212559000Y-104463700D02*
X194633700Y-104463700D01*
X194633700Y-104463700D02*
X193040000Y-102870000D01*
X118110000Y-81280000D02*
X115500300Y-81280000D01*
X128339700Y-81280000D02*
X127139300Y-80079600D01*
X127139300Y-80079600D02*
X119310400Y-80079600D01*
X119310400Y-80079600D02*
X118110000Y-81280000D01*
X114300000Y-81280000D02*
X115500300Y-81280000D01*
X185420000Y-123120300D02*
X184255300Y-124285000D01*
X184255300Y-124285000D02*
X161395300Y-124285000D01*
X161395300Y-124285000D02*
X159950300Y-125730000D01*
X88392000Y-135336900D02*
X106598100Y-135336900D01*
X106598100Y-135336900D02*
X108585000Y-133350000D01*
X78740000Y-125660300D02*
X79115200Y-125660300D01*
X79115200Y-125660300D02*
X80931700Y-127476800D01*
X80931700Y-127476800D02*
X80931700Y-127876600D01*
X80931700Y-127876600D02*
X88392000Y-135336900D01*
X88392000Y-135336900D02*
X88392000Y-136398000D01*
X88392000Y-136398000D02*
X78740000Y-146050000D01*
X148590000Y-58420000D02*
X149114400Y-58420000D01*
X149114400Y-58420000D02*
X150314800Y-57219600D01*
X150314800Y-57219600D02*
X157619300Y-57219600D01*
X157619300Y-57219600D02*
X158819700Y-58420000D01*
X185420000Y-100213000D02*
X185507600Y-100300600D01*
X185507600Y-100300600D02*
X188093000Y-100300600D01*
X188093000Y-100300600D02*
X190662400Y-102870000D01*
X190662400Y-102870000D02*
X193040000Y-102870000D01*
X78740000Y-124460000D02*
X78740000Y-125660300D01*
X73660000Y-120650000D02*
X77470000Y-124460000D01*
X77470000Y-124460000D02*
X78740000Y-124460000D01*
X130810000Y-121920000D02*
X120015000Y-121920000D01*
X120015000Y-121920000D02*
X108585000Y-133350000D01*
X63500000Y-101600000D02*
X62299700Y-101600000D01*
X129540000Y-81280000D02*
X128339700Y-81280000D01*
X160020000Y-58420000D02*
X161220300Y-58420000D01*
X175260000Y-58420000D02*
X174059700Y-58420000D01*
X174059700Y-58420000D02*
X172859300Y-59620400D01*
X172859300Y-59620400D02*
X166438000Y-59620400D01*
X166438000Y-59620400D02*
X165237600Y-58420000D01*
X165237600Y-58420000D02*
X161220300Y-58420000D01*
X149860000Y-129540000D02*
X151060300Y-129540000D01*
X151060300Y-129540000D02*
X154870300Y-125730000D01*
X154870300Y-125730000D02*
X158750000Y-125730000D01*
X212090000Y-121920000D02*
X210889700Y-123120300D01*
X210889700Y-123120300D02*
X185420000Y-123120300D01*
X129540000Y-81280000D02*
X133985000Y-81280000D01*
X133985000Y-81280000D02*
X137160000Y-84455000D01*
X48260000Y-83820000D02*
X49460300Y-83820000D01*
X78740000Y-83820000D02*
X77539700Y-83820000D01*
X77539700Y-83820000D02*
X76339400Y-82619700D01*
X76339400Y-82619700D02*
X50660600Y-82619700D01*
X50660600Y-82619700D02*
X49460300Y-83820000D01*
X43180000Y-106680000D02*
X36387200Y-106680000D01*
X36387200Y-106680000D02*
X34220300Y-108846900D01*
X34220300Y-108846900D02*
X34220300Y-109220000D01*
X33020000Y-109220000D02*
X34220300Y-109220000D01*
X182880000Y-55880000D02*
X177800000Y-55880000D01*
X194379700Y-58420000D02*
X193351000Y-58420000D01*
X193351000Y-58420000D02*
X190811000Y-55880000D01*
X190811000Y-55880000D02*
X182880000Y-55880000D01*
X185420000Y-121920000D02*
X185420000Y-123120300D01*
X77525700Y-55824300D02*
X78740000Y-54610000D01*
X63500000Y-54610000D02*
X64714300Y-55824300D01*
X64714300Y-55824300D02*
X77525700Y-55824300D01*
X78740000Y-58420000D02*
X78740000Y-57038600D01*
X78740000Y-57038600D02*
X77525700Y-55824300D01*
X78740000Y-80010000D02*
X80010000Y-81280000D01*
X80010000Y-81280000D02*
X103505000Y-81280000D01*
X223520000Y-58420000D02*
X224720300Y-58420000D01*
X232700500Y-56100700D02*
X232122600Y-56678600D01*
X232122600Y-56678600D02*
X226461700Y-56678600D01*
X226461700Y-56678600D02*
X224720300Y-58420000D01*
X233680000Y-53975000D02*
X233300500Y-54354500D01*
X233300500Y-54354500D02*
X233300500Y-55500500D01*
X233300500Y-55500500D02*
X233000400Y-55800600D01*
X233000400Y-55800600D02*
X233000400Y-55800800D01*
X233000400Y-55800800D02*
X232700500Y-56100700D01*
X232700500Y-56100700D02*
X235019700Y-58420000D01*
X219497000Y-55597300D02*
X222319700Y-58420000D01*
X209480300Y-58420000D02*
X212303000Y-55597300D01*
X212303000Y-55597300D02*
X219497000Y-55597300D01*
X219497000Y-55597300D02*
X219497000Y-55458000D01*
X219497000Y-55458000D02*
X220980000Y-53975000D01*
X223520000Y-58420000D02*
X222319700Y-58420000D01*
X195580000Y-53975000D02*
X196792900Y-52762100D01*
X196792900Y-52762100D02*
X207067100Y-52762100D01*
X207067100Y-52762100D02*
X208280000Y-53975000D01*
X50707200Y-57173100D02*
X49460300Y-58420000D01*
X62299700Y-58420000D02*
X61052800Y-57173100D01*
X61052800Y-57173100D02*
X50707200Y-57173100D01*
X50707200Y-57173100D02*
X50707200Y-57057200D01*
X50707200Y-57057200D02*
X48260000Y-54610000D01*
X48260000Y-58420000D02*
X49460300Y-58420000D01*
X63500000Y-58420000D02*
X62299700Y-58420000D01*
X61099300Y-143579600D02*
X50730400Y-143579600D01*
X50730400Y-143579600D02*
X48260000Y-146050000D01*
X62299700Y-144780000D02*
X61099300Y-143579600D01*
X61099300Y-143579600D02*
X63500000Y-141178900D01*
X63500000Y-141178900D02*
X63500000Y-140970000D01*
X53975000Y-27940000D02*
X53975000Y-29540300D01*
X53421700Y-34302000D02*
X48378000Y-34302000D01*
X48378000Y-34302000D02*
X47040000Y-35640000D01*
X54679700Y-35560000D02*
X53421700Y-34302000D01*
X53975000Y-29540300D02*
X53421700Y-30093600D01*
X53421700Y-30093600D02*
X53421700Y-34302000D01*
X231140000Y-38100000D02*
X232341100Y-39301100D01*
X232341100Y-39301100D02*
X247718900Y-39301100D01*
X247718900Y-39301100D02*
X248920000Y-38100000D01*
X236220000Y-58420000D02*
X235019700Y-58420000D01*
X233680000Y-129540000D02*
X232479700Y-129540000D01*
X215900000Y-137160000D02*
X217100300Y-137160000D01*
X217100300Y-137160000D02*
X217100300Y-136784900D01*
X217100300Y-136784900D02*
X221874800Y-132010400D01*
X221874800Y-132010400D02*
X230382300Y-132010400D01*
X230382300Y-132010400D02*
X232479700Y-129913000D01*
X232479700Y-129913000D02*
X232479700Y-129540000D01*
X208280000Y-58420000D02*
X209480300Y-58420000D01*
X171450000Y-160020000D02*
X174059700Y-160020000D01*
X163830000Y-156845000D02*
X168275000Y-156845000D01*
X168275000Y-156845000D02*
X171450000Y-160020000D01*
X175260000Y-160020000D02*
X174059700Y-160020000D01*
X148590000Y-58420000D02*
X145980300Y-58420000D01*
X144780000Y-58420000D02*
X145980300Y-58420000D01*
X133350000Y-58420000D02*
X130740300Y-58420000D01*
X143579700Y-58420000D02*
X142379300Y-57219600D01*
X142379300Y-57219600D02*
X134550400Y-57219600D01*
X134550400Y-57219600D02*
X133350000Y-58420000D01*
X129540000Y-58420000D02*
X130740300Y-58420000D01*
X144780000Y-58420000D02*
X143579700Y-58420000D01*
X118110000Y-58420000D02*
X115500300Y-58420000D01*
X114300000Y-58420000D02*
X115500300Y-58420000D01*
X114300000Y-58420000D02*
X109553900Y-58420000D01*
X109553900Y-58420000D02*
X108353600Y-59620300D01*
X108353600Y-59620300D02*
X104705300Y-59620300D01*
X104705300Y-59620300D02*
X103505000Y-58420000D01*
X114300000Y-81280000D02*
X113099700Y-81280000D01*
X113099700Y-81280000D02*
X111899300Y-80079600D01*
X111899300Y-80079600D02*
X104705400Y-80079600D01*
X104705400Y-80079600D02*
X103505000Y-81280000D01*
X101600000Y-33020000D02*
X99060000Y-33020000D01*
X99060000Y-33020000D02*
X97790000Y-34290000D01*
X63500000Y-144780000D02*
X64700300Y-144780000D01*
X78740000Y-147262400D02*
X78740000Y-146050000D01*
X78740000Y-149860000D02*
X78740000Y-147262400D01*
X78740000Y-147262400D02*
X67182700Y-147262400D01*
X67182700Y-147262400D02*
X64700300Y-144780000D01*
X55880000Y-35560000D02*
X54679700Y-35560000D01*
X160020000Y-58420000D02*
X158819700Y-58420000D01*
X68580000Y-109220000D02*
X69780300Y-109220000D01*
X73660000Y-106680000D02*
X71947200Y-106680000D01*
X71947200Y-106680000D02*
X69780300Y-108846900D01*
X69780300Y-108846900D02*
X69780300Y-109220000D01*
X63500000Y-144780000D02*
X62299700Y-144780000D01*
X215900000Y-106680000D02*
X214699700Y-106680000D01*
X195580000Y-58420000D02*
X194379700Y-58420000D01*
X116840000Y-160020000D02*
X113030000Y-160020000D01*
X215900000Y-106680000D02*
X217100300Y-106680000D01*
X217100300Y-106680000D02*
X217100300Y-106304900D01*
X217100300Y-106304900D02*
X220535200Y-102870000D01*
X220535200Y-102870000D02*
X223520000Y-102870000D01*
%TD*%
M02*
