M48
; DRILL file {KiCad (5.1.6)-1} date 07/17/20 12:20:34
; FORMAT={-:-/ absolute / inch / decimal}
; #@! TF.CreationDate,2020-07-17T12:20:34+01:00
; #@! TF.GenerationSoftware,Kicad,Pcbnew,(5.1.6)-1
; #@! TF.FileFunction,Plated,1,2,PTH
FMAT,2
INCH
T1C0.0157
T2C0.0217
T3C0.0276
T4C0.0315
T5C0.0335
T6C0.0354
T7C0.0394
T8C0.0472
T9C0.0669
T10C0.1260
%
G90
G05
T1
X1.9711Y-2.9982
X2.0032Y-4.0319
X2.1504Y-3.5347
X2.1685Y-5.1
X2.2565Y-5.1879
X2.3106Y-4.084
X2.3129Y-3.4778
X2.3357Y-4.2772
X2.3584Y-5.2065
X2.3747Y-5.0091
X2.3912Y-4.435
X2.5107Y-3.4297
X2.5809Y-4.7505
X2.5987Y-4.9927
X2.6301Y-2.4734
X2.8493Y-6.2508
X2.9232Y-6.0
X2.9449Y-5.6
X3.0065Y-4.6576
X3.0559Y-4.142
X3.1207Y-4.1056
X3.1441Y-4.444
X3.1756Y-4.5001
X3.3034Y-5.0998
X3.3851Y-3.5829
X3.6699Y-4.4323
X4.0123Y-5.8239
X4.0373Y-3.0257
X4.1025Y-2.9843
X4.237Y-2.1682
X4.2379Y-6.0444
X4.2621Y-2.1893
X4.291Y-2.6689
X4.4435Y-2.1392
X4.5852Y-2.2301
X4.6869Y-2.8837
X4.7267Y-4.1904
X4.7373Y-2.4737
X4.7469Y-1.9423
X4.7613Y-4.2655
X5.0273Y-4.4502
X5.1171Y-4.9568
X5.3015Y-5.2634
X5.3822Y-4.2919
X5.477Y-4.3507
X5.5061Y-4.3766
X5.5113Y-4.9741
X5.5231Y-4.3139
X5.6488Y-5.041
X5.7063Y-4.6745
X5.8824Y-2.2492
X6.1228Y-3.4094
X6.154Y-4.181
X6.1796Y-5.8623
X6.2046Y-3.4295
X6.2307Y-4.2258
X6.3545Y-2.6035
X6.4227Y-3.3201
X6.4547Y-5.2051
X6.5548Y-3.5893
X6.57Y-4.5612
X6.6454Y-4.4457
X6.6515Y-3.2177
X6.6636Y-2.3041
X6.7278Y-4.1911
X7.0761Y-2.6226
X7.1205Y-4.7102
X7.1407Y-4.7348
X7.1553Y-3.3389
X7.2556Y-3.7884
X7.3Y-3.9454
X7.3446Y-4.9758
X7.3691Y-4.0125
X7.4526Y-4.7611
X7.5Y-3.1192
X7.5608Y-4.611
X7.6012Y-2.25
X7.6159Y-3.7884
X7.6266Y-1.6102
X7.85Y-3.9248
X7.9501Y-3.2022
X8.2658Y-2.9349
X8.2893Y-4.6316
X8.3378Y-3.2284
X8.3596Y-3.0908
X8.4113Y-4.1945
X8.5771Y-2.6137
X8.6569Y-3.9373
X8.94Y-3.1402
X8.9569Y-3.0314
X9.0095Y-2.0653
X9.0199Y-2.1766
T3
X2.075Y-1.75
X2.1498Y-1.75
X2.2703Y-1.75
X2.3451Y-1.75
T4
X2.8Y-1.35
X2.9969Y-1.35
X7.15Y-2.9031
X7.15Y-3.1
X2.55Y-1.1
X2.95Y-1.1
X2.5Y-5.3531
X2.5Y-5.55
X2.8Y-2.3
X2.8Y-2.4
X2.8Y-2.5
X2.8Y-2.6
X2.8Y-2.7
X2.8Y-2.8
X2.8Y-2.9
X2.8Y-3.0
X3.1Y-2.3
X3.1Y-2.4
X3.1Y-2.5
X3.1Y-2.6
X3.1Y-2.7
X3.1Y-2.8
X3.1Y-2.9
X3.1Y-3.0
X2.5Y-3.6531
X2.5Y-3.85
X2.8Y-5.9
X2.8Y-6.0
X2.8Y-6.1
X2.8Y-6.2
X2.8Y-6.3
X2.8Y-6.4
X2.8Y-6.5
X2.8Y-6.6
X3.1Y-5.9
X3.1Y-6.0
X3.1Y-6.1
X3.1Y-6.2
X3.1Y-6.3
X3.1Y-6.4
X3.1Y-6.5
X3.1Y-6.6
X2.9031Y-3.15
X3.1Y-3.15
X6.0Y-2.3
X6.0Y-2.4
X6.0Y-2.5
X6.0Y-2.6
X6.0Y-2.7
X6.0Y-2.8
X6.0Y-2.9
X6.0Y-3.0
X6.3Y-2.3
X6.3Y-2.4
X6.3Y-2.5
X6.3Y-2.6
X6.3Y-2.7
X6.3Y-2.8
X6.3Y-2.9
X6.3Y-3.0
X8.5Y-4.2
X8.5Y-4.5
X8.6Y-4.2
X8.6Y-4.5
X8.7Y-4.2
X8.7Y-4.5
X8.8Y-4.2
X8.8Y-4.5
X8.9Y-4.2
X8.9Y-4.5
X9.0Y-4.2
X9.0Y-4.5
X9.1Y-4.2
X9.1Y-4.5
X9.2Y-4.2
X9.2Y-4.5
X9.3Y-4.2
X9.3Y-4.5
X9.4Y-4.2
X9.4Y-4.5
X2.9Y-4.2
X3.0969Y-4.2
X7.4Y-3.3
X7.4Y-3.9
X7.5Y-3.3
X7.5Y-3.9
X7.6Y-3.3
X7.6Y-3.9
X7.7Y-3.3
X7.7Y-3.9
X7.8Y-3.3
X7.8Y-3.9
X7.9Y-3.3
X7.9Y-3.9
X8.0Y-3.3
X8.0Y-3.9
X8.1Y-3.3
X8.1Y-3.9
X8.2Y-3.3
X8.2Y-3.9
X8.3Y-3.3
X8.3Y-3.9
X8.4Y-3.3
X8.4Y-3.9
X8.5Y-3.3
X8.5Y-3.9
X8.6Y-3.3
X8.6Y-3.9
X8.7Y-3.3
X8.7Y-3.9
X8.8Y-3.3
X8.8Y-3.9
X8.9Y-3.3
X8.9Y-3.9
X9.0Y-3.3
X9.0Y-3.9
X9.1Y-3.3
X9.1Y-3.9
X9.2Y-3.3
X9.2Y-3.9
X9.3Y-3.3
X9.3Y-3.9
X7.575Y-1.7
X7.975Y-1.7
X7.4Y-2.3
X7.4Y-2.4
X7.4Y-2.5
X7.4Y-2.6
X7.4Y-2.7
X7.4Y-2.8
X7.4Y-2.9
X7.4Y-3.0
X7.7Y-2.3
X7.7Y-2.4
X7.7Y-2.5
X7.7Y-2.6
X7.7Y-2.7
X7.7Y-2.8
X7.7Y-2.9
X7.7Y-3.0
X6.05Y-1.25
X6.05Y-1.65
X7.387Y-1.7047
X7.387Y-1.8969
X7.0Y-2.0031
X7.0Y-2.2
X8.35Y-5.3031
X8.35Y-5.5
X7.1Y-4.6
X7.1Y-4.7969
X2.2Y-4.0
X2.2Y-4.1
X2.2Y-4.2
X2.2Y-4.3
X2.2Y-4.4
X2.2Y-4.5
X2.2Y-4.6
X2.2Y-4.7
X2.2Y-4.8
X2.2Y-4.9
X2.5Y-4.0
X2.5Y-4.1
X2.5Y-4.2
X2.5Y-4.3
X2.5Y-4.4
X2.5Y-4.5
X2.5Y-4.6
X2.5Y-4.7
X2.5Y-4.8
X2.5Y-4.9
X1.7Y-4.2
X1.8969Y-4.2
X8.5Y-5.4
X8.5Y-5.7
X8.6Y-5.4
X8.6Y-5.7
X8.7Y-5.4
X8.7Y-5.7
X8.8Y-5.4
X8.8Y-5.7
X8.9Y-5.4
X8.9Y-5.7
X9.0Y-5.4
X9.0Y-5.7
X9.1Y-5.4
X9.1Y-5.7
X9.2Y-5.4
X9.2Y-5.7
X5.4Y-3.325
X5.5969Y-3.325
X4.0Y-1.3
X4.0Y-1.6
X4.1Y-1.3
X4.1Y-1.6
X4.2Y-1.3
X4.2Y-1.6
X4.3Y-1.3
X4.3Y-1.6
X4.4Y-1.3
X4.4Y-1.6
X4.5Y-1.3
X4.5Y-1.6
X4.6Y-1.3
X4.6Y-1.6
X4.7Y-1.3
X4.7Y-1.6
X4.8Y-1.3
X4.8Y-1.6
X4.9Y-1.3
X4.9Y-1.6
X7.3Y-4.2
X7.3Y-4.5
X7.4Y-4.2
X7.4Y-4.5
X7.5Y-4.2
X7.5Y-4.5
X7.6Y-4.2
X7.6Y-4.5
X7.7Y-4.2
X7.7Y-4.5
X7.8Y-4.2
X7.8Y-4.5
X7.9Y-4.2
X7.9Y-4.5
X8.0Y-4.2
X8.0Y-4.5
X8.1Y-4.2
X8.1Y-4.5
X8.2Y-4.2
X8.2Y-4.5
X5.25Y-2.3
X5.25Y-2.4969
X5.3Y-4.8
X5.3Y-5.1
X5.4Y-4.8
X5.4Y-5.1
X5.5Y-4.8
X5.5Y-5.1
X5.6Y-4.8
X5.6Y-5.1
X5.7Y-4.8
X5.7Y-5.1
X5.8Y-4.8
X5.8Y-5.1
X5.9Y-4.8
X5.9Y-5.1
X8.2Y-5.625
X8.2Y-5.725
X8.2Y-5.825
X8.2Y-5.925
X8.2Y-6.025
X6.4Y-1.25
X6.4Y-1.65
X7.1016Y-1.7
X7.2Y-1.7
X7.6Y-4.05
X7.7969Y-4.05
X2.5031Y-1.35
X2.7Y-1.35
X8.05Y-1.525
X8.2469Y-1.525
X9.1Y-1.5
X9.2969Y-1.5
X4.6Y-6.3
X4.6Y-6.6
X4.7Y-6.3
X4.7Y-6.6
X4.8Y-6.3
X4.8Y-6.6
X4.9Y-6.3
X4.9Y-6.6
X5.0Y-6.3
X5.0Y-6.6
X5.1Y-6.3
X5.1Y-6.6
X5.2Y-6.3
X5.2Y-6.6
X5.3Y-6.3
X5.3Y-6.6
X4.65Y-3.2
X4.65Y-3.3969
X6.9Y-6.3
X6.9Y-6.6
X7.0Y-6.3
X7.0Y-6.6
X7.1Y-6.3
X7.1Y-6.6
X7.2Y-6.3
X7.2Y-6.6
X7.3Y-6.3
X7.3Y-6.6
X7.4Y-6.3
X7.4Y-6.6
X7.5Y-6.3
X7.5Y-6.6
X7.6Y-6.3
X7.6Y-6.6
X5.85Y-2.3
X5.85Y-2.4969
X5.4Y-2.3
X5.4Y-2.4
X5.4Y-2.5
X5.4Y-2.6
X5.4Y-2.7
X5.4Y-2.8
X5.4Y-2.9
X5.4Y-3.0
X5.7Y-2.3
X5.7Y-2.4
X5.7Y-2.5
X5.7Y-2.6
X5.7Y-2.7
X5.7Y-2.8
X5.7Y-2.9
X5.7Y-3.0
X1.6Y-3.3
X1.6Y-3.4
X1.6Y-3.5
X1.6Y-3.6
X1.6Y-3.7
X1.6Y-3.8
X1.6Y-3.9
X1.6Y-4.0
X1.9Y-3.3
X1.9Y-3.4
X1.9Y-3.5
X1.9Y-3.6
X1.9Y-3.7
X1.9Y-3.8
X1.9Y-3.9
X1.9Y-4.0
X6.45Y-5.65
X6.45Y-5.75
X6.45Y-5.85
X6.45Y-5.95
X6.45Y-6.05
X1.0Y-1.7
X1.0Y-1.8
X1.0Y-1.9
X1.0Y-2.0
X1.0Y-2.1
X9.0Y-2.3
X9.0Y-2.4
X9.0Y-2.5
X9.0Y-2.6
X9.0Y-2.7
X9.0Y-2.8
X9.0Y-2.9
X9.0Y-3.0
X9.3Y-2.3
X9.3Y-2.4
X9.3Y-2.5
X9.3Y-2.6
X9.3Y-2.7
X9.3Y-2.8
X9.3Y-2.9
X9.3Y-3.0
X7.2Y-2.1
X7.2Y-2.2
X7.2Y-2.3
X5.15Y-4.8
X5.15Y-4.9969
X6.45Y-6.175
X6.45Y-6.575
X8.7Y-1.5
X8.7984Y-1.5
X8.8Y-4.05
X8.9969Y-4.05
X4.45Y-6.3
X4.45Y-6.4969
X2.8Y-3.3
X2.8Y-3.4
X2.8Y-3.5
X2.8Y-3.6
X2.8Y-3.7
X2.8Y-3.8
X2.8Y-3.9
X2.8Y-4.0
X3.1Y-3.3
X3.1Y-3.4
X3.1Y-3.5
X3.1Y-3.6
X3.1Y-3.7
X3.1Y-3.8
X3.1Y-3.9
X3.1Y-4.0
X4.075Y-2.3
X4.075Y-2.4969
X2.7Y-4.3
X2.7Y-4.6
X2.8Y-4.3
X2.8Y-4.6
X2.9Y-4.3
X2.9Y-4.6
X3.0Y-4.3
X3.0Y-4.6
X3.1Y-4.3
X3.1Y-4.6
X3.2Y-4.3
X3.2Y-4.6
X3.3Y-4.3
X3.3Y-4.6
X3.4Y-4.3
X3.4Y-4.6
X1.7031Y-5.75
X1.9Y-5.75
X4.8Y-3.2
X4.8Y-3.3
X4.8Y-3.4
X4.8Y-3.5
X4.8Y-3.6
X4.8Y-3.7
X4.8Y-3.8
X4.8Y-3.9
X5.1Y-3.2
X5.1Y-3.3
X5.1Y-3.4
X5.1Y-3.5
X5.1Y-3.6
X5.1Y-3.7
X5.1Y-3.8
X5.1Y-3.9
X1.6Y-2.3
X1.6Y-2.4
X1.6Y-2.5
X1.6Y-2.6
X1.6Y-2.7
X1.6Y-2.8
X1.6Y-2.9
X1.6Y-3.0
X1.9Y-2.3
X1.9Y-2.4
X1.9Y-2.5
X1.9Y-2.6
X1.9Y-2.7
X1.9Y-2.8
X1.9Y-2.9
X1.9Y-3.0
X2.2Y-2.3
X2.2Y-2.4
X2.2Y-2.5
X2.2Y-2.6
X2.2Y-2.7
X2.2Y-2.8
X2.2Y-2.9
X2.2Y-3.0
X2.2Y-3.1
X2.2Y-3.2
X2.5Y-2.3
X2.5Y-2.4
X2.5Y-2.5
X2.5Y-2.6
X2.5Y-2.7
X2.5Y-2.8
X2.5Y-2.9
X2.5Y-3.0
X2.5Y-3.1
X2.5Y-3.2
X5.2Y-1.25
X5.2Y-1.65
X6.25Y-1.25
X6.25Y-1.65
X2.9031Y-5.75
X3.1Y-5.75
X6.65Y-1.25
X6.65Y-1.65
X8.0031Y-2.125
X8.2Y-2.125
X4.0781Y-5.25
X4.275Y-5.25
X1.6Y-5.9
X1.6Y-6.0
X1.6Y-6.1
X1.6Y-6.2
X1.6Y-6.3
X1.6Y-6.4
X1.6Y-6.5
X1.6Y-6.6
X1.9Y-5.9
X1.9Y-6.0
X1.9Y-6.1
X1.9Y-6.2
X1.9Y-6.3
X1.9Y-6.4
X1.9Y-6.5
X1.9Y-6.6
X1.7031Y-4.75
X1.9Y-4.75
X4.8Y-2.3
X4.8Y-2.4
X4.8Y-2.5
X4.8Y-2.6
X4.8Y-2.7
X4.8Y-2.8
X4.8Y-2.9
X4.8Y-3.0
X5.1Y-2.3
X5.1Y-2.4
X5.1Y-2.5
X5.1Y-2.6
X5.1Y-2.7
X5.1Y-2.8
X5.1Y-2.9
X5.1Y-3.0
X7.3Y-4.8
X7.3Y-5.1
X7.4Y-4.8
X7.4Y-5.1
X7.5Y-4.8
X7.5Y-5.1
X7.6Y-4.8
X7.6Y-5.1
X7.7Y-4.8
X7.7Y-5.1
X7.8Y-4.8
X7.8Y-5.1
X7.9Y-4.8
X7.9Y-5.1
X8.0Y-4.8
X8.0Y-5.1
X8.1Y-4.8
X8.1Y-5.1
X8.2Y-4.8
X8.2Y-5.1
X2.3031Y-2.15
X2.5Y-2.15
X4.2Y-3.2
X4.2Y-3.3
X4.2Y-3.4
X4.2Y-3.5
X4.2Y-3.6
X4.2Y-3.7
X4.2Y-3.8
X4.2Y-3.9
X4.5Y-3.2
X4.5Y-3.3
X4.5Y-3.4
X4.5Y-3.5
X4.5Y-3.6
X4.5Y-3.7
X4.5Y-3.8
X4.5Y-3.9
X8.2Y-1.65
X8.2Y-1.95
X8.3Y-1.65
X8.3Y-1.95
X8.4Y-1.65
X8.4Y-1.95
X8.5Y-1.65
X8.5Y-1.95
X8.6Y-1.65
X8.6Y-1.95
X8.7Y-1.65
X8.7Y-1.95
X8.8Y-1.65
X8.8Y-1.95
X9.1Y-1.65
X9.1Y-1.95
X9.2Y-1.65
X9.2Y-1.95
X9.3Y-1.65
X9.3Y-1.95
X9.4Y-1.65
X9.4Y-1.95
X9.5Y-1.65
X9.5Y-1.95
X9.6Y-1.65
X9.6Y-1.95
X9.7Y-1.65
X9.7Y-1.95
X9.8Y-1.65
X9.8Y-1.95
X5.7Y-1.25
X5.7Y-1.65
X5.55Y-1.25
X5.55Y-1.65
X8.5031Y-2.125
X8.7Y-2.125
X6.25Y-4.95
X6.65Y-4.95
X8.35Y-4.6031
X8.35Y-4.8
X9.4Y-1.5
X9.8Y-1.5
X1.7031Y-3.15
X1.9Y-3.15
X7.5031Y-2.125
X7.7Y-2.125
X1.6Y-4.9
X1.6Y-5.0
X1.6Y-5.1
X1.6Y-5.2
X1.6Y-5.3
X1.6Y-5.4
X1.6Y-5.5
X1.6Y-5.6
X1.9Y-4.9
X1.9Y-5.0
X1.9Y-5.1
X1.9Y-5.2
X1.9Y-5.3
X1.9Y-5.4
X1.9Y-5.5
X1.9Y-5.6
X2.9Y-4.75
X3.0969Y-4.75
X2.2Y-5.7
X2.2Y-5.8
X2.2Y-5.9
X2.2Y-6.0
X2.2Y-6.1
X2.2Y-6.2
X2.2Y-6.3
X2.2Y-6.4
X2.2Y-6.5
X2.2Y-6.6
X2.5Y-5.7
X2.5Y-5.8
X2.5Y-5.9
X2.5Y-6.0
X2.5Y-6.1
X2.5Y-6.2
X2.5Y-6.3
X2.5Y-6.4
X2.5Y-6.5
X2.5Y-6.6
X2.8Y-4.9
X2.8Y-5.0
X2.8Y-5.1
X2.8Y-5.2
X2.8Y-5.3
X2.8Y-5.4
X2.8Y-5.5
X2.8Y-5.6
X3.1Y-4.9
X3.1Y-5.0
X3.1Y-5.1
X3.1Y-5.2
X3.1Y-5.3
X3.1Y-5.4
X3.1Y-5.5
X3.1Y-5.6
X4.075Y-3.2
X4.075Y-3.3969
X2.0622Y-1.4
X2.2Y-1.4
X8.5Y-2.3
X8.5Y-2.4
X8.5Y-2.5
X8.5Y-2.6
X8.5Y-2.7
X8.5Y-2.8
X8.5Y-2.9
X8.5Y-3.0
X8.8Y-2.3
X8.8Y-2.4
X8.8Y-2.5
X8.8Y-2.6
X8.8Y-2.7
X8.8Y-2.8
X8.8Y-2.9
X8.8Y-3.0
X8.5Y-4.8
X8.5Y-5.1
X8.6Y-4.8
X8.6Y-5.1
X8.7Y-4.8
X8.7Y-5.1
X8.8Y-4.8
X8.8Y-5.1
X8.9Y-4.8
X8.9Y-5.1
X9.0Y-4.8
X9.0Y-5.1
X9.1Y-4.8
X9.1Y-5.1
X9.2Y-4.8
X9.2Y-5.1
X2.5Y-1.6
X2.6Y-1.6
X2.7Y-1.6
X2.8Y-1.6
X2.9Y-1.6
X3.0Y-1.6
X7.9Y-2.3
X7.9Y-2.4
X7.9Y-2.5
X7.9Y-2.6
X7.9Y-2.7
X7.9Y-2.8
X7.9Y-2.9
X7.9Y-3.0
X8.2Y-2.3
X8.2Y-2.4
X8.2Y-2.5
X8.2Y-2.6
X8.2Y-2.7
X8.2Y-2.8
X8.2Y-2.9
X8.2Y-3.0
X5.9Y-1.25
X5.9Y-1.65
X3.85Y-1.1531
X3.85Y-1.35
X9.0031Y-2.125
X9.2Y-2.125
X6.75Y-6.3
X6.75Y-6.4969
X4.65Y-2.3
X4.65Y-2.4969
X3.9Y-5.5
X3.9Y-5.6
X3.9Y-5.7
X3.9Y-5.8
X3.9Y-5.9
X3.9Y-6.0
X3.9Y-6.1
X3.9Y-6.2
X3.9Y-6.3
X3.9Y-6.4
X4.2Y-5.5
X4.2Y-5.6
X4.2Y-5.7
X4.2Y-5.8
X4.2Y-5.9
X4.2Y-6.0
X4.2Y-6.1
X4.2Y-6.2
X4.2Y-6.3
X4.2Y-6.4
X1.7031Y-2.15
X1.9Y-2.15
X4.2Y-2.3
X4.2Y-2.4
X4.2Y-2.5
X4.2Y-2.6
X4.2Y-2.7
X4.2Y-2.8
X4.2Y-2.9
X4.2Y-3.0
X4.5Y-2.3
X4.5Y-2.4
X4.5Y-2.5
X4.5Y-2.6
X4.5Y-2.7
X4.5Y-2.8
X4.5Y-2.9
X4.5Y-3.0
X1.3Y-4.3
X1.3Y-4.6
X1.4Y-4.3
X1.4Y-4.6
X1.5Y-4.3
X1.5Y-4.6
X1.6Y-4.3
X1.6Y-4.6
X1.7Y-4.3
X1.7Y-4.6
X1.8Y-4.3
X1.8Y-4.6
X1.9Y-4.3
X1.9Y-4.6
X2.0Y-4.3
X2.0Y-4.6
X2.9031Y-2.15
X3.1Y-2.15
X5.4Y-3.5
X5.4Y-4.1
X5.5Y-3.5
X5.5Y-4.1
X5.6Y-3.5
X5.6Y-4.1
X5.7Y-3.5
X5.7Y-4.1
X5.8Y-3.5
X5.8Y-4.1
X5.9Y-3.5
X5.9Y-4.1
X6.0Y-3.5
X6.0Y-4.1
X6.1Y-3.5
X6.1Y-4.1
X6.2Y-3.5
X6.2Y-4.1
X6.3Y-3.5
X6.3Y-4.1
X6.4Y-3.5
X6.4Y-4.1
X6.5Y-3.5
X6.5Y-4.1
X6.6Y-3.5
X6.6Y-4.1
X6.7Y-3.5
X6.7Y-4.1
X6.6Y-2.3
X6.6Y-2.4
X6.6Y-2.5
X6.6Y-2.6
X6.6Y-2.7
X6.6Y-2.8
X6.6Y-2.9
X6.6Y-3.0
X6.6Y-3.1
X6.6Y-3.2
X6.9Y-2.3
X6.9Y-2.4
X6.9Y-2.5
X6.9Y-2.6
X6.9Y-2.7
X6.9Y-2.8
X6.9Y-2.9
X6.9Y-3.0
X6.9Y-3.1
X6.9Y-3.2
X7.575Y-1.9
X7.975Y-1.9
X5.35Y-1.25
X5.35Y-1.65
X7.1016Y-1.9
X7.2Y-1.9
T6
X4.9Y-6.1
X5.0Y-6.1
X7.65Y-5.95
X7.75Y-5.95
X7.4Y-5.65
X7.5Y-5.65
X6.9Y-5.8
X7.0Y-5.8
X1.6Y-1.7
X1.6Y-1.8
X4.4Y-5.8
X4.5Y-5.8
X4.9Y-5.8
X5.0Y-5.8
X7.9Y-5.95
X8.0Y-5.95
X7.15Y-6.1
X7.25Y-6.1
X4.9Y-5.95
X5.0Y-5.95
X5.4Y-5.8
X5.5Y-5.8
X6.25Y-5.1
X6.55Y-5.1
X7.9Y-5.8
X8.0Y-5.8
X1.8Y-1.7
X1.8Y-1.8
X5.15Y-5.95
X5.25Y-5.95
X6.15Y-5.95
X6.25Y-5.95
X7.15Y-5.65
X7.25Y-5.65
X7.4Y-6.1
X7.5Y-6.1
X6.15Y-6.45
X6.25Y-6.45
X5.4Y-5.95
X5.5Y-5.95
X5.65Y-6.25
X5.75Y-6.25
X6.9Y-6.1
X7.0Y-6.1
X6.825Y-1.7
X6.825Y-1.8
X6.15Y-6.25
X6.25Y-6.25
X5.65Y-6.1
X5.75Y-6.1
X7.9Y-5.65
X8.0Y-5.65
X6.25Y-4.8
X6.55Y-4.8
X1.4Y-1.7
X1.4Y-1.8
X5.65Y-6.45
X5.75Y-6.45
X4.65Y-5.8
X4.75Y-5.8
X5.15Y-6.1
X5.25Y-6.1
X6.65Y-6.1
X6.75Y-6.1
X7.4Y-5.8
X7.5Y-5.8
X1.2Y-1.7
X1.2Y-1.8
X4.4Y-5.95
X4.5Y-5.95
T7
X1.652Y-1.4028
X1.852Y-1.4031
X8.9Y-1.25
X8.9545Y-1.1382
X9.0091Y-1.25
X9.0636Y-1.1382
X9.1181Y-1.25
X9.1726Y-1.1382
X9.2272Y-1.25
X9.2817Y-1.1382
X9.3362Y-1.25
X7.1799Y-1.147
X7.225Y-1.0691
X7.225Y-1.225
X7.2701Y-1.147
X7.3152Y-1.0691
X7.3152Y-1.225
X7.3602Y-1.147
X7.4053Y-1.0691
X7.4053Y-1.225
X7.4504Y-1.147
X7.4955Y-1.0691
X7.4955Y-1.225
X7.5406Y-1.147
X7.5856Y-1.0691
X7.5856Y-1.225
X5.8Y-3.325
T8
X3.2031Y-1.0287
X3.2031Y-1.1272
X3.4Y-1.324
X3.5969Y-1.0287
X3.5969Y-1.1272
X1.625Y-1.1
X2.125Y-1.1
T9
X3.2031Y-1.324
X3.3213Y-1.324
X3.4Y-1.1272
X3.4787Y-1.324
X3.5969Y-1.324
T10
X8.626Y-1.2382
X9.6102Y-1.2382
X6.9028Y-1.1443
X7.887Y-1.1443
T2
G00X1.1474Y-1.011
M15
G01X1.1474Y-0.9854
M16
G05
G00X1.4526Y-1.011
M15
G01X1.4526Y-0.9854
M16
G05
T5
G00X1.1533Y-1.1587
M15
G01X1.1533Y-1.137
M16
G05
G00X1.4467Y-1.1587
M15
G01X1.4467Y-1.137
M16
G05
T0
M30
