%TF.GenerationSoftware,KiCad,Pcbnew,(5.1.6)-1*%
%TF.CreationDate,2020-07-16T21:59:03+01:00*%
%TF.ProjectId,Gigatron,47696761-7472-46f6-9e2e-6b696361645f,rev?*%
%TF.SameCoordinates,Original*%
%TF.FileFunction,Copper,L1,Top*%
%TF.FilePolarity,Positive*%
%FSLAX46Y46*%
G04 Gerber Fmt 4.6, Leading zero omitted, Abs format (unit mm)*
G04 Created by KiCad (PCBNEW (5.1.6)-1) date 2020-07-16 21:59:03*
%MOMM*%
%LPD*%
G01*
G04 APERTURE LIST*
%TA.AperFunction,ComponentPad*%
%ADD10O,1.150000X1.800000*%
%TD*%
%TA.AperFunction,ComponentPad*%
%ADD11O,1.450000X2.000000*%
%TD*%
%TA.AperFunction,SMDPad,CuDef*%
%ADD12R,0.450000X1.300000*%
%TD*%
%TA.AperFunction,ComponentPad*%
%ADD13C,4.000000*%
%TD*%
%TA.AperFunction,ComponentPad*%
%ADD14C,1.600000*%
%TD*%
%TA.AperFunction,ComponentPad*%
%ADD15R,1.600000X1.600000*%
%TD*%
%TA.AperFunction,ComponentPad*%
%ADD16O,1.600000X1.600000*%
%TD*%
%TA.AperFunction,ComponentPad*%
%ADD17C,1.500000*%
%TD*%
%TA.AperFunction,ComponentPad*%
%ADD18R,1.500000X1.500000*%
%TD*%
%TA.AperFunction,ComponentPad*%
%ADD19C,2.000000*%
%TD*%
%TA.AperFunction,ComponentPad*%
%ADD20O,1.800000X1.800000*%
%TD*%
%TA.AperFunction,ComponentPad*%
%ADD21R,1.800000X1.800000*%
%TD*%
%TA.AperFunction,ComponentPad*%
%ADD22O,2.400000X2.400000*%
%TD*%
%TA.AperFunction,ComponentPad*%
%ADD23R,2.400000X2.400000*%
%TD*%
%TA.AperFunction,ComponentPad*%
%ADD24O,1.400000X1.400000*%
%TD*%
%TA.AperFunction,ComponentPad*%
%ADD25C,1.400000*%
%TD*%
%TA.AperFunction,ComponentPad*%
%ADD26C,2.550000*%
%TD*%
%TA.AperFunction,ComponentPad*%
%ADD27C,2.400000*%
%TD*%
%TA.AperFunction,ComponentPad*%
%ADD28C,0.600000*%
%TD*%
%TA.AperFunction,ComponentPad*%
%ADD29C,1.800000*%
%TD*%
%TA.AperFunction,ViaPad*%
%ADD30C,0.600000*%
%TD*%
%TA.AperFunction,Conductor*%
%ADD31C,0.250000*%
%TD*%
%TA.AperFunction,Conductor*%
%ADD32C,0.400000*%
%TD*%
G04 APERTURE END LIST*
D10*
%TO.P,J1,6*%
%TO.N,N/C*%
X29145000Y-25355000D03*
X36895000Y-25355000D03*
D11*
X29295000Y-29155000D03*
X36745000Y-29155000D03*
D12*
%TO.P,J1,5*%
%TO.N,GND*%
X31720000Y-29205000D03*
%TO.P,J1,4*%
X32370000Y-29205000D03*
%TO.P,J1,3*%
%TO.N,N/C*%
X33020000Y-29205000D03*
%TO.P,J1,2*%
X33670000Y-29205000D03*
%TO.P,J1,1*%
%TO.N,/PCR/+5V*%
X34320000Y-29205000D03*
%TD*%
D13*
%TO.P,J3,0*%
%TO.N,GND*%
X175330000Y-29065000D03*
X200330000Y-29065000D03*
D14*
%TO.P,J3,15*%
%TO.N,N/C*%
X192675000Y-27155000D03*
%TO.P,J3,14*%
%TO.N,SER_LATCH*%
X190385000Y-27155000D03*
%TO.P,J3,13*%
%TO.N,SER_PULSE*%
X188095000Y-27155000D03*
%TO.P,J3,12*%
%TO.N,N/C*%
X185805000Y-27155000D03*
%TO.P,J3,11*%
X183515000Y-27155000D03*
%TO.P,J3,10*%
%TO.N,GND*%
X191530000Y-29135000D03*
%TO.P,J3,9*%
%TO.N,N/C*%
X189240000Y-29135000D03*
%TO.P,J3,8*%
%TO.N,GND*%
X186950000Y-29135000D03*
%TO.P,J3,7*%
X184660000Y-29135000D03*
%TO.P,J3,6*%
X182370000Y-29135000D03*
%TO.P,J3,5*%
X192675000Y-31115000D03*
%TO.P,J3,4*%
%TO.N,N/C*%
X190385000Y-31115000D03*
%TO.P,J3,3*%
%TO.N,/PER/BLUE*%
X188095000Y-31115000D03*
%TO.P,J3,2*%
%TO.N,/PER/GREEN*%
X185805000Y-31115000D03*
D15*
%TO.P,J3,1*%
%TO.N,/PER/RED*%
X183515000Y-31115000D03*
%TD*%
D13*
%TO.P,J4,0*%
%TO.N,GND*%
X219100000Y-31450000D03*
X244100000Y-31450000D03*
D14*
%TO.P,J4,9*%
%TO.N,N/C*%
X235755000Y-28910000D03*
%TO.P,J4,8*%
%TO.N,GND*%
X232985000Y-28910000D03*
%TO.P,J4,7*%
%TO.N,N/C*%
X230215000Y-28910000D03*
%TO.P,J4,6*%
%TO.N,VCC*%
X227445000Y-28910000D03*
%TO.P,J4,5*%
%TO.N,N/C*%
X237140000Y-31750000D03*
%TO.P,J4,4*%
%TO.N,SER_PULSE*%
X234370000Y-31750000D03*
%TO.P,J4,3*%
%TO.N,SER_LATCH*%
X231600000Y-31750000D03*
%TO.P,J4,2*%
%TO.N,SER_DATA*%
X228830000Y-31750000D03*
D15*
%TO.P,J4,1*%
%TO.N,N/C*%
X226060000Y-31750000D03*
%TD*%
D16*
%TO.P,R19,2*%
%TO.N,SER_DATA*%
X238760000Y-38100000D03*
D14*
%TO.P,R19,1*%
%TO.N,VCC*%
X248920000Y-38100000D03*
%TD*%
D16*
%TO.P,R10,2*%
%TO.N,GND*%
X64770000Y-27940000D03*
D14*
%TO.P,R10,1*%
%TO.N,Net-(C44-Pad1)*%
X74930000Y-27940000D03*
%TD*%
D16*
%TO.P,R7,2*%
%TO.N,VCC*%
X158750000Y-125730000D03*
D14*
%TO.P,R7,1*%
%TO.N,~PL*%
X168910000Y-125730000D03*
%TD*%
D16*
%TO.P,R6,2*%
%TO.N,Net-(D21-Pad2)*%
X163830000Y-167005000D03*
D14*
%TO.P,R6,1*%
%TO.N,VCC*%
X163830000Y-156845000D03*
%TD*%
D16*
%TO.P,R3,2*%
%TO.N,GND*%
X168910000Y-31750000D03*
D14*
%TO.P,R3,1*%
%TO.N,Net-(D2-Pad1)*%
X168910000Y-41910000D03*
%TD*%
%TO.P,C3,2*%
%TO.N,GND*%
X223480000Y-38100000D03*
%TO.P,C3,1*%
%TO.N,Net-(C3-Pad1)*%
X220980000Y-38100000D03*
%TD*%
%TO.P,C2,2*%
%TO.N,GND*%
X180380000Y-43180000D03*
%TO.P,C2,1*%
%TO.N,Net-(C2-Pad1)*%
X182880000Y-43180000D03*
%TD*%
%TO.P,C1,2*%
%TO.N,GND*%
X180380000Y-48260000D03*
%TO.P,C1,1*%
%TO.N,Net-(C1-Pad1)*%
X182880000Y-48260000D03*
%TD*%
D17*
%TO.P,Y1,2*%
%TO.N,Net-(C2-Pad1)*%
X187630000Y-43300000D03*
%TO.P,Y1,1*%
%TO.N,Net-(C1-Pad1)*%
X187630000Y-48180000D03*
%TD*%
D18*
%TO.P,U2,1*%
%TO.N,~RST*%
X182880000Y-58420000D03*
D17*
%TO.P,U2,3*%
%TO.N,GND*%
X182880000Y-53340000D03*
%TO.P,U2,2*%
%TO.N,VCC*%
X182880000Y-55880000D03*
%TD*%
D16*
%TO.P,R18,2*%
%TO.N,OUT7*%
X162560000Y-41910000D03*
D14*
%TO.P,R18,1*%
%TO.N,SER_LATCH*%
X162560000Y-31750000D03*
%TD*%
D16*
%TO.P,R17,2*%
%TO.N,OUT6*%
X158750000Y-41910000D03*
D14*
%TO.P,R17,1*%
%TO.N,SER_PULSE*%
X158750000Y-31750000D03*
%TD*%
D16*
%TO.P,R16,2*%
%TO.N,OUT5*%
X153670000Y-41910000D03*
D14*
%TO.P,R16,1*%
%TO.N,/PER/BLUE*%
X153670000Y-31750000D03*
%TD*%
D16*
%TO.P,R15,2*%
%TO.N,OUT4*%
X149860000Y-41910000D03*
D14*
%TO.P,R15,1*%
%TO.N,/PER/BLUE*%
X149860000Y-31750000D03*
%TD*%
D16*
%TO.P,R14,2*%
%TO.N,OUT3*%
X144780000Y-41910000D03*
D14*
%TO.P,R14,1*%
%TO.N,/PER/GREEN*%
X144780000Y-31750000D03*
%TD*%
D16*
%TO.P,R13,2*%
%TO.N,OUT2*%
X140970000Y-41910000D03*
D14*
%TO.P,R13,1*%
%TO.N,/PER/GREEN*%
X140970000Y-31750000D03*
%TD*%
D16*
%TO.P,R12,2*%
%TO.N,OUT1*%
X135890000Y-41910000D03*
D14*
%TO.P,R12,1*%
%TO.N,/PER/RED*%
X135890000Y-31750000D03*
%TD*%
D16*
%TO.P,R11,2*%
%TO.N,OUT0*%
X132080000Y-41910000D03*
D14*
%TO.P,R11,1*%
%TO.N,/PER/RED*%
X132080000Y-31750000D03*
%TD*%
D16*
%TO.P,R9,6*%
%TO.N,GND*%
X76200000Y-40640000D03*
%TO.P,R9,5*%
%TO.N,Net-(R9-Pad5)*%
X73660000Y-40640000D03*
%TO.P,R9,4*%
%TO.N,Net-(R9-Pad4)*%
X71120000Y-40640000D03*
%TO.P,R9,3*%
%TO.N,Net-(R9-Pad3)*%
X68580000Y-40640000D03*
%TO.P,R9,2*%
%TO.N,Net-(R9-Pad2)*%
X66040000Y-40640000D03*
D15*
%TO.P,R9,1*%
%TO.N,Net-(C43-Pad1)*%
X63500000Y-40640000D03*
%TD*%
D16*
%TO.P,R8,5*%
%TO.N,Net-(D8-Pad1)*%
X25400000Y-43180000D03*
%TO.P,R8,4*%
%TO.N,Net-(D5-Pad1)*%
X25400000Y-45720000D03*
%TO.P,R8,3*%
%TO.N,Net-(D6-Pad1)*%
X25400000Y-48260000D03*
%TO.P,R8,2*%
%TO.N,Net-(D7-Pad1)*%
X25400000Y-50800000D03*
D15*
%TO.P,R8,1*%
%TO.N,GND*%
X25400000Y-53340000D03*
%TD*%
D16*
%TO.P,R5,5*%
%TO.N,Net-(D23-Pad2)*%
X163830000Y-143510000D03*
%TO.P,R5,4*%
%TO.N,Net-(D22-Pad2)*%
X163830000Y-146050000D03*
%TO.P,R5,3*%
%TO.N,Net-(D25-Pad2)*%
X163830000Y-148590000D03*
%TO.P,R5,2*%
%TO.N,Net-(D32-Pad2)*%
X163830000Y-151130000D03*
D15*
%TO.P,R5,1*%
%TO.N,VCC*%
X163830000Y-153670000D03*
%TD*%
D16*
%TO.P,R4,5*%
%TO.N,EH*%
X208280000Y-142875000D03*
%TO.P,R4,4*%
%TO.N,EL*%
X208280000Y-145415000D03*
%TO.P,R4,3*%
%TO.N,Net-(D17-Pad2)*%
X208280000Y-147955000D03*
%TO.P,R4,2*%
%TO.N,Net-(D10-Pad2)*%
X208280000Y-150495000D03*
D15*
%TO.P,R4,1*%
%TO.N,VCC*%
X208280000Y-153035000D03*
%TD*%
D16*
%TO.P,R2,2*%
%TO.N,Net-(R1-Pad1)*%
X202565000Y-43180000D03*
D14*
%TO.P,R2,1*%
%TO.N,Net-(C2-Pad1)*%
X192405000Y-43180000D03*
%TD*%
D16*
%TO.P,R1,2*%
%TO.N,Net-(C1-Pad1)*%
X192405000Y-48260000D03*
D14*
%TO.P,R1,1*%
%TO.N,Net-(R1-Pad1)*%
X202565000Y-48260000D03*
%TD*%
D19*
%TO.P,F1,2*%
%TO.N,/PCR/+5V*%
X41960000Y-35630000D03*
%TO.P,F1,1*%
%TO.N,VCC*%
X47040000Y-35640000D03*
%TD*%
D20*
%TO.P,D36,2*%
%TO.N,Net-(D22-Pad2)*%
X156210000Y-151130000D03*
D21*
%TO.P,D36,1*%
%TO.N,/CU/~J*%
X158750000Y-151130000D03*
%TD*%
D20*
%TO.P,D35,2*%
%TO.N,Net-(D32-Pad2)*%
X156210000Y-158750000D03*
D21*
%TO.P,D35,1*%
%TO.N,/CU/~J*%
X158750000Y-158750000D03*
%TD*%
D20*
%TO.P,D34,2*%
%TO.N,Net-(D21-Pad2)*%
X156210000Y-163830000D03*
D21*
%TO.P,D34,1*%
%TO.N,/CU/~J*%
X158750000Y-163830000D03*
%TD*%
D20*
%TO.P,D33,2*%
%TO.N,Net-(D25-Pad2)*%
X143510000Y-154940000D03*
D21*
%TO.P,D33,1*%
%TO.N,Net-(D32-Pad1)*%
X146050000Y-154940000D03*
%TD*%
D20*
%TO.P,D32,2*%
%TO.N,Net-(D32-Pad2)*%
X143510000Y-158750000D03*
D21*
%TO.P,D32,1*%
%TO.N,Net-(D32-Pad1)*%
X146050000Y-158750000D03*
%TD*%
D20*
%TO.P,D31,2*%
%TO.N,Net-(D23-Pad2)*%
X137160000Y-147320000D03*
D21*
%TO.P,D31,1*%
%TO.N,Net-(D30-Pad1)*%
X139700000Y-147320000D03*
%TD*%
D20*
%TO.P,D30,2*%
%TO.N,Net-(D22-Pad2)*%
X137160000Y-151130000D03*
D21*
%TO.P,D30,1*%
%TO.N,Net-(D30-Pad1)*%
X139700000Y-151130000D03*
%TD*%
D20*
%TO.P,D29,2*%
%TO.N,Net-(D22-Pad2)*%
X130810000Y-151130000D03*
D21*
%TO.P,D29,1*%
%TO.N,Net-(D28-Pad1)*%
X133350000Y-151130000D03*
%TD*%
D20*
%TO.P,D28,2*%
%TO.N,Net-(D25-Pad2)*%
X130810000Y-154940000D03*
D21*
%TO.P,D28,1*%
%TO.N,Net-(D28-Pad1)*%
X133350000Y-154940000D03*
%TD*%
D20*
%TO.P,D27,2*%
%TO.N,Net-(D23-Pad2)*%
X124460000Y-147320000D03*
D21*
%TO.P,D27,1*%
%TO.N,Net-(D25-Pad1)*%
X127000000Y-147320000D03*
%TD*%
D20*
%TO.P,D26,2*%
%TO.N,Net-(D22-Pad2)*%
X124460000Y-151130000D03*
D21*
%TO.P,D26,1*%
%TO.N,Net-(D25-Pad1)*%
X127000000Y-151130000D03*
%TD*%
D20*
%TO.P,D25,2*%
%TO.N,Net-(D25-Pad2)*%
X124460000Y-154940000D03*
D21*
%TO.P,D25,1*%
%TO.N,Net-(D25-Pad1)*%
X127000000Y-154940000D03*
%TD*%
D20*
%TO.P,D24,2*%
%TO.N,Net-(D23-Pad2)*%
X118110000Y-147320000D03*
D21*
%TO.P,D24,1*%
%TO.N,Net-(D24-Pad1)*%
X120650000Y-147320000D03*
%TD*%
D20*
%TO.P,D23,2*%
%TO.N,Net-(D23-Pad2)*%
X111760000Y-147320000D03*
D21*
%TO.P,D23,1*%
%TO.N,Net-(D22-Pad1)*%
X114300000Y-147320000D03*
%TD*%
D20*
%TO.P,D22,2*%
%TO.N,Net-(D22-Pad2)*%
X111760000Y-151130000D03*
D21*
%TO.P,D22,1*%
%TO.N,Net-(D22-Pad1)*%
X114300000Y-151130000D03*
%TD*%
D20*
%TO.P,D21,2*%
%TO.N,Net-(D21-Pad2)*%
X143510000Y-163830000D03*
D21*
%TO.P,D21,1*%
%TO.N,IR7*%
X146050000Y-163830000D03*
%TD*%
D20*
%TO.P,D20,2*%
%TO.N,EH*%
X200660000Y-143510000D03*
D21*
%TO.P,D20,1*%
%TO.N,/CU/INV_A_IN*%
X203200000Y-143510000D03*
%TD*%
D20*
%TO.P,D19,2*%
%TO.N,EL*%
X200660000Y-147320000D03*
D21*
%TO.P,D19,1*%
%TO.N,/CU/INV_A_IN*%
X203200000Y-147320000D03*
%TD*%
D20*
%TO.P,D18,2*%
%TO.N,Net-(D17-Pad2)*%
X200660000Y-151130000D03*
D21*
%TO.P,D18,1*%
%TO.N,/CU/INV_A_IN*%
X203200000Y-151130000D03*
%TD*%
D20*
%TO.P,D17,2*%
%TO.N,Net-(D17-Pad2)*%
X194310000Y-151130000D03*
D21*
%TO.P,D17,1*%
%TO.N,Net-(D17-Pad1)*%
X196850000Y-151130000D03*
%TD*%
D20*
%TO.P,D16,2*%
%TO.N,EH*%
X187960000Y-143510000D03*
D21*
%TO.P,D16,1*%
%TO.N,Net-(D14-Pad1)*%
X190500000Y-143510000D03*
%TD*%
D20*
%TO.P,D15,2*%
%TO.N,EL*%
X187960000Y-147320000D03*
D21*
%TO.P,D15,1*%
%TO.N,Net-(D14-Pad1)*%
X190500000Y-147320000D03*
%TD*%
D20*
%TO.P,D14,2*%
%TO.N,Net-(D10-Pad2)*%
X187960000Y-154940000D03*
D21*
%TO.P,D14,1*%
%TO.N,Net-(D14-Pad1)*%
X190500000Y-154940000D03*
%TD*%
D20*
%TO.P,D13,2*%
%TO.N,EH*%
X181610000Y-143510000D03*
D21*
%TO.P,D13,1*%
%TO.N,Net-(D12-Pad1)*%
X184150000Y-143510000D03*
%TD*%
D20*
%TO.P,D12,2*%
%TO.N,Net-(D10-Pad2)*%
X181610000Y-154940000D03*
D21*
%TO.P,D12,1*%
%TO.N,Net-(D12-Pad1)*%
X184150000Y-154940000D03*
%TD*%
D20*
%TO.P,D11,2*%
%TO.N,EL*%
X175260000Y-147320000D03*
D21*
%TO.P,D11,1*%
%TO.N,Net-(D10-Pad1)*%
X177800000Y-147320000D03*
%TD*%
D20*
%TO.P,D10,2*%
%TO.N,Net-(D10-Pad2)*%
X175260000Y-154940000D03*
D21*
%TO.P,D10,1*%
%TO.N,Net-(D10-Pad1)*%
X177800000Y-154940000D03*
%TD*%
D20*
%TO.P,D9,2*%
%TO.N,Net-(D10-Pad2)*%
X168910000Y-154940000D03*
D21*
%TO.P,D9,1*%
%TO.N,Net-(D9-Pad1)*%
X171450000Y-154940000D03*
%TD*%
D20*
%TO.P,D4,2*%
%TO.N,~PL*%
X166370000Y-121920000D03*
D21*
%TO.P,D4,1*%
%TO.N,~PH*%
X158750000Y-121920000D03*
%TD*%
D20*
%TO.P,D3,2*%
%TO.N,~PL*%
X166370000Y-129540000D03*
D21*
%TO.P,D3,1*%
%TO.N,/CU/INV_C_OUT*%
X158750000Y-129540000D03*
%TD*%
D22*
%TO.P,D1,2*%
%TO.N,GND*%
X41275000Y-27940000D03*
D23*
%TO.P,D1,1*%
%TO.N,VCC*%
X53975000Y-27940000D03*
%TD*%
D14*
%TO.P,C44,2*%
%TO.N,Net-(C43-Pad1)*%
X63580000Y-34290000D03*
%TO.P,C44,1*%
%TO.N,Net-(C44-Pad1)*%
X68580000Y-34290000D03*
%TD*%
%TO.P,C43,2*%
%TO.N,GND*%
X76120000Y-34290000D03*
%TO.P,C43,1*%
%TO.N,Net-(C43-Pad1)*%
X71120000Y-34290000D03*
%TD*%
%TO.P,C42,2*%
%TO.N,GND*%
X97790000Y-29290000D03*
%TO.P,C42,1*%
%TO.N,VCC*%
X97790000Y-34290000D03*
%TD*%
%TO.P,C41,2*%
%TO.N,GND*%
X177800000Y-50880000D03*
%TO.P,C41,1*%
%TO.N,VCC*%
X177800000Y-55880000D03*
%TD*%
%TO.P,C40,2*%
%TO.N,GND*%
X148590000Y-63420000D03*
%TO.P,C40,1*%
%TO.N,VCC*%
X148590000Y-58420000D03*
%TD*%
%TO.P,C39,2*%
%TO.N,GND*%
X142160000Y-84455000D03*
%TO.P,C39,1*%
%TO.N,VCC*%
X137160000Y-84455000D03*
%TD*%
%TO.P,C38,2*%
%TO.N,GND*%
X133350000Y-63420000D03*
%TO.P,C38,1*%
%TO.N,VCC*%
X133350000Y-58420000D03*
%TD*%
%TO.P,C37,2*%
%TO.N,GND*%
X118110000Y-63420000D03*
%TO.P,C37,1*%
%TO.N,VCC*%
X118110000Y-58420000D03*
%TD*%
%TO.P,C36,2*%
%TO.N,GND*%
X118110000Y-86280000D03*
%TO.P,C36,1*%
%TO.N,VCC*%
X118110000Y-81280000D03*
%TD*%
%TO.P,C35,2*%
%TO.N,GND*%
X103505000Y-86280000D03*
%TO.P,C35,1*%
%TO.N,VCC*%
X103505000Y-81280000D03*
%TD*%
%TO.P,C34,2*%
%TO.N,GND*%
X103505000Y-63420000D03*
%TO.P,C34,1*%
%TO.N,VCC*%
X103505000Y-58420000D03*
%TD*%
%TO.P,C33,2*%
%TO.N,GND*%
X73740000Y-54610000D03*
%TO.P,C33,1*%
%TO.N,VCC*%
X78740000Y-54610000D03*
%TD*%
%TO.P,C32,2*%
%TO.N,GND*%
X58500000Y-54610000D03*
%TO.P,C32,1*%
%TO.N,VCC*%
X63500000Y-54610000D03*
%TD*%
%TO.P,C31,2*%
%TO.N,GND*%
X43260000Y-54610000D03*
%TO.P,C31,1*%
%TO.N,VCC*%
X48260000Y-54610000D03*
%TD*%
%TO.P,C30,2*%
%TO.N,GND*%
X73740000Y-80010000D03*
%TO.P,C30,1*%
%TO.N,VCC*%
X78740000Y-80010000D03*
%TD*%
%TO.P,C29,2*%
%TO.N,GND*%
X43260000Y-80010000D03*
%TO.P,C29,1*%
%TO.N,VCC*%
X48260000Y-80010000D03*
%TD*%
%TO.P,C28,2*%
%TO.N,GND*%
X48180000Y-106680000D03*
%TO.P,C28,1*%
%TO.N,VCC*%
X43180000Y-106680000D03*
%TD*%
%TO.P,C27,2*%
%TO.N,GND*%
X63500000Y-92790000D03*
%TO.P,C27,1*%
%TO.N,VCC*%
X63500000Y-97790000D03*
%TD*%
%TO.P,C26,2*%
%TO.N,GND*%
X78660000Y-106680000D03*
%TO.P,C26,1*%
%TO.N,VCC*%
X73660000Y-106680000D03*
%TD*%
%TO.P,C25,2*%
%TO.N,GND*%
X78660000Y-120650000D03*
%TO.P,C25,1*%
%TO.N,VCC*%
X73660000Y-120650000D03*
%TD*%
%TO.P,C24,2*%
%TO.N,GND*%
X43260000Y-120650000D03*
%TO.P,C24,1*%
%TO.N,VCC*%
X48260000Y-120650000D03*
%TD*%
%TO.P,C23,2*%
%TO.N,GND*%
X43260000Y-146050000D03*
%TO.P,C23,1*%
%TO.N,VCC*%
X48260000Y-146050000D03*
%TD*%
%TO.P,C22,2*%
%TO.N,GND*%
X63500000Y-135970000D03*
%TO.P,C22,1*%
%TO.N,VCC*%
X63500000Y-140970000D03*
%TD*%
%TO.P,C21,2*%
%TO.N,GND*%
X73740000Y-146050000D03*
%TO.P,C21,1*%
%TO.N,VCC*%
X78740000Y-146050000D03*
%TD*%
%TO.P,C20,2*%
%TO.N,GND*%
X103585000Y-133350000D03*
%TO.P,C20,1*%
%TO.N,VCC*%
X108585000Y-133350000D03*
%TD*%
%TO.P,C19,2*%
%TO.N,GND*%
X113030000Y-165020000D03*
%TO.P,C19,1*%
%TO.N,VCC*%
X113030000Y-160020000D03*
%TD*%
%TO.P,C18,2*%
%TO.N,GND*%
X130810000Y-126920000D03*
%TO.P,C18,1*%
%TO.N,VCC*%
X130810000Y-121920000D03*
%TD*%
%TO.P,C17,2*%
%TO.N,GND*%
X171450000Y-165020000D03*
%TO.P,C17,1*%
%TO.N,VCC*%
X171450000Y-160020000D03*
%TD*%
%TO.P,C16,2*%
%TO.N,GND*%
X212090000Y-134700000D03*
%TO.P,C16,1*%
%TO.N,VCC*%
X212090000Y-139700000D03*
%TD*%
%TO.P,C15,2*%
%TO.N,GND*%
X180340000Y-121840000D03*
%TO.P,C15,1*%
%TO.N,VCC*%
X180340000Y-116840000D03*
%TD*%
%TO.P,C14,2*%
%TO.N,GND*%
X212090000Y-116920000D03*
%TO.P,C14,1*%
%TO.N,VCC*%
X212090000Y-121920000D03*
%TD*%
%TO.P,C13,2*%
%TO.N,GND*%
X228520000Y-102870000D03*
%TO.P,C13,1*%
%TO.N,VCC*%
X223520000Y-102870000D03*
%TD*%
%TO.P,C12,2*%
%TO.N,GND*%
X198040000Y-102870000D03*
%TO.P,C12,1*%
%TO.N,VCC*%
X193040000Y-102870000D03*
%TD*%
%TO.P,C11,2*%
%TO.N,GND*%
X181610000Y-73740000D03*
%TO.P,C11,1*%
%TO.N,VCC*%
X181610000Y-78740000D03*
%TD*%
%TO.P,C10,2*%
%TO.N,GND*%
X190580000Y-53975000D03*
%TO.P,C10,1*%
%TO.N,VCC*%
X195580000Y-53975000D03*
%TD*%
%TO.P,C9,2*%
%TO.N,GND*%
X203280000Y-53975000D03*
%TO.P,C9,1*%
%TO.N,VCC*%
X208280000Y-53975000D03*
%TD*%
%TO.P,C8,2*%
%TO.N,GND*%
X215980000Y-53975000D03*
%TO.P,C8,1*%
%TO.N,VCC*%
X220980000Y-53975000D03*
%TD*%
%TO.P,C7,2*%
%TO.N,GND*%
X228680000Y-53975000D03*
%TO.P,C7,1*%
%TO.N,VCC*%
X233680000Y-53975000D03*
%TD*%
%TO.P,C6,2*%
%TO.N,GND*%
X236140000Y-38100000D03*
%TO.P,C6,1*%
%TO.N,VCC*%
X231140000Y-38100000D03*
%TD*%
%TO.P,C5,2*%
%TO.N,GND*%
X209470000Y-38735000D03*
%TO.P,C5,1*%
%TO.N,VCC*%
X204470000Y-38735000D03*
%TD*%
%TO.P,C4,2*%
%TO.N,GND*%
X52380000Y-35560000D03*
D15*
%TO.P,C4,1*%
%TO.N,VCC*%
X55880000Y-35560000D03*
%TD*%
D24*
%TO.P,R101,2*%
%TO.N,L*%
X59565000Y-44450000D03*
D25*
%TO.P,R101,1*%
%TO.N,GND*%
X57665000Y-44450000D03*
%TD*%
D24*
%TO.P,R100,2*%
%TO.N,VCC*%
X54605000Y-44450000D03*
D25*
%TO.P,R100,1*%
%TO.N,H*%
X52705000Y-44450000D03*
%TD*%
D15*
%TO.P,U16,1*%
%TO.N,CLK1*%
X134620000Y-129540000D03*
D16*
%TO.P,U16,8*%
%TO.N,~LD*%
X149860000Y-121920000D03*
%TO.P,U16,2*%
%TO.N,/CU/INV_B_IN*%
X137160000Y-129540000D03*
%TO.P,U16,9*%
%TO.N,Net-(D10-Pad2)*%
X147320000Y-121920000D03*
%TO.P,U16,3*%
%TO.N,~WE*%
X139700000Y-129540000D03*
%TO.P,U16,10*%
%TO.N,/CU/INV_B_OUT*%
X144780000Y-121920000D03*
%TO.P,U16,4*%
%TO.N,Net-(D17-Pad2)*%
X142240000Y-129540000D03*
%TO.P,U16,11*%
%TO.N,~PH*%
X142240000Y-121920000D03*
%TO.P,U16,5*%
%TO.N,/CU/INV_B_OUT*%
X144780000Y-129540000D03*
%TO.P,U16,12*%
%TO.N,/CU/~BF*%
X139700000Y-121920000D03*
%TO.P,U16,6*%
%TO.N,~OL*%
X147320000Y-129540000D03*
%TO.P,U16,13*%
%TO.N,/CU/~J*%
X137160000Y-121920000D03*
%TO.P,U16,7*%
%TO.N,VCC*%
X149860000Y-129540000D03*
%TO.P,U16,14*%
%TO.N,GND*%
X134620000Y-121920000D03*
%TD*%
D15*
%TO.P,U11,1*%
%TO.N,L*%
X215900000Y-129540000D03*
D16*
%TO.P,U11,9*%
%TO.N,N/C*%
X233680000Y-121920000D03*
%TO.P,U11,2*%
%TO.N,IR0*%
X218440000Y-129540000D03*
%TO.P,U11,10*%
%TO.N,N/C*%
X231140000Y-121920000D03*
%TO.P,U11,3*%
%TO.N,IR1*%
X220980000Y-129540000D03*
%TO.P,U11,11*%
%TO.N,N/C*%
X228600000Y-121920000D03*
%TO.P,U11,4*%
%TO.N,~DE*%
X223520000Y-129540000D03*
%TO.P,U11,12*%
%TO.N,/CU/~BF*%
X226060000Y-121920000D03*
%TO.P,U11,5*%
%TO.N,~OE*%
X226060000Y-129540000D03*
%TO.P,U11,13*%
%TO.N,IR2*%
X223520000Y-121920000D03*
%TO.P,U11,6*%
%TO.N,~AE*%
X228600000Y-129540000D03*
%TO.P,U11,14*%
%TO.N,IR3*%
X220980000Y-121920000D03*
%TO.P,U11,7*%
%TO.N,~IE*%
X231140000Y-129540000D03*
%TO.P,U11,15*%
%TO.N,IR4*%
X218440000Y-121920000D03*
%TO.P,U11,8*%
%TO.N,VCC*%
X233680000Y-129540000D03*
%TO.P,U11,16*%
%TO.N,GND*%
X215900000Y-121920000D03*
%TD*%
%TO.P,U7,40*%
%TO.N,VCC*%
X187960000Y-83820000D03*
%TO.P,U7,20*%
%TO.N,L*%
X236220000Y-99060000D03*
%TO.P,U7,39*%
%TO.N,H*%
X190500000Y-83820000D03*
%TO.P,U7,19*%
%TO.N,Net-(U7-Pad19)*%
X233680000Y-99060000D03*
%TO.P,U7,38*%
%TO.N,N/C*%
X193040000Y-83820000D03*
%TO.P,U7,18*%
%TO.N,Net-(U7-Pad18)*%
X231140000Y-99060000D03*
%TO.P,U7,37*%
%TO.N,/PRG/PC15*%
X195580000Y-83820000D03*
%TO.P,U7,17*%
%TO.N,Net-(U7-Pad17)*%
X228600000Y-99060000D03*
%TO.P,U7,36*%
%TO.N,/PRG/PC14*%
X198120000Y-83820000D03*
%TO.P,U7,16*%
%TO.N,Net-(U7-Pad16)*%
X226060000Y-99060000D03*
%TO.P,U7,35*%
%TO.N,/PRG/PC13*%
X200660000Y-83820000D03*
%TO.P,U7,15*%
%TO.N,Net-(U7-Pad15)*%
X223520000Y-99060000D03*
%TO.P,U7,34*%
%TO.N,/PRG/PC12*%
X203200000Y-83820000D03*
%TO.P,U7,14*%
%TO.N,Net-(U7-Pad14)*%
X220980000Y-99060000D03*
%TO.P,U7,33*%
%TO.N,/PRG/PC11*%
X205740000Y-83820000D03*
%TO.P,U7,13*%
%TO.N,Net-(U7-Pad13)*%
X218440000Y-99060000D03*
%TO.P,U7,32*%
%TO.N,/PRG/PC10*%
X208280000Y-83820000D03*
%TO.P,U7,12*%
%TO.N,Net-(U7-Pad12)*%
X215900000Y-99060000D03*
%TO.P,U7,31*%
%TO.N,/PRG/PC9*%
X210820000Y-83820000D03*
%TO.P,U7,11*%
%TO.N,GND*%
X213360000Y-99060000D03*
%TO.P,U7,30*%
X213360000Y-83820000D03*
%TO.P,U7,10*%
%TO.N,Net-(U7-Pad10)*%
X210820000Y-99060000D03*
%TO.P,U7,29*%
%TO.N,/PRG/PC8*%
X215900000Y-83820000D03*
%TO.P,U7,9*%
%TO.N,Net-(U7-Pad9)*%
X208280000Y-99060000D03*
%TO.P,U7,28*%
%TO.N,/PRG/PC7*%
X218440000Y-83820000D03*
%TO.P,U7,8*%
%TO.N,Net-(U7-Pad8)*%
X205740000Y-99060000D03*
%TO.P,U7,27*%
%TO.N,/PRG/PC6*%
X220980000Y-83820000D03*
%TO.P,U7,7*%
%TO.N,Net-(U7-Pad7)*%
X203200000Y-99060000D03*
%TO.P,U7,26*%
%TO.N,/PRG/PC5*%
X223520000Y-83820000D03*
%TO.P,U7,6*%
%TO.N,Net-(U7-Pad6)*%
X200660000Y-99060000D03*
%TO.P,U7,25*%
%TO.N,/PRG/PC4*%
X226060000Y-83820000D03*
%TO.P,U7,5*%
%TO.N,Net-(U7-Pad5)*%
X198120000Y-99060000D03*
%TO.P,U7,24*%
%TO.N,/PRG/PC3*%
X228600000Y-83820000D03*
%TO.P,U7,4*%
%TO.N,Net-(U7-Pad4)*%
X195580000Y-99060000D03*
%TO.P,U7,23*%
%TO.N,/PRG/PC2*%
X231140000Y-83820000D03*
%TO.P,U7,3*%
%TO.N,Net-(U7-Pad3)*%
X193040000Y-99060000D03*
%TO.P,U7,22*%
%TO.N,/PRG/PC1*%
X233680000Y-83820000D03*
%TO.P,U7,2*%
%TO.N,L*%
X190500000Y-99060000D03*
%TO.P,U7,21*%
%TO.N,/PRG/PC0*%
X236220000Y-83820000D03*
D15*
%TO.P,U7,1*%
%TO.N,GND*%
X187960000Y-99060000D03*
%TD*%
D16*
%TO.P,U39,16*%
%TO.N,VCC*%
X231140000Y-41910000D03*
%TO.P,U39,8*%
%TO.N,GND*%
X248920000Y-49530000D03*
%TO.P,U39,15*%
%TO.N,BUS0*%
X233680000Y-41910000D03*
%TO.P,U39,7*%
%TO.N,BUS7*%
X246380000Y-49530000D03*
%TO.P,U39,14*%
%TO.N,SER_DATA*%
X236220000Y-41910000D03*
%TO.P,U39,6*%
%TO.N,BUS6*%
X243840000Y-49530000D03*
%TO.P,U39,13*%
%TO.N,~IE*%
X238760000Y-41910000D03*
%TO.P,U39,5*%
%TO.N,BUS5*%
X241300000Y-49530000D03*
%TO.P,U39,12*%
%TO.N,OUT6*%
X241300000Y-41910000D03*
%TO.P,U39,4*%
%TO.N,BUS4*%
X238760000Y-49530000D03*
%TO.P,U39,11*%
%TO.N,OUT6*%
X243840000Y-41910000D03*
%TO.P,U39,3*%
%TO.N,BUS3*%
X236220000Y-49530000D03*
%TO.P,U39,10*%
%TO.N,H*%
X246380000Y-41910000D03*
%TO.P,U39,2*%
%TO.N,BUS2*%
X233680000Y-49530000D03*
%TO.P,U39,9*%
%TO.N,N/C*%
X248920000Y-41910000D03*
D15*
%TO.P,U39,1*%
%TO.N,BUS1*%
X231140000Y-49530000D03*
%TD*%
D16*
%TO.P,U38,20*%
%TO.N,VCC*%
X63500000Y-58420000D03*
%TO.P,U38,10*%
%TO.N,GND*%
X55880000Y-81280000D03*
%TO.P,U38,19*%
%TO.N,Net-(R9-Pad2)*%
X63500000Y-60960000D03*
%TO.P,U38,9*%
%TO.N,Net-(D5-Pad2)*%
X55880000Y-78740000D03*
%TO.P,U38,18*%
%TO.N,AC7*%
X63500000Y-63500000D03*
%TO.P,U38,8*%
%TO.N,AC0*%
X55880000Y-76200000D03*
%TO.P,U38,17*%
%TO.N,AC6*%
X63500000Y-66040000D03*
%TO.P,U38,7*%
%TO.N,AC1*%
X55880000Y-73660000D03*
%TO.P,U38,16*%
%TO.N,Net-(R9-Pad3)*%
X63500000Y-68580000D03*
%TO.P,U38,6*%
%TO.N,Net-(D6-Pad2)*%
X55880000Y-71120000D03*
%TO.P,U38,15*%
%TO.N,Net-(R9-Pad4)*%
X63500000Y-71120000D03*
%TO.P,U38,5*%
%TO.N,Net-(D7-Pad2)*%
X55880000Y-68580000D03*
%TO.P,U38,14*%
%TO.N,AC5*%
X63500000Y-73660000D03*
%TO.P,U38,4*%
%TO.N,AC2*%
X55880000Y-66040000D03*
%TO.P,U38,13*%
%TO.N,AC4*%
X63500000Y-76200000D03*
%TO.P,U38,3*%
%TO.N,AC3*%
X55880000Y-63500000D03*
%TO.P,U38,12*%
%TO.N,Net-(R9-Pad5)*%
X63500000Y-78740000D03*
%TO.P,U38,2*%
%TO.N,Net-(D8-Pad2)*%
X55880000Y-60960000D03*
%TO.P,U38,11*%
%TO.N,OUT6*%
X63500000Y-81280000D03*
D15*
%TO.P,U38,1*%
%TO.N,H*%
X55880000Y-58420000D03*
%TD*%
D16*
%TO.P,U37,20*%
%TO.N,VCC*%
X101600000Y-33020000D03*
%TO.P,U37,10*%
%TO.N,GND*%
X124460000Y-40640000D03*
%TO.P,U37,19*%
%TO.N,OUT7*%
X104140000Y-33020000D03*
%TO.P,U37,9*%
%TO.N,OUT0*%
X121920000Y-40640000D03*
%TO.P,U37,18*%
%TO.N,ALU7*%
X106680000Y-33020000D03*
%TO.P,U37,8*%
%TO.N,ALU0*%
X119380000Y-40640000D03*
%TO.P,U37,17*%
%TO.N,ALU6*%
X109220000Y-33020000D03*
%TO.P,U37,7*%
%TO.N,ALU1*%
X116840000Y-40640000D03*
%TO.P,U37,16*%
%TO.N,OUT6*%
X111760000Y-33020000D03*
%TO.P,U37,6*%
%TO.N,OUT1*%
X114300000Y-40640000D03*
%TO.P,U37,15*%
%TO.N,OUT5*%
X114300000Y-33020000D03*
%TO.P,U37,5*%
%TO.N,OUT2*%
X111760000Y-40640000D03*
%TO.P,U37,14*%
%TO.N,ALU5*%
X116840000Y-33020000D03*
%TO.P,U37,4*%
%TO.N,ALU2*%
X109220000Y-40640000D03*
%TO.P,U37,13*%
%TO.N,ALU4*%
X119380000Y-33020000D03*
%TO.P,U37,3*%
%TO.N,ALU3*%
X106680000Y-40640000D03*
%TO.P,U37,12*%
%TO.N,OUT4*%
X121920000Y-33020000D03*
%TO.P,U37,2*%
%TO.N,OUT3*%
X104140000Y-40640000D03*
%TO.P,U37,11*%
%TO.N,CLK2*%
X124460000Y-33020000D03*
D15*
%TO.P,U37,1*%
%TO.N,~OL*%
X101600000Y-40640000D03*
%TD*%
D16*
%TO.P,U36,28*%
%TO.N,VCC*%
X137160000Y-88900000D03*
%TO.P,U36,14*%
%TO.N,GND*%
X170180000Y-104140000D03*
%TO.P,U36,27*%
%TO.N,~WE*%
X139700000Y-88900000D03*
%TO.P,U36,13*%
%TO.N,BUS2*%
X167640000Y-104140000D03*
%TO.P,U36,26*%
%TO.N,/RAM/A13*%
X142240000Y-88900000D03*
%TO.P,U36,12*%
%TO.N,BUS1*%
X165100000Y-104140000D03*
%TO.P,U36,25*%
%TO.N,/RAM/A8*%
X144780000Y-88900000D03*
%TO.P,U36,11*%
%TO.N,BUS0*%
X162560000Y-104140000D03*
%TO.P,U36,24*%
%TO.N,/RAM/A9*%
X147320000Y-88900000D03*
%TO.P,U36,10*%
%TO.N,/RAM/A0*%
X160020000Y-104140000D03*
%TO.P,U36,23*%
%TO.N,/RAM/A11*%
X149860000Y-88900000D03*
%TO.P,U36,9*%
%TO.N,/RAM/A1*%
X157480000Y-104140000D03*
%TO.P,U36,22*%
%TO.N,~OE*%
X152400000Y-88900000D03*
%TO.P,U36,8*%
%TO.N,/RAM/A2*%
X154940000Y-104140000D03*
%TO.P,U36,21*%
%TO.N,/RAM/A10*%
X154940000Y-88900000D03*
%TO.P,U36,7*%
%TO.N,/RAM/A3*%
X152400000Y-104140000D03*
%TO.P,U36,20*%
%TO.N,L*%
X157480000Y-88900000D03*
%TO.P,U36,6*%
%TO.N,/RAM/A4*%
X149860000Y-104140000D03*
%TO.P,U36,19*%
%TO.N,BUS7*%
X160020000Y-88900000D03*
%TO.P,U36,5*%
%TO.N,/RAM/A5*%
X147320000Y-104140000D03*
%TO.P,U36,18*%
%TO.N,BUS6*%
X162560000Y-88900000D03*
%TO.P,U36,4*%
%TO.N,/RAM/A6*%
X144780000Y-104140000D03*
%TO.P,U36,17*%
%TO.N,BUS5*%
X165100000Y-88900000D03*
%TO.P,U36,3*%
%TO.N,/RAM/A7*%
X142240000Y-104140000D03*
%TO.P,U36,16*%
%TO.N,BUS4*%
X167640000Y-88900000D03*
%TO.P,U36,2*%
%TO.N,/RAM/A12*%
X139700000Y-104140000D03*
%TO.P,U36,15*%
%TO.N,BUS3*%
X170180000Y-88900000D03*
D15*
%TO.P,U36,1*%
%TO.N,/RAM/A14*%
X137160000Y-104140000D03*
%TD*%
D16*
%TO.P,U35,16*%
%TO.N,VCC*%
X114300000Y-81280000D03*
%TO.P,U35,8*%
%TO.N,GND*%
X106680000Y-99060000D03*
%TO.P,U35,15*%
%TO.N,L*%
X114300000Y-83820000D03*
%TO.P,U35,7*%
%TO.N,/RAM/A5*%
X106680000Y-96520000D03*
%TO.P,U35,14*%
%TO.N,X7*%
X114300000Y-86360000D03*
%TO.P,U35,6*%
%TO.N,D5*%
X106680000Y-93980000D03*
%TO.P,U35,13*%
%TO.N,D7*%
X114300000Y-88900000D03*
%TO.P,U35,5*%
%TO.N,X5*%
X106680000Y-91440000D03*
%TO.P,U35,12*%
%TO.N,/RAM/A7*%
X114300000Y-91440000D03*
%TO.P,U35,4*%
%TO.N,/RAM/A4*%
X106680000Y-88900000D03*
%TO.P,U35,11*%
%TO.N,X6*%
X114300000Y-93980000D03*
%TO.P,U35,3*%
%TO.N,D4*%
X106680000Y-86360000D03*
%TO.P,U35,10*%
%TO.N,D6*%
X114300000Y-96520000D03*
%TO.P,U35,2*%
%TO.N,X4*%
X106680000Y-83820000D03*
%TO.P,U35,9*%
%TO.N,/RAM/A6*%
X114300000Y-99060000D03*
D15*
%TO.P,U35,1*%
%TO.N,EL*%
X106680000Y-81280000D03*
%TD*%
D16*
%TO.P,U34,16*%
%TO.N,VCC*%
X129540000Y-81280000D03*
%TO.P,U34,8*%
%TO.N,GND*%
X121920000Y-99060000D03*
%TO.P,U34,15*%
%TO.N,L*%
X129540000Y-83820000D03*
%TO.P,U34,7*%
%TO.N,/RAM/A2*%
X121920000Y-96520000D03*
%TO.P,U34,14*%
%TO.N,X0*%
X129540000Y-86360000D03*
%TO.P,U34,6*%
%TO.N,D2*%
X121920000Y-93980000D03*
%TO.P,U34,13*%
%TO.N,D0*%
X129540000Y-88900000D03*
%TO.P,U34,5*%
%TO.N,X2*%
X121920000Y-91440000D03*
%TO.P,U34,12*%
%TO.N,/RAM/A0*%
X129540000Y-91440000D03*
%TO.P,U34,4*%
%TO.N,/RAM/A1*%
X121920000Y-88900000D03*
%TO.P,U34,11*%
%TO.N,X3*%
X129540000Y-93980000D03*
%TO.P,U34,3*%
%TO.N,D1*%
X121920000Y-86360000D03*
%TO.P,U34,10*%
%TO.N,D3*%
X129540000Y-96520000D03*
%TO.P,U34,2*%
%TO.N,X1*%
X121920000Y-83820000D03*
%TO.P,U34,9*%
%TO.N,/RAM/A3*%
X129540000Y-99060000D03*
D15*
%TO.P,U34,1*%
%TO.N,EL*%
X121920000Y-81280000D03*
%TD*%
D16*
%TO.P,U33,16*%
%TO.N,VCC*%
X144780000Y-58420000D03*
%TO.P,U33,8*%
%TO.N,GND*%
X137160000Y-76200000D03*
%TO.P,U33,15*%
%TO.N,EH*%
X144780000Y-60960000D03*
%TO.P,U33,7*%
%TO.N,/RAM/A14*%
X137160000Y-73660000D03*
%TO.P,U33,14*%
%TO.N,Y1*%
X144780000Y-63500000D03*
%TO.P,U33,6*%
%TO.N,H*%
X137160000Y-71120000D03*
%TO.P,U33,13*%
X144780000Y-66040000D03*
%TO.P,U33,5*%
%TO.N,Y6*%
X137160000Y-68580000D03*
%TO.P,U33,12*%
%TO.N,/RAM/A9*%
X144780000Y-68580000D03*
%TO.P,U33,4*%
%TO.N,/RAM/A13*%
X137160000Y-66040000D03*
%TO.P,U33,11*%
%TO.N,Y3*%
X144780000Y-71120000D03*
%TO.P,U33,3*%
%TO.N,H*%
X137160000Y-63500000D03*
%TO.P,U33,10*%
X144780000Y-73660000D03*
%TO.P,U33,2*%
%TO.N,Y5*%
X137160000Y-60960000D03*
%TO.P,U33,9*%
%TO.N,/RAM/A11*%
X144780000Y-76200000D03*
D15*
%TO.P,U33,1*%
%TO.N,L*%
X137160000Y-58420000D03*
%TD*%
D16*
%TO.P,U32,16*%
%TO.N,VCC*%
X160020000Y-58420000D03*
%TO.P,U32,8*%
%TO.N,GND*%
X152400000Y-76200000D03*
%TO.P,U32,15*%
%TO.N,EH*%
X160020000Y-60960000D03*
%TO.P,U32,7*%
%TO.N,Net-(A15-Pad1)*%
X152400000Y-73660000D03*
%TO.P,U32,14*%
%TO.N,Y4*%
X160020000Y-63500000D03*
%TO.P,U32,6*%
%TO.N,H*%
X152400000Y-71120000D03*
%TO.P,U32,13*%
X160020000Y-66040000D03*
%TO.P,U32,5*%
%TO.N,Y7*%
X152400000Y-68580000D03*
%TO.P,U32,12*%
%TO.N,/RAM/A12*%
X160020000Y-68580000D03*
%TO.P,U32,4*%
%TO.N,/RAM/A8*%
X152400000Y-66040000D03*
%TO.P,U32,11*%
%TO.N,Y2*%
X160020000Y-71120000D03*
%TO.P,U32,3*%
%TO.N,H*%
X152400000Y-63500000D03*
%TO.P,U32,10*%
X160020000Y-73660000D03*
%TO.P,U32,2*%
%TO.N,Y0*%
X152400000Y-60960000D03*
%TO.P,U32,9*%
%TO.N,/RAM/A10*%
X160020000Y-76200000D03*
D15*
%TO.P,U32,1*%
%TO.N,L*%
X152400000Y-58420000D03*
%TD*%
D16*
%TO.P,U31,20*%
%TO.N,VCC*%
X175260000Y-58420000D03*
%TO.P,U31,10*%
%TO.N,GND*%
X167640000Y-81280000D03*
%TO.P,U31,19*%
%TO.N,Y4*%
X175260000Y-60960000D03*
%TO.P,U31,9*%
%TO.N,Y3*%
X167640000Y-78740000D03*
%TO.P,U31,18*%
%TO.N,ALU4*%
X175260000Y-63500000D03*
%TO.P,U31,8*%
%TO.N,ALU3*%
X167640000Y-76200000D03*
%TO.P,U31,17*%
%TO.N,ALU5*%
X175260000Y-66040000D03*
%TO.P,U31,7*%
%TO.N,ALU2*%
X167640000Y-73660000D03*
%TO.P,U31,16*%
%TO.N,Y5*%
X175260000Y-68580000D03*
%TO.P,U31,6*%
%TO.N,Y2*%
X167640000Y-71120000D03*
%TO.P,U31,15*%
%TO.N,Y6*%
X175260000Y-71120000D03*
%TO.P,U31,5*%
%TO.N,Y1*%
X167640000Y-68580000D03*
%TO.P,U31,14*%
%TO.N,ALU6*%
X175260000Y-73660000D03*
%TO.P,U31,4*%
%TO.N,ALU1*%
X167640000Y-66040000D03*
%TO.P,U31,13*%
%TO.N,ALU7*%
X175260000Y-76200000D03*
%TO.P,U31,3*%
%TO.N,ALU0*%
X167640000Y-63500000D03*
%TO.P,U31,12*%
%TO.N,Y7*%
X175260000Y-78740000D03*
%TO.P,U31,2*%
%TO.N,Y0*%
X167640000Y-60960000D03*
%TO.P,U31,11*%
%TO.N,CLK2*%
X175260000Y-81280000D03*
D15*
%TO.P,U31,1*%
%TO.N,~YL*%
X167640000Y-58420000D03*
%TD*%
D16*
%TO.P,U30,16*%
%TO.N,VCC*%
X114300000Y-58420000D03*
%TO.P,U30,8*%
%TO.N,GND*%
X106680000Y-76200000D03*
%TO.P,U30,15*%
%TO.N,N/C*%
X114300000Y-60960000D03*
%TO.P,U30,7*%
%TO.N,IX*%
X106680000Y-73660000D03*
%TO.P,U30,14*%
%TO.N,X4*%
X114300000Y-63500000D03*
%TO.P,U30,6*%
%TO.N,ALU7*%
X106680000Y-71120000D03*
%TO.P,U30,13*%
%TO.N,X5*%
X114300000Y-66040000D03*
%TO.P,U30,5*%
%TO.N,ALU6*%
X106680000Y-68580000D03*
%TO.P,U30,12*%
%TO.N,X6*%
X114300000Y-68580000D03*
%TO.P,U30,4*%
%TO.N,ALU5*%
X106680000Y-66040000D03*
%TO.P,U30,11*%
%TO.N,X7*%
X114300000Y-71120000D03*
%TO.P,U30,3*%
%TO.N,ALU4*%
X106680000Y-63500000D03*
%TO.P,U30,10*%
%TO.N,Net-(U29-Pad15)*%
X114300000Y-73660000D03*
%TO.P,U30,2*%
%TO.N,CLK2*%
X106680000Y-60960000D03*
%TO.P,U30,9*%
%TO.N,~XL*%
X114300000Y-76200000D03*
D15*
%TO.P,U30,1*%
%TO.N,H*%
X106680000Y-58420000D03*
%TD*%
D16*
%TO.P,U29,16*%
%TO.N,VCC*%
X129540000Y-58420000D03*
%TO.P,U29,8*%
%TO.N,GND*%
X121920000Y-76200000D03*
%TO.P,U29,15*%
%TO.N,Net-(U29-Pad15)*%
X129540000Y-60960000D03*
%TO.P,U29,7*%
%TO.N,IX*%
X121920000Y-73660000D03*
%TO.P,U29,14*%
%TO.N,X0*%
X129540000Y-63500000D03*
%TO.P,U29,6*%
%TO.N,ALU3*%
X121920000Y-71120000D03*
%TO.P,U29,13*%
%TO.N,X1*%
X129540000Y-66040000D03*
%TO.P,U29,5*%
%TO.N,ALU2*%
X121920000Y-68580000D03*
%TO.P,U29,12*%
%TO.N,X2*%
X129540000Y-68580000D03*
%TO.P,U29,4*%
%TO.N,ALU1*%
X121920000Y-66040000D03*
%TO.P,U29,11*%
%TO.N,X3*%
X129540000Y-71120000D03*
%TO.P,U29,3*%
%TO.N,ALU0*%
X121920000Y-63500000D03*
%TO.P,U29,10*%
%TO.N,H*%
X129540000Y-73660000D03*
%TO.P,U29,2*%
%TO.N,CLK2*%
X121920000Y-60960000D03*
%TO.P,U29,9*%
%TO.N,~XL*%
X129540000Y-76200000D03*
D15*
%TO.P,U29,1*%
%TO.N,H*%
X121920000Y-58420000D03*
%TD*%
D16*
%TO.P,U28,20*%
%TO.N,VCC*%
X63500000Y-144780000D03*
%TO.P,U28,10*%
%TO.N,GND*%
X55880000Y-167640000D03*
%TO.P,U28,19*%
%TO.N,~AE*%
X63500000Y-147320000D03*
%TO.P,U28,9*%
%TO.N,BUS7*%
X55880000Y-165100000D03*
%TO.P,U28,18*%
%TO.N,BUS0*%
X63500000Y-149860000D03*
%TO.P,U28,8*%
%TO.N,AC3*%
X55880000Y-162560000D03*
%TO.P,U28,17*%
%TO.N,AC4*%
X63500000Y-152400000D03*
%TO.P,U28,7*%
%TO.N,BUS6*%
X55880000Y-160020000D03*
%TO.P,U28,16*%
%TO.N,BUS1*%
X63500000Y-154940000D03*
%TO.P,U28,6*%
%TO.N,AC2*%
X55880000Y-157480000D03*
%TO.P,U28,15*%
%TO.N,AC5*%
X63500000Y-157480000D03*
%TO.P,U28,5*%
%TO.N,BUS5*%
X55880000Y-154940000D03*
%TO.P,U28,14*%
%TO.N,BUS2*%
X63500000Y-160020000D03*
%TO.P,U28,4*%
%TO.N,AC1*%
X55880000Y-152400000D03*
%TO.P,U28,13*%
%TO.N,AC6*%
X63500000Y-162560000D03*
%TO.P,U28,3*%
%TO.N,BUS4*%
X55880000Y-149860000D03*
%TO.P,U28,12*%
%TO.N,BUS3*%
X63500000Y-165100000D03*
%TO.P,U28,2*%
%TO.N,AC0*%
X55880000Y-147320000D03*
%TO.P,U28,11*%
%TO.N,AC7*%
X63500000Y-167640000D03*
D15*
%TO.P,U28,1*%
%TO.N,~AE*%
X55880000Y-144780000D03*
%TD*%
D16*
%TO.P,U27,20*%
%TO.N,VCC*%
X63500000Y-101600000D03*
%TO.P,U27,10*%
%TO.N,GND*%
X55880000Y-124460000D03*
%TO.P,U27,19*%
%TO.N,AC6*%
X63500000Y-104140000D03*
%TO.P,U27,9*%
%TO.N,AC0*%
X55880000Y-121920000D03*
%TO.P,U27,18*%
%TO.N,ALU6*%
X63500000Y-106680000D03*
%TO.P,U27,8*%
%TO.N,ALU0*%
X55880000Y-119380000D03*
%TO.P,U27,17*%
%TO.N,ALU7*%
X63500000Y-109220000D03*
%TO.P,U27,7*%
%TO.N,ALU1*%
X55880000Y-116840000D03*
%TO.P,U27,16*%
%TO.N,AC7*%
X63500000Y-111760000D03*
%TO.P,U27,6*%
%TO.N,AC1*%
X55880000Y-114300000D03*
%TO.P,U27,15*%
%TO.N,AC4*%
X63500000Y-114300000D03*
%TO.P,U27,5*%
%TO.N,AC2*%
X55880000Y-111760000D03*
%TO.P,U27,14*%
%TO.N,ALU4*%
X63500000Y-116840000D03*
%TO.P,U27,4*%
%TO.N,ALU2*%
X55880000Y-109220000D03*
%TO.P,U27,13*%
%TO.N,ALU5*%
X63500000Y-119380000D03*
%TO.P,U27,3*%
%TO.N,ALU3*%
X55880000Y-106680000D03*
%TO.P,U27,12*%
%TO.N,AC5*%
X63500000Y-121920000D03*
%TO.P,U27,2*%
%TO.N,AC3*%
X55880000Y-104140000D03*
%TO.P,U27,11*%
%TO.N,CLK2*%
X63500000Y-124460000D03*
D15*
%TO.P,U27,1*%
%TO.N,~LD*%
X55880000Y-101600000D03*
%TD*%
D16*
%TO.P,U26,16*%
%TO.N,VCC*%
X33020000Y-109220000D03*
%TO.P,U26,8*%
%TO.N,GND*%
X50800000Y-116840000D03*
%TO.P,U26,15*%
%TO.N,Net-(U23-Pad9)*%
X35560000Y-109220000D03*
%TO.P,U26,7*%
%TO.N,AR0*%
X48260000Y-116840000D03*
%TO.P,U26,14*%
%TO.N,Net-(U23-Pad7)*%
X38100000Y-109220000D03*
%TO.P,U26,6*%
%TO.N,Net-(U21-Pad9)*%
X45720000Y-116840000D03*
%TO.P,U26,13*%
%TO.N,ALU2*%
X40640000Y-109220000D03*
%TO.P,U26,5*%
%TO.N,Net-(U21-Pad7)*%
X43180000Y-116840000D03*
%TO.P,U26,12*%
%TO.N,Net-(U24-Pad7)*%
X43180000Y-109220000D03*
%TO.P,U26,4*%
%TO.N,ALU0*%
X40640000Y-116840000D03*
%TO.P,U26,11*%
%TO.N,Net-(U24-Pad9)*%
X45720000Y-109220000D03*
%TO.P,U26,3*%
%TO.N,Net-(U22-Pad7)*%
X38100000Y-116840000D03*
%TO.P,U26,10*%
%TO.N,ALU3*%
X48260000Y-109220000D03*
%TO.P,U26,2*%
%TO.N,Net-(U22-Pad9)*%
X35560000Y-116840000D03*
%TO.P,U26,9*%
%TO.N,Net-(U25-Pad7)*%
X50800000Y-109220000D03*
D15*
%TO.P,U26,1*%
%TO.N,ALU1*%
X33020000Y-116840000D03*
%TD*%
D16*
%TO.P,U25,16*%
%TO.N,VCC*%
X68580000Y-109220000D03*
%TO.P,U25,8*%
%TO.N,GND*%
X86360000Y-116840000D03*
%TO.P,U25,15*%
%TO.N,Net-(U19-Pad7)*%
X71120000Y-109220000D03*
%TO.P,U25,7*%
%TO.N,Net-(U25-Pad7)*%
X83820000Y-116840000D03*
%TO.P,U25,14*%
%TO.N,Net-(U19-Pad9)*%
X73660000Y-109220000D03*
%TO.P,U25,6*%
%TO.N,Net-(U17-Pad9)*%
X81280000Y-116840000D03*
%TO.P,U25,13*%
%TO.N,ALU6*%
X76200000Y-109220000D03*
%TO.P,U25,5*%
%TO.N,Net-(U17-Pad7)*%
X78740000Y-116840000D03*
%TO.P,U25,12*%
%TO.N,Net-(U20-Pad7)*%
X78740000Y-109220000D03*
%TO.P,U25,4*%
%TO.N,ALU4*%
X76200000Y-116840000D03*
%TO.P,U25,11*%
%TO.N,Net-(U20-Pad9)*%
X81280000Y-109220000D03*
%TO.P,U25,3*%
%TO.N,Net-(U18-Pad9)*%
X73660000Y-116840000D03*
%TO.P,U25,10*%
%TO.N,ALU7*%
X83820000Y-109220000D03*
%TO.P,U25,2*%
%TO.N,Net-(U18-Pad7)*%
X71120000Y-116840000D03*
%TO.P,U25,9*%
%TO.N,CO*%
X86360000Y-109220000D03*
D15*
%TO.P,U25,1*%
%TO.N,ALU5*%
X68580000Y-116840000D03*
%TD*%
D16*
%TO.P,U24,16*%
%TO.N,VCC*%
X48260000Y-58420000D03*
%TO.P,U24,8*%
%TO.N,GND*%
X40640000Y-76200000D03*
%TO.P,U24,15*%
%TO.N,AL*%
X48260000Y-60960000D03*
%TO.P,U24,7*%
%TO.N,Net-(U24-Pad7)*%
X40640000Y-73660000D03*
%TO.P,U24,14*%
%TO.N,AC3*%
X48260000Y-63500000D03*
%TO.P,U24,6*%
%TO.N,AR0*%
X40640000Y-71120000D03*
%TO.P,U24,13*%
%TO.N,H*%
X48260000Y-66040000D03*
%TO.P,U24,5*%
%TO.N,AR1*%
X40640000Y-68580000D03*
%TO.P,U24,12*%
%TO.N,L*%
X48260000Y-68580000D03*
%TO.P,U24,4*%
%TO.N,AR2*%
X40640000Y-66040000D03*
%TO.P,U24,11*%
%TO.N,H*%
X48260000Y-71120000D03*
%TO.P,U24,3*%
%TO.N,AR3*%
X40640000Y-63500000D03*
%TO.P,U24,10*%
%TO.N,L*%
X48260000Y-73660000D03*
%TO.P,U24,2*%
%TO.N,BUS3*%
X40640000Y-60960000D03*
%TO.P,U24,9*%
%TO.N,Net-(U24-Pad9)*%
X48260000Y-76200000D03*
D15*
%TO.P,U24,1*%
%TO.N,L*%
X40640000Y-58420000D03*
%TD*%
D16*
%TO.P,U23,16*%
%TO.N,VCC*%
X48260000Y-83820000D03*
%TO.P,U23,8*%
%TO.N,GND*%
X40640000Y-101600000D03*
%TO.P,U23,15*%
%TO.N,AL*%
X48260000Y-86360000D03*
%TO.P,U23,7*%
%TO.N,Net-(U23-Pad7)*%
X40640000Y-99060000D03*
%TO.P,U23,14*%
%TO.N,AC2*%
X48260000Y-88900000D03*
%TO.P,U23,6*%
%TO.N,AR0*%
X40640000Y-96520000D03*
%TO.P,U23,13*%
%TO.N,H*%
X48260000Y-91440000D03*
%TO.P,U23,5*%
%TO.N,AR1*%
X40640000Y-93980000D03*
%TO.P,U23,12*%
%TO.N,L*%
X48260000Y-93980000D03*
%TO.P,U23,4*%
%TO.N,AR2*%
X40640000Y-91440000D03*
%TO.P,U23,11*%
%TO.N,H*%
X48260000Y-96520000D03*
%TO.P,U23,3*%
%TO.N,AR3*%
X40640000Y-88900000D03*
%TO.P,U23,10*%
%TO.N,L*%
X48260000Y-99060000D03*
%TO.P,U23,2*%
%TO.N,BUS2*%
X40640000Y-86360000D03*
%TO.P,U23,9*%
%TO.N,Net-(U23-Pad9)*%
X48260000Y-101600000D03*
D15*
%TO.P,U23,1*%
%TO.N,L*%
X40640000Y-83820000D03*
%TD*%
D16*
%TO.P,U22,16*%
%TO.N,VCC*%
X48260000Y-124460000D03*
%TO.P,U22,8*%
%TO.N,GND*%
X40640000Y-142240000D03*
%TO.P,U22,15*%
%TO.N,AL*%
X48260000Y-127000000D03*
%TO.P,U22,7*%
%TO.N,Net-(U22-Pad7)*%
X40640000Y-139700000D03*
%TO.P,U22,14*%
%TO.N,AC1*%
X48260000Y-129540000D03*
%TO.P,U22,6*%
%TO.N,AR0*%
X40640000Y-137160000D03*
%TO.P,U22,13*%
%TO.N,H*%
X48260000Y-132080000D03*
%TO.P,U22,5*%
%TO.N,AR1*%
X40640000Y-134620000D03*
%TO.P,U22,12*%
%TO.N,L*%
X48260000Y-134620000D03*
%TO.P,U22,4*%
%TO.N,AR2*%
X40640000Y-132080000D03*
%TO.P,U22,11*%
%TO.N,H*%
X48260000Y-137160000D03*
%TO.P,U22,3*%
%TO.N,AR3*%
X40640000Y-129540000D03*
%TO.P,U22,10*%
%TO.N,L*%
X48260000Y-139700000D03*
%TO.P,U22,2*%
%TO.N,BUS1*%
X40640000Y-127000000D03*
%TO.P,U22,9*%
%TO.N,Net-(U22-Pad9)*%
X48260000Y-142240000D03*
D15*
%TO.P,U22,1*%
%TO.N,L*%
X40640000Y-124460000D03*
%TD*%
D16*
%TO.P,U21,16*%
%TO.N,VCC*%
X48260000Y-149860000D03*
%TO.P,U21,8*%
%TO.N,GND*%
X40640000Y-167640000D03*
%TO.P,U21,15*%
%TO.N,AL*%
X48260000Y-152400000D03*
%TO.P,U21,7*%
%TO.N,Net-(U21-Pad7)*%
X40640000Y-165100000D03*
%TO.P,U21,14*%
%TO.N,AC0*%
X48260000Y-154940000D03*
%TO.P,U21,6*%
%TO.N,AR0*%
X40640000Y-162560000D03*
%TO.P,U21,13*%
%TO.N,H*%
X48260000Y-157480000D03*
%TO.P,U21,5*%
%TO.N,AR1*%
X40640000Y-160020000D03*
%TO.P,U21,12*%
%TO.N,L*%
X48260000Y-160020000D03*
%TO.P,U21,4*%
%TO.N,AR2*%
X40640000Y-157480000D03*
%TO.P,U21,11*%
%TO.N,H*%
X48260000Y-162560000D03*
%TO.P,U21,3*%
%TO.N,AR3*%
X40640000Y-154940000D03*
%TO.P,U21,10*%
%TO.N,L*%
X48260000Y-165100000D03*
%TO.P,U21,2*%
%TO.N,BUS0*%
X40640000Y-152400000D03*
%TO.P,U21,9*%
%TO.N,Net-(U21-Pad9)*%
X48260000Y-167640000D03*
D15*
%TO.P,U21,1*%
%TO.N,L*%
X40640000Y-149860000D03*
%TD*%
D16*
%TO.P,U20,16*%
%TO.N,VCC*%
X78740000Y-58420000D03*
%TO.P,U20,8*%
%TO.N,GND*%
X71120000Y-76200000D03*
%TO.P,U20,15*%
%TO.N,L*%
X78740000Y-60960000D03*
%TO.P,U20,7*%
%TO.N,Net-(U20-Pad7)*%
X71120000Y-73660000D03*
%TO.P,U20,14*%
%TO.N,BUS7*%
X78740000Y-63500000D03*
%TO.P,U20,6*%
%TO.N,L*%
X71120000Y-71120000D03*
%TO.P,U20,13*%
%TO.N,AR3*%
X78740000Y-66040000D03*
%TO.P,U20,5*%
%TO.N,L*%
X71120000Y-68580000D03*
%TO.P,U20,12*%
%TO.N,AR1*%
X78740000Y-68580000D03*
%TO.P,U20,4*%
%TO.N,H*%
X71120000Y-66040000D03*
%TO.P,U20,11*%
%TO.N,AR2*%
X78740000Y-71120000D03*
%TO.P,U20,3*%
%TO.N,H*%
X71120000Y-63500000D03*
%TO.P,U20,10*%
%TO.N,AR0*%
X78740000Y-73660000D03*
%TO.P,U20,2*%
%TO.N,AC7*%
X71120000Y-60960000D03*
%TO.P,U20,9*%
%TO.N,Net-(U20-Pad9)*%
X78740000Y-76200000D03*
D15*
%TO.P,U20,1*%
%TO.N,AL*%
X71120000Y-58420000D03*
%TD*%
D16*
%TO.P,U19,16*%
%TO.N,VCC*%
X78740000Y-83820000D03*
%TO.P,U19,8*%
%TO.N,GND*%
X71120000Y-101600000D03*
%TO.P,U19,15*%
%TO.N,L*%
X78740000Y-86360000D03*
%TO.P,U19,7*%
%TO.N,Net-(U19-Pad7)*%
X71120000Y-99060000D03*
%TO.P,U19,14*%
%TO.N,BUS6*%
X78740000Y-88900000D03*
%TO.P,U19,6*%
%TO.N,L*%
X71120000Y-96520000D03*
%TO.P,U19,13*%
%TO.N,AR3*%
X78740000Y-91440000D03*
%TO.P,U19,5*%
%TO.N,L*%
X71120000Y-93980000D03*
%TO.P,U19,12*%
%TO.N,AR1*%
X78740000Y-93980000D03*
%TO.P,U19,4*%
%TO.N,H*%
X71120000Y-91440000D03*
%TO.P,U19,11*%
%TO.N,AR2*%
X78740000Y-96520000D03*
%TO.P,U19,3*%
%TO.N,H*%
X71120000Y-88900000D03*
%TO.P,U19,10*%
%TO.N,AR0*%
X78740000Y-99060000D03*
%TO.P,U19,2*%
%TO.N,AC6*%
X71120000Y-86360000D03*
%TO.P,U19,9*%
%TO.N,Net-(U19-Pad9)*%
X78740000Y-101600000D03*
D15*
%TO.P,U19,1*%
%TO.N,AL*%
X71120000Y-83820000D03*
%TD*%
D16*
%TO.P,U18,16*%
%TO.N,VCC*%
X78740000Y-124460000D03*
%TO.P,U18,8*%
%TO.N,GND*%
X71120000Y-142240000D03*
%TO.P,U18,15*%
%TO.N,L*%
X78740000Y-127000000D03*
%TO.P,U18,7*%
%TO.N,Net-(U18-Pad7)*%
X71120000Y-139700000D03*
%TO.P,U18,14*%
%TO.N,BUS5*%
X78740000Y-129540000D03*
%TO.P,U18,6*%
%TO.N,L*%
X71120000Y-137160000D03*
%TO.P,U18,13*%
%TO.N,AR3*%
X78740000Y-132080000D03*
%TO.P,U18,5*%
%TO.N,L*%
X71120000Y-134620000D03*
%TO.P,U18,12*%
%TO.N,AR1*%
X78740000Y-134620000D03*
%TO.P,U18,4*%
%TO.N,H*%
X71120000Y-132080000D03*
%TO.P,U18,11*%
%TO.N,AR2*%
X78740000Y-137160000D03*
%TO.P,U18,3*%
%TO.N,H*%
X71120000Y-129540000D03*
%TO.P,U18,10*%
%TO.N,AR0*%
X78740000Y-139700000D03*
%TO.P,U18,2*%
%TO.N,AC5*%
X71120000Y-127000000D03*
%TO.P,U18,9*%
%TO.N,Net-(U18-Pad9)*%
X78740000Y-142240000D03*
D15*
%TO.P,U18,1*%
%TO.N,AL*%
X71120000Y-124460000D03*
%TD*%
D16*
%TO.P,U17,16*%
%TO.N,VCC*%
X78740000Y-149860000D03*
%TO.P,U17,8*%
%TO.N,GND*%
X71120000Y-167640000D03*
%TO.P,U17,15*%
%TO.N,L*%
X78740000Y-152400000D03*
%TO.P,U17,7*%
%TO.N,Net-(U17-Pad7)*%
X71120000Y-165100000D03*
%TO.P,U17,14*%
%TO.N,BUS4*%
X78740000Y-154940000D03*
%TO.P,U17,6*%
%TO.N,L*%
X71120000Y-162560000D03*
%TO.P,U17,13*%
%TO.N,AR3*%
X78740000Y-157480000D03*
%TO.P,U17,5*%
%TO.N,L*%
X71120000Y-160020000D03*
%TO.P,U17,12*%
%TO.N,AR1*%
X78740000Y-160020000D03*
%TO.P,U17,4*%
%TO.N,H*%
X71120000Y-157480000D03*
%TO.P,U17,11*%
%TO.N,AR2*%
X78740000Y-162560000D03*
%TO.P,U17,3*%
%TO.N,H*%
X71120000Y-154940000D03*
%TO.P,U17,10*%
%TO.N,AR0*%
X78740000Y-165100000D03*
%TO.P,U17,2*%
%TO.N,AC4*%
X71120000Y-152400000D03*
%TO.P,U17,9*%
%TO.N,Net-(U17-Pad9)*%
X78740000Y-167640000D03*
D15*
%TO.P,U17,1*%
%TO.N,AL*%
X71120000Y-149860000D03*
%TD*%
D16*
%TO.P,U15,20*%
%TO.N,VCC*%
X106680000Y-139700000D03*
%TO.P,U15,10*%
%TO.N,GND*%
X99060000Y-162560000D03*
%TO.P,U15,19*%
%TO.N,L*%
X106680000Y-142240000D03*
%TO.P,U15,9*%
%TO.N,AL*%
X99060000Y-160020000D03*
%TO.P,U15,18*%
%TO.N,/CU/INV_C_OUT*%
X106680000Y-144780000D03*
%TO.P,U15,8*%
%TO.N,Net-(D32-Pad2)*%
X99060000Y-157480000D03*
%TO.P,U15,17*%
%TO.N,Net-(D23-Pad2)*%
X106680000Y-147320000D03*
%TO.P,U15,7*%
%TO.N,AR1*%
X99060000Y-154940000D03*
%TO.P,U15,16*%
%TO.N,/CU/INV_B_OUT*%
X106680000Y-149860000D03*
%TO.P,U15,6*%
%TO.N,Net-(D22-Pad2)*%
X99060000Y-152400000D03*
%TO.P,U15,15*%
%TO.N,/CU/INV_A_IN*%
X106680000Y-152400000D03*
%TO.P,U15,5*%
%TO.N,IX*%
X99060000Y-149860000D03*
%TO.P,U15,14*%
%TO.N,AR2*%
X106680000Y-154940000D03*
%TO.P,U15,4*%
%TO.N,/CU/INV_B_IN*%
X99060000Y-147320000D03*
%TO.P,U15,13*%
%TO.N,Net-(D25-Pad2)*%
X106680000Y-157480000D03*
%TO.P,U15,3*%
%TO.N,AR3*%
X99060000Y-144780000D03*
%TO.P,U15,12*%
%TO.N,AR0*%
X106680000Y-160020000D03*
%TO.P,U15,2*%
%TO.N,/CU/INV_C_IN*%
X99060000Y-142240000D03*
%TO.P,U15,11*%
%TO.N,Net-(D21-Pad2)*%
X106680000Y-162560000D03*
D15*
%TO.P,U15,1*%
%TO.N,L*%
X99060000Y-139700000D03*
%TD*%
D16*
%TO.P,U14,16*%
%TO.N,VCC*%
X116840000Y-160020000D03*
%TO.P,U14,8*%
%TO.N,GND*%
X134620000Y-167640000D03*
%TO.P,U14,15*%
%TO.N,Net-(D22-Pad1)*%
X119380000Y-160020000D03*
%TO.P,U14,7*%
%TO.N,/CU/~J*%
X132080000Y-167640000D03*
%TO.P,U14,14*%
%TO.N,Net-(D24-Pad1)*%
X121920000Y-160020000D03*
%TO.P,U14,6*%
%TO.N,H*%
X129540000Y-167640000D03*
%TO.P,U14,13*%
%TO.N,Net-(D25-Pad1)*%
X124460000Y-160020000D03*
%TO.P,U14,5*%
%TO.N,L*%
X127000000Y-167640000D03*
%TO.P,U14,12*%
%TO.N,Net-(D28-Pad1)*%
X127000000Y-160020000D03*
%TO.P,U14,4*%
%TO.N,L*%
X124460000Y-167640000D03*
%TO.P,U14,11*%
%TO.N,Net-(D30-Pad1)*%
X129540000Y-160020000D03*
%TO.P,U14,3*%
%TO.N,IR7*%
X121920000Y-167640000D03*
%TO.P,U14,10*%
%TO.N,Net-(D32-Pad1)*%
X132080000Y-160020000D03*
%TO.P,U14,2*%
%TO.N,IR6*%
X119380000Y-167640000D03*
%TO.P,U14,9*%
%TO.N,/CU/INV_B_IN*%
X134620000Y-160020000D03*
D15*
%TO.P,U14,1*%
%TO.N,IR5*%
X116840000Y-167640000D03*
%TD*%
D16*
%TO.P,U13,16*%
%TO.N,VCC*%
X175260000Y-160020000D03*
%TO.P,U13,8*%
%TO.N,GND*%
X193040000Y-167640000D03*
%TO.P,U13,15*%
%TO.N,Net-(D9-Pad1)*%
X177800000Y-160020000D03*
%TO.P,U13,7*%
%TO.N,/CU/INV_A_IN*%
X190500000Y-167640000D03*
%TO.P,U13,14*%
%TO.N,Net-(D10-Pad1)*%
X180340000Y-160020000D03*
%TO.P,U13,6*%
%TO.N,/CU/~J*%
X187960000Y-167640000D03*
%TO.P,U13,13*%
%TO.N,Net-(D12-Pad1)*%
X182880000Y-160020000D03*
%TO.P,U13,5*%
%TO.N,L*%
X185420000Y-167640000D03*
%TO.P,U13,12*%
%TO.N,Net-(D14-Pad1)*%
X185420000Y-160020000D03*
%TO.P,U13,4*%
%TO.N,L*%
X182880000Y-167640000D03*
%TO.P,U13,11*%
%TO.N,~XL*%
X187960000Y-160020000D03*
%TO.P,U13,3*%
%TO.N,IR4*%
X180340000Y-167640000D03*
%TO.P,U13,10*%
%TO.N,~YL*%
X190500000Y-160020000D03*
%TO.P,U13,2*%
%TO.N,IR3*%
X177800000Y-167640000D03*
%TO.P,U13,9*%
%TO.N,Net-(D17-Pad1)*%
X193040000Y-160020000D03*
D15*
%TO.P,U13,1*%
%TO.N,IR2*%
X175260000Y-167640000D03*
%TD*%
D16*
%TO.P,U12,16*%
%TO.N,VCC*%
X215900000Y-137160000D03*
%TO.P,U12,8*%
%TO.N,GND*%
X233680000Y-144780000D03*
%TO.P,U12,15*%
%TO.N,H*%
X218440000Y-137160000D03*
%TO.P,U12,7*%
%TO.N,/CU/INV_C_IN*%
X231140000Y-144780000D03*
%TO.P,U12,14*%
%TO.N,AC7*%
X220980000Y-137160000D03*
%TO.P,U12,6*%
%TO.N,IR2*%
X228600000Y-144780000D03*
%TO.P,U12,13*%
%TO.N,H*%
X223520000Y-137160000D03*
%TO.P,U12,5*%
%TO.N,IR3*%
X226060000Y-144780000D03*
%TO.P,U12,12*%
%TO.N,H*%
X226060000Y-137160000D03*
%TO.P,U12,4*%
%TO.N,IR4*%
X223520000Y-144780000D03*
%TO.P,U12,11*%
%TO.N,H*%
X228600000Y-137160000D03*
%TO.P,U12,3*%
%TO.N,L*%
X220980000Y-144780000D03*
%TO.P,U12,10*%
%TO.N,H*%
X231140000Y-137160000D03*
%TO.P,U12,2*%
%TO.N,CO*%
X218440000Y-144780000D03*
%TO.P,U12,9*%
%TO.N,N/C*%
X233680000Y-137160000D03*
D15*
%TO.P,U12,1*%
%TO.N,/CU/~J*%
X215900000Y-144780000D03*
%TD*%
D16*
%TO.P,U10,20*%
%TO.N,VCC*%
X185420000Y-121920000D03*
%TO.P,U10,10*%
%TO.N,GND*%
X208280000Y-129540000D03*
%TO.P,U10,19*%
%TO.N,~DE*%
X187960000Y-121920000D03*
%TO.P,U10,9*%
%TO.N,BUS1*%
X205740000Y-129540000D03*
%TO.P,U10,18*%
%TO.N,BUS6*%
X190500000Y-121920000D03*
%TO.P,U10,8*%
%TO.N,D3*%
X203200000Y-129540000D03*
%TO.P,U10,17*%
%TO.N,D4*%
X193040000Y-121920000D03*
%TO.P,U10,7*%
%TO.N,BUS0*%
X200660000Y-129540000D03*
%TO.P,U10,16*%
%TO.N,BUS7*%
X195580000Y-121920000D03*
%TO.P,U10,6*%
%TO.N,D5*%
X198120000Y-129540000D03*
%TO.P,U10,15*%
%TO.N,D2*%
X198120000Y-121920000D03*
%TO.P,U10,5*%
%TO.N,BUS2*%
X195580000Y-129540000D03*
%TO.P,U10,14*%
%TO.N,BUS5*%
X200660000Y-121920000D03*
%TO.P,U10,4*%
%TO.N,D7*%
X193040000Y-129540000D03*
%TO.P,U10,13*%
%TO.N,D0*%
X203200000Y-121920000D03*
%TO.P,U10,3*%
%TO.N,BUS4*%
X190500000Y-129540000D03*
%TO.P,U10,12*%
%TO.N,BUS3*%
X205740000Y-121920000D03*
%TO.P,U10,2*%
%TO.N,D6*%
X187960000Y-129540000D03*
%TO.P,U10,11*%
%TO.N,D1*%
X208280000Y-121920000D03*
D15*
%TO.P,U10,1*%
%TO.N,~DE*%
X185420000Y-129540000D03*
%TD*%
%TO.P,U9,1*%
%TO.N,H*%
X185420000Y-114300000D03*
D16*
%TO.P,U9,11*%
%TO.N,CLK1*%
X208280000Y-106680000D03*
%TO.P,U9,2*%
%TO.N,D7*%
X187960000Y-114300000D03*
%TO.P,U9,12*%
%TO.N,D0*%
X205740000Y-106680000D03*
%TO.P,U9,3*%
%TO.N,Net-(U7-Pad3)*%
X190500000Y-114300000D03*
%TO.P,U9,13*%
%TO.N,Net-(U7-Pad10)*%
X203200000Y-106680000D03*
%TO.P,U9,4*%
%TO.N,Net-(U7-Pad5)*%
X193040000Y-114300000D03*
%TO.P,U9,14*%
%TO.N,Net-(U7-Pad8)*%
X200660000Y-106680000D03*
%TO.P,U9,5*%
%TO.N,D5*%
X195580000Y-114300000D03*
%TO.P,U9,15*%
%TO.N,D2*%
X198120000Y-106680000D03*
%TO.P,U9,6*%
%TO.N,D3*%
X198120000Y-114300000D03*
%TO.P,U9,16*%
%TO.N,D4*%
X195580000Y-106680000D03*
%TO.P,U9,7*%
%TO.N,Net-(U7-Pad7)*%
X200660000Y-114300000D03*
%TO.P,U9,17*%
%TO.N,Net-(U7-Pad6)*%
X193040000Y-106680000D03*
%TO.P,U9,8*%
%TO.N,Net-(U7-Pad9)*%
X203200000Y-114300000D03*
%TO.P,U9,18*%
%TO.N,Net-(U7-Pad4)*%
X190500000Y-106680000D03*
%TO.P,U9,9*%
%TO.N,D1*%
X205740000Y-114300000D03*
%TO.P,U9,19*%
%TO.N,D6*%
X187960000Y-106680000D03*
%TO.P,U9,10*%
%TO.N,GND*%
X208280000Y-114300000D03*
%TO.P,U9,20*%
%TO.N,VCC*%
X185420000Y-106680000D03*
%TD*%
D15*
%TO.P,U8,1*%
%TO.N,H*%
X215900000Y-114300000D03*
D16*
%TO.P,U8,11*%
%TO.N,CLK1*%
X238760000Y-106680000D03*
%TO.P,U8,2*%
%TO.N,IR7*%
X218440000Y-114300000D03*
%TO.P,U8,12*%
%TO.N,IR1*%
X236220000Y-106680000D03*
%TO.P,U8,3*%
%TO.N,Net-(U7-Pad12)*%
X220980000Y-114300000D03*
%TO.P,U8,13*%
%TO.N,Net-(U7-Pad18)*%
X233680000Y-106680000D03*
%TO.P,U8,4*%
%TO.N,Net-(U7-Pad15)*%
X223520000Y-114300000D03*
%TO.P,U8,14*%
%TO.N,Net-(U7-Pad17)*%
X231140000Y-106680000D03*
%TO.P,U8,5*%
%TO.N,IR4*%
X226060000Y-114300000D03*
%TO.P,U8,15*%
%TO.N,IR2*%
X228600000Y-106680000D03*
%TO.P,U8,6*%
%TO.N,IR3*%
X228600000Y-114300000D03*
%TO.P,U8,16*%
%TO.N,IR5*%
X226060000Y-106680000D03*
%TO.P,U8,7*%
%TO.N,Net-(U7-Pad16)*%
X231140000Y-114300000D03*
%TO.P,U8,17*%
%TO.N,Net-(U7-Pad14)*%
X223520000Y-106680000D03*
%TO.P,U8,8*%
%TO.N,Net-(U7-Pad19)*%
X233680000Y-114300000D03*
%TO.P,U8,18*%
%TO.N,Net-(U7-Pad13)*%
X220980000Y-106680000D03*
%TO.P,U8,9*%
%TO.N,IR0*%
X236220000Y-114300000D03*
%TO.P,U8,19*%
%TO.N,IR6*%
X218440000Y-106680000D03*
%TO.P,U8,10*%
%TO.N,GND*%
X238760000Y-114300000D03*
%TO.P,U8,20*%
%TO.N,VCC*%
X215900000Y-106680000D03*
%TD*%
%TO.P,U6,16*%
%TO.N,VCC*%
X195580000Y-58420000D03*
%TO.P,U6,8*%
%TO.N,GND*%
X187960000Y-76200000D03*
%TO.P,U6,15*%
%TO.N,N/C*%
X195580000Y-60960000D03*
%TO.P,U6,7*%
%TO.N,~PL*%
X187960000Y-73660000D03*
%TO.P,U6,14*%
%TO.N,/PRG/PC12*%
X195580000Y-63500000D03*
%TO.P,U6,6*%
%TO.N,Y7*%
X187960000Y-71120000D03*
%TO.P,U6,13*%
%TO.N,/PRG/PC13*%
X195580000Y-66040000D03*
%TO.P,U6,5*%
%TO.N,Y6*%
X187960000Y-68580000D03*
%TO.P,U6,12*%
%TO.N,/PRG/PC14*%
X195580000Y-68580000D03*
%TO.P,U6,4*%
%TO.N,Y5*%
X187960000Y-66040000D03*
%TO.P,U6,11*%
%TO.N,/PRG/PC15*%
X195580000Y-71120000D03*
%TO.P,U6,3*%
%TO.N,Y4*%
X187960000Y-63500000D03*
%TO.P,U6,10*%
%TO.N,Net-(U5-Pad15)*%
X195580000Y-73660000D03*
%TO.P,U6,2*%
%TO.N,CLK1*%
X187960000Y-60960000D03*
%TO.P,U6,9*%
%TO.N,~PH*%
X195580000Y-76200000D03*
D15*
%TO.P,U6,1*%
%TO.N,~RST*%
X187960000Y-58420000D03*
%TD*%
D16*
%TO.P,U5,16*%
%TO.N,VCC*%
X208280000Y-58420000D03*
%TO.P,U5,8*%
%TO.N,GND*%
X200660000Y-76200000D03*
%TO.P,U5,15*%
%TO.N,Net-(U5-Pad15)*%
X208280000Y-60960000D03*
%TO.P,U5,7*%
%TO.N,~PL*%
X200660000Y-73660000D03*
%TO.P,U5,14*%
%TO.N,/PRG/PC8*%
X208280000Y-63500000D03*
%TO.P,U5,6*%
%TO.N,Y3*%
X200660000Y-71120000D03*
%TO.P,U5,13*%
%TO.N,/PRG/PC9*%
X208280000Y-66040000D03*
%TO.P,U5,5*%
%TO.N,Y2*%
X200660000Y-68580000D03*
%TO.P,U5,12*%
%TO.N,/PRG/PC10*%
X208280000Y-68580000D03*
%TO.P,U5,4*%
%TO.N,Y1*%
X200660000Y-66040000D03*
%TO.P,U5,11*%
%TO.N,/PRG/PC11*%
X208280000Y-71120000D03*
%TO.P,U5,3*%
%TO.N,Y0*%
X200660000Y-63500000D03*
%TO.P,U5,10*%
%TO.N,Net-(U4-Pad15)*%
X208280000Y-73660000D03*
%TO.P,U5,2*%
%TO.N,CLK1*%
X200660000Y-60960000D03*
%TO.P,U5,9*%
%TO.N,~PH*%
X208280000Y-76200000D03*
D15*
%TO.P,U5,1*%
%TO.N,~RST*%
X200660000Y-58420000D03*
%TD*%
D16*
%TO.P,U4,16*%
%TO.N,VCC*%
X223520000Y-58420000D03*
%TO.P,U4,8*%
%TO.N,GND*%
X215900000Y-76200000D03*
%TO.P,U4,15*%
%TO.N,Net-(U4-Pad15)*%
X223520000Y-60960000D03*
%TO.P,U4,7*%
%TO.N,H*%
X215900000Y-73660000D03*
%TO.P,U4,14*%
%TO.N,/PRG/PC4*%
X223520000Y-63500000D03*
%TO.P,U4,6*%
%TO.N,BUS7*%
X215900000Y-71120000D03*
%TO.P,U4,13*%
%TO.N,/PRG/PC5*%
X223520000Y-66040000D03*
%TO.P,U4,5*%
%TO.N,BUS6*%
X215900000Y-68580000D03*
%TO.P,U4,12*%
%TO.N,/PRG/PC6*%
X223520000Y-68580000D03*
%TO.P,U4,4*%
%TO.N,BUS5*%
X215900000Y-66040000D03*
%TO.P,U4,11*%
%TO.N,/PRG/PC7*%
X223520000Y-71120000D03*
%TO.P,U4,3*%
%TO.N,BUS4*%
X215900000Y-63500000D03*
%TO.P,U4,10*%
%TO.N,Net-(U3-Pad15)*%
X223520000Y-73660000D03*
%TO.P,U4,2*%
%TO.N,CLK1*%
X215900000Y-60960000D03*
%TO.P,U4,9*%
%TO.N,~PL*%
X223520000Y-76200000D03*
D15*
%TO.P,U4,1*%
%TO.N,~RST*%
X215900000Y-58420000D03*
%TD*%
D16*
%TO.P,U3,16*%
%TO.N,VCC*%
X236220000Y-58420000D03*
%TO.P,U3,8*%
%TO.N,GND*%
X228600000Y-76200000D03*
%TO.P,U3,15*%
%TO.N,Net-(U3-Pad15)*%
X236220000Y-60960000D03*
%TO.P,U3,7*%
%TO.N,H*%
X228600000Y-73660000D03*
%TO.P,U3,14*%
%TO.N,/PRG/PC0*%
X236220000Y-63500000D03*
%TO.P,U3,6*%
%TO.N,BUS3*%
X228600000Y-71120000D03*
%TO.P,U3,13*%
%TO.N,/PRG/PC1*%
X236220000Y-66040000D03*
%TO.P,U3,5*%
%TO.N,BUS2*%
X228600000Y-68580000D03*
%TO.P,U3,12*%
%TO.N,/PRG/PC2*%
X236220000Y-68580000D03*
%TO.P,U3,4*%
%TO.N,BUS1*%
X228600000Y-66040000D03*
%TO.P,U3,11*%
%TO.N,/PRG/PC3*%
X236220000Y-71120000D03*
%TO.P,U3,3*%
%TO.N,BUS0*%
X228600000Y-63500000D03*
%TO.P,U3,10*%
%TO.N,H*%
X236220000Y-73660000D03*
%TO.P,U3,2*%
%TO.N,CLK1*%
X228600000Y-60960000D03*
%TO.P,U3,9*%
%TO.N,~PL*%
X236220000Y-76200000D03*
D15*
%TO.P,U3,1*%
%TO.N,~RST*%
X228600000Y-58420000D03*
%TD*%
%TO.P,U1,1*%
%TO.N,Net-(C1-Pad1)*%
X208280000Y-49530000D03*
D16*
%TO.P,U1,8*%
%TO.N,CLK2*%
X223520000Y-41910000D03*
%TO.P,U1,2*%
%TO.N,Net-(R1-Pad1)*%
X210820000Y-49530000D03*
%TO.P,U1,9*%
%TO.N,Net-(C3-Pad1)*%
X220980000Y-41910000D03*
%TO.P,U1,3*%
%TO.N,Net-(U1-Pad11)*%
X213360000Y-49530000D03*
%TO.P,U1,10*%
%TO.N,N/C*%
X218440000Y-41910000D03*
%TO.P,U1,4*%
%TO.N,CLK1*%
X215900000Y-49530000D03*
%TO.P,U1,11*%
%TO.N,Net-(U1-Pad11)*%
X215900000Y-41910000D03*
%TO.P,U1,5*%
%TO.N,CLK1*%
X218440000Y-49530000D03*
%TO.P,U1,12*%
%TO.N,Net-(U1-Pad11)*%
X213360000Y-41910000D03*
%TO.P,U1,6*%
%TO.N,Net-(C3-Pad1)*%
X220980000Y-49530000D03*
%TO.P,U1,13*%
%TO.N,Net-(R1-Pad1)*%
X210820000Y-41910000D03*
%TO.P,U1,7*%
%TO.N,GND*%
X223520000Y-49530000D03*
%TO.P,U1,14*%
%TO.N,VCC*%
X208280000Y-41910000D03*
%TD*%
D26*
%TO.P,J2,1*%
%TO.N,GND*%
X86360000Y-28630000D03*
%TO.P,J2,2*%
%TO.N,Net-(C44-Pad1)*%
X81360000Y-33630000D03*
%TO.P,J2,3*%
X91360000Y-33630000D03*
D27*
%TO.P,J2,10*%
%TO.N,N/C*%
X84360000Y-33630000D03*
%TO.P,J2,11*%
X88360000Y-33630000D03*
D28*
%TO.P,J2,MH1*%
X91360000Y-26130000D03*
%TO.P,J2,MH2*%
X91360000Y-28630000D03*
%TO.P,J2,MH3*%
X86360000Y-33630000D03*
%TO.P,J2,MH4*%
X81360000Y-26130000D03*
%TO.P,J2,MH5*%
X81360000Y-28630000D03*
%TD*%
D29*
%TO.P,D8,2*%
%TO.N,Net-(D8-Pad2)*%
X45720000Y-45720000D03*
D21*
%TO.P,D8,1*%
%TO.N,Net-(D8-Pad1)*%
X45720000Y-43180000D03*
%TD*%
D29*
%TO.P,D7,2*%
%TO.N,Net-(D7-Pad2)*%
X40640000Y-45720000D03*
D21*
%TO.P,D7,1*%
%TO.N,Net-(D7-Pad1)*%
X40640000Y-43180000D03*
%TD*%
D29*
%TO.P,D6,2*%
%TO.N,Net-(D6-Pad2)*%
X35560000Y-45720000D03*
D21*
%TO.P,D6,1*%
%TO.N,Net-(D6-Pad1)*%
X35560000Y-43180000D03*
%TD*%
D29*
%TO.P,D5,2*%
%TO.N,Net-(D5-Pad2)*%
X30480000Y-45720000D03*
D21*
%TO.P,D5,1*%
%TO.N,Net-(D5-Pad1)*%
X30480000Y-43180000D03*
%TD*%
D29*
%TO.P,D2,2*%
%TO.N,~RST*%
X173355000Y-45720000D03*
D21*
%TO.P,D2,1*%
%TO.N,Net-(D2-Pad1)*%
X173355000Y-43180000D03*
%TD*%
D19*
%TO.P,A15,1*%
%TO.N,Net-(A15-Pad1)*%
X147320000Y-84455000D03*
%TD*%
D30*
%TO.N,CLK1*%
X137019100Y-110320300D03*
X213956300Y-106727400D03*
%TO.N,CLK2*%
X66433700Y-60509600D03*
X121000200Y-48885000D03*
X198641500Y-40938000D03*
%TO.N,BUS0*%
X230397500Y-63142500D03*
X192816600Y-51884100D03*
X112663700Y-144160800D03*
X127411400Y-117103200D03*
X168843300Y-116650800D03*
%TO.N,BUS1*%
X65552600Y-132106500D03*
X116653600Y-153768500D03*
X129409700Y-116349000D03*
X164906900Y-115899500D03*
%TO.N,BUS2*%
X63021100Y-87258600D03*
X164924400Y-90760700D03*
X211341600Y-68180000D03*
X194195800Y-101744600D03*
%TO.N,BUS3*%
X227551900Y-76998600D03*
X182703300Y-120794700D03*
%TO.N,BUS4*%
X82499900Y-147410400D03*
X202730100Y-81388500D03*
%TO.N,BUS5*%
X105393600Y-130549400D03*
X125430600Y-117066100D03*
X200264000Y-117733600D03*
X205925600Y-69850000D03*
X196692700Y-95885600D03*
X199437200Y-99690900D03*
X62128000Y-131896400D03*
X232592600Y-45885900D03*
%TO.N,BUS6*%
X187117100Y-80125300D03*
X217383800Y-78633300D03*
X177603500Y-95982800D03*
X72356300Y-158786700D03*
X72999700Y-94640300D03*
X224317100Y-55100400D03*
%TO.N,BUS7*%
X98268500Y-75680600D03*
X203318700Y-72456600D03*
X200571300Y-79304300D03*
X62247000Y-84660700D03*
X63723500Y-84280500D03*
X160395800Y-84614500D03*
X193695000Y-117792100D03*
X162258600Y-117829300D03*
%TO.N,AC0*%
X59012500Y-77970600D03*
X59745600Y-121606500D03*
%TO.N,AC1*%
X58035800Y-127370000D03*
X56552600Y-129353300D03*
%TO.N,AC2*%
X54171000Y-89781300D03*
%TO.N,AC5*%
X65701000Y-126920300D03*
%TO.N,AC6*%
X71906200Y-103692500D03*
X60349600Y-87907700D03*
%TO.N,AC7*%
X221454200Y-141965200D03*
X219565400Y-143166900D03*
X195461100Y-168175300D03*
X60191000Y-111760000D03*
%TO.N,ALU3*%
X57705600Y-71761300D03*
X105104500Y-67454700D03*
%TO.N,ALU2*%
X134058400Y-76980500D03*
X161984200Y-81723700D03*
X60371100Y-51769100D03*
X59496500Y-109220000D03*
%TO.N,ALU1*%
X119678000Y-56673400D03*
X165840700Y-58820500D03*
%TO.N,ALU0*%
X119514500Y-67178200D03*
X118523100Y-69724700D03*
X105182800Y-74700700D03*
X92386200Y-115515000D03*
%TO.N,~AE*%
X153946800Y-130412500D03*
X148900300Y-128024100D03*
X56092300Y-141857100D03*
%TO.N,/RAM/A4*%
X116603500Y-106227100D03*
%TO.N,/RAM/A3*%
X147786600Y-99526600D03*
%TO.N,D0*%
X139564800Y-109139200D03*
%TO.N,D1*%
X134800400Y-111159900D03*
%TO.N,D2*%
X130656600Y-108503700D03*
%TO.N,D3*%
X139587000Y-111807700D03*
%TO.N,D4*%
X119707000Y-107732700D03*
X193134100Y-108049600D03*
%TO.N,D6*%
X183914200Y-108013000D03*
%TO.N,D7*%
X128820100Y-115759400D03*
%TO.N,ALU4*%
X102784800Y-68915900D03*
X171762200Y-59071700D03*
X123045400Y-51071800D03*
X122905500Y-64625300D03*
%TO.N,ALU5*%
X119564000Y-49769100D03*
X115387100Y-53528000D03*
X108475400Y-66602600D03*
X170229600Y-58027700D03*
X104346800Y-74383000D03*
X87542400Y-118211500D03*
%TO.N,ALU6*%
X83151000Y-96969200D03*
X78651600Y-103983100D03*
X169429100Y-58149000D03*
X104654100Y-54302800D03*
%TO.N,ALU7*%
X168946000Y-81593900D03*
%TO.N,Net-(U18-Pad9)*%
X74213200Y-139388500D03*
%TO.N,~OE*%
X186071500Y-126819500D03*
X170264400Y-97989800D03*
%TO.N,IR0*%
X219403300Y-124664100D03*
%TO.N,L*%
X83581900Y-132859800D03*
X225339100Y-145905300D03*
X46616300Y-124410900D03*
X156033600Y-87174600D03*
X74306700Y-152400000D03*
%TO.N,H*%
X96430100Y-164740800D03*
X105568000Y-61708700D03*
X190363800Y-78761100D03*
X121920100Y-55370700D03*
X240592900Y-74785300D03*
%TO.N,~PL*%
X184648800Y-120102900D03*
%TO.N,~PH*%
X158948600Y-107539300D03*
X186789800Y-105095200D03*
%TO.N,IR6*%
X169540500Y-169459000D03*
X208599100Y-111866100D03*
%TO.N,IR7*%
X147986900Y-161893100D03*
X184981400Y-163020700D03*
X214068900Y-117662200D03*
%TO.N,IR5*%
X130859700Y-119046200D03*
%TO.N,/CU/INV_C_OUT*%
X143579000Y-128118200D03*
%TO.N,EL*%
X160670300Y-112672800D03*
X139180500Y-112672800D03*
X125377000Y-81280000D03*
%TO.N,EH*%
X163974600Y-60960000D03*
%TO.N,AR3*%
X84812000Y-96870600D03*
X50618000Y-70100000D03*
X40030500Y-81697800D03*
%TO.N,AR2*%
X77478400Y-148881200D03*
X77380100Y-87633900D03*
X38197200Y-132859800D03*
%TO.N,AR1*%
X76364700Y-69345900D03*
%TO.N,AR0*%
X52532000Y-99970200D03*
X48260000Y-114548500D03*
X45122500Y-118649900D03*
X45054600Y-137160000D03*
%TO.N,AL*%
X61025900Y-125593600D03*
X57480400Y-59834700D03*
X58908500Y-86295000D03*
%TO.N,CO*%
X140986800Y-120953000D03*
X146018300Y-132140000D03*
%TO.N,IX*%
X101013500Y-149034900D03*
%TO.N,~XL*%
X133595400Y-149012600D03*
%TO.N,~YL*%
X187339300Y-157887400D03*
%TO.N,~OL*%
X131799000Y-127864900D03*
X113347900Y-51884100D03*
%TO.N,/CU/~BF*%
X140601200Y-119561200D03*
%TO.N,Net-(U4-Pad15)*%
X214093700Y-71649000D03*
X220650100Y-60960000D03*
%TO.N,Net-(U5-Pad15)*%
X205309300Y-63967900D03*
%TO.N,Net-(U22-Pad9)*%
X37782700Y-136813400D03*
%TO.N,Net-(U29-Pad15)*%
X118528900Y-71518900D03*
%TO.N,Net-(D25-Pad2)*%
X149860000Y-148590000D03*
%TD*%
D31*
%TO.N,Net-(C1-Pad1)*%
X182880000Y-48260000D02*
X187550000Y-48260000D01*
X187550000Y-48260000D02*
X187630000Y-48180000D01*
X192405000Y-48260000D02*
X191279700Y-48260000D01*
X187630000Y-48180000D02*
X191199700Y-48180000D01*
X191199700Y-48180000D02*
X191279700Y-48260000D01*
X192405000Y-48260000D02*
X193530300Y-48260000D01*
X208280000Y-49530000D02*
X194800300Y-49530000D01*
X194800300Y-49530000D02*
X193530300Y-48260000D01*
%TO.N,Net-(C2-Pad1)*%
X187630000Y-43300000D02*
X192285000Y-43300000D01*
X192285000Y-43300000D02*
X192405000Y-43180000D01*
X182880000Y-43180000D02*
X183000000Y-43300000D01*
X183000000Y-43300000D02*
X187630000Y-43300000D01*
%TO.N,CLK1*%
X208280000Y-106680000D02*
X207154700Y-106680000D01*
X137019100Y-110320300D02*
X203795700Y-110320300D01*
X203795700Y-110320300D02*
X207154700Y-106961300D01*
X207154700Y-106961300D02*
X207154700Y-106680000D01*
X208280000Y-106680000D02*
X213908900Y-106680000D01*
X213908900Y-106680000D02*
X213956300Y-106727400D01*
X218440000Y-49530000D02*
X215900000Y-49530000D01*
X215900000Y-60960000D02*
X214774700Y-60960000D01*
X200660000Y-60960000D02*
X201785300Y-60960000D01*
X201785300Y-60960000D02*
X202910600Y-62085300D01*
X202910600Y-62085300D02*
X213649400Y-62085300D01*
X213649400Y-62085300D02*
X214774700Y-60960000D01*
X200097400Y-60960000D02*
X200660000Y-60960000D01*
X200097400Y-60960000D02*
X199534700Y-60960000D01*
X187960000Y-60960000D02*
X189085300Y-60960000D01*
X199534700Y-60960000D02*
X198409400Y-62085300D01*
X198409400Y-62085300D02*
X190210600Y-62085300D01*
X190210600Y-62085300D02*
X189085300Y-60960000D01*
X215900000Y-60960000D02*
X217025300Y-60960000D01*
X228600000Y-60960000D02*
X227474700Y-60960000D01*
X227474700Y-60960000D02*
X226349400Y-62085300D01*
X226349400Y-62085300D02*
X218150600Y-62085300D01*
X218150600Y-62085300D02*
X217025300Y-60960000D01*
%TO.N,CLK2*%
X198641500Y-40938000D02*
X180457100Y-40938000D01*
X180457100Y-40938000D02*
X172510100Y-48885000D01*
X172510100Y-48885000D02*
X121000200Y-48885000D01*
X66433700Y-60509600D02*
X68895700Y-60509600D01*
X68895700Y-60509600D02*
X69597500Y-59807800D01*
X69597500Y-59807800D02*
X79905300Y-59807800D01*
X79905300Y-59807800D02*
X81057500Y-60960000D01*
X81057500Y-60960000D02*
X106680000Y-60960000D01*
X222394700Y-41910000D02*
X222394700Y-41699700D01*
X222394700Y-41699700D02*
X221444700Y-40749700D01*
X221444700Y-40749700D02*
X198829800Y-40749700D01*
X198829800Y-40749700D02*
X198641500Y-40938000D01*
X223520000Y-41910000D02*
X222394700Y-41910000D01*
X121357400Y-60960000D02*
X121920000Y-60960000D01*
X121357400Y-60960000D02*
X120794700Y-60960000D01*
X106680000Y-60960000D02*
X107805300Y-60960000D01*
X120794700Y-60960000D02*
X119669400Y-59834700D01*
X119669400Y-59834700D02*
X108930600Y-59834700D01*
X108930600Y-59834700D02*
X107805300Y-60960000D01*
%TO.N,BUS0*%
X112663700Y-144160800D02*
X112201900Y-144160800D01*
X112201900Y-144160800D02*
X107862900Y-148499800D01*
X107862900Y-148499800D02*
X101671600Y-148499800D01*
X101671600Y-148499800D02*
X101549300Y-148377500D01*
X101549300Y-148377500D02*
X100786600Y-148377500D01*
X100786600Y-148377500D02*
X100574100Y-148590000D01*
X100574100Y-148590000D02*
X82139600Y-148590000D01*
X82139600Y-148590000D02*
X79744300Y-150985300D01*
X79744300Y-150985300D02*
X65750600Y-150985300D01*
X65750600Y-150985300D02*
X64625300Y-149860000D01*
X168843300Y-116650800D02*
X168390900Y-117103200D01*
X168390900Y-117103200D02*
X127411400Y-117103200D01*
X228600000Y-63500000D02*
X229725300Y-63500000D01*
X230397500Y-63142500D02*
X230082800Y-63142500D01*
X230082800Y-63142500D02*
X229725300Y-63500000D01*
X233680000Y-41910000D02*
X232554700Y-41910000D01*
X192816600Y-51884100D02*
X210063400Y-51884100D01*
X210063400Y-51884100D02*
X212090000Y-49857500D01*
X212090000Y-49857500D02*
X212090000Y-49131100D01*
X212090000Y-49131100D02*
X218185800Y-43035300D01*
X218185800Y-43035300D02*
X231710800Y-43035300D01*
X231710800Y-43035300D02*
X232554700Y-42191400D01*
X232554700Y-42191400D02*
X232554700Y-41910000D01*
X63500000Y-149860000D02*
X64625300Y-149860000D01*
X62937400Y-149860000D02*
X63500000Y-149860000D01*
X62374700Y-149860000D02*
X61237800Y-148723100D01*
X61237800Y-148723100D02*
X45442200Y-148723100D01*
X45442200Y-148723100D02*
X41765300Y-152400000D01*
X62937400Y-149860000D02*
X62374700Y-149860000D01*
X40640000Y-152400000D02*
X41765300Y-152400000D01*
%TO.N,BUS1*%
X164906900Y-115899500D02*
X164457400Y-116349000D01*
X164457400Y-116349000D02*
X129409700Y-116349000D01*
X40640000Y-127000000D02*
X41765300Y-127000000D01*
X65552600Y-132106500D02*
X65136300Y-132522800D01*
X65136300Y-132522800D02*
X54565300Y-132522800D01*
X54565300Y-132522800D02*
X52852500Y-130810000D01*
X52852500Y-130810000D02*
X45575300Y-130810000D01*
X45575300Y-130810000D02*
X41765300Y-127000000D01*
X63500000Y-154940000D02*
X69030300Y-154940000D01*
X69030300Y-154940000D02*
X70166600Y-156076300D01*
X70166600Y-156076300D02*
X80715100Y-156076300D01*
X80715100Y-156076300D02*
X83022900Y-153768500D01*
X83022900Y-153768500D02*
X116653600Y-153768500D01*
%TO.N,BUS2*%
X63021100Y-87258600D02*
X65334300Y-84945400D01*
X65334300Y-84945400D02*
X79215000Y-84945400D01*
X79215000Y-84945400D02*
X79888400Y-84272000D01*
X79888400Y-84272000D02*
X79888400Y-83311000D01*
X79888400Y-83311000D02*
X77581700Y-81004300D01*
X77581700Y-81004300D02*
X77581700Y-79521800D01*
X77581700Y-79521800D02*
X78257500Y-78846000D01*
X78257500Y-78846000D02*
X79794400Y-78846000D01*
X79794400Y-78846000D02*
X80433000Y-79484600D01*
X80433000Y-79484600D02*
X145460200Y-79484600D01*
X145460200Y-79484600D02*
X152050700Y-86075100D01*
X152050700Y-86075100D02*
X161398900Y-86075100D01*
X161398900Y-86075100D02*
X163830000Y-88506200D01*
X163830000Y-88506200D02*
X163830000Y-89666300D01*
X163830000Y-89666300D02*
X164924400Y-90760700D01*
X63021100Y-87258600D02*
X59860800Y-87258600D01*
X59860800Y-87258600D02*
X59634100Y-87485300D01*
X59634100Y-87485300D02*
X42890600Y-87485300D01*
X42890600Y-87485300D02*
X41765300Y-86360000D01*
X40640000Y-86360000D02*
X41765300Y-86360000D01*
X194195800Y-101744600D02*
X185598000Y-101744600D01*
X185598000Y-101744600D02*
X182076500Y-105266100D01*
X182076500Y-105266100D02*
X169610100Y-105266100D01*
X169610100Y-105266100D02*
X168765300Y-104421300D01*
X168765300Y-104421300D02*
X168765300Y-104140000D01*
X167640000Y-104140000D02*
X168765300Y-104140000D01*
X228600000Y-68580000D02*
X227474700Y-68580000D01*
X211341600Y-68180000D02*
X212066900Y-67454700D01*
X212066900Y-67454700D02*
X226349400Y-67454700D01*
X226349400Y-67454700D02*
X227474700Y-68580000D01*
%TO.N,BUS3*%
X40640000Y-62085300D02*
X40921400Y-62085300D01*
X40921400Y-62085300D02*
X41765300Y-62929200D01*
X41765300Y-62929200D02*
X41765300Y-68811800D01*
X41765300Y-68811800D02*
X47842700Y-74889200D01*
X47842700Y-74889200D02*
X81333400Y-74889200D01*
X81333400Y-74889200D02*
X85453700Y-79009500D01*
X85453700Y-79009500D02*
X146258900Y-79009500D01*
X146258900Y-79009500D02*
X152718600Y-85469200D01*
X152718600Y-85469200D02*
X167874500Y-85469200D01*
X167874500Y-85469200D02*
X170180000Y-87774700D01*
X227551900Y-76998600D02*
X223825100Y-80725400D01*
X223825100Y-80725400D02*
X188675500Y-80725400D01*
X188675500Y-80725400D02*
X181626200Y-87774700D01*
X181626200Y-87774700D02*
X170180000Y-87774700D01*
X204614700Y-121920000D02*
X204614700Y-121638600D01*
X204614700Y-121638600D02*
X203770800Y-120794700D01*
X203770800Y-120794700D02*
X182703300Y-120794700D01*
X205740000Y-121920000D02*
X204614700Y-121920000D01*
X40640000Y-60960000D02*
X40640000Y-62085300D01*
X170180000Y-88900000D02*
X170180000Y-87774700D01*
%TO.N,BUS4*%
X190500000Y-129540000D02*
X189374700Y-129540000D01*
X189374700Y-129540000D02*
X189374700Y-129821300D01*
X189374700Y-129821300D02*
X187956700Y-131239300D01*
X187956700Y-131239300D02*
X149961500Y-131239300D01*
X149961500Y-131239300D02*
X148734600Y-130012400D01*
X148734600Y-130012400D02*
X148734600Y-129278200D01*
X148734600Y-129278200D02*
X145248400Y-125792000D01*
X145248400Y-125792000D02*
X120422700Y-125792000D01*
X120422700Y-125792000D02*
X109295200Y-136919500D01*
X109295200Y-136919500D02*
X92990800Y-136919500D01*
X92990800Y-136919500D02*
X82499900Y-147410400D01*
X168765300Y-88900000D02*
X168765300Y-89181300D01*
X168765300Y-89181300D02*
X169618700Y-90034700D01*
X169618700Y-90034700D02*
X180003100Y-90034700D01*
X180003100Y-90034700D02*
X188649300Y-81388500D01*
X188649300Y-81388500D02*
X202730100Y-81388500D01*
X55880000Y-149860000D02*
X57005300Y-149860000D01*
X78740000Y-154940000D02*
X77614700Y-154940000D01*
X77614700Y-154940000D02*
X76489400Y-153814700D01*
X76489400Y-153814700D02*
X60960000Y-153814700D01*
X60960000Y-153814700D02*
X57005300Y-149860000D01*
X167640000Y-88900000D02*
X168765300Y-88900000D01*
%TO.N,BUS5*%
X105393600Y-130549400D02*
X84539900Y-130549400D01*
X84539900Y-130549400D02*
X79820500Y-125830000D01*
X79820500Y-125830000D02*
X78275400Y-125830000D01*
X78275400Y-125830000D02*
X77614700Y-126490700D01*
X77614700Y-126490700D02*
X77614700Y-129540000D01*
X200264000Y-117733600D02*
X199531300Y-118466300D01*
X199531300Y-118466300D02*
X132229500Y-118466300D01*
X132229500Y-118466300D02*
X131668800Y-117905600D01*
X131668800Y-117905600D02*
X126270100Y-117905600D01*
X126270100Y-117905600D02*
X125430600Y-117066100D01*
X205925600Y-69850000D02*
X208646000Y-69850000D01*
X208646000Y-69850000D02*
X212456000Y-66040000D01*
X212456000Y-66040000D02*
X215900000Y-66040000D01*
X196692700Y-95885600D02*
X199437200Y-98630100D01*
X199437200Y-98630100D02*
X199437200Y-99690900D01*
X166225300Y-88900000D02*
X166225300Y-89181300D01*
X166225300Y-89181300D02*
X167639200Y-90595200D01*
X167639200Y-90595200D02*
X191402300Y-90595200D01*
X191402300Y-90595200D02*
X196692700Y-95885600D01*
X77614700Y-129540000D02*
X76489400Y-130665300D01*
X76489400Y-130665300D02*
X63359100Y-130665300D01*
X63359100Y-130665300D02*
X62128000Y-131896400D01*
X78740000Y-129540000D02*
X77614700Y-129540000D01*
X241300000Y-49530000D02*
X240174700Y-49530000D01*
X240174700Y-49530000D02*
X240174700Y-49248700D01*
X240174700Y-49248700D02*
X236811900Y-45885900D01*
X236811900Y-45885900D02*
X232592600Y-45885900D01*
X165100000Y-88900000D02*
X166225300Y-88900000D01*
%TO.N,BUS6*%
X177603500Y-95982800D02*
X169080200Y-95982800D01*
X169080200Y-95982800D02*
X161997400Y-88900000D01*
X217383800Y-78633300D02*
X193353100Y-78633300D01*
X193353100Y-78633300D02*
X192161700Y-79824700D01*
X192161700Y-79824700D02*
X187417700Y-79824700D01*
X187417700Y-79824700D02*
X187117100Y-80125300D01*
X161997400Y-88900000D02*
X161434700Y-88900000D01*
X162560000Y-88900000D02*
X161997400Y-88900000D01*
X72999700Y-94640300D02*
X78740000Y-88900000D01*
X55880000Y-160020000D02*
X57005300Y-160020000D01*
X72356300Y-158786700D02*
X58238600Y-158786700D01*
X58238600Y-158786700D02*
X57005300Y-160020000D01*
X79302700Y-88900000D02*
X78740000Y-88900000D01*
X79302700Y-88900000D02*
X79865300Y-88900000D01*
X79865300Y-88900000D02*
X81055900Y-90090600D01*
X81055900Y-90090600D02*
X116864800Y-90090600D01*
X116864800Y-90090600D02*
X119180700Y-87774700D01*
X119180700Y-87774700D02*
X155749400Y-87774700D01*
X155749400Y-87774700D02*
X155774600Y-87799900D01*
X155774600Y-87799900D02*
X156292700Y-87799900D01*
X156292700Y-87799900D02*
X156317900Y-87774700D01*
X156317900Y-87774700D02*
X160590800Y-87774700D01*
X160590800Y-87774700D02*
X161434700Y-88618600D01*
X161434700Y-88618600D02*
X161434700Y-88900000D01*
X224317100Y-55100400D02*
X229701200Y-55100400D01*
X229701200Y-55100400D02*
X234146300Y-50655300D01*
X234146300Y-50655300D02*
X241870800Y-50655300D01*
X241870800Y-50655300D02*
X242714700Y-49811400D01*
X242714700Y-49811400D02*
X242714700Y-49530000D01*
X243840000Y-49530000D02*
X242714700Y-49530000D01*
%TO.N,BUS7*%
X160395800Y-84614400D02*
X159063600Y-84614400D01*
X159063600Y-84614400D02*
X153001100Y-78551900D01*
X153001100Y-78551900D02*
X101139800Y-78551900D01*
X101139800Y-78551900D02*
X98268500Y-75680600D01*
X200571300Y-79304300D02*
X199600600Y-80275000D01*
X199600600Y-80275000D02*
X187852000Y-80275000D01*
X187852000Y-80275000D02*
X183512600Y-84614400D01*
X183512600Y-84614400D02*
X160395800Y-84614400D01*
X160395800Y-84614400D02*
X160395800Y-84614500D01*
X63723500Y-84280500D02*
X62627200Y-84280500D01*
X62627200Y-84280500D02*
X62247000Y-84660700D01*
X217025300Y-71120000D02*
X218150600Y-69994700D01*
X218150600Y-69994700D02*
X228872500Y-69994700D01*
X228872500Y-69994700D02*
X230969500Y-67897700D01*
X230969500Y-67897700D02*
X230969500Y-64574500D01*
X230969500Y-64574500D02*
X235854000Y-59690000D01*
X235854000Y-59690000D02*
X237345300Y-59690000D01*
X237345300Y-59690000D02*
X246380000Y-50655300D01*
X215900000Y-71120000D02*
X214774700Y-71120000D01*
X214774700Y-71120000D02*
X214609400Y-70954700D01*
X214609400Y-70954700D02*
X210654100Y-70954700D01*
X210654100Y-70954700D02*
X209152200Y-72456600D01*
X209152200Y-72456600D02*
X203318700Y-72456600D01*
X162258600Y-117829300D02*
X162412300Y-117983000D01*
X162412300Y-117983000D02*
X193504100Y-117983000D01*
X193504100Y-117983000D02*
X193695000Y-117792100D01*
X216462700Y-71120000D02*
X215900000Y-71120000D01*
X216462700Y-71120000D02*
X217025300Y-71120000D01*
X246380000Y-49530000D02*
X246380000Y-50655300D01*
%TO.N,AC0*%
X59012500Y-77970600D02*
X57241900Y-76200000D01*
X57241900Y-76200000D02*
X55880000Y-76200000D01*
X55880000Y-121920000D02*
X59432100Y-121920000D01*
X59432100Y-121920000D02*
X59745600Y-121606500D01*
%TO.N,AC1*%
X58035800Y-127370000D02*
X58035800Y-127870100D01*
X58035800Y-127870100D02*
X56552600Y-129353300D01*
X48260000Y-129540000D02*
X56365900Y-129540000D01*
X56365900Y-129540000D02*
X56552600Y-129353300D01*
%TO.N,AC2*%
X48260000Y-88900000D02*
X49385300Y-88900000D01*
X54171000Y-89781300D02*
X50266600Y-89781300D01*
X50266600Y-89781300D02*
X49385300Y-88900000D01*
%TO.N,AC3*%
X55880000Y-63500000D02*
X48260000Y-63500000D01*
%TO.N,AC4*%
X63500000Y-152400000D02*
X71120000Y-152400000D01*
%TO.N,AC5*%
X70444800Y-127000000D02*
X65780700Y-127000000D01*
X65780700Y-127000000D02*
X65701000Y-126920300D01*
X63500000Y-123045300D02*
X63781300Y-123045300D01*
X63781300Y-123045300D02*
X65701000Y-124965000D01*
X65701000Y-124965000D02*
X65701000Y-126920300D01*
X63500000Y-121920000D02*
X63500000Y-123045300D01*
X71120000Y-127000000D02*
X70444800Y-127000000D01*
%TO.N,AC6*%
X69994700Y-86360000D02*
X68447000Y-87907700D01*
X68447000Y-87907700D02*
X60349600Y-87907700D01*
X63500000Y-104140000D02*
X71458700Y-104140000D01*
X71458700Y-104140000D02*
X71906200Y-103692500D01*
X71120000Y-86360000D02*
X69994700Y-86360000D01*
%TO.N,AC7*%
X63500000Y-111760000D02*
X60191000Y-111760000D01*
X64625300Y-167640000D02*
X67071800Y-170086500D01*
X67071800Y-170086500D02*
X193549900Y-170086500D01*
X193549900Y-170086500D02*
X195461100Y-168175300D01*
X63500000Y-167640000D02*
X64625300Y-167640000D01*
X221454200Y-141965200D02*
X220252500Y-143166900D01*
X220252500Y-143166900D02*
X219565400Y-143166900D01*
X71120000Y-60960000D02*
X69994700Y-60960000D01*
X63500000Y-63500000D02*
X67454700Y-63500000D01*
X67454700Y-63500000D02*
X69994700Y-60960000D01*
%TO.N,ALU3*%
X57705600Y-71761300D02*
X59495700Y-69971200D01*
X59495700Y-69971200D02*
X102613900Y-69971200D01*
X102613900Y-69971200D02*
X105104500Y-67480600D01*
X105104500Y-67480600D02*
X105104500Y-67454700D01*
X120794700Y-71120000D02*
X120794700Y-70979300D01*
X120794700Y-70979300D02*
X116996200Y-67180800D01*
X116996200Y-67180800D02*
X110478100Y-67180800D01*
X110478100Y-67180800D02*
X108142200Y-64844900D01*
X108142200Y-64844900D02*
X106228500Y-64844900D01*
X106228500Y-64844900D02*
X105104500Y-65968900D01*
X105104500Y-65968900D02*
X105104500Y-67454700D01*
X121920000Y-71120000D02*
X120794700Y-71120000D01*
X167640000Y-76200000D02*
X166514700Y-76200000D01*
X121920000Y-71120000D02*
X123045300Y-71120000D01*
X123045300Y-71120000D02*
X124172100Y-69993200D01*
X124172100Y-69993200D02*
X153954200Y-69993200D01*
X153954200Y-69993200D02*
X159035700Y-75074700D01*
X159035700Y-75074700D02*
X165389400Y-75074700D01*
X165389400Y-75074700D02*
X166514700Y-76200000D01*
X49385300Y-109220000D02*
X49385300Y-108938700D01*
X49385300Y-108938700D02*
X51644000Y-106680000D01*
X51644000Y-106680000D02*
X55880000Y-106680000D01*
X48260000Y-109220000D02*
X49385300Y-109220000D01*
%TO.N,ALU2*%
X55880000Y-109220000D02*
X59496500Y-109220000D01*
X161984200Y-81723700D02*
X158338100Y-81723700D01*
X158338100Y-81723700D02*
X153939700Y-77325300D01*
X153939700Y-77325300D02*
X134403200Y-77325300D01*
X134403200Y-77325300D02*
X134058400Y-76980500D01*
X55880000Y-109220000D02*
X54754700Y-109220000D01*
X54754700Y-109220000D02*
X53629400Y-110345300D01*
X53629400Y-110345300D02*
X42609200Y-110345300D01*
X42609200Y-110345300D02*
X41765300Y-109501400D01*
X41765300Y-109501400D02*
X41765300Y-109220000D01*
X40640000Y-109220000D02*
X41765300Y-109220000D01*
X60371100Y-51769100D02*
X87791800Y-51769100D01*
X87791800Y-51769100D02*
X100046200Y-39514700D01*
X100046200Y-39514700D02*
X107250800Y-39514700D01*
X107250800Y-39514700D02*
X108094700Y-40358600D01*
X108094700Y-40358600D02*
X108094700Y-40640000D01*
X109220000Y-40640000D02*
X108094700Y-40640000D01*
%TO.N,ALU1*%
X33020000Y-116840000D02*
X33020000Y-115714700D01*
X116840000Y-40640000D02*
X115264300Y-39064300D01*
X115264300Y-39064300D02*
X81486600Y-39064300D01*
X81486600Y-39064300D02*
X69794900Y-50756000D01*
X69794900Y-50756000D02*
X50501300Y-50756000D01*
X50501300Y-50756000D02*
X41711900Y-59545400D01*
X41711900Y-59545400D02*
X40424300Y-59545400D01*
X40424300Y-59545400D02*
X30511600Y-69458100D01*
X30511600Y-69458100D02*
X30511600Y-113206300D01*
X30511600Y-113206300D02*
X33020000Y-115714700D01*
X33020000Y-116840000D02*
X34145300Y-116840000D01*
X55880000Y-116840000D02*
X54754700Y-116840000D01*
X54754700Y-116840000D02*
X53175500Y-115260800D01*
X53175500Y-115260800D02*
X35443200Y-115260800D01*
X35443200Y-115260800D02*
X34145300Y-116558700D01*
X34145300Y-116558700D02*
X34145300Y-116840000D01*
X119678000Y-56673400D02*
X163693600Y-56673400D01*
X163693600Y-56673400D02*
X165840700Y-58820500D01*
%TO.N,ALU0*%
X92386200Y-115515000D02*
X89315300Y-115515000D01*
X89315300Y-115515000D02*
X83048900Y-121781400D01*
X83048900Y-121781400D02*
X77653000Y-121781400D01*
X77653000Y-121781400D02*
X73836900Y-117965300D01*
X73836900Y-117965300D02*
X73113400Y-117965300D01*
X73113400Y-117965300D02*
X72390000Y-117241900D01*
X72390000Y-117241900D02*
X72390000Y-116512400D01*
X72390000Y-116512400D02*
X71592300Y-115714700D01*
X71592300Y-115714700D02*
X66490100Y-115714700D01*
X66490100Y-115714700D02*
X63950100Y-118254700D01*
X63950100Y-118254700D02*
X58130600Y-118254700D01*
X58130600Y-118254700D02*
X57005300Y-119380000D01*
X118523100Y-69724700D02*
X106428500Y-69724700D01*
X106428500Y-69724700D02*
X105088900Y-71064300D01*
X105088900Y-71064300D02*
X105088900Y-74606800D01*
X105088900Y-74606800D02*
X105182800Y-74700700D01*
X55880000Y-119380000D02*
X57005300Y-119380000D01*
X124835100Y-64625300D02*
X124835100Y-64797900D01*
X124835100Y-64797900D02*
X122454800Y-67178200D01*
X122454800Y-67178200D02*
X119514500Y-67178200D01*
X124835100Y-64625300D02*
X165389400Y-64625300D01*
X165389400Y-64625300D02*
X166514700Y-63500000D01*
X121920000Y-63500000D02*
X123709800Y-63500000D01*
X123709800Y-63500000D02*
X124835100Y-64625300D01*
X41765300Y-116840000D02*
X41765300Y-117121300D01*
X41765300Y-117121300D02*
X44024000Y-119380000D01*
X44024000Y-119380000D02*
X55880000Y-119380000D01*
X167640000Y-63500000D02*
X166514700Y-63500000D01*
X40640000Y-116840000D02*
X41765300Y-116840000D01*
%TO.N,~AE*%
X148900300Y-128024100D02*
X146203500Y-125327300D01*
X146203500Y-125327300D02*
X118199200Y-125327300D01*
X118199200Y-125327300D02*
X108712400Y-134814100D01*
X108712400Y-134814100D02*
X88528700Y-134814100D01*
X88528700Y-134814100D02*
X85048400Y-138294400D01*
X85048400Y-138294400D02*
X67470900Y-138294400D01*
X67470900Y-138294400D02*
X64021200Y-134844700D01*
X64021200Y-134844700D02*
X62972500Y-134844700D01*
X62972500Y-134844700D02*
X56092300Y-141724900D01*
X56092300Y-141724900D02*
X56092300Y-141857100D01*
X227474700Y-129540000D02*
X227474700Y-129258700D01*
X227474700Y-129258700D02*
X224407400Y-126191400D01*
X224407400Y-126191400D02*
X182613700Y-126191400D01*
X182613700Y-126191400D02*
X178039700Y-130765400D01*
X178039700Y-130765400D02*
X154299700Y-130765400D01*
X154299700Y-130765400D02*
X153946800Y-130412500D01*
X228600000Y-129540000D02*
X227474700Y-129540000D01*
X63500000Y-147320000D02*
X62374700Y-147320000D01*
X55880000Y-144780000D02*
X59834700Y-144780000D01*
X59834700Y-144780000D02*
X62374700Y-147320000D01*
%TO.N,Y0*%
X153525300Y-60960000D02*
X154650600Y-59834700D01*
X154650600Y-59834700D02*
X165121700Y-59834700D01*
X165121700Y-59834700D02*
X166247000Y-60960000D01*
X166247000Y-60960000D02*
X166514700Y-60960000D01*
X167640000Y-60960000D02*
X168765300Y-60960000D01*
X199534700Y-63500000D02*
X198409400Y-64625300D01*
X198409400Y-64625300D02*
X172430600Y-64625300D01*
X172430600Y-64625300D02*
X168765300Y-60960000D01*
X200660000Y-63500000D02*
X199534700Y-63500000D01*
X167077400Y-60960000D02*
X167640000Y-60960000D01*
X167077400Y-60960000D02*
X166514700Y-60960000D01*
X152400000Y-60960000D02*
X153525300Y-60960000D01*
%TO.N,Y1*%
X167640000Y-68580000D02*
X168765300Y-68580000D01*
X200660000Y-66040000D02*
X199534700Y-66040000D01*
X199534700Y-66040000D02*
X198120000Y-67454700D01*
X198120000Y-67454700D02*
X169890600Y-67454700D01*
X169890600Y-67454700D02*
X168765300Y-68580000D01*
%TO.N,Y2*%
X200660000Y-68580000D02*
X199534700Y-68580000D01*
X167640000Y-71120000D02*
X168765300Y-71120000D01*
X168765300Y-71120000D02*
X169941800Y-72296500D01*
X169941800Y-72296500D02*
X184714100Y-72296500D01*
X184714100Y-72296500D02*
X187305300Y-69705300D01*
X187305300Y-69705300D02*
X198409400Y-69705300D01*
X198409400Y-69705300D02*
X199534700Y-68580000D01*
X160020000Y-71120000D02*
X167640000Y-71120000D01*
%TO.N,Y3*%
X199534700Y-71120000D02*
X198409400Y-72245300D01*
X198409400Y-72245300D02*
X185423900Y-72245300D01*
X185423900Y-72245300D02*
X177803900Y-79865300D01*
X177803900Y-79865300D02*
X169890600Y-79865300D01*
X169890600Y-79865300D02*
X168765300Y-78740000D01*
X167640000Y-78740000D02*
X168765300Y-78740000D01*
X200660000Y-71120000D02*
X199534700Y-71120000D01*
X144780000Y-71120000D02*
X145905300Y-71120000D01*
X167640000Y-78740000D02*
X159569400Y-78740000D01*
X159569400Y-78740000D02*
X153074700Y-72245300D01*
X153074700Y-72245300D02*
X147030600Y-72245300D01*
X147030600Y-72245300D02*
X145905300Y-71120000D01*
%TO.N,Y4*%
X187960000Y-63500000D02*
X178925300Y-63500000D01*
X178925300Y-63500000D02*
X176385300Y-60960000D01*
X175260000Y-60960000D02*
X176385300Y-60960000D01*
%TO.N,Y6*%
X175260000Y-71120000D02*
X174134700Y-71120000D01*
X137160000Y-68580000D02*
X138285300Y-68580000D01*
X138285300Y-68580000D02*
X139418600Y-67446700D01*
X139418600Y-67446700D02*
X155678800Y-67446700D01*
X155678800Y-67446700D02*
X158226800Y-69994700D01*
X158226800Y-69994700D02*
X173009400Y-69994700D01*
X173009400Y-69994700D02*
X174134700Y-71120000D01*
X175260000Y-71120000D02*
X176385300Y-71120000D01*
X176385300Y-71120000D02*
X178925300Y-68580000D01*
X178925300Y-68580000D02*
X187960000Y-68580000D01*
%TO.N,/RAM/A7*%
X114300000Y-92565300D02*
X114018600Y-92565300D01*
X114018600Y-92565300D02*
X113174700Y-93409200D01*
X113174700Y-93409200D02*
X113174700Y-96993700D01*
X113174700Y-96993700D02*
X113971000Y-97790000D01*
X113971000Y-97790000D02*
X114830200Y-97790000D01*
X114830200Y-97790000D02*
X120054900Y-103014700D01*
X120054900Y-103014700D02*
X140270800Y-103014700D01*
X140270800Y-103014700D02*
X141114700Y-103858600D01*
X141114700Y-103858600D02*
X141114700Y-104140000D01*
X114300000Y-91440000D02*
X114300000Y-92565300D01*
X142240000Y-104140000D02*
X141114700Y-104140000D01*
%TO.N,/RAM/A6*%
X114300000Y-99060000D02*
X115425300Y-99060000D01*
X144780000Y-104140000D02*
X143654700Y-104140000D01*
X143654700Y-104140000D02*
X143654700Y-104421300D01*
X143654700Y-104421300D02*
X142810600Y-105265400D01*
X142810600Y-105265400D02*
X121630700Y-105265400D01*
X121630700Y-105265400D02*
X115425300Y-99060000D01*
%TO.N,/RAM/A5*%
X146194700Y-104140000D02*
X146194700Y-104421300D01*
X146194700Y-104421300D02*
X144871800Y-105744200D01*
X144871800Y-105744200D02*
X117029500Y-105744200D01*
X117029500Y-105744200D02*
X107805300Y-96520000D01*
X106680000Y-96520000D02*
X107805300Y-96520000D01*
X147320000Y-104140000D02*
X146194700Y-104140000D01*
%TO.N,/RAM/A4*%
X148734700Y-104140000D02*
X148734700Y-104421300D01*
X148734700Y-104421300D02*
X146928900Y-106227100D01*
X146928900Y-106227100D02*
X116603500Y-106227100D01*
X149860000Y-104140000D02*
X148734700Y-104140000D01*
%TO.N,/RAM/A3*%
X130665300Y-99060000D02*
X131131900Y-99526600D01*
X131131900Y-99526600D02*
X147786600Y-99526600D01*
X129540000Y-99060000D02*
X130665300Y-99060000D01*
%TO.N,/RAM/A2*%
X121920000Y-96520000D02*
X123045300Y-96520000D01*
X154940000Y-104140000D02*
X153814700Y-104140000D01*
X153814700Y-104140000D02*
X153814700Y-103858700D01*
X153814700Y-103858700D02*
X147601300Y-97645300D01*
X147601300Y-97645300D02*
X124170600Y-97645300D01*
X124170600Y-97645300D02*
X123045300Y-96520000D01*
%TO.N,/RAM/A1*%
X157480000Y-104140000D02*
X156354700Y-104140000D01*
X121920000Y-88900000D02*
X123045300Y-88900000D01*
X156354700Y-104140000D02*
X156354700Y-103858700D01*
X156354700Y-103858700D02*
X145206000Y-92710000D01*
X145206000Y-92710000D02*
X126855300Y-92710000D01*
X126855300Y-92710000D02*
X123045300Y-88900000D01*
%TO.N,/RAM/A0*%
X160020000Y-104140000D02*
X158894700Y-104140000D01*
X129540000Y-91440000D02*
X146476000Y-91440000D01*
X146476000Y-91440000D02*
X158894700Y-103858700D01*
X158894700Y-103858700D02*
X158894700Y-104140000D01*
%TO.N,D0*%
X139564800Y-109139200D02*
X140033300Y-109607700D01*
X140033300Y-109607700D02*
X201968300Y-109607700D01*
X201968300Y-109607700D02*
X204614700Y-106961300D01*
X204614700Y-106961300D02*
X204614700Y-106680000D01*
X205740000Y-106680000D02*
X204614700Y-106680000D01*
%TO.N,D1*%
X204614700Y-114300000D02*
X204614700Y-114018700D01*
X204614700Y-114018700D02*
X201755900Y-111159900D01*
X201755900Y-111159900D02*
X134800400Y-111159900D01*
X205740000Y-114300000D02*
X204614700Y-114300000D01*
%TO.N,D2*%
X130656600Y-108503700D02*
X139813700Y-108503700D01*
X139813700Y-108503700D02*
X140421100Y-109111100D01*
X140421100Y-109111100D02*
X194844900Y-109111100D01*
X194844900Y-109111100D02*
X196994700Y-106961300D01*
X196994700Y-106961300D02*
X196994700Y-106680000D01*
X198120000Y-106680000D02*
X196994700Y-106680000D01*
%TO.N,D3*%
X196994700Y-114300000D02*
X196994700Y-114089700D01*
X196994700Y-114089700D02*
X194712700Y-111807700D01*
X194712700Y-111807700D02*
X139587000Y-111807700D01*
X198120000Y-114300000D02*
X196994700Y-114300000D01*
%TO.N,D4*%
X119707000Y-107732700D02*
X157620800Y-107732700D01*
X157620800Y-107732700D02*
X158526400Y-108638300D01*
X158526400Y-108638300D02*
X192545400Y-108638300D01*
X192545400Y-108638300D02*
X193134100Y-108049600D01*
X195580000Y-106680000D02*
X194454700Y-106680000D01*
X194454700Y-106680000D02*
X194454700Y-106863500D01*
X194454700Y-106863500D02*
X193268600Y-108049600D01*
X193268600Y-108049600D02*
X193134100Y-108049600D01*
%TO.N,D5*%
X106680000Y-93980000D02*
X106680000Y-95105300D01*
X195580000Y-114300000D02*
X194454700Y-114300000D01*
X194454700Y-114300000D02*
X194454700Y-114018700D01*
X194454700Y-114018700D02*
X193565200Y-113129200D01*
X193565200Y-113129200D02*
X183706000Y-113129200D01*
X183706000Y-113129200D02*
X183529200Y-113306000D01*
X183529200Y-113306000D02*
X122726200Y-113306000D01*
X122726200Y-113306000D02*
X107246600Y-97826400D01*
X107246600Y-97826400D02*
X106327400Y-97826400D01*
X106327400Y-97826400D02*
X105554700Y-97053700D01*
X105554700Y-97053700D02*
X105554700Y-95949200D01*
X105554700Y-95949200D02*
X106398600Y-95105300D01*
X106398600Y-95105300D02*
X106680000Y-95105300D01*
%TO.N,D6*%
X115425300Y-96520000D02*
X119791400Y-100886100D01*
X119791400Y-100886100D02*
X148265500Y-100886100D01*
X148265500Y-100886100D02*
X151130000Y-103750600D01*
X151130000Y-103750600D02*
X151130000Y-104486600D01*
X151130000Y-104486600D02*
X152509000Y-105865600D01*
X152509000Y-105865600D02*
X156390600Y-105865600D01*
X156390600Y-105865600D02*
X158689600Y-108164600D01*
X158689600Y-108164600D02*
X183762600Y-108164600D01*
X183762600Y-108164600D02*
X183914200Y-108013000D01*
X114300000Y-96520000D02*
X115425300Y-96520000D01*
X187960000Y-106680000D02*
X186627000Y-108013000D01*
X186627000Y-108013000D02*
X183914200Y-108013000D01*
%TO.N,D7*%
X186834700Y-114300000D02*
X186834700Y-115003300D01*
X186834700Y-115003300D02*
X186412600Y-115425400D01*
X186412600Y-115425400D02*
X165404600Y-115425400D01*
X165404600Y-115425400D02*
X165209700Y-115230500D01*
X165209700Y-115230500D02*
X129349000Y-115230500D01*
X129349000Y-115230500D02*
X128820100Y-115759400D01*
X187960000Y-114300000D02*
X186834700Y-114300000D01*
%TO.N,ALU4*%
X102784800Y-68915900D02*
X102784800Y-67395200D01*
X102784800Y-67395200D02*
X106680000Y-63500000D01*
X123045400Y-51071800D02*
X164204600Y-51071800D01*
X164204600Y-51071800D02*
X171762200Y-58629400D01*
X171762200Y-58629400D02*
X171762200Y-59071700D01*
X122905500Y-64625300D02*
X108930600Y-64625300D01*
X108930600Y-64625300D02*
X107805300Y-63500000D01*
X75074700Y-116840000D02*
X75074700Y-116558600D01*
X75074700Y-116558600D02*
X73780500Y-115264400D01*
X73780500Y-115264400D02*
X66200900Y-115264400D01*
X66200900Y-115264400D02*
X64625300Y-116840000D01*
X106680000Y-63500000D02*
X107805300Y-63500000D01*
X76200000Y-116840000D02*
X75074700Y-116840000D01*
X63500000Y-116840000D02*
X64625300Y-116840000D01*
%TO.N,ALU5*%
X68580000Y-116840000D02*
X67454700Y-116840000D01*
X63500000Y-119380000D02*
X64914700Y-119380000D01*
X64914700Y-119380000D02*
X67454700Y-116840000D01*
X119564000Y-49769100D02*
X122393200Y-52598300D01*
X122393200Y-52598300D02*
X164800200Y-52598300D01*
X164800200Y-52598300D02*
X170229600Y-58027700D01*
X119564000Y-49769100D02*
X115805100Y-53528000D01*
X115805100Y-53528000D02*
X115387100Y-53528000D01*
X106680000Y-66602600D02*
X108475400Y-66602600D01*
X106680000Y-66602600D02*
X106680000Y-67165300D01*
X106680000Y-66040000D02*
X106680000Y-66602600D01*
X104346800Y-74383000D02*
X104346800Y-69314800D01*
X104346800Y-69314800D02*
X106496300Y-67165300D01*
X106496300Y-67165300D02*
X106680000Y-67165300D01*
X87542400Y-118211500D02*
X83522200Y-122231700D01*
X83522200Y-122231700D02*
X77466400Y-122231700D01*
X77466400Y-122231700D02*
X73650300Y-118415600D01*
X73650300Y-118415600D02*
X70999500Y-118415600D01*
X70999500Y-118415600D02*
X69705300Y-117121400D01*
X69705300Y-117121400D02*
X69705300Y-116840000D01*
X68580000Y-116840000D02*
X69705300Y-116840000D01*
%TO.N,ALU6*%
X78651600Y-103983100D02*
X83151000Y-99483700D01*
X83151000Y-99483700D02*
X83151000Y-96969200D01*
X104654100Y-54302800D02*
X165582900Y-54302800D01*
X165582900Y-54302800D02*
X169429100Y-58149000D01*
X76200000Y-109220000D02*
X75074700Y-109220000D01*
X63500000Y-106680000D02*
X64625300Y-106680000D01*
X64625300Y-106680000D02*
X64625300Y-106961300D01*
X64625300Y-106961300D02*
X68009300Y-110345300D01*
X68009300Y-110345300D02*
X74142200Y-110345300D01*
X74142200Y-110345300D02*
X75074700Y-109412800D01*
X75074700Y-109412800D02*
X75074700Y-109220000D01*
%TO.N,ALU7*%
X168946000Y-81593900D02*
X168101600Y-82438300D01*
X168101600Y-82438300D02*
X157524400Y-82438300D01*
X157524400Y-82438300D02*
X152861800Y-77775700D01*
X152861800Y-77775700D02*
X110345500Y-77775700D01*
X110345500Y-77775700D02*
X107499800Y-74930000D01*
X107499800Y-74930000D02*
X106358500Y-74930000D01*
X106358500Y-74930000D02*
X105554600Y-74126100D01*
X105554600Y-74126100D02*
X105554600Y-73089400D01*
X105554600Y-73089400D02*
X106398700Y-72245300D01*
X106398700Y-72245300D02*
X106680000Y-72245300D01*
X106680000Y-71120000D02*
X106680000Y-72245300D01*
X64625300Y-109220000D02*
X66200900Y-110795600D01*
X66200900Y-110795600D02*
X81400400Y-110795600D01*
X81400400Y-110795600D02*
X82694700Y-109501300D01*
X82694700Y-109501300D02*
X82694700Y-109220000D01*
X63500000Y-109220000D02*
X64625300Y-109220000D01*
X83820000Y-109220000D02*
X82694700Y-109220000D01*
%TO.N,Net-(U18-Pad9)*%
X78740000Y-142240000D02*
X77064700Y-142240000D01*
X77064700Y-142240000D02*
X74213200Y-139388500D01*
%TO.N,~OE*%
X186071500Y-126819500D02*
X222418500Y-126819500D01*
X222418500Y-126819500D02*
X224934700Y-129335700D01*
X224934700Y-129335700D02*
X224934700Y-129540000D01*
X152400000Y-88900000D02*
X153525300Y-88900000D01*
X226060000Y-129540000D02*
X224934700Y-129540000D01*
X153525300Y-88900000D02*
X153525300Y-89181300D01*
X153525300Y-89181300D02*
X162333800Y-97989800D01*
X162333800Y-97989800D02*
X170264400Y-97989800D01*
%TO.N,IR0*%
X236220000Y-114300000D02*
X235094700Y-114300000D01*
X235094700Y-114300000D02*
X235094700Y-114581400D01*
X235094700Y-114581400D02*
X234250800Y-115425300D01*
X234250800Y-115425300D02*
X233488900Y-115425300D01*
X233488900Y-115425300D02*
X227330000Y-121584200D01*
X227330000Y-121584200D02*
X227330000Y-122288300D01*
X227330000Y-122288300D02*
X224954200Y-124664100D01*
X224954200Y-124664100D02*
X219403300Y-124664100D01*
%TO.N,~DE*%
X186545300Y-129540000D02*
X186545300Y-129310500D01*
X186545300Y-129310500D02*
X187441100Y-128414700D01*
X187441100Y-128414700D02*
X221550700Y-128414700D01*
X221550700Y-128414700D02*
X222394700Y-129258700D01*
X222394700Y-129258700D02*
X222394700Y-129540000D01*
X185420000Y-129540000D02*
X186545300Y-129540000D01*
X223520000Y-129540000D02*
X222394700Y-129540000D01*
%TO.N,L*%
X79865300Y-132682000D02*
X83404100Y-132682000D01*
X83404100Y-132682000D02*
X83581900Y-132859800D01*
X71120000Y-134620000D02*
X76939800Y-134620000D01*
X76939800Y-134620000D02*
X78209800Y-133350000D01*
X78209800Y-133350000D02*
X79197300Y-133350000D01*
X79197300Y-133350000D02*
X79865300Y-132682000D01*
X79865300Y-132682000D02*
X79865300Y-128969200D01*
X79865300Y-128969200D02*
X79021400Y-128125300D01*
X79021400Y-128125300D02*
X78740000Y-128125300D01*
X72245300Y-93980000D02*
X72245300Y-93698700D01*
X72245300Y-93698700D02*
X78458700Y-87485300D01*
X78458700Y-87485300D02*
X78740000Y-87485300D01*
X71120000Y-134620000D02*
X69994700Y-134620000D01*
X48260000Y-134620000D02*
X49385300Y-134620000D01*
X49385300Y-134620000D02*
X50074000Y-133931300D01*
X50074000Y-133931300D02*
X69306000Y-133931300D01*
X69306000Y-133931300D02*
X69994700Y-134620000D01*
X50510600Y-72386600D02*
X50510600Y-71710800D01*
X50510600Y-71710800D02*
X48505100Y-69705300D01*
X48505100Y-69705300D02*
X48260000Y-69705300D01*
X49385300Y-73660000D02*
X50510600Y-72534700D01*
X50510600Y-72534700D02*
X50510600Y-72386600D01*
X50510600Y-72386600D02*
X68728100Y-72386600D01*
X68728100Y-72386600D02*
X69994700Y-71120000D01*
X48260000Y-99060000D02*
X48260000Y-97934700D01*
X49385300Y-93980000D02*
X49385300Y-97090800D01*
X49385300Y-97090800D02*
X48541400Y-97934700D01*
X48541400Y-97934700D02*
X48260000Y-97934700D01*
X49385300Y-93980000D02*
X69994700Y-93980000D01*
X190500000Y-99060000D02*
X191625300Y-99060000D01*
X236220000Y-99060000D02*
X235094700Y-99060000D01*
X235094700Y-99060000D02*
X235094700Y-98778700D01*
X235094700Y-98778700D02*
X234225100Y-97909100D01*
X234225100Y-97909100D02*
X210314200Y-97909100D01*
X210314200Y-97909100D02*
X209550000Y-98673300D01*
X209550000Y-98673300D02*
X209550000Y-99392200D01*
X209550000Y-99392200D02*
X208568100Y-100374100D01*
X208568100Y-100374100D02*
X192658100Y-100374100D01*
X192658100Y-100374100D02*
X191625300Y-99341300D01*
X191625300Y-99341300D02*
X191625300Y-99060000D01*
X190500000Y-99060000D02*
X189374700Y-99060000D01*
X157480000Y-88900000D02*
X158605300Y-88900000D01*
X158605300Y-88900000D02*
X158605300Y-89181300D01*
X158605300Y-89181300D02*
X166595300Y-97171300D01*
X166595300Y-97171300D02*
X188189300Y-97171300D01*
X188189300Y-97171300D02*
X189374700Y-98356700D01*
X189374700Y-98356700D02*
X189374700Y-99060000D01*
X220980000Y-145905300D02*
X225339100Y-145905300D01*
X220980000Y-144780000D02*
X220980000Y-145905300D01*
X152400000Y-58420000D02*
X151274700Y-58420000D01*
X137160000Y-58420000D02*
X138285300Y-58420000D01*
X138285300Y-58420000D02*
X139410600Y-59545300D01*
X139410600Y-59545300D02*
X150149400Y-59545300D01*
X150149400Y-59545300D02*
X151274700Y-58420000D01*
X114300000Y-83820000D02*
X118978500Y-83820000D01*
X118978500Y-83820000D02*
X120144900Y-82653600D01*
X120144900Y-82653600D02*
X127248300Y-82653600D01*
X127248300Y-82653600D02*
X128414700Y-83820000D01*
X99060000Y-139700000D02*
X100185300Y-139700000D01*
X100185300Y-139700000D02*
X102725300Y-142240000D01*
X102725300Y-142240000D02*
X106680000Y-142240000D01*
X78740000Y-127000000D02*
X78740000Y-128125300D01*
X41765300Y-124460000D02*
X41814400Y-124410900D01*
X41814400Y-124410900D02*
X46616300Y-124410900D01*
X40640000Y-124460000D02*
X41765300Y-124460000D01*
X40640000Y-58420000D02*
X41765300Y-58420000D01*
X59565000Y-44450000D02*
X53709400Y-50305600D01*
X53709400Y-50305600D02*
X49879700Y-50305600D01*
X49879700Y-50305600D02*
X41765300Y-58420000D01*
X69994700Y-162560000D02*
X68580000Y-163974700D01*
X68580000Y-163974700D02*
X50510600Y-163974700D01*
X50510600Y-163974700D02*
X49385300Y-165100000D01*
X129540000Y-83820000D02*
X130665300Y-83820000D01*
X156033600Y-87174600D02*
X134019900Y-87174600D01*
X134019900Y-87174600D02*
X130665300Y-83820000D01*
X129540000Y-83820000D02*
X128414700Y-83820000D01*
X71120000Y-93980000D02*
X69994700Y-93980000D01*
X48260000Y-93980000D02*
X49385300Y-93980000D01*
X114300000Y-83820000D02*
X113174700Y-83820000D01*
X113174700Y-83820000D02*
X112049400Y-84945300D01*
X112049400Y-84945300D02*
X81280000Y-84945300D01*
X81280000Y-84945300D02*
X79865300Y-86360000D01*
X78740000Y-86360000D02*
X79865300Y-86360000D01*
X48260000Y-68580000D02*
X48260000Y-69705300D01*
X48260000Y-139700000D02*
X48260000Y-140825300D01*
X48260000Y-140825300D02*
X48541300Y-140825300D01*
X48541300Y-140825300D02*
X49385400Y-141669400D01*
X49385400Y-141669400D02*
X49385400Y-142715900D01*
X49385400Y-142715900D02*
X42241300Y-149860000D01*
X42241300Y-149860000D02*
X40640000Y-149860000D01*
X48260000Y-73660000D02*
X49385300Y-73660000D01*
X71120000Y-71120000D02*
X69994700Y-71120000D01*
X71682700Y-93980000D02*
X71120000Y-93980000D01*
X71682700Y-93980000D02*
X72245300Y-93980000D01*
X78740000Y-86360000D02*
X78740000Y-87485300D01*
X78740000Y-152400000D02*
X74306700Y-152400000D01*
X48260000Y-165100000D02*
X49385300Y-165100000D01*
X71120000Y-162560000D02*
X69994700Y-162560000D01*
X124460000Y-167640000D02*
X127000000Y-167640000D01*
X185420000Y-167640000D02*
X182880000Y-167640000D01*
%TO.N,H*%
X71120000Y-157480000D02*
X72245300Y-157480000D01*
X72245300Y-157480000D02*
X72245300Y-157738600D01*
X72245300Y-157738600D02*
X78242800Y-163736100D01*
X78242800Y-163736100D02*
X95425400Y-163736100D01*
X95425400Y-163736100D02*
X96430100Y-164740800D01*
X70557400Y-157480000D02*
X71120000Y-157480000D01*
X70557400Y-157480000D02*
X69994700Y-157480000D01*
X71120000Y-63500000D02*
X72245300Y-63500000D01*
X105568000Y-61708700D02*
X103624800Y-61708700D01*
X103624800Y-61708700D02*
X102958800Y-62374700D01*
X102958800Y-62374700D02*
X73370600Y-62374700D01*
X73370600Y-62374700D02*
X72245300Y-63500000D01*
X228600000Y-73660000D02*
X229725300Y-73660000D01*
X236220000Y-74222600D02*
X230287900Y-74222600D01*
X230287900Y-74222600D02*
X229725300Y-73660000D01*
X236220000Y-74222600D02*
X236220000Y-74785300D01*
X236220000Y-73660000D02*
X236220000Y-74222600D01*
X223520000Y-137160000D02*
X222394700Y-137160000D01*
X218440000Y-137160000D02*
X219565300Y-137160000D01*
X219565300Y-137160000D02*
X219565300Y-136878700D01*
X219565300Y-136878700D02*
X220409300Y-136034700D01*
X220409300Y-136034700D02*
X221550800Y-136034700D01*
X221550800Y-136034700D02*
X222394700Y-136878600D01*
X222394700Y-136878600D02*
X222394700Y-137160000D01*
X190363800Y-78761100D02*
X183394300Y-78761100D01*
X183394300Y-78761100D02*
X179713800Y-82441600D01*
X179713800Y-82441600D02*
X170827100Y-82441600D01*
X170827100Y-82441600D02*
X168531700Y-80146200D01*
X168531700Y-80146200D02*
X159114500Y-80146200D01*
X159114500Y-80146200D02*
X154042900Y-75074600D01*
X154042900Y-75074600D02*
X151944600Y-75074600D01*
X151944600Y-75074600D02*
X150530000Y-73660000D01*
X150530000Y-73660000D02*
X144780000Y-73660000D01*
X144780000Y-73660000D02*
X143654700Y-73660000D01*
X143654700Y-73660000D02*
X141114700Y-71120000D01*
X141114700Y-71120000D02*
X137160000Y-71120000D01*
X121920000Y-58420000D02*
X123045300Y-58420000D01*
X137160000Y-63500000D02*
X136034700Y-63500000D01*
X136034700Y-63500000D02*
X132080000Y-59545300D01*
X132080000Y-59545300D02*
X124170600Y-59545300D01*
X124170600Y-59545300D02*
X123045300Y-58420000D01*
X106680000Y-58420000D02*
X107805300Y-58420000D01*
X121920100Y-55370700D02*
X110854600Y-55370700D01*
X110854600Y-55370700D02*
X107805300Y-58420000D01*
X71120000Y-91440000D02*
X69994700Y-91440000D01*
X48260000Y-91440000D02*
X49385300Y-91440000D01*
X49385300Y-91440000D02*
X69994700Y-91440000D01*
X49385300Y-132080000D02*
X50279500Y-132974200D01*
X50279500Y-132974200D02*
X69100500Y-132974200D01*
X69100500Y-132974200D02*
X69994700Y-132080000D01*
X228600000Y-73660000D02*
X227474700Y-73660000D01*
X227474700Y-73660000D02*
X226055300Y-73660000D01*
X226055300Y-73660000D02*
X224921300Y-74794000D01*
X224921300Y-74794000D02*
X223062400Y-74794000D01*
X223062400Y-74794000D02*
X221928400Y-73660000D01*
X221928400Y-73660000D02*
X215900000Y-73660000D01*
X130665300Y-73660000D02*
X133205300Y-71120000D01*
X133205300Y-71120000D02*
X137160000Y-71120000D01*
X237345300Y-74785300D02*
X240592900Y-74785300D01*
X236220000Y-74785300D02*
X237345300Y-74785300D01*
X191625300Y-83820000D02*
X191625300Y-83538600D01*
X191625300Y-83538600D02*
X192469200Y-82694700D01*
X192469200Y-82694700D02*
X231329200Y-82694700D01*
X231329200Y-82694700D02*
X237345300Y-76678600D01*
X237345300Y-76678600D02*
X237345300Y-74785300D01*
X190500000Y-83820000D02*
X191625300Y-83820000D01*
X129540000Y-73660000D02*
X130665300Y-73660000D01*
X48260000Y-66602600D02*
X47093900Y-65436500D01*
X47093900Y-65436500D02*
X47093900Y-60478300D01*
X47093900Y-60478300D02*
X47882200Y-59690000D01*
X47882200Y-59690000D02*
X49079700Y-59690000D01*
X49079700Y-59690000D02*
X50349700Y-58420000D01*
X50349700Y-58420000D02*
X55880000Y-58420000D01*
X48260000Y-66602600D02*
X48260000Y-67165300D01*
X48260000Y-66040000D02*
X48260000Y-66602600D01*
X48260000Y-71120000D02*
X47134700Y-69994700D01*
X47134700Y-69994700D02*
X47134700Y-68009200D01*
X47134700Y-68009200D02*
X47978600Y-67165300D01*
X47978600Y-67165300D02*
X48260000Y-67165300D01*
X48260000Y-162560000D02*
X48260000Y-161434700D01*
X48260000Y-161434700D02*
X48541400Y-161434700D01*
X48541400Y-161434700D02*
X49385300Y-160590800D01*
X49385300Y-160590800D02*
X49385300Y-157480000D01*
X48260000Y-66040000D02*
X49385300Y-66040000D01*
X71120000Y-66040000D02*
X69994700Y-66040000D01*
X69994700Y-66040000D02*
X68869400Y-64914700D01*
X68869400Y-64914700D02*
X50510600Y-64914700D01*
X50510600Y-64914700D02*
X49385300Y-66040000D01*
X71120000Y-132080000D02*
X69994700Y-132080000D01*
X48260000Y-132080000D02*
X49385300Y-132080000D01*
X48260000Y-157480000D02*
X49385300Y-157480000D01*
X69994700Y-157480000D02*
X68869400Y-156354700D01*
X68869400Y-156354700D02*
X50510600Y-156354700D01*
X50510600Y-156354700D02*
X49385300Y-157480000D01*
X226060000Y-137160000D02*
X223520000Y-137160000D01*
X228600000Y-137160000D02*
X226060000Y-137160000D01*
X231140000Y-137160000D02*
X228600000Y-137160000D01*
%TO.N,IR2*%
X227474700Y-144780000D02*
X227474700Y-145061300D01*
X227474700Y-145061300D02*
X212378200Y-160157800D01*
X212378200Y-160157800D02*
X198911100Y-160157800D01*
X198911100Y-160157800D02*
X191770000Y-167298900D01*
X191770000Y-167298900D02*
X191770000Y-167967500D01*
X191770000Y-167967500D02*
X190972100Y-168765400D01*
X190972100Y-168765400D02*
X177229400Y-168765400D01*
X177229400Y-168765400D02*
X176385300Y-167921300D01*
X176385300Y-167921300D02*
X176385300Y-167640000D01*
X228600000Y-106680000D02*
X228600000Y-107805300D01*
X228600000Y-107805300D02*
X229749400Y-108954700D01*
X229749400Y-108954700D02*
X229749400Y-115690600D01*
X229749400Y-115690600D02*
X223520000Y-121920000D01*
X228600000Y-144780000D02*
X227474700Y-144780000D01*
X175260000Y-167640000D02*
X176385300Y-167640000D01*
%TO.N,IR3*%
X220980000Y-121920000D02*
X222105300Y-121920000D01*
X228600000Y-114300000D02*
X228600000Y-115425300D01*
X228600000Y-115425300D02*
X228318700Y-115425300D01*
X228318700Y-115425300D02*
X222105300Y-121638700D01*
X222105300Y-121638700D02*
X222105300Y-121920000D01*
%TO.N,IR4*%
X218440000Y-121920000D02*
X219565300Y-121920000D01*
X226060000Y-114300000D02*
X226060000Y-115425300D01*
X226060000Y-115425300D02*
X225778700Y-115425300D01*
X225778700Y-115425300D02*
X219565300Y-121638700D01*
X219565300Y-121638700D02*
X219565300Y-121920000D01*
%TO.N,~PL*%
X184648800Y-120102900D02*
X169412400Y-120102900D01*
X169412400Y-120102900D02*
X167595300Y-121920000D01*
X166370000Y-121920000D02*
X167595300Y-121920000D01*
X200660000Y-73660000D02*
X201785300Y-73660000D01*
X201785300Y-73660000D02*
X204907700Y-73660000D01*
X204907700Y-73660000D02*
X206089400Y-74841700D01*
X206089400Y-74841700D02*
X221036400Y-74841700D01*
X221036400Y-74841700D02*
X222394700Y-76200000D01*
X223520000Y-76200000D02*
X222394700Y-76200000D01*
X224082700Y-76200000D02*
X223520000Y-76200000D01*
X166370000Y-129540000D02*
X166370000Y-128270000D01*
X166370000Y-128270000D02*
X168910000Y-125730000D01*
X200660000Y-73660000D02*
X199534700Y-73660000D01*
X189085300Y-73660000D02*
X190210600Y-74785300D01*
X190210600Y-74785300D02*
X198409400Y-74785300D01*
X198409400Y-74785300D02*
X199534700Y-73660000D01*
X187960000Y-73660000D02*
X189085300Y-73660000D01*
X224082700Y-76200000D02*
X224645300Y-76200000D01*
X236220000Y-76200000D02*
X235094700Y-76200000D01*
X235094700Y-76200000D02*
X233969400Y-75074700D01*
X233969400Y-75074700D02*
X225770600Y-75074700D01*
X225770600Y-75074700D02*
X224645300Y-76200000D01*
%TO.N,~PH*%
X186789800Y-105095200D02*
X183202500Y-105095200D01*
X183202500Y-105095200D02*
X180758400Y-107539300D01*
X180758400Y-107539300D02*
X158948600Y-107539300D01*
X142240000Y-121920000D02*
X143365300Y-121920000D01*
X158750000Y-121920000D02*
X157524700Y-121920000D01*
X157524700Y-121920000D02*
X156359900Y-123084800D01*
X156359900Y-123084800D02*
X146887300Y-123084800D01*
X146887300Y-123084800D02*
X146050000Y-122247500D01*
X146050000Y-122247500D02*
X146050000Y-121527400D01*
X146050000Y-121527400D02*
X145317300Y-120794700D01*
X145317300Y-120794700D02*
X144209200Y-120794700D01*
X144209200Y-120794700D02*
X143365300Y-121638600D01*
X143365300Y-121638600D02*
X143365300Y-121920000D01*
X195580000Y-76200000D02*
X198716700Y-76200000D01*
X198716700Y-76200000D02*
X199849900Y-75066800D01*
X199849900Y-75066800D02*
X205384600Y-75066800D01*
X205384600Y-75066800D02*
X206517800Y-76200000D01*
X206517800Y-76200000D02*
X207154700Y-76200000D01*
X208280000Y-76200000D02*
X207154700Y-76200000D01*
%TO.N,Y7*%
X174134700Y-78740000D02*
X174134700Y-78473600D01*
X174134700Y-78473600D02*
X168195800Y-72534700D01*
X168195800Y-72534700D02*
X157480000Y-72534700D01*
X157480000Y-72534700D02*
X153525300Y-68580000D01*
X175260000Y-78740000D02*
X174134700Y-78740000D01*
X152400000Y-68580000D02*
X153525300Y-68580000D01*
%TO.N,IR6*%
X169540500Y-169459000D02*
X121199000Y-169459000D01*
X121199000Y-169459000D02*
X119380000Y-167640000D01*
X218440000Y-106680000D02*
X213253900Y-111866100D01*
X213253900Y-111866100D02*
X208599100Y-111866100D01*
%TO.N,IR7*%
X218440000Y-114300000D02*
X217314700Y-114300000D01*
X147986900Y-161893100D02*
X154605200Y-161893100D01*
X154605200Y-161893100D02*
X155082500Y-162370400D01*
X155082500Y-162370400D02*
X184331100Y-162370400D01*
X184331100Y-162370400D02*
X184981400Y-163020700D01*
X217314700Y-114300000D02*
X217314700Y-114968200D01*
X217314700Y-114968200D02*
X214620700Y-117662200D01*
X214620700Y-117662200D02*
X214068900Y-117662200D01*
X121920000Y-167640000D02*
X123045300Y-167640000D01*
X146050000Y-163830000D02*
X144824700Y-163830000D01*
X144824700Y-163830000D02*
X144824700Y-164289600D01*
X144824700Y-164289600D02*
X144059000Y-165055300D01*
X144059000Y-165055300D02*
X125348700Y-165055300D01*
X125348700Y-165055300D02*
X123045300Y-167358700D01*
X123045300Y-167358700D02*
X123045300Y-167640000D01*
%TO.N,IR5*%
X224934700Y-106680000D02*
X224934700Y-106961400D01*
X224934700Y-106961400D02*
X224090800Y-107805300D01*
X224090800Y-107805300D02*
X219216500Y-107805300D01*
X219216500Y-107805300D02*
X208105100Y-118916700D01*
X208105100Y-118916700D02*
X130989200Y-118916700D01*
X130989200Y-118916700D02*
X130859700Y-119046200D01*
X226060000Y-106680000D02*
X224934700Y-106680000D01*
%TO.N,/PER/RED*%
X182389700Y-31115000D02*
X180583800Y-32920900D01*
X180583800Y-32920900D02*
X157615200Y-32920900D01*
X157615200Y-32920900D02*
X154864400Y-30170100D01*
X154864400Y-30170100D02*
X137469900Y-30170100D01*
X137469900Y-30170100D02*
X135890000Y-31750000D01*
X183515000Y-31115000D02*
X182389700Y-31115000D01*
X132080000Y-31750000D02*
X135890000Y-31750000D01*
%TO.N,OUT0*%
X121920000Y-40640000D02*
X123045300Y-40640000D01*
X123045300Y-40640000D02*
X123045300Y-40921300D01*
X123045300Y-40921300D02*
X124034000Y-41910000D01*
X124034000Y-41910000D02*
X132080000Y-41910000D01*
%TO.N,OUT1*%
X135890000Y-41910000D02*
X134764700Y-41910000D01*
X114300000Y-40640000D02*
X115425300Y-40640000D01*
X115425300Y-40640000D02*
X115425300Y-40921400D01*
X115425300Y-40921400D02*
X117539200Y-43035300D01*
X117539200Y-43035300D02*
X133639400Y-43035300D01*
X133639400Y-43035300D02*
X134764700Y-41910000D01*
%TO.N,/PER/GREEN*%
X185805000Y-31115000D02*
X183548800Y-33371200D01*
X183548800Y-33371200D02*
X157390100Y-33371200D01*
X157390100Y-33371200D02*
X154639300Y-30620400D01*
X154639300Y-30620400D02*
X145909600Y-30620400D01*
X145909600Y-30620400D02*
X144780000Y-31750000D01*
X140970000Y-31750000D02*
X144780000Y-31750000D01*
%TO.N,OUT2*%
X112885300Y-40640000D02*
X112885300Y-40921400D01*
X112885300Y-40921400D02*
X115449500Y-43485600D01*
X115449500Y-43485600D02*
X138269100Y-43485600D01*
X138269100Y-43485600D02*
X139844700Y-41910000D01*
X140970000Y-41910000D02*
X139844700Y-41910000D01*
X111760000Y-40640000D02*
X112885300Y-40640000D01*
%TO.N,OUT3*%
X105265300Y-40640000D02*
X105265300Y-40900800D01*
X105265300Y-40900800D02*
X107962800Y-43598300D01*
X107962800Y-43598300D02*
X108665800Y-43598300D01*
X108665800Y-43598300D02*
X109003400Y-43935900D01*
X109003400Y-43935900D02*
X141628800Y-43935900D01*
X141628800Y-43935900D02*
X143654700Y-41910000D01*
X144780000Y-41910000D02*
X143654700Y-41910000D01*
X104140000Y-40640000D02*
X105265300Y-40640000D01*
%TO.N,/PER/BLUE*%
X153670000Y-31750000D02*
X155741500Y-33821500D01*
X155741500Y-33821500D02*
X185388500Y-33821500D01*
X185388500Y-33821500D02*
X188095000Y-31115000D01*
X149860000Y-31750000D02*
X153670000Y-31750000D01*
%TO.N,OUT4*%
X149860000Y-41910000D02*
X148734700Y-41910000D01*
X121920000Y-33020000D02*
X123045300Y-33020000D01*
X123045300Y-33020000D02*
X123045300Y-33301300D01*
X123045300Y-33301300D02*
X129734300Y-39990300D01*
X129734300Y-39990300D02*
X146815000Y-39990300D01*
X146815000Y-39990300D02*
X148734700Y-41910000D01*
%TO.N,OUT5*%
X115425300Y-33020000D02*
X115425300Y-32738700D01*
X115425300Y-32738700D02*
X116305500Y-31858500D01*
X116305500Y-31858500D02*
X129273600Y-31858500D01*
X129273600Y-31858500D02*
X136929700Y-39514600D01*
X136929700Y-39514600D02*
X150149300Y-39514600D01*
X150149300Y-39514600D02*
X152544700Y-41910000D01*
X153670000Y-41910000D02*
X152544700Y-41910000D01*
X114300000Y-33020000D02*
X115425300Y-33020000D01*
%TO.N,/CU/~J*%
X158750000Y-163830000D02*
X183226300Y-163830000D01*
X183226300Y-163830000D02*
X186834700Y-167438400D01*
X186834700Y-167438400D02*
X186834700Y-167640000D01*
X158750000Y-163830000D02*
X157524700Y-163830000D01*
X132080000Y-167640000D02*
X133205300Y-167640000D01*
X133205300Y-167640000D02*
X133205300Y-167358600D01*
X133205300Y-167358600D02*
X134049200Y-166514700D01*
X134049200Y-166514700D02*
X155299500Y-166514700D01*
X155299500Y-166514700D02*
X157524700Y-164289500D01*
X157524700Y-164289500D02*
X157524700Y-163830000D01*
X187960000Y-167640000D02*
X186834700Y-167640000D01*
%TO.N,/CU/INV_C_OUT*%
X106680000Y-144780000D02*
X110274200Y-144780000D01*
X110274200Y-144780000D02*
X124994200Y-130060000D01*
X124994200Y-130060000D02*
X131772500Y-130060000D01*
X131772500Y-130060000D02*
X133922700Y-127909800D01*
X133922700Y-127909800D02*
X143370600Y-127909800D01*
X143370600Y-127909800D02*
X143579000Y-128118200D01*
%TO.N,EL*%
X139180500Y-112672800D02*
X160670300Y-112672800D01*
X187960000Y-147320000D02*
X186734700Y-147320000D01*
X175260000Y-147320000D02*
X176485300Y-147320000D01*
X176485300Y-147320000D02*
X176485300Y-146324400D01*
X176485300Y-146324400D02*
X176715000Y-146094700D01*
X176715000Y-146094700D02*
X185509400Y-146094700D01*
X185509400Y-146094700D02*
X186734700Y-147320000D01*
X121920000Y-81280000D02*
X125377000Y-81280000D01*
X121357400Y-81280000D02*
X121920000Y-81280000D01*
X120794700Y-81280000D02*
X119669400Y-82405300D01*
X119669400Y-82405300D02*
X108930600Y-82405300D01*
X108930600Y-82405300D02*
X107805300Y-81280000D01*
X200047400Y-147320000D02*
X201952400Y-145415000D01*
X201952400Y-145415000D02*
X208280000Y-145415000D01*
X200047400Y-147320000D02*
X199434700Y-147320000D01*
X200660000Y-147320000D02*
X200047400Y-147320000D01*
X187960000Y-147320000D02*
X189185300Y-147320000D01*
X189185300Y-147320000D02*
X189185300Y-148315600D01*
X189185300Y-148315600D02*
X189415000Y-148545300D01*
X189415000Y-148545300D02*
X198209400Y-148545300D01*
X198209400Y-148545300D02*
X199434700Y-147320000D01*
X121357400Y-81280000D02*
X120794700Y-81280000D01*
X106680000Y-81280000D02*
X107805300Y-81280000D01*
%TO.N,EH*%
X208280000Y-142875000D02*
X207154700Y-142875000D01*
X200047400Y-143510000D02*
X201272700Y-142284700D01*
X201272700Y-142284700D02*
X206564400Y-142284700D01*
X206564400Y-142284700D02*
X207154700Y-142875000D01*
X200047400Y-143510000D02*
X199434700Y-143510000D01*
X200660000Y-143510000D02*
X200047400Y-143510000D01*
X187347400Y-143510000D02*
X188572700Y-144735300D01*
X188572700Y-144735300D02*
X198209400Y-144735300D01*
X198209400Y-144735300D02*
X199434700Y-143510000D01*
X187347400Y-143510000D02*
X186734700Y-143510000D01*
X187960000Y-143510000D02*
X187347400Y-143510000D01*
X160020000Y-60960000D02*
X163974600Y-60960000D01*
X181610000Y-143510000D02*
X182835300Y-143510000D01*
X182835300Y-143510000D02*
X182835300Y-142514400D01*
X182835300Y-142514400D02*
X183065000Y-142284700D01*
X183065000Y-142284700D02*
X185509400Y-142284700D01*
X185509400Y-142284700D02*
X186734700Y-143510000D01*
X159457400Y-60960000D02*
X160020000Y-60960000D01*
X159457400Y-60960000D02*
X158894700Y-60960000D01*
X144780000Y-60960000D02*
X145905300Y-60960000D01*
X158894700Y-60960000D02*
X157769400Y-62085300D01*
X157769400Y-62085300D02*
X147030600Y-62085300D01*
X147030600Y-62085300D02*
X145905300Y-60960000D01*
%TO.N,/CU/INV_A_IN*%
X189207700Y-166347600D02*
X189374700Y-166514700D01*
X189374700Y-166514700D02*
X189374700Y-167640000D01*
X107805300Y-152400000D02*
X108211000Y-152805700D01*
X108211000Y-152805700D02*
X143125100Y-152805700D01*
X143125100Y-152805700D02*
X144824600Y-154505200D01*
X144824600Y-154505200D02*
X144824600Y-156014700D01*
X144824600Y-156014700D02*
X146064800Y-157254900D01*
X146064800Y-157254900D02*
X151653800Y-157254900D01*
X151653800Y-157254900D02*
X156274300Y-161875400D01*
X156274300Y-161875400D02*
X184735400Y-161875400D01*
X184735400Y-161875400D02*
X189207700Y-166347600D01*
X189207700Y-166347600D02*
X203200000Y-152355300D01*
X203200000Y-151130000D02*
X203200000Y-152355300D01*
X190500000Y-167640000D02*
X189374700Y-167640000D01*
X106680000Y-152400000D02*
X107805300Y-152400000D01*
%TO.N,~LD*%
X57005300Y-101600000D02*
X58130600Y-102725300D01*
X58130600Y-102725300D02*
X72678100Y-102725300D01*
X72678100Y-102725300D02*
X78004000Y-108051200D01*
X78004000Y-108051200D02*
X115531400Y-108051200D01*
X115531400Y-108051200D02*
X127768400Y-120288200D01*
X127768400Y-120288200D02*
X147384300Y-120288200D01*
X147384300Y-120288200D02*
X148734700Y-121638600D01*
X148734700Y-121638600D02*
X148734700Y-121920000D01*
X55880000Y-101600000D02*
X57005300Y-101600000D01*
X149860000Y-121920000D02*
X148734700Y-121920000D01*
%TO.N,AR3*%
X79865300Y-91440000D02*
X79865300Y-91923900D01*
X79865300Y-91923900D02*
X84812000Y-96870600D01*
X78740000Y-91440000D02*
X79865300Y-91440000D01*
X78740000Y-66040000D02*
X77614700Y-66040000D01*
X77614700Y-66040000D02*
X76489400Y-67165300D01*
X76489400Y-67165300D02*
X53552700Y-67165300D01*
X53552700Y-67165300D02*
X50618000Y-70100000D01*
X40640000Y-154940000D02*
X41797000Y-156097000D01*
X41797000Y-156097000D02*
X41797000Y-157990900D01*
X41797000Y-157990900D02*
X41125000Y-158662900D01*
X41125000Y-158662900D02*
X40202900Y-158662900D01*
X40202900Y-158662900D02*
X37157200Y-155617200D01*
X37157200Y-155617200D02*
X37157200Y-131897500D01*
X37157200Y-131897500D02*
X39514700Y-129540000D01*
X40640000Y-89462600D02*
X39514600Y-88337200D01*
X39514600Y-88337200D02*
X39514600Y-82213700D01*
X39514600Y-82213700D02*
X40030500Y-81697800D01*
X40640000Y-88900000D02*
X40640000Y-89462600D01*
X40640000Y-129540000D02*
X39514700Y-129540000D01*
X41188200Y-129540000D02*
X40640000Y-129540000D01*
X41188200Y-129540000D02*
X41765300Y-129540000D01*
X41765300Y-129540000D02*
X45706100Y-133480800D01*
X45706100Y-133480800D02*
X76213900Y-133480800D01*
X76213900Y-133480800D02*
X77614700Y-132080000D01*
X78740000Y-132080000D02*
X77614700Y-132080000D01*
%TO.N,AR2*%
X40640000Y-156354700D02*
X40358600Y-156354700D01*
X40358600Y-156354700D02*
X39514700Y-155510800D01*
X39514700Y-155510800D02*
X39514700Y-151894200D01*
X39514700Y-151894200D02*
X40423500Y-150985400D01*
X40423500Y-150985400D02*
X42373200Y-150985400D01*
X42373200Y-150985400D02*
X45138500Y-148220100D01*
X45138500Y-148220100D02*
X48838600Y-148220100D01*
X48838600Y-148220100D02*
X50892100Y-146166600D01*
X50892100Y-146166600D02*
X59951200Y-146166600D01*
X59951200Y-146166600D02*
X62374600Y-148590000D01*
X62374600Y-148590000D02*
X77187200Y-148590000D01*
X77187200Y-148590000D02*
X77478400Y-148881200D01*
X40640000Y-157480000D02*
X40640000Y-156354700D01*
X40640000Y-91440000D02*
X41765300Y-91440000D01*
X41765300Y-91440000D02*
X42916200Y-90289100D01*
X42916200Y-90289100D02*
X53744500Y-90289100D01*
X53744500Y-90289100D02*
X53895100Y-90439700D01*
X53895100Y-90439700D02*
X66551900Y-90439700D01*
X66551900Y-90439700D02*
X69357700Y-87633900D01*
X69357700Y-87633900D02*
X77380100Y-87633900D01*
X40640000Y-132080000D02*
X39514700Y-132080000D01*
X38197200Y-132859800D02*
X38734900Y-132859800D01*
X38734900Y-132859800D02*
X39514700Y-132080000D01*
X78740000Y-162560000D02*
X79865300Y-162560000D01*
X106680000Y-154940000D02*
X105554700Y-154940000D01*
X105554700Y-154940000D02*
X104429400Y-156065300D01*
X104429400Y-156065300D02*
X86360000Y-156065300D01*
X86360000Y-156065300D02*
X79865300Y-162560000D01*
%TO.N,AR1*%
X78740000Y-68580000D02*
X77614700Y-68580000D01*
X76364700Y-69345900D02*
X76848800Y-69345900D01*
X76848800Y-69345900D02*
X77614700Y-68580000D01*
X78740000Y-93980000D02*
X77614700Y-93980000D01*
X77614700Y-93980000D02*
X76272500Y-95322200D01*
X76272500Y-95322200D02*
X54687000Y-95322200D01*
X54687000Y-95322200D02*
X49809200Y-100200000D01*
X49809200Y-100200000D02*
X47704000Y-100200000D01*
X47704000Y-100200000D02*
X41765300Y-94261300D01*
X41765300Y-94261300D02*
X41765300Y-93980000D01*
X40640000Y-93980000D02*
X41765300Y-93980000D01*
X40640000Y-93980000D02*
X40640000Y-92854700D01*
X40640000Y-69705300D02*
X40358700Y-69705300D01*
X40358700Y-69705300D02*
X39058600Y-71005400D01*
X39058600Y-71005400D02*
X39058600Y-91554600D01*
X39058600Y-91554600D02*
X40358700Y-92854700D01*
X40358700Y-92854700D02*
X40640000Y-92854700D01*
X40640000Y-68580000D02*
X40640000Y-69705300D01*
X77614700Y-134620000D02*
X76487000Y-135747700D01*
X76487000Y-135747700D02*
X65940300Y-135747700D01*
X65940300Y-135747700D02*
X64586900Y-134394300D01*
X64586900Y-134394300D02*
X61931200Y-134394300D01*
X61931200Y-134394300D02*
X60580200Y-135745300D01*
X60580200Y-135745300D02*
X42890600Y-135745300D01*
X42890600Y-135745300D02*
X41765300Y-134620000D01*
X79865300Y-160020000D02*
X84945300Y-154940000D01*
X84945300Y-154940000D02*
X99060000Y-154940000D01*
X40640000Y-134620000D02*
X41765300Y-134620000D01*
X78740000Y-134620000D02*
X77614700Y-134620000D01*
X78740000Y-160020000D02*
X79865300Y-160020000D01*
%TO.N,AR0*%
X78740000Y-165100000D02*
X79865300Y-165100000D01*
X79865300Y-165100000D02*
X80131400Y-165366100D01*
X80131400Y-165366100D02*
X100208600Y-165366100D01*
X100208600Y-165366100D02*
X105554700Y-160020000D01*
X78740000Y-99060000D02*
X77614700Y-99060000D01*
X52532000Y-99970200D02*
X53017800Y-99484400D01*
X53017800Y-99484400D02*
X67006500Y-99484400D01*
X67006500Y-99484400D02*
X68556200Y-97934700D01*
X68556200Y-97934700D02*
X76489400Y-97934700D01*
X76489400Y-97934700D02*
X77614700Y-99060000D01*
X40640000Y-162560000D02*
X41765300Y-162560000D01*
X78740000Y-165100000D02*
X77614700Y-165100000D01*
X77614700Y-165100000D02*
X73944800Y-161430100D01*
X73944800Y-161430100D02*
X51925200Y-161430100D01*
X51925200Y-161430100D02*
X49670000Y-163685300D01*
X49670000Y-163685300D02*
X42890600Y-163685300D01*
X42890600Y-163685300D02*
X41765300Y-162560000D01*
X48260000Y-114548500D02*
X35472200Y-114548500D01*
X35472200Y-114548500D02*
X30965500Y-110041800D01*
X30965500Y-110041800D02*
X30965500Y-105069200D01*
X30965500Y-105069200D02*
X39514700Y-96520000D01*
X40640000Y-96520000D02*
X39514700Y-96520000D01*
X48260000Y-116840000D02*
X47134700Y-116840000D01*
X45122500Y-118649900D02*
X45606100Y-118649900D01*
X45606100Y-118649900D02*
X47134700Y-117121300D01*
X47134700Y-117121300D02*
X47134700Y-116840000D01*
X40640000Y-137160000D02*
X45054600Y-137160000D01*
X106680000Y-160020000D02*
X105554700Y-160020000D01*
%TO.N,AL*%
X71120000Y-125585300D02*
X71401300Y-125585300D01*
X71401300Y-125585300D02*
X72262400Y-126446400D01*
X72262400Y-126446400D02*
X72262400Y-127500400D01*
X72262400Y-127500400D02*
X71637500Y-128125300D01*
X71637500Y-128125300D02*
X63557600Y-128125300D01*
X63557600Y-128125300D02*
X61025900Y-125593600D01*
X49385300Y-127000000D02*
X50791700Y-125593600D01*
X50791700Y-125593600D02*
X61025900Y-125593600D01*
X48260000Y-86360000D02*
X58843500Y-86360000D01*
X58843500Y-86360000D02*
X58908500Y-86295000D01*
X69994700Y-83820000D02*
X69829900Y-83655200D01*
X69829900Y-83655200D02*
X61548300Y-83655200D01*
X61548300Y-83655200D02*
X58908500Y-86295000D01*
X57480400Y-59834700D02*
X50510600Y-59834700D01*
X50510600Y-59834700D02*
X49385300Y-60960000D01*
X69994700Y-58420000D02*
X68580000Y-59834700D01*
X68580000Y-59834700D02*
X57480400Y-59834700D01*
X48260000Y-60960000D02*
X49385300Y-60960000D01*
X71120000Y-58420000D02*
X69994700Y-58420000D01*
X71120000Y-83820000D02*
X69994700Y-83820000D01*
X48260000Y-127000000D02*
X49385300Y-127000000D01*
X71120000Y-124460000D02*
X71120000Y-125585300D01*
%TO.N,CO*%
X87485300Y-109220000D02*
X99060000Y-120794700D01*
X99060000Y-120794700D02*
X140828500Y-120794700D01*
X140828500Y-120794700D02*
X140986800Y-120953000D01*
X146018300Y-132140000D02*
X157658800Y-132140000D01*
X157658800Y-132140000D02*
X167268400Y-141749600D01*
X167268400Y-141749600D02*
X214987600Y-141749600D01*
X214987600Y-141749600D02*
X217314700Y-144076700D01*
X217314700Y-144076700D02*
X217314700Y-144780000D01*
X218440000Y-144780000D02*
X217314700Y-144780000D01*
X86360000Y-109220000D02*
X87485300Y-109220000D01*
%TO.N,IX*%
X99060000Y-149860000D02*
X100188400Y-149860000D01*
X100188400Y-149860000D02*
X101013500Y-149034900D01*
X121920000Y-73660000D02*
X120794700Y-73660000D01*
X106680000Y-73660000D02*
X107805300Y-73660000D01*
X107805300Y-73660000D02*
X108930600Y-74785300D01*
X108930600Y-74785300D02*
X119669400Y-74785300D01*
X119669400Y-74785300D02*
X120794700Y-73660000D01*
%TO.N,~XL*%
X187960000Y-160020000D02*
X186834700Y-160020000D01*
X186834700Y-160020000D02*
X186834700Y-160301300D01*
X186834700Y-160301300D02*
X185974600Y-161161400D01*
X185974600Y-161161400D02*
X177291100Y-161161400D01*
X177291100Y-161161400D02*
X176674700Y-160545000D01*
X176674700Y-160545000D02*
X176674700Y-158750300D01*
X176674700Y-158750300D02*
X173195700Y-155271300D01*
X173195700Y-155271300D02*
X173195700Y-153786700D01*
X173195700Y-153786700D02*
X164306000Y-144897000D01*
X164306000Y-144897000D02*
X148741500Y-144897000D01*
X148741500Y-144897000D02*
X144625900Y-149012600D01*
X144625900Y-149012600D02*
X133595400Y-149012600D01*
X114300000Y-76200000D02*
X115425300Y-76200000D01*
X129540000Y-76200000D02*
X128414700Y-76200000D01*
X128414700Y-76200000D02*
X127289400Y-77325300D01*
X127289400Y-77325300D02*
X116550600Y-77325300D01*
X116550600Y-77325300D02*
X115425300Y-76200000D01*
%TO.N,~YL*%
X189374700Y-160020000D02*
X189374700Y-159795800D01*
X189374700Y-159795800D02*
X187466300Y-157887400D01*
X187466300Y-157887400D02*
X187339300Y-157887400D01*
X190500000Y-160020000D02*
X189374700Y-160020000D01*
%TO.N,~OL*%
X101600000Y-40640000D02*
X102725300Y-40640000D01*
X147320000Y-129540000D02*
X144764900Y-126984900D01*
X144764900Y-126984900D02*
X132679000Y-126984900D01*
X132679000Y-126984900D02*
X131799000Y-127864900D01*
X102725300Y-40640000D02*
X102725300Y-41261500D01*
X102725300Y-41261500D02*
X113347900Y-51884100D01*
%TO.N,/CU/INV_B_IN*%
X137160000Y-129540000D02*
X136034700Y-129540000D01*
X99060000Y-147320000D02*
X100185300Y-147320000D01*
X100185300Y-147320000D02*
X101310600Y-146194700D01*
X101310600Y-146194700D02*
X109513700Y-146194700D01*
X109513700Y-146194700D02*
X125043100Y-130665300D01*
X125043100Y-130665300D02*
X135612800Y-130665300D01*
X135612800Y-130665300D02*
X136034700Y-130243400D01*
X136034700Y-130243400D02*
X136034700Y-129540000D01*
%TO.N,/CU/INV_C_IN*%
X100185300Y-142240000D02*
X101310600Y-143365300D01*
X101310600Y-143365300D02*
X110845000Y-143365300D01*
X110845000Y-143365300D02*
X124920900Y-129289400D01*
X124920900Y-129289400D02*
X131588000Y-129289400D01*
X131588000Y-129289400D02*
X133417900Y-127459500D01*
X133417900Y-127459500D02*
X144372300Y-127459500D01*
X144372300Y-127459500D02*
X146194700Y-129281900D01*
X146194700Y-129281900D02*
X146194700Y-130030700D01*
X146194700Y-130030700D02*
X147853700Y-131689700D01*
X147853700Y-131689700D02*
X201432700Y-131689700D01*
X201432700Y-131689700D02*
X210867300Y-141124300D01*
X210867300Y-141124300D02*
X226640300Y-141124300D01*
X226640300Y-141124300D02*
X230014700Y-144498700D01*
X230014700Y-144498700D02*
X230014700Y-144780000D01*
X99060000Y-142240000D02*
X100185300Y-142240000D01*
X231140000Y-144780000D02*
X230014700Y-144780000D01*
%TO.N,/CU/INV_B_OUT*%
X107805300Y-149860000D02*
X107805300Y-149514800D01*
X107805300Y-149514800D02*
X112534000Y-144786100D01*
X112534000Y-144786100D02*
X126116400Y-144786100D01*
X126116400Y-144786100D02*
X140970000Y-129932500D01*
X140970000Y-129932500D02*
X140970000Y-129161400D01*
X140970000Y-129161400D02*
X141756300Y-128375100D01*
X141756300Y-128375100D02*
X142882100Y-128375100D01*
X142882100Y-128375100D02*
X144047000Y-129540000D01*
X144047000Y-129540000D02*
X144780000Y-129540000D01*
X106680000Y-149860000D02*
X107805300Y-149860000D01*
%TO.N,~RST*%
X228600000Y-58420000D02*
X227474700Y-58420000D01*
X215900000Y-58420000D02*
X217025300Y-58420000D01*
X217025300Y-58420000D02*
X218150600Y-59545300D01*
X218150600Y-59545300D02*
X226349400Y-59545300D01*
X226349400Y-59545300D02*
X227474700Y-58420000D01*
X215337400Y-58420000D02*
X215900000Y-58420000D01*
X215337400Y-58420000D02*
X214774700Y-58420000D01*
X200660000Y-58420000D02*
X201785300Y-58420000D01*
X201785300Y-58420000D02*
X202910600Y-59545300D01*
X202910600Y-59545300D02*
X213649400Y-59545300D01*
X213649400Y-59545300D02*
X214774700Y-58420000D01*
X200097400Y-58420000D02*
X200660000Y-58420000D01*
X200097400Y-58420000D02*
X199534700Y-58420000D01*
X187960000Y-58420000D02*
X189085300Y-58420000D01*
X189085300Y-58420000D02*
X190210600Y-59545300D01*
X190210600Y-59545300D02*
X198409400Y-59545300D01*
X198409400Y-59545300D02*
X199534700Y-58420000D01*
X187960000Y-58420000D02*
X182880000Y-58420000D01*
%TO.N,Net-(D5-Pad1)*%
X30480000Y-43180000D02*
X29254700Y-43180000D01*
X29254700Y-43180000D02*
X26714700Y-45720000D01*
X26714700Y-45720000D02*
X25400000Y-45720000D01*
%TO.N,Net-(D7-Pad1)*%
X40640000Y-43180000D02*
X39414700Y-43180000D01*
X39414700Y-43180000D02*
X39414700Y-43639500D01*
X39414700Y-43639500D02*
X32254200Y-50800000D01*
X32254200Y-50800000D02*
X25400000Y-50800000D01*
%TO.N,Net-(R1-Pad1)*%
X202565000Y-48260000D02*
X202565000Y-43180000D01*
X210820000Y-41910000D02*
X209694700Y-41910000D01*
X209694700Y-41910000D02*
X209694700Y-42191300D01*
X209694700Y-42191300D02*
X208706000Y-43180000D01*
X208706000Y-43180000D02*
X202565000Y-43180000D01*
%TO.N,Net-(U1-Pad11)*%
X213360000Y-41910000D02*
X215900000Y-41910000D01*
%TO.N,/PCR/+5V*%
X34320000Y-29205000D02*
X34320000Y-30180300D01*
X41960000Y-35630000D02*
X39769700Y-35630000D01*
X39769700Y-35630000D02*
X34320000Y-30180300D01*
%TO.N,/CU/~BF*%
X224934700Y-121920000D02*
X224934700Y-122201300D01*
X224934700Y-122201300D02*
X224078300Y-123057700D01*
X224078300Y-123057700D02*
X215426100Y-123057700D01*
X215426100Y-123057700D02*
X211846000Y-119477600D01*
X211846000Y-119477600D02*
X140684800Y-119477600D01*
X140684800Y-119477600D02*
X140601200Y-119561200D01*
X226060000Y-121920000D02*
X224934700Y-121920000D01*
%TO.N,Net-(D2-Pad1)*%
X173355000Y-43180000D02*
X170180000Y-43180000D01*
X170180000Y-43180000D02*
X168910000Y-41910000D01*
%TO.N,Net-(D8-Pad1)*%
X25400000Y-43180000D02*
X26525300Y-43180000D01*
X45720000Y-43180000D02*
X44494700Y-43180000D01*
X44494700Y-43180000D02*
X43269300Y-41954600D01*
X43269300Y-41954600D02*
X27750700Y-41954600D01*
X27750700Y-41954600D02*
X26525300Y-43180000D01*
%TO.N,Net-(U3-Pad15)*%
X223520000Y-73660000D02*
X224645300Y-73660000D01*
X236220000Y-60960000D02*
X236220000Y-62085300D01*
X236220000Y-62085300D02*
X235938600Y-62085300D01*
X235938600Y-62085300D02*
X235094700Y-62929200D01*
X235094700Y-62929200D02*
X235094700Y-66251600D01*
X235094700Y-66251600D02*
X228811600Y-72534700D01*
X228811600Y-72534700D02*
X225770600Y-72534700D01*
X225770600Y-72534700D02*
X224645300Y-73660000D01*
%TO.N,Net-(U4-Pad15)*%
X223520000Y-60960000D02*
X220650100Y-60960000D01*
X214093700Y-71649000D02*
X212082700Y-73660000D01*
X212082700Y-73660000D02*
X208280000Y-73660000D01*
%TO.N,Net-(U5-Pad15)*%
X205309300Y-63967900D02*
X205309300Y-68124500D01*
X205309300Y-68124500D02*
X201188400Y-72245400D01*
X201188400Y-72245400D02*
X200312400Y-72245400D01*
X200312400Y-72245400D02*
X198897800Y-73660000D01*
X198897800Y-73660000D02*
X195580000Y-73660000D01*
%TO.N,Net-(U21-Pad7)*%
X40640000Y-165100000D02*
X40640000Y-163974700D01*
X40640000Y-163974700D02*
X40358700Y-163974700D01*
X40358700Y-163974700D02*
X36653100Y-160269100D01*
X36653100Y-160269100D02*
X36653100Y-125888900D01*
X36653100Y-125888900D02*
X39370000Y-123172000D01*
X39370000Y-123172000D02*
X39370000Y-116478900D01*
X39370000Y-116478900D02*
X40134200Y-115714700D01*
X40134200Y-115714700D02*
X42054700Y-115714700D01*
X42054700Y-115714700D02*
X43180000Y-116840000D01*
%TO.N,Net-(U22-Pad9)*%
X47134700Y-142240000D02*
X43337400Y-138442700D01*
X43337400Y-138442700D02*
X39412000Y-138442700D01*
X39412000Y-138442700D02*
X37782700Y-136813400D01*
X48260000Y-142240000D02*
X47134700Y-142240000D01*
%TO.N,Net-(U23-Pad7)*%
X38100000Y-109220000D02*
X36974700Y-109220000D01*
X40640000Y-99060000D02*
X40640000Y-100185300D01*
X40640000Y-100185300D02*
X39655400Y-100185300D01*
X39655400Y-100185300D02*
X31415800Y-108424900D01*
X31415800Y-108424900D02*
X31415800Y-109855200D01*
X31415800Y-109855200D02*
X32428700Y-110868100D01*
X32428700Y-110868100D02*
X35607900Y-110868100D01*
X35607900Y-110868100D02*
X36974700Y-109501300D01*
X36974700Y-109501300D02*
X36974700Y-109220000D01*
%TO.N,Net-(U23-Pad9)*%
X35560000Y-109220000D02*
X34411000Y-110369000D01*
X34411000Y-110369000D02*
X32566500Y-110369000D01*
X32566500Y-110369000D02*
X31866100Y-109668600D01*
X31866100Y-109668600D02*
X31866100Y-108721600D01*
X31866100Y-108721600D02*
X37713000Y-102874700D01*
X37713000Y-102874700D02*
X45860000Y-102874700D01*
X45860000Y-102874700D02*
X47134700Y-101600000D01*
X48260000Y-101600000D02*
X47134700Y-101600000D01*
%TO.N,Net-(U29-Pad15)*%
X118528900Y-71518900D02*
X116387800Y-73660000D01*
X116387800Y-73660000D02*
X114300000Y-73660000D01*
%TO.N,Net-(D10-Pad2)*%
X208280000Y-150495000D02*
X207154700Y-150495000D01*
X187347400Y-154940000D02*
X188997900Y-153289500D01*
X188997900Y-153289500D02*
X196987200Y-153289500D01*
X196987200Y-153289500D02*
X199047900Y-151228800D01*
X199047900Y-151228800D02*
X199047900Y-150980400D01*
X199047900Y-150980400D02*
X200123600Y-149904700D01*
X200123600Y-149904700D02*
X206564400Y-149904700D01*
X206564400Y-149904700D02*
X207154700Y-150495000D01*
X187347400Y-154940000D02*
X186734700Y-154940000D01*
X187960000Y-154940000D02*
X187347400Y-154940000D01*
X180997400Y-154940000D02*
X182222700Y-156165300D01*
X182222700Y-156165300D02*
X185509400Y-156165300D01*
X185509400Y-156165300D02*
X186734700Y-154940000D01*
X180997400Y-154940000D02*
X180384700Y-154940000D01*
X181610000Y-154940000D02*
X180997400Y-154940000D01*
X176485300Y-154940000D02*
X176485300Y-153944400D01*
X176485300Y-153944400D02*
X176715000Y-153714700D01*
X176715000Y-153714700D02*
X179159400Y-153714700D01*
X179159400Y-153714700D02*
X180384700Y-154940000D01*
X175260000Y-154940000D02*
X176485300Y-154940000D01*
%TO.N,Net-(D14-Pad1)*%
X189274700Y-154940000D02*
X189274700Y-155365300D01*
X189274700Y-155365300D02*
X187763400Y-156876600D01*
X187763400Y-156876600D02*
X187438100Y-156876600D01*
X187438100Y-156876600D02*
X185420000Y-158894700D01*
X190500000Y-154940000D02*
X189274700Y-154940000D01*
X185420000Y-160020000D02*
X185420000Y-158894700D01*
%TO.N,Net-(D17-Pad2)*%
X143365300Y-129540000D02*
X143365300Y-130371300D01*
X143365300Y-130371300D02*
X153552300Y-140558300D01*
X153552300Y-140558300D02*
X163458700Y-140558300D01*
X163458700Y-140558300D02*
X174030400Y-151130000D01*
X174030400Y-151130000D02*
X193084700Y-151130000D01*
X194310000Y-151130000D02*
X193084700Y-151130000D01*
X142240000Y-129540000D02*
X143365300Y-129540000D01*
%TO.N,Net-(D21-Pad2)*%
X142284700Y-162560000D02*
X153714700Y-162560000D01*
X153714700Y-162560000D02*
X154984700Y-163830000D01*
X106680000Y-162560000D02*
X142284700Y-162560000D01*
X142284700Y-162560000D02*
X142284700Y-163830000D01*
X156210000Y-163830000D02*
X154984700Y-163830000D01*
X143510000Y-163830000D02*
X142284700Y-163830000D01*
%TO.N,Net-(D22-Pad2)*%
X163830000Y-146050000D02*
X163830000Y-147175300D01*
X155597400Y-151130000D02*
X156867400Y-149860000D01*
X156867400Y-149860000D02*
X164151800Y-149860000D01*
X164151800Y-149860000D02*
X164955300Y-149056500D01*
X164955300Y-149056500D02*
X164955300Y-148019200D01*
X164955300Y-148019200D02*
X164111400Y-147175300D01*
X164111400Y-147175300D02*
X163830000Y-147175300D01*
X155597400Y-151130000D02*
X154984700Y-151130000D01*
X156210000Y-151130000D02*
X155597400Y-151130000D01*
X137160000Y-151130000D02*
X138385300Y-151130000D01*
X138385300Y-151130000D02*
X138385300Y-152125600D01*
X138385300Y-152125600D02*
X138615000Y-152355300D01*
X138615000Y-152355300D02*
X153759400Y-152355300D01*
X153759400Y-152355300D02*
X154984700Y-151130000D01*
X136547400Y-151130000D02*
X137160000Y-151130000D01*
X136547400Y-151130000D02*
X135934700Y-151130000D01*
X129584700Y-149904700D02*
X134709400Y-149904700D01*
X134709400Y-149904700D02*
X135934700Y-151130000D01*
X123234700Y-149904700D02*
X129584700Y-149904700D01*
X129584700Y-149904700D02*
X129584700Y-151130000D01*
X112985300Y-151130000D02*
X112985300Y-150134400D01*
X112985300Y-150134400D02*
X113215000Y-149904700D01*
X113215000Y-149904700D02*
X123234700Y-149904700D01*
X123234700Y-149904700D02*
X123234700Y-151130000D01*
X130810000Y-151130000D02*
X129584700Y-151130000D01*
X111760000Y-151130000D02*
X112985300Y-151130000D01*
X100185300Y-152400000D02*
X101455300Y-151130000D01*
X101455300Y-151130000D02*
X111760000Y-151130000D01*
X124460000Y-151130000D02*
X123234700Y-151130000D01*
X99060000Y-152400000D02*
X100185300Y-152400000D01*
%TO.N,Net-(D23-Pad2)*%
X135934700Y-147320000D02*
X134403700Y-147320000D01*
X134403700Y-147320000D02*
X133178400Y-148545300D01*
X133178400Y-148545300D02*
X123234700Y-148545300D01*
X123234700Y-147320000D02*
X123234700Y-148545300D01*
X117497400Y-147320000D02*
X118722700Y-148545300D01*
X118722700Y-148545300D02*
X123234700Y-148545300D01*
X117497400Y-147320000D02*
X116884700Y-147320000D01*
X118110000Y-147320000D02*
X117497400Y-147320000D01*
X111760000Y-147320000D02*
X112985300Y-147320000D01*
X112985300Y-147320000D02*
X112985300Y-146324400D01*
X112985300Y-146324400D02*
X113215000Y-146094700D01*
X113215000Y-146094700D02*
X115659400Y-146094700D01*
X115659400Y-146094700D02*
X116884700Y-147320000D01*
X136547400Y-147320000D02*
X140357400Y-143510000D01*
X140357400Y-143510000D02*
X163830000Y-143510000D01*
X136547400Y-147320000D02*
X135934700Y-147320000D01*
X137160000Y-147320000D02*
X136547400Y-147320000D01*
X124460000Y-147320000D02*
X123234700Y-147320000D01*
%TO.N,Net-(D25-Pad2)*%
X143510000Y-154940000D02*
X142284700Y-154940000D01*
X130197400Y-154940000D02*
X131422700Y-156165300D01*
X131422700Y-156165300D02*
X141059400Y-156165300D01*
X141059400Y-156165300D02*
X142284700Y-154940000D01*
X130197400Y-154940000D02*
X129584700Y-154940000D01*
X130810000Y-154940000D02*
X130197400Y-154940000D01*
X106680000Y-157480000D02*
X107805300Y-157480000D01*
X123847400Y-154940000D02*
X125072700Y-153714700D01*
X125072700Y-153714700D02*
X128359400Y-153714700D01*
X128359400Y-153714700D02*
X129584700Y-154940000D01*
X123847400Y-154940000D02*
X110345300Y-154940000D01*
X110345300Y-154940000D02*
X107805300Y-157480000D01*
X124460000Y-154940000D02*
X123847400Y-154940000D01*
X163830000Y-148590000D02*
X149860000Y-148590000D01*
%TO.N,Net-(D32-Pad1)*%
X146050000Y-158750000D02*
X144824700Y-158750000D01*
X132080000Y-160020000D02*
X133205300Y-160020000D01*
X133205300Y-160020000D02*
X133205300Y-160301400D01*
X133205300Y-160301400D02*
X134049200Y-161145300D01*
X134049200Y-161145300D02*
X142888900Y-161145300D01*
X142888900Y-161145300D02*
X144824700Y-159209500D01*
X144824700Y-159209500D02*
X144824700Y-158750000D01*
%TO.N,Net-(D32-Pad2)*%
X163830000Y-151130000D02*
X163830000Y-152255300D01*
X156210000Y-158750000D02*
X157435300Y-158750000D01*
X157435300Y-158750000D02*
X157435300Y-157788500D01*
X157435300Y-157788500D02*
X162968500Y-152255300D01*
X162968500Y-152255300D02*
X163830000Y-152255300D01*
X99060000Y-157480000D02*
X100185300Y-157480000D01*
X100185300Y-157480000D02*
X101455300Y-158750000D01*
X101455300Y-158750000D02*
X143510000Y-158750000D01*
%TO.N,Net-(U25-Pad7)*%
X50800000Y-109220000D02*
X51925300Y-109220000D01*
X83820000Y-116840000D02*
X82694700Y-116840000D01*
X82694700Y-116840000D02*
X82694700Y-116558700D01*
X82694700Y-116558700D02*
X78708600Y-112572600D01*
X78708600Y-112572600D02*
X66847900Y-112572600D01*
X66847900Y-112572600D02*
X64765300Y-110490000D01*
X64765300Y-110490000D02*
X62243800Y-110490000D01*
X62243800Y-110490000D02*
X59848500Y-108094700D01*
X59848500Y-108094700D02*
X53050600Y-108094700D01*
X53050600Y-108094700D02*
X51925300Y-109220000D01*
%TO.N,OUT7*%
X105265300Y-33020000D02*
X105265300Y-33301400D01*
X105265300Y-33301400D02*
X106109200Y-34145300D01*
X106109200Y-34145300D02*
X120993000Y-34145300D01*
X120993000Y-34145300D02*
X127632400Y-40784700D01*
X127632400Y-40784700D02*
X145294500Y-40784700D01*
X145294500Y-40784700D02*
X147545100Y-43035300D01*
X147545100Y-43035300D02*
X160309400Y-43035300D01*
X160309400Y-43035300D02*
X161434700Y-41910000D01*
X162560000Y-41910000D02*
X161434700Y-41910000D01*
X104140000Y-33020000D02*
X105265300Y-33020000D01*
%TO.N,OUT6*%
X241300000Y-41910000D02*
X240174700Y-41910000D01*
X240174700Y-41910000D02*
X240174700Y-41628700D01*
X240174700Y-41628700D02*
X238795000Y-40249000D01*
X238795000Y-40249000D02*
X161536300Y-40249000D01*
X161536300Y-40249000D02*
X159875300Y-41910000D01*
X243840000Y-41910000D02*
X241300000Y-41910000D01*
X158750000Y-41910000D02*
X159875300Y-41910000D01*
X158750000Y-41910000D02*
X157624700Y-41910000D01*
X111760000Y-33020000D02*
X112885300Y-33020000D01*
X112885300Y-33020000D02*
X112885300Y-32738700D01*
X112885300Y-32738700D02*
X114215900Y-31408100D01*
X114215900Y-31408100D02*
X129616500Y-31408100D01*
X129616500Y-31408100D02*
X136434900Y-38226500D01*
X136434900Y-38226500D02*
X153941200Y-38226500D01*
X153941200Y-38226500D02*
X157624700Y-41910000D01*
%TO.N,SER_PULSE*%
X188095000Y-27155000D02*
X189670800Y-25579200D01*
X189670800Y-25579200D02*
X222449900Y-25579200D01*
X222449900Y-25579200D02*
X226906100Y-30035400D01*
X226906100Y-30035400D02*
X232655400Y-30035400D01*
X232655400Y-30035400D02*
X234370000Y-31750000D01*
X158750000Y-31750000D02*
X164470400Y-26029600D01*
X164470400Y-26029600D02*
X186969600Y-26029600D01*
X186969600Y-26029600D02*
X188095000Y-27155000D01*
%TO.N,SER_LATCH*%
X190385000Y-27155000D02*
X191510400Y-26029600D01*
X191510400Y-26029600D02*
X222225000Y-26029600D01*
X222225000Y-26029600D02*
X222225000Y-26216200D01*
X222225000Y-26216200D02*
X226563900Y-30555100D01*
X226563900Y-30555100D02*
X227200800Y-30555100D01*
X227200800Y-30555100D02*
X227270300Y-30624600D01*
X227270300Y-30624600D02*
X230474600Y-30624600D01*
X230474600Y-30624600D02*
X231600000Y-31750000D01*
%TO.N,Net-(C43-Pad1)*%
X63500000Y-40640000D02*
X63500000Y-39514700D01*
X64734400Y-35444400D02*
X63580000Y-34290000D01*
X71120000Y-34290000D02*
X69965600Y-35444400D01*
X69965600Y-35444400D02*
X64734400Y-35444400D01*
X64734400Y-35444400D02*
X64734400Y-38280300D01*
X64734400Y-38280300D02*
X63500000Y-39514700D01*
%TO.N,Net-(C44-Pad1)*%
X91360000Y-33630000D02*
X89789100Y-35200900D01*
X89789100Y-35200900D02*
X82930900Y-35200900D01*
X82930900Y-35200900D02*
X81360000Y-33630000D01*
D32*
%TO.N,GND*%
X97790000Y-29290000D02*
X99641000Y-29290000D01*
X99641000Y-29290000D02*
X102870000Y-32519000D01*
X102870000Y-32519000D02*
X102870000Y-33460400D01*
X102870000Y-33460400D02*
X107815300Y-38405700D01*
X107815300Y-38405700D02*
X122225700Y-38405700D01*
X122225700Y-38405700D02*
X124460000Y-40640000D01*
X86360000Y-28630000D02*
X87375600Y-27614400D01*
X87375600Y-27614400D02*
X96114400Y-27614400D01*
X96114400Y-27614400D02*
X97790000Y-29290000D01*
X106680000Y-99060000D02*
X86280000Y-99060000D01*
X86280000Y-99060000D02*
X78660000Y-106680000D01*
X86360000Y-116840000D02*
X85159700Y-116840000D01*
X85159700Y-116840000D02*
X85159700Y-117213600D01*
X85159700Y-117213600D02*
X81723300Y-120650000D01*
X81723300Y-120650000D02*
X78660000Y-120650000D01*
X103505000Y-63420000D02*
X104847100Y-63420000D01*
X104847100Y-63420000D02*
X105967500Y-62299600D01*
X105967500Y-62299600D02*
X116989600Y-62299600D01*
X116989600Y-62299600D02*
X118110000Y-63420000D01*
X56022500Y-38631100D02*
X64770000Y-29883600D01*
X64770000Y-29883600D02*
X64770000Y-27940000D01*
X56022500Y-38631100D02*
X56022500Y-43289600D01*
X56022500Y-43289600D02*
X57182900Y-44450000D01*
X52380000Y-35560000D02*
X55451100Y-38631100D01*
X55451100Y-38631100D02*
X56022500Y-38631100D01*
X76120000Y-34290000D02*
X69770000Y-27940000D01*
X69770000Y-27940000D02*
X64770000Y-27940000D01*
X86360000Y-28630000D02*
X84337300Y-30652700D01*
X84337300Y-30652700D02*
X79757300Y-30652700D01*
X79757300Y-30652700D02*
X76120000Y-34290000D01*
X55880000Y-81280000D02*
X57080300Y-81280000D01*
X57080300Y-81280000D02*
X60960000Y-77400300D01*
X60960000Y-77400300D02*
X71120000Y-77400300D01*
X43260000Y-80010000D02*
X44530000Y-81280000D01*
X44530000Y-81280000D02*
X55880000Y-81280000D01*
X71120000Y-76200000D02*
X71120000Y-77400300D01*
X71120000Y-77400300D02*
X71130300Y-77400300D01*
X71130300Y-77400300D02*
X73740000Y-80010000D01*
X55880000Y-167640000D02*
X54679700Y-167640000D01*
X40640000Y-167640000D02*
X41840300Y-167640000D01*
X41840300Y-167640000D02*
X43110300Y-166370000D01*
X43110300Y-166370000D02*
X53409700Y-166370000D01*
X53409700Y-166370000D02*
X54679700Y-167640000D01*
X223480000Y-38100000D02*
X224687900Y-36892100D01*
X224687900Y-36892100D02*
X234932100Y-36892100D01*
X234932100Y-36892100D02*
X236140000Y-38100000D01*
X209470000Y-38735000D02*
X210089800Y-39354800D01*
X210089800Y-39354800D02*
X222225200Y-39354800D01*
X222225200Y-39354800D02*
X223480000Y-38100000D01*
X227399700Y-76200000D02*
X227360200Y-76200000D01*
X227360200Y-76200000D02*
X226150600Y-77409600D01*
X226150600Y-77409600D02*
X218309900Y-77409600D01*
X218309900Y-77409600D02*
X217100300Y-76200000D01*
X215900000Y-121920000D02*
X215900000Y-120719700D01*
X212090000Y-116920000D02*
X215889700Y-120719700D01*
X215889700Y-120719700D02*
X215900000Y-120719700D01*
X212123300Y-99469500D02*
X212123300Y-99096400D01*
X212123300Y-99096400D02*
X212159700Y-99060000D01*
X228520000Y-102870000D02*
X227287000Y-101637000D01*
X227287000Y-101637000D02*
X214290800Y-101637000D01*
X214290800Y-101637000D02*
X212123300Y-99469500D01*
X198040000Y-102870000D02*
X208722800Y-102870000D01*
X208722800Y-102870000D02*
X212123300Y-99469500D01*
X237559700Y-114300000D02*
X237559700Y-113927000D01*
X237559700Y-113927000D02*
X235462300Y-111829600D01*
X235462300Y-111829600D02*
X234531500Y-111829600D01*
X234531500Y-111829600D02*
X229870000Y-107168100D01*
X229870000Y-107168100D02*
X229870000Y-104220000D01*
X229870000Y-104220000D02*
X228520000Y-102870000D01*
X213360000Y-99060000D02*
X212159700Y-99060000D01*
X187359900Y-99060000D02*
X189264900Y-100965000D01*
X189264900Y-100965000D02*
X196135000Y-100965000D01*
X196135000Y-100965000D02*
X198040000Y-102870000D01*
X193040000Y-167640000D02*
X191374400Y-169305600D01*
X191374400Y-169305600D02*
X174684000Y-169305600D01*
X174684000Y-169305600D02*
X171450000Y-166071600D01*
X171450000Y-166071600D02*
X171450000Y-165020000D01*
X200660000Y-76200000D02*
X199459700Y-76200000D01*
X187960000Y-76200000D02*
X189160300Y-76200000D01*
X189160300Y-76200000D02*
X190406100Y-77445800D01*
X190406100Y-77445800D02*
X198213900Y-77445800D01*
X198213900Y-77445800D02*
X199459700Y-76200000D01*
X170180000Y-104140000D02*
X171380300Y-104140000D01*
X171380300Y-104140000D02*
X176460300Y-99060000D01*
X176460300Y-99060000D02*
X187359900Y-99060000D01*
X134620000Y-167640000D02*
X160618000Y-167640000D01*
X160618000Y-167640000D02*
X163238000Y-165020000D01*
X163238000Y-165020000D02*
X171450000Y-165020000D01*
X113030000Y-165020000D02*
X118517600Y-165020000D01*
X118517600Y-165020000D02*
X120650000Y-167152400D01*
X120650000Y-167152400D02*
X120650000Y-168068900D01*
X120650000Y-168068900D02*
X121468600Y-168887500D01*
X121468600Y-168887500D02*
X133372500Y-168887500D01*
X133372500Y-168887500D02*
X134620000Y-167640000D01*
X166439700Y-81280000D02*
X166183100Y-81023400D01*
X166183100Y-81023400D02*
X158423700Y-81023400D01*
X158423700Y-81023400D02*
X153600300Y-76200000D01*
X152400000Y-76200000D02*
X151199700Y-76200000D01*
X137160000Y-76200000D02*
X138360300Y-76200000D01*
X138360300Y-76200000D02*
X139630300Y-74930000D01*
X139630300Y-74930000D02*
X149929700Y-74930000D01*
X149929700Y-74930000D02*
X151199700Y-76200000D01*
X136559900Y-76200000D02*
X137160000Y-76200000D01*
X136559900Y-76200000D02*
X135959700Y-76200000D01*
X133350000Y-63420000D02*
X132160000Y-62230000D01*
X132160000Y-62230000D02*
X119300000Y-62230000D01*
X119300000Y-62230000D02*
X118110000Y-63420000D01*
X71120000Y-167640000D02*
X69919700Y-167640000D01*
X55880000Y-167640000D02*
X57080300Y-167640000D01*
X57080300Y-167640000D02*
X58350300Y-166370000D01*
X58350300Y-166370000D02*
X68649700Y-166370000D01*
X68649700Y-166370000D02*
X69919700Y-167640000D01*
X32370000Y-28384400D02*
X32140300Y-28154700D01*
X32140300Y-28154700D02*
X31720000Y-28154700D01*
X32370000Y-28679800D02*
X32370000Y-28384400D01*
X39674700Y-27940000D02*
X39034400Y-27299700D01*
X39034400Y-27299700D02*
X33454700Y-27299700D01*
X33454700Y-27299700D02*
X32370000Y-28384400D01*
X41275000Y-27940000D02*
X39674700Y-27940000D01*
X31720000Y-29205000D02*
X31720000Y-28154700D01*
X32370000Y-29205000D02*
X32370000Y-28679800D01*
X78660000Y-106680000D02*
X77400300Y-106680000D01*
X77400300Y-106680000D02*
X72320300Y-101600000D01*
X167640000Y-81280000D02*
X166439700Y-81280000D01*
X191530000Y-29135000D02*
X200260000Y-29135000D01*
X200260000Y-29135000D02*
X200330000Y-29065000D01*
X182370000Y-29135000D02*
X175400000Y-29135000D01*
X175400000Y-29135000D02*
X175330000Y-29065000D01*
X184660000Y-29135000D02*
X182370000Y-29135000D01*
X184660000Y-29135000D02*
X186950000Y-29135000D01*
X203280000Y-53975000D02*
X202044200Y-55210800D01*
X202044200Y-55210800D02*
X191815800Y-55210800D01*
X191815800Y-55210800D02*
X190580000Y-53975000D01*
X232985000Y-28910000D02*
X234201700Y-30126700D01*
X234201700Y-30126700D02*
X242776700Y-30126700D01*
X242776700Y-30126700D02*
X244100000Y-31450000D01*
X43260000Y-54610000D02*
X51099200Y-46770800D01*
X51099200Y-46770800D02*
X54862100Y-46770800D01*
X54862100Y-46770800D02*
X57182900Y-44450000D01*
X57182900Y-44450000D02*
X57665000Y-44450000D01*
X168910000Y-31750000D02*
X172645000Y-31750000D01*
X172645000Y-31750000D02*
X175330000Y-29065000D01*
X26600300Y-53340000D02*
X27870300Y-54610000D01*
X27870300Y-54610000D02*
X43260000Y-54610000D01*
X103505000Y-86280000D02*
X104855000Y-87630000D01*
X104855000Y-87630000D02*
X116760000Y-87630000D01*
X116760000Y-87630000D02*
X118110000Y-86280000D01*
X25400000Y-53340000D02*
X26600300Y-53340000D01*
X71120000Y-142840100D02*
X64249900Y-135970000D01*
X64249900Y-135970000D02*
X63500000Y-135970000D01*
X71120000Y-142840100D02*
X71120000Y-143440300D01*
X71120000Y-142240000D02*
X71120000Y-142840100D01*
X238760000Y-114300000D02*
X237559700Y-114300000D01*
X190580000Y-53975000D02*
X183515000Y-53975000D01*
X183515000Y-53975000D02*
X182880000Y-53340000D01*
X223520000Y-49530000D02*
X222319700Y-49530000D01*
X215980000Y-53975000D02*
X218247700Y-53975000D01*
X218247700Y-53975000D02*
X222319700Y-49903000D01*
X222319700Y-49903000D02*
X222319700Y-49530000D01*
X223520000Y-49530000D02*
X224720300Y-49530000D01*
X228680000Y-53975000D02*
X224720300Y-50015300D01*
X224720300Y-50015300D02*
X224720300Y-49530000D01*
X187960000Y-99060000D02*
X187359900Y-99060000D01*
X121920000Y-76200000D02*
X123120300Y-76200000D01*
X135959700Y-76200000D02*
X134689700Y-74930000D01*
X134689700Y-74930000D02*
X124390300Y-74930000D01*
X124390300Y-74930000D02*
X123120300Y-76200000D01*
X152400000Y-76200000D02*
X153600300Y-76200000D01*
X40640000Y-76200000D02*
X40640000Y-77400300D01*
X40640000Y-77400300D02*
X40650300Y-77400300D01*
X40650300Y-77400300D02*
X43260000Y-80010000D01*
X40640000Y-142240000D02*
X40640000Y-143440300D01*
X40640000Y-143440300D02*
X40650300Y-143440300D01*
X40650300Y-143440300D02*
X43260000Y-146050000D01*
X71120000Y-101600000D02*
X72320300Y-101600000D01*
X71120000Y-143440300D02*
X71130300Y-143440300D01*
X71130300Y-143440300D02*
X73740000Y-146050000D01*
X233680000Y-144780000D02*
X232479700Y-144780000D01*
X232479700Y-144780000D02*
X232479700Y-144404900D01*
X232479700Y-144404900D02*
X226574400Y-138499600D01*
X226574400Y-138499600D02*
X215517700Y-138499600D01*
X215517700Y-138499600D02*
X212090000Y-135071900D01*
X212090000Y-135071900D02*
X212090000Y-134700000D01*
X215900000Y-76200000D02*
X214699700Y-76200000D01*
X200660000Y-76200000D02*
X201860300Y-76200000D01*
X201860300Y-76200000D02*
X203110500Y-77450200D01*
X203110500Y-77450200D02*
X213449500Y-77450200D01*
X213449500Y-77450200D02*
X214699700Y-76200000D01*
X215900000Y-76200000D02*
X217100300Y-76200000D01*
X228600000Y-76200000D02*
X227399700Y-76200000D01*
X55880000Y-124460000D02*
X54679700Y-124460000D01*
X54679700Y-124460000D02*
X53479400Y-123259700D01*
X53479400Y-123259700D02*
X45869700Y-123259700D01*
X45869700Y-123259700D02*
X43260000Y-120650000D01*
%TO.N,VCC*%
X78740000Y-55833200D02*
X78740000Y-54610000D01*
X79340200Y-58420000D02*
X78740000Y-57819800D01*
X78740000Y-57819800D02*
X78740000Y-55833200D01*
X78740000Y-55833200D02*
X64723200Y-55833200D01*
X64723200Y-55833200D02*
X63500000Y-54610000D01*
X78740000Y-124460000D02*
X77470000Y-124460000D01*
X77470000Y-124460000D02*
X73660000Y-120650000D01*
X73660000Y-120650000D02*
X48260000Y-120650000D01*
X50707200Y-57173100D02*
X49460300Y-58420000D01*
X62299700Y-58420000D02*
X61052800Y-57173100D01*
X61052800Y-57173100D02*
X50707200Y-57173100D01*
X50707200Y-57173100D02*
X50707200Y-57057200D01*
X50707200Y-57057200D02*
X48260000Y-54610000D01*
X48260000Y-58420000D02*
X49460300Y-58420000D01*
X63500000Y-58420000D02*
X62299700Y-58420000D01*
X79340200Y-58420000D02*
X79940300Y-58420000D01*
X78740000Y-58420000D02*
X79340200Y-58420000D01*
X61099300Y-143579600D02*
X50730400Y-143579600D01*
X50730400Y-143579600D02*
X48260000Y-146050000D01*
X62299700Y-144780000D02*
X61099300Y-143579600D01*
X63500000Y-140970000D02*
X61099300Y-143370700D01*
X61099300Y-143370700D02*
X61099300Y-143579600D01*
X63500000Y-101600000D02*
X62299700Y-101600000D01*
X62299700Y-101600000D02*
X61099300Y-100399600D01*
X61099300Y-100399600D02*
X53249500Y-100399600D01*
X53249500Y-100399600D02*
X49549100Y-104100000D01*
X49549100Y-104100000D02*
X45760000Y-104100000D01*
X45760000Y-104100000D02*
X43180000Y-106680000D01*
X53975000Y-27940000D02*
X53975000Y-29540300D01*
X53421700Y-34302000D02*
X48378000Y-34302000D01*
X48378000Y-34302000D02*
X47040000Y-35640000D01*
X54679700Y-35560000D02*
X53421700Y-34302000D01*
X53975000Y-29540300D02*
X53421700Y-30093600D01*
X53421700Y-30093600D02*
X53421700Y-34302000D01*
X231140000Y-38100000D02*
X232341100Y-39301100D01*
X232341100Y-39301100D02*
X247718900Y-39301100D01*
X247718900Y-39301100D02*
X248920000Y-38100000D01*
X233680000Y-54679700D02*
X233680000Y-53975000D01*
X236220000Y-57219700D02*
X233680000Y-54679700D01*
X223520000Y-57219700D02*
X231140000Y-57219700D01*
X231140000Y-57219700D02*
X233680000Y-54679700D01*
X223520000Y-57369800D02*
X223520000Y-57219700D01*
X223520000Y-58420000D02*
X223520000Y-57369800D01*
X236220000Y-58420000D02*
X236220000Y-57219700D01*
X220980000Y-55175200D02*
X223024500Y-57219700D01*
X223024500Y-57219700D02*
X223520000Y-57219700D01*
X220980000Y-55175200D02*
X220944000Y-55211200D01*
X220944000Y-55211200D02*
X209516200Y-55211200D01*
X209516200Y-55211200D02*
X208280000Y-53975000D01*
X220980000Y-53975000D02*
X220980000Y-55175200D01*
X233680000Y-129540000D02*
X232479700Y-129540000D01*
X215900000Y-137160000D02*
X217100300Y-137160000D01*
X217100300Y-137160000D02*
X217100300Y-136784900D01*
X217100300Y-136784900D02*
X221874800Y-132010400D01*
X221874800Y-132010400D02*
X230382300Y-132010400D01*
X230382300Y-132010400D02*
X232479700Y-129913000D01*
X232479700Y-129913000D02*
X232479700Y-129540000D01*
X151060300Y-129540000D02*
X149700500Y-128180200D01*
X149700500Y-128180200D02*
X149700500Y-127829100D01*
X149700500Y-127829100D02*
X145415200Y-123543800D01*
X145415200Y-123543800D02*
X132433800Y-123543800D01*
X132433800Y-123543800D02*
X130810000Y-121920000D01*
X158750000Y-125730000D02*
X159950300Y-125730000D01*
X185962400Y-121920000D02*
X184272200Y-123610200D01*
X184272200Y-123610200D02*
X162070100Y-123610200D01*
X162070100Y-123610200D02*
X159950300Y-125730000D01*
X186020200Y-121920000D02*
X186620300Y-121920000D01*
X185420000Y-121920000D02*
X185962400Y-121920000D01*
X186020200Y-121920000D02*
X185962400Y-121920000D01*
X212090000Y-121920000D02*
X210858400Y-123151600D01*
X210858400Y-123151600D02*
X187478800Y-123151600D01*
X187478800Y-123151600D02*
X186620300Y-122293100D01*
X186620300Y-122293100D02*
X186620300Y-121920000D01*
X161220300Y-58420000D02*
X164449900Y-58420000D01*
X164449900Y-58420000D02*
X165705800Y-59675900D01*
X165705800Y-59675900D02*
X171307800Y-59675900D01*
X171307800Y-59675900D02*
X171472200Y-59840300D01*
X171472200Y-59840300D02*
X172639400Y-59840300D01*
X172639400Y-59840300D02*
X174059700Y-58420000D01*
X160020000Y-58420000D02*
X161220300Y-58420000D01*
X175260000Y-58420000D02*
X174059700Y-58420000D01*
X186620300Y-106680000D02*
X186620300Y-106304900D01*
X186620300Y-106304900D02*
X190055200Y-102870000D01*
X190055200Y-102870000D02*
X193040000Y-102870000D01*
X148590000Y-58420000D02*
X145980300Y-58420000D01*
X158819700Y-58420000D02*
X157619300Y-57219600D01*
X157619300Y-57219600D02*
X149790400Y-57219600D01*
X149790400Y-57219600D02*
X148590000Y-58420000D01*
X144780000Y-58420000D02*
X145980300Y-58420000D01*
X133350000Y-58420000D02*
X130740300Y-58420000D01*
X143579700Y-58420000D02*
X142379300Y-57219600D01*
X142379300Y-57219600D02*
X134550400Y-57219600D01*
X134550400Y-57219600D02*
X133350000Y-58420000D01*
X129540000Y-58420000D02*
X130740300Y-58420000D01*
X144780000Y-58420000D02*
X143579700Y-58420000D01*
X128939900Y-58420000D02*
X129540000Y-58420000D01*
X128939900Y-58420000D02*
X128339700Y-58420000D01*
X118110000Y-58420000D02*
X118921800Y-58420000D01*
X118921800Y-58420000D02*
X120122200Y-57219600D01*
X120122200Y-57219600D02*
X127139300Y-57219600D01*
X127139300Y-57219600D02*
X128339700Y-58420000D01*
X118110000Y-58420000D02*
X115500300Y-58420000D01*
X114300000Y-58420000D02*
X115500300Y-58420000D01*
X114300000Y-58420000D02*
X109553900Y-58420000D01*
X109553900Y-58420000D02*
X108353600Y-59620300D01*
X108353600Y-59620300D02*
X104705300Y-59620300D01*
X104705300Y-59620300D02*
X103505000Y-58420000D01*
X103505000Y-58420000D02*
X79940300Y-58420000D01*
X114300000Y-81280000D02*
X113099700Y-81280000D01*
X113099700Y-81280000D02*
X111899300Y-80079600D01*
X111899300Y-80079600D02*
X104705400Y-80079600D01*
X104705400Y-80079600D02*
X103505000Y-81280000D01*
X114300000Y-81280000D02*
X118110000Y-81280000D01*
X78740000Y-80010000D02*
X102235000Y-80010000D01*
X102235000Y-80010000D02*
X103505000Y-81280000D01*
X63500000Y-144780000D02*
X64700300Y-144780000D01*
X78740000Y-147262400D02*
X78740000Y-146050000D01*
X78740000Y-149860000D02*
X78740000Y-147262400D01*
X78740000Y-147262400D02*
X67182700Y-147262400D01*
X67182700Y-147262400D02*
X64700300Y-144780000D01*
X55880000Y-35560000D02*
X54679700Y-35560000D01*
X33020000Y-109220000D02*
X34220300Y-109220000D01*
X43180000Y-106680000D02*
X36387200Y-106680000D01*
X36387200Y-106680000D02*
X34220300Y-108846900D01*
X34220300Y-108846900D02*
X34220300Y-109220000D01*
X108585000Y-129538500D02*
X116203500Y-121920000D01*
X116203500Y-121920000D02*
X130810000Y-121920000D01*
X118110000Y-81280000D02*
X119310400Y-80079600D01*
X119310400Y-80079600D02*
X127139300Y-80079600D01*
X127139300Y-80079600D02*
X128339700Y-81280000D01*
X214699700Y-106680000D02*
X214699700Y-106480400D01*
X214699700Y-106480400D02*
X213400900Y-105181600D01*
X213400900Y-105181600D02*
X195351600Y-105181600D01*
X195351600Y-105181600D02*
X193040000Y-102870000D01*
X177800000Y-55880000D02*
X182880000Y-55880000D01*
X160020000Y-58420000D02*
X158819700Y-58420000D01*
X129540000Y-81280000D02*
X128339700Y-81280000D01*
X78740000Y-83820000D02*
X77539700Y-83820000D01*
X48260000Y-83820000D02*
X49460300Y-83820000D01*
X49460300Y-83820000D02*
X50660700Y-82619600D01*
X50660700Y-82619600D02*
X76339300Y-82619600D01*
X76339300Y-82619600D02*
X77539700Y-83820000D01*
X151060300Y-129540000D02*
X154870300Y-125730000D01*
X154870300Y-125730000D02*
X158750000Y-125730000D01*
X68580000Y-109220000D02*
X69780300Y-109220000D01*
X73660000Y-106680000D02*
X71947200Y-106680000D01*
X71947200Y-106680000D02*
X69780300Y-108846900D01*
X69780300Y-108846900D02*
X69780300Y-109220000D01*
X63500000Y-144780000D02*
X62299700Y-144780000D01*
X108585000Y-129538500D02*
X85018800Y-129538500D01*
X85018800Y-129538500D02*
X79940300Y-124460000D01*
X108585000Y-129538500D02*
X108585000Y-133350000D01*
X78740000Y-124460000D02*
X79940300Y-124460000D01*
X171450000Y-160020000D02*
X168275000Y-156845000D01*
X168275000Y-156845000D02*
X163830000Y-156845000D01*
X175260000Y-160020000D02*
X171450000Y-160020000D01*
X215900000Y-106680000D02*
X214699700Y-106680000D01*
X195580000Y-58420000D02*
X194379700Y-58420000D01*
X194379700Y-58420000D02*
X191839700Y-55880000D01*
X191839700Y-55880000D02*
X182880000Y-55880000D01*
X208280000Y-53975000D02*
X207035700Y-52730700D01*
X207035700Y-52730700D02*
X196824300Y-52730700D01*
X196824300Y-52730700D02*
X195580000Y-53975000D01*
X149860000Y-129540000D02*
X151060300Y-129540000D01*
X129540000Y-81280000D02*
X133985000Y-81280000D01*
X133985000Y-81280000D02*
X137160000Y-84455000D01*
X116840000Y-160020000D02*
X113030000Y-160020000D01*
X101600000Y-33020000D02*
X99060000Y-33020000D01*
X99060000Y-33020000D02*
X97790000Y-34290000D01*
X185420000Y-106680000D02*
X186620300Y-106680000D01*
X215900000Y-106680000D02*
X217100300Y-106680000D01*
X217100300Y-106680000D02*
X217100300Y-106304900D01*
X217100300Y-106304900D02*
X220535200Y-102870000D01*
X220535200Y-102870000D02*
X223520000Y-102870000D01*
%TD*%
M02*
