%TF.GenerationSoftware,KiCad,Pcbnew,(5.1.6)-1*%
%TF.CreationDate,2020-07-16T21:59:03+01:00*%
%TF.ProjectId,Gigatron,47696761-7472-46f6-9e2e-6b696361645f,rev?*%
%TF.SameCoordinates,Original*%
%TF.FileFunction,Copper,L2,Bot*%
%TF.FilePolarity,Positive*%
%FSLAX46Y46*%
G04 Gerber Fmt 4.6, Leading zero omitted, Abs format (unit mm)*
G04 Created by KiCad (PCBNEW (5.1.6)-1) date 2020-07-16 21:59:03*
%MOMM*%
%LPD*%
G01*
G04 APERTURE LIST*
%TA.AperFunction,ComponentPad*%
%ADD10O,1.150000X1.800000*%
%TD*%
%TA.AperFunction,ComponentPad*%
%ADD11O,1.450000X2.000000*%
%TD*%
%TA.AperFunction,ComponentPad*%
%ADD12C,4.000000*%
%TD*%
%TA.AperFunction,ComponentPad*%
%ADD13C,1.600000*%
%TD*%
%TA.AperFunction,ComponentPad*%
%ADD14R,1.600000X1.600000*%
%TD*%
%TA.AperFunction,ComponentPad*%
%ADD15O,1.600000X1.600000*%
%TD*%
%TA.AperFunction,ComponentPad*%
%ADD16C,1.500000*%
%TD*%
%TA.AperFunction,ComponentPad*%
%ADD17R,1.500000X1.500000*%
%TD*%
%TA.AperFunction,ComponentPad*%
%ADD18C,2.000000*%
%TD*%
%TA.AperFunction,ComponentPad*%
%ADD19O,1.800000X1.800000*%
%TD*%
%TA.AperFunction,ComponentPad*%
%ADD20R,1.800000X1.800000*%
%TD*%
%TA.AperFunction,ComponentPad*%
%ADD21O,2.400000X2.400000*%
%TD*%
%TA.AperFunction,ComponentPad*%
%ADD22R,2.400000X2.400000*%
%TD*%
%TA.AperFunction,ComponentPad*%
%ADD23O,1.400000X1.400000*%
%TD*%
%TA.AperFunction,ComponentPad*%
%ADD24C,1.400000*%
%TD*%
%TA.AperFunction,ComponentPad*%
%ADD25C,2.550000*%
%TD*%
%TA.AperFunction,ComponentPad*%
%ADD26C,2.400000*%
%TD*%
%TA.AperFunction,ComponentPad*%
%ADD27C,0.600000*%
%TD*%
%TA.AperFunction,ComponentPad*%
%ADD28C,1.800000*%
%TD*%
%TA.AperFunction,ViaPad*%
%ADD29C,0.600000*%
%TD*%
%TA.AperFunction,Conductor*%
%ADD30C,0.250000*%
%TD*%
%TA.AperFunction,Conductor*%
%ADD31C,0.400000*%
%TD*%
G04 APERTURE END LIST*
D10*
%TO.P,J1,6*%
%TO.N,N/C*%
X29145000Y-25355000D03*
X36895000Y-25355000D03*
D11*
X29295000Y-29155000D03*
X36745000Y-29155000D03*
%TD*%
D12*
%TO.P,J3,0*%
%TO.N,GND*%
X175330000Y-29065000D03*
X200330000Y-29065000D03*
D13*
%TO.P,J3,15*%
%TO.N,N/C*%
X192675000Y-27155000D03*
%TO.P,J3,14*%
%TO.N,SER_LATCH*%
X190385000Y-27155000D03*
%TO.P,J3,13*%
%TO.N,SER_PULSE*%
X188095000Y-27155000D03*
%TO.P,J3,12*%
%TO.N,N/C*%
X185805000Y-27155000D03*
%TO.P,J3,11*%
X183515000Y-27155000D03*
%TO.P,J3,10*%
%TO.N,GND*%
X191530000Y-29135000D03*
%TO.P,J3,9*%
%TO.N,N/C*%
X189240000Y-29135000D03*
%TO.P,J3,8*%
%TO.N,GND*%
X186950000Y-29135000D03*
%TO.P,J3,7*%
X184660000Y-29135000D03*
%TO.P,J3,6*%
X182370000Y-29135000D03*
%TO.P,J3,5*%
X192675000Y-31115000D03*
%TO.P,J3,4*%
%TO.N,N/C*%
X190385000Y-31115000D03*
%TO.P,J3,3*%
%TO.N,/PER/BLUE*%
X188095000Y-31115000D03*
%TO.P,J3,2*%
%TO.N,/PER/GREEN*%
X185805000Y-31115000D03*
D14*
%TO.P,J3,1*%
%TO.N,/PER/RED*%
X183515000Y-31115000D03*
%TD*%
D12*
%TO.P,J4,0*%
%TO.N,GND*%
X219100000Y-31450000D03*
X244100000Y-31450000D03*
D13*
%TO.P,J4,9*%
%TO.N,N/C*%
X235755000Y-28910000D03*
%TO.P,J4,8*%
%TO.N,GND*%
X232985000Y-28910000D03*
%TO.P,J4,7*%
%TO.N,N/C*%
X230215000Y-28910000D03*
%TO.P,J4,6*%
%TO.N,VCC*%
X227445000Y-28910000D03*
%TO.P,J4,5*%
%TO.N,N/C*%
X237140000Y-31750000D03*
%TO.P,J4,4*%
%TO.N,SER_PULSE*%
X234370000Y-31750000D03*
%TO.P,J4,3*%
%TO.N,SER_LATCH*%
X231600000Y-31750000D03*
%TO.P,J4,2*%
%TO.N,SER_DATA*%
X228830000Y-31750000D03*
D14*
%TO.P,J4,1*%
%TO.N,N/C*%
X226060000Y-31750000D03*
%TD*%
D15*
%TO.P,R19,2*%
%TO.N,SER_DATA*%
X238760000Y-38100000D03*
D13*
%TO.P,R19,1*%
%TO.N,VCC*%
X248920000Y-38100000D03*
%TD*%
D15*
%TO.P,R10,2*%
%TO.N,GND*%
X64770000Y-27940000D03*
D13*
%TO.P,R10,1*%
%TO.N,Net-(C44-Pad1)*%
X74930000Y-27940000D03*
%TD*%
D15*
%TO.P,R7,2*%
%TO.N,VCC*%
X158750000Y-125730000D03*
D13*
%TO.P,R7,1*%
%TO.N,~PL*%
X168910000Y-125730000D03*
%TD*%
D15*
%TO.P,R6,2*%
%TO.N,Net-(D21-Pad2)*%
X163830000Y-167005000D03*
D13*
%TO.P,R6,1*%
%TO.N,VCC*%
X163830000Y-156845000D03*
%TD*%
D15*
%TO.P,R3,2*%
%TO.N,GND*%
X168910000Y-31750000D03*
D13*
%TO.P,R3,1*%
%TO.N,Net-(D2-Pad1)*%
X168910000Y-41910000D03*
%TD*%
%TO.P,C3,2*%
%TO.N,GND*%
X223480000Y-38100000D03*
%TO.P,C3,1*%
%TO.N,Net-(C3-Pad1)*%
X220980000Y-38100000D03*
%TD*%
%TO.P,C2,2*%
%TO.N,GND*%
X180380000Y-43180000D03*
%TO.P,C2,1*%
%TO.N,Net-(C2-Pad1)*%
X182880000Y-43180000D03*
%TD*%
%TO.P,C1,2*%
%TO.N,GND*%
X180380000Y-48260000D03*
%TO.P,C1,1*%
%TO.N,Net-(C1-Pad1)*%
X182880000Y-48260000D03*
%TD*%
D16*
%TO.P,Y1,2*%
%TO.N,Net-(C2-Pad1)*%
X187630000Y-43300000D03*
%TO.P,Y1,1*%
%TO.N,Net-(C1-Pad1)*%
X187630000Y-48180000D03*
%TD*%
D17*
%TO.P,U2,1*%
%TO.N,~RST*%
X182880000Y-58420000D03*
D16*
%TO.P,U2,3*%
%TO.N,GND*%
X182880000Y-53340000D03*
%TO.P,U2,2*%
%TO.N,VCC*%
X182880000Y-55880000D03*
%TD*%
D15*
%TO.P,R18,2*%
%TO.N,OUT7*%
X162560000Y-41910000D03*
D13*
%TO.P,R18,1*%
%TO.N,SER_LATCH*%
X162560000Y-31750000D03*
%TD*%
D15*
%TO.P,R17,2*%
%TO.N,OUT6*%
X158750000Y-41910000D03*
D13*
%TO.P,R17,1*%
%TO.N,SER_PULSE*%
X158750000Y-31750000D03*
%TD*%
D15*
%TO.P,R16,2*%
%TO.N,OUT5*%
X153670000Y-41910000D03*
D13*
%TO.P,R16,1*%
%TO.N,/PER/BLUE*%
X153670000Y-31750000D03*
%TD*%
D15*
%TO.P,R15,2*%
%TO.N,OUT4*%
X149860000Y-41910000D03*
D13*
%TO.P,R15,1*%
%TO.N,/PER/BLUE*%
X149860000Y-31750000D03*
%TD*%
D15*
%TO.P,R14,2*%
%TO.N,OUT3*%
X144780000Y-41910000D03*
D13*
%TO.P,R14,1*%
%TO.N,/PER/GREEN*%
X144780000Y-31750000D03*
%TD*%
D15*
%TO.P,R13,2*%
%TO.N,OUT2*%
X140970000Y-41910000D03*
D13*
%TO.P,R13,1*%
%TO.N,/PER/GREEN*%
X140970000Y-31750000D03*
%TD*%
D15*
%TO.P,R12,2*%
%TO.N,OUT1*%
X135890000Y-41910000D03*
D13*
%TO.P,R12,1*%
%TO.N,/PER/RED*%
X135890000Y-31750000D03*
%TD*%
D15*
%TO.P,R11,2*%
%TO.N,OUT0*%
X132080000Y-41910000D03*
D13*
%TO.P,R11,1*%
%TO.N,/PER/RED*%
X132080000Y-31750000D03*
%TD*%
D15*
%TO.P,R9,6*%
%TO.N,GND*%
X76200000Y-40640000D03*
%TO.P,R9,5*%
%TO.N,Net-(R9-Pad5)*%
X73660000Y-40640000D03*
%TO.P,R9,4*%
%TO.N,Net-(R9-Pad4)*%
X71120000Y-40640000D03*
%TO.P,R9,3*%
%TO.N,Net-(R9-Pad3)*%
X68580000Y-40640000D03*
%TO.P,R9,2*%
%TO.N,Net-(R9-Pad2)*%
X66040000Y-40640000D03*
D14*
%TO.P,R9,1*%
%TO.N,Net-(C43-Pad1)*%
X63500000Y-40640000D03*
%TD*%
D15*
%TO.P,R8,5*%
%TO.N,Net-(D8-Pad1)*%
X25400000Y-43180000D03*
%TO.P,R8,4*%
%TO.N,Net-(D5-Pad1)*%
X25400000Y-45720000D03*
%TO.P,R8,3*%
%TO.N,Net-(D6-Pad1)*%
X25400000Y-48260000D03*
%TO.P,R8,2*%
%TO.N,Net-(D7-Pad1)*%
X25400000Y-50800000D03*
D14*
%TO.P,R8,1*%
%TO.N,GND*%
X25400000Y-53340000D03*
%TD*%
D15*
%TO.P,R5,5*%
%TO.N,Net-(D23-Pad2)*%
X163830000Y-143510000D03*
%TO.P,R5,4*%
%TO.N,Net-(D22-Pad2)*%
X163830000Y-146050000D03*
%TO.P,R5,3*%
%TO.N,Net-(D25-Pad2)*%
X163830000Y-148590000D03*
%TO.P,R5,2*%
%TO.N,Net-(D32-Pad2)*%
X163830000Y-151130000D03*
D14*
%TO.P,R5,1*%
%TO.N,VCC*%
X163830000Y-153670000D03*
%TD*%
D15*
%TO.P,R4,5*%
%TO.N,EH*%
X208280000Y-142875000D03*
%TO.P,R4,4*%
%TO.N,EL*%
X208280000Y-145415000D03*
%TO.P,R4,3*%
%TO.N,Net-(D17-Pad2)*%
X208280000Y-147955000D03*
%TO.P,R4,2*%
%TO.N,Net-(D10-Pad2)*%
X208280000Y-150495000D03*
D14*
%TO.P,R4,1*%
%TO.N,VCC*%
X208280000Y-153035000D03*
%TD*%
D15*
%TO.P,R2,2*%
%TO.N,Net-(R1-Pad1)*%
X202565000Y-43180000D03*
D13*
%TO.P,R2,1*%
%TO.N,Net-(C2-Pad1)*%
X192405000Y-43180000D03*
%TD*%
D15*
%TO.P,R1,2*%
%TO.N,Net-(C1-Pad1)*%
X192405000Y-48260000D03*
D13*
%TO.P,R1,1*%
%TO.N,Net-(R1-Pad1)*%
X202565000Y-48260000D03*
%TD*%
D18*
%TO.P,F1,2*%
%TO.N,/PCR/+5V*%
X41960000Y-35630000D03*
%TO.P,F1,1*%
%TO.N,VCC*%
X47040000Y-35640000D03*
%TD*%
D19*
%TO.P,D36,2*%
%TO.N,Net-(D22-Pad2)*%
X156210000Y-151130000D03*
D20*
%TO.P,D36,1*%
%TO.N,/CU/~J*%
X158750000Y-151130000D03*
%TD*%
D19*
%TO.P,D35,2*%
%TO.N,Net-(D32-Pad2)*%
X156210000Y-158750000D03*
D20*
%TO.P,D35,1*%
%TO.N,/CU/~J*%
X158750000Y-158750000D03*
%TD*%
D19*
%TO.P,D34,2*%
%TO.N,Net-(D21-Pad2)*%
X156210000Y-163830000D03*
D20*
%TO.P,D34,1*%
%TO.N,/CU/~J*%
X158750000Y-163830000D03*
%TD*%
D19*
%TO.P,D33,2*%
%TO.N,Net-(D25-Pad2)*%
X143510000Y-154940000D03*
D20*
%TO.P,D33,1*%
%TO.N,Net-(D32-Pad1)*%
X146050000Y-154940000D03*
%TD*%
D19*
%TO.P,D32,2*%
%TO.N,Net-(D32-Pad2)*%
X143510000Y-158750000D03*
D20*
%TO.P,D32,1*%
%TO.N,Net-(D32-Pad1)*%
X146050000Y-158750000D03*
%TD*%
D19*
%TO.P,D31,2*%
%TO.N,Net-(D23-Pad2)*%
X137160000Y-147320000D03*
D20*
%TO.P,D31,1*%
%TO.N,Net-(D30-Pad1)*%
X139700000Y-147320000D03*
%TD*%
D19*
%TO.P,D30,2*%
%TO.N,Net-(D22-Pad2)*%
X137160000Y-151130000D03*
D20*
%TO.P,D30,1*%
%TO.N,Net-(D30-Pad1)*%
X139700000Y-151130000D03*
%TD*%
D19*
%TO.P,D29,2*%
%TO.N,Net-(D22-Pad2)*%
X130810000Y-151130000D03*
D20*
%TO.P,D29,1*%
%TO.N,Net-(D28-Pad1)*%
X133350000Y-151130000D03*
%TD*%
D19*
%TO.P,D28,2*%
%TO.N,Net-(D25-Pad2)*%
X130810000Y-154940000D03*
D20*
%TO.P,D28,1*%
%TO.N,Net-(D28-Pad1)*%
X133350000Y-154940000D03*
%TD*%
D19*
%TO.P,D27,2*%
%TO.N,Net-(D23-Pad2)*%
X124460000Y-147320000D03*
D20*
%TO.P,D27,1*%
%TO.N,Net-(D25-Pad1)*%
X127000000Y-147320000D03*
%TD*%
D19*
%TO.P,D26,2*%
%TO.N,Net-(D22-Pad2)*%
X124460000Y-151130000D03*
D20*
%TO.P,D26,1*%
%TO.N,Net-(D25-Pad1)*%
X127000000Y-151130000D03*
%TD*%
D19*
%TO.P,D25,2*%
%TO.N,Net-(D25-Pad2)*%
X124460000Y-154940000D03*
D20*
%TO.P,D25,1*%
%TO.N,Net-(D25-Pad1)*%
X127000000Y-154940000D03*
%TD*%
D19*
%TO.P,D24,2*%
%TO.N,Net-(D23-Pad2)*%
X118110000Y-147320000D03*
D20*
%TO.P,D24,1*%
%TO.N,Net-(D24-Pad1)*%
X120650000Y-147320000D03*
%TD*%
D19*
%TO.P,D23,2*%
%TO.N,Net-(D23-Pad2)*%
X111760000Y-147320000D03*
D20*
%TO.P,D23,1*%
%TO.N,Net-(D22-Pad1)*%
X114300000Y-147320000D03*
%TD*%
D19*
%TO.P,D22,2*%
%TO.N,Net-(D22-Pad2)*%
X111760000Y-151130000D03*
D20*
%TO.P,D22,1*%
%TO.N,Net-(D22-Pad1)*%
X114300000Y-151130000D03*
%TD*%
D19*
%TO.P,D21,2*%
%TO.N,Net-(D21-Pad2)*%
X143510000Y-163830000D03*
D20*
%TO.P,D21,1*%
%TO.N,IR7*%
X146050000Y-163830000D03*
%TD*%
D19*
%TO.P,D20,2*%
%TO.N,EH*%
X200660000Y-143510000D03*
D20*
%TO.P,D20,1*%
%TO.N,/CU/INV_A_IN*%
X203200000Y-143510000D03*
%TD*%
D19*
%TO.P,D19,2*%
%TO.N,EL*%
X200660000Y-147320000D03*
D20*
%TO.P,D19,1*%
%TO.N,/CU/INV_A_IN*%
X203200000Y-147320000D03*
%TD*%
D19*
%TO.P,D18,2*%
%TO.N,Net-(D17-Pad2)*%
X200660000Y-151130000D03*
D20*
%TO.P,D18,1*%
%TO.N,/CU/INV_A_IN*%
X203200000Y-151130000D03*
%TD*%
D19*
%TO.P,D17,2*%
%TO.N,Net-(D17-Pad2)*%
X194310000Y-151130000D03*
D20*
%TO.P,D17,1*%
%TO.N,Net-(D17-Pad1)*%
X196850000Y-151130000D03*
%TD*%
D19*
%TO.P,D16,2*%
%TO.N,EH*%
X187960000Y-143510000D03*
D20*
%TO.P,D16,1*%
%TO.N,Net-(D14-Pad1)*%
X190500000Y-143510000D03*
%TD*%
D19*
%TO.P,D15,2*%
%TO.N,EL*%
X187960000Y-147320000D03*
D20*
%TO.P,D15,1*%
%TO.N,Net-(D14-Pad1)*%
X190500000Y-147320000D03*
%TD*%
D19*
%TO.P,D14,2*%
%TO.N,Net-(D10-Pad2)*%
X187960000Y-154940000D03*
D20*
%TO.P,D14,1*%
%TO.N,Net-(D14-Pad1)*%
X190500000Y-154940000D03*
%TD*%
D19*
%TO.P,D13,2*%
%TO.N,EH*%
X181610000Y-143510000D03*
D20*
%TO.P,D13,1*%
%TO.N,Net-(D12-Pad1)*%
X184150000Y-143510000D03*
%TD*%
D19*
%TO.P,D12,2*%
%TO.N,Net-(D10-Pad2)*%
X181610000Y-154940000D03*
D20*
%TO.P,D12,1*%
%TO.N,Net-(D12-Pad1)*%
X184150000Y-154940000D03*
%TD*%
D19*
%TO.P,D11,2*%
%TO.N,EL*%
X175260000Y-147320000D03*
D20*
%TO.P,D11,1*%
%TO.N,Net-(D10-Pad1)*%
X177800000Y-147320000D03*
%TD*%
D19*
%TO.P,D10,2*%
%TO.N,Net-(D10-Pad2)*%
X175260000Y-154940000D03*
D20*
%TO.P,D10,1*%
%TO.N,Net-(D10-Pad1)*%
X177800000Y-154940000D03*
%TD*%
D19*
%TO.P,D9,2*%
%TO.N,Net-(D10-Pad2)*%
X168910000Y-154940000D03*
D20*
%TO.P,D9,1*%
%TO.N,Net-(D9-Pad1)*%
X171450000Y-154940000D03*
%TD*%
D19*
%TO.P,D4,2*%
%TO.N,~PL*%
X166370000Y-121920000D03*
D20*
%TO.P,D4,1*%
%TO.N,~PH*%
X158750000Y-121920000D03*
%TD*%
D19*
%TO.P,D3,2*%
%TO.N,~PL*%
X166370000Y-129540000D03*
D20*
%TO.P,D3,1*%
%TO.N,/CU/INV_C_OUT*%
X158750000Y-129540000D03*
%TD*%
D21*
%TO.P,D1,2*%
%TO.N,GND*%
X41275000Y-27940000D03*
D22*
%TO.P,D1,1*%
%TO.N,VCC*%
X53975000Y-27940000D03*
%TD*%
D13*
%TO.P,C44,2*%
%TO.N,Net-(C43-Pad1)*%
X63580000Y-34290000D03*
%TO.P,C44,1*%
%TO.N,Net-(C44-Pad1)*%
X68580000Y-34290000D03*
%TD*%
%TO.P,C43,2*%
%TO.N,GND*%
X76120000Y-34290000D03*
%TO.P,C43,1*%
%TO.N,Net-(C43-Pad1)*%
X71120000Y-34290000D03*
%TD*%
%TO.P,C42,2*%
%TO.N,GND*%
X97790000Y-29290000D03*
%TO.P,C42,1*%
%TO.N,VCC*%
X97790000Y-34290000D03*
%TD*%
%TO.P,C41,2*%
%TO.N,GND*%
X177800000Y-50880000D03*
%TO.P,C41,1*%
%TO.N,VCC*%
X177800000Y-55880000D03*
%TD*%
%TO.P,C40,2*%
%TO.N,GND*%
X148590000Y-63420000D03*
%TO.P,C40,1*%
%TO.N,VCC*%
X148590000Y-58420000D03*
%TD*%
%TO.P,C39,2*%
%TO.N,GND*%
X142160000Y-84455000D03*
%TO.P,C39,1*%
%TO.N,VCC*%
X137160000Y-84455000D03*
%TD*%
%TO.P,C38,2*%
%TO.N,GND*%
X133350000Y-63420000D03*
%TO.P,C38,1*%
%TO.N,VCC*%
X133350000Y-58420000D03*
%TD*%
%TO.P,C37,2*%
%TO.N,GND*%
X118110000Y-63420000D03*
%TO.P,C37,1*%
%TO.N,VCC*%
X118110000Y-58420000D03*
%TD*%
%TO.P,C36,2*%
%TO.N,GND*%
X118110000Y-86280000D03*
%TO.P,C36,1*%
%TO.N,VCC*%
X118110000Y-81280000D03*
%TD*%
%TO.P,C35,2*%
%TO.N,GND*%
X103505000Y-86280000D03*
%TO.P,C35,1*%
%TO.N,VCC*%
X103505000Y-81280000D03*
%TD*%
%TO.P,C34,2*%
%TO.N,GND*%
X103505000Y-63420000D03*
%TO.P,C34,1*%
%TO.N,VCC*%
X103505000Y-58420000D03*
%TD*%
%TO.P,C33,2*%
%TO.N,GND*%
X73740000Y-54610000D03*
%TO.P,C33,1*%
%TO.N,VCC*%
X78740000Y-54610000D03*
%TD*%
%TO.P,C32,2*%
%TO.N,GND*%
X58500000Y-54610000D03*
%TO.P,C32,1*%
%TO.N,VCC*%
X63500000Y-54610000D03*
%TD*%
%TO.P,C31,2*%
%TO.N,GND*%
X43260000Y-54610000D03*
%TO.P,C31,1*%
%TO.N,VCC*%
X48260000Y-54610000D03*
%TD*%
%TO.P,C30,2*%
%TO.N,GND*%
X73740000Y-80010000D03*
%TO.P,C30,1*%
%TO.N,VCC*%
X78740000Y-80010000D03*
%TD*%
%TO.P,C29,2*%
%TO.N,GND*%
X43260000Y-80010000D03*
%TO.P,C29,1*%
%TO.N,VCC*%
X48260000Y-80010000D03*
%TD*%
%TO.P,C28,2*%
%TO.N,GND*%
X48180000Y-106680000D03*
%TO.P,C28,1*%
%TO.N,VCC*%
X43180000Y-106680000D03*
%TD*%
%TO.P,C27,2*%
%TO.N,GND*%
X63500000Y-92790000D03*
%TO.P,C27,1*%
%TO.N,VCC*%
X63500000Y-97790000D03*
%TD*%
%TO.P,C26,2*%
%TO.N,GND*%
X78660000Y-106680000D03*
%TO.P,C26,1*%
%TO.N,VCC*%
X73660000Y-106680000D03*
%TD*%
%TO.P,C25,2*%
%TO.N,GND*%
X78660000Y-120650000D03*
%TO.P,C25,1*%
%TO.N,VCC*%
X73660000Y-120650000D03*
%TD*%
%TO.P,C24,2*%
%TO.N,GND*%
X43260000Y-120650000D03*
%TO.P,C24,1*%
%TO.N,VCC*%
X48260000Y-120650000D03*
%TD*%
%TO.P,C23,2*%
%TO.N,GND*%
X43260000Y-146050000D03*
%TO.P,C23,1*%
%TO.N,VCC*%
X48260000Y-146050000D03*
%TD*%
%TO.P,C22,2*%
%TO.N,GND*%
X63500000Y-135970000D03*
%TO.P,C22,1*%
%TO.N,VCC*%
X63500000Y-140970000D03*
%TD*%
%TO.P,C21,2*%
%TO.N,GND*%
X73740000Y-146050000D03*
%TO.P,C21,1*%
%TO.N,VCC*%
X78740000Y-146050000D03*
%TD*%
%TO.P,C20,2*%
%TO.N,GND*%
X103585000Y-133350000D03*
%TO.P,C20,1*%
%TO.N,VCC*%
X108585000Y-133350000D03*
%TD*%
%TO.P,C19,2*%
%TO.N,GND*%
X113030000Y-165020000D03*
%TO.P,C19,1*%
%TO.N,VCC*%
X113030000Y-160020000D03*
%TD*%
%TO.P,C18,2*%
%TO.N,GND*%
X130810000Y-126920000D03*
%TO.P,C18,1*%
%TO.N,VCC*%
X130810000Y-121920000D03*
%TD*%
%TO.P,C17,2*%
%TO.N,GND*%
X171450000Y-165020000D03*
%TO.P,C17,1*%
%TO.N,VCC*%
X171450000Y-160020000D03*
%TD*%
%TO.P,C16,2*%
%TO.N,GND*%
X212090000Y-134700000D03*
%TO.P,C16,1*%
%TO.N,VCC*%
X212090000Y-139700000D03*
%TD*%
%TO.P,C15,2*%
%TO.N,GND*%
X180340000Y-121840000D03*
%TO.P,C15,1*%
%TO.N,VCC*%
X180340000Y-116840000D03*
%TD*%
%TO.P,C14,2*%
%TO.N,GND*%
X212090000Y-116920000D03*
%TO.P,C14,1*%
%TO.N,VCC*%
X212090000Y-121920000D03*
%TD*%
%TO.P,C13,2*%
%TO.N,GND*%
X228520000Y-102870000D03*
%TO.P,C13,1*%
%TO.N,VCC*%
X223520000Y-102870000D03*
%TD*%
%TO.P,C12,2*%
%TO.N,GND*%
X198040000Y-102870000D03*
%TO.P,C12,1*%
%TO.N,VCC*%
X193040000Y-102870000D03*
%TD*%
%TO.P,C11,2*%
%TO.N,GND*%
X181610000Y-73740000D03*
%TO.P,C11,1*%
%TO.N,VCC*%
X181610000Y-78740000D03*
%TD*%
%TO.P,C10,2*%
%TO.N,GND*%
X190580000Y-53975000D03*
%TO.P,C10,1*%
%TO.N,VCC*%
X195580000Y-53975000D03*
%TD*%
%TO.P,C9,2*%
%TO.N,GND*%
X203280000Y-53975000D03*
%TO.P,C9,1*%
%TO.N,VCC*%
X208280000Y-53975000D03*
%TD*%
%TO.P,C8,2*%
%TO.N,GND*%
X215980000Y-53975000D03*
%TO.P,C8,1*%
%TO.N,VCC*%
X220980000Y-53975000D03*
%TD*%
%TO.P,C7,2*%
%TO.N,GND*%
X228680000Y-53975000D03*
%TO.P,C7,1*%
%TO.N,VCC*%
X233680000Y-53975000D03*
%TD*%
%TO.P,C6,2*%
%TO.N,GND*%
X236140000Y-38100000D03*
%TO.P,C6,1*%
%TO.N,VCC*%
X231140000Y-38100000D03*
%TD*%
%TO.P,C5,2*%
%TO.N,GND*%
X209470000Y-38735000D03*
%TO.P,C5,1*%
%TO.N,VCC*%
X204470000Y-38735000D03*
%TD*%
%TO.P,C4,2*%
%TO.N,GND*%
X52380000Y-35560000D03*
D14*
%TO.P,C4,1*%
%TO.N,VCC*%
X55880000Y-35560000D03*
%TD*%
D23*
%TO.P,R101,2*%
%TO.N,L*%
X59565000Y-44450000D03*
D24*
%TO.P,R101,1*%
%TO.N,GND*%
X57665000Y-44450000D03*
%TD*%
D23*
%TO.P,R100,2*%
%TO.N,VCC*%
X54605000Y-44450000D03*
D24*
%TO.P,R100,1*%
%TO.N,H*%
X52705000Y-44450000D03*
%TD*%
D14*
%TO.P,U16,1*%
%TO.N,CLK1*%
X134620000Y-129540000D03*
D15*
%TO.P,U16,8*%
%TO.N,~LD*%
X149860000Y-121920000D03*
%TO.P,U16,2*%
%TO.N,/CU/INV_B_IN*%
X137160000Y-129540000D03*
%TO.P,U16,9*%
%TO.N,Net-(D10-Pad2)*%
X147320000Y-121920000D03*
%TO.P,U16,3*%
%TO.N,~WE*%
X139700000Y-129540000D03*
%TO.P,U16,10*%
%TO.N,/CU/INV_B_OUT*%
X144780000Y-121920000D03*
%TO.P,U16,4*%
%TO.N,Net-(D17-Pad2)*%
X142240000Y-129540000D03*
%TO.P,U16,11*%
%TO.N,~PH*%
X142240000Y-121920000D03*
%TO.P,U16,5*%
%TO.N,/CU/INV_B_OUT*%
X144780000Y-129540000D03*
%TO.P,U16,12*%
%TO.N,/CU/~BF*%
X139700000Y-121920000D03*
%TO.P,U16,6*%
%TO.N,~OL*%
X147320000Y-129540000D03*
%TO.P,U16,13*%
%TO.N,/CU/~J*%
X137160000Y-121920000D03*
%TO.P,U16,7*%
%TO.N,VCC*%
X149860000Y-129540000D03*
%TO.P,U16,14*%
%TO.N,GND*%
X134620000Y-121920000D03*
%TD*%
D14*
%TO.P,U11,1*%
%TO.N,L*%
X215900000Y-129540000D03*
D15*
%TO.P,U11,9*%
%TO.N,N/C*%
X233680000Y-121920000D03*
%TO.P,U11,2*%
%TO.N,IR0*%
X218440000Y-129540000D03*
%TO.P,U11,10*%
%TO.N,N/C*%
X231140000Y-121920000D03*
%TO.P,U11,3*%
%TO.N,IR1*%
X220980000Y-129540000D03*
%TO.P,U11,11*%
%TO.N,N/C*%
X228600000Y-121920000D03*
%TO.P,U11,4*%
%TO.N,~DE*%
X223520000Y-129540000D03*
%TO.P,U11,12*%
%TO.N,/CU/~BF*%
X226060000Y-121920000D03*
%TO.P,U11,5*%
%TO.N,~OE*%
X226060000Y-129540000D03*
%TO.P,U11,13*%
%TO.N,IR2*%
X223520000Y-121920000D03*
%TO.P,U11,6*%
%TO.N,~AE*%
X228600000Y-129540000D03*
%TO.P,U11,14*%
%TO.N,IR3*%
X220980000Y-121920000D03*
%TO.P,U11,7*%
%TO.N,~IE*%
X231140000Y-129540000D03*
%TO.P,U11,15*%
%TO.N,IR4*%
X218440000Y-121920000D03*
%TO.P,U11,8*%
%TO.N,VCC*%
X233680000Y-129540000D03*
%TO.P,U11,16*%
%TO.N,GND*%
X215900000Y-121920000D03*
%TD*%
%TO.P,U7,40*%
%TO.N,VCC*%
X187960000Y-83820000D03*
%TO.P,U7,20*%
%TO.N,L*%
X236220000Y-99060000D03*
%TO.P,U7,39*%
%TO.N,H*%
X190500000Y-83820000D03*
%TO.P,U7,19*%
%TO.N,Net-(U7-Pad19)*%
X233680000Y-99060000D03*
%TO.P,U7,38*%
%TO.N,N/C*%
X193040000Y-83820000D03*
%TO.P,U7,18*%
%TO.N,Net-(U7-Pad18)*%
X231140000Y-99060000D03*
%TO.P,U7,37*%
%TO.N,/PRG/PC15*%
X195580000Y-83820000D03*
%TO.P,U7,17*%
%TO.N,Net-(U7-Pad17)*%
X228600000Y-99060000D03*
%TO.P,U7,36*%
%TO.N,/PRG/PC14*%
X198120000Y-83820000D03*
%TO.P,U7,16*%
%TO.N,Net-(U7-Pad16)*%
X226060000Y-99060000D03*
%TO.P,U7,35*%
%TO.N,/PRG/PC13*%
X200660000Y-83820000D03*
%TO.P,U7,15*%
%TO.N,Net-(U7-Pad15)*%
X223520000Y-99060000D03*
%TO.P,U7,34*%
%TO.N,/PRG/PC12*%
X203200000Y-83820000D03*
%TO.P,U7,14*%
%TO.N,Net-(U7-Pad14)*%
X220980000Y-99060000D03*
%TO.P,U7,33*%
%TO.N,/PRG/PC11*%
X205740000Y-83820000D03*
%TO.P,U7,13*%
%TO.N,Net-(U7-Pad13)*%
X218440000Y-99060000D03*
%TO.P,U7,32*%
%TO.N,/PRG/PC10*%
X208280000Y-83820000D03*
%TO.P,U7,12*%
%TO.N,Net-(U7-Pad12)*%
X215900000Y-99060000D03*
%TO.P,U7,31*%
%TO.N,/PRG/PC9*%
X210820000Y-83820000D03*
%TO.P,U7,11*%
%TO.N,GND*%
X213360000Y-99060000D03*
%TO.P,U7,30*%
X213360000Y-83820000D03*
%TO.P,U7,10*%
%TO.N,Net-(U7-Pad10)*%
X210820000Y-99060000D03*
%TO.P,U7,29*%
%TO.N,/PRG/PC8*%
X215900000Y-83820000D03*
%TO.P,U7,9*%
%TO.N,Net-(U7-Pad9)*%
X208280000Y-99060000D03*
%TO.P,U7,28*%
%TO.N,/PRG/PC7*%
X218440000Y-83820000D03*
%TO.P,U7,8*%
%TO.N,Net-(U7-Pad8)*%
X205740000Y-99060000D03*
%TO.P,U7,27*%
%TO.N,/PRG/PC6*%
X220980000Y-83820000D03*
%TO.P,U7,7*%
%TO.N,Net-(U7-Pad7)*%
X203200000Y-99060000D03*
%TO.P,U7,26*%
%TO.N,/PRG/PC5*%
X223520000Y-83820000D03*
%TO.P,U7,6*%
%TO.N,Net-(U7-Pad6)*%
X200660000Y-99060000D03*
%TO.P,U7,25*%
%TO.N,/PRG/PC4*%
X226060000Y-83820000D03*
%TO.P,U7,5*%
%TO.N,Net-(U7-Pad5)*%
X198120000Y-99060000D03*
%TO.P,U7,24*%
%TO.N,/PRG/PC3*%
X228600000Y-83820000D03*
%TO.P,U7,4*%
%TO.N,Net-(U7-Pad4)*%
X195580000Y-99060000D03*
%TO.P,U7,23*%
%TO.N,/PRG/PC2*%
X231140000Y-83820000D03*
%TO.P,U7,3*%
%TO.N,Net-(U7-Pad3)*%
X193040000Y-99060000D03*
%TO.P,U7,22*%
%TO.N,/PRG/PC1*%
X233680000Y-83820000D03*
%TO.P,U7,2*%
%TO.N,L*%
X190500000Y-99060000D03*
%TO.P,U7,21*%
%TO.N,/PRG/PC0*%
X236220000Y-83820000D03*
D14*
%TO.P,U7,1*%
%TO.N,GND*%
X187960000Y-99060000D03*
%TD*%
D15*
%TO.P,U39,16*%
%TO.N,VCC*%
X231140000Y-41910000D03*
%TO.P,U39,8*%
%TO.N,GND*%
X248920000Y-49530000D03*
%TO.P,U39,15*%
%TO.N,BUS0*%
X233680000Y-41910000D03*
%TO.P,U39,7*%
%TO.N,BUS7*%
X246380000Y-49530000D03*
%TO.P,U39,14*%
%TO.N,SER_DATA*%
X236220000Y-41910000D03*
%TO.P,U39,6*%
%TO.N,BUS6*%
X243840000Y-49530000D03*
%TO.P,U39,13*%
%TO.N,~IE*%
X238760000Y-41910000D03*
%TO.P,U39,5*%
%TO.N,BUS5*%
X241300000Y-49530000D03*
%TO.P,U39,12*%
%TO.N,OUT6*%
X241300000Y-41910000D03*
%TO.P,U39,4*%
%TO.N,BUS4*%
X238760000Y-49530000D03*
%TO.P,U39,11*%
%TO.N,OUT6*%
X243840000Y-41910000D03*
%TO.P,U39,3*%
%TO.N,BUS3*%
X236220000Y-49530000D03*
%TO.P,U39,10*%
%TO.N,H*%
X246380000Y-41910000D03*
%TO.P,U39,2*%
%TO.N,BUS2*%
X233680000Y-49530000D03*
%TO.P,U39,9*%
%TO.N,N/C*%
X248920000Y-41910000D03*
D14*
%TO.P,U39,1*%
%TO.N,BUS1*%
X231140000Y-49530000D03*
%TD*%
D15*
%TO.P,U38,20*%
%TO.N,VCC*%
X63500000Y-58420000D03*
%TO.P,U38,10*%
%TO.N,GND*%
X55880000Y-81280000D03*
%TO.P,U38,19*%
%TO.N,Net-(R9-Pad2)*%
X63500000Y-60960000D03*
%TO.P,U38,9*%
%TO.N,Net-(D5-Pad2)*%
X55880000Y-78740000D03*
%TO.P,U38,18*%
%TO.N,AC7*%
X63500000Y-63500000D03*
%TO.P,U38,8*%
%TO.N,AC0*%
X55880000Y-76200000D03*
%TO.P,U38,17*%
%TO.N,AC6*%
X63500000Y-66040000D03*
%TO.P,U38,7*%
%TO.N,AC1*%
X55880000Y-73660000D03*
%TO.P,U38,16*%
%TO.N,Net-(R9-Pad3)*%
X63500000Y-68580000D03*
%TO.P,U38,6*%
%TO.N,Net-(D6-Pad2)*%
X55880000Y-71120000D03*
%TO.P,U38,15*%
%TO.N,Net-(R9-Pad4)*%
X63500000Y-71120000D03*
%TO.P,U38,5*%
%TO.N,Net-(D7-Pad2)*%
X55880000Y-68580000D03*
%TO.P,U38,14*%
%TO.N,AC5*%
X63500000Y-73660000D03*
%TO.P,U38,4*%
%TO.N,AC2*%
X55880000Y-66040000D03*
%TO.P,U38,13*%
%TO.N,AC4*%
X63500000Y-76200000D03*
%TO.P,U38,3*%
%TO.N,AC3*%
X55880000Y-63500000D03*
%TO.P,U38,12*%
%TO.N,Net-(R9-Pad5)*%
X63500000Y-78740000D03*
%TO.P,U38,2*%
%TO.N,Net-(D8-Pad2)*%
X55880000Y-60960000D03*
%TO.P,U38,11*%
%TO.N,OUT6*%
X63500000Y-81280000D03*
D14*
%TO.P,U38,1*%
%TO.N,H*%
X55880000Y-58420000D03*
%TD*%
D15*
%TO.P,U37,20*%
%TO.N,VCC*%
X101600000Y-33020000D03*
%TO.P,U37,10*%
%TO.N,GND*%
X124460000Y-40640000D03*
%TO.P,U37,19*%
%TO.N,OUT7*%
X104140000Y-33020000D03*
%TO.P,U37,9*%
%TO.N,OUT0*%
X121920000Y-40640000D03*
%TO.P,U37,18*%
%TO.N,ALU7*%
X106680000Y-33020000D03*
%TO.P,U37,8*%
%TO.N,ALU0*%
X119380000Y-40640000D03*
%TO.P,U37,17*%
%TO.N,ALU6*%
X109220000Y-33020000D03*
%TO.P,U37,7*%
%TO.N,ALU1*%
X116840000Y-40640000D03*
%TO.P,U37,16*%
%TO.N,OUT6*%
X111760000Y-33020000D03*
%TO.P,U37,6*%
%TO.N,OUT1*%
X114300000Y-40640000D03*
%TO.P,U37,15*%
%TO.N,OUT5*%
X114300000Y-33020000D03*
%TO.P,U37,5*%
%TO.N,OUT2*%
X111760000Y-40640000D03*
%TO.P,U37,14*%
%TO.N,ALU5*%
X116840000Y-33020000D03*
%TO.P,U37,4*%
%TO.N,ALU2*%
X109220000Y-40640000D03*
%TO.P,U37,13*%
%TO.N,ALU4*%
X119380000Y-33020000D03*
%TO.P,U37,3*%
%TO.N,ALU3*%
X106680000Y-40640000D03*
%TO.P,U37,12*%
%TO.N,OUT4*%
X121920000Y-33020000D03*
%TO.P,U37,2*%
%TO.N,OUT3*%
X104140000Y-40640000D03*
%TO.P,U37,11*%
%TO.N,CLK2*%
X124460000Y-33020000D03*
D14*
%TO.P,U37,1*%
%TO.N,~OL*%
X101600000Y-40640000D03*
%TD*%
D15*
%TO.P,U36,28*%
%TO.N,VCC*%
X137160000Y-88900000D03*
%TO.P,U36,14*%
%TO.N,GND*%
X170180000Y-104140000D03*
%TO.P,U36,27*%
%TO.N,~WE*%
X139700000Y-88900000D03*
%TO.P,U36,13*%
%TO.N,BUS2*%
X167640000Y-104140000D03*
%TO.P,U36,26*%
%TO.N,/RAM/A13*%
X142240000Y-88900000D03*
%TO.P,U36,12*%
%TO.N,BUS1*%
X165100000Y-104140000D03*
%TO.P,U36,25*%
%TO.N,/RAM/A8*%
X144780000Y-88900000D03*
%TO.P,U36,11*%
%TO.N,BUS0*%
X162560000Y-104140000D03*
%TO.P,U36,24*%
%TO.N,/RAM/A9*%
X147320000Y-88900000D03*
%TO.P,U36,10*%
%TO.N,/RAM/A0*%
X160020000Y-104140000D03*
%TO.P,U36,23*%
%TO.N,/RAM/A11*%
X149860000Y-88900000D03*
%TO.P,U36,9*%
%TO.N,/RAM/A1*%
X157480000Y-104140000D03*
%TO.P,U36,22*%
%TO.N,~OE*%
X152400000Y-88900000D03*
%TO.P,U36,8*%
%TO.N,/RAM/A2*%
X154940000Y-104140000D03*
%TO.P,U36,21*%
%TO.N,/RAM/A10*%
X154940000Y-88900000D03*
%TO.P,U36,7*%
%TO.N,/RAM/A3*%
X152400000Y-104140000D03*
%TO.P,U36,20*%
%TO.N,L*%
X157480000Y-88900000D03*
%TO.P,U36,6*%
%TO.N,/RAM/A4*%
X149860000Y-104140000D03*
%TO.P,U36,19*%
%TO.N,BUS7*%
X160020000Y-88900000D03*
%TO.P,U36,5*%
%TO.N,/RAM/A5*%
X147320000Y-104140000D03*
%TO.P,U36,18*%
%TO.N,BUS6*%
X162560000Y-88900000D03*
%TO.P,U36,4*%
%TO.N,/RAM/A6*%
X144780000Y-104140000D03*
%TO.P,U36,17*%
%TO.N,BUS5*%
X165100000Y-88900000D03*
%TO.P,U36,3*%
%TO.N,/RAM/A7*%
X142240000Y-104140000D03*
%TO.P,U36,16*%
%TO.N,BUS4*%
X167640000Y-88900000D03*
%TO.P,U36,2*%
%TO.N,/RAM/A12*%
X139700000Y-104140000D03*
%TO.P,U36,15*%
%TO.N,BUS3*%
X170180000Y-88900000D03*
D14*
%TO.P,U36,1*%
%TO.N,/RAM/A14*%
X137160000Y-104140000D03*
%TD*%
D15*
%TO.P,U35,16*%
%TO.N,VCC*%
X114300000Y-81280000D03*
%TO.P,U35,8*%
%TO.N,GND*%
X106680000Y-99060000D03*
%TO.P,U35,15*%
%TO.N,L*%
X114300000Y-83820000D03*
%TO.P,U35,7*%
%TO.N,/RAM/A5*%
X106680000Y-96520000D03*
%TO.P,U35,14*%
%TO.N,X7*%
X114300000Y-86360000D03*
%TO.P,U35,6*%
%TO.N,D5*%
X106680000Y-93980000D03*
%TO.P,U35,13*%
%TO.N,D7*%
X114300000Y-88900000D03*
%TO.P,U35,5*%
%TO.N,X5*%
X106680000Y-91440000D03*
%TO.P,U35,12*%
%TO.N,/RAM/A7*%
X114300000Y-91440000D03*
%TO.P,U35,4*%
%TO.N,/RAM/A4*%
X106680000Y-88900000D03*
%TO.P,U35,11*%
%TO.N,X6*%
X114300000Y-93980000D03*
%TO.P,U35,3*%
%TO.N,D4*%
X106680000Y-86360000D03*
%TO.P,U35,10*%
%TO.N,D6*%
X114300000Y-96520000D03*
%TO.P,U35,2*%
%TO.N,X4*%
X106680000Y-83820000D03*
%TO.P,U35,9*%
%TO.N,/RAM/A6*%
X114300000Y-99060000D03*
D14*
%TO.P,U35,1*%
%TO.N,EL*%
X106680000Y-81280000D03*
%TD*%
D15*
%TO.P,U34,16*%
%TO.N,VCC*%
X129540000Y-81280000D03*
%TO.P,U34,8*%
%TO.N,GND*%
X121920000Y-99060000D03*
%TO.P,U34,15*%
%TO.N,L*%
X129540000Y-83820000D03*
%TO.P,U34,7*%
%TO.N,/RAM/A2*%
X121920000Y-96520000D03*
%TO.P,U34,14*%
%TO.N,X0*%
X129540000Y-86360000D03*
%TO.P,U34,6*%
%TO.N,D2*%
X121920000Y-93980000D03*
%TO.P,U34,13*%
%TO.N,D0*%
X129540000Y-88900000D03*
%TO.P,U34,5*%
%TO.N,X2*%
X121920000Y-91440000D03*
%TO.P,U34,12*%
%TO.N,/RAM/A0*%
X129540000Y-91440000D03*
%TO.P,U34,4*%
%TO.N,/RAM/A1*%
X121920000Y-88900000D03*
%TO.P,U34,11*%
%TO.N,X3*%
X129540000Y-93980000D03*
%TO.P,U34,3*%
%TO.N,D1*%
X121920000Y-86360000D03*
%TO.P,U34,10*%
%TO.N,D3*%
X129540000Y-96520000D03*
%TO.P,U34,2*%
%TO.N,X1*%
X121920000Y-83820000D03*
%TO.P,U34,9*%
%TO.N,/RAM/A3*%
X129540000Y-99060000D03*
D14*
%TO.P,U34,1*%
%TO.N,EL*%
X121920000Y-81280000D03*
%TD*%
D15*
%TO.P,U33,16*%
%TO.N,VCC*%
X144780000Y-58420000D03*
%TO.P,U33,8*%
%TO.N,GND*%
X137160000Y-76200000D03*
%TO.P,U33,15*%
%TO.N,EH*%
X144780000Y-60960000D03*
%TO.P,U33,7*%
%TO.N,/RAM/A14*%
X137160000Y-73660000D03*
%TO.P,U33,14*%
%TO.N,Y1*%
X144780000Y-63500000D03*
%TO.P,U33,6*%
%TO.N,H*%
X137160000Y-71120000D03*
%TO.P,U33,13*%
X144780000Y-66040000D03*
%TO.P,U33,5*%
%TO.N,Y6*%
X137160000Y-68580000D03*
%TO.P,U33,12*%
%TO.N,/RAM/A9*%
X144780000Y-68580000D03*
%TO.P,U33,4*%
%TO.N,/RAM/A13*%
X137160000Y-66040000D03*
%TO.P,U33,11*%
%TO.N,Y3*%
X144780000Y-71120000D03*
%TO.P,U33,3*%
%TO.N,H*%
X137160000Y-63500000D03*
%TO.P,U33,10*%
X144780000Y-73660000D03*
%TO.P,U33,2*%
%TO.N,Y5*%
X137160000Y-60960000D03*
%TO.P,U33,9*%
%TO.N,/RAM/A11*%
X144780000Y-76200000D03*
D14*
%TO.P,U33,1*%
%TO.N,L*%
X137160000Y-58420000D03*
%TD*%
D15*
%TO.P,U32,16*%
%TO.N,VCC*%
X160020000Y-58420000D03*
%TO.P,U32,8*%
%TO.N,GND*%
X152400000Y-76200000D03*
%TO.P,U32,15*%
%TO.N,EH*%
X160020000Y-60960000D03*
%TO.P,U32,7*%
%TO.N,Net-(A15-Pad1)*%
X152400000Y-73660000D03*
%TO.P,U32,14*%
%TO.N,Y4*%
X160020000Y-63500000D03*
%TO.P,U32,6*%
%TO.N,H*%
X152400000Y-71120000D03*
%TO.P,U32,13*%
X160020000Y-66040000D03*
%TO.P,U32,5*%
%TO.N,Y7*%
X152400000Y-68580000D03*
%TO.P,U32,12*%
%TO.N,/RAM/A12*%
X160020000Y-68580000D03*
%TO.P,U32,4*%
%TO.N,/RAM/A8*%
X152400000Y-66040000D03*
%TO.P,U32,11*%
%TO.N,Y2*%
X160020000Y-71120000D03*
%TO.P,U32,3*%
%TO.N,H*%
X152400000Y-63500000D03*
%TO.P,U32,10*%
X160020000Y-73660000D03*
%TO.P,U32,2*%
%TO.N,Y0*%
X152400000Y-60960000D03*
%TO.P,U32,9*%
%TO.N,/RAM/A10*%
X160020000Y-76200000D03*
D14*
%TO.P,U32,1*%
%TO.N,L*%
X152400000Y-58420000D03*
%TD*%
D15*
%TO.P,U31,20*%
%TO.N,VCC*%
X175260000Y-58420000D03*
%TO.P,U31,10*%
%TO.N,GND*%
X167640000Y-81280000D03*
%TO.P,U31,19*%
%TO.N,Y4*%
X175260000Y-60960000D03*
%TO.P,U31,9*%
%TO.N,Y3*%
X167640000Y-78740000D03*
%TO.P,U31,18*%
%TO.N,ALU4*%
X175260000Y-63500000D03*
%TO.P,U31,8*%
%TO.N,ALU3*%
X167640000Y-76200000D03*
%TO.P,U31,17*%
%TO.N,ALU5*%
X175260000Y-66040000D03*
%TO.P,U31,7*%
%TO.N,ALU2*%
X167640000Y-73660000D03*
%TO.P,U31,16*%
%TO.N,Y5*%
X175260000Y-68580000D03*
%TO.P,U31,6*%
%TO.N,Y2*%
X167640000Y-71120000D03*
%TO.P,U31,15*%
%TO.N,Y6*%
X175260000Y-71120000D03*
%TO.P,U31,5*%
%TO.N,Y1*%
X167640000Y-68580000D03*
%TO.P,U31,14*%
%TO.N,ALU6*%
X175260000Y-73660000D03*
%TO.P,U31,4*%
%TO.N,ALU1*%
X167640000Y-66040000D03*
%TO.P,U31,13*%
%TO.N,ALU7*%
X175260000Y-76200000D03*
%TO.P,U31,3*%
%TO.N,ALU0*%
X167640000Y-63500000D03*
%TO.P,U31,12*%
%TO.N,Y7*%
X175260000Y-78740000D03*
%TO.P,U31,2*%
%TO.N,Y0*%
X167640000Y-60960000D03*
%TO.P,U31,11*%
%TO.N,CLK2*%
X175260000Y-81280000D03*
D14*
%TO.P,U31,1*%
%TO.N,~YL*%
X167640000Y-58420000D03*
%TD*%
D15*
%TO.P,U30,16*%
%TO.N,VCC*%
X114300000Y-58420000D03*
%TO.P,U30,8*%
%TO.N,GND*%
X106680000Y-76200000D03*
%TO.P,U30,15*%
%TO.N,N/C*%
X114300000Y-60960000D03*
%TO.P,U30,7*%
%TO.N,IX*%
X106680000Y-73660000D03*
%TO.P,U30,14*%
%TO.N,X4*%
X114300000Y-63500000D03*
%TO.P,U30,6*%
%TO.N,ALU7*%
X106680000Y-71120000D03*
%TO.P,U30,13*%
%TO.N,X5*%
X114300000Y-66040000D03*
%TO.P,U30,5*%
%TO.N,ALU6*%
X106680000Y-68580000D03*
%TO.P,U30,12*%
%TO.N,X6*%
X114300000Y-68580000D03*
%TO.P,U30,4*%
%TO.N,ALU5*%
X106680000Y-66040000D03*
%TO.P,U30,11*%
%TO.N,X7*%
X114300000Y-71120000D03*
%TO.P,U30,3*%
%TO.N,ALU4*%
X106680000Y-63500000D03*
%TO.P,U30,10*%
%TO.N,Net-(U29-Pad15)*%
X114300000Y-73660000D03*
%TO.P,U30,2*%
%TO.N,CLK2*%
X106680000Y-60960000D03*
%TO.P,U30,9*%
%TO.N,~XL*%
X114300000Y-76200000D03*
D14*
%TO.P,U30,1*%
%TO.N,H*%
X106680000Y-58420000D03*
%TD*%
D15*
%TO.P,U29,16*%
%TO.N,VCC*%
X129540000Y-58420000D03*
%TO.P,U29,8*%
%TO.N,GND*%
X121920000Y-76200000D03*
%TO.P,U29,15*%
%TO.N,Net-(U29-Pad15)*%
X129540000Y-60960000D03*
%TO.P,U29,7*%
%TO.N,IX*%
X121920000Y-73660000D03*
%TO.P,U29,14*%
%TO.N,X0*%
X129540000Y-63500000D03*
%TO.P,U29,6*%
%TO.N,ALU3*%
X121920000Y-71120000D03*
%TO.P,U29,13*%
%TO.N,X1*%
X129540000Y-66040000D03*
%TO.P,U29,5*%
%TO.N,ALU2*%
X121920000Y-68580000D03*
%TO.P,U29,12*%
%TO.N,X2*%
X129540000Y-68580000D03*
%TO.P,U29,4*%
%TO.N,ALU1*%
X121920000Y-66040000D03*
%TO.P,U29,11*%
%TO.N,X3*%
X129540000Y-71120000D03*
%TO.P,U29,3*%
%TO.N,ALU0*%
X121920000Y-63500000D03*
%TO.P,U29,10*%
%TO.N,H*%
X129540000Y-73660000D03*
%TO.P,U29,2*%
%TO.N,CLK2*%
X121920000Y-60960000D03*
%TO.P,U29,9*%
%TO.N,~XL*%
X129540000Y-76200000D03*
D14*
%TO.P,U29,1*%
%TO.N,H*%
X121920000Y-58420000D03*
%TD*%
D15*
%TO.P,U28,20*%
%TO.N,VCC*%
X63500000Y-144780000D03*
%TO.P,U28,10*%
%TO.N,GND*%
X55880000Y-167640000D03*
%TO.P,U28,19*%
%TO.N,~AE*%
X63500000Y-147320000D03*
%TO.P,U28,9*%
%TO.N,BUS7*%
X55880000Y-165100000D03*
%TO.P,U28,18*%
%TO.N,BUS0*%
X63500000Y-149860000D03*
%TO.P,U28,8*%
%TO.N,AC3*%
X55880000Y-162560000D03*
%TO.P,U28,17*%
%TO.N,AC4*%
X63500000Y-152400000D03*
%TO.P,U28,7*%
%TO.N,BUS6*%
X55880000Y-160020000D03*
%TO.P,U28,16*%
%TO.N,BUS1*%
X63500000Y-154940000D03*
%TO.P,U28,6*%
%TO.N,AC2*%
X55880000Y-157480000D03*
%TO.P,U28,15*%
%TO.N,AC5*%
X63500000Y-157480000D03*
%TO.P,U28,5*%
%TO.N,BUS5*%
X55880000Y-154940000D03*
%TO.P,U28,14*%
%TO.N,BUS2*%
X63500000Y-160020000D03*
%TO.P,U28,4*%
%TO.N,AC1*%
X55880000Y-152400000D03*
%TO.P,U28,13*%
%TO.N,AC6*%
X63500000Y-162560000D03*
%TO.P,U28,3*%
%TO.N,BUS4*%
X55880000Y-149860000D03*
%TO.P,U28,12*%
%TO.N,BUS3*%
X63500000Y-165100000D03*
%TO.P,U28,2*%
%TO.N,AC0*%
X55880000Y-147320000D03*
%TO.P,U28,11*%
%TO.N,AC7*%
X63500000Y-167640000D03*
D14*
%TO.P,U28,1*%
%TO.N,~AE*%
X55880000Y-144780000D03*
%TD*%
D15*
%TO.P,U27,20*%
%TO.N,VCC*%
X63500000Y-101600000D03*
%TO.P,U27,10*%
%TO.N,GND*%
X55880000Y-124460000D03*
%TO.P,U27,19*%
%TO.N,AC6*%
X63500000Y-104140000D03*
%TO.P,U27,9*%
%TO.N,AC0*%
X55880000Y-121920000D03*
%TO.P,U27,18*%
%TO.N,ALU6*%
X63500000Y-106680000D03*
%TO.P,U27,8*%
%TO.N,ALU0*%
X55880000Y-119380000D03*
%TO.P,U27,17*%
%TO.N,ALU7*%
X63500000Y-109220000D03*
%TO.P,U27,7*%
%TO.N,ALU1*%
X55880000Y-116840000D03*
%TO.P,U27,16*%
%TO.N,AC7*%
X63500000Y-111760000D03*
%TO.P,U27,6*%
%TO.N,AC1*%
X55880000Y-114300000D03*
%TO.P,U27,15*%
%TO.N,AC4*%
X63500000Y-114300000D03*
%TO.P,U27,5*%
%TO.N,AC2*%
X55880000Y-111760000D03*
%TO.P,U27,14*%
%TO.N,ALU4*%
X63500000Y-116840000D03*
%TO.P,U27,4*%
%TO.N,ALU2*%
X55880000Y-109220000D03*
%TO.P,U27,13*%
%TO.N,ALU5*%
X63500000Y-119380000D03*
%TO.P,U27,3*%
%TO.N,ALU3*%
X55880000Y-106680000D03*
%TO.P,U27,12*%
%TO.N,AC5*%
X63500000Y-121920000D03*
%TO.P,U27,2*%
%TO.N,AC3*%
X55880000Y-104140000D03*
%TO.P,U27,11*%
%TO.N,CLK2*%
X63500000Y-124460000D03*
D14*
%TO.P,U27,1*%
%TO.N,~LD*%
X55880000Y-101600000D03*
%TD*%
D15*
%TO.P,U26,16*%
%TO.N,VCC*%
X33020000Y-109220000D03*
%TO.P,U26,8*%
%TO.N,GND*%
X50800000Y-116840000D03*
%TO.P,U26,15*%
%TO.N,Net-(U23-Pad9)*%
X35560000Y-109220000D03*
%TO.P,U26,7*%
%TO.N,AR0*%
X48260000Y-116840000D03*
%TO.P,U26,14*%
%TO.N,Net-(U23-Pad7)*%
X38100000Y-109220000D03*
%TO.P,U26,6*%
%TO.N,Net-(U21-Pad9)*%
X45720000Y-116840000D03*
%TO.P,U26,13*%
%TO.N,ALU2*%
X40640000Y-109220000D03*
%TO.P,U26,5*%
%TO.N,Net-(U21-Pad7)*%
X43180000Y-116840000D03*
%TO.P,U26,12*%
%TO.N,Net-(U24-Pad7)*%
X43180000Y-109220000D03*
%TO.P,U26,4*%
%TO.N,ALU0*%
X40640000Y-116840000D03*
%TO.P,U26,11*%
%TO.N,Net-(U24-Pad9)*%
X45720000Y-109220000D03*
%TO.P,U26,3*%
%TO.N,Net-(U22-Pad7)*%
X38100000Y-116840000D03*
%TO.P,U26,10*%
%TO.N,ALU3*%
X48260000Y-109220000D03*
%TO.P,U26,2*%
%TO.N,Net-(U22-Pad9)*%
X35560000Y-116840000D03*
%TO.P,U26,9*%
%TO.N,Net-(U25-Pad7)*%
X50800000Y-109220000D03*
D14*
%TO.P,U26,1*%
%TO.N,ALU1*%
X33020000Y-116840000D03*
%TD*%
D15*
%TO.P,U25,16*%
%TO.N,VCC*%
X68580000Y-109220000D03*
%TO.P,U25,8*%
%TO.N,GND*%
X86360000Y-116840000D03*
%TO.P,U25,15*%
%TO.N,Net-(U19-Pad7)*%
X71120000Y-109220000D03*
%TO.P,U25,7*%
%TO.N,Net-(U25-Pad7)*%
X83820000Y-116840000D03*
%TO.P,U25,14*%
%TO.N,Net-(U19-Pad9)*%
X73660000Y-109220000D03*
%TO.P,U25,6*%
%TO.N,Net-(U17-Pad9)*%
X81280000Y-116840000D03*
%TO.P,U25,13*%
%TO.N,ALU6*%
X76200000Y-109220000D03*
%TO.P,U25,5*%
%TO.N,Net-(U17-Pad7)*%
X78740000Y-116840000D03*
%TO.P,U25,12*%
%TO.N,Net-(U20-Pad7)*%
X78740000Y-109220000D03*
%TO.P,U25,4*%
%TO.N,ALU4*%
X76200000Y-116840000D03*
%TO.P,U25,11*%
%TO.N,Net-(U20-Pad9)*%
X81280000Y-109220000D03*
%TO.P,U25,3*%
%TO.N,Net-(U18-Pad9)*%
X73660000Y-116840000D03*
%TO.P,U25,10*%
%TO.N,ALU7*%
X83820000Y-109220000D03*
%TO.P,U25,2*%
%TO.N,Net-(U18-Pad7)*%
X71120000Y-116840000D03*
%TO.P,U25,9*%
%TO.N,CO*%
X86360000Y-109220000D03*
D14*
%TO.P,U25,1*%
%TO.N,ALU5*%
X68580000Y-116840000D03*
%TD*%
D15*
%TO.P,U24,16*%
%TO.N,VCC*%
X48260000Y-58420000D03*
%TO.P,U24,8*%
%TO.N,GND*%
X40640000Y-76200000D03*
%TO.P,U24,15*%
%TO.N,AL*%
X48260000Y-60960000D03*
%TO.P,U24,7*%
%TO.N,Net-(U24-Pad7)*%
X40640000Y-73660000D03*
%TO.P,U24,14*%
%TO.N,AC3*%
X48260000Y-63500000D03*
%TO.P,U24,6*%
%TO.N,AR0*%
X40640000Y-71120000D03*
%TO.P,U24,13*%
%TO.N,H*%
X48260000Y-66040000D03*
%TO.P,U24,5*%
%TO.N,AR1*%
X40640000Y-68580000D03*
%TO.P,U24,12*%
%TO.N,L*%
X48260000Y-68580000D03*
%TO.P,U24,4*%
%TO.N,AR2*%
X40640000Y-66040000D03*
%TO.P,U24,11*%
%TO.N,H*%
X48260000Y-71120000D03*
%TO.P,U24,3*%
%TO.N,AR3*%
X40640000Y-63500000D03*
%TO.P,U24,10*%
%TO.N,L*%
X48260000Y-73660000D03*
%TO.P,U24,2*%
%TO.N,BUS3*%
X40640000Y-60960000D03*
%TO.P,U24,9*%
%TO.N,Net-(U24-Pad9)*%
X48260000Y-76200000D03*
D14*
%TO.P,U24,1*%
%TO.N,L*%
X40640000Y-58420000D03*
%TD*%
D15*
%TO.P,U23,16*%
%TO.N,VCC*%
X48260000Y-83820000D03*
%TO.P,U23,8*%
%TO.N,GND*%
X40640000Y-101600000D03*
%TO.P,U23,15*%
%TO.N,AL*%
X48260000Y-86360000D03*
%TO.P,U23,7*%
%TO.N,Net-(U23-Pad7)*%
X40640000Y-99060000D03*
%TO.P,U23,14*%
%TO.N,AC2*%
X48260000Y-88900000D03*
%TO.P,U23,6*%
%TO.N,AR0*%
X40640000Y-96520000D03*
%TO.P,U23,13*%
%TO.N,H*%
X48260000Y-91440000D03*
%TO.P,U23,5*%
%TO.N,AR1*%
X40640000Y-93980000D03*
%TO.P,U23,12*%
%TO.N,L*%
X48260000Y-93980000D03*
%TO.P,U23,4*%
%TO.N,AR2*%
X40640000Y-91440000D03*
%TO.P,U23,11*%
%TO.N,H*%
X48260000Y-96520000D03*
%TO.P,U23,3*%
%TO.N,AR3*%
X40640000Y-88900000D03*
%TO.P,U23,10*%
%TO.N,L*%
X48260000Y-99060000D03*
%TO.P,U23,2*%
%TO.N,BUS2*%
X40640000Y-86360000D03*
%TO.P,U23,9*%
%TO.N,Net-(U23-Pad9)*%
X48260000Y-101600000D03*
D14*
%TO.P,U23,1*%
%TO.N,L*%
X40640000Y-83820000D03*
%TD*%
D15*
%TO.P,U22,16*%
%TO.N,VCC*%
X48260000Y-124460000D03*
%TO.P,U22,8*%
%TO.N,GND*%
X40640000Y-142240000D03*
%TO.P,U22,15*%
%TO.N,AL*%
X48260000Y-127000000D03*
%TO.P,U22,7*%
%TO.N,Net-(U22-Pad7)*%
X40640000Y-139700000D03*
%TO.P,U22,14*%
%TO.N,AC1*%
X48260000Y-129540000D03*
%TO.P,U22,6*%
%TO.N,AR0*%
X40640000Y-137160000D03*
%TO.P,U22,13*%
%TO.N,H*%
X48260000Y-132080000D03*
%TO.P,U22,5*%
%TO.N,AR1*%
X40640000Y-134620000D03*
%TO.P,U22,12*%
%TO.N,L*%
X48260000Y-134620000D03*
%TO.P,U22,4*%
%TO.N,AR2*%
X40640000Y-132080000D03*
%TO.P,U22,11*%
%TO.N,H*%
X48260000Y-137160000D03*
%TO.P,U22,3*%
%TO.N,AR3*%
X40640000Y-129540000D03*
%TO.P,U22,10*%
%TO.N,L*%
X48260000Y-139700000D03*
%TO.P,U22,2*%
%TO.N,BUS1*%
X40640000Y-127000000D03*
%TO.P,U22,9*%
%TO.N,Net-(U22-Pad9)*%
X48260000Y-142240000D03*
D14*
%TO.P,U22,1*%
%TO.N,L*%
X40640000Y-124460000D03*
%TD*%
D15*
%TO.P,U21,16*%
%TO.N,VCC*%
X48260000Y-149860000D03*
%TO.P,U21,8*%
%TO.N,GND*%
X40640000Y-167640000D03*
%TO.P,U21,15*%
%TO.N,AL*%
X48260000Y-152400000D03*
%TO.P,U21,7*%
%TO.N,Net-(U21-Pad7)*%
X40640000Y-165100000D03*
%TO.P,U21,14*%
%TO.N,AC0*%
X48260000Y-154940000D03*
%TO.P,U21,6*%
%TO.N,AR0*%
X40640000Y-162560000D03*
%TO.P,U21,13*%
%TO.N,H*%
X48260000Y-157480000D03*
%TO.P,U21,5*%
%TO.N,AR1*%
X40640000Y-160020000D03*
%TO.P,U21,12*%
%TO.N,L*%
X48260000Y-160020000D03*
%TO.P,U21,4*%
%TO.N,AR2*%
X40640000Y-157480000D03*
%TO.P,U21,11*%
%TO.N,H*%
X48260000Y-162560000D03*
%TO.P,U21,3*%
%TO.N,AR3*%
X40640000Y-154940000D03*
%TO.P,U21,10*%
%TO.N,L*%
X48260000Y-165100000D03*
%TO.P,U21,2*%
%TO.N,BUS0*%
X40640000Y-152400000D03*
%TO.P,U21,9*%
%TO.N,Net-(U21-Pad9)*%
X48260000Y-167640000D03*
D14*
%TO.P,U21,1*%
%TO.N,L*%
X40640000Y-149860000D03*
%TD*%
D15*
%TO.P,U20,16*%
%TO.N,VCC*%
X78740000Y-58420000D03*
%TO.P,U20,8*%
%TO.N,GND*%
X71120000Y-76200000D03*
%TO.P,U20,15*%
%TO.N,L*%
X78740000Y-60960000D03*
%TO.P,U20,7*%
%TO.N,Net-(U20-Pad7)*%
X71120000Y-73660000D03*
%TO.P,U20,14*%
%TO.N,BUS7*%
X78740000Y-63500000D03*
%TO.P,U20,6*%
%TO.N,L*%
X71120000Y-71120000D03*
%TO.P,U20,13*%
%TO.N,AR3*%
X78740000Y-66040000D03*
%TO.P,U20,5*%
%TO.N,L*%
X71120000Y-68580000D03*
%TO.P,U20,12*%
%TO.N,AR1*%
X78740000Y-68580000D03*
%TO.P,U20,4*%
%TO.N,H*%
X71120000Y-66040000D03*
%TO.P,U20,11*%
%TO.N,AR2*%
X78740000Y-71120000D03*
%TO.P,U20,3*%
%TO.N,H*%
X71120000Y-63500000D03*
%TO.P,U20,10*%
%TO.N,AR0*%
X78740000Y-73660000D03*
%TO.P,U20,2*%
%TO.N,AC7*%
X71120000Y-60960000D03*
%TO.P,U20,9*%
%TO.N,Net-(U20-Pad9)*%
X78740000Y-76200000D03*
D14*
%TO.P,U20,1*%
%TO.N,AL*%
X71120000Y-58420000D03*
%TD*%
D15*
%TO.P,U19,16*%
%TO.N,VCC*%
X78740000Y-83820000D03*
%TO.P,U19,8*%
%TO.N,GND*%
X71120000Y-101600000D03*
%TO.P,U19,15*%
%TO.N,L*%
X78740000Y-86360000D03*
%TO.P,U19,7*%
%TO.N,Net-(U19-Pad7)*%
X71120000Y-99060000D03*
%TO.P,U19,14*%
%TO.N,BUS6*%
X78740000Y-88900000D03*
%TO.P,U19,6*%
%TO.N,L*%
X71120000Y-96520000D03*
%TO.P,U19,13*%
%TO.N,AR3*%
X78740000Y-91440000D03*
%TO.P,U19,5*%
%TO.N,L*%
X71120000Y-93980000D03*
%TO.P,U19,12*%
%TO.N,AR1*%
X78740000Y-93980000D03*
%TO.P,U19,4*%
%TO.N,H*%
X71120000Y-91440000D03*
%TO.P,U19,11*%
%TO.N,AR2*%
X78740000Y-96520000D03*
%TO.P,U19,3*%
%TO.N,H*%
X71120000Y-88900000D03*
%TO.P,U19,10*%
%TO.N,AR0*%
X78740000Y-99060000D03*
%TO.P,U19,2*%
%TO.N,AC6*%
X71120000Y-86360000D03*
%TO.P,U19,9*%
%TO.N,Net-(U19-Pad9)*%
X78740000Y-101600000D03*
D14*
%TO.P,U19,1*%
%TO.N,AL*%
X71120000Y-83820000D03*
%TD*%
D15*
%TO.P,U18,16*%
%TO.N,VCC*%
X78740000Y-124460000D03*
%TO.P,U18,8*%
%TO.N,GND*%
X71120000Y-142240000D03*
%TO.P,U18,15*%
%TO.N,L*%
X78740000Y-127000000D03*
%TO.P,U18,7*%
%TO.N,Net-(U18-Pad7)*%
X71120000Y-139700000D03*
%TO.P,U18,14*%
%TO.N,BUS5*%
X78740000Y-129540000D03*
%TO.P,U18,6*%
%TO.N,L*%
X71120000Y-137160000D03*
%TO.P,U18,13*%
%TO.N,AR3*%
X78740000Y-132080000D03*
%TO.P,U18,5*%
%TO.N,L*%
X71120000Y-134620000D03*
%TO.P,U18,12*%
%TO.N,AR1*%
X78740000Y-134620000D03*
%TO.P,U18,4*%
%TO.N,H*%
X71120000Y-132080000D03*
%TO.P,U18,11*%
%TO.N,AR2*%
X78740000Y-137160000D03*
%TO.P,U18,3*%
%TO.N,H*%
X71120000Y-129540000D03*
%TO.P,U18,10*%
%TO.N,AR0*%
X78740000Y-139700000D03*
%TO.P,U18,2*%
%TO.N,AC5*%
X71120000Y-127000000D03*
%TO.P,U18,9*%
%TO.N,Net-(U18-Pad9)*%
X78740000Y-142240000D03*
D14*
%TO.P,U18,1*%
%TO.N,AL*%
X71120000Y-124460000D03*
%TD*%
D15*
%TO.P,U17,16*%
%TO.N,VCC*%
X78740000Y-149860000D03*
%TO.P,U17,8*%
%TO.N,GND*%
X71120000Y-167640000D03*
%TO.P,U17,15*%
%TO.N,L*%
X78740000Y-152400000D03*
%TO.P,U17,7*%
%TO.N,Net-(U17-Pad7)*%
X71120000Y-165100000D03*
%TO.P,U17,14*%
%TO.N,BUS4*%
X78740000Y-154940000D03*
%TO.P,U17,6*%
%TO.N,L*%
X71120000Y-162560000D03*
%TO.P,U17,13*%
%TO.N,AR3*%
X78740000Y-157480000D03*
%TO.P,U17,5*%
%TO.N,L*%
X71120000Y-160020000D03*
%TO.P,U17,12*%
%TO.N,AR1*%
X78740000Y-160020000D03*
%TO.P,U17,4*%
%TO.N,H*%
X71120000Y-157480000D03*
%TO.P,U17,11*%
%TO.N,AR2*%
X78740000Y-162560000D03*
%TO.P,U17,3*%
%TO.N,H*%
X71120000Y-154940000D03*
%TO.P,U17,10*%
%TO.N,AR0*%
X78740000Y-165100000D03*
%TO.P,U17,2*%
%TO.N,AC4*%
X71120000Y-152400000D03*
%TO.P,U17,9*%
%TO.N,Net-(U17-Pad9)*%
X78740000Y-167640000D03*
D14*
%TO.P,U17,1*%
%TO.N,AL*%
X71120000Y-149860000D03*
%TD*%
D15*
%TO.P,U15,20*%
%TO.N,VCC*%
X106680000Y-139700000D03*
%TO.P,U15,10*%
%TO.N,GND*%
X99060000Y-162560000D03*
%TO.P,U15,19*%
%TO.N,L*%
X106680000Y-142240000D03*
%TO.P,U15,9*%
%TO.N,AL*%
X99060000Y-160020000D03*
%TO.P,U15,18*%
%TO.N,/CU/INV_C_OUT*%
X106680000Y-144780000D03*
%TO.P,U15,8*%
%TO.N,Net-(D32-Pad2)*%
X99060000Y-157480000D03*
%TO.P,U15,17*%
%TO.N,Net-(D23-Pad2)*%
X106680000Y-147320000D03*
%TO.P,U15,7*%
%TO.N,AR1*%
X99060000Y-154940000D03*
%TO.P,U15,16*%
%TO.N,/CU/INV_B_OUT*%
X106680000Y-149860000D03*
%TO.P,U15,6*%
%TO.N,Net-(D22-Pad2)*%
X99060000Y-152400000D03*
%TO.P,U15,15*%
%TO.N,/CU/INV_A_IN*%
X106680000Y-152400000D03*
%TO.P,U15,5*%
%TO.N,IX*%
X99060000Y-149860000D03*
%TO.P,U15,14*%
%TO.N,AR2*%
X106680000Y-154940000D03*
%TO.P,U15,4*%
%TO.N,/CU/INV_B_IN*%
X99060000Y-147320000D03*
%TO.P,U15,13*%
%TO.N,Net-(D25-Pad2)*%
X106680000Y-157480000D03*
%TO.P,U15,3*%
%TO.N,AR3*%
X99060000Y-144780000D03*
%TO.P,U15,12*%
%TO.N,AR0*%
X106680000Y-160020000D03*
%TO.P,U15,2*%
%TO.N,/CU/INV_C_IN*%
X99060000Y-142240000D03*
%TO.P,U15,11*%
%TO.N,Net-(D21-Pad2)*%
X106680000Y-162560000D03*
D14*
%TO.P,U15,1*%
%TO.N,L*%
X99060000Y-139700000D03*
%TD*%
D15*
%TO.P,U14,16*%
%TO.N,VCC*%
X116840000Y-160020000D03*
%TO.P,U14,8*%
%TO.N,GND*%
X134620000Y-167640000D03*
%TO.P,U14,15*%
%TO.N,Net-(D22-Pad1)*%
X119380000Y-160020000D03*
%TO.P,U14,7*%
%TO.N,/CU/~J*%
X132080000Y-167640000D03*
%TO.P,U14,14*%
%TO.N,Net-(D24-Pad1)*%
X121920000Y-160020000D03*
%TO.P,U14,6*%
%TO.N,H*%
X129540000Y-167640000D03*
%TO.P,U14,13*%
%TO.N,Net-(D25-Pad1)*%
X124460000Y-160020000D03*
%TO.P,U14,5*%
%TO.N,L*%
X127000000Y-167640000D03*
%TO.P,U14,12*%
%TO.N,Net-(D28-Pad1)*%
X127000000Y-160020000D03*
%TO.P,U14,4*%
%TO.N,L*%
X124460000Y-167640000D03*
%TO.P,U14,11*%
%TO.N,Net-(D30-Pad1)*%
X129540000Y-160020000D03*
%TO.P,U14,3*%
%TO.N,IR7*%
X121920000Y-167640000D03*
%TO.P,U14,10*%
%TO.N,Net-(D32-Pad1)*%
X132080000Y-160020000D03*
%TO.P,U14,2*%
%TO.N,IR6*%
X119380000Y-167640000D03*
%TO.P,U14,9*%
%TO.N,/CU/INV_B_IN*%
X134620000Y-160020000D03*
D14*
%TO.P,U14,1*%
%TO.N,IR5*%
X116840000Y-167640000D03*
%TD*%
D15*
%TO.P,U13,16*%
%TO.N,VCC*%
X175260000Y-160020000D03*
%TO.P,U13,8*%
%TO.N,GND*%
X193040000Y-167640000D03*
%TO.P,U13,15*%
%TO.N,Net-(D9-Pad1)*%
X177800000Y-160020000D03*
%TO.P,U13,7*%
%TO.N,/CU/INV_A_IN*%
X190500000Y-167640000D03*
%TO.P,U13,14*%
%TO.N,Net-(D10-Pad1)*%
X180340000Y-160020000D03*
%TO.P,U13,6*%
%TO.N,/CU/~J*%
X187960000Y-167640000D03*
%TO.P,U13,13*%
%TO.N,Net-(D12-Pad1)*%
X182880000Y-160020000D03*
%TO.P,U13,5*%
%TO.N,L*%
X185420000Y-167640000D03*
%TO.P,U13,12*%
%TO.N,Net-(D14-Pad1)*%
X185420000Y-160020000D03*
%TO.P,U13,4*%
%TO.N,L*%
X182880000Y-167640000D03*
%TO.P,U13,11*%
%TO.N,~XL*%
X187960000Y-160020000D03*
%TO.P,U13,3*%
%TO.N,IR4*%
X180340000Y-167640000D03*
%TO.P,U13,10*%
%TO.N,~YL*%
X190500000Y-160020000D03*
%TO.P,U13,2*%
%TO.N,IR3*%
X177800000Y-167640000D03*
%TO.P,U13,9*%
%TO.N,Net-(D17-Pad1)*%
X193040000Y-160020000D03*
D14*
%TO.P,U13,1*%
%TO.N,IR2*%
X175260000Y-167640000D03*
%TD*%
D15*
%TO.P,U12,16*%
%TO.N,VCC*%
X215900000Y-137160000D03*
%TO.P,U12,8*%
%TO.N,GND*%
X233680000Y-144780000D03*
%TO.P,U12,15*%
%TO.N,H*%
X218440000Y-137160000D03*
%TO.P,U12,7*%
%TO.N,/CU/INV_C_IN*%
X231140000Y-144780000D03*
%TO.P,U12,14*%
%TO.N,AC7*%
X220980000Y-137160000D03*
%TO.P,U12,6*%
%TO.N,IR2*%
X228600000Y-144780000D03*
%TO.P,U12,13*%
%TO.N,H*%
X223520000Y-137160000D03*
%TO.P,U12,5*%
%TO.N,IR3*%
X226060000Y-144780000D03*
%TO.P,U12,12*%
%TO.N,H*%
X226060000Y-137160000D03*
%TO.P,U12,4*%
%TO.N,IR4*%
X223520000Y-144780000D03*
%TO.P,U12,11*%
%TO.N,H*%
X228600000Y-137160000D03*
%TO.P,U12,3*%
%TO.N,L*%
X220980000Y-144780000D03*
%TO.P,U12,10*%
%TO.N,H*%
X231140000Y-137160000D03*
%TO.P,U12,2*%
%TO.N,CO*%
X218440000Y-144780000D03*
%TO.P,U12,9*%
%TO.N,N/C*%
X233680000Y-137160000D03*
D14*
%TO.P,U12,1*%
%TO.N,/CU/~J*%
X215900000Y-144780000D03*
%TD*%
D15*
%TO.P,U10,20*%
%TO.N,VCC*%
X185420000Y-121920000D03*
%TO.P,U10,10*%
%TO.N,GND*%
X208280000Y-129540000D03*
%TO.P,U10,19*%
%TO.N,~DE*%
X187960000Y-121920000D03*
%TO.P,U10,9*%
%TO.N,BUS1*%
X205740000Y-129540000D03*
%TO.P,U10,18*%
%TO.N,BUS6*%
X190500000Y-121920000D03*
%TO.P,U10,8*%
%TO.N,D3*%
X203200000Y-129540000D03*
%TO.P,U10,17*%
%TO.N,D4*%
X193040000Y-121920000D03*
%TO.P,U10,7*%
%TO.N,BUS0*%
X200660000Y-129540000D03*
%TO.P,U10,16*%
%TO.N,BUS7*%
X195580000Y-121920000D03*
%TO.P,U10,6*%
%TO.N,D5*%
X198120000Y-129540000D03*
%TO.P,U10,15*%
%TO.N,D2*%
X198120000Y-121920000D03*
%TO.P,U10,5*%
%TO.N,BUS2*%
X195580000Y-129540000D03*
%TO.P,U10,14*%
%TO.N,BUS5*%
X200660000Y-121920000D03*
%TO.P,U10,4*%
%TO.N,D7*%
X193040000Y-129540000D03*
%TO.P,U10,13*%
%TO.N,D0*%
X203200000Y-121920000D03*
%TO.P,U10,3*%
%TO.N,BUS4*%
X190500000Y-129540000D03*
%TO.P,U10,12*%
%TO.N,BUS3*%
X205740000Y-121920000D03*
%TO.P,U10,2*%
%TO.N,D6*%
X187960000Y-129540000D03*
%TO.P,U10,11*%
%TO.N,D1*%
X208280000Y-121920000D03*
D14*
%TO.P,U10,1*%
%TO.N,~DE*%
X185420000Y-129540000D03*
%TD*%
%TO.P,U9,1*%
%TO.N,H*%
X185420000Y-114300000D03*
D15*
%TO.P,U9,11*%
%TO.N,CLK1*%
X208280000Y-106680000D03*
%TO.P,U9,2*%
%TO.N,D7*%
X187960000Y-114300000D03*
%TO.P,U9,12*%
%TO.N,D0*%
X205740000Y-106680000D03*
%TO.P,U9,3*%
%TO.N,Net-(U7-Pad3)*%
X190500000Y-114300000D03*
%TO.P,U9,13*%
%TO.N,Net-(U7-Pad10)*%
X203200000Y-106680000D03*
%TO.P,U9,4*%
%TO.N,Net-(U7-Pad5)*%
X193040000Y-114300000D03*
%TO.P,U9,14*%
%TO.N,Net-(U7-Pad8)*%
X200660000Y-106680000D03*
%TO.P,U9,5*%
%TO.N,D5*%
X195580000Y-114300000D03*
%TO.P,U9,15*%
%TO.N,D2*%
X198120000Y-106680000D03*
%TO.P,U9,6*%
%TO.N,D3*%
X198120000Y-114300000D03*
%TO.P,U9,16*%
%TO.N,D4*%
X195580000Y-106680000D03*
%TO.P,U9,7*%
%TO.N,Net-(U7-Pad7)*%
X200660000Y-114300000D03*
%TO.P,U9,17*%
%TO.N,Net-(U7-Pad6)*%
X193040000Y-106680000D03*
%TO.P,U9,8*%
%TO.N,Net-(U7-Pad9)*%
X203200000Y-114300000D03*
%TO.P,U9,18*%
%TO.N,Net-(U7-Pad4)*%
X190500000Y-106680000D03*
%TO.P,U9,9*%
%TO.N,D1*%
X205740000Y-114300000D03*
%TO.P,U9,19*%
%TO.N,D6*%
X187960000Y-106680000D03*
%TO.P,U9,10*%
%TO.N,GND*%
X208280000Y-114300000D03*
%TO.P,U9,20*%
%TO.N,VCC*%
X185420000Y-106680000D03*
%TD*%
D14*
%TO.P,U8,1*%
%TO.N,H*%
X215900000Y-114300000D03*
D15*
%TO.P,U8,11*%
%TO.N,CLK1*%
X238760000Y-106680000D03*
%TO.P,U8,2*%
%TO.N,IR7*%
X218440000Y-114300000D03*
%TO.P,U8,12*%
%TO.N,IR1*%
X236220000Y-106680000D03*
%TO.P,U8,3*%
%TO.N,Net-(U7-Pad12)*%
X220980000Y-114300000D03*
%TO.P,U8,13*%
%TO.N,Net-(U7-Pad18)*%
X233680000Y-106680000D03*
%TO.P,U8,4*%
%TO.N,Net-(U7-Pad15)*%
X223520000Y-114300000D03*
%TO.P,U8,14*%
%TO.N,Net-(U7-Pad17)*%
X231140000Y-106680000D03*
%TO.P,U8,5*%
%TO.N,IR4*%
X226060000Y-114300000D03*
%TO.P,U8,15*%
%TO.N,IR2*%
X228600000Y-106680000D03*
%TO.P,U8,6*%
%TO.N,IR3*%
X228600000Y-114300000D03*
%TO.P,U8,16*%
%TO.N,IR5*%
X226060000Y-106680000D03*
%TO.P,U8,7*%
%TO.N,Net-(U7-Pad16)*%
X231140000Y-114300000D03*
%TO.P,U8,17*%
%TO.N,Net-(U7-Pad14)*%
X223520000Y-106680000D03*
%TO.P,U8,8*%
%TO.N,Net-(U7-Pad19)*%
X233680000Y-114300000D03*
%TO.P,U8,18*%
%TO.N,Net-(U7-Pad13)*%
X220980000Y-106680000D03*
%TO.P,U8,9*%
%TO.N,IR0*%
X236220000Y-114300000D03*
%TO.P,U8,19*%
%TO.N,IR6*%
X218440000Y-106680000D03*
%TO.P,U8,10*%
%TO.N,GND*%
X238760000Y-114300000D03*
%TO.P,U8,20*%
%TO.N,VCC*%
X215900000Y-106680000D03*
%TD*%
%TO.P,U6,16*%
%TO.N,VCC*%
X195580000Y-58420000D03*
%TO.P,U6,8*%
%TO.N,GND*%
X187960000Y-76200000D03*
%TO.P,U6,15*%
%TO.N,N/C*%
X195580000Y-60960000D03*
%TO.P,U6,7*%
%TO.N,~PL*%
X187960000Y-73660000D03*
%TO.P,U6,14*%
%TO.N,/PRG/PC12*%
X195580000Y-63500000D03*
%TO.P,U6,6*%
%TO.N,Y7*%
X187960000Y-71120000D03*
%TO.P,U6,13*%
%TO.N,/PRG/PC13*%
X195580000Y-66040000D03*
%TO.P,U6,5*%
%TO.N,Y6*%
X187960000Y-68580000D03*
%TO.P,U6,12*%
%TO.N,/PRG/PC14*%
X195580000Y-68580000D03*
%TO.P,U6,4*%
%TO.N,Y5*%
X187960000Y-66040000D03*
%TO.P,U6,11*%
%TO.N,/PRG/PC15*%
X195580000Y-71120000D03*
%TO.P,U6,3*%
%TO.N,Y4*%
X187960000Y-63500000D03*
%TO.P,U6,10*%
%TO.N,Net-(U5-Pad15)*%
X195580000Y-73660000D03*
%TO.P,U6,2*%
%TO.N,CLK1*%
X187960000Y-60960000D03*
%TO.P,U6,9*%
%TO.N,~PH*%
X195580000Y-76200000D03*
D14*
%TO.P,U6,1*%
%TO.N,~RST*%
X187960000Y-58420000D03*
%TD*%
D15*
%TO.P,U5,16*%
%TO.N,VCC*%
X208280000Y-58420000D03*
%TO.P,U5,8*%
%TO.N,GND*%
X200660000Y-76200000D03*
%TO.P,U5,15*%
%TO.N,Net-(U5-Pad15)*%
X208280000Y-60960000D03*
%TO.P,U5,7*%
%TO.N,~PL*%
X200660000Y-73660000D03*
%TO.P,U5,14*%
%TO.N,/PRG/PC8*%
X208280000Y-63500000D03*
%TO.P,U5,6*%
%TO.N,Y3*%
X200660000Y-71120000D03*
%TO.P,U5,13*%
%TO.N,/PRG/PC9*%
X208280000Y-66040000D03*
%TO.P,U5,5*%
%TO.N,Y2*%
X200660000Y-68580000D03*
%TO.P,U5,12*%
%TO.N,/PRG/PC10*%
X208280000Y-68580000D03*
%TO.P,U5,4*%
%TO.N,Y1*%
X200660000Y-66040000D03*
%TO.P,U5,11*%
%TO.N,/PRG/PC11*%
X208280000Y-71120000D03*
%TO.P,U5,3*%
%TO.N,Y0*%
X200660000Y-63500000D03*
%TO.P,U5,10*%
%TO.N,Net-(U4-Pad15)*%
X208280000Y-73660000D03*
%TO.P,U5,2*%
%TO.N,CLK1*%
X200660000Y-60960000D03*
%TO.P,U5,9*%
%TO.N,~PH*%
X208280000Y-76200000D03*
D14*
%TO.P,U5,1*%
%TO.N,~RST*%
X200660000Y-58420000D03*
%TD*%
D15*
%TO.P,U4,16*%
%TO.N,VCC*%
X223520000Y-58420000D03*
%TO.P,U4,8*%
%TO.N,GND*%
X215900000Y-76200000D03*
%TO.P,U4,15*%
%TO.N,Net-(U4-Pad15)*%
X223520000Y-60960000D03*
%TO.P,U4,7*%
%TO.N,H*%
X215900000Y-73660000D03*
%TO.P,U4,14*%
%TO.N,/PRG/PC4*%
X223520000Y-63500000D03*
%TO.P,U4,6*%
%TO.N,BUS7*%
X215900000Y-71120000D03*
%TO.P,U4,13*%
%TO.N,/PRG/PC5*%
X223520000Y-66040000D03*
%TO.P,U4,5*%
%TO.N,BUS6*%
X215900000Y-68580000D03*
%TO.P,U4,12*%
%TO.N,/PRG/PC6*%
X223520000Y-68580000D03*
%TO.P,U4,4*%
%TO.N,BUS5*%
X215900000Y-66040000D03*
%TO.P,U4,11*%
%TO.N,/PRG/PC7*%
X223520000Y-71120000D03*
%TO.P,U4,3*%
%TO.N,BUS4*%
X215900000Y-63500000D03*
%TO.P,U4,10*%
%TO.N,Net-(U3-Pad15)*%
X223520000Y-73660000D03*
%TO.P,U4,2*%
%TO.N,CLK1*%
X215900000Y-60960000D03*
%TO.P,U4,9*%
%TO.N,~PL*%
X223520000Y-76200000D03*
D14*
%TO.P,U4,1*%
%TO.N,~RST*%
X215900000Y-58420000D03*
%TD*%
D15*
%TO.P,U3,16*%
%TO.N,VCC*%
X236220000Y-58420000D03*
%TO.P,U3,8*%
%TO.N,GND*%
X228600000Y-76200000D03*
%TO.P,U3,15*%
%TO.N,Net-(U3-Pad15)*%
X236220000Y-60960000D03*
%TO.P,U3,7*%
%TO.N,H*%
X228600000Y-73660000D03*
%TO.P,U3,14*%
%TO.N,/PRG/PC0*%
X236220000Y-63500000D03*
%TO.P,U3,6*%
%TO.N,BUS3*%
X228600000Y-71120000D03*
%TO.P,U3,13*%
%TO.N,/PRG/PC1*%
X236220000Y-66040000D03*
%TO.P,U3,5*%
%TO.N,BUS2*%
X228600000Y-68580000D03*
%TO.P,U3,12*%
%TO.N,/PRG/PC2*%
X236220000Y-68580000D03*
%TO.P,U3,4*%
%TO.N,BUS1*%
X228600000Y-66040000D03*
%TO.P,U3,11*%
%TO.N,/PRG/PC3*%
X236220000Y-71120000D03*
%TO.P,U3,3*%
%TO.N,BUS0*%
X228600000Y-63500000D03*
%TO.P,U3,10*%
%TO.N,H*%
X236220000Y-73660000D03*
%TO.P,U3,2*%
%TO.N,CLK1*%
X228600000Y-60960000D03*
%TO.P,U3,9*%
%TO.N,~PL*%
X236220000Y-76200000D03*
D14*
%TO.P,U3,1*%
%TO.N,~RST*%
X228600000Y-58420000D03*
%TD*%
%TO.P,U1,1*%
%TO.N,Net-(C1-Pad1)*%
X208280000Y-49530000D03*
D15*
%TO.P,U1,8*%
%TO.N,CLK2*%
X223520000Y-41910000D03*
%TO.P,U1,2*%
%TO.N,Net-(R1-Pad1)*%
X210820000Y-49530000D03*
%TO.P,U1,9*%
%TO.N,Net-(C3-Pad1)*%
X220980000Y-41910000D03*
%TO.P,U1,3*%
%TO.N,Net-(U1-Pad11)*%
X213360000Y-49530000D03*
%TO.P,U1,10*%
%TO.N,N/C*%
X218440000Y-41910000D03*
%TO.P,U1,4*%
%TO.N,CLK1*%
X215900000Y-49530000D03*
%TO.P,U1,11*%
%TO.N,Net-(U1-Pad11)*%
X215900000Y-41910000D03*
%TO.P,U1,5*%
%TO.N,CLK1*%
X218440000Y-49530000D03*
%TO.P,U1,12*%
%TO.N,Net-(U1-Pad11)*%
X213360000Y-41910000D03*
%TO.P,U1,6*%
%TO.N,Net-(C3-Pad1)*%
X220980000Y-49530000D03*
%TO.P,U1,13*%
%TO.N,Net-(R1-Pad1)*%
X210820000Y-41910000D03*
%TO.P,U1,7*%
%TO.N,GND*%
X223520000Y-49530000D03*
%TO.P,U1,14*%
%TO.N,VCC*%
X208280000Y-41910000D03*
%TD*%
D25*
%TO.P,J2,1*%
%TO.N,GND*%
X86360000Y-28630000D03*
%TO.P,J2,2*%
%TO.N,Net-(C44-Pad1)*%
X81360000Y-33630000D03*
%TO.P,J2,3*%
X91360000Y-33630000D03*
D26*
%TO.P,J2,10*%
%TO.N,N/C*%
X84360000Y-33630000D03*
%TO.P,J2,11*%
X88360000Y-33630000D03*
D27*
%TO.P,J2,MH1*%
X91360000Y-26130000D03*
%TO.P,J2,MH2*%
X91360000Y-28630000D03*
%TO.P,J2,MH3*%
X86360000Y-33630000D03*
%TO.P,J2,MH4*%
X81360000Y-26130000D03*
%TO.P,J2,MH5*%
X81360000Y-28630000D03*
%TD*%
D28*
%TO.P,D8,2*%
%TO.N,Net-(D8-Pad2)*%
X45720000Y-45720000D03*
D20*
%TO.P,D8,1*%
%TO.N,Net-(D8-Pad1)*%
X45720000Y-43180000D03*
%TD*%
D28*
%TO.P,D7,2*%
%TO.N,Net-(D7-Pad2)*%
X40640000Y-45720000D03*
D20*
%TO.P,D7,1*%
%TO.N,Net-(D7-Pad1)*%
X40640000Y-43180000D03*
%TD*%
D28*
%TO.P,D6,2*%
%TO.N,Net-(D6-Pad2)*%
X35560000Y-45720000D03*
D20*
%TO.P,D6,1*%
%TO.N,Net-(D6-Pad1)*%
X35560000Y-43180000D03*
%TD*%
D28*
%TO.P,D5,2*%
%TO.N,Net-(D5-Pad2)*%
X30480000Y-45720000D03*
D20*
%TO.P,D5,1*%
%TO.N,Net-(D5-Pad1)*%
X30480000Y-43180000D03*
%TD*%
D28*
%TO.P,D2,2*%
%TO.N,~RST*%
X173355000Y-45720000D03*
D20*
%TO.P,D2,1*%
%TO.N,Net-(D2-Pad1)*%
X173355000Y-43180000D03*
%TD*%
D18*
%TO.P,A15,1*%
%TO.N,Net-(A15-Pad1)*%
X147320000Y-84455000D03*
%TD*%
D29*
%TO.N,CLK1*%
X137019100Y-110320300D03*
X213956300Y-106727400D03*
%TO.N,CLK2*%
X66433700Y-60509600D03*
X121000200Y-48885000D03*
X198641500Y-40938000D03*
%TO.N,BUS0*%
X230397500Y-63142500D03*
X192816600Y-51884100D03*
X112663700Y-144160800D03*
X127411400Y-117103200D03*
X168843300Y-116650800D03*
%TO.N,BUS1*%
X65552600Y-132106500D03*
X116653600Y-153768500D03*
X129409700Y-116349000D03*
X164906900Y-115899500D03*
%TO.N,BUS2*%
X63021100Y-87258600D03*
X164924400Y-90760700D03*
X211341600Y-68180000D03*
X194195800Y-101744600D03*
%TO.N,BUS3*%
X227551900Y-76998600D03*
X182703300Y-120794700D03*
%TO.N,BUS4*%
X82499900Y-147410400D03*
X202730100Y-81388500D03*
%TO.N,BUS5*%
X105393600Y-130549400D03*
X125430600Y-117066100D03*
X200264000Y-117733600D03*
X205925600Y-69850000D03*
X196692700Y-95885600D03*
X199437200Y-99690900D03*
X62128000Y-131896400D03*
X232592600Y-45885900D03*
%TO.N,BUS6*%
X187117100Y-80125300D03*
X217383800Y-78633300D03*
X177603500Y-95982800D03*
X72356300Y-158786700D03*
X72999700Y-94640300D03*
X224317100Y-55100400D03*
%TO.N,BUS7*%
X98268500Y-75680600D03*
X203318700Y-72456600D03*
X200571300Y-79304300D03*
X62247000Y-84660700D03*
X63723500Y-84280500D03*
X160395800Y-84614500D03*
X193695000Y-117792100D03*
X162258600Y-117829300D03*
%TO.N,AC0*%
X59012500Y-77970600D03*
X59745600Y-121606500D03*
%TO.N,AC1*%
X58035800Y-127370000D03*
X56552600Y-129353300D03*
%TO.N,AC2*%
X54171000Y-89781300D03*
%TO.N,AC5*%
X65701000Y-126920300D03*
%TO.N,AC6*%
X71906200Y-103692500D03*
X60349600Y-87907700D03*
%TO.N,AC7*%
X221454200Y-141965200D03*
X219565400Y-143166900D03*
X195461100Y-168175300D03*
X60191000Y-111760000D03*
%TO.N,ALU3*%
X57705600Y-71761300D03*
X105104500Y-67454700D03*
%TO.N,ALU2*%
X134058400Y-76980500D03*
X161984200Y-81723700D03*
X60371100Y-51769100D03*
X59496500Y-109220000D03*
%TO.N,ALU1*%
X119678000Y-56673400D03*
X165840700Y-58820500D03*
%TO.N,ALU0*%
X119514500Y-67178200D03*
X118523100Y-69724700D03*
X105182800Y-74700700D03*
X92386200Y-115515000D03*
%TO.N,~AE*%
X153946800Y-130412500D03*
X148900300Y-128024100D03*
X56092300Y-141857100D03*
%TO.N,/RAM/A4*%
X116603500Y-106227100D03*
%TO.N,/RAM/A3*%
X147786600Y-99526600D03*
%TO.N,D0*%
X139564800Y-109139200D03*
%TO.N,D1*%
X134800400Y-111159900D03*
%TO.N,D2*%
X130656600Y-108503700D03*
%TO.N,D3*%
X139587000Y-111807700D03*
%TO.N,D4*%
X119707000Y-107732700D03*
X193134100Y-108049600D03*
%TO.N,D6*%
X183914200Y-108013000D03*
%TO.N,D7*%
X128820100Y-115759400D03*
%TO.N,ALU4*%
X102784800Y-68915900D03*
X171762200Y-59071700D03*
X123045400Y-51071800D03*
X122905500Y-64625300D03*
%TO.N,ALU5*%
X119564000Y-49769100D03*
X115387100Y-53528000D03*
X108475400Y-66602600D03*
X170229600Y-58027700D03*
X104346800Y-74383000D03*
X87542400Y-118211500D03*
%TO.N,ALU6*%
X83151000Y-96969200D03*
X78651600Y-103983100D03*
X169429100Y-58149000D03*
X104654100Y-54302800D03*
%TO.N,ALU7*%
X168946000Y-81593900D03*
%TO.N,Net-(U18-Pad9)*%
X74213200Y-139388500D03*
%TO.N,~OE*%
X186071500Y-126819500D03*
X170264400Y-97989800D03*
%TO.N,IR0*%
X219403300Y-124664100D03*
%TO.N,L*%
X83581900Y-132859800D03*
X225339100Y-145905300D03*
X46616300Y-124410900D03*
X156033600Y-87174600D03*
X74306700Y-152400000D03*
%TO.N,H*%
X96430100Y-164740800D03*
X105568000Y-61708700D03*
X190363800Y-78761100D03*
X121920100Y-55370700D03*
X240592900Y-74785300D03*
%TO.N,~PL*%
X184648800Y-120102900D03*
%TO.N,~PH*%
X158948600Y-107539300D03*
X186789800Y-105095200D03*
%TO.N,IR6*%
X169540500Y-169459000D03*
X208599100Y-111866100D03*
%TO.N,IR7*%
X147986900Y-161893100D03*
X184981400Y-163020700D03*
X214068900Y-117662200D03*
%TO.N,IR5*%
X130859700Y-119046200D03*
%TO.N,/CU/INV_C_OUT*%
X143579000Y-128118200D03*
%TO.N,EL*%
X160670300Y-112672800D03*
X139180500Y-112672800D03*
X125377000Y-81280000D03*
%TO.N,EH*%
X163974600Y-60960000D03*
%TO.N,AR3*%
X84812000Y-96870600D03*
X50618000Y-70100000D03*
X40030500Y-81697800D03*
%TO.N,AR2*%
X77478400Y-148881200D03*
X77380100Y-87633900D03*
X38197200Y-132859800D03*
%TO.N,AR1*%
X76364700Y-69345900D03*
%TO.N,AR0*%
X52532000Y-99970200D03*
X48260000Y-114548500D03*
X45122500Y-118649900D03*
X45054600Y-137160000D03*
%TO.N,AL*%
X61025900Y-125593600D03*
X57480400Y-59834700D03*
X58908500Y-86295000D03*
%TO.N,CO*%
X140986800Y-120953000D03*
X146018300Y-132140000D03*
%TO.N,IX*%
X101013500Y-149034900D03*
%TO.N,~XL*%
X133595400Y-149012600D03*
%TO.N,~YL*%
X187339300Y-157887400D03*
%TO.N,~OL*%
X131799000Y-127864900D03*
X113347900Y-51884100D03*
%TO.N,/CU/~BF*%
X140601200Y-119561200D03*
%TO.N,Net-(U4-Pad15)*%
X214093700Y-71649000D03*
X220650100Y-60960000D03*
%TO.N,Net-(U5-Pad15)*%
X205309300Y-63967900D03*
%TO.N,Net-(U22-Pad9)*%
X37782700Y-136813400D03*
%TO.N,Net-(U29-Pad15)*%
X118528900Y-71518900D03*
%TO.N,Net-(D25-Pad2)*%
X149860000Y-148590000D03*
%TD*%
D30*
%TO.N,Net-(C3-Pad1)*%
X220980000Y-41910000D02*
X220980000Y-38100000D01*
X220980000Y-49530000D02*
X220980000Y-41910000D01*
%TO.N,CLK1*%
X228600000Y-62085300D02*
X228318700Y-62085300D01*
X228318700Y-62085300D02*
X226926600Y-63477400D01*
X226926600Y-63477400D02*
X226926600Y-77534800D01*
X226926600Y-77534800D02*
X227241000Y-77849200D01*
X227241000Y-77849200D02*
X227241000Y-86576400D01*
X134620000Y-128414700D02*
X135745300Y-127289400D01*
X135745300Y-127289400D02*
X135745300Y-111594100D01*
X135745300Y-111594100D02*
X137019100Y-110320300D01*
X227241000Y-86576400D02*
X226770100Y-86576400D01*
X226770100Y-86576400D02*
X214703900Y-98642600D01*
X214703900Y-98642600D02*
X214703900Y-105979800D01*
X214703900Y-105979800D02*
X213956300Y-106727400D01*
X238760000Y-106680000D02*
X238760000Y-98095400D01*
X238760000Y-98095400D02*
X227241000Y-86576400D01*
X134620000Y-129540000D02*
X134620000Y-128414700D01*
X228600000Y-60960000D02*
X228600000Y-62085300D01*
X215900000Y-49530000D02*
X215900000Y-50655300D01*
X215900000Y-60960000D02*
X215900000Y-59834700D01*
X215900000Y-59834700D02*
X215196700Y-59834700D01*
X215196700Y-59834700D02*
X214774700Y-59412700D01*
X214774700Y-59412700D02*
X214774700Y-51780600D01*
X214774700Y-51780600D02*
X215900000Y-50655300D01*
%TO.N,CLK2*%
X66433700Y-60509600D02*
X66433700Y-69849300D01*
X66433700Y-69849300D02*
X63893000Y-72390000D01*
X63893000Y-72390000D02*
X63149600Y-72390000D01*
X63149600Y-72390000D02*
X61439000Y-74100600D01*
X61439000Y-74100600D02*
X61439000Y-83947200D01*
X61439000Y-83947200D02*
X60985000Y-84401200D01*
X60985000Y-84401200D02*
X60985000Y-89333100D01*
X60985000Y-89333100D02*
X60573300Y-89744800D01*
X60573300Y-89744800D02*
X60573300Y-110866700D01*
X60573300Y-110866700D02*
X60985000Y-111278400D01*
X60985000Y-111278400D02*
X60985000Y-121101000D01*
X60985000Y-121101000D02*
X63218700Y-123334700D01*
X63218700Y-123334700D02*
X63500000Y-123334700D01*
X198641500Y-40938000D02*
X193530400Y-46049100D01*
X193530400Y-46049100D02*
X193530400Y-67204000D01*
X193530400Y-67204000D02*
X188344400Y-72390000D01*
X188344400Y-72390000D02*
X185731600Y-72390000D01*
X185731600Y-72390000D02*
X176841600Y-81280000D01*
X176841600Y-81280000D02*
X175260000Y-81280000D01*
X121920000Y-59834700D02*
X121216600Y-59834700D01*
X121216600Y-59834700D02*
X120794700Y-59412800D01*
X120794700Y-59412800D02*
X120794700Y-49090500D01*
X120794700Y-49090500D02*
X121000200Y-48885000D01*
X121000200Y-48885000D02*
X120650000Y-48534800D01*
X120650000Y-48534800D02*
X120650000Y-36090200D01*
X120650000Y-36090200D02*
X118205400Y-33645600D01*
X118205400Y-33645600D02*
X118205400Y-32562800D01*
X118205400Y-32562800D02*
X118873500Y-31894700D01*
X118873500Y-31894700D02*
X122490800Y-31894700D01*
X122490800Y-31894700D02*
X123334700Y-32738600D01*
X123334700Y-32738600D02*
X123334700Y-33020000D01*
X124460000Y-33020000D02*
X123334700Y-33020000D01*
X63500000Y-124460000D02*
X63500000Y-123334700D01*
X121920000Y-60960000D02*
X121920000Y-59834700D01*
%TO.N,BUS0*%
X112663700Y-144160800D02*
X112663700Y-131850900D01*
X112663700Y-131850900D02*
X127411400Y-117103200D01*
X233680000Y-41910000D02*
X233680000Y-46593400D01*
X233680000Y-46593400D02*
X232265400Y-48008000D01*
X232265400Y-48008000D02*
X232265400Y-50655400D01*
X232265400Y-50655400D02*
X230397500Y-52523300D01*
X230397500Y-52523300D02*
X230397500Y-63142500D01*
X199534700Y-129540000D02*
X199534700Y-129821400D01*
X199534700Y-129821400D02*
X197682800Y-131673300D01*
X197682800Y-131673300D02*
X183865800Y-131673300D01*
X183865800Y-131673300D02*
X168843300Y-116650800D01*
X163942600Y-103014700D02*
X163942600Y-78294700D01*
X163942600Y-78294700D02*
X167307300Y-74930000D01*
X167307300Y-74930000D02*
X177979800Y-74930000D01*
X177979800Y-74930000D02*
X185599800Y-67310000D01*
X185599800Y-67310000D02*
X188322900Y-67310000D01*
X188322900Y-67310000D02*
X192816600Y-62816300D01*
X192816600Y-62816300D02*
X192816600Y-51884100D01*
X163685300Y-104140000D02*
X163685300Y-103272000D01*
X163685300Y-103272000D02*
X163942600Y-103014700D01*
X168843300Y-116650800D02*
X166370000Y-114177500D01*
X166370000Y-114177500D02*
X166370000Y-103778300D01*
X166370000Y-103778300D02*
X165606400Y-103014700D01*
X165606400Y-103014700D02*
X163942600Y-103014700D01*
X162560000Y-104140000D02*
X163685300Y-104140000D01*
X200660000Y-129540000D02*
X199534700Y-129540000D01*
%TO.N,BUS1*%
X116653600Y-153768500D02*
X116653600Y-129105100D01*
X116653600Y-129105100D02*
X129409700Y-116349000D01*
X63500000Y-154940000D02*
X63500000Y-153814700D01*
X63500000Y-153814700D02*
X63218700Y-153814700D01*
X63218700Y-153814700D02*
X62364100Y-152960100D01*
X62364100Y-152960100D02*
X62364100Y-144304300D01*
X62364100Y-144304300D02*
X66018000Y-140650400D01*
X66018000Y-140650400D02*
X66018000Y-132571900D01*
X66018000Y-132571900D02*
X65552600Y-132106500D01*
X229746300Y-59764900D02*
X227409500Y-59764900D01*
X227409500Y-59764900D02*
X225089000Y-62085400D01*
X225089000Y-62085400D02*
X223328600Y-62085400D01*
X223328600Y-62085400D02*
X218383900Y-67030100D01*
X218383900Y-67030100D02*
X218383900Y-80847700D01*
X218383900Y-80847700D02*
X217170000Y-82061600D01*
X217170000Y-82061600D02*
X217170000Y-91520200D01*
X217170000Y-91520200D02*
X212109300Y-96580900D01*
X212109300Y-96580900D02*
X212109300Y-105395400D01*
X212109300Y-105395400D02*
X204614700Y-112890000D01*
X204614700Y-112890000D02*
X204614700Y-129540000D01*
X231140000Y-50655300D02*
X229805400Y-51989900D01*
X229805400Y-51989900D02*
X229805400Y-59705800D01*
X229805400Y-59705800D02*
X229746300Y-59764900D01*
X228600000Y-64914700D02*
X228860600Y-64914700D01*
X228860600Y-64914700D02*
X229746300Y-64029000D01*
X229746300Y-64029000D02*
X229746300Y-59764900D01*
X231140000Y-49530000D02*
X231140000Y-50655300D01*
X228600000Y-66040000D02*
X228600000Y-64914700D01*
X165100000Y-115706400D02*
X164906900Y-115899500D01*
X165100000Y-104140000D02*
X165100000Y-115706400D01*
X204614700Y-129540000D02*
X204614700Y-129821300D01*
X204614700Y-129821300D02*
X202293000Y-132143000D01*
X202293000Y-132143000D02*
X181536600Y-132143000D01*
X181536600Y-132143000D02*
X165100000Y-115706400D01*
X205740000Y-129540000D02*
X204614700Y-129540000D01*
%TO.N,BUS2*%
X63500000Y-160020000D02*
X67844600Y-155675400D01*
X67844600Y-155675400D02*
X67844600Y-121869900D01*
X67844600Y-121869900D02*
X65976500Y-120001800D01*
X65976500Y-120001800D02*
X65976500Y-112623700D01*
X65976500Y-112623700D02*
X63842800Y-110490000D01*
X63842800Y-110490000D02*
X63172200Y-110490000D01*
X63172200Y-110490000D02*
X62374500Y-109692300D01*
X62374500Y-109692300D02*
X62374500Y-90716200D01*
X62374500Y-90716200D02*
X63021100Y-90069600D01*
X63021100Y-90069600D02*
X63021100Y-87258600D01*
X167640000Y-104702600D02*
X167189600Y-104252200D01*
X167189600Y-104252200D02*
X167189600Y-93025900D01*
X167189600Y-93025900D02*
X164924400Y-90760700D01*
X167640000Y-104702600D02*
X167640000Y-105265300D01*
X167640000Y-104140000D02*
X167640000Y-104702600D01*
X228600000Y-67454700D02*
X228881300Y-67454700D01*
X228881300Y-67454700D02*
X231208300Y-65127700D01*
X231208300Y-65127700D02*
X231208300Y-53127000D01*
X231208300Y-53127000D02*
X233680000Y-50655300D01*
X167640000Y-105265300D02*
X167640000Y-114460900D01*
X167640000Y-114460900D02*
X184354600Y-131175500D01*
X184354600Y-131175500D02*
X193016100Y-131175500D01*
X193016100Y-131175500D02*
X194567200Y-129624400D01*
X194567200Y-129624400D02*
X194567200Y-129540000D01*
X194567200Y-129540000D02*
X194567300Y-129540000D01*
X211341600Y-68180000D02*
X211963600Y-68802000D01*
X211963600Y-68802000D02*
X211963600Y-84269000D01*
X211963600Y-84269000D02*
X198828300Y-97404300D01*
X198828300Y-97404300D02*
X195613000Y-97404300D01*
X195613000Y-97404300D02*
X194195800Y-98821500D01*
X194195800Y-98821500D02*
X194195800Y-101744600D01*
X228600000Y-68580000D02*
X228600000Y-67454700D01*
X233680000Y-49530000D02*
X233680000Y-50655300D01*
X195580000Y-129540000D02*
X194567300Y-129540000D01*
%TO.N,BUS3*%
X40640000Y-62085300D02*
X40358700Y-62085300D01*
X40358700Y-62085300D02*
X34402600Y-68041400D01*
X34402600Y-68041400D02*
X34402600Y-163635300D01*
X34402600Y-163635300D02*
X40047600Y-169280300D01*
X40047600Y-169280300D02*
X63482000Y-169280300D01*
X63482000Y-169280300D02*
X64645300Y-168117000D01*
X64645300Y-168117000D02*
X64645300Y-167089300D01*
X64645300Y-167089300D02*
X63781300Y-166225300D01*
X63781300Y-166225300D02*
X63500000Y-166225300D01*
X228600000Y-71120000D02*
X228600000Y-72245300D01*
X227551900Y-76998600D02*
X227474700Y-76921400D01*
X227474700Y-76921400D02*
X227474700Y-73089200D01*
X227474700Y-73089200D02*
X228318600Y-72245300D01*
X228318600Y-72245300D02*
X228600000Y-72245300D01*
X170180000Y-88900000D02*
X170180000Y-90025300D01*
X170180000Y-90025300D02*
X174766000Y-94611300D01*
X174766000Y-94611300D02*
X174766000Y-112857400D01*
X174766000Y-112857400D02*
X182703300Y-120794700D01*
X63500000Y-165100000D02*
X63500000Y-166225300D01*
X40640000Y-60960000D02*
X40640000Y-62085300D01*
X228600000Y-71120000D02*
X228600000Y-69994700D01*
X236220000Y-49530000D02*
X236220000Y-55671400D01*
X236220000Y-55671400D02*
X232779900Y-59111500D01*
X232779900Y-59111500D02*
X232779900Y-66096100D01*
X232779900Y-66096100D02*
X228881300Y-69994700D01*
X228881300Y-69994700D02*
X228600000Y-69994700D01*
%TO.N,BUS4*%
X82499900Y-147410400D02*
X82499900Y-151180100D01*
X82499900Y-151180100D02*
X78740000Y-154940000D01*
X190500000Y-129540000D02*
X189374700Y-129540000D01*
X167640000Y-88900000D02*
X167640000Y-102369200D01*
X167640000Y-102369200D02*
X168792700Y-103521900D01*
X168792700Y-103521900D02*
X168792700Y-114976700D01*
X168792700Y-114976700D02*
X184481300Y-130665300D01*
X184481300Y-130665300D02*
X188530800Y-130665300D01*
X188530800Y-130665300D02*
X189374700Y-129821400D01*
X189374700Y-129821400D02*
X189374700Y-129540000D01*
X214774700Y-63500000D02*
X213649400Y-62374700D01*
X213649400Y-62374700D02*
X207787000Y-62374700D01*
X207787000Y-62374700D02*
X203944000Y-66217700D01*
X203944000Y-66217700D02*
X203944000Y-80174600D01*
X203944000Y-80174600D02*
X202730100Y-81388500D01*
X238760000Y-49530000D02*
X238760000Y-48404700D01*
X215337400Y-63500000D02*
X215337400Y-63141100D01*
X215337400Y-63141100D02*
X222594000Y-55884500D01*
X222594000Y-55884500D02*
X222594000Y-53604100D01*
X222594000Y-53604100D02*
X232410000Y-43788100D01*
X232410000Y-43788100D02*
X232410000Y-41541100D01*
X232410000Y-41541100D02*
X233169700Y-40781400D01*
X233169700Y-40781400D02*
X234173200Y-40781400D01*
X234173200Y-40781400D02*
X234950000Y-41558200D01*
X234950000Y-41558200D02*
X234950000Y-44594700D01*
X234950000Y-44594700D02*
X238760000Y-48404700D01*
X215337400Y-63500000D02*
X214774700Y-63500000D01*
X215900000Y-63500000D02*
X215337400Y-63500000D01*
%TO.N,BUS5*%
X200660000Y-121920000D02*
X200660000Y-120794700D01*
X200264000Y-117733600D02*
X200264000Y-120398700D01*
X200264000Y-120398700D02*
X200660000Y-120794700D01*
X199437200Y-99690900D02*
X199437200Y-115166900D01*
X199437200Y-115166900D02*
X200264000Y-115993700D01*
X200264000Y-115993700D02*
X200264000Y-117733600D01*
X125430600Y-117066100D02*
X111947300Y-130549400D01*
X111947300Y-130549400D02*
X105393600Y-130549400D01*
X205925600Y-69850000D02*
X204470000Y-71305600D01*
X204470000Y-71305600D02*
X204470000Y-88108300D01*
X204470000Y-88108300D02*
X196692700Y-95885600D01*
X55880000Y-153814700D02*
X56161300Y-153814700D01*
X56161300Y-153814700D02*
X57575300Y-152400700D01*
X57575300Y-152400700D02*
X57575300Y-136449100D01*
X57575300Y-136449100D02*
X62128000Y-131896400D01*
X55880000Y-154940000D02*
X55880000Y-153814700D01*
X215900000Y-64914700D02*
X216181400Y-64914700D01*
X216181400Y-64914700D02*
X217211900Y-63884200D01*
X217211900Y-63884200D02*
X217211900Y-61903500D01*
X217211900Y-61903500D02*
X223203600Y-55911800D01*
X223203600Y-55911800D02*
X223203600Y-55274900D01*
X223203600Y-55274900D02*
X232592600Y-45885900D01*
X215900000Y-66040000D02*
X215900000Y-64914700D01*
%TO.N,BUS6*%
X177603500Y-95982800D02*
X177603500Y-89638900D01*
X177603500Y-89638900D02*
X187117100Y-80125300D01*
X224317100Y-55100400D02*
X224317100Y-55435200D01*
X224317100Y-55435200D02*
X221800500Y-57951800D01*
X221800500Y-57951800D02*
X221800500Y-62976600D01*
X221800500Y-62976600D02*
X215900000Y-68877100D01*
X215900000Y-68877100D02*
X217550700Y-70527800D01*
X217550700Y-70527800D02*
X217550700Y-78466400D01*
X217550700Y-78466400D02*
X217383800Y-78633300D01*
X177603500Y-95982800D02*
X183812600Y-102191900D01*
X183812600Y-102191900D02*
X183812600Y-106664200D01*
X183812600Y-106664200D02*
X184558700Y-107410300D01*
X184558700Y-107410300D02*
X184558700Y-110511900D01*
X184558700Y-110511900D02*
X184268900Y-110801700D01*
X184268900Y-110801700D02*
X184268900Y-115266900D01*
X184268900Y-115266900D02*
X189796700Y-120794700D01*
X189796700Y-120794700D02*
X190500000Y-120794700D01*
X190500000Y-121920000D02*
X190500000Y-120794700D01*
X72356300Y-158786700D02*
X74937100Y-156205900D01*
X74937100Y-156205900D02*
X74937100Y-147175400D01*
X74937100Y-147175400D02*
X75297600Y-146814900D01*
X75297600Y-146814900D02*
X75297600Y-118100600D01*
X75297600Y-118100600D02*
X75028000Y-117831000D01*
X75028000Y-117831000D02*
X75028000Y-114878500D01*
X75028000Y-114878500D02*
X72526100Y-112376600D01*
X72526100Y-112376600D02*
X72526100Y-104251700D01*
X72526100Y-104251700D02*
X73185300Y-103592500D01*
X73185300Y-103592500D02*
X73185300Y-94825900D01*
X73185300Y-94825900D02*
X72999700Y-94640300D01*
X215900000Y-68580000D02*
X215900000Y-68877100D01*
%TO.N,BUS7*%
X98268500Y-75680600D02*
X87213200Y-64625300D01*
X87213200Y-64625300D02*
X78740000Y-64625300D01*
X62247000Y-84660700D02*
X61900700Y-85007000D01*
X61900700Y-85007000D02*
X61900700Y-89691200D01*
X61900700Y-89691200D02*
X61473900Y-90118000D01*
X61473900Y-90118000D02*
X61473900Y-110493500D01*
X61473900Y-110493500D02*
X61900700Y-110920300D01*
X61900700Y-110920300D02*
X61900700Y-116895900D01*
X61900700Y-116895900D02*
X63114800Y-118110000D01*
X63114800Y-118110000D02*
X63837800Y-118110000D01*
X63837800Y-118110000D02*
X64625300Y-118897500D01*
X64625300Y-118897500D02*
X64625300Y-132119600D01*
X64625300Y-132119600D02*
X65567600Y-133061900D01*
X65567600Y-133061900D02*
X65567600Y-136994800D01*
X65567600Y-136994800D02*
X60486700Y-142075700D01*
X60486700Y-142075700D02*
X60486700Y-159649300D01*
X60486700Y-159649300D02*
X56161300Y-163974700D01*
X56161300Y-163974700D02*
X55880000Y-163974700D01*
X200571300Y-79304300D02*
X203318700Y-76556900D01*
X203318700Y-76556900D02*
X203318700Y-72456600D01*
X162258600Y-117829300D02*
X160024200Y-115594900D01*
X160024200Y-115594900D02*
X160024200Y-106352700D01*
X160024200Y-106352700D02*
X158877700Y-105206200D01*
X158877700Y-105206200D02*
X158877700Y-91167600D01*
X158877700Y-91167600D02*
X160020000Y-90025300D01*
X78740000Y-64625300D02*
X78458600Y-64625300D01*
X78458600Y-64625300D02*
X74757000Y-68326900D01*
X74757000Y-68326900D02*
X74757000Y-69136100D01*
X74757000Y-69136100D02*
X71503100Y-72390000D01*
X71503100Y-72390000D02*
X70786800Y-72390000D01*
X70786800Y-72390000D02*
X69844600Y-73332200D01*
X69844600Y-73332200D02*
X69844600Y-78159400D01*
X69844600Y-78159400D02*
X63723500Y-84280500D01*
X160020000Y-88900000D02*
X160020000Y-84990300D01*
X160020000Y-84990300D02*
X160395800Y-84614500D01*
X55880000Y-165100000D02*
X55880000Y-163974700D01*
X160020000Y-89462600D02*
X160020000Y-88900000D01*
X160020000Y-89462600D02*
X160020000Y-90025300D01*
X195580000Y-120794700D02*
X193695000Y-118909700D01*
X193695000Y-118909700D02*
X193695000Y-117792100D01*
X78740000Y-63500000D02*
X78740000Y-64625300D01*
X195580000Y-121920000D02*
X195580000Y-120794700D01*
%TO.N,AC0*%
X59745600Y-121606500D02*
X59745600Y-115090900D01*
X59745600Y-115090900D02*
X58365600Y-113710900D01*
X58365600Y-113710900D02*
X58365600Y-103754000D01*
X58365600Y-103754000D02*
X58241300Y-103629700D01*
X58241300Y-103629700D02*
X58241300Y-83323500D01*
X58241300Y-83323500D02*
X59012500Y-82552300D01*
X59012500Y-82552300D02*
X59012500Y-77970600D01*
X48260000Y-153814700D02*
X48541400Y-153814700D01*
X48541400Y-153814700D02*
X49571900Y-152784200D01*
X49571900Y-152784200D02*
X49571900Y-151799400D01*
X49571900Y-151799400D02*
X55176600Y-146194700D01*
X55176600Y-146194700D02*
X55880000Y-146194700D01*
X55880000Y-123045300D02*
X55598700Y-123045300D01*
X55598700Y-123045300D02*
X54754700Y-123889300D01*
X54754700Y-123889300D02*
X54754700Y-145772800D01*
X54754700Y-145772800D02*
X55176600Y-146194700D01*
X48260000Y-154940000D02*
X48260000Y-153814700D01*
X55880000Y-147320000D02*
X55880000Y-146194700D01*
X55880000Y-121920000D02*
X55880000Y-123045300D01*
%TO.N,AC1*%
X55880000Y-115425300D02*
X56105200Y-115425300D01*
X56105200Y-115425300D02*
X57605700Y-116925800D01*
X57605700Y-116925800D02*
X57605700Y-126939900D01*
X57605700Y-126939900D02*
X58035800Y-127370000D01*
X55880000Y-113174700D02*
X55598700Y-113174700D01*
X55598700Y-113174700D02*
X53607600Y-111183600D01*
X53607600Y-111183600D02*
X53607600Y-99524500D01*
X53607600Y-99524500D02*
X53545700Y-99462600D01*
X53545700Y-99462600D02*
X53545700Y-82022800D01*
X53545700Y-82022800D02*
X55413800Y-80154700D01*
X55413800Y-80154700D02*
X56113200Y-80154700D01*
X56113200Y-80154700D02*
X57005300Y-79262600D01*
X57005300Y-79262600D02*
X57005300Y-75704500D01*
X57005300Y-75704500D02*
X56086100Y-74785300D01*
X56086100Y-74785300D02*
X55880000Y-74785300D01*
X55880000Y-114300000D02*
X55880000Y-115425300D01*
X55880000Y-113737300D02*
X55880000Y-114300000D01*
X55880000Y-113737300D02*
X55880000Y-113174700D01*
X55880000Y-152400000D02*
X55880000Y-151274700D01*
X55880000Y-151274700D02*
X56072800Y-151274700D01*
X56072800Y-151274700D02*
X57005300Y-150342200D01*
X57005300Y-150342200D02*
X57005300Y-129806000D01*
X57005300Y-129806000D02*
X56552600Y-129353300D01*
X55880000Y-73660000D02*
X55880000Y-74785300D01*
%TO.N,AC2*%
X55880000Y-111760000D02*
X57361100Y-113241100D01*
X57361100Y-113241100D02*
X57361100Y-116044300D01*
X57361100Y-116044300D02*
X58281200Y-116964400D01*
X58281200Y-116964400D02*
X58281200Y-126316300D01*
X58281200Y-126316300D02*
X63499700Y-131534800D01*
X63499700Y-131534800D02*
X63499700Y-132424900D01*
X63499700Y-132424900D02*
X64667000Y-133592200D01*
X64667000Y-133592200D02*
X64667000Y-136621600D01*
X64667000Y-136621600D02*
X59135800Y-142152800D01*
X59135800Y-142152800D02*
X59135800Y-153380200D01*
X59135800Y-153380200D02*
X56161300Y-156354700D01*
X56161300Y-156354700D02*
X55880000Y-156354700D01*
X55880000Y-66040000D02*
X57005300Y-67165300D01*
X57005300Y-67165300D02*
X57005300Y-72242400D01*
X57005300Y-72242400D02*
X57486600Y-72723700D01*
X57486600Y-72723700D02*
X57486600Y-81277600D01*
X57486600Y-81277600D02*
X54171000Y-84593200D01*
X54171000Y-84593200D02*
X54171000Y-89781300D01*
X55880000Y-157480000D02*
X55880000Y-156354700D01*
X55880000Y-111760000D02*
X55880000Y-110634700D01*
X55880000Y-110634700D02*
X55598700Y-110634700D01*
X55598700Y-110634700D02*
X54171000Y-109207000D01*
X54171000Y-109207000D02*
X54171000Y-89781300D01*
%TO.N,AC3*%
X56583400Y-103014700D02*
X57811400Y-104242700D01*
X57811400Y-104242700D02*
X57811400Y-115220700D01*
X57811400Y-115220700D02*
X58770100Y-116179400D01*
X58770100Y-116179400D02*
X58770100Y-126168300D01*
X58770100Y-126168300D02*
X63950000Y-131348200D01*
X63950000Y-131348200D02*
X63950000Y-132238300D01*
X63950000Y-132238300D02*
X65117300Y-133405600D01*
X65117300Y-133405600D02*
X65117300Y-136808200D01*
X65117300Y-136808200D02*
X60036400Y-141889100D01*
X60036400Y-141889100D02*
X60036400Y-157559700D01*
X60036400Y-157559700D02*
X56161400Y-161434700D01*
X56161400Y-161434700D02*
X55880000Y-161434700D01*
X55880000Y-64625300D02*
X56104500Y-64625300D01*
X56104500Y-64625300D02*
X58387200Y-66908000D01*
X58387200Y-66908000D02*
X58387200Y-81903800D01*
X58387200Y-81903800D02*
X57666600Y-82624400D01*
X57666600Y-82624400D02*
X57666600Y-101931500D01*
X57666600Y-101931500D02*
X56583400Y-103014700D01*
X56583400Y-103014700D02*
X55880000Y-103014700D01*
X55880000Y-162560000D02*
X55880000Y-161434700D01*
X55880000Y-104140000D02*
X55880000Y-103014700D01*
X55880000Y-63500000D02*
X55880000Y-64625300D01*
%TO.N,AC4*%
X63500000Y-151274700D02*
X63716600Y-151274700D01*
X63716600Y-151274700D02*
X66483300Y-148508000D01*
X66483300Y-148508000D02*
X66483300Y-131467000D01*
X66483300Y-131467000D02*
X65075700Y-130059400D01*
X65075700Y-130059400D02*
X65075700Y-116736100D01*
X65075700Y-116736100D02*
X63764900Y-115425300D01*
X63764900Y-115425300D02*
X63500000Y-115425300D01*
X63500000Y-76200000D02*
X62371600Y-77328400D01*
X62371600Y-77328400D02*
X62371600Y-83900900D01*
X62371600Y-83900900D02*
X62872300Y-84401600D01*
X62872300Y-84401600D02*
X62872300Y-86470300D01*
X62872300Y-86470300D02*
X62374500Y-86968100D01*
X62374500Y-86968100D02*
X62374500Y-89854300D01*
X62374500Y-89854300D02*
X61924200Y-90304600D01*
X61924200Y-90304600D02*
X61924200Y-110306900D01*
X61924200Y-110306900D02*
X62374500Y-110757200D01*
X62374500Y-110757200D02*
X62374500Y-113174500D01*
X62374500Y-113174500D02*
X63500000Y-114300000D01*
X63500000Y-152400000D02*
X63500000Y-151274700D01*
X63500000Y-114300000D02*
X63500000Y-115425300D01*
%TO.N,AC5*%
X63500000Y-156354700D02*
X63781400Y-156354700D01*
X63781400Y-156354700D02*
X66933600Y-153202500D01*
X66933600Y-153202500D02*
X66933600Y-128152900D01*
X66933600Y-128152900D02*
X65701000Y-126920300D01*
X63500000Y-74785300D02*
X63218700Y-74785300D01*
X63218700Y-74785300D02*
X61889300Y-76114700D01*
X61889300Y-76114700D02*
X61889300Y-84133800D01*
X61889300Y-84133800D02*
X61435400Y-84587700D01*
X61435400Y-84587700D02*
X61435400Y-89519600D01*
X61435400Y-89519600D02*
X61023600Y-89931400D01*
X61023600Y-89931400D02*
X61023600Y-110680100D01*
X61023600Y-110680100D02*
X61435400Y-111091900D01*
X61435400Y-111091900D02*
X61435400Y-119011400D01*
X61435400Y-119011400D02*
X63218700Y-120794700D01*
X63218700Y-120794700D02*
X63500000Y-120794700D01*
X63500000Y-157480000D02*
X63500000Y-156354700D01*
X63500000Y-121920000D02*
X63500000Y-120794700D01*
X63500000Y-73660000D02*
X63500000Y-74785300D01*
%TO.N,AC6*%
X71120000Y-86360000D02*
X71120000Y-87485300D01*
X71906200Y-103692500D02*
X72695700Y-102903000D01*
X72695700Y-102903000D02*
X72695700Y-98257100D01*
X72695700Y-98257100D02*
X72245300Y-97806700D01*
X72245300Y-97806700D02*
X72245300Y-88417800D01*
X72245300Y-88417800D02*
X71312800Y-87485300D01*
X71312800Y-87485300D02*
X71120000Y-87485300D01*
X63500000Y-161434700D02*
X63724900Y-161434700D01*
X63724900Y-161434700D02*
X68328400Y-156831200D01*
X68328400Y-156831200D02*
X68328400Y-118674700D01*
X68328400Y-118674700D02*
X66876800Y-117223100D01*
X66876800Y-117223100D02*
X66876800Y-108437600D01*
X66876800Y-108437600D02*
X63704500Y-105265300D01*
X63704500Y-105265300D02*
X63500000Y-105265300D01*
X63500000Y-67165300D02*
X63218700Y-67165300D01*
X63218700Y-67165300D02*
X60988700Y-69395300D01*
X60988700Y-69395300D02*
X60988700Y-83392500D01*
X60988700Y-83392500D02*
X60434500Y-83946700D01*
X60434500Y-83946700D02*
X60434500Y-87822800D01*
X60434500Y-87822800D02*
X60349600Y-87907700D01*
X63500000Y-66040000D02*
X63500000Y-67165300D01*
X63500000Y-104140000D02*
X63500000Y-105265300D01*
X63500000Y-162560000D02*
X63500000Y-161434700D01*
%TO.N,AC7*%
X63500000Y-167640000D02*
X62338600Y-166478600D01*
X62338600Y-166478600D02*
X62338600Y-159509500D01*
X62338600Y-159509500D02*
X63098100Y-158750000D01*
X63098100Y-158750000D02*
X63904700Y-158750000D01*
X63904700Y-158750000D02*
X67383900Y-155270800D01*
X67383900Y-155270800D02*
X67383900Y-123632300D01*
X67383900Y-123632300D02*
X65526100Y-121774500D01*
X65526100Y-121774500D02*
X65526100Y-114630100D01*
X65526100Y-114630100D02*
X63781300Y-112885300D01*
X63781300Y-112885300D02*
X63500000Y-112885300D01*
X63500000Y-64625300D02*
X63218700Y-64625300D01*
X63218700Y-64625300D02*
X60538400Y-67305600D01*
X60538400Y-67305600D02*
X60538400Y-82937100D01*
X60538400Y-82937100D02*
X59984200Y-83491300D01*
X59984200Y-83491300D02*
X59984200Y-87342400D01*
X59984200Y-87342400D02*
X59721600Y-87605000D01*
X59721600Y-87605000D02*
X59721600Y-89020800D01*
X59721600Y-89020800D02*
X60123000Y-89422200D01*
X60123000Y-89422200D02*
X60123000Y-111692000D01*
X60123000Y-111692000D02*
X60191000Y-111760000D01*
X220980000Y-137160000D02*
X220980000Y-138285300D01*
X219565400Y-143166900D02*
X219565400Y-145300300D01*
X219565400Y-145300300D02*
X196690400Y-168175300D01*
X196690400Y-168175300D02*
X195461100Y-168175300D01*
X221454200Y-141965200D02*
X221454200Y-138759500D01*
X221454200Y-138759500D02*
X220980000Y-138285300D01*
X63500000Y-111760000D02*
X63500000Y-112885300D01*
X63500000Y-63500000D02*
X63500000Y-64625300D01*
%TO.N,ALU3*%
X105104500Y-67454700D02*
X105104500Y-62129500D01*
X105104500Y-62129500D02*
X104942700Y-61967700D01*
X104942700Y-61967700D02*
X104942700Y-59957200D01*
X104942700Y-59957200D02*
X105248800Y-59651100D01*
X105248800Y-59651100D02*
X105248800Y-55361100D01*
X105248800Y-55361100D02*
X106680000Y-53929900D01*
X106680000Y-53929900D02*
X106680000Y-41765300D01*
X57705600Y-71761300D02*
X57936900Y-71992600D01*
X57936900Y-71992600D02*
X57936900Y-81717200D01*
X57936900Y-81717200D02*
X55759600Y-83894500D01*
X55759600Y-83894500D02*
X55759600Y-92526400D01*
X55759600Y-92526400D02*
X54744900Y-93541100D01*
X54744900Y-93541100D02*
X54744900Y-104700900D01*
X54744900Y-104700900D02*
X55598700Y-105554700D01*
X55598700Y-105554700D02*
X55880000Y-105554700D01*
X55880000Y-106680000D02*
X55880000Y-105554700D01*
X106680000Y-40640000D02*
X106680000Y-41765300D01*
%TO.N,ALU2*%
X59496500Y-109220000D02*
X59496500Y-102754500D01*
X59496500Y-102754500D02*
X59237800Y-102495800D01*
X59237800Y-102495800D02*
X59237800Y-87235100D01*
X59237800Y-87235100D02*
X59533900Y-86939000D01*
X59533900Y-86939000D02*
X59533900Y-83304700D01*
X59533900Y-83304700D02*
X60088100Y-82750500D01*
X60088100Y-82750500D02*
X60088100Y-52052100D01*
X60088100Y-52052100D02*
X60371100Y-51769100D01*
X121920000Y-67454700D02*
X122125300Y-67454700D01*
X122125300Y-67454700D02*
X123850600Y-65729400D01*
X123850600Y-65729400D02*
X123850600Y-65009300D01*
X123850600Y-65009300D02*
X129057300Y-59802600D01*
X129057300Y-59802600D02*
X130035300Y-59802600D01*
X130035300Y-59802600D02*
X130775000Y-60542300D01*
X130775000Y-60542300D02*
X130775000Y-61799200D01*
X130775000Y-61799200D02*
X131331500Y-62355700D01*
X131331500Y-62355700D02*
X131331500Y-74253600D01*
X131331500Y-74253600D02*
X134058400Y-76980500D01*
X167640000Y-73660000D02*
X161984200Y-79315800D01*
X161984200Y-79315800D02*
X161984200Y-81723700D01*
X121920000Y-68580000D02*
X121920000Y-67454700D01*
X109220000Y-40640000D02*
X109220000Y-41765300D01*
X109220000Y-41765300D02*
X116913200Y-49458500D01*
X116913200Y-49458500D02*
X116913200Y-58823000D01*
X116913200Y-58823000D02*
X119324700Y-61234500D01*
X119324700Y-61234500D02*
X119324700Y-65140700D01*
X119324700Y-65140700D02*
X121638700Y-67454700D01*
X121638700Y-67454700D02*
X121920000Y-67454700D01*
%TO.N,ALU1*%
X167640000Y-64914700D02*
X167358700Y-64914700D01*
X167358700Y-64914700D02*
X165840700Y-63396700D01*
X165840700Y-63396700D02*
X165840700Y-58820500D01*
X119678000Y-56673400D02*
X117383600Y-54379000D01*
X117383600Y-54379000D02*
X117383600Y-42308900D01*
X117383600Y-42308900D02*
X116840000Y-41765300D01*
X121920000Y-64914700D02*
X121638700Y-64914700D01*
X121638700Y-64914700D02*
X119775100Y-63051100D01*
X119775100Y-63051100D02*
X119775100Y-56770500D01*
X119775100Y-56770500D02*
X119678000Y-56673400D01*
X167640000Y-66040000D02*
X167640000Y-64914700D01*
X121920000Y-66040000D02*
X121920000Y-64914700D01*
X116840000Y-40640000D02*
X116840000Y-41765300D01*
%TO.N,ALU0*%
X121920000Y-62374700D02*
X121638600Y-62374700D01*
X121638600Y-62374700D02*
X120314900Y-61051000D01*
X120314900Y-61051000D02*
X120314900Y-49092100D01*
X120314900Y-49092100D02*
X119380000Y-48157200D01*
X119380000Y-48157200D02*
X119380000Y-41765300D01*
X119514500Y-67178200D02*
X119514500Y-68733300D01*
X119514500Y-68733300D02*
X118523100Y-69724700D01*
X92386200Y-115515000D02*
X92386200Y-87497300D01*
X92386200Y-87497300D02*
X105182800Y-74700700D01*
X121920000Y-63500000D02*
X121920000Y-62374700D01*
X119380000Y-40640000D02*
X119380000Y-41765300D01*
%TO.N,~AE*%
X55880000Y-144780000D02*
X55880000Y-143654700D01*
X148900300Y-128024100D02*
X151558400Y-128024100D01*
X151558400Y-128024100D02*
X153946800Y-130412500D01*
X55880000Y-143654700D02*
X56092300Y-143442400D01*
X56092300Y-143442400D02*
X56092300Y-141857100D01*
%TO.N,Y1*%
X167640000Y-67454700D02*
X167921300Y-67454700D01*
X167921300Y-67454700D02*
X168803800Y-66572200D01*
X168803800Y-66572200D02*
X168803800Y-57514800D01*
X168803800Y-57514800D02*
X168583500Y-57294500D01*
X168583500Y-57294500D02*
X165784200Y-57294500D01*
X165784200Y-57294500D02*
X162899000Y-60179700D01*
X162899000Y-60179700D02*
X162899000Y-62248800D01*
X162899000Y-62248800D02*
X160486300Y-64661500D01*
X160486300Y-64661500D02*
X156891000Y-64661500D01*
X156891000Y-64661500D02*
X154556500Y-62327000D01*
X154556500Y-62327000D02*
X151861200Y-62327000D01*
X151861200Y-62327000D02*
X149627400Y-64560800D01*
X149627400Y-64560800D02*
X146966100Y-64560800D01*
X146966100Y-64560800D02*
X145905300Y-63500000D01*
X144780000Y-63500000D02*
X145905300Y-63500000D01*
X167640000Y-68580000D02*
X167640000Y-67454700D01*
%TO.N,Y4*%
X174134700Y-60960000D02*
X174134700Y-60548600D01*
X174134700Y-60548600D02*
X170430200Y-56844100D01*
X170430200Y-56844100D02*
X165587000Y-56844100D01*
X165587000Y-56844100D02*
X161145300Y-61285800D01*
X161145300Y-61285800D02*
X161145300Y-61530800D01*
X161145300Y-61530800D02*
X160301400Y-62374700D01*
X160301400Y-62374700D02*
X160020000Y-62374700D01*
X160020000Y-63500000D02*
X160020000Y-62374700D01*
X175260000Y-60960000D02*
X174134700Y-60960000D01*
%TO.N,Y5*%
X178925300Y-66040000D02*
X178925300Y-62972800D01*
X178925300Y-62972800D02*
X175508200Y-59555700D01*
X175508200Y-59555700D02*
X174134600Y-59555700D01*
X174134600Y-59555700D02*
X170959400Y-56380500D01*
X170959400Y-56380500D02*
X142864800Y-56380500D01*
X142864800Y-56380500D02*
X138285300Y-60960000D01*
X178925300Y-66040000D02*
X187960000Y-66040000D01*
X176385300Y-68580000D02*
X178925300Y-66040000D01*
X137160000Y-60960000D02*
X138285300Y-60960000D01*
X175260000Y-68580000D02*
X176385300Y-68580000D01*
%TO.N,/RAM/A14*%
X137160000Y-104140000D02*
X137160000Y-90700200D01*
X137160000Y-90700200D02*
X138430000Y-89430200D01*
X138430000Y-89430200D02*
X138430000Y-88526100D01*
X138430000Y-88526100D02*
X139186500Y-87769600D01*
X139186500Y-87769600D02*
X140198600Y-87769600D01*
X140198600Y-87769600D02*
X140896100Y-88467100D01*
X140896100Y-88467100D02*
X140896100Y-89188400D01*
X140896100Y-89188400D02*
X141758300Y-90050600D01*
X141758300Y-90050600D02*
X142719500Y-90050600D01*
X142719500Y-90050600D02*
X143400600Y-89369500D01*
X143400600Y-89369500D02*
X143400600Y-87740100D01*
X143400600Y-87740100D02*
X136034700Y-80374200D01*
X136034700Y-80374200D02*
X136034700Y-74785300D01*
X136034700Y-74785300D02*
X137160000Y-73660000D01*
%TO.N,/RAM/A12*%
X160020000Y-69705300D02*
X159738600Y-69705300D01*
X159738600Y-69705300D02*
X155978800Y-73465100D01*
X155978800Y-73465100D02*
X155978800Y-85708200D01*
X155978800Y-85708200D02*
X153525400Y-88161600D01*
X153525400Y-88161600D02*
X153525400Y-89470600D01*
X153525400Y-89470600D02*
X139981300Y-103014700D01*
X139981300Y-103014700D02*
X139700000Y-103014700D01*
X160020000Y-68580000D02*
X160020000Y-69705300D01*
X139700000Y-104140000D02*
X139700000Y-103014700D01*
%TO.N,/RAM/A4*%
X106680000Y-88900000D02*
X107806300Y-87773700D01*
X107806300Y-87773700D02*
X107806300Y-85812800D01*
X107806300Y-85812800D02*
X107172100Y-85178600D01*
X107172100Y-85178600D02*
X106263900Y-85178600D01*
X106263900Y-85178600D02*
X105011500Y-86431000D01*
X105011500Y-86431000D02*
X105011500Y-93974400D01*
X105011500Y-93974400D02*
X106287100Y-95250000D01*
X106287100Y-95250000D02*
X107007500Y-95250000D01*
X107007500Y-95250000D02*
X110747700Y-98990200D01*
X110747700Y-98990200D02*
X110747700Y-100371300D01*
X110747700Y-100371300D02*
X116603500Y-106227100D01*
%TO.N,/RAM/A3*%
X152400000Y-104140000D02*
X152400000Y-103014700D01*
X152400000Y-103014700D02*
X151274700Y-103014700D01*
X151274700Y-103014700D02*
X147786600Y-99526600D01*
%TO.N,/RAM/A10*%
X160020000Y-77325300D02*
X160020000Y-82384900D01*
X160020000Y-82384900D02*
X158597300Y-83807600D01*
X158597300Y-83807600D02*
X158516300Y-83807600D01*
X158516300Y-83807600D02*
X154940000Y-87383900D01*
X154940000Y-87383900D02*
X154940000Y-87774700D01*
X160020000Y-76200000D02*
X160020000Y-77325300D01*
X154940000Y-88900000D02*
X154940000Y-87774700D01*
%TO.N,/RAM/A11*%
X149860000Y-88900000D02*
X149860000Y-87774700D01*
X149860000Y-87774700D02*
X148734700Y-87774700D01*
X148734700Y-87774700D02*
X144780000Y-83820000D01*
X144780000Y-83820000D02*
X144780000Y-76200000D01*
%TO.N,/RAM/A9*%
X144780000Y-68580000D02*
X144780000Y-69705300D01*
X147320000Y-88900000D02*
X147320000Y-87774700D01*
X147320000Y-87774700D02*
X143654700Y-84109400D01*
X143654700Y-84109400D02*
X143654700Y-70549200D01*
X143654700Y-70549200D02*
X144498600Y-69705300D01*
X144498600Y-69705300D02*
X144780000Y-69705300D01*
%TO.N,/RAM/A8*%
X144780000Y-88900000D02*
X145905300Y-88900000D01*
X152400000Y-66040000D02*
X152400000Y-67165300D01*
X152400000Y-67165300D02*
X152681300Y-67165300D01*
X152681300Y-67165300D02*
X153575400Y-68059400D01*
X153575400Y-68059400D02*
X153575400Y-85924400D01*
X153575400Y-85924400D02*
X151130000Y-88369800D01*
X151130000Y-88369800D02*
X151130000Y-89291900D01*
X151130000Y-89291900D02*
X150396600Y-90025300D01*
X150396600Y-90025300D02*
X146749200Y-90025300D01*
X146749200Y-90025300D02*
X145905300Y-89181400D01*
X145905300Y-89181400D02*
X145905300Y-88900000D01*
%TO.N,/RAM/A13*%
X142240000Y-88900000D02*
X142240000Y-87774700D01*
X137160000Y-67165300D02*
X137441400Y-67165300D01*
X137441400Y-67165300D02*
X138285300Y-68009200D01*
X138285300Y-68009200D02*
X138285300Y-71652400D01*
X138285300Y-71652400D02*
X137547700Y-72390000D01*
X137547700Y-72390000D02*
X136809800Y-72390000D01*
X136809800Y-72390000D02*
X135584400Y-73615400D01*
X135584400Y-73615400D02*
X135584400Y-81119100D01*
X135584400Y-81119100D02*
X142240000Y-87774700D01*
X137160000Y-66040000D02*
X137160000Y-67165300D01*
%TO.N,D0*%
X129540000Y-90025300D02*
X129821300Y-90025300D01*
X129821300Y-90025300D02*
X132455100Y-92659100D01*
X132455100Y-92659100D02*
X132455100Y-102029500D01*
X132455100Y-102029500D02*
X139564800Y-109139200D01*
X129540000Y-88900000D02*
X129540000Y-90025300D01*
X203200000Y-121920000D02*
X203200000Y-120794700D01*
X205740000Y-106680000D02*
X205740000Y-108731600D01*
X205740000Y-108731600D02*
X202074700Y-112396900D01*
X202074700Y-112396900D02*
X202074700Y-119669400D01*
X202074700Y-119669400D02*
X203200000Y-120794700D01*
%TO.N,D1*%
X208280000Y-121920000D02*
X208280000Y-120794700D01*
X205740000Y-114300000D02*
X205740000Y-118254700D01*
X205740000Y-118254700D02*
X208280000Y-120794700D01*
X121920000Y-86360000D02*
X121920000Y-87485300D01*
X121920000Y-87485300D02*
X122201400Y-87485300D01*
X122201400Y-87485300D02*
X123045300Y-88329200D01*
X123045300Y-88329200D02*
X123045300Y-95389200D01*
X123045300Y-95389200D02*
X134800400Y-107144300D01*
X134800400Y-107144300D02*
X134800400Y-111159900D01*
%TO.N,D2*%
X121920000Y-95105300D02*
X122124500Y-95105300D01*
X122124500Y-95105300D02*
X130656600Y-103637400D01*
X130656600Y-103637400D02*
X130656600Y-108503700D01*
X121920000Y-93980000D02*
X121920000Y-95105300D01*
X198120000Y-121920000D02*
X198120000Y-120794700D01*
X198120000Y-106680000D02*
X198120000Y-107805300D01*
X198120000Y-107805300D02*
X196994700Y-108930600D01*
X196994700Y-108930600D02*
X196994700Y-119669400D01*
X196994700Y-119669400D02*
X198120000Y-120794700D01*
%TO.N,D3*%
X129540000Y-97645300D02*
X129716800Y-97645300D01*
X129716800Y-97645300D02*
X130665300Y-98593800D01*
X130665300Y-98593800D02*
X130665300Y-101124000D01*
X130665300Y-101124000D02*
X139587000Y-110045700D01*
X139587000Y-110045700D02*
X139587000Y-111807700D01*
X203200000Y-129540000D02*
X203200000Y-128414700D01*
X198120000Y-114300000D02*
X198120000Y-115425300D01*
X198120000Y-115425300D02*
X199245300Y-116550600D01*
X199245300Y-116550600D02*
X199245300Y-124460000D01*
X199245300Y-124460000D02*
X203200000Y-128414700D01*
X129540000Y-96520000D02*
X129540000Y-97645300D01*
%TO.N,X3*%
X129540000Y-72245300D02*
X129258700Y-72245300D01*
X129258700Y-72245300D02*
X127950200Y-73553800D01*
X127950200Y-73553800D02*
X127950200Y-91447500D01*
X127950200Y-91447500D02*
X129357400Y-92854700D01*
X129357400Y-92854700D02*
X129540000Y-92854700D01*
X129540000Y-93980000D02*
X129540000Y-92854700D01*
X129540000Y-71120000D02*
X129540000Y-72245300D01*
%TO.N,X2*%
X121920000Y-91440000D02*
X121920000Y-90314700D01*
X129540000Y-68580000D02*
X129540000Y-69705300D01*
X129540000Y-69705300D02*
X129258700Y-69705300D01*
X129258700Y-69705300D02*
X123964400Y-74999600D01*
X123964400Y-74999600D02*
X123964400Y-83395600D01*
X123964400Y-83395600D02*
X122173000Y-85187000D01*
X122173000Y-85187000D02*
X121483700Y-85187000D01*
X121483700Y-85187000D02*
X120794700Y-85876000D01*
X120794700Y-85876000D02*
X120794700Y-89470800D01*
X120794700Y-89470800D02*
X121638600Y-90314700D01*
X121638600Y-90314700D02*
X121920000Y-90314700D01*
%TO.N,X1*%
X121920000Y-83820000D02*
X121920000Y-82694700D01*
X129540000Y-66040000D02*
X129540000Y-67165300D01*
X129540000Y-67165300D02*
X129258700Y-67165300D01*
X129258700Y-67165300D02*
X123045300Y-73378700D01*
X123045300Y-73378700D02*
X123045300Y-82272800D01*
X123045300Y-82272800D02*
X122623400Y-82694700D01*
X122623400Y-82694700D02*
X121920000Y-82694700D01*
%TO.N,X0*%
X129540000Y-86360000D02*
X129540000Y-85234700D01*
X129540000Y-63500000D02*
X129540000Y-64625300D01*
X129540000Y-64625300D02*
X129821300Y-64625300D01*
X129821300Y-64625300D02*
X130680000Y-65484000D01*
X130680000Y-65484000D02*
X130680000Y-76699900D01*
X130680000Y-76699900D02*
X128414700Y-78965200D01*
X128414700Y-78965200D02*
X128414700Y-84390800D01*
X128414700Y-84390800D02*
X129258600Y-85234700D01*
X129258600Y-85234700D02*
X129540000Y-85234700D01*
%TO.N,D4*%
X106680000Y-87485300D02*
X106398700Y-87485300D01*
X106398700Y-87485300D02*
X105513100Y-88370900D01*
X105513100Y-88370900D02*
X105513100Y-91942100D01*
X105513100Y-91942100D02*
X106281000Y-92710000D01*
X106281000Y-92710000D02*
X107007500Y-92710000D01*
X107007500Y-92710000D02*
X111357300Y-97059800D01*
X111357300Y-97059800D02*
X111357300Y-99383000D01*
X111357300Y-99383000D02*
X119707000Y-107732700D01*
X106680000Y-86360000D02*
X106680000Y-87485300D01*
X193134100Y-108049600D02*
X191852500Y-109331200D01*
X191852500Y-109331200D02*
X191852500Y-114912800D01*
X191852500Y-114912800D02*
X193040000Y-116100300D01*
X193040000Y-116100300D02*
X193040000Y-121920000D01*
%TO.N,D5*%
X198120000Y-129540000D02*
X198120000Y-128414700D01*
X195580000Y-114300000D02*
X195580000Y-119384700D01*
X195580000Y-119384700D02*
X196994700Y-120799400D01*
X196994700Y-120799400D02*
X196994700Y-127289400D01*
X196994700Y-127289400D02*
X198120000Y-128414700D01*
%TO.N,D6*%
X187960000Y-129540000D02*
X187960000Y-128414700D01*
X183914200Y-108013000D02*
X183809700Y-108117500D01*
X183809700Y-108117500D02*
X183809700Y-115586000D01*
X183809700Y-115586000D02*
X189085300Y-120861600D01*
X189085300Y-120861600D02*
X189085300Y-127289400D01*
X189085300Y-127289400D02*
X187960000Y-128414700D01*
%TO.N,D7*%
X114300000Y-90025300D02*
X114581400Y-90025300D01*
X114581400Y-90025300D02*
X115425300Y-90869200D01*
X115425300Y-90869200D02*
X115425300Y-102364600D01*
X115425300Y-102364600D02*
X128820100Y-115759400D01*
X114300000Y-88900000D02*
X114300000Y-90025300D01*
X193040000Y-129540000D02*
X193040000Y-128414700D01*
X187960000Y-114300000D02*
X187960000Y-115425300D01*
X187960000Y-115425300D02*
X191914700Y-119380000D01*
X191914700Y-119380000D02*
X191914700Y-127289400D01*
X191914700Y-127289400D02*
X193040000Y-128414700D01*
%TO.N,X7*%
X114300000Y-72245300D02*
X114018700Y-72245300D01*
X114018700Y-72245300D02*
X112724400Y-73539600D01*
X112724400Y-73539600D02*
X112724400Y-83940400D01*
X112724400Y-83940400D02*
X114018700Y-85234700D01*
X114018700Y-85234700D02*
X114300000Y-85234700D01*
X114300000Y-86360000D02*
X114300000Y-85234700D01*
X114300000Y-71120000D02*
X114300000Y-72245300D01*
%TO.N,X6*%
X114300000Y-69705300D02*
X114018700Y-69705300D01*
X114018700Y-69705300D02*
X112235300Y-71488700D01*
X112235300Y-71488700D02*
X112235300Y-91071300D01*
X112235300Y-91071300D02*
X114018700Y-92854700D01*
X114018700Y-92854700D02*
X114300000Y-92854700D01*
X114300000Y-93980000D02*
X114300000Y-92854700D01*
X114300000Y-68580000D02*
X114300000Y-69705300D01*
%TO.N,X5*%
X114300000Y-67165300D02*
X114018700Y-67165300D01*
X114018700Y-67165300D02*
X111373500Y-69810500D01*
X111373500Y-69810500D02*
X111373500Y-85902500D01*
X111373500Y-85902500D02*
X106961300Y-90314700D01*
X106961300Y-90314700D02*
X106680000Y-90314700D01*
X114300000Y-66040000D02*
X114300000Y-67165300D01*
X106680000Y-91440000D02*
X106680000Y-90314700D01*
%TO.N,X4*%
X106680000Y-82694700D02*
X107383400Y-82694700D01*
X107383400Y-82694700D02*
X108400400Y-81677700D01*
X108400400Y-81677700D02*
X108400400Y-70243600D01*
X108400400Y-70243600D02*
X114018700Y-64625300D01*
X114018700Y-64625300D02*
X114300000Y-64625300D01*
X106680000Y-83820000D02*
X106680000Y-82694700D01*
X114300000Y-63500000D02*
X114300000Y-64625300D01*
%TO.N,/PRG/PC3*%
X228600000Y-83820000D02*
X229725300Y-83820000D01*
X236220000Y-71120000D02*
X236220000Y-72245300D01*
X236220000Y-72245300D02*
X235938700Y-72245300D01*
X235938700Y-72245300D02*
X232410000Y-75774000D01*
X232410000Y-75774000D02*
X232410000Y-84141800D01*
X232410000Y-84141800D02*
X231606500Y-84945300D01*
X231606500Y-84945300D02*
X230569200Y-84945300D01*
X230569200Y-84945300D02*
X229725300Y-84101400D01*
X229725300Y-84101400D02*
X229725300Y-83820000D01*
%TO.N,/PRG/PC2*%
X236220000Y-68580000D02*
X236220000Y-69705300D01*
X236220000Y-69705300D02*
X235938700Y-69705300D01*
X235938700Y-69705300D02*
X231140000Y-74504000D01*
X231140000Y-74504000D02*
X231140000Y-83820000D01*
%TO.N,/PRG/PC1*%
X233680000Y-83820000D02*
X233680000Y-82694700D01*
X236220000Y-66040000D02*
X236220000Y-67165300D01*
X236220000Y-67165300D02*
X236501300Y-67165300D01*
X236501300Y-67165300D02*
X237360900Y-68024900D01*
X237360900Y-68024900D02*
X237360900Y-79013800D01*
X237360900Y-79013800D02*
X233680000Y-82694700D01*
%TO.N,/PRG/PC0*%
X236220000Y-83820000D02*
X236220000Y-82694700D01*
X236220000Y-63500000D02*
X236220000Y-64625300D01*
X236220000Y-64625300D02*
X236501300Y-64625300D01*
X236501300Y-64625300D02*
X237817700Y-65941700D01*
X237817700Y-65941700D02*
X237817700Y-81097000D01*
X237817700Y-81097000D02*
X236220000Y-82694700D01*
%TO.N,/PRG/PC7*%
X218440000Y-83820000D02*
X218440000Y-82694700D01*
X218440000Y-82694700D02*
X219009800Y-82124900D01*
X219009800Y-82124900D02*
X219009800Y-76474200D01*
X219009800Y-76474200D02*
X223238700Y-72245300D01*
X223238700Y-72245300D02*
X223520000Y-72245300D01*
X223520000Y-71120000D02*
X223520000Y-72245300D01*
%TO.N,/PRG/PC6*%
X220980000Y-83820000D02*
X220980000Y-82694700D01*
X223520000Y-68580000D02*
X223520000Y-69705300D01*
X223520000Y-69705300D02*
X223801300Y-69705300D01*
X223801300Y-69705300D02*
X224682000Y-70586000D01*
X224682000Y-70586000D02*
X224682000Y-78992700D01*
X224682000Y-78992700D02*
X220980000Y-82694700D01*
%TO.N,/PRG/PC5*%
X223520000Y-82694700D02*
X225132500Y-81082200D01*
X225132500Y-81082200D02*
X225132500Y-68496400D01*
X225132500Y-68496400D02*
X223801400Y-67165300D01*
X223801400Y-67165300D02*
X223520000Y-67165300D01*
X223520000Y-83820000D02*
X223520000Y-82694700D01*
X223520000Y-66040000D02*
X223520000Y-67165300D01*
%TO.N,/PRG/PC4*%
X223520000Y-63500000D02*
X223520000Y-64625300D01*
X223520000Y-64625300D02*
X223801300Y-64625300D01*
X223801300Y-64625300D02*
X226060000Y-66884000D01*
X226060000Y-66884000D02*
X226060000Y-83820000D01*
%TO.N,ALU4*%
X76200000Y-116840000D02*
X76200000Y-115714700D01*
X76200000Y-115714700D02*
X76481300Y-115714700D01*
X76481300Y-115714700D02*
X82450100Y-109745900D01*
X82450100Y-109745900D02*
X82450100Y-92848400D01*
X82450100Y-92848400D02*
X102784800Y-72513700D01*
X102784800Y-72513700D02*
X102784800Y-68915900D01*
X175260000Y-62374700D02*
X174877900Y-62374700D01*
X174877900Y-62374700D02*
X171762200Y-59259000D01*
X171762200Y-59259000D02*
X171762200Y-59071700D01*
X123045400Y-51071800D02*
X123045400Y-64485400D01*
X123045400Y-64485400D02*
X122905500Y-64625300D01*
X119380000Y-34145300D02*
X123045400Y-37810700D01*
X123045400Y-37810700D02*
X123045400Y-51071800D01*
X175260000Y-63500000D02*
X175260000Y-62374700D01*
X119380000Y-33020000D02*
X119380000Y-34145300D01*
%TO.N,ALU5*%
X87542400Y-118211500D02*
X87542400Y-91187400D01*
X87542400Y-91187400D02*
X104346800Y-74383000D01*
X175260000Y-64914700D02*
X174978700Y-64914700D01*
X174978700Y-64914700D02*
X170229600Y-60165600D01*
X170229600Y-60165600D02*
X170229600Y-58027700D01*
X116840000Y-34145300D02*
X117965300Y-35270600D01*
X117965300Y-35270600D02*
X117965300Y-48170400D01*
X117965300Y-48170400D02*
X119564000Y-49769100D01*
X115387100Y-53528000D02*
X108475400Y-60439700D01*
X108475400Y-60439700D02*
X108475400Y-66602600D01*
X116840000Y-33020000D02*
X116840000Y-34145300D01*
X175260000Y-66040000D02*
X175260000Y-64914700D01*
%TO.N,ALU6*%
X104654100Y-54302800D02*
X104654100Y-59383600D01*
X104654100Y-59383600D02*
X104483200Y-59554500D01*
X104483200Y-59554500D02*
X104483200Y-62250500D01*
X104483200Y-62250500D02*
X104630400Y-62397700D01*
X104630400Y-62397700D02*
X104630400Y-64545400D01*
X104630400Y-64545400D02*
X104439100Y-64736700D01*
X104439100Y-64736700D02*
X104439100Y-67709800D01*
X104439100Y-67709800D02*
X106427400Y-69698100D01*
X106427400Y-69698100D02*
X106496000Y-69698100D01*
X106496000Y-69698100D02*
X106503100Y-69705200D01*
X106503100Y-69705200D02*
X106503100Y-69705300D01*
X109220000Y-34145300D02*
X105329600Y-38035700D01*
X105329600Y-38035700D02*
X105329600Y-53627300D01*
X105329600Y-53627300D02*
X104654100Y-54302800D01*
X106503100Y-69705300D02*
X106680000Y-69705300D01*
X83151000Y-96969200D02*
X83151000Y-93057400D01*
X83151000Y-93057400D02*
X106503100Y-69705300D01*
X106680000Y-68580000D02*
X106680000Y-69705300D01*
X76200000Y-109220000D02*
X76200000Y-106785400D01*
X76200000Y-106785400D02*
X78651600Y-104333800D01*
X78651600Y-104333800D02*
X78651600Y-103983100D01*
X175260000Y-72534700D02*
X174978700Y-72534700D01*
X174978700Y-72534700D02*
X169429100Y-66985100D01*
X169429100Y-66985100D02*
X169429100Y-58149000D01*
X175260000Y-73660000D02*
X175260000Y-72534700D01*
X109220000Y-33020000D02*
X109220000Y-34145300D01*
%TO.N,ALU7*%
X106680000Y-33020000D02*
X107805300Y-33020000D01*
X106680000Y-71682600D02*
X107846500Y-70516100D01*
X107846500Y-70516100D02*
X107846500Y-39618100D01*
X107846500Y-39618100D02*
X110384300Y-37080300D01*
X110384300Y-37080300D02*
X110384300Y-32545200D01*
X110384300Y-32545200D02*
X109733800Y-31894700D01*
X109733800Y-31894700D02*
X108649200Y-31894700D01*
X108649200Y-31894700D02*
X107805300Y-32738600D01*
X107805300Y-32738600D02*
X107805300Y-33020000D01*
X106680000Y-71682600D02*
X106680000Y-72245300D01*
X106680000Y-71120000D02*
X106680000Y-71682600D01*
X83820000Y-108094700D02*
X83820000Y-93980000D01*
X83820000Y-93980000D02*
X105554700Y-72245300D01*
X105554700Y-72245300D02*
X106680000Y-72245300D01*
X83820000Y-109220000D02*
X83820000Y-108094700D01*
X175260000Y-76200000D02*
X174134700Y-76200000D01*
X174134700Y-76200000D02*
X174134700Y-76405200D01*
X174134700Y-76405200D02*
X168946000Y-81593900D01*
%TO.N,Net-(U17-Pad7)*%
X71120000Y-163974700D02*
X71401300Y-163974700D01*
X71401300Y-163974700D02*
X75387500Y-159988500D01*
X75387500Y-159988500D02*
X75387500Y-147587200D01*
X75387500Y-147587200D02*
X75837800Y-147136900D01*
X75837800Y-147136900D02*
X75837800Y-120867500D01*
X75837800Y-120867500D02*
X78740000Y-117965300D01*
X78740000Y-116840000D02*
X78740000Y-117965300D01*
X71120000Y-165100000D02*
X71120000Y-163974700D01*
%TO.N,Net-(U17-Pad9)*%
X78740000Y-167640000D02*
X78740000Y-166514700D01*
X78740000Y-166514700D02*
X78458700Y-166514700D01*
X78458700Y-166514700D02*
X76184500Y-164240500D01*
X76184500Y-164240500D02*
X76184500Y-148648000D01*
X76184500Y-148648000D02*
X76838500Y-147994000D01*
X76838500Y-147994000D02*
X76838500Y-124683300D01*
X76838500Y-124683300D02*
X81280000Y-120241800D01*
X81280000Y-120241800D02*
X81280000Y-116840000D01*
%TO.N,Net-(U18-Pad9)*%
X74213200Y-139388500D02*
X74847200Y-138754500D01*
X74847200Y-138754500D02*
X74847200Y-119384700D01*
X74847200Y-119384700D02*
X73660000Y-118197500D01*
X73660000Y-118197500D02*
X73660000Y-116840000D01*
%TO.N,~OE*%
X170264400Y-97989800D02*
X174261100Y-101986500D01*
X174261100Y-101986500D02*
X174261100Y-113367500D01*
X174261100Y-113367500D02*
X186071500Y-125177900D01*
X186071500Y-125177900D02*
X186071500Y-126819500D01*
%TO.N,IR0*%
X219403300Y-124664100D02*
X218440000Y-125627400D01*
X218440000Y-125627400D02*
X218440000Y-129540000D01*
%TO.N,IR1*%
X236220000Y-106680000D02*
X236220000Y-112499800D01*
X236220000Y-112499800D02*
X234950000Y-113769800D01*
X234950000Y-113769800D02*
X234950000Y-114701100D01*
X234950000Y-114701100D02*
X229652200Y-119998900D01*
X229652200Y-119998900D02*
X221300300Y-119998900D01*
X221300300Y-119998900D02*
X219850900Y-121448300D01*
X219850900Y-121448300D02*
X219850900Y-122553100D01*
X219850900Y-122553100D02*
X220980000Y-123682200D01*
X220980000Y-123682200D02*
X220980000Y-129540000D01*
%TO.N,~DE*%
X185420000Y-129540000D02*
X185420000Y-128414700D01*
X185420000Y-128414700D02*
X187960000Y-125874700D01*
X187960000Y-125874700D02*
X187960000Y-121920000D01*
%TO.N,~IE*%
X231140000Y-129540000D02*
X231140000Y-128414700D01*
X238760000Y-41910000D02*
X238760000Y-43035300D01*
X238760000Y-43035300D02*
X239885400Y-44160700D01*
X239885400Y-44160700D02*
X239885400Y-119669300D01*
X239885400Y-119669300D02*
X231140000Y-128414700D01*
%TO.N,L*%
X99060000Y-139700000D02*
X97934700Y-139700000D01*
X83581900Y-132859800D02*
X91094500Y-132859800D01*
X91094500Y-132859800D02*
X97934700Y-139700000D01*
X40640000Y-58420000D02*
X40640000Y-59545300D01*
X48260000Y-68580000D02*
X41765300Y-62085300D01*
X41765300Y-62085300D02*
X41765300Y-60389200D01*
X41765300Y-60389200D02*
X40921400Y-59545300D01*
X40921400Y-59545300D02*
X40640000Y-59545300D01*
X48260000Y-99060000D02*
X48260000Y-100185300D01*
X40640000Y-83820000D02*
X40640000Y-82694700D01*
X40640000Y-82694700D02*
X40655800Y-82678900D01*
X40655800Y-82678900D02*
X40655800Y-81016100D01*
X40655800Y-81016100D02*
X47046300Y-74625600D01*
X47046300Y-74625600D02*
X48260000Y-74625600D01*
X236220000Y-100185300D02*
X237345300Y-101310600D01*
X237345300Y-101310600D02*
X237345300Y-120330000D01*
X237345300Y-120330000D02*
X229725400Y-127949900D01*
X229725400Y-127949900D02*
X229725400Y-145295600D01*
X229725400Y-145295600D02*
X229115700Y-145905300D01*
X229115700Y-145905300D02*
X225339100Y-145905300D01*
X186545300Y-167640000D02*
X186545300Y-167859400D01*
X186545300Y-167859400D02*
X187504400Y-168818500D01*
X187504400Y-168818500D02*
X196763700Y-168818500D01*
X196763700Y-168818500D02*
X220979900Y-144602300D01*
X220979900Y-144602300D02*
X220979900Y-144217300D01*
X220979900Y-144217300D02*
X220980000Y-144217300D01*
X236220000Y-99060000D02*
X236220000Y-100185300D01*
X137160000Y-59545300D02*
X136878700Y-59545300D01*
X136878700Y-59545300D02*
X134683800Y-61740200D01*
X134683800Y-61740200D02*
X134683800Y-77832200D01*
X134683800Y-77832200D02*
X129821300Y-82694700D01*
X129821300Y-82694700D02*
X129540000Y-82694700D01*
X124460000Y-167640000D02*
X123334700Y-167640000D01*
X106680000Y-142240000D02*
X108437600Y-142240000D01*
X108437600Y-142240000D02*
X113074600Y-146877000D01*
X113074600Y-146877000D02*
X113074600Y-154894600D01*
X113074600Y-154894600D02*
X115517100Y-157337100D01*
X115517100Y-157337100D02*
X115517100Y-168459000D01*
X115517100Y-168459000D02*
X115823400Y-168765300D01*
X115823400Y-168765300D02*
X122490800Y-168765300D01*
X122490800Y-168765300D02*
X123334700Y-167921400D01*
X123334700Y-167921400D02*
X123334700Y-167640000D01*
X71120000Y-68580000D02*
X72245300Y-68580000D01*
X72245300Y-68580000D02*
X72245300Y-68298700D01*
X72245300Y-68298700D02*
X78458700Y-62085300D01*
X78458700Y-62085300D02*
X78740000Y-62085300D01*
X71120000Y-68580000D02*
X71120000Y-71120000D01*
X78740000Y-60960000D02*
X78740000Y-62085300D01*
X48260000Y-134620000D02*
X48260000Y-133494700D01*
X48260000Y-139700000D02*
X49385300Y-138574700D01*
X49385300Y-138574700D02*
X49385300Y-136677800D01*
X49385300Y-136677800D02*
X48452800Y-135745300D01*
X48452800Y-135745300D02*
X48260000Y-135745300D01*
X46616300Y-124410900D02*
X46616300Y-132132300D01*
X46616300Y-132132300D02*
X47978700Y-133494700D01*
X47978700Y-133494700D02*
X48260000Y-133494700D01*
X48260000Y-100185300D02*
X48541300Y-100185300D01*
X48541300Y-100185300D02*
X51942700Y-103586700D01*
X51942700Y-103586700D02*
X51942700Y-109950200D01*
X51942700Y-109950200D02*
X46877400Y-115015500D01*
X46877400Y-115015500D02*
X46877400Y-124149800D01*
X46877400Y-124149800D02*
X46616300Y-124410900D01*
X74306700Y-152400000D02*
X74306700Y-155952100D01*
X74306700Y-155952100D02*
X74306600Y-155952100D01*
X74306600Y-155952100D02*
X71364100Y-158894600D01*
X71364100Y-158894600D02*
X71364100Y-158894700D01*
X71364100Y-158894700D02*
X71120000Y-158894700D01*
X157480000Y-88900000D02*
X157480000Y-87774700D01*
X157480000Y-87774700D02*
X156633700Y-87774700D01*
X156633700Y-87774700D02*
X156033600Y-87174600D01*
X220980000Y-143654700D02*
X217025300Y-139700000D01*
X217025300Y-139700000D02*
X217025300Y-131790600D01*
X217025300Y-131790600D02*
X215900000Y-130665300D01*
X185420000Y-167640000D02*
X186545300Y-167640000D01*
X220980000Y-144217300D02*
X220980000Y-143654700D01*
X220980000Y-144780000D02*
X220980000Y-144217300D01*
X48260000Y-134620000D02*
X48260000Y-135078200D01*
X48260000Y-135182600D02*
X48260000Y-135745300D01*
X48260000Y-135182600D02*
X48260000Y-135078200D01*
X48260000Y-93980000D02*
X47062600Y-92782600D01*
X47062600Y-92782600D02*
X47062600Y-79568000D01*
X47062600Y-79568000D02*
X49412200Y-77218400D01*
X49412200Y-77218400D02*
X49412200Y-75689000D01*
X49412200Y-75689000D02*
X48348800Y-74625600D01*
X48348800Y-74625600D02*
X48260000Y-74625600D01*
X48260000Y-73660000D02*
X48260000Y-74625600D01*
X215900000Y-129540000D02*
X215900000Y-130665300D01*
X129540000Y-83820000D02*
X129540000Y-82694700D01*
X137160000Y-58420000D02*
X137160000Y-59545300D01*
X48260000Y-160020000D02*
X48260000Y-161145300D01*
X48260000Y-165100000D02*
X48260000Y-163974700D01*
X48260000Y-163974700D02*
X48022900Y-163974700D01*
X48022900Y-163974700D02*
X47134700Y-163086500D01*
X47134700Y-163086500D02*
X47134700Y-161989200D01*
X47134700Y-161989200D02*
X47978600Y-161145300D01*
X47978600Y-161145300D02*
X48260000Y-161145300D01*
X71120000Y-93980000D02*
X71120000Y-96520000D01*
X71120000Y-137160000D02*
X71120000Y-138285300D01*
X71120000Y-138285300D02*
X71401400Y-138285300D01*
X71401400Y-138285300D02*
X72245300Y-139129200D01*
X72245300Y-139129200D02*
X72245300Y-150338600D01*
X72245300Y-150338600D02*
X74306700Y-152400000D01*
X71120000Y-134620000D02*
X71120000Y-137160000D01*
X71120000Y-160020000D02*
X71120000Y-158894700D01*
X71120000Y-160020000D02*
X71120000Y-162560000D01*
%TO.N,H*%
X129540000Y-167640000D02*
X128414700Y-167640000D01*
X96430100Y-164740800D02*
X100908100Y-169218800D01*
X100908100Y-169218800D02*
X127117200Y-169218800D01*
X127117200Y-169218800D02*
X128414700Y-167921300D01*
X128414700Y-167921300D02*
X128414700Y-167640000D01*
X106680000Y-58420000D02*
X106680000Y-59545300D01*
X106680000Y-59545300D02*
X106398600Y-59545300D01*
X106398600Y-59545300D02*
X105554700Y-60389200D01*
X105554700Y-60389200D02*
X105554700Y-61695400D01*
X105554700Y-61695400D02*
X105568000Y-61708700D01*
X48840900Y-95394700D02*
X48260000Y-95394700D01*
X48260000Y-130954700D02*
X47978600Y-130954700D01*
X47978600Y-130954700D02*
X47134700Y-130110800D01*
X47134700Y-130110800D02*
X47134700Y-126508800D01*
X47134700Y-126508800D02*
X47913500Y-125730000D01*
X47913500Y-125730000D02*
X48649500Y-125730000D01*
X48649500Y-125730000D02*
X49385300Y-124994200D01*
X49385300Y-124994200D02*
X49385300Y-114278000D01*
X49385300Y-114278000D02*
X53157300Y-110506000D01*
X53157300Y-110506000D02*
X53157300Y-99711100D01*
X53157300Y-99711100D02*
X48840900Y-95394700D01*
X48840900Y-95394700D02*
X49385300Y-94850300D01*
X49385300Y-94850300D02*
X49385300Y-93409200D01*
X49385300Y-93409200D02*
X48541400Y-92565300D01*
X48541400Y-92565300D02*
X48260000Y-92565300D01*
X48260000Y-91440000D02*
X48260000Y-90314700D01*
X48260000Y-71120000D02*
X48260000Y-72245300D01*
X48260000Y-72245300D02*
X48541300Y-72245300D01*
X48541300Y-72245300D02*
X49894300Y-73598300D01*
X49894300Y-73598300D02*
X49894300Y-88961700D01*
X49894300Y-88961700D02*
X48541300Y-90314700D01*
X48541300Y-90314700D02*
X48260000Y-90314700D01*
X231140000Y-136034700D02*
X240592900Y-126581800D01*
X240592900Y-126581800D02*
X240592900Y-74785300D01*
X190500000Y-83820000D02*
X190500000Y-78897300D01*
X190500000Y-78897300D02*
X190363800Y-78761100D01*
X185420000Y-113174700D02*
X186545300Y-112049400D01*
X186545300Y-112049400D02*
X186545300Y-105734900D01*
X186545300Y-105734900D02*
X186545200Y-105734900D01*
X186545200Y-105734900D02*
X186164500Y-105354200D01*
X186164500Y-105354200D02*
X186164500Y-104836200D01*
X186164500Y-104836200D02*
X189085400Y-101915300D01*
X189085400Y-101915300D02*
X189085400Y-98674400D01*
X189085400Y-98674400D02*
X190500000Y-97259800D01*
X190500000Y-97259800D02*
X190500000Y-83820000D01*
X145905300Y-68225000D02*
X145905300Y-68009200D01*
X145905300Y-68009200D02*
X145061400Y-67165300D01*
X145061400Y-67165300D02*
X144780000Y-67165300D01*
X144780000Y-72534700D02*
X145061300Y-72534700D01*
X145061300Y-72534700D02*
X145905300Y-71690700D01*
X145905300Y-71690700D02*
X145905300Y-68225000D01*
X145905300Y-68225000D02*
X151274700Y-68225000D01*
X151274700Y-68225000D02*
X151274700Y-69150800D01*
X151274700Y-69150800D02*
X152118600Y-69994700D01*
X152118600Y-69994700D02*
X152400000Y-69994700D01*
X152400000Y-64448200D02*
X151274700Y-65573500D01*
X151274700Y-65573500D02*
X151274700Y-68225000D01*
X152400000Y-71120000D02*
X152400000Y-69994700D01*
X160020000Y-67094500D02*
X155046300Y-67094500D01*
X155046300Y-67094500D02*
X152400000Y-64448200D01*
X152400000Y-63500000D02*
X152400000Y-64448200D01*
X144780000Y-66040000D02*
X144780000Y-67165300D01*
X144780000Y-73660000D02*
X144780000Y-72534700D01*
X137160000Y-63500000D02*
X137160000Y-64625300D01*
X137160000Y-71120000D02*
X137160000Y-69994700D01*
X137160000Y-69994700D02*
X136878700Y-69994700D01*
X136878700Y-69994700D02*
X136034700Y-69150700D01*
X136034700Y-69150700D02*
X136034700Y-65469200D01*
X136034700Y-65469200D02*
X136878600Y-64625300D01*
X136878600Y-64625300D02*
X137160000Y-64625300D01*
X121920000Y-58420000D02*
X121920000Y-57294700D01*
X121920000Y-57294700D02*
X121920100Y-57294700D01*
X121920100Y-57294700D02*
X121920100Y-55370700D01*
X48260000Y-132080000D02*
X48260000Y-130954700D01*
X48260000Y-132080000D02*
X49835700Y-133655700D01*
X49835700Y-133655700D02*
X49835700Y-139744300D01*
X49835700Y-139744300D02*
X48698600Y-140881400D01*
X48698600Y-140881400D02*
X47134700Y-140881400D01*
X48260000Y-157480000D02*
X48260000Y-156354700D01*
X47134700Y-140881400D02*
X47134700Y-139129200D01*
X47134700Y-139129200D02*
X47978600Y-138285300D01*
X47978600Y-138285300D02*
X48260000Y-138285300D01*
X48260000Y-156354700D02*
X47978600Y-156354700D01*
X47978600Y-156354700D02*
X47134700Y-155510800D01*
X47134700Y-155510800D02*
X47134700Y-140881400D01*
X48260000Y-137160000D02*
X48260000Y-138285300D01*
X160020000Y-73097300D02*
X160020000Y-73660000D01*
X160020000Y-73097300D02*
X160020000Y-72534700D01*
X160020000Y-67094500D02*
X160146800Y-67094500D01*
X160146800Y-67094500D02*
X161158700Y-68106400D01*
X161158700Y-68106400D02*
X161158700Y-71637200D01*
X161158700Y-71637200D02*
X160261200Y-72534700D01*
X160261200Y-72534700D02*
X160020000Y-72534700D01*
X160020000Y-66040000D02*
X160020000Y-67094500D01*
X71120000Y-66040000D02*
X71120000Y-63500000D01*
X231140000Y-137160000D02*
X231140000Y-136034700D01*
X215900000Y-114300000D02*
X215900000Y-115425300D01*
X215900000Y-115425300D02*
X217025300Y-116550600D01*
X217025300Y-116550600D02*
X217025300Y-130215000D01*
X217025300Y-130215000D02*
X218440000Y-131629700D01*
X218440000Y-131629700D02*
X218440000Y-137160000D01*
X246380000Y-41910000D02*
X246380000Y-47590300D01*
X246380000Y-47590300D02*
X247569500Y-48779800D01*
X247569500Y-48779800D02*
X247569500Y-67808700D01*
X247569500Y-67808700D02*
X240592900Y-74785300D01*
X48260000Y-96520000D02*
X48260000Y-95394700D01*
X185420000Y-114300000D02*
X185420000Y-113174700D01*
X48260000Y-91440000D02*
X48260000Y-92565300D01*
X71120000Y-88900000D02*
X71120000Y-91440000D01*
X71120000Y-129540000D02*
X71120000Y-132080000D01*
X71120000Y-154940000D02*
X71120000Y-157480000D01*
X55880000Y-58420000D02*
X55880000Y-47625000D01*
X55880000Y-47625000D02*
X52705000Y-44450000D01*
%TO.N,IR2*%
X228600000Y-144780000D02*
X228600000Y-143654700D01*
X223520000Y-121920000D02*
X223520000Y-123045300D01*
X223520000Y-123045300D02*
X227474700Y-127000000D01*
X227474700Y-127000000D02*
X227474700Y-142529400D01*
X227474700Y-142529400D02*
X228600000Y-143654700D01*
%TO.N,IR3*%
X225511500Y-144780000D02*
X222105300Y-141373800D01*
X222105300Y-141373800D02*
X222105300Y-124170600D01*
X222105300Y-124170600D02*
X220980000Y-123045300D01*
X220980000Y-121920000D02*
X220980000Y-123045300D01*
X225511500Y-144780000D02*
X224934700Y-144780000D01*
X226060000Y-144780000D02*
X225511500Y-144780000D01*
X178925300Y-167640000D02*
X178925300Y-167921300D01*
X178925300Y-167921300D02*
X180723100Y-169719100D01*
X180723100Y-169719100D02*
X200276900Y-169719100D01*
X200276900Y-169719100D02*
X224934700Y-145061300D01*
X224934700Y-145061300D02*
X224934700Y-144780000D01*
X177800000Y-167640000D02*
X178925300Y-167640000D01*
%TO.N,IR4*%
X218440000Y-123045300D02*
X218722600Y-123045300D01*
X218722600Y-123045300D02*
X220028600Y-124351300D01*
X220028600Y-124351300D02*
X220028600Y-124923200D01*
X220028600Y-124923200D02*
X219801200Y-125150600D01*
X219801200Y-125150600D02*
X219801200Y-141196500D01*
X219801200Y-141196500D02*
X222394700Y-143790000D01*
X222394700Y-143790000D02*
X222394700Y-144780000D01*
X181465300Y-167640000D02*
X181465300Y-167921300D01*
X181465300Y-167921300D02*
X182812800Y-169268800D01*
X182812800Y-169268800D02*
X198122300Y-169268800D01*
X198122300Y-169268800D02*
X222394700Y-144996400D01*
X222394700Y-144996400D02*
X222394700Y-144780000D01*
X218440000Y-121920000D02*
X218440000Y-123045300D01*
X223520000Y-144780000D02*
X222394700Y-144780000D01*
X180340000Y-167640000D02*
X181465300Y-167640000D01*
%TO.N,~PL*%
X187960000Y-73660000D02*
X185098500Y-73660000D01*
X185098500Y-73660000D02*
X176937100Y-81821400D01*
X176937100Y-81821400D02*
X176937100Y-96837500D01*
X176937100Y-96837500D02*
X181465400Y-101365800D01*
X181465400Y-101365800D02*
X181465400Y-116919500D01*
X181465400Y-116919500D02*
X184648800Y-120102900D01*
X166370000Y-121920000D02*
X166370000Y-123145300D01*
X166370000Y-123145300D02*
X168910000Y-125685300D01*
X168910000Y-125685300D02*
X168910000Y-125730000D01*
%TO.N,~PH*%
X195580000Y-76200000D02*
X195580000Y-77325300D01*
X158750000Y-121920000D02*
X158750000Y-120694700D01*
X158948600Y-107539300D02*
X158948600Y-120496100D01*
X158948600Y-120496100D02*
X158750000Y-120694700D01*
X195580000Y-77325300D02*
X191770000Y-81135300D01*
X191770000Y-81135300D02*
X191770000Y-100115000D01*
X191770000Y-100115000D02*
X186789800Y-105095200D01*
%TO.N,/PRG/PC11*%
X205740000Y-82694700D02*
X205740000Y-74581000D01*
X205740000Y-74581000D02*
X208075700Y-72245300D01*
X208075700Y-72245300D02*
X208280000Y-72245300D01*
X205740000Y-83820000D02*
X205740000Y-82694700D01*
X208280000Y-71120000D02*
X208280000Y-72245300D01*
%TO.N,/PRG/PC10*%
X208280000Y-83820000D02*
X208280000Y-82694700D01*
X208280000Y-68580000D02*
X208280000Y-69705300D01*
X208280000Y-69705300D02*
X208561300Y-69705300D01*
X208561300Y-69705300D02*
X209405300Y-70549300D01*
X209405300Y-70549300D02*
X209405300Y-81569400D01*
X209405300Y-81569400D02*
X208280000Y-82694700D01*
%TO.N,/PRG/PC9*%
X210820000Y-83820000D02*
X210820000Y-82694700D01*
X210820000Y-82694700D02*
X210820000Y-69505200D01*
X210820000Y-69505200D02*
X208480100Y-67165300D01*
X208480100Y-67165300D02*
X208280000Y-67165300D01*
X208280000Y-66040000D02*
X208280000Y-67165300D01*
%TO.N,/PRG/PC8*%
X208280000Y-64625300D02*
X208671300Y-64625300D01*
X208671300Y-64625300D02*
X213430700Y-69384700D01*
X213430700Y-69384700D02*
X213430700Y-72786100D01*
X213430700Y-72786100D02*
X215574600Y-74930000D01*
X215574600Y-74930000D02*
X216253800Y-74930000D01*
X216253800Y-74930000D02*
X217025300Y-75701500D01*
X217025300Y-75701500D02*
X217025300Y-76742400D01*
X217025300Y-76742400D02*
X216758500Y-77009200D01*
X216758500Y-77009200D02*
X216758500Y-81836200D01*
X216758500Y-81836200D02*
X215900000Y-82694700D01*
X215900000Y-83820000D02*
X215900000Y-82694700D01*
X208280000Y-63500000D02*
X208280000Y-64625300D01*
%TO.N,Y7*%
X186834700Y-71120000D02*
X186364700Y-71120000D01*
X186364700Y-71120000D02*
X178744700Y-78740000D01*
X178744700Y-78740000D02*
X175260000Y-78740000D01*
X187960000Y-71120000D02*
X186834700Y-71120000D01*
%TO.N,/PRG/PC15*%
X195580000Y-83820000D02*
X195580000Y-82694700D01*
X195580000Y-71120000D02*
X195580000Y-72245300D01*
X195580000Y-72245300D02*
X195861300Y-72245300D01*
X195861300Y-72245300D02*
X196705300Y-73089300D01*
X196705300Y-73089300D02*
X196705300Y-81569400D01*
X196705300Y-81569400D02*
X195580000Y-82694700D01*
%TO.N,/PRG/PC14*%
X195580000Y-69705300D02*
X195784500Y-69705300D01*
X195784500Y-69705300D02*
X198120000Y-72040800D01*
X198120000Y-72040800D02*
X198120000Y-83820000D01*
X195580000Y-68580000D02*
X195580000Y-69705300D01*
%TO.N,/PRG/PC13*%
X195580000Y-66040000D02*
X195580000Y-67165300D01*
X200660000Y-83820000D02*
X200660000Y-82694700D01*
X200660000Y-82694700D02*
X199084300Y-81119000D01*
X199084300Y-81119000D02*
X199084300Y-70388300D01*
X199084300Y-70388300D02*
X195861300Y-67165300D01*
X195861300Y-67165300D02*
X195580000Y-67165300D01*
%TO.N,/PRG/PC12*%
X195580000Y-64625300D02*
X195861300Y-64625300D01*
X195861300Y-64625300D02*
X199534700Y-68298700D01*
X199534700Y-68298700D02*
X199534700Y-79152000D01*
X199534700Y-79152000D02*
X203077400Y-82694700D01*
X203077400Y-82694700D02*
X203200000Y-82694700D01*
X203200000Y-83820000D02*
X203200000Y-82694700D01*
X195580000Y-63500000D02*
X195580000Y-64625300D01*
%TO.N,~WE*%
X139700000Y-88900000D02*
X139700000Y-90025300D01*
X139700000Y-129540000D02*
X139700000Y-124455300D01*
X139700000Y-124455300D02*
X138555500Y-123310800D01*
X138555500Y-123310800D02*
X138555500Y-116113600D01*
X138555500Y-116113600D02*
X140219200Y-114449900D01*
X140219200Y-114449900D02*
X140219200Y-107147700D01*
X140219200Y-107147700D02*
X138574700Y-105503200D01*
X138574700Y-105503200D02*
X138574700Y-91150600D01*
X138574700Y-91150600D02*
X139700000Y-90025300D01*
%TO.N,IR6*%
X208599100Y-111866100D02*
X207108100Y-113357100D01*
X207108100Y-113357100D02*
X207108100Y-117418600D01*
X207108100Y-117418600D02*
X209405400Y-119715900D01*
X209405400Y-119715900D02*
X209405400Y-125085100D01*
X209405400Y-125085100D02*
X207046400Y-127444100D01*
X207046400Y-127444100D02*
X207046400Y-131476800D01*
X207046400Y-131476800D02*
X191819800Y-146703400D01*
X191819800Y-146703400D02*
X191819800Y-155941200D01*
X191819800Y-155941200D02*
X188976500Y-158784500D01*
X188976500Y-158784500D02*
X187601900Y-158784500D01*
X187601900Y-158784500D02*
X186690000Y-159696400D01*
X186690000Y-159696400D02*
X186690000Y-160372100D01*
X186690000Y-160372100D02*
X180916700Y-166145400D01*
X180916700Y-166145400D02*
X172854100Y-166145400D01*
X172854100Y-166145400D02*
X169540500Y-169459000D01*
%TO.N,IR7*%
X214068900Y-117662200D02*
X210949000Y-120782100D01*
X210949000Y-120782100D02*
X210949000Y-131758800D01*
X210949000Y-131758800D02*
X213245400Y-134055200D01*
X213245400Y-134055200D02*
X213245400Y-135169400D01*
X213245400Y-135169400D02*
X207276200Y-141138600D01*
X207276200Y-141138600D02*
X201260800Y-141138600D01*
X201260800Y-141138600D02*
X192589600Y-149809800D01*
X192589600Y-149809800D02*
X192589600Y-156047000D01*
X192589600Y-156047000D02*
X189230000Y-159406600D01*
X189230000Y-159406600D02*
X189230000Y-160384700D01*
X189230000Y-160384700D02*
X186594000Y-163020700D01*
X186594000Y-163020700D02*
X184981400Y-163020700D01*
X146050000Y-163830000D02*
X147275300Y-163830000D01*
X147986900Y-161893100D02*
X147275300Y-162604700D01*
X147275300Y-162604700D02*
X147275300Y-163830000D01*
%TO.N,IR5*%
X130859700Y-119046200D02*
X119379800Y-130526100D01*
X119379800Y-130526100D02*
X119379800Y-151904800D01*
X119379800Y-151904800D02*
X120570600Y-153095600D01*
X120570600Y-153095600D02*
X120570600Y-162784100D01*
X120570600Y-162784100D02*
X116840000Y-166514700D01*
X116840000Y-167640000D02*
X116840000Y-166514700D01*
%TO.N,/CU/~J*%
X187960000Y-167640000D02*
X189085300Y-167640000D01*
X215900000Y-144780000D02*
X214774700Y-144780000D01*
X214774700Y-144780000D02*
X214774700Y-145624000D01*
X214774700Y-145624000D02*
X208489100Y-151909600D01*
X208489100Y-151909600D02*
X206811400Y-151909600D01*
X206811400Y-151909600D02*
X192206300Y-166514700D01*
X192206300Y-166514700D02*
X189929200Y-166514700D01*
X189929200Y-166514700D02*
X189085300Y-167358600D01*
X189085300Y-167358600D02*
X189085300Y-167640000D01*
X158750000Y-151130000D02*
X158750000Y-152355300D01*
X158750000Y-158750000D02*
X158750000Y-152355300D01*
X158750000Y-163830000D02*
X158750000Y-158750000D01*
X158750000Y-151130000D02*
X158750000Y-149904700D01*
X137160000Y-121920000D02*
X137160000Y-123045300D01*
X137160000Y-123045300D02*
X138285300Y-124170600D01*
X138285300Y-124170600D02*
X138285300Y-129746300D01*
X138285300Y-129746300D02*
X158443700Y-149904700D01*
X158443700Y-149904700D02*
X158750000Y-149904700D01*
%TO.N,Net-(D7-Pad2)*%
X55880000Y-68580000D02*
X55880000Y-67454700D01*
X40640000Y-45720000D02*
X40640000Y-48601500D01*
X40640000Y-48601500D02*
X54754700Y-62716200D01*
X54754700Y-62716200D02*
X54754700Y-66610800D01*
X54754700Y-66610800D02*
X55598600Y-67454700D01*
X55598600Y-67454700D02*
X55880000Y-67454700D01*
%TO.N,Net-(D6-Pad2)*%
X55880000Y-71120000D02*
X55880000Y-69994700D01*
X35560000Y-45720000D02*
X35560000Y-49882100D01*
X35560000Y-49882100D02*
X47907900Y-62230000D01*
X47907900Y-62230000D02*
X48646600Y-62230000D01*
X48646600Y-62230000D02*
X54754700Y-68338100D01*
X54754700Y-68338100D02*
X54754700Y-69150800D01*
X54754700Y-69150800D02*
X55598600Y-69994700D01*
X55598600Y-69994700D02*
X55880000Y-69994700D01*
%TO.N,Net-(D5-Pad2)*%
X55880000Y-77614700D02*
X55598600Y-77614700D01*
X55598600Y-77614700D02*
X51243300Y-73259400D01*
X51243300Y-73259400D02*
X51243300Y-69840900D01*
X51243300Y-69840900D02*
X48712400Y-67310000D01*
X48712400Y-67310000D02*
X47936800Y-67310000D01*
X47936800Y-67310000D02*
X46990100Y-66363300D01*
X46990100Y-66363300D02*
X46990100Y-62230100D01*
X46990100Y-62230100D02*
X30480000Y-45720000D01*
X55880000Y-78740000D02*
X55880000Y-77614700D01*
%TO.N,/CU/INV_C_OUT*%
X158750000Y-128314700D02*
X151199300Y-120764000D01*
X151199300Y-120764000D02*
X144332300Y-120764000D01*
X144332300Y-120764000D02*
X143579000Y-121517300D01*
X143579000Y-121517300D02*
X143579000Y-128118200D01*
X158750000Y-129540000D02*
X158750000Y-128314700D01*
%TO.N,EL*%
X175260000Y-147320000D02*
X175260000Y-134811400D01*
X175260000Y-134811400D02*
X163561500Y-123112900D01*
X163561500Y-123112900D02*
X163561500Y-118165700D01*
X163561500Y-118165700D02*
X160670300Y-115274500D01*
X160670300Y-115274500D02*
X160670300Y-112672800D01*
X139180500Y-112672800D02*
X138940800Y-112433100D01*
X138940800Y-112433100D02*
X138940800Y-110471600D01*
X138940800Y-110471600D02*
X125377000Y-96907800D01*
X125377000Y-96907800D02*
X125377000Y-81280000D01*
%TO.N,EH*%
X181610000Y-143510000D02*
X181610000Y-133501700D01*
X181610000Y-133501700D02*
X161344400Y-113236100D01*
X161344400Y-113236100D02*
X161344400Y-78602600D01*
X161344400Y-78602600D02*
X163974600Y-75972400D01*
X163974600Y-75972400D02*
X163974600Y-60960000D01*
%TO.N,/CU/INV_A_IN*%
X203200000Y-147320000D02*
X203200000Y-143510000D01*
X203200000Y-151130000D02*
X203200000Y-147320000D01*
%TO.N,AR3*%
X78740000Y-132642600D02*
X84978100Y-126404500D01*
X84978100Y-126404500D02*
X84978100Y-97036700D01*
X84978100Y-97036700D02*
X84812000Y-96870600D01*
X90736700Y-144639300D02*
X78740000Y-132642600D01*
X99060000Y-144780000D02*
X90877400Y-144780000D01*
X90877400Y-144780000D02*
X90736700Y-144639300D01*
X78740000Y-156354700D02*
X79021300Y-156354700D01*
X79021300Y-156354700D02*
X90736700Y-144639300D01*
X78740000Y-157480000D02*
X78740000Y-156354700D01*
X78740000Y-132080000D02*
X78740000Y-132642600D01*
X78740000Y-90314700D02*
X78458700Y-90314700D01*
X78458700Y-90314700D02*
X76714000Y-88570000D01*
X76714000Y-88570000D02*
X76714000Y-69881000D01*
X76714000Y-69881000D02*
X76990000Y-69605000D01*
X76990000Y-69605000D02*
X76990000Y-68634000D01*
X76990000Y-68634000D02*
X78458700Y-67165300D01*
X78458700Y-67165300D02*
X78740000Y-67165300D01*
X78740000Y-66040000D02*
X78740000Y-67165300D01*
X78740000Y-91440000D02*
X78740000Y-90314700D01*
X41765300Y-69975000D02*
X41765300Y-65469200D01*
X41765300Y-65469200D02*
X40921400Y-64625300D01*
X40921400Y-64625300D02*
X40640000Y-64625300D01*
X40030500Y-81697800D02*
X40030500Y-79928100D01*
X40030500Y-79928100D02*
X41765300Y-78193300D01*
X41765300Y-78193300D02*
X41765300Y-69975000D01*
X50618000Y-70100000D02*
X50493000Y-69975000D01*
X50493000Y-69975000D02*
X41765300Y-69975000D01*
X40640000Y-63500000D02*
X40640000Y-64625300D01*
%TO.N,AR2*%
X78740000Y-138285300D02*
X79021400Y-138285300D01*
X79021400Y-138285300D02*
X80336800Y-139600700D01*
X80336800Y-139600700D02*
X80336800Y-146714600D01*
X80336800Y-146714600D02*
X78350600Y-148700800D01*
X78350600Y-148700800D02*
X77658800Y-148700800D01*
X77658800Y-148700800D02*
X77478400Y-148881200D01*
X78740000Y-161434700D02*
X78508600Y-161434700D01*
X78508600Y-161434700D02*
X77153800Y-160079900D01*
X77153800Y-160079900D02*
X77153800Y-149205800D01*
X77153800Y-149205800D02*
X77478400Y-148881200D01*
X77546600Y-87467400D02*
X77709200Y-87630000D01*
X77709200Y-87630000D02*
X79084300Y-87630000D01*
X79084300Y-87630000D02*
X79865300Y-88411000D01*
X79865300Y-88411000D02*
X79865300Y-94550800D01*
X79865300Y-94550800D02*
X79021400Y-95394700D01*
X79021400Y-95394700D02*
X78740000Y-95394700D01*
X78740000Y-72245300D02*
X78474200Y-72245300D01*
X78474200Y-72245300D02*
X77164400Y-73555100D01*
X77164400Y-73555100D02*
X77164400Y-87085200D01*
X77164400Y-87085200D02*
X77546600Y-87467400D01*
X77380100Y-87633900D02*
X77546600Y-87467400D01*
X40640000Y-156354700D02*
X40358700Y-156354700D01*
X40358700Y-156354700D02*
X38408000Y-154404000D01*
X38408000Y-154404000D02*
X38408000Y-133070600D01*
X38408000Y-133070600D02*
X38197200Y-132859800D01*
X38467300Y-91440000D02*
X36947900Y-92959400D01*
X36947900Y-92959400D02*
X36947900Y-131610500D01*
X36947900Y-131610500D02*
X38197200Y-132859800D01*
X39514700Y-91440000D02*
X38467300Y-91440000D01*
X38467300Y-91440000D02*
X38467300Y-69056700D01*
X38467300Y-69056700D02*
X40358700Y-67165300D01*
X40358700Y-67165300D02*
X40640000Y-67165300D01*
X40640000Y-91440000D02*
X39514700Y-91440000D01*
X40640000Y-66040000D02*
X40640000Y-67165300D01*
X40640000Y-157480000D02*
X40640000Y-156354700D01*
X78740000Y-96520000D02*
X78740000Y-95394700D01*
X78740000Y-71120000D02*
X78740000Y-72245300D01*
X78740000Y-137160000D02*
X78740000Y-138285300D01*
X78740000Y-162560000D02*
X78740000Y-161434700D01*
%TO.N,AR1*%
X78740000Y-135745300D02*
X79021300Y-135745300D01*
X79021300Y-135745300D02*
X80798900Y-137522900D01*
X80798900Y-137522900D02*
X80798900Y-151997100D01*
X80798900Y-151997100D02*
X79126000Y-153670000D01*
X79126000Y-153670000D02*
X78384600Y-153670000D01*
X78384600Y-153670000D02*
X77604200Y-154450400D01*
X77604200Y-154450400D02*
X77604200Y-158040200D01*
X77604200Y-158040200D02*
X78458700Y-158894700D01*
X78458700Y-158894700D02*
X78740000Y-158894700D01*
X78740000Y-93980000D02*
X78740000Y-92854700D01*
X78740000Y-92854700D02*
X78458600Y-92854700D01*
X78458600Y-92854700D02*
X76257800Y-90653900D01*
X76257800Y-90653900D02*
X76257800Y-69452800D01*
X76257800Y-69452800D02*
X76364700Y-69345900D01*
X78740000Y-134620000D02*
X78740000Y-135745300D01*
X78740000Y-160020000D02*
X78740000Y-158894700D01*
X39514700Y-134620000D02*
X39514700Y-103137200D01*
X39514700Y-103137200D02*
X39064400Y-102686900D01*
X39064400Y-102686900D02*
X39064400Y-95555600D01*
X39064400Y-95555600D02*
X40640000Y-93980000D01*
X40640000Y-134620000D02*
X40640000Y-135745300D01*
X40640000Y-160020000D02*
X40640000Y-158894700D01*
X40640000Y-158894700D02*
X40921400Y-158894700D01*
X40921400Y-158894700D02*
X41765300Y-158050800D01*
X41765300Y-158050800D02*
X41765300Y-136589200D01*
X41765300Y-136589200D02*
X40921400Y-135745300D01*
X40921400Y-135745300D02*
X40640000Y-135745300D01*
X40640000Y-134620000D02*
X39514700Y-134620000D01*
%TO.N,AR0*%
X78740000Y-139700000D02*
X78740000Y-140825300D01*
X78740000Y-165100000D02*
X78740000Y-163974700D01*
X78740000Y-163974700D02*
X78458700Y-163974700D01*
X78458700Y-163974700D02*
X76677900Y-162193900D01*
X76677900Y-162193900D02*
X76677900Y-148791500D01*
X76677900Y-148791500D02*
X77597200Y-147872200D01*
X77597200Y-147872200D02*
X78510600Y-147872200D01*
X78510600Y-147872200D02*
X79865300Y-146517500D01*
X79865300Y-146517500D02*
X79865300Y-141669200D01*
X79865300Y-141669200D02*
X79021400Y-140825300D01*
X79021400Y-140825300D02*
X78740000Y-140825300D01*
X48260000Y-114548500D02*
X52532000Y-110276500D01*
X52532000Y-110276500D02*
X52532000Y-99970200D01*
X48260000Y-116840000D02*
X48260000Y-114548500D01*
X40640000Y-162560000D02*
X40640000Y-163685300D01*
X45054600Y-137160000D02*
X45054600Y-164868800D01*
X45054600Y-164868800D02*
X41155000Y-168768400D01*
X41155000Y-168768400D02*
X40172600Y-168768400D01*
X40172600Y-168768400D02*
X39514700Y-168110500D01*
X39514700Y-168110500D02*
X39514700Y-164529200D01*
X39514700Y-164529200D02*
X40358600Y-163685300D01*
X40358600Y-163685300D02*
X40640000Y-163685300D01*
X45122500Y-118649900D02*
X45054600Y-118717800D01*
X45054600Y-118717800D02*
X45054600Y-137160000D01*
X40640000Y-72245300D02*
X40358700Y-72245300D01*
X40358700Y-72245300D02*
X38954900Y-73649100D01*
X38954900Y-73649100D02*
X38954900Y-86270400D01*
X38954900Y-86270400D02*
X40314500Y-87630000D01*
X40314500Y-87630000D02*
X40964700Y-87630000D01*
X40964700Y-87630000D02*
X41778800Y-88444100D01*
X41778800Y-88444100D02*
X41778800Y-94537200D01*
X41778800Y-94537200D02*
X40921300Y-95394700D01*
X40921300Y-95394700D02*
X40640000Y-95394700D01*
X40640000Y-71120000D02*
X40640000Y-72245300D01*
X40640000Y-96520000D02*
X40640000Y-95394700D01*
X78740000Y-97934700D02*
X79021400Y-97934700D01*
X79021400Y-97934700D02*
X80315600Y-96640500D01*
X80315600Y-96640500D02*
X80315600Y-79988500D01*
X80315600Y-79988500D02*
X77614700Y-77287600D01*
X77614700Y-77287600D02*
X77614700Y-75678000D01*
X77614700Y-75678000D02*
X78507400Y-74785300D01*
X78507400Y-74785300D02*
X78740000Y-74785300D01*
X78740000Y-99060000D02*
X78740000Y-97934700D01*
X78740000Y-73660000D02*
X78740000Y-74785300D01*
%TO.N,AL*%
X71120000Y-149860000D02*
X71120000Y-150985300D01*
X99060000Y-160020000D02*
X97934700Y-160020000D01*
X97934700Y-160020000D02*
X89160900Y-168793800D01*
X89160900Y-168793800D02*
X74074000Y-168793800D01*
X74074000Y-168793800D02*
X71650200Y-166370000D01*
X71650200Y-166370000D02*
X70718900Y-166370000D01*
X70718900Y-166370000D02*
X69994700Y-165645800D01*
X69994700Y-165645800D02*
X69994700Y-151829200D01*
X69994700Y-151829200D02*
X70838600Y-150985300D01*
X70838600Y-150985300D02*
X71120000Y-150985300D01*
X58908500Y-86295000D02*
X58908500Y-83293200D01*
X58908500Y-83293200D02*
X59637800Y-82563900D01*
X59637800Y-82563900D02*
X59637800Y-61992100D01*
X59637800Y-61992100D02*
X57480400Y-59834700D01*
X61025900Y-125593600D02*
X60534600Y-125102300D01*
X60534600Y-125102300D02*
X60534600Y-113365300D01*
X60534600Y-113365300D02*
X58871200Y-111701900D01*
X58871200Y-111701900D02*
X58871200Y-102766100D01*
X58871200Y-102766100D02*
X58785700Y-102680600D01*
X58785700Y-102680600D02*
X58785700Y-86417800D01*
X58785700Y-86417800D02*
X58908500Y-86295000D01*
X71120000Y-124460000D02*
X71120000Y-125585300D01*
X71120000Y-149860000D02*
X71120000Y-148734700D01*
X71120000Y-148734700D02*
X69517900Y-147132600D01*
X69517900Y-147132600D02*
X69517900Y-126906100D01*
X69517900Y-126906100D02*
X70838700Y-125585300D01*
X70838700Y-125585300D02*
X71120000Y-125585300D01*
X48260000Y-152400000D02*
X48260000Y-151274700D01*
X48260000Y-127000000D02*
X48260000Y-128125300D01*
X48260000Y-128125300D02*
X48541300Y-128125300D01*
X48541300Y-128125300D02*
X50299900Y-129883900D01*
X50299900Y-129883900D02*
X50299900Y-149516100D01*
X50299900Y-149516100D02*
X48541300Y-151274700D01*
X48541300Y-151274700D02*
X48260000Y-151274700D01*
%TO.N,CO*%
X140986800Y-120953000D02*
X140986800Y-126645900D01*
X140986800Y-126645900D02*
X143509800Y-129168900D01*
X143509800Y-129168900D02*
X143509800Y-129923200D01*
X143509800Y-129923200D02*
X145726600Y-132140000D01*
X145726600Y-132140000D02*
X146018300Y-132140000D01*
%TO.N,IX*%
X106680000Y-73660000D02*
X106680000Y-74785300D01*
X101013500Y-149034900D02*
X104755800Y-145292600D01*
X104755800Y-145292600D02*
X104755800Y-108015700D01*
X104755800Y-108015700D02*
X102357400Y-105617300D01*
X102357400Y-105617300D02*
X102357400Y-78857900D01*
X102357400Y-78857900D02*
X106430000Y-74785300D01*
X106430000Y-74785300D02*
X106680000Y-74785300D01*
%TO.N,~XL*%
X114300000Y-77325300D02*
X113174700Y-78450600D01*
X113174700Y-78450600D02*
X113174700Y-81789200D01*
X113174700Y-81789200D02*
X113935500Y-82550000D01*
X113935500Y-82550000D02*
X114662300Y-82550000D01*
X114662300Y-82550000D02*
X115878200Y-83765900D01*
X115878200Y-83765900D02*
X115878200Y-101559800D01*
X115878200Y-101559800D02*
X131523600Y-117205200D01*
X131523600Y-117205200D02*
X131523600Y-119540500D01*
X131523600Y-119540500D02*
X129186300Y-121877800D01*
X129186300Y-121877800D02*
X129186300Y-144603500D01*
X129186300Y-144603500D02*
X133595400Y-149012600D01*
X114300000Y-76200000D02*
X114300000Y-77325300D01*
%TO.N,~YL*%
X187339300Y-157887400D02*
X185875600Y-157887400D01*
X185875600Y-157887400D02*
X184005400Y-159757600D01*
X184005400Y-159757600D02*
X184005400Y-160561500D01*
X184005400Y-160561500D02*
X183421500Y-161145400D01*
X183421500Y-161145400D02*
X179794300Y-161145400D01*
X179794300Y-161145400D02*
X179070000Y-160421100D01*
X179070000Y-160421100D02*
X179070000Y-159489800D01*
X179070000Y-159489800D02*
X176574600Y-156994400D01*
X176574600Y-156994400D02*
X176574600Y-154254400D01*
X176574600Y-154254400D02*
X173152500Y-150832300D01*
X173152500Y-150832300D02*
X173152500Y-133662800D01*
X173152500Y-133662800D02*
X159573900Y-120084200D01*
X159573900Y-120084200D02*
X159573900Y-107280200D01*
X159573900Y-107280200D02*
X158673500Y-106379800D01*
X158673500Y-106379800D02*
X158072200Y-106379800D01*
X158072200Y-106379800D02*
X156311700Y-104619300D01*
X156311700Y-104619300D02*
X156311700Y-92463700D01*
X156311700Y-92463700D02*
X158750000Y-90025400D01*
X158750000Y-90025400D02*
X158750000Y-85077600D01*
X158750000Y-85077600D02*
X160784900Y-83042700D01*
X160784900Y-83042700D02*
X160784900Y-78001300D01*
X160784900Y-78001300D02*
X163349300Y-75436900D01*
X163349300Y-75436900D02*
X163349300Y-60366300D01*
X163349300Y-60366300D02*
X165583500Y-58132100D01*
X165583500Y-58132100D02*
X166226800Y-58132100D01*
X166226800Y-58132100D02*
X166514700Y-58420000D01*
X167640000Y-58420000D02*
X166514700Y-58420000D01*
%TO.N,~OL*%
X113347900Y-51884100D02*
X114679200Y-51884100D01*
X114679200Y-51884100D02*
X116328600Y-53533500D01*
X116328600Y-53533500D02*
X116328600Y-100242900D01*
X116328600Y-100242900D02*
X131998300Y-115912600D01*
X131998300Y-115912600D02*
X131998300Y-123096000D01*
X131998300Y-123096000D02*
X129684600Y-125409700D01*
X129684600Y-125409700D02*
X129684600Y-127423600D01*
X129684600Y-127423600D02*
X130313600Y-128052600D01*
X130313600Y-128052600D02*
X131611300Y-128052600D01*
X131611300Y-128052600D02*
X131799000Y-127864900D01*
%TO.N,/CU/INV_B_IN*%
X137160000Y-129540000D02*
X137160000Y-130665300D01*
X134620000Y-160020000D02*
X134620000Y-133205300D01*
X134620000Y-133205300D02*
X137160000Y-130665300D01*
%TO.N,/CU/INV_B_OUT*%
X144780000Y-123045300D02*
X144780000Y-124788100D01*
X144780000Y-124788100D02*
X148516100Y-128524200D01*
X148516100Y-128524200D02*
X148516100Y-129972400D01*
X148516100Y-129972400D02*
X147807200Y-130681300D01*
X147807200Y-130681300D02*
X146765300Y-130681300D01*
X146765300Y-130681300D02*
X145905300Y-129821300D01*
X145905300Y-129821300D02*
X145905300Y-129540000D01*
X144780000Y-121920000D02*
X144780000Y-123045300D01*
X144780000Y-129540000D02*
X145905300Y-129540000D01*
%TO.N,~RST*%
X182880000Y-58420000D02*
X182880000Y-57344700D01*
X173355000Y-45720000D02*
X173355000Y-48088500D01*
X173355000Y-48088500D02*
X182611200Y-57344700D01*
X182611200Y-57344700D02*
X182880000Y-57344700D01*
%TO.N,Net-(D6-Pad1)*%
X25400000Y-48260000D02*
X26525300Y-48260000D01*
X35560000Y-43180000D02*
X34334700Y-43180000D01*
X34334700Y-43180000D02*
X33109400Y-44405300D01*
X33109400Y-44405300D02*
X29958000Y-44405300D01*
X29958000Y-44405300D02*
X26525300Y-47838000D01*
X26525300Y-47838000D02*
X26525300Y-48260000D01*
%TO.N,Net-(R1-Pad1)*%
X210820000Y-41910000D02*
X210820000Y-49530000D01*
%TO.N,Net-(U1-Pad11)*%
X213360000Y-41910000D02*
X213360000Y-49530000D01*
%TO.N,Net-(U24-Pad7)*%
X40640000Y-74785300D02*
X40358600Y-74785300D01*
X40358600Y-74785300D02*
X39405200Y-75738700D01*
X39405200Y-75738700D02*
X39405200Y-84674200D01*
X39405200Y-84674200D02*
X39778700Y-85047700D01*
X39778700Y-85047700D02*
X40967000Y-85047700D01*
X40967000Y-85047700D02*
X42264700Y-86345400D01*
X42264700Y-86345400D02*
X42264700Y-96510100D01*
X42264700Y-96510100D02*
X40984800Y-97790000D01*
X40984800Y-97790000D02*
X40248700Y-97790000D01*
X40248700Y-97790000D02*
X39514700Y-98524000D01*
X39514700Y-98524000D02*
X39514700Y-102275000D01*
X39514700Y-102275000D02*
X42054700Y-104815000D01*
X42054700Y-104815000D02*
X42054700Y-107250800D01*
X42054700Y-107250800D02*
X42898600Y-108094700D01*
X42898600Y-108094700D02*
X43180000Y-108094700D01*
X43180000Y-109220000D02*
X43180000Y-108094700D01*
X40640000Y-73660000D02*
X40640000Y-74785300D01*
%TO.N,/CU/~BF*%
X139700000Y-121920000D02*
X139700000Y-120462400D01*
X139700000Y-120462400D02*
X140601200Y-119561200D01*
%TO.N,Net-(D8-Pad2)*%
X55880000Y-60960000D02*
X55880000Y-59834700D01*
X45720000Y-45720000D02*
X45720000Y-50378100D01*
X45720000Y-50378100D02*
X55176600Y-59834700D01*
X55176600Y-59834700D02*
X55880000Y-59834700D01*
%TO.N,Net-(U4-Pad15)*%
X214093700Y-71649000D02*
X214093700Y-68731700D01*
X214093700Y-68731700D02*
X215515400Y-67310000D01*
X215515400Y-67310000D02*
X216256100Y-67310000D01*
X216256100Y-67310000D02*
X220650100Y-62916000D01*
X220650100Y-62916000D02*
X220650100Y-60960000D01*
%TO.N,Net-(U5-Pad15)*%
X208280000Y-60960000D02*
X205309300Y-63930700D01*
X205309300Y-63930700D02*
X205309300Y-63967900D01*
%TO.N,Net-(U7-Pad3)*%
X193040000Y-99060000D02*
X193040000Y-100185300D01*
X190500000Y-114300000D02*
X190500000Y-113174700D01*
X190500000Y-113174700D02*
X189313800Y-111988500D01*
X189313800Y-111988500D02*
X189313800Y-103911500D01*
X189313800Y-103911500D02*
X193040000Y-100185300D01*
%TO.N,Net-(U7-Pad4)*%
X190500000Y-106680000D02*
X191625300Y-106680000D01*
X191625300Y-106680000D02*
X191625300Y-105884800D01*
X191625300Y-105884800D02*
X195580000Y-101930100D01*
X195580000Y-101930100D02*
X195580000Y-99060000D01*
%TO.N,Net-(U7-Pad5)*%
X193040000Y-113174700D02*
X194165300Y-112049400D01*
X194165300Y-112049400D02*
X194165300Y-104776900D01*
X194165300Y-104776900D02*
X198120000Y-100822200D01*
X198120000Y-100822200D02*
X198120000Y-100185300D01*
X193040000Y-114300000D02*
X193040000Y-113174700D01*
X198120000Y-99060000D02*
X198120000Y-100185300D01*
%TO.N,Net-(U7-Pad6)*%
X200660000Y-99060000D02*
X199534700Y-99060000D01*
X199534700Y-99060000D02*
X199534700Y-98778700D01*
X199534700Y-98778700D02*
X198679100Y-97923100D01*
X198679100Y-97923100D02*
X197655200Y-97923100D01*
X197655200Y-97923100D02*
X196850000Y-98728300D01*
X196850000Y-98728300D02*
X196850000Y-101455300D01*
X196850000Y-101455300D02*
X193040000Y-105265300D01*
X193040000Y-105265300D02*
X193040000Y-106680000D01*
%TO.N,Net-(U7-Pad7)*%
X203200000Y-99060000D02*
X203200000Y-100185300D01*
X200660000Y-114300000D02*
X200660000Y-113174700D01*
X200660000Y-113174700D02*
X202074700Y-111760000D01*
X202074700Y-111760000D02*
X202074700Y-101310600D01*
X202074700Y-101310600D02*
X203200000Y-100185300D01*
%TO.N,Net-(U7-Pad8)*%
X205740000Y-99060000D02*
X204614700Y-99060000D01*
X200660000Y-106680000D02*
X200660000Y-100860200D01*
X200660000Y-100860200D02*
X201930000Y-99590200D01*
X201930000Y-99590200D02*
X201930000Y-98687000D01*
X201930000Y-98687000D02*
X202682300Y-97934700D01*
X202682300Y-97934700D02*
X203770800Y-97934700D01*
X203770800Y-97934700D02*
X204614700Y-98778600D01*
X204614700Y-98778600D02*
X204614700Y-99060000D01*
%TO.N,Net-(U7-Pad9)*%
X208280000Y-99060000D02*
X208280000Y-100185300D01*
X203200000Y-114300000D02*
X203200000Y-113174700D01*
X203200000Y-113174700D02*
X207154700Y-109220000D01*
X207154700Y-109220000D02*
X207154700Y-101310600D01*
X207154700Y-101310600D02*
X208280000Y-100185300D01*
%TO.N,Net-(U7-Pad10)*%
X210820000Y-99060000D02*
X209694700Y-99060000D01*
X203200000Y-106680000D02*
X203200000Y-103400200D01*
X203200000Y-103400200D02*
X207010000Y-99590200D01*
X207010000Y-99590200D02*
X207010000Y-98738200D01*
X207010000Y-98738200D02*
X207813500Y-97934700D01*
X207813500Y-97934700D02*
X208850800Y-97934700D01*
X208850800Y-97934700D02*
X209694700Y-98778600D01*
X209694700Y-98778600D02*
X209694700Y-99060000D01*
%TO.N,Net-(U7-Pad12)*%
X215900000Y-99060000D02*
X215900000Y-100185300D01*
X220980000Y-114300000D02*
X220980000Y-113174700D01*
X220980000Y-113174700D02*
X217025300Y-109220000D01*
X217025300Y-109220000D02*
X217025300Y-101310600D01*
X217025300Y-101310600D02*
X215900000Y-100185300D01*
%TO.N,Net-(U7-Pad13)*%
X220980000Y-106680000D02*
X220980000Y-105554700D01*
X220980000Y-105554700D02*
X218440000Y-103014700D01*
X218440000Y-103014700D02*
X218440000Y-99060000D01*
%TO.N,Net-(U7-Pad14)*%
X223520000Y-106680000D02*
X223520000Y-105554700D01*
X223520000Y-105554700D02*
X220980000Y-103014700D01*
X220980000Y-103014700D02*
X220980000Y-99060000D01*
%TO.N,Net-(U7-Pad15)*%
X223520000Y-99060000D02*
X223520000Y-100185300D01*
X223520000Y-114300000D02*
X223520000Y-113174700D01*
X223520000Y-113174700D02*
X224649700Y-112045000D01*
X224649700Y-112045000D02*
X224649700Y-106047500D01*
X224649700Y-106047500D02*
X222394700Y-103792500D01*
X222394700Y-103792500D02*
X222394700Y-101310600D01*
X222394700Y-101310600D02*
X223520000Y-100185300D01*
%TO.N,Net-(U7-Pad16)*%
X226060000Y-99060000D02*
X226060000Y-100185300D01*
X231140000Y-114300000D02*
X231140000Y-113174700D01*
X231140000Y-113174700D02*
X227185300Y-109220000D01*
X227185300Y-109220000D02*
X227185300Y-101310600D01*
X227185300Y-101310600D02*
X226060000Y-100185300D01*
%TO.N,Net-(U7-Pad17)*%
X228600000Y-99060000D02*
X228600000Y-100185300D01*
X231140000Y-106680000D02*
X231140000Y-102725300D01*
X231140000Y-102725300D02*
X228600000Y-100185300D01*
%TO.N,Net-(U7-Pad18)*%
X231140000Y-99060000D02*
X231140000Y-100185300D01*
X233680000Y-106680000D02*
X233680000Y-102725300D01*
X233680000Y-102725300D02*
X231140000Y-100185300D01*
%TO.N,Net-(U7-Pad19)*%
X233680000Y-114300000D02*
X233680000Y-113174700D01*
X233680000Y-99060000D02*
X233680000Y-100185300D01*
X233680000Y-100185300D02*
X234805300Y-101310600D01*
X234805300Y-101310600D02*
X234805300Y-112049400D01*
X234805300Y-112049400D02*
X233680000Y-113174700D01*
%TO.N,Net-(U18-Pad7)*%
X71120000Y-116840000D02*
X71120000Y-117965300D01*
X71120000Y-139700000D02*
X69994700Y-138574700D01*
X69994700Y-138574700D02*
X69994700Y-129067700D01*
X69994700Y-129067700D02*
X70792400Y-128270000D01*
X70792400Y-128270000D02*
X71519000Y-128270000D01*
X71519000Y-128270000D02*
X72245300Y-127543700D01*
X72245300Y-127543700D02*
X72245300Y-119090600D01*
X72245300Y-119090600D02*
X71120000Y-117965300D01*
%TO.N,Net-(U19-Pad7)*%
X71120000Y-100185300D02*
X71401300Y-100185300D01*
X71401300Y-100185300D02*
X72245300Y-101029300D01*
X72245300Y-101029300D02*
X72245300Y-102338200D01*
X72245300Y-102338200D02*
X71120000Y-103463500D01*
X71120000Y-103463500D02*
X71120000Y-108094700D01*
X71120000Y-109220000D02*
X71120000Y-108094700D01*
X71120000Y-99060000D02*
X71120000Y-100185300D01*
%TO.N,Net-(U19-Pad9)*%
X78740000Y-102725300D02*
X78026300Y-103439000D01*
X78026300Y-103439000D02*
X78026300Y-104009700D01*
X78026300Y-104009700D02*
X73941300Y-108094700D01*
X73941300Y-108094700D02*
X73660000Y-108094700D01*
X78740000Y-101600000D02*
X78740000Y-102725300D01*
X73660000Y-109220000D02*
X73660000Y-108094700D01*
%TO.N,Net-(U20-Pad7)*%
X71120000Y-74785300D02*
X71401300Y-74785300D01*
X71401300Y-74785300D02*
X75700700Y-79084700D01*
X75700700Y-79084700D02*
X75700700Y-97621700D01*
X75700700Y-97621700D02*
X78409000Y-100330000D01*
X78409000Y-100330000D02*
X79145000Y-100330000D01*
X79145000Y-100330000D02*
X79898500Y-101083500D01*
X79898500Y-101083500D02*
X79898500Y-107076900D01*
X79898500Y-107076900D02*
X78880700Y-108094700D01*
X78880700Y-108094700D02*
X78740000Y-108094700D01*
X78740000Y-109220000D02*
X78740000Y-108094700D01*
X71120000Y-73660000D02*
X71120000Y-74785300D01*
%TO.N,Net-(U20-Pad9)*%
X81280000Y-109220000D02*
X81280000Y-108094700D01*
X78740000Y-77325300D02*
X81280000Y-79865300D01*
X81280000Y-79865300D02*
X81280000Y-108094700D01*
X78740000Y-76200000D02*
X78740000Y-77325300D01*
%TO.N,Net-(U21-Pad9)*%
X45720000Y-117965300D02*
X45747800Y-117993100D01*
X45747800Y-117993100D02*
X45747800Y-164228400D01*
X45747800Y-164228400D02*
X48034100Y-166514700D01*
X48034100Y-166514700D02*
X48260000Y-166514700D01*
X45720000Y-116840000D02*
X45720000Y-117965300D01*
X48260000Y-167640000D02*
X48260000Y-166514700D01*
%TO.N,Net-(U22-Pad7)*%
X38100000Y-116840000D02*
X38100000Y-117965300D01*
X40640000Y-139700000D02*
X40640000Y-138574700D01*
X40640000Y-138574700D02*
X40358700Y-138574700D01*
X40358700Y-138574700D02*
X38947400Y-137163400D01*
X38947400Y-137163400D02*
X38947400Y-118812700D01*
X38947400Y-118812700D02*
X38100000Y-117965300D01*
%TO.N,Net-(U22-Pad9)*%
X35560000Y-116840000D02*
X35560000Y-134590700D01*
X35560000Y-134590700D02*
X37782700Y-136813400D01*
%TO.N,Net-(U24-Pad9)*%
X45720000Y-109220000D02*
X46845300Y-109220000D01*
X48260000Y-76200000D02*
X48260000Y-77325300D01*
X48260000Y-77325300D02*
X46609100Y-78976200D01*
X46609100Y-78976200D02*
X46609100Y-102790100D01*
X46609100Y-102790100D02*
X49307800Y-105488800D01*
X49307800Y-105488800D02*
X49307800Y-107188100D01*
X49307800Y-107188100D02*
X48401200Y-108094700D01*
X48401200Y-108094700D02*
X47689200Y-108094700D01*
X47689200Y-108094700D02*
X46845300Y-108938600D01*
X46845300Y-108938600D02*
X46845300Y-109220000D01*
%TO.N,Net-(U29-Pad15)*%
X129540000Y-60960000D02*
X129540000Y-62085300D01*
X129540000Y-62085300D02*
X129258600Y-62085300D01*
X129258600Y-62085300D02*
X128414700Y-62929200D01*
X128414700Y-62929200D02*
X128414700Y-63724700D01*
X128414700Y-63724700D02*
X122239900Y-69899500D01*
X122239900Y-69899500D02*
X120148300Y-69899500D01*
X120148300Y-69899500D02*
X118528900Y-71518900D01*
%TO.N,Net-(D9-Pad1)*%
X171450000Y-154940000D02*
X172675300Y-154940000D01*
X177800000Y-160020000D02*
X176674700Y-160020000D01*
X176674700Y-160020000D02*
X176674700Y-158939400D01*
X176674700Y-158939400D02*
X172675300Y-154940000D01*
%TO.N,Net-(D10-Pad2)*%
X170136900Y-153713100D02*
X170136900Y-150704000D01*
X170136900Y-150704000D02*
X164212900Y-144780000D01*
X164212900Y-144780000D02*
X163478700Y-144780000D01*
X163478700Y-144780000D02*
X154572100Y-135873400D01*
X154572100Y-135873400D02*
X154572100Y-130153400D01*
X154572100Y-130153400D02*
X147464000Y-123045300D01*
X147464000Y-123045300D02*
X147320000Y-123045300D01*
X168910000Y-154940000D02*
X170135300Y-154940000D01*
X170136900Y-153713100D02*
X172807800Y-153713100D01*
X172807800Y-153713100D02*
X174034700Y-154940000D01*
X170135300Y-154940000D02*
X170135300Y-153714700D01*
X170135300Y-153714700D02*
X170136900Y-153713100D01*
X147320000Y-121920000D02*
X147320000Y-123045300D01*
X175260000Y-154940000D02*
X174034700Y-154940000D01*
%TO.N,Net-(D10-Pad1)*%
X177800000Y-154940000D02*
X177800000Y-156165300D01*
X180340000Y-160020000D02*
X180340000Y-158705300D01*
X180340000Y-158705300D02*
X177800000Y-156165300D01*
X177800000Y-154940000D02*
X177800000Y-147320000D01*
%TO.N,Net-(D12-Pad1)*%
X184150000Y-154940000D02*
X184150000Y-143510000D01*
X182880000Y-158894700D02*
X184150000Y-157624700D01*
X184150000Y-157624700D02*
X184150000Y-154940000D01*
X182880000Y-160020000D02*
X182880000Y-158894700D01*
%TO.N,Net-(D14-Pad1)*%
X190500000Y-154940000D02*
X190500000Y-153714700D01*
X190500000Y-147320000D02*
X190500000Y-148545300D01*
X190500000Y-148545300D02*
X190500000Y-153714700D01*
X190500000Y-147320000D02*
X190500000Y-143510000D01*
%TO.N,Net-(D17-Pad1)*%
X196850000Y-151130000D02*
X196850000Y-152355300D01*
X193040000Y-160020000D02*
X193040000Y-156165300D01*
X193040000Y-156165300D02*
X196850000Y-152355300D01*
%TO.N,Net-(D17-Pad2)*%
X208280000Y-147955000D02*
X208280000Y-149080300D01*
X200047400Y-151130000D02*
X201272800Y-152355400D01*
X201272800Y-152355400D02*
X204317300Y-152355400D01*
X204317300Y-152355400D02*
X207592400Y-149080300D01*
X207592400Y-149080300D02*
X208280000Y-149080300D01*
X200047400Y-151130000D02*
X199434700Y-151130000D01*
X200660000Y-151130000D02*
X200047400Y-151130000D01*
X194310000Y-151130000D02*
X195535300Y-151130000D01*
X195535300Y-151130000D02*
X195535300Y-150134400D01*
X195535300Y-150134400D02*
X195765000Y-149904700D01*
X195765000Y-149904700D02*
X198209400Y-149904700D01*
X198209400Y-149904700D02*
X199434700Y-151130000D01*
%TO.N,Net-(D21-Pad2)*%
X156210000Y-163830000D02*
X157435300Y-163830000D01*
X157435300Y-163830000D02*
X157435300Y-164825600D01*
X157435300Y-164825600D02*
X159614700Y-167005000D01*
X159614700Y-167005000D02*
X163830000Y-167005000D01*
%TO.N,Net-(D22-Pad1)*%
X114300000Y-151130000D02*
X114300000Y-147320000D01*
X114300000Y-151742600D02*
X114300000Y-151130000D01*
X114300000Y-151742600D02*
X114300000Y-152355300D01*
X119380000Y-160020000D02*
X119380000Y-157435300D01*
X119380000Y-157435300D02*
X114300000Y-152355300D01*
%TO.N,Net-(D23-Pad2)*%
X106680000Y-147320000D02*
X111760000Y-147320000D01*
%TO.N,Net-(D24-Pad1)*%
X120650000Y-147320000D02*
X120650000Y-148545300D01*
X121920000Y-160020000D02*
X121920000Y-149815300D01*
X121920000Y-149815300D02*
X120650000Y-148545300D01*
%TO.N,Net-(D25-Pad1)*%
X127000000Y-151130000D02*
X127000000Y-147320000D01*
X127000000Y-154940000D02*
X127000000Y-151130000D01*
X124460000Y-158894700D02*
X127000000Y-156354700D01*
X127000000Y-156354700D02*
X127000000Y-154940000D01*
X124460000Y-160020000D02*
X124460000Y-158894700D01*
%TO.N,Net-(D25-Pad2)*%
X143510000Y-154940000D02*
X144735300Y-154940000D01*
X144735300Y-154940000D02*
X144735300Y-153714700D01*
X144735300Y-153714700D02*
X149860000Y-148590000D01*
%TO.N,Net-(D28-Pad1)*%
X133350000Y-151130000D02*
X133350000Y-152355300D01*
X133193200Y-154940000D02*
X133193200Y-152512100D01*
X133193200Y-152512100D02*
X133350000Y-152355300D01*
X133350000Y-154940000D02*
X133193200Y-154940000D01*
X133159000Y-154940000D02*
X133193200Y-154940000D01*
X133159000Y-154940000D02*
X132124700Y-154940000D01*
X127000000Y-160020000D02*
X128125300Y-160020000D01*
X128125300Y-160020000D02*
X128125300Y-159738600D01*
X128125300Y-159738600D02*
X132124700Y-155739200D01*
X132124700Y-155739200D02*
X132124700Y-154940000D01*
%TO.N,Net-(D30-Pad1)*%
X139700000Y-151130000D02*
X139700000Y-147320000D01*
X130665300Y-160020000D02*
X130665300Y-160301300D01*
X130665300Y-160301300D02*
X131511800Y-161147800D01*
X131511800Y-161147800D02*
X135109700Y-161147800D01*
X135109700Y-161147800D02*
X139700000Y-156557500D01*
X139700000Y-156557500D02*
X139700000Y-151130000D01*
X129540000Y-160020000D02*
X130665300Y-160020000D01*
%TO.N,Net-(D32-Pad1)*%
X146050000Y-158750000D02*
X146050000Y-154940000D01*
%TO.N,Net-(D32-Pad2)*%
X156210000Y-158750000D02*
X154984700Y-158750000D01*
X143510000Y-158750000D02*
X143510000Y-159975300D01*
X143510000Y-159975300D02*
X144735300Y-161200600D01*
X144735300Y-161200600D02*
X144735300Y-164804700D01*
X144735300Y-164804700D02*
X144989700Y-165059100D01*
X144989700Y-165059100D02*
X148675600Y-165059100D01*
X148675600Y-165059100D02*
X154984700Y-158750000D01*
%TO.N,Net-(R9-Pad2)*%
X66040000Y-40640000D02*
X66040000Y-41765300D01*
X63500000Y-60960000D02*
X63500000Y-59834700D01*
X63500000Y-59834700D02*
X63763700Y-59834700D01*
X63763700Y-59834700D02*
X64625300Y-58973100D01*
X64625300Y-58973100D02*
X64625300Y-43180000D01*
X64625300Y-43180000D02*
X66040000Y-41765300D01*
%TO.N,Net-(R9-Pad3)*%
X68580000Y-41765300D02*
X65300800Y-45044500D01*
X65300800Y-45044500D02*
X65300800Y-59421600D01*
X65300800Y-59421600D02*
X64850400Y-59872000D01*
X64850400Y-59872000D02*
X64850400Y-67229600D01*
X64850400Y-67229600D02*
X63500000Y-68580000D01*
X68580000Y-40640000D02*
X68580000Y-41765300D01*
%TO.N,Net-(R9-Pad4)*%
X71120000Y-40640000D02*
X71120000Y-41765300D01*
X63500000Y-71120000D02*
X63500000Y-69994700D01*
X63500000Y-69994700D02*
X63781300Y-69994700D01*
X63781300Y-69994700D02*
X65395300Y-68380700D01*
X65395300Y-68380700D02*
X65395300Y-60311500D01*
X65395300Y-60311500D02*
X66888100Y-58818700D01*
X66888100Y-58818700D02*
X66888100Y-45997200D01*
X66888100Y-45997200D02*
X71120000Y-41765300D01*
%TO.N,Net-(R9-Pad5)*%
X73660000Y-41765300D02*
X68343600Y-47081700D01*
X68343600Y-47081700D02*
X68343600Y-73052400D01*
X68343600Y-73052400D02*
X63781300Y-77614700D01*
X63781300Y-77614700D02*
X63500000Y-77614700D01*
X63500000Y-78740000D02*
X63500000Y-77614700D01*
X73660000Y-40640000D02*
X73660000Y-41765300D01*
%TO.N,SER_DATA*%
X236220000Y-41347300D02*
X228830000Y-33957300D01*
X228830000Y-33957300D02*
X228830000Y-31750000D01*
X236220000Y-41347300D02*
X236220000Y-40784700D01*
X236220000Y-41910000D02*
X236220000Y-41347300D01*
X238760000Y-38100000D02*
X238760000Y-39225300D01*
X236220000Y-40784700D02*
X237200600Y-40784700D01*
X237200600Y-40784700D02*
X238760000Y-39225300D01*
%TO.N,OUT6*%
X63500000Y-81280000D02*
X63500000Y-80154700D01*
X111760000Y-33020000D02*
X110138200Y-31398200D01*
X110138200Y-31398200D02*
X101620700Y-31398200D01*
X101620700Y-31398200D02*
X99690000Y-33328900D01*
X99690000Y-33328900D02*
X99690000Y-35318300D01*
X99690000Y-35318300D02*
X72389300Y-62619000D01*
X72389300Y-62619000D02*
X72389300Y-66375000D01*
X72389300Y-66375000D02*
X71454300Y-67310000D01*
X71454300Y-67310000D02*
X70769100Y-67310000D01*
X70769100Y-67310000D02*
X69394200Y-68684900D01*
X69394200Y-68684900D02*
X69394200Y-74541800D01*
X69394200Y-74541800D02*
X63781300Y-80154700D01*
X63781300Y-80154700D02*
X63500000Y-80154700D01*
%TO.N,SER_LATCH*%
X190385000Y-27155000D02*
X189253900Y-26023900D01*
X189253900Y-26023900D02*
X168286100Y-26023900D01*
X168286100Y-26023900D02*
X162560000Y-31750000D01*
%TO.N,Net-(A15-Pad1)*%
X152400000Y-73660000D02*
X152400000Y-74785300D01*
X147320000Y-84455000D02*
X147320000Y-79584000D01*
X147320000Y-79584000D02*
X152118700Y-74785300D01*
X152118700Y-74785300D02*
X152400000Y-74785300D01*
%TO.N,Net-(C44-Pad1)*%
X74930000Y-27940000D02*
X68580000Y-34290000D01*
X81360000Y-33630000D02*
X75670000Y-27940000D01*
X75670000Y-27940000D02*
X74930000Y-27940000D01*
D31*
%TO.N,GND*%
X100313200Y-162560000D02*
X100110200Y-162560000D01*
X113030000Y-165020000D02*
X102773200Y-165020000D01*
X102773200Y-165020000D02*
X100313200Y-162560000D01*
X102627400Y-134307600D02*
X100551000Y-136384000D01*
X100551000Y-136384000D02*
X100551000Y-148507100D01*
X100551000Y-148507100D02*
X100313200Y-148744900D01*
X100313200Y-148744900D02*
X100313200Y-162560000D01*
X97859700Y-162560000D02*
X97620600Y-162560000D01*
X97620600Y-162560000D02*
X90845300Y-169335300D01*
X90845300Y-169335300D02*
X72815300Y-169335300D01*
X72815300Y-169335300D02*
X71120000Y-167640000D01*
X99060000Y-162560000D02*
X97859700Y-162560000D01*
X99585100Y-162560000D02*
X99060000Y-162560000D01*
X99585100Y-162560000D02*
X100110200Y-162560000D01*
X63500000Y-92790000D02*
X63849000Y-92441000D01*
X63849000Y-92441000D02*
X63849000Y-85145400D01*
X63849000Y-85145400D02*
X71120000Y-77874400D01*
X71120000Y-77874400D02*
X71120000Y-77400300D01*
X223520000Y-49530000D02*
X223520000Y-48329700D01*
X223520000Y-48329700D02*
X222250000Y-47059700D01*
X222250000Y-47059700D02*
X222250000Y-39330000D01*
X222250000Y-39330000D02*
X223480000Y-38100000D01*
X223480000Y-38100000D02*
X223480000Y-35830000D01*
X223480000Y-35830000D02*
X219100000Y-31450000D01*
X208280000Y-129540000D02*
X208280000Y-128339700D01*
X208280000Y-128339700D02*
X209930800Y-126688900D01*
X209930800Y-126688900D02*
X209930800Y-119079200D01*
X209930800Y-119079200D02*
X212090000Y-116920000D01*
X208280000Y-130140100D02*
X208280000Y-129540000D01*
X208280000Y-130140100D02*
X208280000Y-130740300D01*
X209480300Y-114300000D02*
X212090000Y-116909700D01*
X212090000Y-116909700D02*
X212090000Y-116920000D01*
X213360000Y-100260300D02*
X213256000Y-100364300D01*
X213256000Y-100364300D02*
X213256000Y-110524300D01*
X213256000Y-110524300D02*
X209480300Y-114300000D01*
X170180000Y-104140000D02*
X170180000Y-102939700D01*
X168840300Y-83445100D02*
X174815400Y-77470000D01*
X174815400Y-77470000D02*
X177880000Y-77470000D01*
X177880000Y-77470000D02*
X181610000Y-73740000D01*
X170180000Y-102939700D02*
X168840300Y-101600000D01*
X168840300Y-101600000D02*
X168840300Y-83445100D01*
X167640000Y-82480300D02*
X168604800Y-83445100D01*
X168604800Y-83445100D02*
X168840300Y-83445100D01*
X167640000Y-81280000D02*
X167640000Y-82480300D01*
X118110000Y-63420000D02*
X117822800Y-63707200D01*
X117822800Y-63707200D02*
X117822800Y-72702900D01*
X117822800Y-72702900D02*
X121920000Y-76800100D01*
X55880000Y-125660300D02*
X55880000Y-126204500D01*
X55880000Y-126204500D02*
X60871600Y-131196100D01*
X60871600Y-131196100D02*
X62418100Y-131196100D01*
X62418100Y-131196100D02*
X62828300Y-131606300D01*
X62828300Y-131606300D02*
X62828300Y-135298300D01*
X62828300Y-135298300D02*
X63500000Y-135970000D01*
X52000300Y-116840000D02*
X52000300Y-117213100D01*
X52000300Y-117213100D02*
X55437200Y-120650000D01*
X55437200Y-120650000D02*
X56310000Y-120650000D01*
X56310000Y-120650000D02*
X57080300Y-121420300D01*
X57080300Y-121420300D02*
X57080300Y-123859800D01*
X57080300Y-123859800D02*
X55880000Y-125060100D01*
X58500000Y-54610000D02*
X58500000Y-45285000D01*
X58500000Y-45285000D02*
X57665000Y-44450000D01*
X50800000Y-116840000D02*
X52000300Y-116840000D01*
X55880000Y-125060100D02*
X55880000Y-125660300D01*
X55880000Y-124460000D02*
X55880000Y-125060100D01*
X40640000Y-167640000D02*
X40640000Y-166439700D01*
X43260000Y-146050000D02*
X43260000Y-164192700D01*
X43260000Y-164192700D02*
X41013000Y-166439700D01*
X41013000Y-166439700D02*
X40640000Y-166439700D01*
X43260000Y-120650000D02*
X43260000Y-146050000D01*
X134620000Y-121920000D02*
X134620000Y-117791300D01*
X134620000Y-117791300D02*
X121920000Y-105091300D01*
X121920000Y-105091300D02*
X121920000Y-99060000D01*
X203280000Y-53975000D02*
X202618400Y-54636600D01*
X202618400Y-54636600D02*
X202618400Y-73416400D01*
X202618400Y-73416400D02*
X201035100Y-74999700D01*
X201035100Y-74999700D02*
X200660000Y-74999700D01*
X46409600Y-106680000D02*
X44422200Y-108667400D01*
X44422200Y-108667400D02*
X44422200Y-119487800D01*
X44422200Y-119487800D02*
X43260000Y-120650000D01*
X137160000Y-76200000D02*
X137160000Y-74999700D01*
X213360000Y-99060000D02*
X213360000Y-100260300D01*
X200660000Y-76200000D02*
X200660000Y-74999700D01*
X182370000Y-29135000D02*
X180380000Y-31125000D01*
X180380000Y-31125000D02*
X180380000Y-43180000D01*
X200330000Y-29065000D02*
X209470000Y-38205000D01*
X209470000Y-38205000D02*
X209470000Y-38735000D01*
X192675000Y-31115000D02*
X192675000Y-30280000D01*
X192675000Y-30280000D02*
X191530000Y-29135000D01*
X73740000Y-54610000D02*
X76200000Y-52150000D01*
X76200000Y-52150000D02*
X76200000Y-41840300D01*
X180380000Y-43180000D02*
X180380000Y-48260000D01*
X182880000Y-53340000D02*
X182880000Y-50760000D01*
X182880000Y-50760000D02*
X180380000Y-48260000D01*
X76200000Y-40640000D02*
X76200000Y-39439700D01*
X76120000Y-34290000D02*
X76120000Y-39359700D01*
X76120000Y-39359700D02*
X76200000Y-39439700D01*
X177800000Y-50880000D02*
X177800000Y-50840000D01*
X177800000Y-50840000D02*
X180380000Y-48260000D01*
X148590000Y-63420000D02*
X147400000Y-62230000D01*
X147400000Y-62230000D02*
X144295900Y-62230000D01*
X144295900Y-62230000D02*
X139412100Y-67113800D01*
X139412100Y-67113800D02*
X139412100Y-73120600D01*
X139412100Y-73120600D02*
X137533000Y-74999700D01*
X137533000Y-74999700D02*
X137160000Y-74999700D01*
X121920000Y-76800100D02*
X121920000Y-77400300D01*
X121920000Y-76200000D02*
X121920000Y-76800100D01*
X137160000Y-76200000D02*
X137160000Y-79455000D01*
X137160000Y-79455000D02*
X142160000Y-84455000D01*
X76200000Y-40640000D02*
X76200000Y-41840300D01*
X71120000Y-76200000D02*
X71120000Y-77400300D01*
X41840300Y-101600000D02*
X43260000Y-100180300D01*
X43260000Y-100180300D02*
X43260000Y-80010000D01*
X41840300Y-101600000D02*
X41840300Y-102110700D01*
X41840300Y-102110700D02*
X46409600Y-106680000D01*
X71120000Y-101600000D02*
X63500000Y-93980000D01*
X63500000Y-93980000D02*
X63500000Y-92790000D01*
X46409600Y-106680000D02*
X48180000Y-106680000D01*
X40640000Y-101600000D02*
X41840300Y-101600000D01*
X102627400Y-134307600D02*
X103585000Y-133350000D01*
X102627400Y-134307600D02*
X86360000Y-118040300D01*
X86360000Y-116840000D02*
X86360000Y-118040300D01*
X134620000Y-122520100D02*
X134620000Y-121920000D01*
X134620000Y-122520100D02*
X134620000Y-123120300D01*
X170180000Y-104140000D02*
X170180000Y-105340300D01*
X170180000Y-105340300D02*
X170180000Y-111680000D01*
X170180000Y-111680000D02*
X180340000Y-121840000D01*
X203280000Y-53975000D02*
X203280000Y-50699100D01*
X203280000Y-50699100D02*
X209550000Y-44429100D01*
X209550000Y-44429100D02*
X209550000Y-38815000D01*
X209550000Y-38815000D02*
X209470000Y-38735000D01*
X236140000Y-38100000D02*
X232985000Y-34945000D01*
X232985000Y-34945000D02*
X232985000Y-28910000D01*
X52380000Y-35560000D02*
X44760000Y-27940000D01*
X44760000Y-27940000D02*
X41275000Y-27940000D01*
X134620000Y-123120300D02*
X134609700Y-123120300D01*
X134609700Y-123120300D02*
X130810000Y-126920000D01*
X187960000Y-76200000D02*
X187960000Y-77400300D01*
X187960000Y-99060000D02*
X187960000Y-97859700D01*
X187960000Y-97859700D02*
X189230000Y-96589700D01*
X189230000Y-96589700D02*
X189230000Y-78670300D01*
X189230000Y-78670300D02*
X187960000Y-77400300D01*
X248920000Y-49530000D02*
X248920000Y-48329700D01*
X248920000Y-48329700D02*
X247719700Y-47129400D01*
X247719700Y-47129400D02*
X247719700Y-35069700D01*
X247719700Y-35069700D02*
X244100000Y-31450000D01*
X106680000Y-99060000D02*
X106680000Y-97859700D01*
X106680000Y-97859700D02*
X106304900Y-97859700D01*
X106304900Y-97859700D02*
X103505000Y-95059800D01*
X103505000Y-95059800D02*
X103505000Y-86280000D01*
X121920000Y-99060000D02*
X121920000Y-97859700D01*
X121920000Y-97859700D02*
X121544900Y-97859700D01*
X121544900Y-97859700D02*
X118110000Y-94424800D01*
X118110000Y-94424800D02*
X118110000Y-86280000D01*
X106680000Y-76200000D02*
X106680000Y-77400300D01*
X106680000Y-77400300D02*
X105479700Y-78600600D01*
X105479700Y-78600600D02*
X105479700Y-84305300D01*
X105479700Y-84305300D02*
X103505000Y-86280000D01*
X121920000Y-77400300D02*
X120719700Y-78600600D01*
X120719700Y-78600600D02*
X120719700Y-83670300D01*
X120719700Y-83670300D02*
X118110000Y-86280000D01*
X213360000Y-83820000D02*
X213360000Y-82619700D01*
X215900000Y-76200000D02*
X215900000Y-80079700D01*
X215900000Y-80079700D02*
X213360000Y-82619700D01*
X124460000Y-40640000D02*
X124460000Y-41840300D01*
X124460000Y-41840300D02*
X131445000Y-48825300D01*
X131445000Y-48825300D02*
X131445000Y-61515000D01*
X131445000Y-61515000D02*
X133350000Y-63420000D01*
X208280000Y-130740300D02*
X212090000Y-134550300D01*
X212090000Y-134550300D02*
X212090000Y-134700000D01*
X208280000Y-114300000D02*
X209480300Y-114300000D01*
%TO.N,VCC*%
X63500000Y-101600000D02*
X63500000Y-97790000D01*
X187960000Y-82619700D02*
X187960000Y-79940400D01*
X187960000Y-79940400D02*
X186759600Y-78740000D01*
X215900000Y-139700000D02*
X217100400Y-140900400D01*
X217100400Y-140900400D02*
X217100400Y-145793000D01*
X217100400Y-145793000D02*
X209858400Y-153035000D01*
X209858400Y-153035000D02*
X208280000Y-153035000D01*
X215900000Y-137160000D02*
X215900000Y-139700000D01*
X215900000Y-139700000D02*
X212090000Y-139700000D01*
X213443200Y-121920000D02*
X213443200Y-130412800D01*
X213443200Y-130412800D02*
X215900000Y-132869600D01*
X215900000Y-132869600D02*
X215900000Y-137160000D01*
X215900000Y-107880300D02*
X214627200Y-109153100D01*
X214627200Y-109153100D02*
X214627200Y-116367200D01*
X214627200Y-116367200D02*
X214796300Y-116536300D01*
X214796300Y-116536300D02*
X214796300Y-120566900D01*
X214796300Y-120566900D02*
X213443200Y-121920000D01*
X212090000Y-121920000D02*
X213443200Y-121920000D01*
X195580000Y-58420000D02*
X195580000Y-59620300D01*
X195580000Y-59620300D02*
X195204800Y-59620300D01*
X195204800Y-59620300D02*
X194379700Y-60445400D01*
X194379700Y-60445400D02*
X194379700Y-68970200D01*
X194379700Y-68970200D02*
X188419900Y-74930000D01*
X188419900Y-74930000D02*
X187485900Y-74930000D01*
X187485900Y-74930000D02*
X186759600Y-75656300D01*
X186759600Y-75656300D02*
X186759600Y-78740000D01*
X186759600Y-78740000D02*
X181610000Y-78740000D01*
X195580000Y-53975000D02*
X195580000Y-58420000D01*
X187960000Y-83820000D02*
X187960000Y-82619700D01*
X187960000Y-83820000D02*
X187960000Y-85020300D01*
X185420000Y-106680000D02*
X185420000Y-87560300D01*
X185420000Y-87560300D02*
X187960000Y-85020300D01*
X180340000Y-116840000D02*
X184303200Y-120803200D01*
X184303200Y-120803200D02*
X185051400Y-120803200D01*
X185051400Y-120803200D02*
X185134900Y-120719700D01*
X185134900Y-120719700D02*
X185420000Y-120719700D01*
X78740000Y-124460000D02*
X78740000Y-125660300D01*
X78740000Y-125660300D02*
X78364900Y-125660300D01*
X78364900Y-125660300D02*
X77519100Y-126506100D01*
X77519100Y-126506100D02*
X77519100Y-144829100D01*
X77519100Y-144829100D02*
X78740000Y-146050000D01*
X55880000Y-35560000D02*
X55880000Y-36760300D01*
X56805700Y-43349600D02*
X55705300Y-44450000D01*
X63500000Y-54610000D02*
X63500000Y-46757800D01*
X63500000Y-46757800D02*
X60091800Y-43349600D01*
X60091800Y-43349600D02*
X56805700Y-43349600D01*
X56805700Y-43349600D02*
X56805700Y-37686000D01*
X56805700Y-37686000D02*
X55880000Y-36760300D01*
X54605000Y-44450000D02*
X55705300Y-44450000D01*
X63500000Y-58420000D02*
X63500000Y-54610000D01*
X215900000Y-106680000D02*
X215900000Y-107880300D01*
X163830000Y-153670000D02*
X163830000Y-152469700D01*
X163830000Y-152469700D02*
X163454900Y-152469700D01*
X163454900Y-152469700D02*
X149860000Y-138874800D01*
X149860000Y-138874800D02*
X149860000Y-129540000D01*
X163830000Y-153670000D02*
X163830000Y-156845000D01*
X220980000Y-53975000D02*
X231140000Y-43815000D01*
X231140000Y-43815000D02*
X231140000Y-41910000D01*
X101600000Y-33020000D02*
X101600000Y-34220300D01*
X101600000Y-34220300D02*
X102800300Y-35420600D01*
X102800300Y-35420600D02*
X102800300Y-57715300D01*
X102800300Y-57715300D02*
X103505000Y-58420000D01*
X114300000Y-58420000D02*
X114300000Y-59620300D01*
X114300000Y-81280000D02*
X114300000Y-80079700D01*
X114300000Y-80079700D02*
X115500700Y-78879000D01*
X115500700Y-78879000D02*
X115500700Y-60448000D01*
X115500700Y-60448000D02*
X114673000Y-59620300D01*
X114673000Y-59620300D02*
X114300000Y-59620300D01*
X68580000Y-109220000D02*
X68580000Y-110420300D01*
X73660000Y-120650000D02*
X73660000Y-118940500D01*
X73660000Y-118940500D02*
X72390000Y-117670500D01*
X72390000Y-117670500D02*
X72390000Y-114230300D01*
X72390000Y-114230300D02*
X68580000Y-110420300D01*
X106680000Y-139700000D02*
X106680000Y-140900300D01*
X113030000Y-160020000D02*
X113030000Y-156998700D01*
X113030000Y-156998700D02*
X107161300Y-151130000D01*
X107161300Y-151130000D02*
X106215300Y-151130000D01*
X106215300Y-151130000D02*
X105449800Y-150364500D01*
X105449800Y-150364500D02*
X105449800Y-141757400D01*
X105449800Y-141757400D02*
X106306900Y-140900300D01*
X106306900Y-140900300D02*
X106680000Y-140900300D01*
X231140000Y-38100000D02*
X227445000Y-34405000D01*
X227445000Y-34405000D02*
X227445000Y-28910000D01*
X231140000Y-41910000D02*
X231140000Y-38100000D01*
X207210000Y-41910000D02*
X195580000Y-53540000D01*
X195580000Y-53540000D02*
X195580000Y-53975000D01*
X207679900Y-41910000D02*
X207210000Y-41910000D01*
X207210000Y-41910000D02*
X207079700Y-41910000D01*
X208280000Y-41910000D02*
X207679900Y-41910000D01*
X207079700Y-41910000D02*
X207079700Y-41344700D01*
X207079700Y-41344700D02*
X204470000Y-38735000D01*
X63500000Y-101600000D02*
X63500000Y-102800300D01*
X68580000Y-109220000D02*
X68580000Y-107507300D01*
X68580000Y-107507300D02*
X63873000Y-102800300D01*
X63873000Y-102800300D02*
X63500000Y-102800300D01*
X48260000Y-83820000D02*
X48260000Y-80010000D01*
X48260000Y-124460000D02*
X48260000Y-120650000D01*
X48260000Y-149860000D02*
X48260000Y-146050000D01*
X78740000Y-83820000D02*
X78740000Y-80010000D01*
X208280000Y-58420000D02*
X208280000Y-53975000D01*
X175260000Y-58420000D02*
X176460300Y-58420000D01*
X176460300Y-58420000D02*
X176460300Y-57219700D01*
X176460300Y-57219700D02*
X177800000Y-55880000D01*
X106680000Y-139700000D02*
X106680000Y-138499700D01*
X106680000Y-138499700D02*
X108585000Y-136594700D01*
X108585000Y-136594700D02*
X108585000Y-133350000D01*
X185420000Y-121920000D02*
X185420000Y-120719700D01*
X137160000Y-88900000D02*
X137160000Y-84455000D01*
%TD*%
M02*
